<?xml version="1.0" encoding="utf-8"?>
<!-- Generator: Adobe Illustrator 23.0.3, SVG Export Plug-In . SVG Version: 6.00 Build 0)  -->
<svg version="1.1" id="Layer_1" xmlns="http://www.w3.org/2000/svg" xmlns:xlink="http://www.w3.org/1999/xlink" x="0px" y="0px"
	 viewBox="0 0 452 452.9" style="enable-background:new 0 0 452 452.9;" xml:space="preserve">
<path style="fill:#231F20;" d="M342.6,390.7c0.1-23.8,0.2-47.6,0.3-71.5c0-11.9,0-23.8,0-35.7c0-10,1.5-11.7,11.3-13
	c20.9-2.8,39.1-11.4,54.1-26.2c30.8-30.4,37.3-77.9,16-115.7c-4.4-7.7-4.3-11.8,0.2-14.6c4.8-2.9,8.7-0.8,13.2,7.2
	c36.5,65-0.1,145.6-74.2,163.1c-4.6,1.1-5.4,2.9-5.4,7.1c0.1,50.2,0.1,100.5,0.1,150.7c0,8.9-1.9,10.8-10.9,10.8
	c-77.8,0-155.7,0-233.5,0c-8.3,0-10.5-2.3-10.5-10.6c0-49.8-0.1-99.7,0.1-149.5c0-4.7-1.2-6.4-6.1-6.9C48.2,280.7,5.2,237,0.5,187.5
	C-5.8,121.1,47.2,63,113.5,64.8c10.2,0.3,14.8-2.2,20.3-10.9c23.4-37.3,57.7-56.4,101.9-53.6c41.1,2.6,71.5,23.8,91.4,59.7
	c2.2,3.9,4.3,5,8.7,4.7c17.5-1.2,34.3,2.5,50.4,9.4c5.6,2.4,7.7,6.3,6.1,10.5c-1.8,4.6-6.1,6.1-12,3.5c-16.8-7.3-34.1-10.3-52.3-7.4
	c-6.5,1.1-9.2-2.6-11.5-7.9c-11.2-26-30-44-56.9-53.1c-48-16.3-99,6.5-119,53c-3.9,9-4.4,9.4-14.3,8c-6.9-1-13.8-1.6-20.8-1
	C78.2,85.1,53,94.4,35.9,118c-21.3,29.6-25.3,61.9-11.4,95.4c13.2,31.9,38.2,49.8,72.1,55.4c3.9,0.7,7.9,1,11.8,1.2
	c8.5,0.3,11.7,3.5,11.8,12.2c0.2,12.9,0,25.8,0.1,38.7c0,23.6-0.1,47.3,0.1,70.9c0.3,11.9,0,23.7,0.1,35.6c0.1,7.6,0.3,7.9,8.1,7.9
	c12.6,0.1,25.3-0.2,37.9,0.1c43.1-0.3,86.2-0.3,129.3,0c12.5-0.3,25,0,37.5-0.1c6.9-0.1,7.3-0.5,7.4-7.5c0.1-9.7,0-19.4,0-29.2
	C340.8,395.9,340.6,393,342.6,390.7z"/>
<path style="fill:#E9E9E9;" d="M118.7,390.9c0-35.9-0.1-71.8-0.1-107.7c0-9.4-2-11.4-11.5-11.5C61.2,271,21.6,235.2,16,189.3
	C10.2,141.5,35.1,100.5,79.3,85c8.4-3,17.2-4.7,26.2-4.9c-9.3,3.6-14.8,11.5-20.7,18.7c-15.4,19.1-22.7,41.5-21.9,65.5
	c1,31.7,13.8,58.3,39.1,78.5c17.6,14.1,37.6,21.5,59.9,22.8c5.2,0.3,4.4,3.3,4.4,6.4c0,35.5,0,71,0,106.5c0,4,0,7.9,0.1,11.9
	c-0.2,0.3-0.5,0.6-0.7,0.9c-1.9,1.3-4.1,1.3-6.3,1.3c-11.3,0.1-22.6,0.1-33.9,0C123.1,392.6,120.7,392.6,118.7,390.9z"/>
<path style="fill:#AFDCFB;" d="M342.6,390.7c0.1,14.4,0.1,28.8,0.3,43.2c0,2.8-1.1,3.8-3.8,3.7c-14.2-0.2-28.4-0.3-42.6-0.4
	c-2.4-2.1-2.2-5-2.2-7.7c-0.1-9.3,0-18.6-0.1-27.9c-0.1-7.3-0.5-7.8-7.7-7.8c-36.4-0.1-72.8,0-109.3,0c-3.3,0-6.7,0.4-10-1
	c-0.8-0.4-1.1-1-1.1-1.9c0-0.2,0.1-0.4,0.2-0.6c3,0.1,5.9,0.3,8.9,0.3C231,390.7,286.8,390.7,342.6,390.7z"/>
<path style="fill:#231F20;" d="M203.2,293.6c0,18.5,0,36.9,0,55.4c0,6.6-2.5,9.9-7.5,10s-7.9-3.3-7.9-9.7c0-37.1,0-74.2,0-111.3
	c0-6.1,2.7-9.3,7.6-9.4c5.1-0.1,7.7,3.1,7.7,9.7C203.2,256.7,203.2,275.2,203.2,293.6z"/>
<path style="fill:#231F20;" d="M264,293.6c0-18.3,0-36.5,0-54.8c0-7.2,2.5-10.4,7.7-10.3c5.2,0.1,7.6,3.4,7.6,10.6
	c0,36.3,0,72.6,0,108.9c0,1,0.1,2,0,3c-0.4,4.8-2.8,8-7.9,7.9c-5-0.1-7.4-3.2-7.4-8.1C264,331.7,264,312.7,264,293.6z"/>
<path style="fill:#0090FB;" d="M166.4,391.9c41.3,0,82.6,0.1,123.8-0.1c4.9,0,6.4,1.2,6.3,6.3c-0.3,13.1-0.1,26.2-0.1,39.3
	c-43.4,0-86.8,0-130.2,0c-1.5-1.8-1.8-3.9-1.8-6.1c-0.1-11.1-0.1-22.2,0-33.3C164.5,395.7,164.5,393.5,166.4,391.9z"/>
<path style="fill:#0770BE;" d="M166.4,391.9c0,15.1-0.1,30.3-0.1,45.4c-14.2,0-28.4-0.1-42.6,0.1c-3.9,0.1-5.1-1.2-5.1-5.1
	c0.2-13.8,0.1-27.6,0.2-41.5c15.8,0,31.6,0.1,47.4,0.1C166.2,391.3,166.3,391.6,166.4,391.9z"/>
</svg>
