<?xml version="1.0" encoding="utf-8"?>
<!-- Generator: Adobe Illustrator 23.0.3, SVG Export Plug-In . SVG Version: 6.00 Build 0)  -->
<svg version="1.1" id="Layer_1" xmlns="http://www.w3.org/2000/svg" xmlns:xlink="http://www.w3.org/1999/xlink" x="0px" y="0px"
	 viewBox="0 0 512.2 512.2" style="enable-background:new 0 0 512.2 512.2;" xml:space="preserve">
<path style="fill:#2C426A;" d="M303.9,496c-77.5,0-154.9,0-232.4,0c-6.5-1-12.8-2-17.6-7.3c-4.8-5.4-7.6-11.4-8-18.5
	c-0.1-1.9-0.1-3.7-0.1-5.6c0-98.7,0-197.4,0-296c0-4.9,0-9.7,2-14.3c5.5-13,15.9-19,29.5-19.3c17.6-0.5,35.3-0.1,52.9-0.1
	c6.6,0,13.1,0,19.7,0c8.7-0.1,10.6-2.4,9.7-11.2c-2.5-23.9-5-47.8-7.6-71.7c-1.4-12.5,3.5-22.5,13.1-30.5c5-4.2,11.2-4.2,17.1-5.3
	c3.7,0,7.5,0,11.2,0c0.5,0.4,1.1,0.4,1.8,0.5c16.9,1.1,28.5,13.4,28.6,30.3c0,12.2-2.1,24.2-3.3,36.3c-1.3,14.1-3.1,28.2-4.2,42.4
	c-0.6,7,1.4,9.1,8.5,9.1c23.9,0.1,47.8,0.1,71.7,0c10.6,0,19.6,3.1,26.7,11.3c4,4.6,6.5,9.9,6.5,16.1c0.1,33.4,0,66.8,0,100.3
	c0,3.4-0.9,6.4-2.4,9.4c-14.5,28.4-28.2,57.1-42.3,85.7c-10.8,22-22.1,43.8-32.3,66.1c-0.7,1.6-1.6,3.1-1.7,4.8
	c-0.2,3.8,2.7,6.2,6.9,5.3c3.8-0.8,7.5-2.2,11.1-3.6c17.6-7.1,34.3-15.8,49.9-26.6c2.4-1.7,4.9-4.6,8.4-2.7c3.1,1.8,2.2,5.3,2.2,8.1
	c0.1,19.8,0.1,39.7,0,59.5c0,15.4-9.1,25.4-24.4,27C304.7,495.6,304.3,495.7,303.9,496z"/>
<path style="fill:#E7E7E7;" d="M272.7,414c-0.2-2.1,0.7-3.3,1.3-4.5c12.1-24.6,24.3-49.3,36.4-73.9c18.8-38.2,37.6-76.5,56.4-114.7
	c2.1-4.2,4.1-8.4,6-12.7c1.3-3.2,3-3.7,6.1-2.2c16,7.8,32.1,15.4,48.1,23.1c4.8,2.3,9.6,4.6,14.4,6.8c2.6,1.2,3,2.6,1.5,5.1
	c-16.6,29.3-35.4,56.9-57.1,82.7c-19,22.7-39.8,43.4-63.5,61.3c-14.8,11.2-30.9,20.6-47.7,28.5C274.3,413.8,273.6,413.8,272.7,414z"
	/>
<path style="fill:#0091FC;" d="M449.8,74.2c10.9,0,17.6,10.8,12.6,20.9c-9.2,18.6-18.6,37.1-27.9,55.6c-8.5,17-17.2,34-25.6,51.1
	c-1.6,3.2-3,4.1-6.3,2.3c-5.8-3.1-11.7-6-17.7-8.5c-3.9-1.6-3.2-3.5-1.7-6.4c16.3-32.3,32.5-64.7,48.8-97c1.8-3.5,3.4-7.1,5.3-10.4
	C439.9,76.9,444.1,74.3,449.8,74.2z"/>
</svg>
