<?xml version="1.0" encoding="utf-8"?>
<!-- Generator: Adobe Illustrator 23.0.3, SVG Export Plug-In . SVG Version: 6.00 Build 0)  -->
<svg version="1.1" id="Layer_1" xmlns="http://www.w3.org/2000/svg" xmlns:xlink="http://www.w3.org/1999/xlink" x="0px" y="0px"
	 viewBox="0 0 585.6 602" style="enable-background:new 0 0 585.6 602;" xml:space="preserve">
<path style="fill:#D9DCE0;" d="M185.9,0c5.3,2.2,11.1,3.1,16.4,5.7c9.9,4.8,17.4,12.1,23.2,21c19.1,28.8,37.9,57.8,56.7,86.8
	c20.1,30.9,40.2,61.9,60.3,92.8c10.2,15.7,20.6,31.3,31,46.9c1.9,2.8,2.1,4.6-0.6,7.3c-37.7,37.4-75.2,75-112.7,112.6
	c-2.6,2.7-4.3,2.6-7.3,0.6c-36.2-23.9-72.5-47.6-108.7-71.3c-39.2-25.6-78.3-51.5-117.7-76.8c-29.2-18.7-34-55-15.8-80.9
	c1.3-1.9,3-3.6,4.6-5.3C56.4,98.2,97.6,57.1,138.7,15.9c8-8,17.6-12.7,28.7-14.8c0.7-0.1,1.3-0.7,2-1.1C174.9,0,180.4,0,185.9,0z"/>
<path style="fill:#0074BC;" d="M363.3,469.3c-15,0.5-30.1-3.9-44.6-10.8c-3.5-1.7-3.8-2.8-1-5.7c45.1-44.9,90.1-89.9,135-135.1
	c3.2-3.2,4.2-1.7,5.6,1.3c17.9,38.6,14.6,75.4-10.6,109.5C428.1,455.2,397.6,469.5,363.3,469.3z"/>
<path style="fill:#FABC3D;" d="M272.9,412.9c-5.2,0.5-8.4-1.9-10.3-5.9c-2-4.1-1.1-8,1.8-11.4c0.8-0.9,1.6-1.7,2.5-2.5
	C309,351,351,309,393.1,266.9c2.1-2,3.9-4.4,7.1-4.8c4.8-0.5,9.2,0.4,11.5,5.1c2.5,5.1,1.5,9.6-2.7,13.8
	c-36.1,35.9-72,71.9-108,107.9c-6.8,6.8-13.6,13.5-20.3,20.3C278.4,411.5,276,413.5,272.9,412.9z"/>
<path style="fill:#FABC3D;" d="M303.6,440.8c-0.6-0.7-1-1-1.3-1.5s-0.3-1.1-0.6-1.7c-6.6-16.1-6.6-16.1,5.8-28.6
	c36.2-36.2,72.4-72.3,108.4-108.6c3.5-3.5,6.3-5.2,11.1-2.5c4.1,2.4,9.3,2.5,13.1,5.8c-3.2,3.4-6.3,6.9-9.7,10.2
	c-40.9,40.9-81.7,81.8-122.6,122.6C306.6,438,305.2,439.3,303.6,440.8z"/>
<path d="M535,456.2c-10.3,0-15.3-4.1-15.2-12.6c0.1-7.4,6.1-12.1,15.4-12.1c8.7,0,14.9,5.1,15,12.3
	C550.3,451.1,544.1,456.2,535,456.2z"/>
<path d="M571.4,497.4c8.3,0,14.1,5,14.2,12.2c0.1,7.2-5.6,12.3-14.1,12.4c-2.3,0-4.7,0.3-7-0.5c-6.3-2.3-10.1-7.2-9.5-12.6
	c0.6-6.3,6-11.1,12.8-11.5C569.1,497.3,570.2,497.4,571.4,497.4z"/>
<path d="M493.8,509.1c-11.5,0-17.8-7.6-14-17c2-5.1,8.5-8.3,15.8-7.7c6.8,0.5,12.5,4.8,13.6,10.2
	C510.6,501.7,503.5,510.9,493.8,509.1z"/>
<path d="M432.4,497.4c12.3,0,18.6,8.6,13.5,18.4c-3.2,6.1-15.9,8.6-22.5,4.4c-6.5-4.1-8-12.1-3.5-18.1
	C422.3,498.7,426.1,497.4,432.4,497.4z"/>
<path d="M481.1,569.1c-5.6,1-9.9-2-13-7c-2.7-4.3-1-8.3,1.3-12.1c3.2-5.1,11.7-7,19.2-4.4c6.2,2.1,9.2,6.3,8.8,12.2
	C497,564.6,490.8,569.1,481.1,569.1z"/>
<path d="M413.5,562c10,0,15.9,5.1,15.7,12.7c-0.2,7.3-6.2,12.1-15.1,12c-11.3-0.1-18.2-8.3-14.2-17.2
	C402.7,563.4,407.7,561.1,413.5,562z"/>
<path d="M543.8,602c-9.5,0-14.4-3.7-14.7-11.2c-0.3-8.1,5.1-13.3,13.9-13.5c9.4-0.2,15.4,4.4,15.5,11.9
	C558.7,598.1,554.2,602,543.8,602z"/>
</svg>
