<?xml version="1.0" encoding="utf-8"?>
<!-- Generator: Adobe Illustrator 23.0.3, SVG Export Plug-In . SVG Version: 6.00 Build 0)  -->
<svg version="1.1" id="Layer_1" xmlns="http://www.w3.org/2000/svg" xmlns:xlink="http://www.w3.org/1999/xlink" x="0px" y="0px"
	 viewBox="0 0 383.5 605.8" style="enable-background:new 0 0 383.5 605.8;" xml:space="preserve">
<path d="M191.5,605.7c-24.4,0-48.8,0-73.2,0c-27.8-0.1-48-18.2-51.6-45.9c-8.6-66.2-17.4-132.4-26-198.7
	c-6.4-48.7-12.7-97.5-18.9-146.2c-0.4-3.1-1.5-4.6-4.3-6c-11.1-5.5-17.3-14.6-17.4-27.1c0-12.5,6-21.9,17.2-27
	c4.9-2.2,4.2-6.8,6.5-9.9c4.7-6.3,3.2-9.5-3.5-14C0.1,117-5.7,89.1,6,67.4c12-22.3,38-32.6,61.2-23.8c4,1.5,6.5,1.2,9.8-1.5
	C128.4,0.6,185.8-10.1,248.6,9.5c32.1,10,58.6,28.7,80,54.6c3.3,3.9,4.9,8,4.7,13.2c-0.3,11.1,0,22.3-0.2,33.4
	c-0.1,3.3,1,5.2,3.7,7.2c11.5,8.5,21.1,18.7,25.2,32.9c0.6,2.3,2.2,2.7,3.9,3.6c11.3,5.7,17.8,14.7,17.7,27.5
	c-0.1,12.8-6.4,22-17.9,27.3c-2.9,1.3-3.4,3-3.7,5.7c-5.3,41.2-10.7,82.5-16.1,123.7c-5.7,43.9-11.5,87.9-17.2,131.8
	c-3.9,30.2-8,60.4-11.7,90.6c-3.1,25.2-24.1,44.5-49.7,44.7c-12.6,0.1-25.2,0-37.8,0C216.8,605.7,204.1,605.7,191.5,605.7z"/>
<path style="fill:#FABC3D;" d="M191.9,302.9c43.7,0,87.4,0.1,131.2-0.2c6.1,0,6.9,2,6.2,7.2c-5,36.8-9.8,73.6-14.7,110.4
	c-0.6,4.5,0.9,10.7-2.8,12.9c-3.3,2.1-8.9,0.8-13.5,0.8c-73.6,0-147.1-0.1-220.7,0.2c-5.7,0-7.4-1.8-8.1-7.2
	c-4.8-38.7-9.9-77.4-15-116.1c-1.1-8.1-1.1-8.1,6.8-8.1C104.9,302.9,148.4,302.9,191.9,302.9z"/>
<path style="fill:#B2162D;" d="M191.8,454.3c37.4,0,74.8,0.1,112.3-0.1c5.6,0,6.2,1.3,5.5,6.6c-4.6,32.6-8.6,65.4-12.9,98
	c-2.1,16.1-14.4,26.7-30.7,26.7c-49.6,0.1-99.2,0.1-148.8,0c-15.5,0-28-10.9-30-26c-4.5-33.7-8.7-67.5-13.4-101.2
	c-0.8-5.6,2.8-3.9,5.2-3.9C116.6,454.3,154.2,454.3,191.8,454.3z"/>
<path style="fill:#B2162D;" d="M191.8,212.1c47.9,0,95.9,0,143.8-0.1c4.6,0,6.4,0.3,5.5,6c-3,19.5-5.5,39.1-7.7,58.7
	c-0.5,4.8-1.8,6.2-6.7,6.1c-49.6-0.2-99.2-0.1-148.8-0.1c-39.9,0-79.9-0.1-119.8,0.1c-5.1,0-7.5-0.6-8.1-6.7
	c-1.9-19.2-4.4-38.4-7.5-57.4c-1-6.2,0.9-6.7,6.1-6.7C96.4,212.1,144.1,212.1,191.8,212.1z"/>
<path style="fill:#FABC3D;" d="M43.3,151.2c4.3-8.6,10.9-14.2,18.2-19.1c20.7-13.7,43.9-20.9,67.9-25.3c51.4-9.4,102.4-8,152.7,6.9
	c16.6,4.9,32.3,11.8,46,22.8c4.9,3.9,9.2,8.4,12.3,14.7C241.2,151.2,142.5,151.2,43.3,151.2z"/>
<path style="fill:#FEFEFE;" d="M101.2,92.2c-0.1-11.6-3.4-22.3-10.6-31.5c-2.8-3.5,0.6-4.4,2.2-5.7c18.9-15.3,40.3-25.5,64-30.8
	c26.7-6,53.3-5,79.7,2.5c4,1.1,6.1,2.6,6,7.5c-0.4,15.3-0.2,30.7-0.1,46c0,2.5,0.3,4.2-3.5,3.7c-45.9-5.7-91.3-3.6-136.1,8.4
	C102.3,92.3,101.9,92.2,101.2,92.2z"/>
<path style="fill:#50D3E1;" d="M191.8,171.7c52.1,0,104.2,0,156.3,0c2.1,0,4.2-0.2,6.3,0.1c5.4,0.9,8.6,4.2,8.9,9.8
	c0.3,5.2-3.7,9.8-9.2,10.2c-4.8,0.3-9.7,0.1-14.5,0.1c-102.1,0-204.3,0-306.4,0.1c-5.5,0-10.1-1-12.3-6.6c-1.6-3.9-0.6-7.4,2.1-10.5
	c2.8-3.1,6.6-3.2,10.5-3.2C86.3,171.7,139.1,171.7,191.8,171.7z"/>
<path style="fill:#50D3E2;" d="M50.5,60.7c17.6,0,32,15.7,30.2,33c-0.4,4-1.9,6.8-6.1,8.4c-10,3.9-19.4,9.1-27.8,15.6
	c-2.7,2.1-5,2.3-8,1c-13-5.5-20.9-19.9-18.1-33.2C23.8,70.9,36.1,60.7,50.5,60.7z"/>
<path style="fill:#50D2E1;" d="M262.5,36.9c16.7,8.2,30.3,18.8,42.8,31.1c5.8,5.8,8.8,11.7,7.8,20c-0.6,4.8-0.1,9.6-0.1,14.7
	c-0.7,0.1-1.3,0.3-1.7,0.1C297,96.6,282.2,92,267,88.8c-3.2-0.7-4.5-1.8-4.5-5.3C262.6,68.4,262.5,53.3,262.5,36.9z"/>
<path d="M80.8,332.8c0-9.7,0-9.7,10-9.7c10.1,0,10.1,0,10.1,10.2c0,10,0,10-9.7,10C80.8,343.3,80.8,343.3,80.8,332.8z"/>
<path d="M131.4,343.3c-10.2,0-10.2,0-10.2-9.5c0-10.7,0-10.7,13.5-10.7c6.8,0,6.9,0,6.7,13C141.3,344.3,143,343.2,131.4,343.3z"/>
<path d="M171.1,343.3c-9.6,0-9.6,0-9.6-9.5c0-10.7,0-10.7,10.9-10.7c1.3,0,2.5,0.2,3.8,0c4.4-0.7,6.2,1,5.5,5.5
	c-0.2,1.4,0,2.9,0,4.4C181.8,343.3,181.8,343.3,171.1,343.3z"/>
<path d="M222.1,333.3c0,10.1,0,10.1-13.5,10c-6.7,0-6.7,0-6.7-13c0-7.2,0-7.3,13.2-7.1C223.1,323.2,222,321.4,222.1,333.3z"/>
<path d="M262.5,333.8c-0.8,3.8,3.1,10.2-6.6,9.7c-13.6-0.8-13.6-0.2-13.6-6.9c0-13.4,0-13.4,8.2-13.4
	C262.5,323.1,262.5,323.1,262.5,333.8z"/>
<path d="M292.4,323.1c10.5,0,10.5,0,10.5,6.9c0,13.3,0,13.2-14,13.3c-12.2,0-4.7-9-5.9-13.6C280.5,320.3,288.3,323.8,292.4,323.1z"
	/>
</svg>
