<?xml version="1.0" encoding="utf-8"?>
<!-- Generator: Adobe Illustrator 23.0.3, SVG Export Plug-In . SVG Version: 6.00 Build 0)  -->
<svg version="1.1" id="Layer_1" xmlns="http://www.w3.org/2000/svg" xmlns:xlink="http://www.w3.org/1999/xlink" x="0px" y="0px"
	 viewBox="0 0 590.7 211.3" style="enable-background:new 0 0 590.7 211.3;" xml:space="preserve">
<path style="fill:#B2162D;" d="M587.8,107.9c-1.7,6.3-3.3,12.7-5.2,19c-6.8,23.2-21.5,40-42,52.1c-27.1,16-56.7,24.3-87.9,28
	c-18.3,2.1-36.6,3.3-55,4.1c-14.6,0.6-29.1-0.7-43.5-2.1c-23.7-2.2-47.4-4.7-70.4-11.4c-20.4-6-39.7-14.3-56.1-28.3
	c-16.3-13.9-25.3-32-30.1-52.5c-0.8-3.4-1.7-6.7-2.6-10.1c1.7-0.5,3,0.4,4.2,1.4c15.2,13.7,34.2,19.5,53.3,24.7
	c23.6,6.3,47.7,9.8,72,12.1c28.4,2.7,56.8,4.2,85.2,3.2c44.9-1.6,89.6-5.5,132.9-18.8c14.5-4.4,28.7-9.6,40-20.5
	C584,107.7,585.6,105.2,587.8,107.9z"/>
<path d="M0.6,24.2c-2-7,1.1-13.7,8.1-17.8C14.1,3.3,20.1,3,26.1,2.1c48.6-7,94.3,3.1,138.6,22.7c15.2,6.7,30.3,13.8,44.4,22.7
	c0.1,0.6,0.2,1.3-0.3,1.6c-7.5,4.4-14.7,9.5-23.6,10.8c-12.4-5.1-24.1-11.7-36.5-16.7c-28.7-11.7-58.2-20.6-89.2-23
	C41.9,19,24.2,19.1,6.8,23.6C4.8,24.1,2.8,25.1,0.6,24.2z"/>
<path style="fill:#D9DDDE;" d="M587.8,107.9c-0.5-0.1-1.3-0.4-1.5-0.2c-15.5,15.8-35.9,21.5-56.3,26.9
	c-27.7,7.3-56.1,10.9-84.6,13.1c-24,1.8-47.9,2.9-71.9,1.9c-47.6-1.8-94.9-5.7-140.5-21.1c-14.1-4.7-27.1-11.3-37.8-21.8
	c-4.7-9.6-3.6-16.6,3.7-24c1.5-1.5,3.1-3,4.5-4.5c1.7-1.9,0.6-2.7-1.3-3c-2.4-2.1-5-4.1-7.5-6.3c-4.3-3.9-4.1-5.8,0.8-8.6
	c1.8-1,3.8-1.8,5.6-2.9c4.1-2.4,7.3-1.8,9.3,2.7c1.9,3.4,5.7,4.6,8.1,7.3c1,1.2,2.4,0.7,3.8,0.2c23-9.9,47.4-14.7,71.9-18.7
	c12.7-2.1,25.6-2.8,38.5-4.1c29.9-3.1,59.9-2.5,89.9-1.9c16.7,0.3,33.4,2.1,50.1,4c15.5,1.8,30.9,4.2,46.1,7.6
	c21.1,5,42.3,10.5,60.5,23.5C590.9,86.4,593.4,94.3,587.8,107.9z"/>
<path style="fill:#666465;" d="M0.6,24.2c9.5-4.2,19.7-5.3,29.8-5.8C75,16,116.7,27.5,157.2,45.2c9.8,4.3,19.1,9.4,28.7,13.9
	c-0.2,7.4,2.9,14.5,2.2,22c-18.2-3.3-35.4-8.5-46.2-25.4c-9.1-14.3-24.1-18.4-39.3-22.2c-26.5-6.5-53.2-6.8-80.2-2.8
	C14.3,31.9,6.1,32.5,0.6,24.2z"/>
<path d="M188.1,81.1c-1.9-7.2-5.2-14.3-2.2-22c8-3.2,15.7-7.1,23.1-11.5c2.4,4,0.8,8.4,1.3,12.6c-3.3-3.5-6.6-3.5-10.5-0.6
	c-2.3,1.7-5,2.8-7.6,4.2c1.7,5.4,8.9,5.7,9.8,11.4C197.3,77,193.2,80.3,188.1,81.1z"/>
<path style="fill:#666465;" d="M277.9,136.9c-16.8-3.1-33.3-7.2-49.2-13.7c-1.6-0.6-3.3-1-4.4-2.5c-1.6-7.2,2.6-11.8,7.7-15.5
	c10.6-7.8,22.6-12.6,35.2-16.1c23.2-6.4,47-9.7,70.9-12.1c25.5-2.5,51.1-3,76.6-2c37.8,1.6,75.4,5.1,111.5,17.5
	c8.5,2.9,16.7,6.3,23.9,11.8c3.3,2.5,6.2,5.2,8.1,9c1.2,2.5,2.2,5,0.3,7.6c-13.3,7.1-27.9,10.3-42.4,13.7c-3.7,0.9-7.5,1.5-11.2,2.2
	c-21.9-11.5-45.7-15.4-69.9-18c-18.1-1.9-36.3-3-54.5-2.2c-26.3,1.1-52.6,3.3-78.1,10.5C293.8,129.6,286.2,134,277.9,136.9z"/>
<path style="fill:#3A3536;" d="M558.4,121c0.2-7-4.1-11.5-9.2-15.2c-11.8-8.7-25.5-12.7-39.4-16.3c-22-5.8-44.5-8.6-67.2-10.8
	c-24.9-2.4-49.9-2.9-74.8-1.8c-37.6,1.6-75,5.2-111,17.4c-9,3.1-17.4,7.6-25.1,13.1c-4.6,3.3-6.1,8.3-7.4,13.4
	c-7.8-3.1-15-7.2-20.6-13.7c-6.6-7.8-6.3-15.3,0.7-22.8c7.7-8.1,17.6-12.5,27.8-16.4c23.9-9,48.8-13.5,74-16.9
	c37.4-5,74.9-6,112.6-4.6c44.2,1.7,88.1,6,130.2,20.8c10.6,3.7,20.9,8.3,29,16.5c7.9,7.9,8,16.5,0.3,24.5
	C572.7,114.1,565.8,118,558.4,121z"/>
<path style="fill:#3A3536;" d="M277.9,136.9c6.8-6.1,15.4-8.9,23.8-11.2c21.2-5.9,43-8.5,65-9.8c13.2-0.8,26.3-1.3,39.4-0.7
	c28.7,1.4,57.4,3.7,84.7,13.7c5,1.8,10.3,3.4,13.8,8.1c-17.8,3.6-35.8,5.5-53.9,7.3c-26.9,2.7-53.8,2.5-80.7,2.1
	C339.1,145.8,308.4,142.9,277.9,136.9z"/>
<path d="M229,90.5c0,3.2-1.2,5.7-4.1,5.5c-3.3-0.2-4.8-3.3-4.9-6.2c-0.1-2.2,1-5.1,3.8-4.9C226.8,85.2,228.5,87.7,229,90.5z"/>
<path d="M241.8,82.9c-0.1,3.6,0,6.6-3.3,6.1c-3.2-0.5-5-3.1-5-6.7c0.1-2.7,0.8-4.8,3.9-4.4C241,78.3,241.9,81,241.8,82.9z"/>
</svg>
