<svg height="510pt" viewBox="0 -7 510.98994 510" width="510pt" xmlns="http://www.w3.org/2000/svg"><path d="m257.949219 194.78125c-8.5625 8.476562-16.773438 16.949219-24.804688 25.335938-.089843-.085938-.175781-.175782-.265625-.175782-18.273437-15.535156-34.25-25.6875-43.34375-27.1875 1.855469-3.179687 3.53125-6.445312 5.296875-9.800781l.089844-.085937c4.589844-4.855469 9.265625-9.710938 14.121094-14.480469l.265625-.261719c.128906-.21875.3125-.402344.53125-.53125l.175781.175781c7.0625-2.648437 25.777344 8.300781 47.933594 27.011719zm0 0" fill="#f9eab0"/><path d="m403.78125 204.671875c-2.824219 3.441406-5.738281 6.882813-8.652344 10.414063-.042968.050781-.109375.082031-.175781.089843-5.03125 6.089844-10.238281 12.179688-15.714844 18.273438-.351562-8.476563-10.855469-25.777344-27.714843-45.550781 8.382812-8.738282 16.503906-17.480469 24.273437-25.953126 11.855469 12.367188 21.3125 26.820313 27.894531 42.636719zm0 0" fill="#f3d55b"/><path d="m334.574219 120.632812c-8.476563 7.855469-17.214844 15.976563-25.953125 24.363282-19.773438-16.859375-37.164063-27.453125-45.550782-27.808594 9.710938-8.5625 19.332032-16.769531 28.777344-24.453125 15.820313 6.621094 30.300782 16.074219 42.726563 27.898437zm0 0" fill="#f3d55b"/><path d="m360.96875 96.621094c-8.5625 7.679687-17.390625 15.625-26.394531 24.011718-12.425781-11.824218-26.90625-21.277343-42.726563-27.898437 10.152344-8.296875 20.039063-15.976563 29.835938-23.304687h.089844c14.238281 7.246093 27.421874 16.390624 39.195312 27.191406zm0 0" fill="#f9eab0"/><path d="m427.175781 174.65625c-7.328125 9.796875-15.097656 19.863281-23.394531 30.015625l-.089844-.089844c-6.582031-15.816406-16.039062-30.269531-27.894531-42.636719 8.476563-9.003906 16.417969-17.832031 24.101563-26.394531 10.761718 11.765625 19.90625 24.917969 27.1875 39.105469zm0 0" fill="#f9eab0"/><path d="m448.976562 143.40625c-6.617187 10.152344-13.945312 20.570312-21.800781 31.25h-.089843c-7.28125-14.1875-16.425782-27.339844-27.1875-39.105469 8.296874-9.359375 16.066406-18.363281 23.480468-27.011719 9.703125 10.714844 18.28125 22.398438 25.597656 34.867188zm0 0" fill="#f3d55b"/><path d="m415.523438 50.363281c-8.652344 6.886719-17.921876 14.566407-27.542969 22.777344-10.726563-9.691406-22.410157-18.269531-34.871094-25.601563 11.476563-7.679687 22.601563-14.390624 33.105469-20.214843 10.378906 6.871093 20.179687 14.574219 29.308594 23.039062zm0 0" fill="#f9eab0"/><path d="m469.191406 110.214844c-5.824218 10.59375-12.621094 21.714844-20.214844 33.191406-7.316406-12.46875-15.894531-24.152344-25.597656-34.867188 8.207032-9.625 15.890625-18.890624 22.773438-27.542968 8.441406 9.113281 16.144531 18.886718 23.039062 29.21875zm0 0" fill="#f9eab0"/><path d="m486.40625 74.023438v.085937c-4.957031 12.390625-10.707031 24.453125-17.214844 36.105469-6.894531-10.332032-14.597656-20.105469-23.039062-29.21875 8.386718-10.503906 15.714844-20.214844 21.894531-28.777344 6.972656 7.679688 13.152344 14.917969 18.359375 21.804688zm0 0" fill="#f3d55b"/><path d="m468.046875 52.21875c-6.179687 8.5625-13.507813 18.273438-21.894531 28.777344-4.589844-5.207032-9.621094-10.503906-14.828125-15.800782-5.210938-5.296874-10.59375-10.242187-15.800781-14.832031 10.589843-8.386719 20.214843-15.710937 28.863281-21.804687 3.972656 3.621094 8.035156 7.503906 12.007812 11.566406 3.972657 4.058594 7.945313 8.03125 11.5625 12.003906zm0 0" fill="#f9eab0"/><path d="m444.386719 28.558594c-8.648438 6.09375-18.273438 13.417968-28.863281 21.804687-9.128907-8.464843-18.929688-16.167969-29.308594-23.039062 11.691406-6.570313 23.8125-12.351563 36.28125-17.300781 6.886718 5.292968 14.210937 11.472656 21.890625 18.535156zm0 0" fill="#f3d55b"/><path d="m487.730469 8.699219c-4.238281-4.238281-19.949219 3.265625-43.34375 19.859375-7.679688-7.0625-15.003907-13.242188-21.890625-18.535156 30.277344-11.832032 53.496094-13.066407 65.234375-1.324219zm0 0" fill="#f9eab0"/><path d="m486.40625 74.023438c-5.207031-6.886719-11.386719-14.125-18.359375-21.804688 15.800781-22.421875 23.390625-37.785156 20.214844-42.816406-.117188-.273438-.300781-.515625-.53125-.703125 11.828125 11.828125 10.59375 34.957031-1.324219 65.324219zm0 0" fill="#f9eab0"/><path d="m89.933594 475.589844-13.109375 13.109375c-4.984375 5-11.757813 7.808593-18.820313 7.808593s-13.832031-2.808593-18.820312-7.808593l-31.371094-31.367188c-5.003906-4.984375-7.8125-11.757812-7.8125-18.820312s2.808594-13.832031 7.8125-18.820313l8.214844-8.21875zm0 0" fill="#527f72"/><path d="m233.144531 220.117188c-8.476562 8.652343-16.597656 17.214843-24.453125 25.6875-.273437-.285157-.566406-.554688-.882812-.792969-10.65625-9.480469-22.421875-17.632813-35.046875-24.277344 5.296875-8.207031 11.125-17.652344 16.773437-27.980469 9.09375 1.5 25.070313 11.652344 43.34375 27.1875.089844 0 .175782.089844.265625.175782zm0 0" fill="#f3d55b"/><path d="m194.921875 182.867188-.089844.085937c-1.765625 3.355469-3.441406 6.621094-5.296875 9.800781-5.648437 10.328125-11.476562 19.773438-16.773437 27.980469-8.296875 12.800781-15.359375 22.425781-18.625 26.75-1.570313-18.800781-5.574219-37.316406-11.917969-55.085937 45.726562-64.175782 50.9375-105.753907 48.023438-128.351563-.480469-3.769531 1.46875-7.429687 4.863281-9.132813 3.390625-1.707031 7.492187-1.089843 10.230469 1.539063 30.015624 28.957031 12.359374 82.804687-10.414063 126.414063zm0 0" fill="#14a085"/><path d="m507.238281 214.644531c-10.878906 7.210938-22.699219 12.882813-35.132812 16.859375-55.257813 18.453125-50.40625.796875-179.289063 93.925782-.976562-.671876-2.011718-1.261719-3.089844-1.765626 4.679688-4.234374 9.359376-8.5625 14.125-12.886718v-.089844c8.386719-7.765625 16.773438-15.710938 25.160157-24.097656 1.675781-1.589844 3.355469-3.265625 5.03125-4.941406 6.796875-6.710938 13.417969-13.507813 19.683593-20.304688l.089844-.089844c8.917969-9.269531 17.390625-18.535156 25.421875-27.804687 5.476563-6.09375 10.683594-12.183594 15.714844-18.273438.066406-.007812.132813-.039062.175781-.089843 21.550782-11.925782 46.171875-17.152344 70.710938-15.007813 11.394531 1.695313 23.003906 1.277344 34.25-1.234375 4.121094-.996094 8.367187 1.078125 10.113281 4.941406 1.75 3.863282.503906 8.421875-2.964844 10.859375zm0 0" fill="#4fba6f"/><path d="m217.871094 304.15625c-18.992188-.894531-37.714844 4.742188-53.054688 15.980469-2.90625 2.03125-6.746094 2.125-9.75.238281-3.007812-1.886719-4.589844-5.390625-4.019531-8.890625l.265625-1.855469h.085938c10.152343-11.917968 21.246093-24.511718 33.28125-37.78125 6.710937 5.648438 13.773437 12.183594 20.746093 19.246094 4.414063 4.324219 8.5625 8.738281 12.445313 13.0625zm0 0" fill="#f9eab0"/><path d="m184.679688 271.847656c-12.003907 13.242188-23.097657 25.835938-33.28125 37.78125h-.085938c3.507812-19.921875 4.484375-40.210937 2.914062-60.378906 10.050782 6.160156 19.585938 13.128906 28.511719 20.832031.691407.539063 1.339844 1.128907 1.941407 1.765625zm0 0" fill="#f3d55b"/><path d="m208.691406 245.804688c-8.296875 8.828124-16.417968 17.570312-24.011718 26.042968-.601563-.636718-1.25-1.226562-1.941407-1.765625-8.925781-7.703125-18.460937-14.671875-28.511719-20.832031.011719-.589844-.015624-1.179688-.089843-1.765625 3.265625-4.324219 10.328125-13.949219 18.625-26.75 12.625 6.644531 24.390625 14.796875 35.046875 24.277344.316406.238281.609375.507812.882812.792969zm0 0" fill="#f9eab0"/><path d="m250.710938 287.824219c-6.269532 5.917969-12.535157 11.742187-18.714844 17.390625-4.683594-.640625-9.398438-.996094-14.125-1.058594-3.882813-4.324219-8.03125-8.738281-12.445313-13.0625-6.972656-7.0625-14.035156-13.597656-20.746093-19.246094 7.59375-8.472656 15.714843-17.214844 24.011718-26.042968 7.0625 6.003906 14.476563 12.800781 21.804688 20.128906s14.210937 14.832031 20.214844 21.890625zm0 0" fill="#f3d55b"/><path d="m271.015625 315.101562c-1.945313-.703124-3.886719-1.410156-6.003906-2.117187-10.730469-3.648437-21.785157-6.25-33.015625-7.769531 6.179687-5.648438 12.445312-11.472656 18.714844-17.390625.289062.273437.554687.570312.792968.882812 7.148438 8.304688 13.667969 17.128907 19.511719 26.394531zm0 0" fill="#f9eab0"/><path d="m303.851562 310.6875v.089844c-4.765624 4.324218-9.445312 8.652344-14.125 12.886718-5.964843-3.328124-12.195312-6.160156-18.625-8.472656 0-.023437-.007812-.046875-.023437-.0625-.019531-.015625-.039063-.027344-.0625-.027344-5.84375-9.265624-12.363281-18.089843-19.511719-26.394531-.238281-.3125-.503906-.609375-.792968-.882812 8.472656-7.855469 17.035156-15.976563 25.6875-24.449219.089843.085938.089843.175781.175781.175781 18.007812 21.273438 28.777343 39.546875 27.277343 47.136719zm0 0" fill="#f3d55b"/><path d="m345.695312 435.335938c-.308593 3.910156-3.164062 7.148437-7.007812 7.945312-3.839844.796875-7.746094-1.039062-9.589844-4.503906-31.511718-58.613282-77.328125-62.234375-133.03125-6.53125-46.695312 46.609375-82.890625 48.199218-106.105468 43.34375-6.589844-1.503906-13.074219-3.417969-19.421876-5.738282-24.761718-12.054687-44.191406-32.835937-54.554687-58.351562-11.035156-29.042969-7.945313-67.355469 35.753906-111.050781 61.703125-61.703125 66.648438-115.464844 62.761719-145.125-.257812-1.242188 0-2.539063.714844-3.589844s1.828125-1.761719 3.082031-1.972656c1.621094-.089844 3.179687.640625 4.148437 1.941406 1.210938 1.65625 2.300782 3.398437 3.265626 5.210937 1.414062 2.382813 2.738281 4.855469 4.0625 7.324219 1.324218 2.472657 2.472656 4.679688 3.617187 7.0625 1.148437 2.382813 2.121094 4.679688 3.265625 7.152344.972656 2.292969 1.945312 4.675781 2.914062 6.972656.972657 2.296875 1.855469 4.679688 2.648438 6.972657 6.34375 17.769531 10.347656 36.285156 11.917969 55.085937.074219.585937.101562 1.175781.089843 1.765625 1.570313 20.167969.59375 40.457031-2.914062 60.378906l-.265625 1.855469c-.570313 3.5 1.011719 7.003906 4.019531 8.890625 3.003906 1.886719 6.84375 1.792969 9.75-.238281 15.339844-11.238281 34.0625-16.875 53.054688-15.980469 4.726562.0625 9.441406.417969 14.125 1.058594 11.230468 1.519531 22.285156 4.121094 33.015625 7.769531 2.117187.707031 4.058593 1.414063 6.003906 2.117187.046875 0 .085937.042969.085937.089844 6.429688 2.3125 12.660157 5.144532 18.625 8.472656 1.078126.503907 2.113282 1.09375 3.089844 1.765626 50.9375 29.484374 55.703125 78.921874 52.878906 109.90625zm0 0" fill="#24ae5f"/><path d="m109.0625 444.25c-13.160156-.082031-26.035156-3.875-37.136719-10.945312-3.960937-2.742188-4.992187-8.148438-2.324219-12.15625 2.671876-4.003907 8.0625-5.132813 12.113282-2.53125 1.273437.882812 32.140625 20.558593 57.875-5.164063 3.484375-3.132813 8.804687-2.992187 12.125.3125 3.320312 3.304687 3.480468 8.625.363281 12.125-11.222656 11.746094-26.769531 18.382813-43.015625 18.359375zm0 0" fill="#71c285"/><path d="m177.207031 388.3125c3.464844 3.464844 3.464844 9.082031 0 12.546875-3.464843 3.464844-9.082031 3.464844-12.542969 0-3.464843-3.464844-3.464843-9.082031 0-12.546875 3.460938-3.464844 9.078126-3.464844 12.542969 0zm0 0" fill="#71c285"/><path d="m468.046875 52.21875-.089844-.089844c-3.617187-3.972656-7.503906-8.03125-11.5625-12.003906-4.0625-3.972656-8.035156-7.945312-12.007812-11.566406 23.394531-16.59375 39.105469-24.097656 43.34375-19.859375.230469.1875.414062.429687.53125.703125 3.175781 5.03125-4.414063 20.394531-20.214844 42.816406zm0 0" fill="#f3d55b"/><path d="m353.816406 261.253906-.089844.089844c-6.265624 6.796875-12.886718 13.59375-19.683593 20.304688-1.675781 1.675781-3.355469 3.351562-5.03125 4.941406l-.265625-.265625c2.472656-6.972657-8.472656-25.6875-27.011719-47.757813 2.472656-2.292968 4.855469-4.675781 7.238281-7.0625 6.089844-6.089844 12.003906-12.09375 17.832032-18.09375 18.625 21.980469 29.484374 40.871094 27.011718 47.84375zm0 0" fill="#f3d55b"/><path d="m301.734375 238.566406c-8.5625 8.5625-16.949219 16.773438-25.335937 24.808594-6.179688-7.238281-13.152344-14.832031-20.746094-22.511719-7.589844-7.679687-15.269532-14.566406-22.507813-20.746093 8.03125-8.386719 16.242188-16.859376 24.804688-25.335938h.089843c7.324219 6.269531 15.003907 13.242188 22.683594 21.011719 7.683594 7.769531 14.742188 15.359375 20.921875 22.6875zm0 0" fill="#f3d55b"/><g fill="#f9eab0"><path d="m328.746094 286.324219.265625.265625c-8.386719 8.386718-16.773438 16.332031-25.160157 24.097656 1.5-7.589844-9.269531-25.863281-27.277343-47.136719-.085938 0-.085938-.089843-.175781-.175781 8.386718-8.035156 16.773437-16.246094 25.335937-24.808594 18.539063 22.070313 29.484375 40.785156 27.011719 47.757813zm0 0"/><path d="m276.398438 263.375c-8.652344 8.472656-17.214844 16.59375-25.6875 24.449219-6.003907-7.058594-12.800782-14.476563-20.214844-21.890625-7.414063-7.414063-14.742188-14.125-21.804688-20.128906 7.855469-8.472657 15.976563-17.035157 24.453125-25.6875 7.238281 6.179687 14.828125 13.066406 22.507813 20.746093 7.683594 7.679688 14.566406 15.273438 20.746094 22.511719zm0 0"/><path d="m353.816406 261.253906c2.472656-6.972656-8.386718-25.863281-27.011718-47.84375 8.472656-8.652344 16.683593-17.125 24.71875-25.511718 16.859374 19.773437 27.363281 37.074218 27.714843 45.550781-8.03125 9.269531-16.503906 18.535156-25.421875 27.804687zm0 0"/></g><path d="m283.109375 169.710938c-6.003906 5.828124-12.007813 11.742187-18.097656 17.832031-2.382813 2.386719-4.765625 4.769531-7.0625 7.238281-22.15625-18.710938-40.871094-29.660156-47.933594-27.011719l-.175781-.175781c1.589844-1.765625 3.351562-3.441406 5.03125-5.121094 6.796875-6.796875 13.503906-13.328125 20.304687-19.773437 7.148438-2.558594 25.863281 8.386719 47.933594 27.011719zm0 0" fill="#f3d55b"/><path d="m308.621094 144.996094c-8.386719 7.945312-16.949219 16.242187-25.511719 24.714844-22.070313-18.625-40.785156-29.570313-47.933594-27.011719 9.265625-8.828125 18.625-17.300781 27.804688-25.511719h.089843c8.386719.355469 25.777344 10.949219 45.550782 27.808594zm0 0" fill="#f9eab0"/><path d="m326.804688 213.410156c-5.828126 6-11.742188 12.003906-17.832032 18.09375-2.382812 2.386719-4.765625 4.769532-7.238281 7.0625l-.089844-.085937c-6.179687-7.328125-13.238281-15.007813-20.921875-22.6875-7.679687-7.679688-15.359375-14.742188-22.683594-21.011719h-.089843c2.296875-2.46875 4.679687-4.851562 7.0625-7.238281 6.089843-6.089844 12.09375-12.003907 18.097656-17.832031 7.324219 6.269531 15.003906 13.242187 22.683594 21.011718 7.683593 7.769532 14.742187 15.359375 21.011719 22.6875zm0 0" fill="#f9eab0"/><path d="m351.523438 187.898438c-8.035157 8.386718-16.246094 16.859374-24.71875 25.511718-6.269532-7.328125-13.242188-15.007812-21.011719-22.6875-7.765625-7.679687-15.359375-14.742187-22.683594-21.011718 8.5625-8.472657 17.125-16.769532 25.511719-24.714844 7.148437 6.089844 14.742187 12.976562 22.332031 20.566406 7.59375 7.59375 14.476563 15.183594 20.570313 22.335938zm0 0" fill="#f3d55b"/><path d="m375.796875 161.945312c-7.769531 8.472657-15.890625 17.214844-24.273437 25.953126-6.09375-7.152344-12.976563-14.742188-20.570313-22.335938-7.589844-7.589844-15.183594-14.476562-22.332031-20.566406 8.738281-8.386719 17.476562-16.507813 25.953125-24.363282 6.972656 5.914063 14.121093 12.621094 21.449219 19.859376 7.328124 7.238281 13.949218 14.390624 19.773437 21.453124zm0 0" fill="#f9eab0"/><path d="m399.898438 135.550781c-7.683594 8.5625-15.625 17.390625-24.101563 26.394531-5.824219-7.0625-12.535156-14.214843-19.773437-21.453124-7.238282-7.238282-14.476563-13.945313-21.449219-19.859376 9.003906-8.386718 17.832031-16.332031 26.394531-24.011718 6.53125 5.648437 13.328125 12.003906 20.125 18.800781s13.152344 13.59375 18.804688 20.128906zm0 0" fill="#f3d55b"/><path d="m387.980469 73.140625c-8.652344 7.414063-17.65625 15.183594-27.011719 23.480469-11.773438-10.800782-24.957031-19.945313-39.195312-27.191406 10.679687-7.941407 21.183593-15.269532 31.335937-21.890626 12.460937 7.332032 24.144531 15.910157 34.871094 25.601563zm0 0" fill="#f3d55b"/><path d="m423.378906 108.539062c-7.414062 8.648438-15.183594 17.652344-23.480468 27.011719-5.652344-6.535156-12.007813-13.417969-18.804688-20.128906-6.796875-6.707031-13.59375-13.152344-20.125-18.800781 9.355469-8.296875 18.359375-16.066406 27.011719-23.480469 5.914062 5.207031 12.09375 11.03125 18.183593 17.125 6.089844 6.089844 12.003907 12.359375 17.214844 18.273437zm0 0" fill="#f9eab0"/><path d="m446.152344 80.996094c-6.882813 8.652344-14.566406 17.917968-22.773438 27.542968-5.210937-5.914062-11.035156-12.09375-17.214844-18.273437-6.179687-6.179687-12.269531-11.917969-18.183593-17.125 9.621093-8.210937 18.890625-15.890625 27.542969-22.777344 5.207031 4.589844 10.503906 9.535157 15.800781 14.832031 5.296875 5.296876 10.238281 10.59375 14.828125 15.800782zm0 0" fill="#f3d55b"/></svg>