<svg height="512pt" viewBox="0 0 512 512" width="512pt" xmlns="http://www.w3.org/2000/svg"><path d="m401.480469 302.785156c66.824219 20.746094 110.519531 55.261719 110.519531 94.457032 0 63.382812-114.582031 114.757812-256 114.757812s-256-51.375-256-114.757812c0-39.195313 43.695312-73.710938 110.519531-94.457032zm0 0" fill="#2c3e50"/><path d="m256 485.515625c-27.066406.0625-54.09375-2.003906-80.835938-6.175781-4.816406-.765625-8.097656-5.292969-7.335937-10.109375.765625-4.816407 5.292969-8.101563 10.109375-7.335938 45.949219 7.023438 92.636719 7.835938 138.804688 2.417969 100.617187-12.09375 151.121093-49.523438 151.121093-67.070312 0-4.875 3.949219-8.828126 8.828125-8.828126 4.875 0 8.824219 3.953126 8.824219 8.828126 0 36.191406-73.207031 73.367187-166.671875 84.59375-20.855469 2.472656-41.839844 3.703124-62.84375 3.679687zm0 0" fill="#35495e"/><path d="m414.808594 379.144531c-.390625.125-.773438.269531-1.148438.441407-50.535156 18.222656-103.941406 27.195312-157.660156 26.484374-53.71875.710938-107.125-8.261718-157.660156-26.484374-.375-.171876-.757813-.316407-1.148438-.441407l13.328125-76.359375 48.378907-276.300781c0 14.652344 43.429687 26.480469 97.101562 26.480469s97.101562-11.828125 97.101562-26.480469l48.378907 276.300781zm0 0" fill="#805333"/><path d="m158.898438 256c-2.597657 0-5.066407-1.140625-6.742188-3.121094-1.679688-1.980468-2.402344-4.601562-1.972656-7.164062l4.414062-26.480469c.800782-4.8125 5.351563-8.058594 10.160156-7.257813 4.808594.800782 8.058594 5.351563 7.257813 10.160157l-4.414063 26.484375c-.707031 4.253906-4.390624 7.375-8.703124 7.378906zm0 0"/><path d="m170.671875 185.378906c-2.597656.003906-5.0625-1.140625-6.742187-3.121094-1.675782-1.980468-2.398438-4.601562-1.96875-7.164062l14.714843-88.273438c.800781-4.808593 5.351563-8.058593 10.160157-7.257812 4.808593.800781 8.058593 5.351562 7.257812 10.160156l-14.71875 88.277344c-.707031 4.257812-4.386719 7.378906-8.703125 7.378906zm0 0"/><path d="m395.917969 271.09375c-28.304688 8.828125-57.441407 14.714844-86.953125 17.566406l-35.308594 2.296875c-5.828125.265625-11.742188.351563-17.65625.351563s-11.828125-.085938-17.65625-.351563l-35.308594-2.296875c-29.511718-2.851562-58.648437-8.738281-86.953125-17.566406l42.816407-244.609375c0 14.652344 43.429687 26.480469 97.101562 26.480469s97.101562-11.828125 97.101562-26.480469zm0 0" fill="#2c3e50"/><path d="m353.101562 26.484375c0-14.628906-43.472656-26.484375-97.101562-26.484375s-97.101562 11.855469-97.101562 26.484375c0 14.625 43.472656 26.480469 97.101562 26.480469s97.101562-11.855469 97.101562-26.480469zm0 0" fill="#547580"/><path d="m414.808594 379.144531c-.390625.125-.773438.269531-1.148438.441407-50.535156 18.222656-103.941406 27.195312-157.660156 26.484374v-114.761718c5.914062 0 11.828125-.085938 17.65625-.351563l35.308594-2.296875c29.511718-2.851562 58.648437-8.738281 86.953125-17.566406l5.5625 31.691406zm0 0" fill="#cb8252"/><path d="m395.917969 271.09375c-28.304688 8.828125-57.441407 14.714844-86.953125 17.566406l-35.308594 2.296875c-5.828125.265625-11.742188.351563-17.65625.351563v-238.34375c53.671875 0 97.101562-11.828125 97.101562-26.480469zm0 0" fill="#35495e"/><path d="m273.65625 203.035156h-35.3125c-19.5 0-35.308594 15.808594-35.308594 35.308594v88.277344c0 19.5 15.808594 35.308594 35.308594 35.308594h35.3125c19.5 0 35.308594-15.808594 35.308594-35.308594v-88.277344c0-19.5-15.808594-35.308594-35.308594-35.308594zm0 114.757813c0 4.875-3.953125 8.828125-8.828125 8.828125h-17.65625c-4.875 0-8.828125-3.953125-8.828125-8.828125v-70.621094c0-4.875 3.953125-8.828125 8.828125-8.828125h17.65625c4.875 0 8.828125 3.953125 8.828125 8.828125zm0 0" fill="#e4c05c"/></svg>