<svg height="504pt" viewBox="0 0 504.6527 504" width="504pt" xmlns="http://www.w3.org/2000/svg"><path d="m169.277344 188.539062c-17.910156-8.367187-38.109375-10.476562-57.359375-5.988281-12.992188 4.539063-24.753907 12.023438-34.367188 21.867188-14.523437 13.039062-27.589843 27.617187-38.960937 43.476562-12.207032 16.277344-22.1875 34.109375-29.679688 53.023438-7.808594 23.636719-10.53125 48.65625-7.984375 73.414062 1.734375 28.292969 5.554688 59.097657 19.003907 84.4375 13.777343 25.386719 41.722656 39.722657 70.378906 36.101563 11.683594-1.136719 23.207031-3.550782 34.363281-7.203125zm0 0" fill="#f29c1f"/><path d="m380.414062 487.839844c11.011719 3.597656 22.394532 5.953125 33.929688 7.03125 28.65625 3.621094 56.601562-10.714844 70.378906-36.101563 13.449219-25.339843 17.269532-56.144531 19.003906-84.4375 2.546876-24.757812-.175781-49.777343-7.984374-73.414062-7.492188-18.914063-17.472657-36.746094-29.675782-53.023438-11.375-15.859375-24.441406-30.4375-38.964844-43.476562-9.613281-9.84375-21.375-17.328125-34.367187-21.867188-19.007813-4.527343-38.996094-2.445312-56.664063 5.902344zm0 0" fill="#f29c1f"/><path d="m192.621094 173.871094s16.4375-82.167969 129.300781-166.554688c5.683594-4.199218 13.457031-4.160156 19.09375.105469l1.007813.753906c4.375 3.335938 6.738281 8.683594 6.253906 14.167969-.480469 5.480469-3.742188 10.335938-8.632813 12.855469-25.757812 13.9375-57.675781 49.394531-34.902343 138.671875l-34.710938 78.101562zm0 0" fill="#527f72"/><path d="m240.699219 189.492188c-8.160157-4.511719-29.855469-15.621094-43.566407-15.621094-1.464843-.003906-2.925781.199218-4.335937.609375-1.144531.1875-2.253906.539062-3.300781 1.042969-6.078125 2.695312-11.773438 6.199218-16.921875 10.410156-1.15625.792968-2.257813 1.664062-3.296875 2.605468-12.027344 9.511719-22.867188 20.4375-32.28125 32.542969-24.992188 31.136719-42.507813 67.59375-51.199219 106.5625-10.761719 51.027344-18.746094 118.28125 28.550781 153.339844 3.28125 2.46875 6.730469 4.703125 10.324219 6.683594 7.09375 4.300781 14.628906 7.820312 22.476563 10.5 26.882812 7.132812 55.140624 7.28125 82.09375.433593zm0 0" fill="#e57e25"/><path d="m264.648438 189.492188c12.441406-7.28125 25.980468-12.496094 40.09375-15.445313 1.214843-.085937 2.34375-.175781 3.46875-.175781 2.628906.046875 5.222656.609375 7.636718 1.652344 6.082032 2.695312 11.773438 6.199218 16.921875 10.410156 1.128907.78125 2.257813 1.652344 3.300781 2.519531 12.007813 9.5625 22.84375 20.515625 32.28125 32.628906 44.828126 57.855469 65.226563 130.960938 56.839844 203.671875-3.042968 22.695313-15.441406 43.085938-34.191406 56.230469-3.367188 2.527344-6.90625 4.816406-10.585938 6.855469-7.007812 4.246094-14.457031 7.707031-22.214843 10.328125-26.882813 7.132812-55.140625 7.28125-82.09375.433593zm0 0" fill="#e57e25"/><path d="m251.710938 193.746094c-4.375-.007813-8.058594-3.265625-8.601563-7.601563-3.667969-26.105469-.042969-52.714843 10.476563-76.886719 2.136718-4.289062 7.351562-6.03125 11.640624-3.894531 4.289063 2.140625 6.03125 7.351563 3.890626 11.644531-9.011719 21.101563-12.054688 44.277344-8.789063 66.992188.59375 4.753906-2.78125 9.089844-7.53125 9.683594-.363281.042968-.722656.066406-1.085937.0625zm0 0" fill="#14a085"/><path d="m131.183594 104.449219s8.675781-43.390625 34.710937-52.066407c0 0-52.070312 17.355469-69.425781 0 0 0-17.355469 34.710938-52.066406 26.03125 0 0 8.679687 52.070313-34.710938 60.746094 0 0 60.746094 0 60.746094 17.355469 0 0 26.03125-34.710937 60.746094-17.355469z" fill="#71c285"/><path d="m252.671875 503.636719h8.566406c17.296875 0 30.851563-20.6875 38.375-33.84375 17.578125-33.109375 27.8125-69.617188 30.007813-107.035157 4.289062-37.675781-.882813-75.828124-15.046875-111-10.894531-26.109374-29.25-48.429687-52.761719-64.164062-5.597656-3.464844-12.671875-3.464844-18.269531 0-23.511719 15.734375-41.863281 38.054688-52.761719 64.164062-14.164062 35.171876-19.335938 73.324219-15.046875 111 2.195313 37.417969 12.425781 73.925782 30 107.035157 7.523437 13.171875 21.078125 33.84375 38.375 33.84375zm0 0" fill="#f29c1f"/><path d="m209.285156 382.394531c-4.792968 0-8.679687-3.882812-8.679687-8.675781v-17.609375c0-4.792969 3.886719-8.675781 8.679687-8.675781 4.792969 0 8.675782 3.882812 8.675782 8.675781v17.609375c0 4.792969-3.882813 8.675781-8.675782 8.675781zm0 0" fill="#f3d55b"/><path d="m209.285156 330.078125c-4.792968 0-8.679687-3.886719-8.679687-8.679687 0-45.273438 26.15625-89.382813 27.273437-91.25 2.515625-3.988282 7.757813-5.242188 11.804688-2.816407s5.414062 7.640625 3.078125 11.738281c-.25.425782-24.800781 41.941407-24.800781 82.328126 0 4.792968-3.882813 8.679687-8.675782 8.679687zm0 0" fill="#f3d55b"/><g fill="#4c8056"><path d="m189.496094 184.199219c-3.648438 0-6.910156-2.285157-8.15625-5.71875-5.710938-15.707031-22.335938-53.585938-53.378906-65.953125-4.328126-1.851563-6.386719-6.820313-4.644532-11.191406 1.746094-4.375 6.660156-6.558594 11.078125-4.921876 37.554688 14.984376 56.753907 58.253907 63.261719 76.164063.96875 2.664063.578125 5.628906-1.046875 7.949219-1.625 2.320312-4.28125 3.699218-7.113281 3.699218zm0 0"/><path d="m315.847656 184.199219c-2.84375 0-5.507812-1.390625-7.128906-3.730469-1.621094-2.335938-1.996094-5.320312-1-7.984375 9.910156-26.597656 35.472656-72.894531 70.054688-83.59375 1.238281-4.25 2.726562-8.425781 4.460937-12.496094 11.734375-28.300781 32.109375-64.296875 62.65625-74.589843 2.089844-.664063 4.238281-1.152344 6.414063-1.449219 4.683593-.3906252 8.828124 3.019531 9.347656 7.691406.519531 4.671875-2.777344 8.90625-7.429688 9.554687-.988281.152344-1.960937.386719-2.910156.691407-25.484375 8.601562-43.570312 44.300781-52.066406 64.824219-.503906 1.171874-.972656 2.351562-1.421875 3.535156 6.699219.382812 13.324219 1.625 19.707031 3.695312 11.554688 3.382813 22.195312 9.335938 31.117188 17.417969 5.285156 4.71875 9.214843 10.765625 11.378906 17.511719 2.574218 8.1875.878906 17.121094-4.511719 23.800781-3.480469 3.875-7.945313 6.734375-12.921875 8.273437-18.757812 6.25-39.4375 1.316407-53.351562-12.730468-9.222657-9.433594-14.183594-22.226563-13.730469-35.40625-22.777344 12.894531-42.097657 46.695312-50.539063 69.363281-1.273437 3.382813-4.507812 5.621094-8.125 5.621094zm76.367188-80.234375c-1.890625 10.324218 1.253906 20.933594 8.46875 28.558594 9.226562 9.171874 22.804687 12.417968 35.183594 8.40625 2.03125-.566407 3.886718-1.636719 5.394531-3.113282 1.574219-2.230468 1.976562-5.078125 1.085937-7.65625-1.339844-3.796875-3.648437-7.175781-6.699218-9.804687-7.015626-6.257813-15.355469-10.851563-24.394532-13.441407-6.128906-2.023437-12.550781-3.015624-19.003906-2.941406zm0 0"/></g></svg>