<svg height="512pt" viewBox="-37 0 512 512" width="512pt" xmlns="http://www.w3.org/2000/svg"><path d="m205.832031 115.816406c-1.78125-3.574218-3.257812-7.296875-4.414062-11.121094v-.089843c-2.226563-7.339844-3.734375-14.878907-4.5-22.507813 0-.089844 0-.089844-.089844-.175781-.539063-5.222656-.800781-10.46875-.792969-15.714844 0-31.78125 9.886719-58.617187 23.390625-66.207031 13.507813 7.589844 23.394531 34.425781 23.394531 66.207031.402344 17.054688-2.941406 33.988281-9.796874 49.609375zm0 0" fill="#f0c419"/><path d="m175.378906 126.585938c-11.65625-11.6875-20.765625-25.664063-26.75-41.046876-12.179687-29.394531-13.328125-57.910156-3.796875-70.089843 15.363281 1.851562 34.78125 22.863281 46.964844 52.257812 1.964844 4.699219 3.675781 9.503907 5.121094 14.390625 2.21875 7.339844 3.726562 14.878906 4.5 22.507813.417969 3.960937.539062 7.941406.355469 11.917969zm0 0" fill="#f29c1f"/><path d="m267.097656 128.792969c13.027344-11.9375 23.089844-26.746094 29.394532-43.253907 12.183593-29.394531 13.328124-57.910156 3.707031-70.089843-15.273438 1.851562-34.691407 22.863281-46.875 52.257812-7.003907 15.859375-10.410157 33.074219-9.972657 50.40625zm0 0" fill="#f29c1f"/><path d="m237.082031 379.410156v123.761719c0 4.875-3.953125 8.828125-8.828125 8.828125h-17.65625c-4.875 0-8.824218-3.953125-8.824218-8.828125v-123.761719zm0 0" fill="#527f72"/><path d="m201.773438 473.007812s-79.449219-35.308593-141.242188-35.308593c-44.472656 0-56.9375 41.144531-60.4335938 64.21875-.4609372 3.070312.7382818 6.15625 3.1445318 8.113281 2.410156 1.957031 5.675781 2.492188 8.585937 1.414062 24.824219-9.15625 85.777344-24.976562 189.945313-11.953124zm0 0" fill="#14a085"/><path d="m237.082031 441.378906s79.449219-35.308594 141.242188-35.308594c44.472656 0 56.9375 41.144532 60.433593 64.21875.457032 3.070313-.738281 6.15625-3.148437 8.113282-2.410156 1.953125-5.671875 2.492187-8.585937 1.414062-24.820313-9.183594-85.777344-24.976562-189.941407-11.953125zm0 0" fill="#14a085"/><path d="m233.023438 290.25c6.855468 15.621094 10.199218 32.558594 9.796874 49.613281 0 31.777344-9.886718 58.613281-23.394531 66.207031-13.503906-7.59375-23.390625-34.429687-23.390625-66.207031-.023437-5.3125.269532-10.617187.882813-15.890625.765625-7.632812 2.273437-15.171875 4.5-22.511718 1.15625-3.851563 2.632812-7.601563 4.414062-11.210938zm0 0" fill="#f0c419"/><path d="m267.097656 277.273438c13.027344 11.9375 23.089844 26.75 29.394532 43.257812 12.183593 29.394531 13.328124 57.90625 3.707031 70.089844-15.273438-1.855469-34.691407-22.863282-46.875-52.257813-7.003907-15.863281-10.410157-33.074219-9.972657-50.40625zm0 0" fill="#f29c1f"/><path d="m148.804688 150.070312c-14.871094-6.359374-28.320313-15.632812-39.546876-27.277343-22.507812-22.511719-34.425781-48.464844-30.277343-63.296875 14.917969-4.148438 40.871093 7.769531 63.292969 30.28125 11.824218 11.386718 21.222656 25.050781 27.628906 40.164062zm0 0" fill="#f0c419"/><path d="m291.285156 254.234375c16.910156 6.042969 32.152344 15.996094 44.488282 29.042969 22.511718 22.511718 34.515624 48.464844 30.367187 63.292968-14.917969 4.148438-40.871094-7.765624-63.382813-30.277343-12.847656-12.207031-22.699218-27.222657-28.777343-43.875zm0 0" fill="#f0c419"/><path d="m133.621094 182.378906c-15.992188-.316406-31.765625-3.765625-46.429688-10.152344-29.398437-12.183593-50.40625-31.515624-52.261718-46.875 12.183593-9.535156 40.785156-8.472656 70.179687 3.707032 14.996094 5.917968 28.675781 14.738281 40.253906 25.953125zm0 0" fill="#f29c1f"/><path d="m305.144531 224.042969c18.121094-.949219 36.210938 2.40625 52.789063 9.800781 29.394531 12.179688 50.316406 31.511719 52.167968 46.875-12.179687 9.53125-40.695312 8.472656-70.089843-3.710938-16.820313-6.433593-31.882813-16.746093-43.960938-30.101562zm0 0" fill="#f29c1f"/><path d="m132.476562 217.953125c-14.878906 5.898437-30.785156 8.777344-46.789062 8.472656-31.777344 0-58.613281-9.886719-66.207031-23.390625 7.59375-13.507812 34.429687-23.394531 66.207031-23.394531 16.003906-.304687 31.910156 2.578125 46.789062 8.476563zm0 0" fill="#f0c419"/><path d="m306.820312 215.128906c16.335938 7.960938 34.359376 11.839844 52.523438 11.296875 31.867188 0 58.617188-9.886719 66.207031-23.390625-7.589843-13.507812-34.339843-23.394531-66.207031-23.394531-18.164062-.539063-36.1875 3.335937-52.523438 11.300781zm0 0" fill="#f0c419"/><path d="m133.621094 223.691406c-15.992188.3125-31.765625 3.761719-46.429688 10.152344-29.398437 12.179688-50.40625 31.511719-52.261718 46.875 12.183593 9.53125 40.785156 8.472656 70.179687-3.710938 14.996094-5.914062 28.675781-14.734374 40.253906-25.953124zm0 0" fill="#f29c1f"/><path d="m305.144531 182.023438c18.121094.953124 36.210938-2.40625 52.789063-9.796876 29.394531-12.183593 50.316406-31.515624 52.167968-46.875-12.179687-9.535156-40.695312-8.472656-70.089843 3.707032-16.820313 6.433594-31.882813 16.75-43.960938 30.101562zm0 0" fill="#f29c1f"/><path d="m148.804688 256c-14.871094 6.355469-28.320313 15.632812-39.546876 27.277344-22.507812 22.511718-34.425781 48.464844-30.277343 63.292968 14.917969 4.148438 40.871093-7.765624 63.292969-30.277343 11.824218-11.386719 21.222656-25.050781 27.628906-40.167969zm0 0" fill="#f0c419"/><path d="m291.285156 151.835938c16.910156-6.046876 32.152344-15.996094 44.488282-29.042969 22.511718-22.511719 34.515624-48.464844 30.367187-63.296875-14.917969-4.148438-40.871094 7.769531-63.382813 30.28125-12.847656 12.207031-22.699218 27.222656-28.777343 43.871094zm0 0" fill="#f0c419"/><path d="m201.773438 289.542969c.183593 3.976562.0625 7.960937-.355469 11.917969v.175781c-.777344 7.488281-2.285157 14.878906-4.5 22.070312.085937.089844 0 .175781 0 .265625-1.445313 4.886719-3.15625 9.6875-5.121094 14.390625-12.183594 29.394531-31.601563 50.402344-46.964844 52.257813-9.53125-12.183594-8.382812-40.695313 3.796875-70.089844 5.984375-15.386719 15.09375-29.363281 26.75-41.050781zm0 0" fill="#f29c1f"/><path d="m307.703125 203.035156c0 48.753906-39.523437 88.273438-88.277344 88.273438-48.753906 0-88.273437-39.519532-88.273437-88.273438s39.519531-88.277344 88.273437-88.277344c48.753907 0 88.277344 39.523438 88.277344 88.277344zm0 0" fill="#f3d55b"/><path d="m272.390625 203.035156c0 29.25-23.710937 52.964844-52.964844 52.964844-29.25 0-52.964843-23.714844-52.964843-52.964844 0-29.253906 23.714843-52.964844 52.964843-52.964844 29.253907 0 52.964844 23.710938 52.964844 52.964844zm0 0" fill="#f9eab0"/></svg>