<?xml version="1.0" encoding="utf-8"?>
<!-- Generator: Adobe Illustrator 24.0.0, SVG Export Plug-In . SVG Version: 6.00 Build 0)  -->
<svg version="1.0" id="Layer_1" xmlns="http://www.w3.org/2000/svg" xmlns:xlink="http://www.w3.org/1999/xlink" x="0px" y="0px"
	 viewBox="0 0 582 582" style="enable-background:new 0 0 582 582;" xml:space="preserve">
<path style="fill:#006699;" d="M299.6,184.7c19.2-8.9,38-16.6,57.6-22c17.9-4.9,36.2-9,54.8-5.6c22.6,4.1,38.7,18.7,52.1,36.4
	c13.9,18.4,22.9,39.4,30.2,61.1c8.4,25,15.6,50.4,20,76.5c11.5,68-11.6,123.5-60.4,169.9c-9.5,9-20.3,16.3-31.6,22.8
	c-22.1,12.7-45.3,15.2-69.9,8.7c-19.2-5-37.9-11.5-55.9-19.8c-4.2-1.9-7.6-2.2-12.1-0.1c-20.8,9.5-42.2,16.9-64.7,21.7
	c-22.6,4.7-43.3,0.3-62.5-11.3c-47.8-29.1-78.9-70.8-90.7-125.7c-5.8-27-3.3-54.2,2.7-81c8.3-36.9,18.4-73.1,36.8-106.5
	c7.2-13,16.2-24.5,27.2-34.6c20.5-18.7,44.5-22.3,70.8-17.2c24.8,4.8,48.2,13.5,71.2,23.7c1.7,0.8,3.4,1.4,5.8,2.4
	c0.1-11.9-1.3-23-3.7-33.9c-4.7-21.4-11.4-42.2-18.3-63c-0.5-1.6-1.2-3.2-1.5-4.9c-1.1-5.4,1.4-9.8,6.2-11.1c5-1.4,9.3,0.7,11.1,6.1
	c4,11.9,7.8,23.9,12,37.1c2.5-6.6,4.8-12.2,6.8-17.9c6.5-18.6,19.6-30.2,38.1-36.6c21.2-7.3,43.1-11.1,65.3-13.3
	c7.9-0.8,13.2,5.1,10.9,12.3c-5.5,17.4-11.3,34.8-20,51c-7.4,13.9-16.2,26.5-32.1,31.8c-17.8,6-36.2,7.2-54.7,7.5
	c-4.8,0.1-5.6,1.2-4.5,5.8C299,164.6,298.8,174.3,299.6,184.7z"/>
<path style="fill:#65CBFF;" d="M499.1,365.1c0.6,43.4-17.3,78.3-44.1,109.6c-13.1,15.2-28.6,27.2-46.7,36.1
	c-16.2,8-32.7,9.1-50.1,4.8c-21-5.2-41.1-12.7-60.4-22.2c-5.1-2.5-9.4-2.5-14.5-0.1c-18.2,8.9-37.1,15.6-56.6,21.3
	c-24,7.1-46,2.9-66.4-10.5c-39.1-25.7-64.4-61.6-75.4-107c-5.9-24.4-3.8-49.2,1.4-73.6c7.7-35.3,17.1-70,33.9-102.2
	c6.9-13.2,15.8-24.8,27.2-34.4c17.1-14.3,36.6-15.3,57.3-10.7c25.4,5.7,49.3,15.4,72.6,26.7c3.1,1.5,4.2,3.4,3.8,6.6
	c-1.1,8.3-1,16.6-1.1,24.9c0,3.6-1.5,3.7-4.1,2.6c-5.7-2.5-11.4-5.1-17-7.6c-5.6-2.5-10.5-0.9-12.9,4.2c-2.2,4.7-0.5,9.4,4.9,12.2
	c9.6,4.9,19.5,9,30,11.6c6.4,1.5,12.7,1.4,19-0.1c10.5-2.5,20.4-6.7,30-11.6c5.2-2.7,6.9-7.6,4.5-12.3c-2.4-4.7-7.3-6.3-12.5-4
	c-6.2,2.8-12.2,5.9-18.6,8.2c-3.9,1.4-5.6,1-5.3-3.7c0.6-8.7,0.9-17.3,1.1-26c0.1-2.3,1.1-3.4,3-4.3c28.5-13.6,57.4-26,89.2-29.6
	c18-2,32.9,4.7,45.9,16.6c16.6,15.2,26.6,34.7,34.4,55.3c10.8,28.2,19.3,57.2,24.5,87C498.2,343.8,499.4,354.9,499.1,365.1z"/>
<path style="fill:#52A3CC;" d="M386.8,66.1c-6.4,18.2-12.4,35.6-24.3,50.2c-4.7,5.8-11.4,8.6-18.4,10.5c-12.5,3.3-25.3,3.7-38.1,4.7
	c-3.7,0.3-4.4-0.8-3.4-4.5c2.1-8.2,5-16.2,7.9-24.1c4.8-13,14-21,26.8-25.6C353,71.6,369.2,68.5,386.8,66.1z"/>
</svg>
