<?xml version="1.0" encoding="utf-8"?>
<!-- Generator: Adobe Illustrator 24.0.0, SVG Export Plug-In . SVG Version: 6.00 Build 0)  -->
<svg version="1.0" id="Layer_1" xmlns="http://www.w3.org/2000/svg" xmlns:xlink="http://www.w3.org/1999/xlink" x="0px" y="0px"
	 viewBox="0 0 612 404" style="enable-background:new 0 0 612 404;" xml:space="preserve">
<path style="fill:#006699;" d="M124.4,101.1c0-3.9,0-7.4,0-11c0.2-15.9,12.5-28.4,28.3-28.6c6.6-0.1,13.1-0.1,19.7,0
	c15.8,0.2,28.3,12.6,28.4,28.5c0.1,17.5,0.1,35-0.1,52.5c0,3.7,0.7,5,4.8,5c66.9-0.1,133.8-0.1,200.7,0c4.5,0,5-1.5,5-5.4
	c-0.2-20.1-0.1-40.1-0.1-60.2c0-17.8,12.2-29.9,30-29.9c5.8,0,11.5,0,17.3,0c16.6,0.1,29,12.4,29.2,29c0,3.2-1.1,7.1,0.4,9.3
	c1.8,2.8,5.6-0.4,8.6-0.3c6.7,0.4,13.5,0,20.3,0.1c15.5,0.3,27.8,12.8,28,28.3c0.1,8.3,0.2,16.7-0.1,25c-0.1,3.2,0.9,4,4,3.9
	c10.9-0.2,21.9-0.1,32.9-0.1c7.4,0,11,3.6,11,10.9c0.1,30.8,0,61.6,0,92.4c0,7.7-3.6,11.1-11.4,11.1c-10.4,0-20.7,0.3-31.1-0.1
	c-4.7-0.2-5.7,1.4-5.4,5.6c0.4,4.5,0.1,9.1,0.1,13.7c-0.2,15.8-12.6,28.4-28.5,28.4c-9.5,0-19,1.1-28.4-1.2
	c-2.4,16.9-9.4,26.5-23,29c-10.5,2-21.5,2.1-32-0.1c-13.2-2.7-21.9-14-22-27.5c-0.1-14.5-0.1-29,0-43.5c0-3.2-0.6-4.4-4.2-4.4
	c-67.3,0.1-134.6,0.1-201.9,0c-4,0-4.4,1.4-4.4,4.7c0.2,17.1,0.1,34.2,0.1,51.3c0,17.8-12.2,29.9-30,30c-4.6,0-9.2,0-13.7,0
	c-20.3,0-31-9.6-33.1-29.9c-9.3,2.2-18.8,1.3-28.3,1.2c-16.2,0-28.5-12.5-28.7-28.8c-0.1-7.9-0.2-15.9,0.1-23.8
	c0.1-3.6-0.7-4.7-4.5-4.6c-10.7,0.3-21.5,0.1-32.3,0.1c-7.4,0-11.1-3.5-11.1-10.9c-0.1-31-0.1-62,0-93c0-7,3.7-10.5,10.8-10.6
	c11-0.1,21.9-0.2,32.9,0.1c3.5,0.1,4.4-1,4.2-4.3c-0.3-5-0.1-9.9-0.1-14.9c0.2-15.9,12.5-28.4,28.4-28.5
	C104.9,99.7,114.5,98.6,124.4,101.1z"/>
<path style="fill:#65CBFF;" d="M306,242.8c-33.2,0-66.5-0.1-99.7,0.1c-4.4,0-5.6-1-5.5-5.5c0.3-22,0.2-44.1,0-66.2
	c0-3.9,1-4.9,4.9-4.9c66.9,0.1,133.8,0.1,200.7,0c3.9,0,4.9,1,4.9,4.9c-0.2,22.2-0.2,44.5,0,66.8c0,3.9-1,4.9-4.9,4.9
	C372.9,242.7,339.4,242.8,306,242.8z"/>
<path style="fill:#FFFFFF;" d="M525.9,199.8c0,25.4,0,50.8,0,76.3c0,12.1-2.4,14.4-14.7,14.4c-4,0-8,0-11.9,0
	c-8.2-0.1-11.5-3.4-11.5-11.6c0-29.4,0-58.8,0-88.2c0-22.6,0-45.3,0-67.9c0-10.9,2.7-13.5,13.8-13.5c4.4,0,8.8,0,13.1,0
	c7.8,0.1,11.2,3.5,11.2,11.3C525.9,147,525.9,173.4,525.9,199.8z M124.4,130.6c0-8.5-3.3-11.8-11.9-11.8c-4.6,0-9.2,0-13.7,0
	c-9.4,0-12.6,3.1-12.6,12.4c0,27.8,0,55.6,0,83.4c0,24.6,0,49.2,0,73.9c0,8.2,3.4,11.5,11.6,11.6c4.6,0,9.2,0,13.7,0
	c9.8,0,12.9-3,12.9-12.7c0-26,0-52,0-78C124.4,183,124.4,156.8,124.4,130.6z"/>
<path style="fill:#52A3CC;" d="M468.5,195.3c0,37,0,73.9,0,110.9c0,9.9-2.9,12.9-12.7,12.9c-4.6,0-9.2,0-13.7,0
	c-8.6,0-11.8-3.3-11.8-11.9c0-48.3,0-96.6,0-144.8c0-26.2,0-52.4,0-78.7c0-9.5,3.1-12.6,12.4-12.6c4.8,0,9.6,0,14.3,0
	c8.2,0.1,11.5,3.4,11.5,11.6C468.5,120.2,468.5,157.8,468.5,195.3z M181.7,92.3c0-8.3-3.3-11.6-11.5-11.7c-5,0-10,0-14.9,0
	c-8.6,0.1-11.8,3.3-11.8,11.9c0,15.1,0,30.2,0,45.3c0,59.6,0,119.2,0,178.8c0,8.7,3.2,11.9,11.8,12c4.6,0,9.2,0,13.7,0
	c9.8,0,12.7-3,12.7-12.8c0-37,0-73.9,0-110.9C181.7,167.4,181.7,129.8,181.7,92.3z M38.3,238.5c-0.1,3.3,0.8,4.4,4.2,4.3
	c7-0.3,13.9-0.2,20.9,0c2.9,0.1,3.7-0.8,3.7-3.7c-0.1-23-0.1-46.1,0-69.1c0-2.8-0.7-3.8-3.6-3.7c-7,0.2-13.9,0.2-20.9,0
	c-3.4-0.1-4.4,0.9-4.3,4.3c0.2,11.1,0.1,22.2,0.1,33.3C38.3,215.5,38.5,227,38.3,238.5z M573.7,170.6c0.1-3.4-0.9-4.4-4.3-4.3
	c-7,0.3-13.9,0.2-20.9,0c-2.9-0.1-3.7,0.8-3.7,3.7c0.1,23,0.1,46.1,0,69.1c0,2.8,0.8,3.8,3.7,3.7c7-0.2,13.9-0.2,20.9,0
	c3.4,0.1,4.3-0.9,4.3-4.3c-0.2-11.3-0.1-22.6-0.1-33.9C573.7,193.3,573.5,182,573.7,170.6z"/>
</svg>
