<?xml version="1.0" encoding="utf-8"?>
<!-- Generator: Adobe Illustrator 24.0.0, SVG Export Plug-In . SVG Version: 6.00 Build 0)  -->
<svg version="1.0" id="Layer_1" xmlns="http://www.w3.org/2000/svg" xmlns:xlink="http://www.w3.org/1999/xlink" x="0px" y="0px"
	 viewBox="0 0 634 634" style="enable-background:new 0 0 634 634;" xml:space="preserve">
<path style="fill:#006699;" d="M493,293.5c-8.7-11.3-18.6-8.2-29-3.2c-9.2,4.4-18.8,8-28.4,11.4c-4.2,1.5-5.5,3.1-3.8,7.6
	c8.6,22.7,17.1,45.4,25.2,68.2c1.6,4.6,3.5,4.8,7.8,3.9c52.7-10.7,105.2,14.3,128.8,62.6c19.4,39.8,17.2,79.7-7.3,116.7
	c-24.4,37-60.1,55.2-104.5,52.2c-49.5-3.3-83.8-29.3-102.6-75.2c-4.1-9.9-10-2.6-17.4-3.7c5.9,3.8,8.3,7.4,6.8,12.3
	c-1.5,5.1-5.8,5.8-10.2,6.7c-6,1.2-12,2.6-18,3.9c-4.5,1-9.2,2.2-12.6-2.4c-3.7-4.9-1.1-9.1,2.1-13.6c-2.4,0.4-4.4,0.7-6.3,1.2
	c-4.2,1.1-6.3-0.5-6.4-4.7c-0.1-8.1-3.3-9.4-11.3-7.7c-15.2,3.1-27.5-3.1-36.5-15.7c-1.7-2.4-2.8-4.8-6.4-4.2
	c-4.2,0.7-3.1,4.1-3.5,6.6c-9.1,58.3-60.3,99.5-121.7,97.9c-55.7-1.4-104.4-47.2-110.4-103.6C20,441.2,71.9,381.6,141.5,379.8
	c16.5-0.4,32.6,2.7,47.8,9.4c4.1,1.8,6.1,1.3,8.3-2.6c6.4-11,13.2-21.9,20.1-32.6c2.1-3.4,2.7-6.4,0.6-10c-1.5-2.7-2.8-5.5-3.5-8.5
	c-2.4-9.4-6.8-14-17.9-13.4c-13,0.6-24.3-17.9-20.2-30.6c0.4-1.2,1-3,1.8-3.2c8.9-2.7,4.7-8.5,3.7-13.9
	c-2.3-12.5,3.5-22.6,11.4-31.2c31.9-34.6,64.1-69,100.6-99c10.1-8.3,20.5-16.1,32.1-22.2c5.2-2.7,9.6-3.2,12.9,2.7
	c2.5,4.4,5.1,2.5,8,0.3c3.7-2.7,3-4.9-0.2-7.1c-1.4-1-2-2.3-2.3-3.8c-5.2-21.4-9.5-43-5.7-65.2c4.2-24,19.9-34.7,43.6-29.7
	c21.9,4.7,41,15.5,59.7,27.1c6.6,4.1,2,9.4-1,12.1c-5,4.6-4.1,8.5-2.6,14.2c6.4,24.6,1.5,46.7-16.7,65c-9.4,9.5-21,14.3-34.7,13.3
	c-1.8-0.1-3.7-0.5-5.3-0.2c-3.6,0.8-7.1,3-8.5,6c-1.4,3,2.8,4.2,4.8,5.9c32.4,26.9,67.9,49,104.9,69c7.4,4,16.5,8.4,16.2,19.9
	c-0.1,3.3,3.8,4.7,6.2,6.3c13,8.5,15.8,21.5,13.9,35.2c-2,14.8-12.8,21.9-26.6,25c-3,0.7-5.9,1.6-8.9,2.2c-6.5,1.3-12.1-2-13.8-7.8
	c-1.7-5.8,1.6-11.7,7.8-13.9c2.6-0.9,5.5-1.2,8.1-2.2C488.4,295,491.3,295.5,493,293.5z"/>
<path style="fill:#FEFEFE;" d="M463.9,266.2c-22.3,8.9-43.6,17.3-64.8,25.7c-8.5,3.4-11.7,8.3-9.6,14.8c2.2,7.1,7.9,9.5,16.7,6.6
	c3.5-1.1,5.2-0.8,6,2.9c0.5,2.2,1.6,4.3,2.4,6.5c5.2,14.3,5.2,14.2-10.4,14.2c-15.6-0.1-31.2-0.2-46.8,0.1c-4.6,0.1-6.5-1.5-6.7-6
	c-0.2-4.1-1.3-8.1-1.3-12.2c-0.2-14.6-8-23.6-20.5-29.6c-9.4-4.5-18.7-9.5-28.2-13.7c-4.1-1.8-4.2-3.1-1.6-6.4
	c18-22.6,35.9-45.3,53.6-68.1c3.5-4.5,5.6-2.3,8.6-0.1c26.9,20,54.2,39.3,83.7,55.4C450.7,259.7,456.8,262.7,463.9,266.2z"/>
<path style="fill:#FCFCFC;" d="M261.3,488.2c-1.3-6.7-2.2-13.5-3.9-20.2c-6.3-24.5-19.1-45.1-38.8-61c-5-4-5.1-6.7-1.7-11.6
	c4.7-6.6,8.6-13.8,13.6-21.8c5.8,12.7,11,24.3,13.9,36.9c0.8,3.6-0.7,8.5,4.5,10.4c-4.2,9.9,5.1,12.7,9.2,18.6
	c4.5,6.6,6.3,15,9.8,22.3c2.6,5.4,3.7,10.1-0.4,15.5c-2.3,3-3,7.2-4.4,10.9C262.4,488.3,261.8,488.2,261.3,488.2z"/>
<path style="fill:#FDFDFD;" d="M284.8,358c13.1,0.1,13,0.1,13.4,13.1c0.3,8.9,0.8,17.9,1.5,26.8c0.3,3.8-0.6,5.2-4.6,4
	c-6.1-1.8-12.2-3.6-18.5-4.9c-3.5-0.7-3.7-2.8-3.9-5.4c-0.8-9.2-1.4-18.3-2.6-27.4c-0.7-5.5,1.5-6.7,6.3-6.2
	C279.2,358.3,282,358,284.8,358z"/>
<path style="fill:#66CCFF;" d="M477.2,244.3c-11.9,14.2-11.9,14.5-28.2,5.6c-30.1-16.5-58.1-36.2-85.4-56.8c-9.2-6.9-9.1-6.9-16,1.8
	c-18.6,23.7-37.3,47.3-55.9,71.1c-2.3,2.9-3.9,4.5-8.1,2.8c-23.4-9.5-47.5-17.2-71.6-24.7v0c0,0,0,0,0,0c-7.2-0.3-7-2.8-2.6-7.4
	c24.5-26,49.1-51.9,75.9-75.6c12.9-11.5,26-22.9,41.5-31c1.9-1,4.7-4.7,6.6,0.3c40.5,44.4,89.4,77.4,142,105.4
	C480.8,238.4,480.7,240.1,477.2,244.3z"/>
<path style="fill:#050505;" d="M433.6,55.9c-4.2,1.9-4.6,4.8-4.9,8.5c-1,9.9-4.2,12.5-14.5,12.2c-3.2-0.1-5.3,0.5-6.9,3.4
	c-1.9,3.4-4.6,6.3-8.6,7c-5.3,0.9-3,6.6-6.3,9.3c-0.1-5.1,0.6-10-3.5-13.6c-7.3-6.5-17.4-2.9-19.7,7.5c-0.8,3.4-0.6,7.1-0.2,10.7
	c0.4,4.2-1,6.9-4.8,8.5c0,0,0,0,0,0c-5.9,5.9-11.2,5.6-13-1.7c-5-20.3-9-40.9-1.7-61.5c2.5-7.1,6.1-13.6,14.5-15.4
	c8.8-4.6,17.9-3.1,26.8-0.7c15.2,4,28.9,11.4,42.4,19.4C436.4,51.4,437.9,54,433.6,55.9z"/>
<path style="fill:#52A3CC;" d="M345.2,475.5c0,3-0.7,6.1-0.9,9.1c-1.4,18.5-1.4,18.4-20.3,20.6c-4,0.5-5.8-0.2-6.3-4.8
	c-3-25.1-5.7-50.2-7.9-75.4c-2.2-26.2-4.5-52.4-4.2-78.8c0-2.3-0.1-4.7,0.4-6.9c2-9.8,2-9.5-8.6-10.7c-27.9-3-54.7-9.6-78.7-25.1
	c-6.5-4.2-11.7-9.8-17.4-14.9c0,0,0,0,0,0c0,0,0,0,0,0c-15.5-10.3-14.4-23.5-5.5-36.5c4.4-6.4,9.7-2.8,14.7-0.4
	c37.4,11.2,74.2,24,109.5,41.2c16.6,8.1,23.2,19.6,24.1,37.6C346.3,378.9,345.9,427.2,345.2,475.5z M262.6,363.6
	c-0.2-2.2,0.5-5.1-2.8-5.4c-3.8-0.3-7.6-0.1-11.4,0.3c-0.9,0.1-0.5,1.7-0.1,2.6c3.4,8.2,6.8,16.4,10.4,24.6c0.6,1.3,1.5,2.8,3.5,2
	c1.2-0.5,2.1-1.4,2-2.9c0-1.5,0-3.1,0-3.4C263.6,374.7,263.1,369.1,262.6,363.6z M252.4,336.8c0.8,0,1.5,0,2.3,0
	c2.2-0.1,4.8,0.4,4.9-3.1c0-2.5-0.4-4.1-3.3-5c-7.9-2.4-15.7-5.4-24.4-8.4C236.8,336.9,236.8,336.9,252.4,336.8z"/>
<path style="fill:#F9F9F9;" d="M160.7,443.4c2.9-11,5.4-22.1,8.9-32.8c1.6-5,5.6-0.7,8.4-0.2c2.5,0.4,4.2,1.6,2.2,4.7
	c-6.1,9.6-12,19.3-18,29C161.7,443.8,161.2,443.6,160.7,443.4z"/>
<path style="fill:#52A3CC;" d="M388.4,526.8c7,16.8,15.3,32.9,29.2,45.1c31.4,27.7,67.3,36.2,106.8,21.6
	c38.1-14,60.8-42.4,66.8-82.7c9-60-35.1-114-95.6-118.1c-9-0.6-17.9-0.3-26.6,1.6c-4.7,1-6.7-1-7.7-5c-1.3-5.1,3.1-3.7,5.3-4.1
	c60.5-13.2,122.6,28.6,133.6,90c13.5,74.9-47,141.8-122.8,133.9c-44.7-4.7-76.5-29.1-94.3-71c-1.9-4.4-2.9-7.6,3.3-8.5
	C388,529.5,388.2,528,388.4,526.8L388.4,526.8z M156.5,610c50.9-6.3,91.1-44.3,99.3-94.4c0.4-2.3,2-5.4-2.3-5.8
	c-3-0.2-6.4-0.9-7.1,3.6c-0.2,1.3-0.4,2.5-0.7,3.8c-4.5,22.5-15,41.9-32.2,57c-37.8,33-84.6,35.9-129,8.6c0.6,2.4,2.5,3.6,4.2,5.2
	c11.4,10,25,15.9,38.8,21.5C137.2,610.9,146.7,611.2,156.5,610z M388.4,526.8c-1-6.3-2.5-12.5-3-18.8c-3.1-45.2,14.2-80.1,53.7-103
	c4.5-2.6,3.9-5.1,2.3-8.5c-2.2-4.6-4.8-1-6.7,0.1c-40.3,21.7-63.5,65.5-58.9,110.9C376.7,516.4,377.3,524.9,388.4,526.8
	C388.5,526.7,388.4,526.8,388.4,526.8z M213.9,408c-1.9-1.5-3.6-2.4-4.8,0.3c-1,2.4-4.9,4.4-0.8,7.7c22.1,17.5,34.6,40.5,38.6,68.2
	c0.6,4.1,2.7,4,5.7,4.1c3.9,0.1,4.1-2.1,3.8-5C252,452.8,238.3,427.4,213.9,408z M188,392.9c-20-8.3-40.6-11.4-62.1-7.4h0
	c0,0,0,0,0,0c-2.5,0.3-5.1,0.2-7.5,0.8c-26.7,6.4-48.8,20.1-65.3,42.2c-19.4,25.9-26.7,55.1-21.7,87c4.4,28,18,51.2,39.8,69.3
	c16.4,13.6,34.8,22.8,56.4,24.7c-0.4-3.7-3.8-3.6-6.2-4.6c-13.2-5.8-26-12.3-36.9-22c-0.9-0.9-1.7-1.9-2.7-2.6
	c-39.6-29.8-52.4-83.4-30.9-127.8c8.8-18.2,22.4-31.9,38.4-43.7c21.8-12.3,44.8-18,69.9-14.1c8.6,1.3,17,3.4,25,6.9
	c4.5,2,5.2-1.5,6.8-3.9C192.9,394.4,190,393.7,188,392.9z M403.8,306.3c22-8.7,44-17.4,66-26.2c1.5-0.6,4.9-0.6,3.3-3.5
	c-1-1.8-2.3-5-5.8-3.4c-1.2,0.5-2.4,0.9-3.6,1.4c-20.1,8-40.2,15.9-60.3,23.9c-1.6,0.7-3.3,1.3-4.8,2.3c-1.5,1-2.7,2.5-1.6,4.5
	c0.8,1.5,2.2,2.1,4.5,1.9C401.9,306.9,402.9,306.6,403.8,306.3z M505.1,287c-0.2,8.7-5.4,13.3-13.4,15.4c-3.4,0.9-6.9,1.8-10.3,2.8
	c-2.4,0.7-4.4,1.9-3.7,4.8c0.8,3,3,2.9,5.5,2.2c4.7-1.3,9.5-2.1,14-3.7c12-4.1,17.5-16,13.5-28.3C507.2,281.1,505.2,282.9,505.1,287
	z M195,294.8c-0.1,0.9-0.1,1.7,0,2.6c-0.4-0.9-0.8-1.9-1.1-2.8c-2.4-2.6-5.3-3.6-8.5-1.8c-1.6,0.9-2.5,2.5-2.4,4.6
	c0.5,9.1,7.2,15.4,16.5,15.3c0-0.4,0-0.8-0.1-1.2c0.6,1.1,1.2,2.3,1.8,3.4c5.4,0.2,10.9,0.6,16.9-2.8
	C208.6,307.8,203.3,299.4,195,294.8z"/>
<path style="fill:#F4D77F;" d="M281,459.8c0.2,2.3-0.9,3.4-2.4,3.9c-3.2,1-2.9-2.1-3.6-3.6c-8.1-19-16-38.1-23.9-57.2
	c-10.6-25.4-21.3-50.8-31.8-76.3c-0.8-1.9-4-4.4,0.3-6.1c4-1.6,3.9,2.1,4.8,4.2c18.4,43.7,36.7,87.5,55,131.3
	C280,457.3,280.6,458.8,281,459.8z M153.4,484.4c23.6-38.6,47.3-77.1,71-115.7c1.9-3.1,2.9-5.9-0.8-9.8
	c-26.6,43.2-52.8,85.9-79.2,128.8C149.1,489.3,151.4,487.7,153.4,484.4z M357.8,350.3c9.7,0.2,19.4,0.1,29.1,0.1
	c10.2,0,20.4,0.1,30.6-0.1c2,0,5.9,2,5.9-2.2c0-3.8-3.5-3.6-6.4-3.6c-19.9,0-39.8,0-59.7,0.1c-2.2,0-5.8-1.2-5.5,3.1
	C352.2,351.7,355.6,350.2,357.8,350.3z M257.5,496.1c-36.5,0-73,0-109.5,0.1c-2.4,0-6.6-1.4-6.4,2.9c0.1,4.1,4.2,2.9,6.7,2.9
	c18.1,0.1,36.2,0.1,54.4,0.1c18.4,0,36.8,0.1,55.1-0.1c2.1,0,5.8,1.8,5.9-2.5C263.9,495,260.1,496.1,257.5,496.1z M293.4,344.4
	c-7.6,0-15.3,0-22.9,0c-7.6,0-15.3-0.1-22.9,0.1c-1.9,0-5.2-1.2-5,2.7c0.2,3.1,2.7,3.2,5.1,3.2c15.3,0,30.5,0,45.8-0.1
	c1.9,0,4.4,0.6,4.6-2.5C298.2,344.3,295.7,344.4,293.4,344.4z M491.2,492.7c-0.2-0.7-0.6-1.4-0.9-2.1
	c-11.8-32.1-23.6-64.1-35.4-96.2c-10-27.3-20.1-54.6-30.2-81.8c-0.7-1.8-0.2-5-3.4-5c-6.1,1.8-2.4,5.4-1.5,7.9
	c17.6,48.1,35.3,96.2,53.1,144.3c4.3,11.7,8.7,23.4,13.1,35.1c0.8,2,1.3,5.2,4.5,3.8C493.6,497.4,491.8,494.8,491.2,492.7z
	 M423.9,367.4c-23,20-43.6,42.3-65.3,63.6c-4.4,4.4-6.5,8.8-4.4,16.2c25.6-25.2,50.2-49.6,75-73.9c2.9-2.9,2.5-5.8,0.5-8.1
	C427,362,425.4,366.1,423.9,367.4z M353.2,520.2c-3.4-1.1-5.6-0.4-8.1,1.9c-6.2,5.5-13.4,7-21.2,3.5c-1.4-0.6-3.2-1.9-3.9,0
	c-1.5,3.8,0.7,7.5,1.5,11.1c0.7,2.9,3.3,1.4,5.2,1c17.2-3.1,34.5-6.3,51.7-9.4c-0.1-0.4-0.1-0.9-0.2-1.3
	C369.8,524.7,361.4,522.7,353.2,520.2z M274.9,400.7c-4.1-0.8-7.2,1.7-7.4,5.5c-0.2,4,2.5,6.4,7,5.4c7.4-1.5,14.8-3,22.2-4.4
	c-0.1-0.5-0.3-0.9-0.4-1.4C289.2,404.1,282.1,402.1,274.9,400.7z"/>
<path style="fill:#FDFDFD;" d="M425.5,358c-24.5,21.7-45.9,43.8-67.5,65.7c-0.7-0.2-1.5-0.5-2.2-0.7c0-20.6,0-41.1,0-61.7
	c0-2.8,1.3-3.4,3.8-3.4C381,358.1,402.3,358,425.5,358z M354,518.3c1.5,0.1,3,0.7,4.5,1c8.5,2,8.4,2.1,7.2-6.6
	c-3.8-26.2,1-50.8,13.8-73.8c11.4-20.7,28-36.2,48.8-47.2c1.6-0.9,4.2-1.2,2.9-4.2c-1.1-2.5-1.5-5.9-3.3-7.5
	c-1.8-1.5-3.3,1.6-4.6,2.9c-24.5,23.9-48.9,47.9-73.3,71.9c-1.8,1.7-3.8,3.2-3.9,6.2c-0.6,14.8-1.4,29.6-2.3,46.4
	C341.8,514,346.1,517.5,354,518.3z M487,507.1c6.7,25,13.5,50.1,20.1,75.2c0.9,3.3,2.5,3.4,5,2.5c11.4-4.1,21.8-9.9,31-17.8
	c1.9-1.7,3.1-3,0.7-5.4c-18.5-18.3-36.8-36.8-55.2-55.2C488,506.5,487.5,506.8,487,507.1z M463.5,481.3
	c-15.2-15.2-30.5-30.2-45.5-45.6c-3.7-3.8-5.4-2.8-8.2,0.6c-6.6,8.3-11.5,17.4-15.8,27c-2.5,5.5-0.8,7.5,4.7,8.5
	c4.8,0.8,9.4,2.5,14,3.7c18.4,4.9,36.8,9.8,55.8,14.9C468,486,465.8,483.6,463.5,481.3z M130.4,482.5c-6.3-23.7-12.7-47.3-18.9-71
	c-1-3.9-3.1-3.3-5.7-2.4c-11.2,4-21.3,9.8-30.4,17.5c-2.5,2.1-2.8,3.5-0.3,6c17.7,17.7,35.3,35.6,54,54.6
	C130,484.3,130.6,483.3,130.4,482.5z M470.7,501.6c-25.1,6.8-50.1,13.6-75.2,20.2c-3.2,0.9-3.2,2.2-2.3,4.9
	c3.9,11.5,9.9,21.8,17.8,31c1.6,1.9,2.9,3.2,5.4,0.7c18.3-18.5,36.7-36.9,55-55.3C471.2,502.5,471,502.1,470.7,501.6z M468.8,495.3
	c-24.8-6.8-49.7-13.4-74.5-20.3c-4.2-1.2-4.2,1.7-4.7,4c-2.1,11.4-2,22.8-0.1,34.3c0.7,4,2.4,4.8,6.3,3.7
	c24.6-6.8,49.2-13.3,74.4-20C469.5,496.1,469.2,495.4,468.8,495.3z M125.8,502.6c-24.6,6.6-49.1,13.2-73.7,19.7
	c-4,1.1-4.5,2.9-3.2,6.5c3.9,10.6,9.6,20.2,16.7,29c2.8,3.4,4.4,3.5,7.5,0.3c10.3-10.7,20.8-21.1,31.4-31.5
	c7.6-7.4,15.5-14.6,23.3-21.9C127,504,126.4,503.3,125.8,502.6z M129.8,507.6c-18.4,18.4-36.7,36.8-55.2,55.1
	c-2.8,2.7-0.4,4,1.2,5.4c6.8,5.9,14.3,10.6,22.5,14.3c11.8,5.3,11.9,5.3,15.1-6.8c6-22.3,11.9-44.7,17.9-67
	C130.9,508.3,130.4,508,129.8,507.6z M481.1,507.7c-6.9,25.5-13.7,51-20.7,76.4c-0.8,2.9,0.7,3.6,3,4c11.9,2.2,23.8,2.2,35.7,0.1
	c3.3-0.6,4.4-2,3.5-5.2c-6.8-25.1-13.5-50.2-20.3-75.3C481.9,507.7,481.5,507.7,481.1,507.7z M491.1,483.5
	c17.4-17.3,34.7-34.7,52.2-52c2.7-2.7,1.8-4.1-0.5-6c-8.5-7.2-18-12.5-28.2-16.8c-4.9-2.1-7-1.1-8.4,4.1
	c-5.4,21-11.1,41.9-16.7,62.9c-0.7,2.6-1.5,5.4,0,8.1C490.1,483.7,490.8,483.8,491.1,483.5z M135.7,511.2
	c-6.6,24.3-13.1,48.6-19.8,72.9c-1.4,5,2.2,4.9,4.9,5.3c10.1,1.7,20.3,1.4,30.5,0.4c6.6-0.7,7.9-3.3,5.7-9.1
	c-1.2-3.1-1.8-6.3-2.7-9.5c-5.5-20.3-10.9-40.6-16.7-62.3C136.3,510.4,135.8,510.7,135.7,511.2z M125.4,496.6
	c-24.6-6.6-49.2-13.1-73.7-19.8c-4.4-1.2-6.2-0.8-7.1,4.3c-1.5,8.7-1.4,17.3-0.8,25.9c0.8,12.7,1,12.6,13,9.3
	c2.5-0.7,4.9-1.2,7.4-1.9c20.3-5.5,40.7-11,61-16.4C125.3,497.5,125.4,497,125.4,496.6z M475.4,505.5c-18.3,18.4-36.6,36.9-55,55.2
	c-2.7,2.7-2.4,4.3,0.4,6.6c9,7.3,18.7,13.1,29.6,17.1c3.9,1.5,5.3,0.3,6.4-3.6c6.5-24.8,13.3-49.6,19.9-74.4
	C476.2,506.2,475.8,505.8,475.4,505.5z M494,497.2c24.5,6.6,49.1,13.2,73.6,19.9c3.9,1.1,5.3,0.2,6-4c1.9-11.5,1.7-22.8-0.1-34.2
	c-0.6-3.7-1.8-4.7-5.5-3.5c-6.5,2.1-13.3,3.6-19.9,5.3c-18.1,4.9-36.1,9.8-54.2,14.7C494,496.1,494,496.6,494,497.2z M492.6,491
	c25-6.7,50-13.4,75-20.1c3.8-1,2.8-3.4,1.9-5.9c-3.7-10.5-9.3-19.7-16.1-28.5c-3.2-4.1-5-4-8.6-0.3c-15.1,15.6-30.5,30.9-46,46.1
	c-2.5,2.4-5.7,4.1-8.5,6.1C491.1,489.2,491.9,490.1,492.6,491z M126.8,490c-18.5-18.3-36.9-36.6-55.3-54.9c-2-2-3.2-1.5-4.8,0.3
	c-8.1,9.4-14.2,19.9-18.2,31.6c-0.9,2.6-0.5,4,2.6,4.9c24.9,6.5,49.7,13.3,74.5,19.9C126,491.3,126.4,490.7,126.8,490z M492,503.4
	c18.2,18.2,36.5,36.3,54.6,54.6c2.7,2.7,4,1.7,5.9-0.6c7.5-8.9,13-18.8,17.2-29.6c1.8-4.5,0-5.8-3.8-6.7c-7.4-1.8-14.8-3.9-22.2-5.8
	c-16.9-4.5-33.9-9-50.8-13.5C492.6,502.3,492.3,502.9,492,503.4z M197.8,561.6c-16.4-16.5-32.8-32.9-49.3-49.4
	c-1.2-1.2-2.7-3.2-4.5-2c-1.8,1.1-0.5,3.3-0.1,4.9c6,22.4,12,44.8,17.9,67.2c0.9,3.4,1.8,4.7,5.7,3.2c11.1-4.1,21.2-9.9,30.4-17.5
	c1-0.8,2.3-1.3,2.3-1.3C200.4,563.3,198.8,562.6,197.8,561.6z M171.8,488.2c20.4-5.4,40.8-11,61.2-16.3c3.3-0.9,3.1-2.2,2.2-4.9
	c-3.8-11.2-9.7-21.3-17.2-30.4c-2.5-3-4.1-3.2-7-0.3c-13,13.3-26.3,26.4-39.4,39.6c-3.3,3.3-5.7,7.1-8.1,12.3
	C166.8,488.2,169.4,488.8,171.8,488.2z M201.7,559c2.8,2.8,4.2,1.4,5.9-0.7c7.3-8.7,12.7-18.4,17.1-28.9c2.1-5,0.6-6.4-4.3-7.6
	c-10.9-2.5-21.8-5.4-32.5-8.7c-10.9-3.4-21.9-4.1-35.4-2.9C169.9,527.4,185.9,543.1,201.7,559z M144.5,459.6
	c4.5-16.2,8.6-32.5,13.1-48.7c0.9-3.4,0.9-5-3.2-5.6c-11.5-1.8-22.8-2-34.3-0.1c-4.2,0.7-5.1,2.4-4,6.1c1.6,5.6,3.1,11.3,4.6,17
	c4.4,16.1,8.7,32.3,13.4,49.7C138.5,471.2,142.7,466,144.5,459.6z M502.6,409.8c1.3-4.6-1.6-5.1-4.7-5.7c-10.6-1.8-21.3-1.7-32-0.1
	c-4.2,0.6-5.6,2-3.9,6.5c7.8,20.4,15.2,41,23.4,63C491.5,451.1,496.9,430.4,502.6,409.8z M461.9,470.9c-6.8-18.3-13.6-36.6-20.3-55
	c-1-2.6-2.1-3-4.5-1.7c-6.1,3.3-11.7,7.2-17,11.7c-1.8,1.5-2.7,2.9-0.6,5c13.7,13.6,27.3,27.3,40.9,40.9
	C460.9,471.5,461.4,471.2,461.9,470.9z M288.4,428.6c-1.1,0.9-1.3,2.1-0.8,3.4c3.4,7.7,6.6,15.4,10.1,23.1c1.6,3.5,4.9,2,7.5,1.9
	c3.8-0.2,2.1-3.4,2-5.3c-0.6-8.9-1.3-17.8-2.2-26.7c-1.4-13.7-1.5-13.7-16.3-11.1C292.3,419.2,293.6,424.1,288.4,428.6z
	 M193.8,488.4c13.8,0,27.5-0.2,41.3,0.1c5,0.1,5-2.5,4.1-5.6c-0.8-2.8,0.7-8.2-5.5-6.6c-13.4,3.6-26.8,7.2-40.3,10.8
	C193.6,487.6,193.7,488,193.8,488.4z M187.8,451.5c8.8-5.3,15.1-13.4,21.9-20.8c2.5-2.7-2.4-4.1-4-6c-2-2.5-3.3-0.8-4.5,1.1
	c-5.1,8.4-10.2,16.7-15.4,25.2C186.9,451.3,187.5,451.7,187.8,451.5z M196.8,510.9c9.4,2.6,18.8,5.4,28.2,7.7c4.7,1.2,3.1-3.5,4-5.6
	c1.2-2.7-0.7-3.4-3.2-3.4c-9.6,0.1-19.2,0-28.8,0C196.9,510.1,196.9,510.5,196.8,510.9z"/>
<path style="fill:#006699;" d="M300.5,522.7c-17-0.2-30-13.6-29.6-29.8c0.3-15.3,13.4-28.1,28.7-28.2c4.3,0,6.4,1.2,6.9,5.8
	c1.9,15.4,2.4,31,6.6,46.1c0.6,2.1-0.5,3.2-2.4,4C307.1,522.3,303.3,522.6,300.5,522.7z M334,544.3c-2.8,0.6-4.5,2.6-3.9,5.7
	c0.6,3,2.9,4.2,5.8,3.6c8.5-1.7,17-3.5,25.5-5.4c2.8-0.6,4.5-2.6,3.9-5.6c-0.6-3-2.9-3.9-6.6-3.6C351,540.7,342.5,542.4,334,544.3z
	 M273.5,421.1c0.6,2.5,0.8,6.6,5.4,5.9c3.3-0.5,6.3-1.7,6.2-5.5c-0.1-3.2-2.5-4.8-6.4-4.5C277.5,418.8,272.3,416.1,273.5,421.1z"/>
<path style="fill:#E3E4E5;" d="M294,337.3c-7.6,0-15,0-22.4,0c-2.1,0-4.3-0.2-4.3-3.1c0.1-3.8,2.7-2.2,4.4-1.7
	C279.1,334.5,286.9,334.2,294,337.3z"/>
<path style="fill:#FBC9B9;" d="M490.4,282.1c-5.5-5.1-11.6-8.8-14.2-15.5c-2.1-5.4,3.3-17.1,8.7-18.8c2.2-0.7,6.3-1.4,6.1,2.1
	c-0.5,8.6,6.4,11.1,11.3,15c5.3,4.2,3.4,6.1-0.8,9.3C497.9,277,492.3,276.4,490.4,282.1z M341.3,519.6c2.8-2.3,2.9-5.7,1.8-8.4
	c-1.1-2.7-4-1-6.2-0.6c-3.8,0.7-7.5,1.5-11.2,2.3c-1.7,0.4-4-0.2-4.5,2c-0.5,2.4,0.7,4.5,2.6,6c2.2,1.9,4.9,2.7,8.2,2.7
	C335.1,523.1,338.5,521.9,341.3,519.6z M266.2,391.1c-0.7-1.1-3.7-0.1-3.9,0.9c-0.8,3.3,1.2,5.9,3.8,9.8
	C267.8,397.2,268,393.9,266.2,391.1z M431.9,79.2c-3.1,3-6.4,5.3-10.7,5.4c-11.2,0.3-17.5,6.7-20.7,16.8c-0.9,2.7-2.4,4.2-5.5,4.1
	c-10-0.3-11.4-1.7-10.9-11.5c0.2-2.9,0.2-6.2-3.6-6.4c-3.1-0.1-3.8,2.9-4.1,5.5c-0.2,1.8-0.2,3.6-0.1,5.3c0.7,8-1.5,14.6-9.2,18.5
	c-10.1,4.7-10.1,4.7-4.6,10.7c0,0,0,0,0,0c0,0,0,0,0,0c10.8,15.4,28.1,20,44.3,11.8C426.7,129.2,438.5,101.2,431.9,79.2z
	 M356.4,133.5c-0.4-1.8-0.8-3.9-3.1-3.5c-1.9,0.4-4.1,1.3-4.7,3.5c-0.7,2.5,1.2,3.6,3.1,4.6c0,0,0,0,0,0c0,0,0,0,0,0
	c3.2,3.2,6.7,6.2,9.7,9.7c4.2,4.9,7.2,3.8,10.2-1.3C365.5,143.1,361,138.4,356.4,133.5z"/>
</svg>
