<?xml version="1.0" encoding="utf-8"?>
<!-- Generator: Adobe Illustrator 24.0.0, SVG Export Plug-In . SVG Version: 6.00 Build 0)  -->
<svg version="1.1" id="Layer_1" xmlns="http://www.w3.org/2000/svg" xmlns:xlink="http://www.w3.org/1999/xlink" x="0px" y="0px"
	 viewBox="0 0 612 612" style="enable-background:new 0 0 612 612;" xml:space="preserve">
<path style="fill:#FFFFFF;" d="M133.7,401.3c-3.5,5.1-8.7,12.8-15.2,22.2c-16.5,24.2-24,35.4-29.1,42.8
	c-9.4,13.7-23.4,33.6-42.4,58.7c-5.7,13.6-2.2,29.2,8.4,38.4c12,10.4,30.7,10.5,43.6-0.3c12-15.5,24-31.4,36-47.8
	c21.3-29.1,41.2-57.8,59.7-85.9c-7.6-0.2-21-1.5-35.6-8.7C146.8,414.4,138.5,406.6,133.7,401.3z"/>
<path style="fill:#006699;" d="M341.4,150c-15.7-34.8-11.2-62.9,13.1-82.4c22.2-17.9,53-18.6,75.9-1.9
	c22.6,16.5,31.3,46.2,21.3,72.3c-9.1,23.8-35.1,44.2-69.8,38.8c4.5,8.5,8.1,16.8,9.4,26.1c1.1,7.8,0.8,15.5-1.4,23
	c-1.2,3.9,0.3,5.7,2.8,8.5c10.5,11.6,23,15.9,38.7,14.3c12.8-1.3,25.9-0.4,38.8-0.2c16.7,0.2,29.5,12.8,29.5,28.8
	c-0.1,16.1-12.7,28.3-29.7,28.4c-19.3,0.1-38.6-0.3-57.9,0.1c-16,0.4-29.6-4.6-41.4-15.2c-3.9-3.5-8-9.8-12.4-9
	c-3.6,0.7-6,7.7-8.9,12c-9.3,13.9-18.5,27.7-27.8,41.6c-0.8,1.3-2.2,2.3-2.1,4.8c7.9,0,15.7,0.1,23.6,0c21.5-0.2,37.7,9.1,47.8,27.8
	c10.1,18.8,8.7,37.6-3.5,55.1c-22.5,32.3-45,64.5-67.8,96.5c-12.4,17.4-35.5,21.1-52.9,9.1c-17.1-11.8-21.7-35.2-9.8-52.7
	c12-17.8,24.4-35.3,36.7-52.9c1.3-1.9,2.6-3.8,4.1-5.9c-2.4-1.3-4.6-0.7-6.7-0.7c-39,0-78-0.1-117.1,0c-12,0-21.4-4.3-27.2-14.9
	c-6-10.8-4.5-21.2,2.3-31.4c33.6-50.1,67.1-100.3,100.7-150.5c1.2-1.8,2.3-3.6,4.1-6.4c-13.5,0-26.2,0-38.8,0
	c-2.7,0-3.3,2.6-4.5,4.3c-12.4,18-24.6,36.1-37.1,54c-7,10-17.1,14.3-29.1,11.9c-12-2.3-19.7-10-22.5-22c-1.8-7.7-0.5-15.1,4-21.6
	c16.4-24.1,32.9-48.3,49.5-72.2c5.9-8.5,14.5-11.8,24.8-11.8c31.7,0.1,63.3,0,95,0.1c4.5,0,8.5-0.8,12.7-2.5
	C318.2,148.7,329.7,148.2,341.4,150z M108.8,561c19.6-28,39.2-56,58.8-83.9c9.9-14.1,19.8-28.3,29.8-42.4c1.4-2,2.6-4.1,1.1-6.6
	c-0.9-1.5-2.2-2.2-3.9-2.3c-2.9-0.1-4.1,2.1-5.5,4c-9.7,13.8-19.4,27.6-29.1,41.5c-19.9,28.3-39.7,56.6-59.6,84.9
	c-9.6,13.5-26.3,16.8-39.4,8c-13.5-9.1-16.4-26.3-6.6-40.4c26.5-38.4,53.2-76.7,79.8-115.1c1.9-2.8,3.8-5.7,0.5-8.3
	c-3.6-2.7-6.1-0.4-8.3,2.8c-3.9,5.8-7.9,11.4-11.9,17.2c-22.9,33-45.9,65.9-68.6,98.9c-8.6,12.5-9.6,26-2.4,39.4
	c6.9,13,18.4,19.3,32.7,20C90.3,578.2,100.9,572.2,108.8,561z"/>
<path style="fill:#519DC4;" d="M319,160.3c19.8-6.3,45.3,4.9,56.3,24.8c9.9,18,9.9,36.3-1.3,53.6c-21.3,32.8-43.2,65.2-64.8,97.7
	c-1.4,2.1-2.7,3.5-5.6,3.5c-40.6-0.1-81.1-0.1-121.7-0.1c-0.6-2.3,1.1-3.5,2-4.9c26.1-39.2,52.3-78.3,78.3-117.5
	c2.1-3.2,4.3-4.5,8.2-4.4c9.1,0.3,18.3-0.1,27.5,0.1c14.4,0.4,26.2-4,31.8-18.1C335.1,181.4,330.7,169.9,319,160.3z"/>
<path style="fill:#FEFEFE;" d="M263.6,349.5c26.7,0,53.3,0,80,0c17.5,0,30.7,7.5,38.8,23c8.1,15.4,6.9,30.7-3.1,45
	c-22.3,31.9-44.7,63.7-67.1,95.5c-7.3,10.4-17.4,14.7-30.1,12.1c-11.8-2.4-20-11.3-22.2-23.6c-1.4-8.1,1-15.3,5.6-21.9
	c14.5-20.8,29.1-41.7,43.5-62.6c1.5-2.2,3.9-4.2,2.3-7.4c-1.7-3.5-4.9-2.8-7.8-2.8c-43,0-86-0.1-129,0c-8.6,0-15.7-2.3-20-10.2
	c-4.3-7.9-2.3-15.2,2.7-22.2c4.8-6.8,9.5-13.7,13.9-20.8c1.9-3,4-4.1,7.7-4.1C207.1,349.6,235.4,349.5,263.6,349.5L263.6,349.5z
	 M394.3,63.3c-29.3-0.2-53,23-53.2,52.1c-0.2,28.6,23.4,52.6,52,52.8c29.2,0.2,52.9-23.1,53.1-52.2C446.2,87,423.1,63.4,394.3,63.3z
	 M251.1,165.4c-17.1,0-34.2,0.1-51.3,0c-8-0.1-14,3.1-18.6,9.7c-15.4,22.7-31,45.2-46.4,67.8c-7.2,10.5-5.6,21.9,3.9,28.3
	c9.4,6.3,20.5,3.6,27.7-7c12.6-18.3,25.3-36.6,37.7-55c2.7-4.1,5.7-5.7,10.7-5.7c29.6,0.1,59.3-0.1,88.9-0.4
	c10.4-0.1,18-7.8,18.2-18c0.2-10.7-7-18.9-17.6-19.1c-17.7-0.3-35.4-0.1-53.1-0.1C251.1,165.6,251.1,165.5,251.1,165.4z
	 M470.4,296.1c5,0,9.4-1.4,13.1-4.7c5.9-5.3,8-13.2,5.3-20.6c-2.8-7.9-9.8-12.7-18.9-12.8c-19.7-0.1-39.4-0.1-59,0
	c-3.4,0-6.1-0.8-8.6-3.1c-4.7-4.3-9.7-8.2-14.5-12.4c-1.6-1.3-2.7-2.7-4.5,0.2c-5.7,9-11.7,17.9-17.7,26.7c-1.7,2.5-0.8,3.8,1.2,5.3
	c4,3.2,8,6.6,11.9,10c8.9,7.8,19.1,11.7,31.1,11.4c9.3-0.2,18.7,0,28,0C448.5,296.1,459.5,296,470.4,296.1z"/>
</svg>
