<?xml version="1.0" encoding="utf-8"?>
<!-- Generator: Adobe Illustrator 24.0.0, SVG Export Plug-In . SVG Version: 6.00 Build 0)  -->
<svg version="1.0" id="Layer_1" xmlns="http://www.w3.org/2000/svg" xmlns:xlink="http://www.w3.org/1999/xlink" x="0px" y="0px"
	 viewBox="0 0 624 624" style="enable-background:new 0 0 624 624;" xml:space="preserve">
<path style="fill:#006699;" d="M452.2,130.4c11.7,17.4,22.3,33.6,33.2,49.5c3.2,4.7,4.8,9.6,4.7,15.4c-0.2,30.2,0,60.3-0.2,90.5
	c0,4.4,1.1,6.4,5.7,7.8c65.6,20.5,106.5,79.7,102.9,148.3c-3.6,67.2-59,125.8-125.8,133.6c-41.4,4.8-78-5.8-110.4-31.6
	c-2.9-2.3-5.8-3.3-9.5-3.3c-63.4,0.1-126.7,0.1-190.1-0.1c-4.8,0-6.5,1.5-7.1,5.9c-0.9,6.5-2.3,12.8-3.4,19.3
	c-1.2,7.2-5.4,11.1-12.8,11.1c-15.6,0-31.2,0.1-46.8,0c-7.7-0.1-12.7-4.8-12.9-11.7c-0.2-7.2,5-12.2,13.1-12.3
	c10.6-0.1,21.1-0.4,31.7,0.1c8.7,0.5,5.7-6.4,7.2-10.3c1.9-5.1-2.5-4.3-5-4.9c-46.3-11-81.5-53.4-83.1-100
	c-1.7-50.9,29.4-95.1,77.5-109.4c5.7-1.7,7.2-3.8,7.1-9.5c-0.3-24.6-0.3-49.3-0.1-73.9c0-4.3-0.8-5.6-5.5-6.2
	c-25.4-3.1-42.9-23.4-42.9-49c0-15.6-0.1-31.2,0-46.8c0.1-20.6,16-36.6,36.1-36.6c20.1,0,36,15.9,36.3,36.4
	c0.1,5.5,0.4,11.1-0.1,16.6c-0.5,5.6,1,7.6,7.2,7.5c21.1-0.4,42.2-0.2,63.4-0.2c21.8,0,38.1,15.4,38.2,36
	c0.1,20.7-16.1,36.1-37.9,36.4c-7.4,0.1-17.4-3.3-21.5,1.5c-3.6,4.2-0.9,13.9-0.9,21.2c0,18.1,0.2,36.2-0.1,54.3
	c-0.1,5.5,0.8,8.4,7.1,7.5c3.9-0.6,8-0.1,12.1-0.1c16.8,0,34.3,2.6,50.4-0.9c16-3.5,30.7-13.2,45.9-20.2
	c32.1-14.8,64.1-29.6,96.3-44.3c4.2-1.9,5.9-4.1,5.7-8.9c-0.4-11-1-22.2,0.1-33.2c1.6-15.4-2.9-28.1-12.2-40.2
	c-9.3-12.1-17.5-25.1-25.5-38.1c-3.4-5.5-7.1-8.1-13.8-7.5c-6.2,0.6-12.5,0.7-18.7-1.2c-17.2-5-28.4-21.4-26.4-39
	c2-17.8,17.2-31.9,35.3-32c40-0.2,79.9-0.1,119.9,0c9.4,0,14,4.7,13.5,14.9c-0.4,7.3,1.5,8.9,9.1,9.6c15.9,1.5,28-2.7,37.7-15.7
	c4.6-6.2,10.8-11.2,16.4-16.6c5.9-5.6,13-5.7,18-0.5c4.8,5,4.7,11.8-0.8,17.5c-11.4,11.7-23.1,23.1-34.6,34.7c-3,3-6.5,4.4-10.8,4.4
	c-9.6-0.2-19.1,0.2-28.7-0.2c-4.8-0.2-7.1,1-6.2,6.1c0.2,1.5,0,3,0,4.5c-0.2,9-4.6,13.4-13.4,13.6
	C468.9,130.5,461.2,130.4,452.2,130.4z"/>
<path style="fill:#65CBFF;" d="M490.1,317.6c51,14.7,88.8,67,83.9,123.9c-5.7,65.2-58.8,110.2-117.9,111.1
	c-60.4,1-112.7-43-121.3-101.3c-8.9-59.6,26.6-117.4,82.5-133.8c0.1,2.2,0.3,4.3,0.3,6.4c0,11.8-0.2,23.6,0.1,35.4
	c0.3,14-1,25.7-11.8,37.8c-21.4,24.1-15.2,61.4,10.6,82.3c24.7,20.1,61.5,16.7,82.7-7.6c21.3-24.5,19.9-61.1-3.7-82.8
	c-4.2-3.8-5.6-7.6-5.5-12.9C490.2,356.8,490.1,337.5,490.1,317.6z M465.9,364.2c0-48,0-96,0-144c0-17.5,0-17.2-17.3-17.6
	c-5.7-0.1-7,1.4-7,7c0.2,51.8,0.1,103.5,0.1,155.3c0,2.5,0,5,0,7.9c8.3-1.6,15.9-1.3,24.1-0.1C465.9,369.7,465.9,366.9,465.9,364.2z
	 M359.6,82.1c-3.9,0-7.6,0.5-10.4,3.3c-3.7,3.7-5.1,8.1-3.1,13c2.2,5.5,6.6,7.9,12.5,7.9c29.9-0.1,59.8,0,89.6,0
	c18,0,17.8,0,17.8-17.9c0-4.8-1.2-6.4-6.2-6.3c-16.8,0.3-33.6,0.1-50.5,0.1C392.8,82.1,376.2,82.2,359.6,82.1z M152.2,306
	c0,17.7,0,17.5,18.1,17.6c4.9,0,6.3-1.3,6.2-6.2c-0.3-20.1-0.1-40.1-0.1-60.2c0-18.7,0-18.6-18.8-18.3c-4.3,0.1-5.5,1.2-5.4,5.5
	c0.3,12.3,0.1,24.6,0.1,36.9C152.2,289.5,152.2,297.8,152.2,306z M429.8,169.2c6.8,10.2,12.2,12,24.7,8.1
	c-9.7-14.6-19.5-29.1-29.1-43.7c-1.3-2-2.6-3.4-5.3-3.2c-4.9,0.2-9.9,0.1-16.2,0.1C413.2,144.3,421.5,156.7,429.8,169.2z"/>
<path style="fill:#52A3CC;" d="M335.8,347.8c-35.7,56.5-35.6,112.1-0.3,168c-2,1.3-4.3,0.7-6.3,0.7c-53.5,0-107.1,0-160.6,0.2
	c-5.8,0-7.2-0.7-6.3-7.2c1.6-10.9,3.9-17.2,17.3-19.7c28.3-5.3,46.9-33.2,45-62.1c-1.9-28.3-24.1-51.8-52.6-55.6
	c-28-3.8-55.8,13.7-64.8,40.7c-9.2,27.7,2.3,58.1,27.8,71.7c5.9,3.1,7.4,6.1,5.5,12.1c-1.4,4.5-2,9.3-2.6,14
	c-0.5,4.3-2.2,4.4-5.9,3.5c-37.7-9.1-65-45.1-63.8-84.6c1.2-39.6,31.2-74.2,69.8-80.4c4.2-0.7,8.5-1.3,12.7-1.3
	c60.3-0.1,120.6-0.1,181-0.1C332.7,347.6,333.9,347.7,335.8,347.8z M221.3,214.8c10,0,15.6-4.6,15.4-12.4
	c-0.2-7.5-5.6-11.7-15.3-11.7c-25.6,0-51.3,0-76.9,0c-12.8,0-16.3-3.7-16.3-16.7c0-9.8,0.1-19.6,0-29.4c-0.1-8.8-4.7-14.2-12.1-14.2
	c-7.4,0-12,5.4-12,14.3c-0.1,14.8-0.1,29.7,0,44.5c0.1,15.9,10,25.6,26.1,25.7c15.1,0.1,30.2,0,45.3,0
	C190.6,214.9,205.9,214.9,221.3,214.8z M490.1,432.1c0-20.1-16.5-36.4-36.5-36.2c-19.7,0.2-35.8,16.4-35.9,36.2
	c0,20,16.4,36.4,36.5,36.2C473.9,468.1,490.1,451.8,490.1,432.1z M172.3,396.8c-15.2-3.8-32,3.7-39.6,17.8c-8,14.8-5,32.8,7.4,44
	c1.6,1.5,3.3,3.9,5.6,3.1c2-0.7,1.6-3.4,1.9-5.4c1.5-8.4,3-16.8,4.6-25.2c1.5-7.9,7.5-12.4,14.3-11c7,1.4,10.8,7.7,9.4,15.5
	c-1.5,8.6-2.8,17.3-4.8,25.9c-1.3,5.7,0.7,5.9,5.2,4.5c13.9-4.5,24.1-18.7,24.2-33.9C200.6,415.2,189.3,401.1,172.3,396.8z
	 M330.3,322.3c6.2,1.1,12,0.8,17.7,1.2c6.9,0.5,12.2-1.5,17.7-6c13.3-10.9,28.4-18.9,45-23.4c6.9-1.9,8.2-5.1,6.1-11.8
	C387.9,295.7,359.1,309,330.3,322.3z"/>
</svg>
