<?xml version="1.0" encoding="utf-8"?>
<!-- Generator: Adobe Illustrator 24.0.0, SVG Export Plug-In . SVG Version: 6.00 Build 0)  -->
<svg version="1.0" id="Layer_1" xmlns="http://www.w3.org/2000/svg" xmlns:xlink="http://www.w3.org/1999/xlink" x="0px" y="0px"
	 viewBox="0 0 561 624.5" style="enable-background:new 0 0 561 624.5;" xml:space="preserve">
<path style="fill:#006699;" d="M532.3,500.7c0,12.7,0,25.5,0,38.2c-1.3,7.5-5.9,12.3-12.8,15c-3,1.2-4.2,3.1-4.2,6.2
	c0.1,3.5,0.1,6.9,0,10.4c-0.4,11.7-7.7,20.4-19.3,21.1c-13.6,0.8-27.3,1-40.9-0.2c-9-0.8-16.7-9.3-17.2-18.4
	c-0.3-4.4-0.1-8.7-0.1-13.1c-0.1-3.3-1.5-5-5-5c-2.2,0-4.4,0-6.6,0c-95.9,0-191.8,0-287.8,0c-15.7,0-14.2-1.6-14.1,14
	c0,6.3-1.2,11.9-5.8,16.5c-3.6,3.6-7.5,6.2-12.8,6.4c-13.6,0.5-27.3,0.9-40.9-0.2c-9.7-0.8-17.3-9.1-18-18.9c-0.3-4-0.2-8-0.1-12
	c0.1-3.3-1.1-5.3-4.3-6.7c-9.2-3.9-13.8-10.7-13.2-21c0.5-10.5-0.4-21.1,0.4-31.6c1.1-13.9,8.4-24.1,19.1-32.2c2.6-2,5.3-4,8.2-5.4
	c6.9-3.3,8.6-8.6,8.5-15.9c-0.4-31.3-0.2-62.6-0.2-93.9c0-20.8,0-41.5,0-62.3c0-13.2,5.2-23.4,16.5-30.7
	c17.3-11.2,34.2-22.9,51.4-34.1c4.6-3,7.1-6.6,6.4-12.1c-0.1-0.5-0.1-1.1,0-1.6c1-7.1-1-11.4-8.6-14.3
	c-12.6-4.7-18.7-14.8-18.7-28.6c0.1-36.2,0.1-72.5,0-108.7c0-9.5,3.9-16.8,10.6-23c4.5-4.2,9.8-6.1,15.9-5.9c94.7,0,189.5,0,284.2,0
	c14.3,0.4,26.6,12.1,26.7,26.3c0.3,38,0.3,76.1,0,114.1c-0.1,13.3-8.2,21.7-20.1,26.7c-7.1,3-6.6,3-7.2,10.7
	c-0.8,8.6,2.2,14,9.8,18.6c16.6,10.2,32.4,21.6,48.7,32.2c10.9,7.1,15.9,17.1,15.9,29.8c0,52.8,0.1,105.6-0.1,158.4
	c0,6.1,1.7,10.2,7.1,13.4c6.8,4.1,13.5,8.4,18.8,14.8C528.2,484.4,531.1,492.1,532.3,500.7z"/>
<path style="fill:#6F6F6F;" d="M424.2,32c0,0.3,0.1,0.6,0.2,0.9c-3.1,0.1-6.2,0.2-9.3,0.2c-91.7,0-183.4,0-275.1,0
	c-0.7,0-1.4-0.1-2.2-0.2c0.1-0.3,0.1-0.6,0.2-0.9C233.4,32,328.8,32,424.2,32z"/>
<path style="fill:#FEFEFE;" d="M197.2,302.1c0-32.2,0.1-64.4-0.1-96.7c0-4.2,0.9-5.4,5.3-5.4c52.2,0.2,104.5,0.2,156.7,0
	c5,0,5.9,1.5,5.8,6.1c-0.2,64.4-0.2,128.9,0,193.3c0,4.3-1,5.4-5.3,5.4c-52.4-0.2-104.8-0.2-157.3,0c-4.5,0-5.3-1.4-5.3-5.5
	C197.3,366.9,197.2,334.5,197.2,302.1z"/>
<path style="fill:#FEFEFE;" d="M85.6,446.2c0-6.1,0-11.3,0-16.5c0-46.6,0.1-93.2-0.1-139.7c0-5.4,1.8-8.8,6.3-11.6
	c15.4-10,30.6-20.3,45.9-30.4c1-0.7,1.8-1.8,3.8-1.5c0,1.7,0,3.4,0,5.2c0,50.9,0,101.9,0.1,152.8c0,3.6-1.2,5.5-4.1,7.4
	C120.4,423,103.5,434.4,85.6,446.2z"/>
<path style="fill:#FEFEFE;" d="M420.8,245.4c18.1,12.1,35.2,23.5,52.4,35c2.9,1.9,3.4,4.9,3.4,8.2c0,52.2,0,104.5,0,157.4
	c-3.2-2-6.1-3.6-8.9-5.5c-14.5-9.7-29-19.4-43.5-29c-2.1-1.4-3.5-2.6-3.5-5.5C420.8,352.8,420.8,299.7,420.8,245.4z"/>
<path style="fill:#64C4F4;" d="M137.8,180.7c-4.8-1-5.5-4.7-5.5-8.7c0-14.5,0-29,0-43.6c0-22.5,0-45,0-67.5c0-4.7,0.8-8.8,6.6-9.4
	c1.9-0.8,4-0.4,5.9-0.4c86.4,0,172.8,0,259.2,0c7.3,0,8.7,1.1,8.7,8.4c-0.1,7.4,1.4,14.9-1.1,22.2c-2.5,2-3.7-0.4-4.7-1.8
	c-4.9-6.3-11.1-8.9-19-8.2c-4,0.4-8,0.4-12,0c-10.3-1-18.7,8.3-19,18.2c-0.1,4.9-0.1,9.8,0,14.7c0.2,10.6,8,19,18.7,19.7
	c5.1,0.4,10.2,0.2,15.2,0c6.4-0.3,11.4-3,15.4-8c1.3-1.6,2-4.7,5.3-3.1c1.5,2.3,1.3,4.9,1.3,7.4c0,16.7,0,33.5,0,50.2
	c0,1.8,0,3.6-0.4,5.4c-0.6,3-2,5.1-5.5,4.7c-1.1-0.1-2.2,0-3.3,0c-86.6,0-173.3,0-259.9,0C141.8,181.1,139.8,181.4,137.8,180.7z
	 M495,506.7c-2.1-7.9-3.7-8.8-11.9-8.8c-142.2,0-284.4,0-426.6,0c-2,0-4-0.4-5.9,0.5c-1.8,2.7-2.1,5.7-2.1,8.8
	c-0.1,7.8,0.1,15.7-0.1,23.5c-0.1,3.4,1,4.3,4.3,4.2c23.8-0.1,47.6,0,71.5,0c90.6,0,181.2,0,271.7,0c33.1,0,66.2-0.3,99.3-0.5
	C498.6,525.2,497.4,515.9,495,506.7z M406,436.3c-4.1-3-8.7-5.3-12.7-8.5c-3.9-3-8.2-4.2-13.2-4.2c-73.9,0.1-147.7,0.1-221.6,0.1
	c-1.8,0-3.6-0.3-5.4,0.4c-8.6,5.6-17.1,11.1-25.7,16.7c0.1,0.4,0.3,0.8,0.4,1.1c1.7,0,3.5,0,5.2,0c61.2,0,122.5,0,183.7,0
	c31.1,0,62.1-0.1,93.2-0.2C410.2,438.7,407.8,437.6,406,436.3z"/>
<path style="fill:#52A3CC;" d="M72.2,479c-0.2-0.4-0.3-0.8-0.5-1.1c8.6-5.5,17.1-11.1,25.7-16.6c0,0,0,0,0,0
	c1.7-1.6,3.8-0.9,5.7-0.9c118.7,0,237.3,0,356,0c3.4,0,6.3,0.8,9.1,2.8c7.2,5,14.6,9.9,23.3,15.7c-9.8,0-17.9,0-25.9,0
	c-39.7,0.1-79.3,0.2-119,0.2c-89.7,0-179.4,0-269.2,0C75.7,479,74,479,72.2,479z M178.6,212.9c0-12.8,0-12.6-12.7-12.9
	c-4.8-0.1-6,1.3-6,6.1c0.2,61.9,0.1,123.7,0.1,185.6c0,13.1,0,12.9,13,13.1c4.6,0.1,5.7-1.3,5.7-5.8c-0.2-32.2-0.1-64.4-0.1-96.6
	C178.6,272.5,178.6,242.7,178.6,212.9z M402.2,212.4c0-12.3,0-12-12.1-12.4c-5.2-0.2-6.7,1.2-6.6,6.5c0.2,61.9,0.1,123.7,0.1,185.6
	c0,12.6,0,12.4,12.9,12.6c4.5,0.1,5.8-1.1,5.8-5.7c-0.2-32-0.1-64-0.1-96.1C402.2,272.8,402.2,242.6,402.2,212.4z M403.6,180.5
	c-48.9,0-97.9,0-146.8,0c-39.7,0-79.3,0.1-119,0.1c1.9,1.5,4.2,0.9,6.3,0.9c14.7,0,29.5-0.1,44.2-0.1c76.8,0,153.6,0,230.3,0
	c8.9,0,11.1-2.3,11.1-11.4c0-25.5,0-51,0-76.4c0-11.3,0-22.6,0-33.9c0-5.3-2.4-8.3-7.8-8.5c-5.4-0.3-10.9-0.5-16.4-0.5
	c-87,0-173.9,0-260.9,0c-2,0-4-0.5-5.8,0.7c1.4,0.1,2.9,0.2,4.3,0.2c51.1,0,102.2,0,153.3,0c36,0,72,0,108,0c2.5,0,5.9-0.5,6,3
	c0.3,9.2,1.5,18.4-0.6,27.5c-1.2,10.2-1.1,20.4,0.1,30.7c1.4,1.3,0.9,3.1,0.9,4.6c0,18.6,0,37.1,0,55.7
	C411,180.2,410.7,180.5,403.6,180.5z M513.3,503c-0.4-3.9-2-5.6-6.3-5.4c-7.1,0.4-14.2,0-21.3,0c-143.3,0-286.7,0-430,0
	c-1.7,0-3.7-0.8-5.1,0.9c1.6,0,3.3,0.1,4.9,0.1c142.4,0,284.7,0.1,427.1-0.1c6.4,0,8.9,2.3,10.8,7.9c3,9.3,1.4,18.8,1.8,28.2
	c5.1,0.1,10.2,0.3,15.3,0.4c1.7,0,3.4,0,3.3-2.4C513.5,522.6,514.2,512.8,513.3,503z M153.1,424.1c1.8,0,3.6,0.1,5.4,0.1
	c73.1,0,146.2,0,219.3,0c2.7,0,5.7-0.9,8,0.7c7.9,5.7,16.7,10.2,24.1,16.6c8.1,0,16.3,0,26,0c-8.9-5.9-16.3-10.8-23.6-15.8
	c-2.7-1.8-5.4-2.6-8.6-2.6c-81.6,0-163.2,0-244.9,0C156.9,423.2,154.8,422.4,153.1,424.1z"/>
<path style="fill:#006699;" d="M476.5,554.1c4.9,0,9.8,0.2,14.7-0.1c3.2-0.1,3.9,1.1,4,4.1c0.4,14.4,0.5,14.4-14,14.4
	c-6.4,0-12.7-0.1-19.1,0c-2.9,0.1-4.1-0.7-4.2-3.9c-0.5-14.5-0.7-14.5,13.7-14.5C473.2,554.1,474.9,554.1,476.5,554.1z M85.8,572.4
	c1.5,0,2.9,0,4.4,0c14.8,0,14.8,0,14.1-14.7c-0.1-2.8-1-3.8-3.8-3.7c-6.7,0.2-13.4,0.1-20.2,0c-13.7,0-13.7,0-13.3,13.7
	c0,0.4,0,0.7,0,1.1c-0.4,2.7,1.2,3.5,3.5,3.5C75.6,572.4,80.7,572.4,85.8,572.4C85.8,572.4,85.8,572.4,85.8,572.4z"/>
<path style="fill:#006699;" d="M207,69.8c11.6,0,23.3-0.1,34.9,0c12,0.1,20.5,8.6,20.5,20.7c0,17.3,0,34.6,0,51.8
	c0,11.5-8.8,20.5-20.2,20.6c-23.6,0.1-47.3,0.1-70.9,0c-11.7,0-20.4-8.7-20.4-20.2c-0.1-17.6-0.1-35.3,0-52.9
	c0-11.1,8.5-19.7,19.6-19.9C182.7,69.7,194.9,69.8,207,69.8z M388.4,69.7c-4.2,0.3-8.4,0-12.6,0.1c-11.7,0.2-20.3,8.7-20.4,20.3
	c0,4.9,0,9.8,0,14.7c0.1,11.9,8.8,20.7,20.6,20.8c4,0,8-0.2,12,0.1c10.3,0.7,17.4-3.8,22.1-12.8c1.7-10.2,1.7-20.4-0.1-30.7
	C405.5,73.5,398.5,69,388.4,69.7z M336.8,97.5c0-2-0.2-4,0-6c1.6-11.4-9.7-23.1-21.6-21.8c-4.5,0.5-9.1,0-13.6,0.1
	c-12,0.1-20.6,8.7-20.6,20.6c0,4.9,0,9.8,0,14.7c0.1,11.5,8.7,20.3,20.2,20.5c5.5,0.1,10.9,0.2,16.4,0c9-0.3,18-8.1,19-16.6
	c0.4-3.8,0.1-7.6,0.1-11.4C336.8,97.5,336.8,97.5,336.8,97.5z M291.1,144.3c-6,0.1-10,3.8-10,9.1c0,5.3,3.9,9.4,9.9,9.4
	c12.2,0.2,24.3,0.2,36.5,0c5.9-0.1,9.6-4.4,9.4-9.8c-0.2-5.2-3.9-8.6-9.8-8.7c-6-0.1-12,0-18,0S297.1,144.2,291.1,144.3z"/>
<path style="fill:#FDFDFD;" d="M206.9,83.4c12.9,0,25.7,0.1,38.6-0.1c3.8-0.1,5.1,0.8,5.1,4.9c-0.2,18.7-0.2,37.3,0,56
	c0,3.8-0.8,5.2-4.9,5.2c-25.9-0.2-51.9-0.2-77.8,0c-3.9,0-5.1-1-5.1-5c0.2-18.7,0.2-37.3,0-56c0-3.9,0.9-5.1,4.9-5
	C180.8,83.6,193.9,83.4,206.9,83.4z"/>
<path style="fill:#FBFBFB;" d="M384.1,83.3c13.6,0.1,13.6,0.1,13.6,13.5c0,15.3,0,15.3-15.4,15.3c-13.3,0-13.3,0-13.3-13.2
	c0-0.3,0-0.6,0-0.8C368.9,83.3,368.9,83.3,384.1,83.3z"/>
<path style="fill:#E61E62;" d="M308.9,83.3c14.5,0,14.5,0,14.5,14.6c0,14.3,0,14.3-14.7,14.3c-14.1,0-14.1,0-14.1-14.1
	C294.5,83.3,294.5,83.3,308.9,83.3z"/>
</svg>
