<?xml version="1.0" encoding="utf-8"?>
<!-- Generator: Adobe Illustrator 24.0.0, SVG Export Plug-In . SVG Version: 6.00 Build 0)  -->
<svg version="1.0" id="Layer_1" xmlns="http://www.w3.org/2000/svg" xmlns:xlink="http://www.w3.org/1999/xlink" x="0px" y="0px"
	 viewBox="0 0 566 566" style="enable-background:new 0 0 566 566;" xml:space="preserve">
<path style="fill:#006699;" d="M549.9,119.1c-3.3,7.6-8,14-16.8,15.2c-6,0.8-12.1,0.5-18.2,0.4c-2.6,0-3.8,0.7-4.9,3.3
	c-3.5,8.6-10.2,12.9-19.4,13.1c-7.1,0.2-14.2,0.2-21.3,0c-11.9-0.4-20.4-9.1-20.4-21.1c-0.1-9.9-0.2-19.8,0.1-29.6
	c0.1-3.3-0.8-4.8-4.3-4.3c-1.5,0.2-3.1,0.2-4.7,0c-2.8-0.3-3.3,0.6-2.9,3.5c1,6.9-0.7,13.5-4.3,19.4
	c-25.1,41.7-50.2,83.3-75.6,124.8c-2.1,3.5-2.9,6.6-2.9,10.5c0.1,30.5,0.2,61,0,91.6c0,10.1,3.8,19.3,6.4,28.7
	c12.1,44.9,24.6,89.7,36.9,134.6c5,18.1-2.9,33.3-20.4,39.8c-0.5,0.2-0.8,0.6-1.2,0.9c-5.2,0-10.4,0-15.6,0
	c-12.3-2.3-19.6-9.9-23.4-21.5c-12.2-36.9-24.5-73.6-36.8-110.5c-1.8-5.4-3.9-10.8-5.7-16.2c-2.1-6.1-5.9-9.1-11.3-9
	c-5.2,0.1-8.7,3-10.9,8.9c-6.6,17.7-12.3,35.7-18.4,53.6c-8.7,25-17,50.2-25.9,75.2c-3.5,9.9-13.8,19.9-24.7,19
	c-3.6-0.2-7.2,0.4-10.7-0.3c-17.6-3.2-28.6-20.2-23.8-37.8c14-51.6,28.2-103.1,42.3-154.6c0.9-3.4,1.4-6.7,1.4-10.2
	c0-31.7,0-63.5,0.1-95.2c0-1.5-0.1-2.9-1-4.4c-26-42.7-52-85.5-77.9-128.3c-3.6-5.9-5.1-12.5-3.9-19.5c0.4-2.5-0.2-2.8-2.5-3
	c-9.4-0.6-9.4-0.6-9.4,8.5c0,8.5,0,17,0,25.5c-0.1,12-8.5,20.7-20.5,21.1c-7.3,0.2-14.6,0.3-21.8,0c-8.9-0.4-15.5-4.7-18.8-13.1
	c-1-2.6-2.2-3.4-4.8-3.3c-4.8,0.2-9.7,0.1-14.6,0c-11.3-0.2-20.2-8.9-20.3-20.1c-0.2-20.5-0.1-40.9,0-61.4
	c0.1-11,8.6-19.6,19.7-20.3c2.2-0.1,4.5-0.1,6.8,0c6.7,0.3,12.7,1.1,16-7.6c2.1-5.7,8.4-8.3,15.1-8.2c7.8,0.2,15.6,0,23.4,0.1
	c11.1,0,19.7,8.3,19.9,19.6c0.2,10.2,0.2,20.5,0,30.7c-0.1,3.5,1,4.3,4.4,4.3c107.5-0.1,215-0.1,322.6,0c3.1,0,4.2-0.7,4.1-4
	c-0.2-10.1,0.2-20.1-0.2-30.2c-0.4-10,9-21.6,20.8-20.5c7,0.7,14.2,0.4,21.3,0.1c9.4-0.4,15.5,4.3,19,12.4c1.2,2.8,2.6,3.6,5.3,3.4
	c2.4-0.2,4.9,0.1,7.3-0.1c12.7-1.2,22.2,3.3,27.3,15.5C549.9,71.9,549.9,95.5,549.9,119.1z"/>
<path style="fill:#757799;" d="M204.5,548.9c-0.2,0.3-0.2,0.6-0.1,1c-3.8,0-7.6,0-11.4,0c-0.1-0.3-0.2-0.5-0.2-0.8
	C196.7,549,200.6,548.9,204.5,548.9z"/>
<path style="fill:#FEFEFE;" d="M373.5,96.4c-2.7,4.5-5.1,8.4-7.5,12.3c-15.6,25.7-31.3,51.4-46.8,77.2c-1.9,3.2-3.3,4-7.1,2.3
	c-19.1-8.4-38.3-8.2-57.3,0.3c-2.2,1-3.9,2.4-5.9-0.9c-18-30-36.2-59.8-54.4-89.7c-0.2-0.4-0.2-0.9-0.4-1.6
	C253.8,96.4,313.3,96.4,373.5,96.4z"/>
<path style="fill:#64C4F4;" d="M332.1,298.8c0,5.6,0.3,11.2-0.1,16.7c-1.9,25.9,2.6,50.8,9.9,75.6c12.6,43,23.9,86.4,35.7,129.6
	c1.7,6.2,0.4,10-3.9,11.2c-5,1.3-8.2-0.8-10.2-6.9c-14-43.4-28.6-86.5-43.3-129.6c-6-17.4-17.8-27.5-35.9-28
	c-15.1-0.5-30.5,7.9-36.6,25.6c-15.1,43.6-30,87.2-45,130.8c-0.2,0.7-0.4,1.4-0.7,2c-1.8,4.9-5,7.1-8.7,5.7
	c-4.5-1.7-5.5-5.2-4.3-9.6c3-10.7,6-21.3,8.9-32c12.2-44.4,24.3-88.9,36.5-133.3c0.6-2.2,0.6-4.3,0.6-6.4c0-33.4,0-66.9,0-100.3
	c0-22.9,16-42.9,38.4-48.3c25.3-6.1,52.1,10.9,57.7,36.5c0.8,3.5,1.1,7,1.1,10.7C332.1,265.3,332.1,282,332.1,298.8z M229.3,209
	c2-2.5,2.1-4.4,0.3-7.3c-8.5-13.4-16.7-27.1-25-40.7c-12.2-20.1-24.4-40.2-36.6-60.3c-1.3-2.2-2.6-4.5-5.7-4.6
	c-2.9-0.1-5.6,0-7.4,2.8c-2.1,3.4-1.1,6.5,0.9,9.6c17.8,29.4,35.6,58.9,53.4,88.3c4.3,7.1,8.7,14,13.2,21.4
	C224.9,214.8,227,211.8,229.3,209z M398.7,101.3c-19,31.3-37.8,62.7-57.2,93.7c-4.5,7.1-6.5,12.2,0.4,18.8c2.9,2.8,3.5,3.8,5.9-0.2
	C360,193,372.6,172.6,385,152c9-14.9,18-29.9,26.8-44.9c3.3-5.6,0.4-10.9-6.1-11C402.1,95.5,400.4,98.5,398.7,101.3z"/>
<path style="fill:#52A3CC;" d="M102.1,84.3c0,15.8-0.2,31.7,0.1,47.5c0.1,4.6-1.2,6.6-9.3,6.5c-19.1-0.2-19.1,0.1-19.1-12.4
	c0-29.7,0.1-59.4-0.2-89.1c0-4.8,1.2-6.8,9.8-6.7c18.7,0.4,18.7,0,18.7,11.9C102.1,56.1,102.1,70.2,102.1,84.3z M495,41.7
	c0-11.6,0-11.3-20-11.7c-9.6-0.2-11.7,1.6-11.6,6.9c0.4,29.7,0.2,59.4,0.2,89.1c0,12.1,0,11.8,20.6,12.1c9.4,0.2,11.1-1.9,10.9-6.7
	c-0.5-15.8-0.2-31.7-0.2-47.5C495.1,69.9,495.1,55.8,495,41.7z"/>
<path style="fill:#FFFFFF;" d="M28.1,83.7c0-10.9,0.4-21.8-0.2-32.6c-0.3-5.5,2.6-6.8,10.1-6.8c20.8,0.1,20.9-0.1,20.9,14.3
	c0,19.5-0.2,38.9,0.2,58.4c0.1,5.1-2.2,6.3-9.3,6.3c-21.7-0.1-21.6,0.2-21.6-14.6C28.1,100.4,28.1,92,28.1,83.7z M539.5,58.6
	c0-14.4,0-14.2-21.4-14.3c-7.8-0.1-10.3,1.3-10.2,6.7c0.5,19.2,0.2,38.4,0.2,57.6c0,14.8,0,14.5,21.8,14.7c8.3,0,10-2,9.8-7.1
	c-0.5-10.9-0.1-21.7-0.1-32.6C539.5,75.3,539.5,67,539.5,58.6z"/>
<path style="fill:#006699;" d="M283.7,180.7c-22.4,0.1-40.5-17.9-40.3-40.2c0.1-22.1,18.1-40,40.1-40c22.1-0.1,40.5,18.3,40.4,40.3
	C323.7,162.8,305.8,180.6,283.7,180.7z"/>
<path style="fill:#FFFFFF;" d="M309.8,141.2c-0.2,15-11.8,26.1-27.1,25.9c-14.5-0.2-25.6-11.9-25.4-26.7
	c0.2-14.5,12.1-26.4,26.2-26.3C298.1,114.1,309.9,126.3,309.8,141.2z"/>
</svg>
