<?xml version="1.0" encoding="utf-8"?>
<!-- Generator: Adobe Illustrator 24.0.0, SVG Export Plug-In . SVG Version: 6.00 Build 0)  -->
<svg version="1.0" id="Layer_1" xmlns="http://www.w3.org/2000/svg" xmlns:xlink="http://www.w3.org/1999/xlink" x="0px" y="0px"
	 viewBox="0 0 576 576" style="enable-background:new 0 0 576 576;" xml:space="preserve">
<path style="fill:#006699;" d="M93.8,467.9c-5.4,0-10.3,0.1-15.1,0c-9.9-0.2-17.8-7-19.8-16.7c-1.8-9,3.3-19.1,12.4-22.2
	c31.9-10.7,52.5-34,69.6-61.3c6.4-10.2,11.5-21,16-32.1c0.9-2.1,1.3-3.6-1-5.2c-2-1.4-3-3.8-2.9-6.4c0.5-19.3-1.4-38.6,1.1-57.8
	c4.3-33.3,33.9-62.8,67.2-67.1c4.2-0.5,8.4-1,13.2-1.6c-9-7.6-16.5-15.7-22.4-25.3c-7.8-12.7-12.2-26.4-13.6-41.2
	c-0.3-2.6-0.4-4.6-3.9-5.5c-4-1-5.7-4.6-5.6-8.8c0.7-49.6,35.6-90,83.1-97.3c51.1-7.8,96.4,21.9,110.6,71.2
	c3.4,11.6,3.8,23.6,4.1,35.6c0.1,4.6-2.3,8.1-7,8.8c-2.7,0.4-3.2,1.9-3.7,4c-6.9,28.1-12.7,37.8-34.8,58.7
	c6.9,0.4,13.3,1.1,19.5,2.6c36.1,8.7,61.9,41.4,62,78.5c0,14.2-0.1,28.5,0.1,42.7c0,4.9-1.1,9-6.1,10.8c-3.5,1.3-1.3,3.2-0.7,4.9
	c12,31.6,32.1,56.7,59.3,76.5c8.6,6.3,17.4,12,27.9,15c9.9,2.8,15.5,13,13.6,22.4c-2,10.2-10.2,16.8-20.8,16.9c-4.1,0-8.2,0-12.4,0
	c3.6,16.9,3.5,33.8,0.9,50.4c-3.4,22.1-23.6,39.3-46.1,39.4c-58.8,0.3-117.7,0.1-176.5,0.1c-4.1,0-7.9-1.2-9-5.2
	c-1.1-4-3.6-3.8-6.6-3.8c-10.1,0.1-20.2-0.1-30.4,0.1c-7.1,0.1-13.8-1.4-19.8-5.2c-2.4-1.5-4.3-1.4-6.8-0.6
	c-11.7,4-23.6,7.3-35.1,11.8c-15.8,6.1-29.3,1.2-42.1-7.7c-22.5-15.7-27.9-52.3-20.6-73.4C92.5,472.2,93,470.4,93.8,467.9z"/>
<path style="fill:#FFFFFF;" d="M287.4,413.9c-22.1,0-44.2-0.1-66.3,0.1c-4.2,0-5.2-1.1-5.2-5.2c0.2-44.4,0-88.8,0.2-133.2
	c0-4.7-1.2-5.9-5.8-5.7C198,270.2,198,270,198,282.5c0,9.4-0.1,18.7,0.1,28.1c0.1,3.3-0.5,4.6-4.2,4.5c-6.5-0.3-13.1-0.1-19.7-0.1
	c-1.4,0-3.3,0.5-3.2-2c0.8-16.6-2.1-33.4,2.1-49.8c7.7-30.3,37.2-50.5,68.3-47.3c3.5,0.4,3,2.8,3.6,4.6
	c6.3,19.2,23.7,31.7,43.8,31.5c18.6-0.2,36-12.5,41.5-30.5c1.6-5.4,4.3-5.6,8.7-5.5c32.1,0.1,57.3,19.2,64.3,48.9
	c2.8,12,1.3,24.3,1.5,36.4c0.1,4.4,2,10.2-0.8,12.9c-2.8,2.7-8.5,0.7-13,0.8C378,315,378,315,378,301.6c0-9.2-0.1-18.4,0.1-27.5
	c0.1-3.1-0.7-4.1-4-4.1c-14.1-0.2-14.1-0.3-14.1,13.6c0,41.8-0.1,83.6,0.1,125.3c0,4.2-1,5.3-5.2,5.2
	C332.4,413.8,309.9,413.9,287.4,413.9z"/>
<path d="M282.5,32.5c51,0.4,87.4,33.3,94.5,74.3c0.2,1.3,1.8,2.9,0.1,4c-1.9,1.1-3-0.8-4.3-1.8c-18.8-14.2-37.7-28.3-56.5-42.7
	c-4.4-3.3-8.3-4.1-13.4-2C269.9,78.3,237,92,204.1,105.6c-1.4,0.6-3.1,2.6-4.4,0.7c-0.8-1.1-0.8-3.3-0.4-4.9
	c6.3-22.7,19-40.8,38.5-53.9C253.1,37.3,270.2,32.6,282.5,32.5z"/>
<path style="fill:#FECC93;" d="M288.2,204.3c-36,0-68.2-26-77.3-62.6c-1.7-6.7-2.8-13.4-2.8-20.3c0-2.8,0.6-4.5,3.4-5.7
	c30.6-12.7,61.2-25.6,91.7-38.5c2.4-1,4.1-0.7,6.2,0.9c18.5,14.1,37,28.1,55.6,42.1c2.1,1.6,2.8,3.2,2.6,5.8
	C363.8,172.1,328.1,204.3,288.2,204.3z M493.8,444.3c-4.8-1.9-10-3-14.6-5.6c-4.4-3.2-8.7-6.5-13.1-9.6
	c-30.6-21.7-53-49.8-66.7-84.8c-1.5-3.7-2-9-4.7-10.8c-2.9-1.9-8-0.5-12.1-0.5c-0.4,0-0.8,0-1.1,0c-2.6-0.4-3.6,0.7-3.5,3.4
	c0.2,10.5,0.2,21,0.2,31.5c-1,4.9,0.8,8.8,3.8,12.8c13.3,17.9,26.1,36.1,46,47.7c20.3,11.8,41.3,21,65.2,21.5c2.1,0,5.3,1.2,5.8-1.7
	C499.5,444.8,495.8,445.1,493.8,444.3z M197.9,366.7c0.1-6.4,0.2-12.7,0.2-19.1c0-4.7,1.6-10.8-0.8-13.6c-2.8-3.2-9.1-0.6-13.9-1.1
	c-4.4-0.5-6.5,1.1-8.1,5.4c-9.5,24.8-22.5,47.6-40,67.8c-11.1,12.9-24.8,22.6-38.5,32.4c-4.3,2.8-9.4,3.6-14,5.6
	c-2.2,0.9-6.3,0.6-5.6,4c0.7,3.4,4.5,1.5,6.8,1.6c3,0.2,6,0.2,9-0.3c28.1-4.9,52.9-16.7,74.3-35.7c10.6-9.4,17.4-22,26.5-32.6
	C197.4,376.8,198.8,372.2,197.9,366.7C197.9,366.7,197.9,366.7,197.9,366.7z M323.1,218.7c0.5-1.4,1.3-3.5,0.7-4.4
	c-1.1-1.8-3.3-0.7-5-0.2c-20.5,5.6-41.1,5.6-61.6,0c-1.7-0.5-4-1.6-5,0.2c-0.6,1.2,0.3,3.5,0.9,5.1c5.2,14.2,19.6,23.9,35.2,23.8
	C303.7,243.2,318.4,232.8,323.1,218.7z"/>
<path style="fill:#65CBFF;" d="M112.4,518.6c-8.2-15.8-8.4-41.5,5.8-53.6c3.9-3.4,8.4-5.6,13.2-7.2c24.6-8.3,49.3-16.5,73.9-24.7
	c2.5-0.8,5-1.2,7.7-1.2c50,0,100,0,150,0c3.1,0,5.9,0.5,8.8,1.5c24.5,8.2,48.9,16.3,73.4,24.5c3,1,5.9,2.3,8.8,3.6
	c9.3,4.2,14.2,11.2,14,21.5c-0.1,9.4-0.1,18.7-0.1,28.1c0,3.1-0.9,5.9-2.3,8.6c-7.3,9.8-17.8,12.7-29.1,12.9
	c-16.8,0.3-33.7,0.1-50.5,0.1c-35.6,0-71.1,0-106.7,0c-3.1,0-6.4,0.6-9.1-1.8c0-7.9,0.2-15.7-0.2-23.6c-0.2-3.8,1.7-5,4.8-5.4
	c14-2,28-3.9,42-5.9c19.5-2.8,39.1-5.5,58.6-8.3c0.6-0.1,1.1-0.4,1.6-0.4c3.7-0.4,9.2,0.5,10.4-2.4c1.7-4.4-0.6-9.8-1.5-14.7
	c-0.4-2.1-1.6-2-3.3-1.7c-26.7,3.9-53.4,7.8-80.1,11.7c-13.8,2-27.7,4-41.5,5.8c-3.6,0.5-6.8,1.7-7.9,5.2c-1.1,3.4-3.1,3.9-6.3,3.9
	c-13.7-0.1-27.3-0.1-41-0.1c-15.7,0-25.1,8.9-25.9,24.7c-1.5,1.8-3.7,2.4-5.9,3.1c-6,2-12.2,3.6-18,6.1
	C138.9,536,124.8,531.1,112.4,518.6z M274.3,539.9c54.6,0,109.2,0.1,163.8-0.1c12.3,0,24.1-9.1,27.5-20.2
	c-8.2,6-16.8,11.2-27.4,11.2c-56,0-112,0-168.1,0C271.3,534,266.5,539.9,274.3,539.9z M123.5,533c7.6,5.4,15.7,9,25.6,4.8
	c8-3.4,16.5-5.9,25-8.3c5.6-1.6,8.6-3.8,5.8-9.9c-9.1,1.9-17.9,5-26.5,8.5c-13.2,5.4-24.3,1.5-35.1-5.7c-2-1.3-3-4-5.9-3.8
	C113.9,525.1,118.5,529.5,123.5,533z"/>
<path style="fill:#E5B884;" d="M251.8,520.8c0.5,10.2,0.5,10.2-9.5,10.1c-9.2,0-18.3,0-27.5,0c-6.5,0-11.5-2.8-15.1-8.1
	c-1.3-2-2.9-4.1-0.8-6.6c0.5-0.2,1.1-0.5,1.6-0.3c13.9,5.5,28.4,2.3,42.7,3.2C246.2,519.2,249.3,518.5,251.8,520.8z"/>
<path style="fill:#FDCC93;" d="M251.8,520.8c-11,0-22.1-0.2-33.1,0.1c-7.1,0.2-13.7-0.9-19.8-4.7c1.1-3.6,4.1-3.3,6.9-3.3
	c12.9,0,25.8,0,38.7,0C252.2,512.9,252.2,512.9,251.8,520.8z"/>
<path style="fill:#F2F2F2;" d="M187.3,419.4c3.6-4.8,6.7-8.9,10-13.3C199.1,417.1,198.3,418.1,187.3,419.4z"/>
<path style="fill:#F3F3F3;" d="M378.1,405.4c3.9,5.1,7,9.3,10.2,13.5C378.6,418.6,377.7,417.6,378.1,405.4z"/>
<path d="M288.2,184.5c-5.8,0-11.6,0.1-17.4,0c-6-0.1-9.9-3.9-9.8-9.2c0.1-5.1,3.9-8.7,9.7-8.8c11.6-0.1,23.2-0.1,34.8,0
	c5.7,0.1,9.5,3.8,9.5,8.9c0,5.1-3.8,8.9-9.4,9C299.8,184.7,294,184.5,288.2,184.5z"/>
<path d="M256.5,139.6c-10.7,0-19.9-7.5-22-18c-0.3-1.5-2-4.3,1.3-4.3c2.4,0,6.2-2.4,7.4,2.1c1,3.8,2.9,6.9,6.2,9
	c7.5,4.8,17.4,1.5,19.8-7.4c1.5-5.4,5.1-4.4,8-3.7c3.9,1,1.3,4.3,0.7,6.3C275.2,133.1,266.4,139.5,256.5,139.6z"/>
<path d="M319.2,139.6c-10.3-0.1-19-7-21.5-17.2c-0.4-1.7-2.2-4.6,0.8-5c2.6-0.3,6.7-2.7,7.9,2.8c1.2,5.6,5.2,9.1,10.8,10.2
	c5.2,1,9.7-0.9,12.9-5.1c1.2-1.6,2.2-3.6,2.6-5.5c0.4-2.1,1.3-2.6,3.3-2.7c6.4-0.3,6.9,0.2,5.1,6.4
	C338.2,133.1,329.4,139.6,319.2,139.6z"/>
</svg>
