<?xml version="1.0" encoding="utf-8"?>
<!-- Generator: Adobe Illustrator 23.0.3, SVG Export Plug-In . SVG Version: 6.00 Build 0)  -->
<svg version="1.0" id="Layer_1" xmlns="http://www.w3.org/2000/svg" xmlns:xlink="http://www.w3.org/1999/xlink" x="0px" y="0px"
	 viewBox="0 0 612 792" style="enable-background:new 0 0 612 792;" xml:space="preserve">
<path style="fill:#FCC1DE;" d="M484.8,209.2c49.4,2.1,85.8,32.3,95.2,79.1c2.5,12.6,1.5,25.4,1.7,38.1c0.3,28.7,0,57.5-0.1,86.3
	c-0.1,20.7,0.4,41.5-0.8,62.2c-4,68.1-31,126-79.1,174.1c-39.8,39.8-87.8,65.5-143.3,74.7c-81.4,13.5-154.9-5.9-218.5-58.9
	c-50-41.7-81-95.1-93.1-159.2c-2.3-12.5-4.1-25.1-4.1-37.9c-0.2-54-0.5-107.9-0.1-161.9c0.3-45.9,30.1-82.8,74.5-93.7
	c4.8-1.2,9.8-2.4,14.7-2.3c5.9,0.1,7.3-2,7.2-7.7c-0.3-35.4-0.2-70.8-0.1-106.3c0-3.2-1-6.7,1.2-9.6c3.9,3.4,2.9,8.1,3,12.4
	c0.1,32.1,0,64.1,0.1,96.2c0,11.3,0.4,11.6,11.5,11.9c3.9,0.1,7.8,0,11.1,2.6c11.9,0,23.8,0.4,35.7-0.1c6.5-0.3,8.7,1.4,8.3,8.2
	c-1.2,21.5,3,41.8,14.4,60.4c21.6,35,63.3,55.2,100.9,49.1c44-7.2,77.6-38,87.1-80.3c2.1-9.5,3.2-19.2,2.3-28.8
	c-0.7-7.2,2-8.9,8.8-8.5c9.1,0.6,18.3-0.2,27.4,0.3c5.9,0.3,7.4-1.7,7.3-7.4c-0.3-35.2-0.2-70.3-0.1-105.5c0-3.5-1.1-7.2,1.3-10.5
	c3.9,3.4,3,8.1,3,12.4c0.1,32.1,0,64.1,0.1,96.2c0,11.3,0.4,11.6,11.5,11.9C477.6,206.8,481.5,206.6,484.8,209.2z"/>
<path style="fill:#D770AD;" d="M163.9,209.2c-6.1,0-12.1-0.3-18.2,0.2c-6.1,0.5-7.3-2.1-7.3-7.7c0.1-38.6-0.1-77.1-0.2-115.7
	c2.1-7.8,7.8-10.7,15.1-9.3c7.1,1.4,10.5,6.4,10.5,13.8C163.7,130.2,163.8,169.7,163.9,209.2z M482.7,90.7c0-7.3-3.3-12.6-10.4-13.9
	c-7.3-1.4-13,1.5-15.1,9.3c0.1,38.3,0.3,76.5,0.2,114.8c0,6.2,1.2,9.2,8.1,8.5c5.7-0.6,11.6-0.2,17.3-0.2
	C482.8,169.7,482.7,130.2,482.7,90.7z"/>
<path style="fill:#D770AD;" d="M560.9,386.8c0,24.1,0.2,48.2,0,72.2c-0.4,57.8-18.7,109.6-54.8,154.3c-40.5,50.1-93,81.2-157.2,91.2
	c-57.8,9-111.7-1.8-162.2-31c-43.8-25.3-76.8-61-99.2-106c-15.8-31.6-23.8-65.2-25.3-100.9c-1.8-41.6-0.4-83.2-1.1-124.8
	c-0.3-18.7-0.9-37.6,3.3-55.9c6.5-28.7,33.1-51.2,62.5-55.3c18.5-2.6,37-0.7,55.4-1.5c4.5-0.2,6.3,1.8,6.6,6.4
	c3.7,55.7,45.5,101.3,101.5,111.1c34.9,6.1,67.1-2.6,95.5-24.5c13.8-10.6,23.5-24.3,33-38.7c10-15.2,13.2-31.8,15.7-48.9
	c0.6-3.7,1.5-5.5,5.5-5.3c18.7,0.8,37.5-1.3,56.3,1.5c31.1,4.6,57.7,29.9,63.1,60.8c3.3,19,1,38.1,1.5,57.1
	C561.2,361.3,560.9,374.1,560.9,386.8z"/>
<path style="fill:#FCC1DE;" d="M75.8,387.3c0-27.7,0-55.4,0-83.1c0-33.1,28.8-61.7,62.1-61.7c11.1,0,22.2,0.1,33.2-0.1
	c4.6-0.1,7,0.5,8.2,6.3c5.6,28.2,17.4,53.5,38.7,73.5c31.8,29.8,69.1,42.2,113,37c55.9-6.6,105.1-55,113.9-109.4
	c0.8-4.9,2.8-7.8,8.7-7.4c15.7,1.2,31.6-2,47.1,1.8c25.5,6.1,43.6,27,47.3,52.6c1.2,8,1.4,15.9,1.4,23.9c0,45.1,0.4,90.3-0.1,135.4
	c-0.5,51.6-14.3,99.3-45.3,140.9c-38.3,51.5-88.9,83.8-152.9,94.2c-60.4,9.8-116.8-1-167.6-34.7C126.4,618.8,90.7,566.2,79,498.2
	c-2-11.7-3.3-23.4-3.3-35.3C75.9,437.7,75.7,412.5,75.8,387.3z"/>
<path style="fill:#92DC7B;" d="M336.9,446.6c-16.7-8.1-33.4-7.8-50,0.2c2.2-9.4,5.2-18.6,10.3-26.8c8.9-14.3,20.6-14.3,29.5-0.2
	C331.9,428,335.2,437,336.9,446.6z M290.2,550.8c4.4,10.3,7.5,21.7,19.8,25.9c3.2,2.1,5.9,1.6,8.2-1.5c11.8-8.8,15.3-22,18.6-35.3
	c-16.6,6.6-33.3,7.1-49.9-0.2C288,543.4,288.7,547.3,290.2,550.8z M382.8,463.3c4.8-12.4-0.7-20.6-13.9-21.5
	c-10.6-0.7-20.8,1.4-30.6,5.1c14,10.6,24.1,23.7,26.6,41.6C373,481.6,379,473.1,382.8,463.3z M253.9,444
	c-14.4,1.8-19.3,11.1-13,24.1c4.5,9.3,11.1,17,18.9,23.7c0.4-18.6,9.7-32.4,23.9-43.5C274.1,444.6,264.1,442.7,253.9,444z
	 M241.1,523.2c-3.9,11.2,0.4,18.3,12.1,20.4c11.2,1.9,21.8-1,32.2-5c-13.9-10.8-24.9-23.5-25.6-42.3
	C251.6,503.9,244.8,512.5,241.1,523.2z M370.2,541.6c13.5-1.2,19.2-10.2,13.8-22.4c-4.3-9.7-10.8-17.9-19.1-24.6
	c-2.1,18-9.8,32.7-24.9,43.2C349.9,540.4,359.9,542.5,370.2,541.6z"/>
<path style="fill:#D770AD;" d="M310,576.7c2.7-0.5,5.5-1,8.2-1.5c-1.4,25.5-5.2,50.5-16.3,73.8c-1.2,2.5-2.7,4.8-4,7.2
	c-1.3,2.5-2.7,4-5.7,1.9c-2.7-1.8-2.9-3.2-1.2-5.9C304.5,628.9,308.2,603.1,310,576.7z M345,492.4c-0.7-17.5-14.8-31.7-32.2-32.3
	c-14.4-0.5-33.4,13.6-33.2,33c0.2,17.4,15.9,33.8,31.7,31.9C329.7,527.7,345.7,508.5,345,492.4z"/>
</svg>
