<?xml version="1.0" encoding="utf-8"?>
<!-- Generator: Adobe Illustrator 23.0.3, SVG Export Plug-In . SVG Version: 6.00 Build 0)  -->
<svg version="1.0" id="Layer_1" xmlns="http://www.w3.org/2000/svg" xmlns:xlink="http://www.w3.org/1999/xlink" x="0px" y="0px"
	 viewBox="0 0 579.3 579.3" style="enable-background:new 0 0 579.3 579.3;" xml:space="preserve">
<path style="fill:#CAF4FC;" d="M215.8,564c-4.9,0-9.8,0.1-14.7,0.1c-8.4-0.1-13.5-4.6-13.4-13.2c0.3-18.5-5.4-35.1-13.5-51.5
	c-9.1-18.2-12-37.3-6.3-57.4c5-17.8,7.2-36,6.3-54.5c-0.8-15.2-4.2-30.1-7.1-45.1c-5.7-29.2-0.6-56.9,14.4-82.5
	c13.4-22.9,22.7-46.6,21-73.6c2-2.2,4.8-2.2,7.4-2.2c34.4-0.1,68.8-0.1,103.1,0c1.8,0,3.5,0.1,5.2,0.7c4.7,2.5,3.4,6.8,3,10.6
	c-1.2,10.6-2.3,21.2-2.3,31.9c0.1,26.6,7.4,50.6,24.9,70.8c23.6,27.3,36,59.3,38.9,94.7c5.6,67.8-24.7,127-89.8,154.8
	c-23.4,10-47.6,15.9-73.1,15.7C218.4,563.4,217,563.1,215.8,564z"/>
<path style="fill:#9FF5FF;" d="M215.8,564c9.1-1.3,18.2-2.5,27.3-3.9c40.3-6.5,76.2-21.9,103.7-53.2c16.5-18.7,26.7-40.7,31.2-65.1
	c8.6-45.9,0.9-89.1-24.9-128.4c-5.1-7.7-11.7-14.4-17-22c-12.8-18.3-18.5-38.9-19.1-61.2c-0.4-14.7,2.4-29.1,2.8-43.7
	c0.6-0.7,1.3-1.2,2.1-1.5c16.4-1.5,32.8-0.6,49.1-0.5c1.8,0,3.5,0.5,4.7,2.1c-1.2,26.2,6.8,49.5,20.3,71.7
	c15.8,26.2,21.2,54.8,14.9,85c-4.8,22.9-7.1,46-5.5,69.3c0.7,10.3,2.4,20.7,5.3,30.7c5.5,19.1,2.4,37.6-6.1,54.8
	c-8.5,17.2-14.3,34.7-14.1,54.1c0.1,7.4-5.6,11.9-13.9,11.9c-33.1,0-66.2,0-99.4,0C256.7,564.1,236.3,564,215.8,564z"/>
<path style="fill:#FFABCD;" d="M321.2,186c-0.4,0.1-0.9,0.3-1.3,0.4c-39.1,0-78.3,0-117.4-0.1c-3.4-1.5-8.1,2.4-10.6-2.7
	c1.2-14.2,0.5-28.4,0.4-42.6c0-5.1,1.5-6,6.4-6.3c36.4-2,72.9,0.1,109.2-1.4c16.9-0.7,33.7-1,50.6-1.3c3.3,0,6.7-0.3,9.6,2
	c4.9,0,9.8,0.2,14.6,0.1c2.8,0,4,1,4,3.9c-0.1,15.3-0.1,30.6-0.1,45.9c0,1-0.4,1.7-1.3,2c-2.4-2.6-1.9-5.8-2-8.9
	c-0.1-10.5,0-20.9-0.1-31.4c-0.1-7.5-0.6-8.1-7.9-8.2c-17.5-0.1-35.1,0-52.9,0C328.2,154.3,326.3,170.2,321.2,186z"/>
<path style="fill:#FFDE54;" d="M210.2,134.1c-0.2-14.2,14.3-31.9,30.5-32.3c6.7-0.2,14.7,1.2,20.5-5.5c5.8-6.6,7.5-17.6,2.8-25.1
	c-4.5-7.1-8.7-14.1-8.4-23.3c0.5-19.8,15-34.1,35-33.7c13,4,22,23.2,12.5,39.7c-5,8.5-8.6,17.5-10.5,27.2
	c-3.7,18.2,0.4,33.9,14.6,46.4c2,1.7,5.4,3.6,4.5,6.1c-1,2.9-4.7,1.3-7.1,1.3c-29.1,0.1-58.2,0.1-87.2,0
	C214.9,134.9,212.4,135.7,210.2,134.1z M197,134.1c-3.9-0.2-5.5,1.1-5.4,5.2c0.3,14.8,0.2,29.5,0.3,44.3c1.6-1.9,1-4.2,1-6.4
	c0.1-11.5,0.4-23.1-0.1-34.6c-0.3-6.1,1.9-7.4,7.6-7.3c54.5,0.5,109.1-0.1,163.6-1.1c1.3,0,2.7-0.1,4-0.2c-0.2-8.5-3.1-15.6-9.2-22
	c-8.3-8.8-18.5-11.3-30-11.3c-9.8,0.1-16.4-6.8-17-16.5c-0.4-6.8,1.8-12.3,5.6-17.9c7.4-11.1,7.7-23.2,1.6-34.6
	c-5.8-10.9-15.4-17.5-28.4-17.6c0.5,0.7,1,1.5,1.7,2c14.1,10.4,16.4,23.4,7.9,38.9c-9.3,16.9-14.5,34.6-8.2,54.2
	c3.4,10.5,11.1,17.1,19.8,24.8c-34.6,0-68.1,0-101.6,0C205.8,134.1,201.4,134.4,197,134.1z"/>
<path style="fill:#FFABCD;" d="M321.2,186c-0.4-10.2,3.1-20,2.8-30.3c-0.2-7-0.9-13.6-7-20.1c5.5,0,9.8,0,14.1,0
	c15.8,0,31.5,0.1,47.3-0.1c5-0.1,7.1,1,6.9,6.6c-0.4,14.6-0.2,29.3-0.2,44c-3.1,0.2-6.3,0.3-9.4,0.5
	C357.6,186.4,339.4,186.2,321.2,186z"/>
<path style="fill:#FFABCD;" d="M259.7,394.5c12.2,0,24.4,0,36.6,0c6.8,0,11.3,4,11.1,9.6c-0.2,5.4-4.5,9-11.1,9
	c-24.4,0.1-48.8,0.1-73.2,0c-6.8,0-11.3-4.1-11.1-9.7c0.2-5.4,4.5-9,11.1-9C235.3,394.5,247.5,394.5,259.7,394.5z M296.4,314.7
	c6.6,0,10.9-3.7,11-9c0.1-5.4-4.1-9.6-10.6-9.6c-24.7-0.1-49.4-0.1-74.1,0c-6.5,0-10.7,4.1-10.7,9.5c0.1,5.4,4.4,9,11,9.1
	c12.2,0.1,24.5,0,36.7,0C272,314.8,284.2,314.8,296.4,314.7z M223,493.1c-6.6,0.1-10.9,3.7-10.9,9.1c-0.1,5.4,4.1,9.5,10.7,9.5
	c24.7,0.1,49.4,0.1,74.1,0c6.5,0,10.7-4.2,10.6-9.6c-0.1-5.4-4.3-9-11-9c-12.2-0.1-24.5,0-36.7,0C247.5,493,235.2,493,223,493.1z
	 M246.2,247.1c-7.8,0-15.5-0.2-23.3,0.1c-6.8,0.2-10.8,3.9-10.8,9.2c0,5.4,4,9.1,10.8,9.2c15.1,0.3,30.2,0.3,45.3,0.2
	c6.9-0.1,10.6-3.6,10.6-9.4c0-5.8-3.6-9.2-10.5-9.4c-7.3-0.2-14.6-0.1-22-0.1C246.2,247,246.2,247.1,246.2,247.1z M268.4,363.9
	c6.5-0.1,10.1-3.3,10.3-8.8c0.2-5.8-3.6-9.7-10.2-9.8c-15.3-0.2-30.6-0.1-46,0c-6.3,0.1-10.6,4.3-10.5,9.6c0.1,5.2,4.3,8.9,10.3,9
	c7.8,0.1,15.5,0,23.3,0C253.3,364,260.8,364.1,268.4,363.9z M222.5,443.8c-6.1,0.1-10.2,3.7-10.5,8.9c-0.2,5.4,4.1,9.7,10.4,9.7
	c15.3,0.1,30.6,0.2,46,0c6.6-0.1,10.4-3.9,10.3-9.7c-0.1-5.5-3.7-8.8-10.2-8.9c-7.5-0.1-15.1,0-22.6,0
	C238.1,443.8,230.3,443.7,222.5,443.8z"/>
</svg>
