<?xml version="1.0" encoding="utf-8"?>
<!-- Generator: Adobe Illustrator 23.0.3, SVG Export Plug-In . SVG Version: 6.00 Build 0)  -->
<svg version="1.0" id="Layer_1" xmlns="http://www.w3.org/2000/svg" xmlns:xlink="http://www.w3.org/1999/xlink" x="0px" y="0px"
	 viewBox="0 0 595.4 595.4" style="enable-background:new 0 0 595.4 595.4;" xml:space="preserve">
<path style="fill:#FBA9CA;" d="M367.9,285.4c2.8,18.8,5.6,37.7,8.5,56.5c3.7,24.3,7.5,48.6,11.2,73c1,6.3,1.6,12.6,2.9,18.8
	c0.7,3.5-0.5,4-3.4,3.9c-4.8-0.1-9.6,0.1-14.5,0.1c-2.1,1.7-4.6,1.7-7.1,1.7c-13.9,0-27.7,0-41.6,0c-2.5,0-5,0-7.1-1.7
	c-12.3,0-24.6,0-36.9,0c-2.1,1.7-4.6,1.7-7.1,1.7c-13.9,0-27.7,0-41.6,0c-2.5,0-5,0-7.1-1.7c-4.8,0-9.6-0.2-14.5-0.1
	c-2.8,0-4-0.3-3.5-3.9c6.1-38.2,11.9-76.4,17.8-114.6c1.7-11.2,3.2-22.4,4.8-33.7c-1.7-3-0.6-6.1-0.1-9c3.8-24.3,7.5-48.7,11.2-73.1
	c0.4-2.6,1.4-4.8,2.9-6.8c15.4-0.2,30.8-0.3,46.2-0.5c6.4-2.7,12.7-2.7,19,0c15.4,0.2,30.8,0.3,46.2,0.5c1.3,1.9,2.4,3.9,2.8,6.2
	c3.9,24.9,7.5,49.8,11.4,74.7C368.6,280.1,369.5,282.8,367.9,285.4z"/>
<path style="fill:#FFE2D9;" d="M307.8,196.1c-6.3,0-12.7,0-19,0c-9.2-2-18.4-3.8-26.8-8.2c-26-13.6-41.8-34.4-46.2-63.7
	c-2.2-14.5-0.3-28.2,4.7-41.8c19.3,1.1,38.6,0.4,57.9,0.5c29.7,0.1,59.5,0,89.2,0.1c3.2,0,6.6-0.6,9.4,1.8
	c16.3,48.3-11.3,97.9-60.9,109.6C313.3,195,310.2,194.1,307.8,196.1z M224,538.5c0,16,11.9,28.8,26.9,29
	c16.4,0.2,28.7-12.1,28.8-28.9c0.1-33.6,0.1-67.2,0.1-100.9c-18.6,0-37.2,0-55.9,0C224,471.2,224,504.9,224,538.5z M316.8,538.5
	c0,16,11.9,28.8,26.9,29c16.4,0.2,28.7-12.1,28.8-28.9c0.1-33.6,0.1-67.2,0.1-100.9c-18.6,0-37.2,0-55.9,0
	C316.8,471.2,316.8,504.9,316.8,538.5z M239.4,199c-32.5,32.7-64.9,65.6-97.6,98.1c-9.8,9.8-8.9,26.2-2.2,34.4
	c8.8,10.9,23.7,13.3,35.4,5.8c3.8-2.4,6.8-5.7,9.9-8.8c14.5-14.4,29.1-28.7,43.7-43.1c0.8-4.3,1.7-8.6,2.3-13
	c3.9-25.3,7.8-50.6,11.6-75.9C241.5,197.4,240.4,198.1,239.4,199z M377.2,294c14.1,13.7,27.3,28.4,42.2,41.3
	c13.9,12.2,35.7,6.1,41.5-11.5c4.2-12.9-1.3-22.7-10.3-31.5c-22.9-22.7-45.6-45.6-68.5-68.3c-9.3-9.2-18.1-19-28.1-27.5
	c2.3,15.1,4.6,30.2,7,45.3c2.3,14.5,4.6,29,7,43.6C371.6,287.6,374.1,291.1,377.2,294z"/>
<path style="fill:#DD9F81;" d="M377,84.7c-50.5,0-101,0.1-151.6,0.1c-2,0-4.5,0.8-5-2.4c10.3-28.5,41-54.5,80.9-53.4
	c32.6,0.9,64.7,23.6,75.5,54.6C377,83.9,377,84.4,377,84.7z M219.6,183.2c6.5-10.2,5.7-23.5-1.9-32.4c-8.8-10.2-21.6-13.2-33.5-7.7
	c-5.4,2.5-9.6,6.5-12.5,11.7c-4.4,7.8-4.4,16.1-1.5,24.6c-17.6-3.6-29.1,0.5-35.6,12.4c-6.1,11-4.2,24.2,4.6,33.1
	c8.9,9,21.9,11,33,5c12.3-6.7,16.5-17.9,12.9-35.8C200.6,198.3,212.5,194.5,219.6,183.2z M433.7,233.2c15.2,2.3,30.7-10,31.6-25.2
	c0.5-8-1.7-15.2-7.4-21.2c-8.8-9.3-19.6-10.9-31.8-7.2c6.1-18.3-3.2-30.2-11.9-35.4c-11-6.5-24.5-4.4-33.5,4.6
	c-9,9-10.8,22.5-4.5,33.6c6.7,11.7,19.1,16,35.3,11.9C404.5,217.3,419.9,231.1,433.7,233.2z"/>
<path style="fill:#D770AD;" d="M298.2,354c-14.9,0-29.7,0-44.6,0c-7.2,0-11.2-3.5-11-9.6c0.2-5.8,4-8.9,11.1-8.9
	c29.5,0,59.1,0,88.6,0c7.8,0,11.8,3.4,11.6,9.6c-0.2,5.9-4.1,9-11.7,9C327.6,354,312.9,354,298.2,354z"/>
<path style="fill:#56555B;" d="M261,116.9c7.8,0.1,14.1,6.5,14.1,14.3c0,8-6.6,14.4-14.6,14.3c-7.9-0.1-14.3-6.8-14.1-14.8
	C246.7,122.9,253.1,116.8,261,116.9z"/>
<path style="fill:#56555B;" d="M323.4,131.2c0-8,6.5-14.4,14.6-14.3c7.7,0.1,14.1,6.5,14.1,14.3c0,8-6.5,14.4-14.5,14.3
	C329.7,145.4,323.4,139,323.4,131.2z"/>
</svg>
