<?xml version="1.0" encoding="utf-8"?>
<!-- Generator: Adobe Illustrator 23.0.3, SVG Export Plug-In . SVG Version: 6.00 Build 0)  -->
<svg version="1.0" id="Layer_1" xmlns="http://www.w3.org/2000/svg" xmlns:xlink="http://www.w3.org/1999/xlink" x="0px" y="0px"
	 viewBox="0 0 559.5 559.3" style="enable-background:new 0 0 559.5 559.3;" xml:space="preserve">
<path style="fill:#D770AD;" d="M26.3,534.2c0-87.8,0-175.6,0-263.4c0-7.4-0.8-6.5,6.7-6.5c154.3,0,308.6,0,462.8,0
	c6.2,0,6.4-0.3,5.6-6.4c-3.4-26.1-10.3-51.1-22.7-74.3C443.6,118,390,76.6,317,61.1c-5.1-1.1-10.4-1.5-15.7-2.2
	c-3.5-0.5-5.5,0.2-5.2,4.6c0.4,6.4,0.1,12.9,0,19.3c-1.6,1.5-3.6,1.4-5.6,1.1c-6.8-1-13.7-1-20.5,0c-1.9,0.3-3.9,0.4-5.6-1.1
	c0-17.5,0-35.1-0.1-52.6c0-3.3,1-4.1,4.2-4.2C329.3,24.3,384,41.5,432,78.7c53,41.1,86.3,94.6,98.4,160.9c1.5,8.2,2.6,16.5,3.9,24.7
	c0,88.7,0,177.3,0.1,266c0,3.4-0.6,4.2-4.1,4.1c-9.3-0.3-18.5-0.1-27.8-0.1c-1.7-1.9-1.6-4.3-1.6-6.6c-0.1-5.5,0-10.9,0-16.4
	c0-6.9-0.3-7.1-7.4-7.2c-1,0-2,0-3,0c-140.2,0-280.4,0-420.6,0c-11.1,0-10.3-0.4-10.4,10.2c0,4.6,0,9.3,0,13.9c0,2.2,0,4.3-1.6,6.1
	C47.4,534.2,36.8,534.2,26.3,534.2z"/>
<path style="fill:#92DC7B;" d="M233.6,153c6.3,0,12.6,0.2,18.8,0.1c2.9-0.1,4.1,0.6,4.1,3.8c-0.1,24-0.1,47.9,0,71.9
	c0,2.7-0.8,3.8-3.7,3.8c-24.1-0.1-48.3-0.1-72.4,0c-2.6,0-3.4-0.9-3.4-3.5c0.1-24.1,0.1-48.3,0-72.4c0-2.9,1.1-3.7,3.8-3.6
	c6.8,0.1,13.6,0,20.3-0.1c1.6-1,3.3-1.4,5.1-1.4c7.6,0,15.1-0.1,22.7,0C230.7,151.6,232.3,151.8,233.6,153z"/>
<path style="fill:#FBA9CA;" d="M233.6,153c-10.8,0-21.6,0-32.4,0c1.5-11.4,4.7-22.3,10.7-32.2c11.6-19.2,28.3-31.4,49.9-37.1
	c0.9-0.2,1.8-0.7,2.7-1c10.5-1.5,21.1-1.5,31.6,0c11.1,3.4,21.8,7.2,31.2,14.4c17.4,13.4,28.2,30.6,31.4,52.5
	c0.3,2.1,0.5,4.2,0.8,6.4c-1.3,1.3-2.8,0.7-4.2,0.3c-7.8-2.3-15.5-2.2-23.3,0.1c-1.4,0.4-2.9,0.9-4.2-0.2
	c-2.8-17.5-11.6-30.8-27.8-38.3C270.3,104.1,237.7,124.3,233.6,153z"/>
<path style="fill:#FEDF5C;" d="M327.9,156.1c10.5-3.9,21.1-3.9,31.7-0.2c8.9,4.8,16.3,11.1,20.5,20.7c6.4,14.9,4.5,29-5.6,41.3
	c-10.6,12.8-24.8,17.5-40.9,13.1c-15.4-4.3-25.3-14.6-28.4-30.5c-3.5-17.9,4.4-34.1,20.4-42.8C326.3,157.3,327.1,156.7,327.9,156.1z
	"/>
<path style="fill:#FEFEFE;" d="M145.3,383.6c0,27.3-0.1,54.5,0.1,81.8c0,3.9-0.7,5.4-5.1,5.4c-25.8-0.2-51.6-0.2-77.3,0
	c-3.7,0-5.1-0.8-5.1-4.9c0.1-55,0.1-110.1,0-165.1c0-4.1,1.4-4.8,5.1-4.8c25.8,0.1,51.6,0.2,77.3,0c4.4,0,5.1,1.5,5,5.4
	C145.3,328.7,145.3,356.2,145.3,383.6z M264.5,301.3c0-3.9-0.7-5.4-5.1-5.4c-25.8,0.2-51.6,0.2-77.3,0c-3.7,0-5.1,0.7-5.1,4.8
	c0.1,55,0.1,110.1,0,165.1c0,4.1,1.4,4.9,5.1,4.8c25.8-0.1,51.6-0.2,77.3,0c4.4,0,5.1-1.5,5-5.4c-0.2-27.3-0.1-54.5-0.1-81.8
	C264.4,356.2,264.3,328.7,264.5,301.3z M383.6,301.3c0-3.9-0.7-5.4-5.1-5.4c-25.8,0.2-51.6,0.2-77.3,0c-3.7,0-5.1,0.7-5.1,4.8
	c0.1,55,0.1,110.1,0,165.1c0,4.1,1.4,4.9,5.1,4.8c25.8-0.1,51.6-0.2,77.3,0c4.4,0,5.1-1.5,5-5.4c-0.2-27.3-0.1-54.5-0.1-81.8
	C383.5,356.2,383.4,328.7,383.6,301.3z M415.2,465.7c0,3.7,0.8,5.1,4.9,5.1c25.9-0.2,51.9-0.2,77.8,0c4.3,0,4.7-1.6,4.7-5.2
	c-0.1-54.9-0.1-109.7,0-164.6c0-3.8-0.8-5.1-4.9-5.1c-25.8,0.2-51.6,0.2-77.3,0c-4,0-5.3,0.9-5.3,5.2c0.2,27.4,0.1,54.9,0.1,82.3
	C415.3,410.8,415.3,438.3,415.2,465.7z"/>
</svg>
