<?xml version="1.0" encoding="utf-8"?>
<!-- Generator: Adobe Illustrator 23.0.3, SVG Export Plug-In . SVG Version: 6.00 Build 0)  -->
<svg version="1.0" id="Layer_1" xmlns="http://www.w3.org/2000/svg" xmlns:xlink="http://www.w3.org/1999/xlink" x="0px" y="0px"
	 viewBox="0 0 547.3 547.3" style="enable-background:new 0 0 547.3 547.3;" xml:space="preserve">
<path style="fill:#FCC1DE;" d="M530.1,138.1c-2.1,8.3-3,16.9-6,25c-13.1,35.2-37.4,58.7-73.3,69.9c-19,6-37.8,12.5-55.6,21.7
	c-3,3.6-7.4,4.8-11.2,7.1c-15.8,9.5-30.7,20-40.6,36.1c-2.2,3.5-4.2,3.6-7.1,0.3c-5.7-6.5-11.3-13.1-17.3-19.4
	c-13.3-14-25.8-28.6-40.4-41.4c-6.9-6-13.2-12.7-20-18.8c-3.9-3.6-3.7-4.8,0.4-7.7c16-11.1,27-26.4,36.3-43.2c1.7-3,3.1-6.3,5.6-8.8
	c9-17.1,15.3-35.3,21.1-53.7c13.1-41.6,41-67.5,83.2-77.7c54.1-13,112.7,25.5,122.8,80.3c0.6,3.4,0.4,7,2,10.1
	C530.1,124.8,530.1,131.5,530.1,138.1z"/>
<path style="fill:#D770AD;" d="M301,159.1c-10.4,22.1-23.7,41.9-45.1,55.4c6.9,6.4,13.6,12.6,20.2,18.9
	c21.4,20.1,41.5,41.4,60.5,63.7c2.8,3.3,4,3.6,6.3-0.4c5.3-9.2,12.9-16.5,21.2-22.9c9.6-7.5,19.9-13.9,31-18.9
	c23.6,27.2,44.8,56.1,62.8,87.4c11.1,19.2,20.8,39,25.5,60.9c1.8,8.2,2.5,16.4,0.6,24.7c-2.4,10.7-9.1,17-19.8,19.3
	c-12.1,2.6-23.8,0-35.3-3.5c-23.9-7.3-45.4-19.5-66.5-32.6c-2.1-1.3-4.2-2.6-6.4-3.8c-2.2,0-3.7-1.4-5.3-2.5
	c-11-7.1-21.4-15.2-32-22.9c-59.8-46.6-112.7-99.9-158.4-160.4c-7.5-10.1-14.7-20.4-21.6-31c-1.5-2.3-3.4-4.5-3.7-7.5
	c-9.7-16.9-19.6-33.6-26.5-51.9c-4.7-12.5-8.7-25.1-8.6-38.7c0.2-18.6,10.7-29,29.3-29.2c14.5-0.2,27.9,4.2,41,9.5
	c31.7,12.9,60,31.6,87.4,51.8C272.7,135.4,286.8,147.3,301,159.1z"/>
<path style="fill:#A2D73E;" d="M135.2,183c8.7,12.6,17.3,25.2,26,37.8c-0.9,2-3,2-4.7,2.4c-32,9.4-56.4,28.8-74.1,56.6
	c-10.2,15.9-16,33.5-18.1,52.4c-2.9,26.2,0.8,51.3,13.3,74.5c20.7,38.5,52.8,62.4,96.2,68.6c45.4,6.5,84.1-8.2,115.3-41.7
	c11.7-12.5,20-27.4,25.6-43.6c1.1-3.2,1.1-7,4.5-9.1c12.3,8.8,24.7,17.5,37,26.3c-9.1,25.1-23.2,47.1-42.5,65.6
	c-26.1,25-56.8,41-92.6,46.4c-61.5,9.2-114.2-8.8-156.9-53.9c-25.1-26.5-39.5-58.4-44.2-94.7c-5.6-43,3.5-82.7,27-118.9
	c20.2-31.1,48.1-53.1,82.6-66.6C131.5,184.4,133.3,183.7,135.2,183z"/>
<path style="fill:#D770AD;" d="M421.1,87.9c-12.7-0.6-22.7,5.4-31.6,13.6c-1.5,1.3-2.8,2.9-4.2,4.2c-4.6,4.3-9.9,4.6-14.3,0.8
	c-4.7-4-5.7-10.2-1.6-15.1c10-12.1,22.5-20.7,38-24.2c26.2-6,47.1,4.1,64.8,22.7c5,5.2,4.6,11.9-0.4,16.4
	c-4.8,4.3-10.5,3.8-15.7-1.7c-7.1-7.5-15.2-13.3-25.5-15.8C427.4,87.9,424.2,88.2,421.1,87.9z"/>
</svg>
