<?xml version="1.0" encoding="utf-8"?>
<!-- Generator: Adobe Illustrator 23.0.3, SVG Export Plug-In . SVG Version: 6.00 Build 0)  -->
<svg version="1.0" id="Layer_1" xmlns="http://www.w3.org/2000/svg" xmlns:xlink="http://www.w3.org/1999/xlink" x="0px" y="0px"
	 viewBox="0 0 585.4 585.4" style="enable-background:new 0 0 585.4 585.4;" xml:space="preserve">
<path style="fill:#FFDE54;" d="M58,376c-0.4-20.7,6.5-39.2,17.4-56.4c16.3-25.7,39.2-44.9,62.8-63.4c3.3-2.6,6.4-5.2,9.6-7.9
	c-0.9-3,1.5-4.8,2.8-7c6.6-11.7,4.6-22-6.2-30.1c-10.4-7.9-20.1-16.6-27.6-27.4c-2.3-3.3-5.2-6.7-3.4-11.4
	C107,119.6,146,75.1,197.3,64c42.7-9.2,81.2,0.2,112.9,31.3c42.7,42.1,34.9,111.2-15.8,143.5c-3.7,2.4-7.6,4.6-11,7.5
	c-18.7,15.6-15.7,41.9,6.1,53.2c5.1,2.7,10.7,4.4,16.4,4.4c31.5-0.3,62.9-2,93.9-8.2c43.2-8.7,78.8-30.1,107.3-63.5
	c5.7-6.7,6-6.6,10.5,1.1c23.3,39.7,37.1,82.3,38.5,128.5c1.9,16.4,1.9,16.5-14,16.5c-156.9,0-313.8,0-470.8-0.1
	C66.9,378.2,62,379.5,58,376z"/>
<path style="fill:#FECA54;" d="M556.2,387.2c-2.3,30-15,55.4-34.2,77.8c-22.7,26.6-51.1,45.4-82.9,59.5c-2.7,1.2-5.5,1.4-8.3,1.4
	c-82.4,0-164.9,0-247.3-0.1c-2.3,0-4.8,0-6.9-0.9c-44.3-19.5-82.2-46.7-105-91c-9-17.5-14-36.3-13.6-56.2c2.4-1.6,5.1-0.8,7.6-0.8
	c160.8,0,321.6,0,482.3,0C557.3,376.9,557.3,376.9,556.2,387.2z"/>
<path style="fill:#E1354D;" d="M113.5,172.5c5.3,15.6,17.4,25.5,29.7,35.1c16.1,12.7,17.6,24.5,4.7,40.7
	c-31.9,8.7-62.3,5.8-90.7-11.6c-15.9-9.7-25.8-23.8-29.5-42.1c-1.4-6.8,1-9.4,7.8-8.5C62.8,189.3,88.7,184,113.5,172.5z"/>
<path style="fill:#EAB564;" d="M556.2,387.2c0.8-7.7-2.3-9.7-10.1-9.7c-160.4,0.3-320.7,0.2-481.1,0.2c-2.3,0-4.7,0.1-7,0.1
	c0-0.6,0-1.2,0-1.7c163.5,0,327,0,490.5,0.2c5.7,0,8.3-1.4,7.5-7.4c-0.3-2.3,0.1-4.7,0.2-7C557.9,370.2,558.2,378.7,556.2,387.2z"/>
<path style="fill:#050505;" d="M146.4,162.4c0.1-11.4,8.4-19.5,19.8-19.5c11.6,0,20,8.7,19.7,20.3c-0.3,11-9,19.3-20.2,19.2
	C154.7,182.3,146.3,173.6,146.4,162.4z"/>
</svg>
