<?xml version="1.0" encoding="utf-8"?>
<!-- Generator: Adobe Illustrator 23.0.3, SVG Export Plug-In . SVG Version: 6.00 Build 0)  -->
<svg version="1.0" id="Layer_1" xmlns="http://www.w3.org/2000/svg" xmlns:xlink="http://www.w3.org/1999/xlink" x="0px" y="0px"
	 viewBox="0 0 575.3 575.3" style="enable-background:new 0 0 575.3 575.3;" xml:space="preserve">
<path style="fill:#DFDFDF;" d="M241.1,266.9c-2.4,6.2-4.9,6.6-10.1,1.6c-1.3-1.2-2.3-2.8-3.7-4.4c-1.2,1.8-0.6,3.5-0.7,5
	c-0.1,1.5,0,3,0,4.9c-5.6-2-6.8-7.6-10.6-12c-0.7,4.1-1.2,7.3-1.9,10.5c-0.6,2.9-2,3.4-3.9,0.9c-3-3.8-5.4-7.9-7-13.6
	c-3.5,7.2-6.1,13.5-10.8,18.7c-3.4-2-2.3-5.9-3.3-9.6c-3.3,3.3-6.2,6-11.4,8.5c5-10.2,4.5-19.7,4-29.1c-1.1-18.7-3.2-37.3-4.1-56
	c-0.5-10.7-0.6-21.5,0.5-32.4c0.9-9.4,1.2-18.9,2.6-28.2c1.8-11.8,3.1-23.8,6.8-35.3c4.2-8.5,11-15.5,15.1-24.5
	c-4.9,1.8-8.1,5.6-11.7,8.8c-4.4-1.7-8.3,2.3-12.6,1c-5.4-3.8-5.4-4.6,0.3-12.3c-3.1,0.1-5.5,1.8-8.1,2c-3.9,0.4-8.1,2.2-11.1-2
	c-0.9-25,24.8-44.8,49.3-38c10.2,2.8,15.2,10.6,17.9,20.2c1.2,19.1-5.9,36-13.6,52.7c-4,8.8-4.9,18-3.3,27.3
	c2.4,13.3,7.7,17.7,21.3,18.6c9.4,5.3,19.9,7.1,30.4,8.8c22.4,3.7,42.8,12.3,62.5,23.1c19.9,10.9,38.5,23.9,57.6,36.1
	c0.4,0.3,0.7,0.8,1,1.3c0.1,1.8,1.4,3.6,0.3,5.5c-2.8,4.5-6.6,8-7.9,13.8c-1.2,5.2-6.7,5.3-11.3,4.7c-4.2-0.6-8.3-1.9-11.5,2.5
	c-0.9,1.3-3.2,1.2-4.8,0.8c-3.1-0.6-5.8-0.3-8.5,1.4c-2.3,1.4-4.8,0.6-6.9-0.8c-2.2-1.5-3.9-1.3-5.9,0.6c-3.2,3.1-7.1,3.6-11.4,2.8
	c-8.4-1.6-16.1-4.7-22.6-10.3c-1.6-1.4-2.8-2.4-4.3,0.2c-1.8,3.1-4.3,2.1-6.8,0.8c-4.3-2.4-7.6-6-10.9-9.5c-1.5-1.6-2.8-3-5.2-1.9
	c-4.8,2.1-9.1,0.2-13.2-2.2c-5.5-3.3-9.7-8-13.9-13.5c-3,16.3-2.5,31.8,2.4,47.1C240.6,263.3,241.9,264.9,241.1,266.9z M255.5,283.8
	c7.6,3.9,9.7,3.5,14.3-2.8c1.1-3.1-1.9-5.6-1.5-8.9c3-0.4,5.8,1.1,8.8,0.8c4.3-0.5,7.8,0.4,11.2,3.6c3.3,3.2,7.7,4.1,11.7,0.9
	c2.9-2.4,5.1-1.9,7.9,0.1c5.7,4.2,12.4,6.2,19,3.2c5.3-2.4,9.2-1.4,13.5,1.5c3.7,2.6,8,4.8,12.6,3.1c4.9-1.8,8.4-0.5,12.4,2.3
	c4.8,3.3,10.7,5.1,15.7,1.3c4-3,7-2.7,11.1-0.8c3.3,1.6,7.5,3,10.3-0.6c2.9-3.6-0.4-6.7-2.3-9.5c-4.5-6.2-8.6-12.7-11.8-19.6
	c-2.4-5.3-3.6-10.5-1.8-16.7c1.8-6.1,1.1-12.5-4.1-17.4c-3.2,4.2-8.8,6.6-8.2,13.5c0.2,2.2-2.6,4.4-5.7,4.4c-3.5,0-7.1,0.6-10.4-1.4
	c-1.7-1.1-3.3-0.9-4.1,1.1c-1.9,4.8-5.7,4.3-9.3,3c-1.8-0.7-3-1.1-4.3,0.5c-3.1,3.7-6.3,2.5-9.2-0.1c-2.1-1.9-3.4-2.2-5.2,0.5
	c-2.3,3.7-6.2,4.6-10.3,3.8c-9.4-1.8-18.2-5-25.1-12.2c-1.7-1.8-3.4-3-3.7,1c-0.3,4.3-2.6,3.8-5.3,2.1c-4.8-3-8.6-7-12.3-11.3
	c-0.9-1.1-1.2-3.1-3.3-1.6c-5.7,4.2-10.5,1.2-15.3-1.9c-5.6-3.7-9.9-8.7-13.9-15.3c-3,12.2-3.5,23.4-2.1,34.7
	c0.9,7.5,1.7,15.2,6.2,21.7C246,272.5,249.7,279,255.5,283.8z"/>
<path style="fill:#050505;" d="M269.4,280.1c-0.5-1-1-2-1.4-3c-1-2.4-3.5-5.2-1.9-7.2c1.8-2.3,4.1,1.2,6.3,1.4
	c1.3,0.1,2.6,0.4,3.9,0.2c5.1-0.5,9.6-0.7,13.6,4.2c3.1,3.9,8.3,3.2,11-0.9c1.9-2.9,3-2.3,5-0.6c2.5,2.2,5.3,4.1,8.5,5.2
	c4.6,1.7,9.4,2.2,13.4-0.6c4.2-3,7.4-1.9,11.1,0.7c5.8,4.1,11.8,7.7,18.8,2.2c1.7-1.4,2.7,0.4,3.8,1.3c2.9,2.3,5.9,4.6,9.5,5.7
	c3.8,1.2,8.1,1.3,10.5-1.6c3.6-4.3,6.4-2.6,10.1-0.8c3,1.5,7.2,4,9.8,1c2.9-3.3-1-6.4-2.9-9.1c-5.9-8.2-11-16.8-14.1-26.5
	c-0.6-2-1.5-4.1-0.5-6c3.9-7.5,1.4-14.4-1.5-21.4c0.8-1.5-2.7-3.2,0.1-4.7c20.8,16.9,38.6,36.5,54.1,58.3
	c-0.6,10.9-6.4,19.7-11.5,28.8c-0.7,1.1-1.6,2.2-2.7,2.7c-12.4,5.2-24.3,13-38.8,7.1c-2.2-0.9-4.4-0.8-6.5,0.2
	c-8.7,3.7-17.3,2.8-25.2-2c-4.1-2.5-7.6-3.3-11.7-0.2c-1.6,1.2-3.7,1.8-5.7,2.2c-2.2,0.1-3.9-1.2-5.5-2.4c-8.1-6-17.2-9.4-27.2-10.5
	c-12.8-1.4-22.6-7.8-30-18.2C270.4,284,269.5,282.2,269.4,280.1z"/>
<path style="fill:#050505;" d="M334.2,316.1c3.3-2,6.7-3.9,10-5.9c1.8-1.1,3-0.2,4.5,0.8c8.9,6.4,18.3,9,28.7,3.7
	c3-1.5,5.6-0.3,8,0.9c5.3,2.5,10.4,2.2,15.8,0.5c1.6-0.5,3.1-1.3,4.8-1.6c17.9-3.1,24.4-16.2,28.2-31.8c0.4-1.7,0.6-3.8,2.4-4.9
	c13.2,17.3,25,35.5,35.1,54.7c5.6,10.7,10.3,21.8,11.8,34c-3.7,0.7-4.9-2.7-7.1-4.4c-1.7-1.4-2.7-3.1-5.6-1.2
	c-2.8,1.9-4.3-1.3-5.5-3.2c-5.7-9-12.4-17.2-20-25.5c2.8,6.2,5.1,11.9,6,18.1c0.3,1.9,0.6,3.8-1.3,5c-2,1.3-3.6,0.1-5.1-0.9
	c-7.2-4.6-14.2-9.6-20.9-14.8c-1.3,0.5-0.5,1.3-0.4,1.9c0.3,1.9,0.8,3.8-1.1,5.1c-1.8,1.2-3.6,0.3-5.2-0.7
	c-6.2-3.7-12.5-7.4-18.7-11.2c-1.4-0.8-2.5-2.2-4.5-2.3c0.2,5,4.2,9.8,0.8,14.9c-7.4-1.9-14.3-5.2-21-8.8c-5.9-3.1-11.9-5.9-18.2-8
	C347.6,327.2,339.9,323.1,334.2,316.1z"/>
<path style="fill:#050505;" d="M484.3,372.3c2.4,10.6,2,21.1-2,31.1c-3,7.6-10.8,7.7-15.6,0.5c-3.8-5.7-6.2-12.2-10.2-17.9
	c-6.5-9.4-15.1-16.4-24.8-22.2c-11-6.6-23.5-9.6-34.8-15.3c-1.7-3.2-0.8-6.9-1.8-10.3c-0.9-3.1,1.5-4.6,4.3-2.7
	c5.3,3.5,11.1,6,16.3,9.8c3.1,2.3,5.9,4.1,8.3-1.2c1.5-3.4,4.3-1.4,6.1,0.1c4.8,3.9,9.9,7.3,15.2,10.5c1.7,1,3.3,3.2,5.4,1.5
	c1.8-1.5,1.1-3.7,0.5-5.8c-0.5-1.8-0.9-3.6-1.4-5.4c-0.4-1.4-0.5-3.3,1.1-4c1.6-0.8,2.9,0.5,3.8,1.7c4,5.4,8.3,10.6,11.5,16.5
	c1.7,3.1,3,4.9,7.2,3.7c5-1.4,6.9,3.3,9.3,6.5C483.4,370.2,483.5,371.5,484.3,372.3z"/>
<path style="fill:#B6B6B6;" d="M334.2,316.1c7.1,4.9,14.2,9.8,21.3,14.7c-4.1,1.2-8.6,1.7-11.3,5.7c-2.5,2.1-5.5,2.4-8.5,2.2
	c-3.1-0.6-5.8-2.5-8.9-3.4c-3.5-1-7-1.2-10.4,0.5c-4.2,0.4-8.6,2.4-12.2-1.6c-8.6-3.4-13.3-10.7-17.4-18.2
	c-4.5-8.1-10.9-14.1-18-19.5c-4.9-3.7-9.2-8.1-13.2-12.8c5.3,1.5,10.3,1.7,13.8-3.6c8.5,13.7,20.2,22,36.8,23
	C317,303.8,325.5,310.5,334.2,316.1z"/>
<path style="fill:#B00014;" d="M276.8,526.9c4.3,0.5,5.5-3.8,8.4-5.6c3.1-2,6.1-4.1,9.4-5.9c-0.9-1.6-2.5-0.5-3.8-1.4
	c3.8-5,9.4-3.2,14.3-3.8c1.7-1,4.3,0,5.5-2.3c0.5-0.9,1.1-1.8,1.7-2.6c6.5-18.2,13.1-36.4,19.9-54.6c4.8-12.9,9.6-25.9,14.2-38.9
	c5.9-16.5,6.2-32.4-2.3-48.1c-2.4-4.4-3.9-9.3-5.8-13.9c-0.8-2-1.9-4.1-1-6.4c3.5-1.7,5.7,0.5,7.5,2.9c8.4,11.6,13.9,24.7,19.3,37.8
	c2,4.7,0.6,9.5-1.8,14c-12.8,23.3-19.9,49-29.8,73.6c-0.5,1.2-1.4,2.3-0.6,3.7c-3.1,9.1-6.5,18.1-11.9,26.2
	c-0.9,1.3-2.3,3.1-1.2,4.6c1.3,1.7,3.1-0.2,4.5-0.6c12.5-4.3,12.5-4.3,18.3-1.9c-8.9,5.4-19,8-28.4,12.3c-2.8,2.3-6.9,3.1-8.5,6.9
	c-2,2.4-5,3.6-7,5.9c-3.5,1.7-4.1,5.5-5.9,8.4l-0.5,0.1l-0.5-0.1c-1.4-1.2-2.4-2.5-2.3-4.4c0-0.4,0-0.7,0-1.1c0.6-2.9,2.6-5,4.2-7.2
	c1.4-1.1,2.7-2.4,4.5-3.4c-2.7,0.7-4.7,2.2-7,3.1c-2.8,0.6-3.7,4.1-6.6,4.5C281,528.7,278.6,528.9,276.8,526.9z"/>
<path style="fill:#B00014;" d="M159.3,69.5c7.7,3.9,14.6-1.3,22.4-2.4c-1.1,5.3-11,8.2-3.5,14.7c-7.6,4.4-14.3,10.2-21.2,15.5
	c-17.7,13.7-35.8,26.9-54.8,38.9c-3.2,2-6.3,4.7-11.3,3.8c3.5-5.3,6.7-10.3,11.1-14.4c10.9-8.5,21.4-17.4,31.4-27
	c4-3.8,6.4-8.7,9-13.4C148.1,80,153.7,74.7,159.3,69.5z"/>
<path style="fill:#B00014;" d="M311.7,509c-1.9,2.3-4.1,2.8-6.7,1.2c0.5-28.8,1.5-57.6,4.3-86.4c1-10.5,1.5-21.2-1.2-31.6
	c-0.4-1.4-0.7-3-0.4-4.4c3.8-15.9-0.1-31.3-2.4-46.9c-0.1-0.7-0.1-1.5-0.1-2.2c6.1,2.3,8.2,7.6,10,13.2c1.5,4.9,1,10.1,2.1,14.9
	c2.7,11.2,2.9,22.3,1,33.8c-1.7,10.4-0.7,21.2-1.3,31.8c-1,16-3.1,31.9-4.1,47.8c-0.1,1.9-0.5,3.7-0.5,5.6
	C312.3,493.5,312.5,501.3,311.7,509z"/>
<path style="fill:#B00014;" d="M311.7,509c-2.3-9.3-1.2-18.8-0.7-28.2c0.5-10,2.1-19.9,3-29.8c1.5-17,2.5-34.1,2.4-51.2
	c0-4.2,1.4-8.4,2.1-12.6c1-5.7-1.2-11-2.3-16.4c-1.6-7.6-0.6-15.5-4-22.9c-1.7-3.8-5.2-5.8-7-9.3c-0.4-1.5-0.7-3-1.1-4.5
	c3.8,2.7,8.2-0.9,12,1.2c1.8,1.4,2,3.5,2.4,5.5c2.7,13.7,3.6,27.7,6,41.5c0.5,2.7,0.5,5.6-0.2,8.4c-4.6,20.1-2.9,40.7-5.2,61
	c-1.7,14.8-2.4,29.7-3.6,44.5c-0.3,3.5-2.3,6.7-2.3,10.3C312.1,507.1,311.8,508,311.7,509z"/>
<path style="fill:#CACACA;" d="M231,150.4c-8.4,2.9-14.2,0.7-18.3-6.5c-7.9-13.9-6.7-27.9-0.4-41.7c7-15.5,13.3-31.1,13.3-48.4
	c0-0.6,0.6-1.3,1-1.9c3.9,16.5-1.4,31.9-5.5,47.4c-2.8,10.6-5,21.1-3.7,32.2C218.3,140.5,223.7,146.1,231,150.4z"/>
<path style="fill:#B00014;" d="M331.7,475.4c-1.7-1.6-0.4-3.1,0.2-4.6c5.5-15.5,11.1-31.1,16.7-46.6c3.4-9.5,7.9-18.4,12.7-27.3
	c2.7-5,3-10.1,0.6-15c-5.3-11-9.5-22.6-16.7-32.7c-2-2.8-4-5.3-7.5-6.1c-2.6-1.1-3.5-3-3-5.7c3.3,0.8,6.2-1.4,9.5-0.9
	c6.9,16.5,14.1,32.8,23.7,48c2.2,3.4,2.6,7.1,0,10.5c-9.6,12.7-14,27.8-20.2,42.1C342.1,449.7,337,462.6,331.7,475.4z"/>
<path style="fill:#050505;" d="M484.3,372.3c-3.5-0.9-3.4-5-6.1-6.9c-2-1.4-3.3-2.6-5.8-0.9c-3,2.1-4.8,1-6.2-2.5
	c-3.2-7.9-9.2-14-14.6-21.2c-1.7,4.1,0.4,6.6,0.9,9.4c0.5,2.7,1.6,5.9-0.9,7.8c-2.7,1.9-4.6-1-6.8-2.2c-5.7-3.2-10.9-6.9-15.8-11.1
	c-1.8-1.5-3.5-1.8-4.8,1c-2.1,4.6-6,4-8.7,1.3c-4.7-4.7-11.7-5.5-16.3-10.4c-0.5-0.6-1.9-0.9-2.5-0.6c-1.3,0.6-0.5,1.8-0.3,2.9
	c0.5,3.2,2,6.4,0.5,9.7c-1,0.2-1.7-0.3-2.2-1c0.2-4.7-0.4-9.3-2.3-13.6c-0.5-1.1-1.7-2.5-0.4-3.5c1.2-1,2.5,0.3,3.5,0.9
	c7,4.2,14,8.6,20.9,12.8c1.7,1,3.5,3.1,5.4,1.7c2.1-1.5,0-3.8-0.3-5.7c-0.2-1-0.5-2-1.1-4.2c8.2,5.7,15.4,10.8,22.6,15.8
	c1.2,0.9,2.5,1.7,3.7,2.5c0.8,0.5,1.5,1.2,2.5,0.6c1.1-0.7,1.1-1.7,0.9-2.9c-1.1-7.4-3.8-14.3-7.4-21.7c3.9,0.5,5.6,3,7.4,5.1
	c6.2,7.2,12,14.7,17.1,22.7c1.2,1.9,2.3,4.7,3.9,0.2c0.9-2.5,2.3-0.7,3.3,0.1c3.1,2.6,5.3,6.2,9.1,8.2
	C484.9,368.4,484.4,370.4,484.3,372.3z"/>
<path style="fill:#B00014;" d="M303.8,522.7c0.8-5.3,4.8-6.3,9.2-6.9c-0.6,2.7-1.1,5.5-1.8,8.1c-1.5,5.6-0.7,6.8,5.2,7.5
	c3.1,0.4,6.3,0.5,9.4,1.1c3.4,0.6,5.8,2.8,7.3,5.6c-14,1.2-27.5-4.3-41.4-1.1c-0.4-4.6,1-8,5.9-9.1
	C300.1,526.9,302.3,525.2,303.8,522.7z"/>
<path style="fill:#B00014;" d="M142.4,85.2c-0.8,7.6-5.9,12.6-11.1,17.3c-7.8,7.1-15.4,14.3-24,20.4c-1.6,1.1-3,2.8-5.3,2.7
	C113.9,110.5,128.3,98,142.4,85.2z"/>
<path style="fill:#CBCBCB;" d="M190.8,80.8c0.2-3.2,2.3-4.9,4.8-6.4c3-1.8,5.8-3.8,9.1-5.4c-3.9,10.3-9.9,19.3-17.3,27.5
	C187.2,91,190.5,86.3,190.8,80.8z"/>
<path style="fill:#B00014;" d="M276.8,526.9c5.7,2.9,8.8-2.4,13-4.2c1,0.8,3,0.4,2.9,2.4c-0.9,2.5-2.1,4.9-4.5,6.4
	c-7,0-13.9,0-21.1,0C269.7,528.9,272.7,526.8,276.8,526.9z"/>
<path style="fill:#B00014;" d="M288.2,532.6c1.5,1.1,2.1,2.7,2.3,4.4c-4.1,1.6-8.9,0.3-12.8,2.9c-2.4,1.6-5.6,2-6.6,5.4
	c-0.7-4.8,0.8-8.3,5.4-9.8C280.3,534.4,284.3,533.6,288.2,532.6z"/>
<path style="fill:#050505;" d="M191.4,49.4c-3.8,8.6-11.9,11.9-20.3,17.8c2.7-5.6,4.1-10.2,6.8-13.7
	C181.1,49.3,187.5,53.6,191.4,49.4z"/>
<path style="fill:#F6F1F2;" d="M292.7,525.1c-1-0.8-1.9-1.6-2.9-2.4c3.4-1.6,6.5-3.9,11.1-4.5C298.1,521.2,296.1,523.9,292.7,525.1z
	"/>
<path style="fill:#EDE5E6;" d="M303.8,522.7c-0.5,3.7-1.5,6.8-6.4,5.3C298.3,524.7,301.3,524,303.8,522.7z"/>
</svg>
