<?xml version="1.0" encoding="utf-8"?>
<!-- Generator: Adobe Illustrator 23.0.3, SVG Export Plug-In . SVG Version: 6.00 Build 0)  -->
<svg version="1.0" id="Layer_1" xmlns="http://www.w3.org/2000/svg" xmlns:xlink="http://www.w3.org/1999/xlink" x="0px" y="0px"
	 viewBox="0 0 591.4 591.4" style="enable-background:new 0 0 591.4 591.4;" xml:space="preserve">
<path style="fill:#FCC1DE;" d="M512,420.5c2.8,12.1-3.2,25.3-14.6,32c-11.3,6.6-26.7,5-36.4-3.7c-1.9-1.7-3.1-4.1-5.6-5.1
	c-3.5-2.6-4.3-6.7-5.6-10.5c-11.2-32.9-31.1-59-59.9-78.4c-5.7-3.8-10.2-4-16.3-0.5c-19.5,11.2-40.6,17.3-63.1,19.4
	c-32.8,3.1-63.2-3.7-91.7-19.8c-5.9-3.3-10.4-2.7-15.8,0.9c-29.6,19.6-49.3,46.7-60.8,80.1c-1.1,3.2-1.7,6.7-4.8,8.8
	c-8,7.8-16.8,13.5-28.7,12.9c-17.4-1-31.1-18-28.3-35c8.5-51.3,34.3-91.2,77.9-119.6c3.7-2.4,4.2-4,2-7.8
	c-14.9-25.2-21.8-52.7-21.3-81.9c0.5-23.9,5.9-46.9,17.3-68.2c2.2-4.1,3.4-6-3-7.6c-27.6-7-44.2-32.6-40.1-60.8
	c3.8-26.3,28.5-46,56.3-44.9c21.9,0.9,43.1,17.9,48.7,39.2c0.6,2.4,1.2,4.9,1.9,7.8c15-8.1,30.5-14.2,47-16.9
	c14-2.3,28.1-4.8,42.5-2.1c-0.1,0.2-0.3,0.3-0.4,0.5c-0.2,0.1-0.4,0.2-0.5,0.3c1.1,1.4,2.9,1.2,4.3,1.9c12.9,6,20.4,18.5,11.6,33.7
	c-2.4,4.1-4.9,8-8,11.6c-12.1,14.2-16.9,31.3-19.6,49.3c-1.5,9.8-1.4,19.5-0.9,29.4c-0.4,1-1,2.1-2,2.3c-8.7,1.8-15.3,7.3-21.7,13
	c-32.9,6.8-59.3,43.2-36.5,76.9c7.5,11.1,18.1,18.6,30.8,23.1c26.9,9.4,52.5,7.1,76.5-8.8c5-3.3,8.4-8.5,13.5-11.7
	c0.6-0.3,1.3-0.4,2-0.4c8.1,2.1,15.4,6,23.4,8.6c16,5.2,32.5,7,49,9.3c0.8,3.6,5,3.7,6.8,6.3c8.7,11.2,15.3,23.4,17.6,37.7
	c1.3,8.3,1.3,16.7,0.6,24.9c-2,24,17.8,45,39.3,51.4C500.5,419.6,506.2,420.3,512,420.5z M142.9,476c-13.5,17.9-12.4,42.3,2.5,58.9
	c14.2,15.8,32.5,23.2,53.3,24.2c24.4,1.2,45.7-6.5,62.9-24.3c10-8.9,13.3-20.6,12.6-33.4c-1.1-18.8-11.6-32.2-26.9-41.9
	c-8-5-16.4-10-26.6-9.3c-27.1-4.4-51.7,0.9-72.8,19.1C146.2,471.6,144.5,473.8,142.9,476z"/>
<path style="fill:#FBA9CA;" d="M137.3,443.8c8.8-27.6,21.5-52.9,42.9-73c7.8-7.3,16.1-13.9,25.2-19.4c3.6-2.2,6.7-2.9,11.1-0.3
	c20.4,11.9,42.4,19,66.2,21.1c33.1,2.9,63.7-4.2,92.3-20.5c4.8-2.8,8.5-2.8,12.8,0c17.2,11.1,31.7,24.8,43.7,41.5
	c11.1,15.5,17.4,33.1,23.9,50.6c-2,7.9-4.7,15.5-8.8,22.5c-1.1,2-1.8,3.5,0.1,5.6c24.8,27.8,12.2,66.4-24.4,80.7
	c-33.7,13.2-64.7,8.2-91.1-18c-7.8-5.6-10.6-14.1-11.8-22.7c-2.9-20.4,4.7-36.8,21.1-49.1c7-5.3,14.7-9.6,23.3-11.8
	c5.2-1.3,5.3-3.6,3-7.7c-12.4-21.7-30.8-35.4-55.2-39.9c-36.4-6.8-68.8,9.4-86.8,42.3c-1.1,2.1-2.1,4.2-4.4,5.4
	c-5.9,0.9-11.8-0.6-17.7-0.5c-17.8,0.2-33.9,4.9-48,16c-2,1.5-3.9,3.4-6.8,2.8C142.9,461.4,139.5,452.9,137.3,443.8z M319.1,198.9
	c9.8,3.2,18.9,7.7,27.1,14c17,13.1,27.5,38.6,13.4,61.5c-1.2,1.9-2.7,4-1.8,6.5c17.4,7.7,35.4,13.8,54.4,16
	c6.1,0.7,12.3,3.4,18.6,0.7c30.8-52.5,30.4-105.8,3.4-159.6c31.7-6.3,51.5-34.6,45.1-64c-5.3-24.5-26.6-42.5-50.7-43.1
	c-25.9-0.6-47.7,15.7-54.1,41c-1.2,4.8-2.4,5.4-7,3.1c-18.2-9.2-37.4-15.2-58-16.1c-1.4,0.2-2.9,0.3-5.5,0.7
	c4.1,1.8,7.2,3.1,10.1,4.6c11.1,5.8,16.7,17.1,9,29.9c-1.9,3.1-3.7,6.3-6,9c-9.5,11-15.9,23.6-19.1,37.7c-3.4,14.9-6.2,29.9-3,45.3
	C303.6,189.2,312.3,192.2,319.1,198.9z M437.5,303.9c-1.9,1.4-0.8,2.6,0.3,3.6c3.8,3.6,5.9,8.3,8.4,12.8c7.4,13.3,8.4,27.8,8,42.7
	c-0.2,5.9-0.8,11.9,0.9,17.8c5.6,19.1,18.7,31.2,36.8,37.9c6.1,2.3,13,5.8,20.1,1.8C504.1,370.9,479.2,332.1,437.5,303.9z"/>
<path style="fill:#D770AD;" d="M356.7,281c-18.8,22.1-43.2,29-71.1,26c-18.4-2-34.3-9.3-47.2-22.9c-17.2-18.2-17.2-47.3,0-65.5
	c8-8.4,17.2-14.6,28-18.5c1.8-0.7,3.9-2.4,5.8,0c1.1,3.3-0.8,6.2-1.6,9.2c-2.7,11.3,2.2,16.6,13.8,15.4c7.3-0.8,14.8-2.2,21.9,1
	c3.1,3.3,4.4,7.8,6.8,11.6c10.1,15.7,23.4,28.2,39,38.3C354.1,276.9,357.2,277.5,356.7,281z"/>
<path style="fill:#D770AD;" d="M356.7,281c-6.5-4.7-13.2-9.1-19.3-14.3c-13-11.1-24.9-23.1-30.8-39.8c2.1-1.9,4.8-1.4,7.3-1.9
	c7.2-1.5,9.3-4.2,8.9-11.5c-0.2-3.6-1.1-7.1-2.7-10.5c-0.8-1.7-2.1-3.3-0.8-5.4c19.9,5.7,36.1,16.1,44.7,35.7
	c6.4,14.6,5,29-3.4,42.6c-1,1.6-1.8,3.4-2.8,5C357.4,280.9,357,280.9,356.7,281z"/>
<path style="fill:#D770AD;" d="M261.6,534.8c4.5-7.7,9.5-15,10.6-24.3c2.4-19.8-6-34.5-20.9-46.4c-9.1-7.2-19.7-10.8-30.6-13.9
	c15.5-33.2,44.8-52,80.6-49.7c31.4,2,54.5,17.9,69,45.9c1.6,3,1.8,4.2-2.4,5.4c-20.7,5.7-37.7,16.3-45,37.8
	c-5,14.6-2.7,28.6,6.1,41.4c0.8,1.2,1.5,2.5,2.3,3.8C308,538.5,284.8,538.5,261.6,534.8z M157.6,131.1c2.9,2.4,4.6,2,6.8-1.5
	c12.4-19,28.1-34.8,47.4-46.8c3.4-2.1,3.1-3.7,1.2-6.4c-9.5-13.7-27.3-20-43.4-15.1c-17.1,5.2-28.4,20-28.5,37.4
	C141.1,112.4,147.3,122.8,157.6,131.1z M424.8,61.7c-16.7-5.6-34.6,0.2-44.8,14.4c-1.9,2.6-2.5,4.4,0.8,6.5
	c19.6,12.4,35.6,28.4,48.1,47.9c1.7,2.6,3.4,2.8,5.7,1c10.2-8.1,16.5-18.2,16.9-28.1C451.6,82.3,440.9,67.1,424.8,61.7z"/>
<path style="fill:#050505;" d="M319.2,197.6c2.5,5.1,5.3,10.1,5.4,16.1c0.2,9.3-3,12.8-12.3,13c-1.9,0.1-3.8,0.1-5.7,0.2
	c-6.9-1.9-13.9-0.8-20.8-0.6c-3,0.1-5.9,0.2-8.9,0c-5.8-0.5-8.4-4.1-8.8-9.8c-0.4-5.9,1.5-11.2,4.1-16.4c5.3-8.4,13.7-11.8,22.8-14
	C304.8,186.3,312.7,190.5,319.2,197.6z M240.8,153.1c-0.1-8.9-7.9-16.8-16.8-16.9c-9.1-0.1-16.4,7.4-16.4,16.7
	c0,9.9,6.5,16.5,16.3,16.6C233.3,169.5,240.9,162.2,240.8,153.1z M368.7,169.4c9.9,0,16.3-6.3,16.3-16.4c0-9.4-7.1-16.9-16.2-16.9
	c-9-0.1-16.3,7.5-16.3,16.8C352.6,163,358.8,169.4,368.7,169.4z"/>
</svg>
