<?xml version="1.0" encoding="utf-8"?>
<!-- Generator: Adobe Illustrator 23.0.3, SVG Export Plug-In . SVG Version: 6.00 Build 0)  -->
<svg version="1.0" id="Layer_1" xmlns="http://www.w3.org/2000/svg" xmlns:xlink="http://www.w3.org/1999/xlink" x="0px" y="0px"
	 viewBox="0 0 595.4 595.3" style="enable-background:new 0 0 595.4 595.3;" xml:space="preserve">
<path style="fill:#3E2723;" d="M170.6,595.2c-10.2-2.8-20.2-5.8-28.9-12.2c-26.1-18.9-36-53.8-23.8-84.7
	c22.5-57.1,45-114.3,67.5-171.4c1-2.5,2.1-5,2.6-7.6c1.8-9.9-2.2-17.5-11.7-22.2c-24.7-12.3-49.4-24.6-73.9-37
	c-41.2-20.8-51.4-73.3-21.1-108c20.6-23.6,58.5-30.3,86.2-15.5c8.1,4.3,16.3,8.4,24.7,12.7c-12.3-60.6,3.3-102.8,48.5-131.6
	c36.5-23.4,86.4-21.3,122.5,5.3c36.4,26.9,58,73.5,40.8,127.5c8.3-4.2,16.4-7.4,23.4-12.1c11.3-7.6,23.8-9.8,36.8-9.5
	c30.9,0.8,58.1,22,65.7,51c8.3,31.8-7.1,66.1-36.6,81.2c-23.7,12-47.6,23.8-71.3,35.8c-13.2,6.6-16.6,15.7-11.2,29.5
	c22.8,57.8,45.9,115.5,68.5,173.4c15.9,40.8-8.1,87.4-51.9,94.5c-0.5,0.1-0.9,0.6-1.4,0.9c-7.3,0-14.7,0-22,0
	c-22.3-2.4-38.1-14.4-49.7-32.9c-1.9-3-3.2-6.1-4.5-9.4c-10.7-27.4-21.3-54.8-32.5-82c-5-12.1-15.6-17-26.6-12.8
	c-6.4,2.4-9.3,7.7-11.7,13.6c-8.3,20.6-16.4,41.3-24.5,62c-2.7,6.8-4.9,14-8.2,20.4c-11.3,22.1-27.3,38.3-53.7,40.4
	c-0.4,0-0.7,0.3-1,0.5C184.6,595.2,177.6,595.2,170.6,595.2z"/>
<path style="fill:#BE8430;" d="M431.6,514c-22.4,8.9-44.9,17.6-67.2,26.7c-4.4,1.8-6,0.5-7.6-3.6c-9.1-23.3-18.5-46.5-27.5-69.9
	c-7.9-20.5-25.5-26.5-41.6-21.4c-10.2,3.3-16.4,11-20.2,20.9c-9,23-18.2,45.9-27.2,68.8c-2.8,7.1-2.8,7.1-9.7,4.3
	c-31.8-12.5-63.5-25-95.4-37.3c-4.5-1.7-5.2-3.5-3.5-8c21.8-54.6,43.5-109.3,65.2-164c7.4-18.6,0.6-36.7-17.5-45.8
	c-20.7-10.4-41.4-20.8-62.2-31c-3.6-1.8-4.7-3.1-2.5-7.2c16-31.1,31.7-62.3,47.3-93.6c1.7-3.5,2.9-4.3,6.7-2.2
	c10.3,5.7,20.9,10.8,31.4,16.1c2.7,1.4,5.2,2.3,7.9-0.3c2.8-2.6,2-5.3,0.7-7.9c-6.8-13.3-10.5-27.5-11-42.2
	c-0.6-19.6,3.9-38.2,14.1-55.2c16.9-27.9,41.9-44.1,73.9-48.1c29-3.6,55.5,4,77.9,23.6c18.8,16.4,30.4,37,33.9,61.5
	c2.7,19.3,0.9,38.5-7.9,56.5c-0.5,1-1,2.1-1.6,3.1c-1.7,2.8-1.9,5.5,0.4,7.9c2.6,2.8,5.5,2,8.4,0.4c10.5-5.4,20.9-10.8,31.4-16.2
	c2.1-1.1,3.9-2.3,5.5,1c10.9,22,21.9,43.9,32.9,65.8c0.7,5.5-3.7,8.3-6.8,11.3c-6.5,6.3-14.1,11.4-22.3,15.4
	c-20.1,9.9-40.2,20-60.2,30c-15.7,7.9-20.5,20-13.9,36.5c15.4,38.8,30.7,77.7,46.1,116.5c6.1,15.3,12,30.6,18.2,45.8
	c3.8,9.4,5.7,19.3,6.6,29.3C434.6,506.1,434.4,510.3,431.6,514z"/>
<path style="fill:#5F360B;" d="M431.6,514c3.8-19-3.4-35.9-10.2-53c-20.2-50.7-40.2-101.4-60.2-152.1c-5.9-15.1-0.5-28.5,13.9-35.8
	c21.7-10.9,43.6-21.6,65.2-32.7c10.7-5.5,20.3-12.5,26.3-23.4c5.4,10.5,10.7,21,16.2,31.4c2.1,4.1-1.2,4.6-3.4,5.7
	c-21.1,10.6-42.2,21-63.2,31.6c-13.2,6.7-20.4,19-19.2,32.8c0.7,8,4.6,15.1,7.5,22.4c20.3,51.6,40.6,103.2,61.1,154.8
	c1.6,4.1-0.3,5.3-3.3,6.4C452.1,506.1,441.8,510,431.6,514z"/>
<path style="fill:#F4F4F4;" d="M181.2,584.7c-37.2-0.1-64.2-33-57.1-69.6c0.7-3.8,1.5-5.2,5.8-3.5c33.1,13.2,66.3,26.3,99.5,39.2
	c3.9,1.5,4,2.7,2,6C220.8,574.4,202.3,584.7,181.2,584.7z M98.5,243.8c3.3,2.3,4.7,2.3,6.7-1.6c15.8-31.7,31.8-63.4,47.9-95
	c1.7-3.4,1.5-4.7-2.5-5.8c-37.8-11-76,17.6-75.9,57.1C74.7,216.4,83.9,233.6,98.5,243.8z M471.3,146.6c8.7,13,12,26.9,8.2,42.4
	c-1.5,6-3.9,11.7-5.8,17.6c6.5,13.5,13,27,19.5,40.5c21.1-11.6,32.5-36.8,27.6-60.4c-5.4-25.7-26.8-45.2-52-47.2
	C467.3,142.7,469.9,144.5,471.3,146.6z M408.3,559.5c-6.7,6.4-14.2,11.7-20.7,18.3c0.3,0.3,0.5,0.6,0.8,0.8
	c21.6,10.1,42.4,8.5,61.7-5.4c18.8-13.6,25.5-32.8,23-55.4c-1-8.8-1.4-8.7-9.9-5.4c-3.6,1.4-7.3,2.6-10.8,4.2
	c-7.7,3.5-16.1,5.3-23.2,10.1C424.9,539.3,418,550.1,408.3,559.5z M365.8,551.2c-2.3,0.9-3,1.8-1.5,4.2c5.8,9.6,13,17.6,23.4,22.4
	c15.2-9.7,28.2-21.5,37.1-37.4c2.3-4.2,5.3-8.4,4.5-13.7C408.1,534.9,387,543.1,365.8,551.2z M445.3,141.5c-2.7,0.8-3.9,1.5-2.3,4.7
	c10.3,20.1,20.5,40.2,30.7,60.3c0.5-0.2,1.4-0.3,1.5-0.7c7.8-17.1,10.8-34.3,2.1-52.2c-2.5-5.1-6.7-8.9-8.5-14.3
	C460.8,138.6,453,139.3,445.3,141.5z"/>
<path style="fill:#3E2723;" d="M296.7,184.7c-21.6-0.3-41-8.6-57.5-23.9c-9-8.4-9.5-21.6-1.4-30.1c8.1-8.6,20.9-8.8,30.1-0.4
	c19.3,17.5,41.4,17.4,60.8-0.1c9.4-8.5,23.1-7.9,30.9,1.5c7.6,9.2,5.8,22.6-3.7,30.4c-13.9,11.3-29.1,19.4-47.1,22
	C305.1,184.6,301.5,184.3,296.7,184.7z"/>
<path style="fill:#3E2723;" d="M250.1,112.6c-13.6-0.1-26.2-12.9-26.1-26.6c0.1-13.8,13.4-26.9,27-26.6
	c13.5,0.3,26.5,13.6,26.3,26.8C277,100,264,112.7,250.1,112.6z"/>
<path style="fill:#3E2723;" d="M372.5,86.5c-0.1,13.7-12.9,26.2-26.6,26.1c-13.8-0.1-26.9-13.3-26.7-26.9
	c0.3-13.4,13.5-26.5,26.8-26.3C359.8,59.5,372.6,72.6,372.5,86.5z"/>
<path style="fill:#3E2723;" d="M298.5,211.2c13.8,0.1,26.6,13.4,26.4,27.1c-0.3,13.4-13.7,26.4-26.9,26.1
	c-13.5-0.3-26.4-13.3-26.4-26.7C271.7,224,284.7,211.1,298.5,211.2z"/>
<path style="fill:#3E2723;" d="M324.9,322.5c0.1,13.6-13.2,26.9-26.8,26.8c-13.4-0.1-26.4-13.1-26.5-26.5
	c-0.1-13.6,13.1-26.9,26.8-26.8C311.8,296.1,324.8,309.1,324.9,322.5z"/>
<path style="fill:#5F360B;" d="M297.1,174.2c-18.6-0.4-35.3-6.8-49.3-20c-6.6-6.2-7.2-11.1-2.3-16.3c5.2-5.5,9.6-5.2,16.4,0.9
	c18.8,17,45.1,19.1,66.2,5.1c2.7-1.8,5.1-4.1,7.6-6.3c5.9-5,10.7-4.8,15.6,0.6c4.3,4.8,3.9,9.9-1.4,14.7
	C335.2,166.5,317.9,174,297.1,174.2z"/>
<path style="fill:#FED44F;" d="M250.6,102.1c-9.4,0-16.1-6.7-16-16.1c0.1-9.4,6.8-16,16.2-15.9c9.2,0.1,15.6,6.6,15.7,15.8
	C266.6,95.3,260,102,250.6,102.1z"/>
<path style="fill:#FED44F;" d="M362,86.1c0,9.4-6.7,16-16.1,15.9c-9.4-0.1-16-6.9-15.8-16.3c0.2-9.2,6.6-15.6,15.8-15.7
	C355.2,70,361.9,76.7,362,86.1z"/>
<path style="fill:#D95A33;" d="M314.3,238.1c-0.2,9.1-7.5,16.1-16.5,15.7c-9-0.4-15.6-7.2-15.6-16.1c0-9.2,7.1-16.1,16.2-16
	C307.6,221.9,314.5,229,314.3,238.1z M298,306.6c-8.9,0.2-15.7,7-15.8,15.9c-0.1,9.1,6.9,16.2,16,16.2c9.1,0,16.2-7,16.1-16.2
	C314.3,313.4,307.1,306.4,298,306.6z"/>
</svg>
