<?xml version="1.0" encoding="utf-8"?>
<!-- Generator: Adobe Illustrator 23.0.3, SVG Export Plug-In . SVG Version: 6.00 Build 0)  -->
<svg version="1.0" id="Layer_1" xmlns="http://www.w3.org/2000/svg" xmlns:xlink="http://www.w3.org/1999/xlink" x="0px" y="0px"
	 viewBox="0 0 473 663" style="enable-background:new 0 0 473 663;" xml:space="preserve">
<path style="fill:#0B7C49;" d="M223.9,642.5c-5.9-2.4-12.3-2.3-18.4-3.5c-65.6-13.6-114.9-49.3-146.6-108.7
	c4.8-0.8,9.5,0.4,14.2,0.4c113.7-0.1,227.3-0.1,341,0c5.4,0,10.6-1.3,16-1.1c-29.6,55.7-75.2,91.2-136.1,106.9
	c-10.4,2.7-21.2,4.1-31.8,6.1C249.4,642.5,236.6,642.5,223.9,642.5z"/>
<path style="fill:#BE8E30;" d="M441.4,362.9c6,12.7,8.3,26.4,10.6,40c5.7,33.9,2,67-9.3,99.3c-1.1,3.2-2.5,6.2-4.9,8.7
	c-4.5,2.5-8.6,2.1-12.5-1.3c-1.5-1.3-3.1-2.4-4.7-3.6c-15.8-15.7-31.5-31.5-47.3-47.3c-4.8-4.8-4.9-4.8-9.9,0.1
	c-14.4,14.4-28.7,28.7-43.1,43.1c-1.3,1.3-2.5,2.6-3.8,3.8c-7.4,6.8-13.1,6.9-20.3,0.1c-4.5-4.2-8.8-8.7-13.1-13.1
	c-11.6-11.5-23.2-23-34.6-34.7c-3.3-3.4-5.5-3.2-8.7,0.1c-8.7,9-17.8,17.7-26.5,26.7c-7.2,7.5-15.3,14-22.6,21.3
	c-6.7,6.6-11.8,6.6-18.5,0C157,491.1,142,476,126.9,461c-1.1-1.1-2.3-2.2-3.4-3.4c-2.5-3-4.7-2.7-7.4,0
	c-8.6,8.8-17.4,17.5-26.2,26.2c-7.5,7.5-15,14.9-22.3,22.5c-8.3,7.3-14.4,6.6-20.7-2.5c-5.5-13.1-8.4-26.8-10.5-40.7
	c-4.9-32-1.5-63.4,7.3-94.3c0.7-2.4,2-4.7,3-7c7.2-5.2,10.6-4.7,18.8,2.7c16.5,16.7,33.3,33.2,49.8,50c3.5,3.5,5.7,3.6,9.2,0
	c15.3-15.6,30.9-31.1,46.4-46.5c8.5-8.4,13.8-8.4,22.3,0c15.5,15.5,31.1,30.9,46.4,46.5c3.5,3.5,5.7,3.6,9.2,0
	c15.3-15.6,30.9-31.1,46.4-46.5c8.6-8.6,13.7-8.7,22.2-0.1c15.4,15.3,30.7,30.7,46.1,46c5,5,5.1,5,9.9,0.2
	c16.2-16.2,32.5-32.3,48.5-48.7c1.4-1.4,2.7-2.8,4.2-4.1C432,356.3,436.6,356.8,441.4,362.9z"/>
<path style="fill:#A03234;" d="M156.6,242c0.1-9,0.2-17.9,0.2-26.9c0.3-33,26.2-59.4,59.3-60.2c5-0.1,10-0.2,14.9,0
	c2.9,0.1,3.7-1,3.6-3.8c-0.2-7.8-0.1-15.5,0-23.3c0-2.4-0.9-4.1-2.2-5.9c-6.6-9-13.1-18-19.5-27.1c-9.9-14.1-9.4-32.3,1.1-45.6
	C224.4,36,241.9,31,257.5,36.8c15.5,5.7,25.7,21.1,24.9,37.7c-0.4,7.7-3,14.7-7.5,21c-6.1,8.4-12,16.9-18.2,25.2
	c-2.1,2.9-3.1,5.7-3,9.3c0.3,7,0.2,13.9,0,20.9c-0.1,3.2,1,4,4.1,4c9.9,0,19.8-0.6,29.6,2.1c25.7,7.3,43.7,30.6,44,57.4
	c0.1,9.2,0.2,18.3,0.3,27.5c3.2,8.4-0.4,14.7-9.8,17.2c-2.9,0.1-5.4-1.1-8-2.1c-46.2-17.8-92.4-17.7-138.7-0.4
	c-2.8,1-5.5,2.3-8.5,2.6C157,257.6,153.4,251.5,156.6,242z"/>
<path style="fill:#0B7C49;" d="M429.9,335.5c-7.4-3.8-15.4-1.7-23.1-2.6c-4.4-2.4-6.4-7-9.2-10.8c-17.9-25.1-40.8-44.3-68.1-58.6
	c-2.8-1.5-6.7-1.7-7.6-5.8c9-1.8,9.9-8.5,9.7-15.9c32.4,14.4,58.7,36.2,80.1,64.3C418.7,315.4,425,325,429.9,335.5z"/>
<path style="fill:#0B7C49;" d="M81.6,333c-7.3,0.6-14.7-0.3-22,1c16.3-31.5,39.3-56.9,69-76.3c9-5.8,18-11.5,27.9-15.8
	c1,12.8,1.5,13.7,9.9,15.8c-0.4,3.6-3.7,3.8-6,5c-20.1,11-39.2,23.2-54.8,40.3c-6.7,7.3-12.7,15.2-18.1,23.5
	C86,329.1,84.4,331.6,81.6,333z"/>
<path style="fill:#FEC555;" d="M181.5,387.1c1.9,0,2.7,1.3,3.6,2.3c14.8,14.8,29.5,29.6,44.4,44.3c2.3,2.3,2,3.5-0.1,5.7
	c-14.9,14.7-29.6,29.5-44.3,44.4c-2.5,2.5-4,2.2-6.3-0.1c-14.7-14.9-29.5-29.6-44.3-44.3c-1.8-1.8-2.6-3-0.3-5.2
	c15.2-15,30.2-30.1,45.3-45.1C180.1,388.1,180.9,387.5,181.5,387.1z M354.3,434.2c-15.2-15.2-30.4-30.4-45.6-45.6
	c-2.2-2.2-3.6-1.4-5.4,0.4c-14.9,15-29.8,29.9-44.8,44.7c-2,2-2.1,3.2,0,5.3c15,14.8,29.9,29.7,44.8,44.7c2.1,2.2,3.6,2.4,5.8,0.1
	c14.8-15,29.8-29.9,44.7-44.9c0.8-0.8,1.9-1.4,1.9-3C355.4,435.4,354.9,434.8,354.3,434.2z M105.9,438.4c1.8-1.8,1.2-2.8-0.3-4.3
	c-14.7-14.6-29.3-29.2-43.9-43.9c-2.5-2.5-3.3-2.4-4.2,1.4c-4.4,20.5-6.1,41.2-3.3,62c1.3,9.7,2.3,19.6,6.3,30.1
	C76.1,468.2,91,453.3,105.9,438.4z M429.3,387.8c-16.8,15.2-32,30.6-47.2,45.9c-2,2-1.1,3.4,0.5,4.9c14.8,14.7,29.5,29.5,45.1,45.1
	C436.2,451.4,436.8,420.1,429.3,387.8z"/>
<path style="fill:#00A551;" d="M404.7,534.2c-15.9,40.3-93.7,85.4-143.8,88.5c-92.6,5.7-155.2-49.5-177.2-88.5
	C190.6,534.2,297.4,534.2,404.7,534.2z M87.6,333.2c104.2,0,208.4,0,312.6,0c2.2,0,4.4-0.1,6.6-0.2c-13.4-21.2-30.1-39.5-50.3-54.5
	c-10.8-8-22.9-14-34.6-20.7c-2.8-0.9-5.7-1.7-8.5-2.8c-32-12.4-64.9-15.8-98.9-10.8c-16.6,2.5-32.3,7.8-48,13.5
	c-2.4,1.4-4.8,2.7-7.2,4.1c-18.6,10.3-36.4,21.4-51.4,36.9c-10.1,10.5-18.4,22.2-26.3,34.3C83.6,333.1,85.6,333.2,87.6,333.2z"/>
<path style="fill:#FE5257;" d="M65,365.6c0.1-0.1,0.4-0.3,0.4-0.4c2.3-12.2,10.4-13.3,21.3-13.3c106.7,0.4,213.5,0.2,320.2,0.3
	c10.4,0,9.1-2.1,13.6,9.2c0.7,1.7,1.3,3.3,1.9,5c-17.1,17.3-34.2,34.5-51.2,51.9c-3.3,3.4-4.8,0.6-6.6-1.3
	c-16.2-16.2-32.4-32.4-48.6-48.6c-7.7-7.7-11.6-7.7-19.5,0.2c-16.2,16.2-32.5,32.3-48.5,48.6c-2.9,2.9-4.6,3.1-7.6,0.1
	c-15.9-16.2-32-32.2-48.1-48.2c-8.4-8.4-12.2-8.4-20.8,0.2c-15.9,15.9-31.8,31.8-47.8,47.7c-1.9,1.9-3.4,4.6-6.6,1.2
	C99.8,400.6,82.4,383.1,65,365.6z M371.2,454.4c-2.9-3-4.4-0.9-6.2,1c-16.2,16.2-32.4,32.4-48.6,48.5c-7.8,7.8-12.3,7.8-20.1,0
	c-16.1-16-32.2-32-48-48.2c-3.2-3.2-4.9-3.2-8,0c-16.2,16.4-32.4,32.8-49.3,48.6c-7.8,7.2-11.1,7.5-18.5,0.1
	c-16.3-16.3-32.6-32.7-49-49c-1.8-1.8-3.3-4-6.2-1C100.7,471.3,84,488,67.3,504.9c2.5,9.4,9.1,10,17.6,10c106-0.3,212-0.3,317.9,0
	c8.5,0,15.7-0.1,18.2-10C404.5,488,387.7,471.3,371.2,454.4z M282.4,176c-9.6-2.3-19.7-2.3-29.6-1.8c-10.3,0.5-20.5,0.3-30.8,0.3
	c-20.6,0-37.7,9-44,29.3c-2.5,8.1-1.6,16.5-1.9,24.9c-0.1,4.7,1.3,5.4,5.5,3.9c15.2-5.4,31.1-8.3,47.1-9.3
	c23.9-1.5,47.6,0.2,70.8,6.7c4,1.1,9.3,5.1,12,2.4c2.3-2.2,0.9-8.3,1.1-12.6C314.7,195.8,298.8,180,282.4,176z"/>
<path style="fill:#FDFDFD;" d="M224.7,73c0-9.3,5-16.6,12.7-19.3c8.1-2.9,17.5-0.2,22.6,6.3c5,6.5,5.5,15.2,0.8,22.2
	c-4.6,6.9-9.7,13.6-14.5,20.4c-1.1,1.6-2.1,3-3.9,0.5c-5.2-7.5-10.6-14.8-15.7-22.4C225,78.2,224.6,75.1,224.7,73z"/>
<path style="fill:#0B7D49;" d="M275.4,604.5c-5,0.3-8.3-2.5-9.4-6.8c-1.2-4.7-0.2-9.3,5.3-11.2c6.6-2.2,13.3-4,19.8-6.2
	c18.7-6.2,35.2-16.3,49.9-29.3c4.6-4,11.9-4.2,15-0.3c3.2,3.9,2.2,11.2-2.2,14.9c-21.6,18.1-45.6,31.4-73.2,37.7
	C278.9,603.9,277.1,604.2,275.4,604.5z"/>
<path style="fill:#0B7D49;" d="M239.4,609.1c-5.7,0-9.5-3.5-9.5-8.9c0-5.4,3.9-9.2,9.3-9.1c5.6,0.1,9.8,3.9,9.8,9
	C249,605.1,244.7,609.1,239.4,609.1z"/>
<path style="fill:#A03234;" d="M65,365.6c-5.2-5.4-11.1-7.9-18.3-4c3.2-9.7,6.9-19.3,13-27.7c7-4.6,14.9-2.4,22.4-2.8
	c40-0.4,79.9-0.1,119.9-0.2c63.6-0.1,127.3,0,190.9,0c4.4,0,8.7,0,13.1,0.2c4.3-0.3,8.6,0,12.8-0.1c4.3-0.1,8,1.2,11,4.4
	c4.5,8.8,8.8,17.7,11.6,27.3c-7.7-5.3-8.4-5.2-19,3.5c-2.6-1.2-3.5-3.8-4.4-6.1c-1.7-4.6-4.9-6.5-9.6-6.2c-2,0.1-4,0-6,0
	c-105.6,0-211.3,0-316.9-0.1c-7.8,0-14.8,0-17.4,9.3C67.8,364.5,66.6,365.5,65,365.6z M58.9,530.3c2.8,2.3,6.1,2.4,9.6,2.4
	c116.8,0,233.7,0,350.5,0c4.1,0,7.9-0.6,11.2-3.2c2.6-6.2,5.2-12.5,7.8-18.7c-7,1.9-11.8-2.3-16.7-6.1c-1.4,0-2.5,0.7-2.9,1.8
	c-2.3,5.7-7,6.2-12.2,6.2c-107.8-0.1-215.7,0-323.5,0c-5.2,0-10-0.3-12.3-6.1c-0.4-1.1-1.5-1.8-2.9-1.8c-7.4,5.9-10.4,6.4-16.2,2.2
	c-1.4-1-2.8-2.2-4.1-3.3C49.8,513.1,53.8,521.9,58.9,530.3z M253.7,381.4c0.1-4.9-5.1-10.2-9.8-10.1c-4.3,0.1-9.2,5-9.3,9.2
	c-0.2,5.5,3.9,9.8,9.4,9.8C249.4,390.4,253.7,386.5,253.7,381.4z M120.1,371.4c-4.5-0.1-9.5,4.9-9.7,9.6c-0.2,5.1,4,9.3,9.4,9.4
	c5.4,0.1,9.5-3.8,9.7-9.2C129.6,376.7,124.7,371.5,120.1,371.4z M367.4,372.3c-5.3,0.1-9.5,4-9.5,8.7c0.1,5.1,5.4,10.2,10.6,10.1
	c4.7-0.1,8.5-4.5,8.4-9.8C376.9,376,372.9,372.2,367.4,372.3z M376.9,488.4c-0.2-5.2-4.4-9.4-9.5-9.4c-4.5,0-9.6,5.3-9.5,9.7
	c0.1,5.6,4.3,9.4,10.1,9.3C373.4,497.9,377.1,493.9,376.9,488.4z M129.4,488.5c0-4.5-5.2-9.6-9.6-9.5c-4.5,0-9.4,5.1-9.5,9.8
	c-0.1,5.1,4.1,9.2,9.4,9.3C125.4,498,129.5,494,129.4,488.5z M253.7,488.7c-0.1-4.7-5-9.7-9.5-9.7c-4.5,0-9.5,5.1-9.5,9.6
	c0,5.6,4.1,9.5,9.8,9.4C249.7,497.9,253.9,493.7,253.7,488.7z"/>
</svg>
