<?xml version="1.0" encoding="utf-8"?>
<!-- Generator: Adobe Illustrator 23.0.3, SVG Export Plug-In . SVG Version: 6.00 Build 0)  -->
<svg version="1.0" id="Layer_1" xmlns="http://www.w3.org/2000/svg" xmlns:xlink="http://www.w3.org/1999/xlink" x="0px" y="0px"
	 viewBox="0 0 612 612" style="enable-background:new 0 0 612 612;" xml:space="preserve">
<path style="fill:#A13234;" d="M225.2,156.1c-5.5-4.2-11.3-7-16.5-10.8c-19.9-14.6-28.6-36.9-23.2-59.6
	c5.1-21.4,23.1-38.5,43.9-41.9c24.4-4,45.8,5.8,59.2,26.8c7.2,11.3,12,23.6,15.9,36.4c0.6,1.9,1.2,3.7,2.2,6.6
	c2.9-8.3,5.2-15.6,8-22.6c4.6-11.7,10.4-22.8,19.5-31.9c22.5-22.6,60-21.6,81.1,2.1c21.5,24.2,18.4,61.2-6.7,81.3
	c-6.3,5-13.4,8.8-20.3,13.6c2.3,0,4.6,0,6.8,0c48.2,0,96.4,0,144.6,0c20.5,0,31.9,11.6,31.8,32c0,23.1,0,46.2,0,69.2
	c0,9.1-3.2,12.4-12.3,12.4c-6.8,0-13.7,0.3-20.5-0.1c-4.4-0.3-5.1,1.4-5.1,5.3c0.1,55,0.1,110.1,0.1,165.1c0,34.2,0,68.3,0,102.5
	c0,17.5-12.1,29.7-29.5,29.7c-131.5,0-263,0-394.4,0c-18.1,0-30-12.3-30-30.4c0-89,0-178,0.1-267c0-4.2-1.1-5.4-5.2-5.2
	c-7.2,0.3-14.4,0.2-21.6,0.1c-7.3-0.1-11-3.6-11-10.8c-0.1-24.9-0.2-49.9,0-74.8c0.1-15.9,13-27.9,29.7-28c37.1-0.1,74.2,0,111.4,0
	C197.2,156.1,211.2,156.1,225.2,156.1z"/>
<path style="fill:#FE5257;" d="M250.3,411.7c0,45.2-0.1,90.4,0.1,135.7c0,4.7-0.9,6.2-6,6.2c-44.7-0.2-89.3-0.1-134-0.1
	c-8.2,0-11.6-3.6-11.6-12.6c0-71.1,0-142.1,0-213.2c0-17.7,0.1-35.4-0.1-53.2c0-3.6,1-4.7,4.6-4.6c47.4,0.1,94.9,0.1,142.3,0
	c4.2,0,4.7,1.6,4.7,5.1C250.2,320.5,250.3,366.1,250.3,411.7z M363.6,411.8c0,45.4,0,90.8,0,136.2c0,3.1-0.4,5.5,4.3,5.5
	c45.4-0.2,90.8-0.1,136.2-0.1c7.2,0,10.8-3.7,10.9-11c0.1-5.2,0-10.3,0-15.5c0-84,0-168,0.1-252c0-3.6-0.6-5.1-4.7-5.1
	c-47.3,0.2-94.5,0.2-141.8,0c-4.3,0-5.1,1.2-5.1,5.3C363.6,320.6,363.5,366.2,363.6,411.8C363.6,411.8,363.6,411.8,363.6,411.8z"/>
<path style="fill:#B7131F;" d="M155.7,250.9c-29.7,0-59.5-0.1-89.2,0.1c-4.3,0-5.6-1-5.6-5.5c0.3-19.4,0.1-38.8,0.1-58.2
	c0-9,3-12,11.9-12c57.2-0.1,114.5,0,171.7-0.1c4.2,0,5.7,0.9,5.7,5.5c-0.2,21.8-0.2,43.6,0,65.4c0,3.9-1,5-4.9,4.9
	C215.5,250.8,185.6,250.9,155.7,250.9z M547.4,251c4.5,0,5.5-1.3,5.5-5.6c-0.2-19.6,0-39.1-0.1-58.7c0-8.1-3.4-11.5-11.4-11.5
	c-57.6,0-115.1,0-172.7-0.1c-4.2,0-5.3,1.1-5.2,5.3c0.2,21.8,0.2,43.5,0,65.3c0,4.1,1,5.3,5.2,5.2c29.7-0.2,59.4-0.1,89.1-0.1
	C487.6,250.9,517.5,250.8,547.4,251z"/>
<path style="fill:#00A651;" d="M344.6,364.6c0,60.9-0.1,121.9,0.1,182.8c0,4.6-0.8,6.3-5.9,6.2c-21.2-0.3-42.5-0.2-63.7,0
	c-4.3,0-6-0.7-6-5.6c0.1-122.4,0.1-244.8,0-367.2c0-3.9,0.8-5.5,5.2-5.4c22,0.2,43.9,0.3,65.9,0c5.1-0.1,4.5,2.8,4.5,6
	C344.6,242.3,344.6,303.5,344.6,364.6C344.6,364.6,344.6,364.6,344.6,364.6z M391.7,66.4c-18-10.1-39.2-3.9-50.7,14.7
	c-13.3,21.6-18.2,46.1-22.8,70.6c-0.5,2.8,0.8,3.1,3.1,2.7c5-1,10.1-1.9,15.2-3c19-4.1,37.6-9.1,54.5-19.2
	c12.5-7.5,19.4-18.3,20-33.8C410.4,84.7,404.4,73.5,391.7,66.4z M220.8,130.7c22.1,14,47.3,19,72.5,23.7c2.9,0.5,2.4-1.3,2.1-3
	c-1-5.1-1.8-10.2-2.9-15.2c-4.2-19.3-9.2-38.3-19.8-55.4c-9.8-15.8-26.5-22.5-43.2-17.5c-15.7,4.7-26.6,19.2-26.6,37
	C203.4,112.5,209.3,123.4,220.8,130.7z"/>
</svg>
