<?xml version="1.0" encoding="utf-8"?>
<!-- Generator: Adobe Illustrator 23.0.3, SVG Export Plug-In . SVG Version: 6.00 Build 0)  -->
<svg version="1.0" id="Layer_1" xmlns="http://www.w3.org/2000/svg" xmlns:xlink="http://www.w3.org/1999/xlink" x="0px" y="0px"
	 viewBox="0 0 585.2 627.1" style="enable-background:new 0 0 585.2 627.1;" xml:space="preserve">
<path style="fill:#050505;" d="M33.8,173.5c2.1-1.1,4-3.3,6.8-1.6c2.7,1.6,2.5,4.2,2.5,6.7c0,7.8,0,15.5,0,23.3c0,2-0.4,4,1.2,5.6
	c5.4,5.4,10.9,10.9,17.2,17.2c0-10.2,0-19.1,0-28c0-7.5,3.3-11.4,9.3-11.4c5.9,0,9.2,4,9.2,11.5c0,5.8,0,11.5,0,18.8
	c6.9-6.9,12.9-13,18.9-19c1.7-1.7,3.3-3.3,5-5c2.1-2.1,4.4-2.8,6.7-0.6c2.5,2.3,2,4.9-0.1,7.1c-5.6,5.7-10.7,11.9-17,16.7
	c-10.9,8.5-15.1,18.7-13.7,32.6c1.3,12.9,0.4,26,0.2,39c0,3.9,1,6.8,3.8,9.6c9.2,9,18.1,18.1,28.4,28.5c0-6.9,0-12.3,0-17.8
	c0-3.4-0.1-6.9,0-10.3c0.1-2.8,1.3-5,4.5-5.1c3.4-0.1,4.8,2,4.8,5.2c0,10.8,0.1,21.7-0.1,32.5c-0.1,3.1,0.8,5.4,3.1,7.6
	c8.4,8.2,16.7,16.5,24.9,24.9c2.1,2.2,3,2.1,4.5-0.7c10.4-20,24.7-36.8,42.3-50.8c3.4-2.7,5.6-6.2,6.6-10.3
	c1.7-7.3,4.6-14.1,9.3-19.9c1.8-2.3,1.2-3.5-0.2-5.5c-18.5-25.5-24.3-53.7-18.1-84.6c1.6-8.2,5.3-15.6,8.1-23.5
	c-7.2-2.5-14.4-4.9-20.6-9.3c-11.8-8.3-11.9-18.9,0.1-26.9c11.3-7.5,24.4-10.4,37.5-13.1c9-1.8,9-1.7,9-10.7c0-13.2,0-26.4,0-39.6
	c0-16.7,12.7-29.4,29.4-29.5c22.2-0.1,44.4,0.4,66.6-0.2c10.1-0.3,18.4,2.5,25.2,9.6c5.2,5.4,7.9,11.8,7.9,19.5
	c-0.2,14.6,0,29.3-0.1,43.9c0,3.6,0.2,5.6,4.8,6.2c10.5,1.4,20.8,4.1,30.8,8.1c4,1.6,7.9,3.5,11.5,6c11.3,8,11.3,18.2,0,26.3
	c-4,2.9-8.4,4.8-12.9,6.7c-2.6,1.1-5.4,1.9-8.3,3c5.4,11.6,9,23.6,10.1,36.3c2.2,26-4.1,49.7-19.5,70.8c-2,2.8-2.3,4.5-0.1,7.3
	c4.3,5.2,6.8,11.4,8.4,18c1.1,4.8,3.5,8.6,7.3,11.7c17.2,13.7,31.1,30.1,41.3,49.5c2.1,4.1,3.3,3.3,5.8,0.7
	c7.9-8.2,16-16.2,24.1-24.1c2.3-2.2,3.1-4.5,3-7.6c-0.2-10.3,0-20.6-0.1-30.9c0-3.3,0.2-6.5,4.4-6.7c4.6-0.2,4.9,3.3,4.9,6.7
	c0,8.2,0,16.4,0,26.1c10.9-10.9,20.8-20.8,30.6-30.8c1.7-1.7,1.5-4,1.5-6.1c0-18.4-0.1-36.8,0.1-55.3c0-2.8-1-4.7-2.9-6.6
	c-8.2-8.1-16.4-16.3-24.5-24.5c-2.6-2.7-7.5-5.4-3.4-9.7c4.6-4.8,7.3,0.8,10,3.4c6.7,6.4,13.2,13.1,20.8,20.7c0-7.6,0-14,0-20.4
	c0-3.9,1.5-7.1,5.1-8.9c3.1-1.6,6.3-1.4,9.3,0.5c3.2,2.1,4.1,5.3,4.1,8.9c0,9.2,0,18.4,0,29.2c6.6-6.7,12.4-12.3,17.9-18.3
	c0.9-1,0.6-3.1,0.6-4.7c0.1-7.9,0-15.9,0-23.8c0-3.3,0.5-6.5,4.7-6.5c4.1,0,4.6,3.1,4.6,6.5c-0.1,8.5-0.1,17,0,25.5
	c0,4.6-1.6,8.4-4.9,11.6c-6.7,6.6-13.2,13.4-20,19.9c-2.1,2.1-3,4.2-3,7.1c0.1,14.6,0,29.3,0.1,43.9c0.1,9.4-3.2,17.1-9.8,23.7
	c-23.3,23.2-46.5,46.5-69.8,69.6c-2.4,2.3-3.1,4.2-2,7.4c5.4,15.7,7.8,31.8,7.7,48.4c-0.1,20.4,0.7,40.8-1.4,61.2
	c-3,29.3-13,54.7-39.3,71.1c-14.7,9.2-30.9,14.5-47.8,17.9c-16.7,3.4-33.5,5.1-50.5,5.6c-11.5,0.8-23,0.1-34.5,0.4
	c-29,0.5-57.3-3-84.3-14.2c-27.4-11.4-45.6-31-52.6-60.4c-3-12.7-4.7-25.5-4.7-38.6c0-15.2,0.2-30.3-0.1-45.5
	c-0.2-14,1.7-27.8,6-41.1c2.1-6.4,1.1-10.8-3.9-15.7c-21.7-21.1-42.9-42.9-64.5-64.1c-7.9-7.7-11.7-16.4-11.3-27.5
	c0.5-12.1-0.2-24.2,0.2-36.3c0.2-6.7-1.8-11.8-6.8-16.2c-4.7-4.2-8.9-8.9-13.5-13.3c-3-2.9-5.7-6-6.5-10.3
	C33.8,196.6,33.8,185,33.8,173.5z"/>
<path style="fill:#8F8F8F;" d="M274.4,591.8c0-0.3,0-0.6-0.1-0.9c12,0,24,0,36,0c-0.1,0.3-0.1,0.6-0.1,0.9
	C298.2,591.8,286.3,591.8,274.4,591.8z"/>
<path style="fill:#FEFEFE;" d="M368.7,564.7c-15.9,5.1-32.5,6.6-49,7.3c-28.3,1.3-56.7,1.3-84.8-3c-11.9-1.8-23.6-4.7-34.9-9.3
	c-25.2-10.2-39.8-29-43.4-55.5c-4.3-32.1-5.2-64.5-0.1-96.6c4.7-29.7,19.6-54.6,41.7-75.1c1.9-1.8,3.3-1.9,5.6-0.8
	c39.2,18.6,80.3,23.1,122.9,16.8c3.3-0.5,4.3,0.2,5.2,3.2c5.5,19.6,5.7,39.1,0.2,58.7c-2.4,8.5-1.2,10,7.5,10
	c7.6,0,15.2,0.1,22.7-0.1c2.8-0.1,3.9,0.5,3.3,3.5c-1.3,5.6-2.1,11.3-3.5,16.9c-0.7,3-0.5,5.3,2.3,7c14.6,0.7,29.2,0.2,43.7,0.2
	c3.6,0,5.4,1.1,5.4,4.8c0.2,22.3,1.3,44.7-5.6,66.4C401.3,540.1,389.5,556.3,368.7,564.7z"/>
<path style="fill:#FEFEFE;" d="M335.1,283.9c-28.9,19.5-74.6,14.5-99.4-10.3C220.1,258,210.3,240,208.8,218
	c-1.1-16.1,3.1-31,10.5-45.1c1.2-2.2,2.6-2.3,4.9-1.9c29.3,4.8,58.8,5.6,88.4,4.6c11-0.4,21.9-1.5,32.9-2.3c4.3-1,5.2,2.4,6.3,5.2
	c7.8,20,8.7,40.3,2.7,60.9c-3.5,12.1-9.1,23.1-17.4,32.7c-2.6,3-4.7,5.9-1.7,9.9C335.9,282.5,335.5,283.3,335.1,283.9z"/>
<path style="fill:#E41E27;" d="M390.7,439c-4.7,0-9.4-0.2-14.1,0.1c-3.7,0.2-4.5-0.8-3.6-4.4c3.4-14.9,3.9-29.9,1.3-45.1
	c-2.7-15.9-8.2-30.6-17.7-43.6c-2.5-3.4-1.6-4.2,1.8-5.2c5.1-1.6,10.1-3.7,15.1-5.7c2.3-1,3.7-1.1,5.3,1.3
	c16.6,24.6,29.4,50.8,31.8,81c0.5,6-0.2,11.9-0.8,17.8c-0.3,2.7-1.3,4.1-4.4,3.9C400.5,438.8,395.6,439,390.7,439z M358.3,318.5
	c-5.3-4.3-8.9-9.8-11.4-16.1c-0.5-1.3-1.3-2.7-3.2-2.1c-39.3,21.1-77.1,18.7-113.3-7.3c-3.3-2.4-4.6-1.7-6.3,1.5
	c-3,5.8-3,12.7-6.9,18.1c-2.7,3.7-1.1,4.7,2.4,6.2c27.8,12,57,15.5,86.9,13.7c18.1-1.1,35.7-4.4,52.5-11.6
	C359.4,319.9,359,319.1,358.3,318.5z"/>
<path style="fill:#D6DDE1;" d="M368.7,564.7c9.4-6.3,18.8-12.4,25.8-21.7c8.6-11.6,12.9-24.7,15.4-38.6c3.1-16.8,1.9-33.7,2.3-50.6
	c0.1-3.7-1-5-4.8-4.9c-12.4,0.2-24.9,0.1-37.3,0c-1.9,0-4,0.7-5.6-1c15.5,0.1,31,0,46.5,0.2c4.1,0.1,5.7-2.1,6.6-5.6
	c4.1-16.9,2.5-33.6-1.9-50.2c-2.3-8.9-5.5-17.5-9.2-25.9c-3.6-8.1-7.8-16-12.5-23.6c2.6-0.8,3.4,1.1,4.5,2.4
	c20.2,24,31.3,51.7,32.1,83c0.6,22.3,0.9,44.7-1,67.1C426.3,532.5,403.4,558.9,368.7,564.7z"/>
<path style="fill:#3AB44A;" d="M338.1,125.9c0.2,2.1,0.2,4.3,0.8,6.4c1.7,5.7,8.5,9.1,12.7,5.4c5.4-4.8,10.6-2.4,16.1-1.8
	c1.1,0.1,2.1,0.6,3.1,0.8c7.2,4.3,7.6,8.5,1.2,13c-14.2,3.8-28.7,5.2-43.2,6.4c-24.3,2-48.7,1.9-73,0c-19.8-1.6-39.4-4.3-58.5-9.8
	c-2.1-0.6-4-1.5-6.9-2.6c7.1-4.4,14.5-5.2,21.5-6.8c3.1-0.7,6.4-0.9,9.6-1.6c3.8-0.8,6.9-1,10.4,1.9c5.3,4.5,13.2,0.6,14.3-6.4
	c0.2-1.6,0.1-3.2,0.1-4.9c0.1-10,0.1-10,10.3-10c21.1,0,42.2,0.1,63.4,0.2c1.4,5.5,5.1,7.5,10.7,7.5
	C333.1,123.6,336,123.8,338.1,125.9z M321.4,83.9c0.2-7.1,0.4-14.2-0.2-21.3c-0.2-2.6-1.2-4.8-3.5-6.3c-21.1-0.1-42.2-0.2-63.4-0.2
	c-5.5,0-8.1,2.6-8.2,7.9c-0.2,6.9,0,13.7-0.1,20.6c0,2.5,0.7,3.5,3.4,3.5c23.5-0.1,46.9-0.2,70.4-0.3
	C320.9,86.7,321.4,85.4,321.4,83.9z"/>
<path style="fill:#D6DDE1;" d="M335.1,283.9c-6.1-5.8-1.5-9.8,2-14.3c21.8-28.2,25.1-59.1,12.9-92.1c-0.8-2.2-1.9-3.9-4.4-4.2
	c5.3-0.8,10.6-1.6,15.9-2.6c2.5-0.5,3.1,1.2,4,2.8c17.1,29.7,12.8,68.3-10.6,93.9C349,273.7,342.8,279.8,335.1,283.9z"/>
<path style="fill:#A3041B;" d="M353.2,411.1c-3.2-0.4-8.4,1.7-10.6-1c-1.6-2,0.7-7.1,1.3-10.8c2.4-16.3,1.6-32.3-2.6-48.2
	c-0.5-1.7-2.1-3.9,0.3-5.2c2.4-1.3,4,0.6,5.3,2.4c13.7,17.4,19.5,37.5,19.7,59.4c0,2.6-0.9,3.5-3.4,3.4
	C360.1,411,357,411.1,353.2,411.1z M367.4,317.7c1.4-0.5,2.3-1.3,1.2-2.8c-4.3-6-4.9-13.4-7.9-19.9c-1.6-3.5-3.3-5.1-7-1.8
	c-3,2.7-6.7,4.7-10.1,7c4.2,7.5,7.8,15.5,15.2,20.6C361.8,319.8,364.6,318.7,367.4,317.7z"/>
<path style="fill:#0B9343;" d="M319.9,87.8c0-6.7-0.1-13.3,0.1-20c0.1-4.1-0.5-7.9-2.1-11.6c4.3,0,8.6,0.2,12.9,0.1
	c5-0.2,7.4,2.6,7.5,7.1c0.3,7,0,14,0.1,21c0.1,3-1.4,3.6-4,3.5C329.6,87.9,324.7,87.9,319.9,87.8z M338.4,122.1
	c0.8-4.9-1.1-6.8-6.1-6.2c-4.1,0.4-8.3,0.2-12.4,0.2c0.1,3.7-1,8.1,5.1,8.5c4.4,0.3,8.8,0.9,13.2,1.3
	C338.2,124.6,338.2,123.4,338.4,122.1z M394.2,143.5c-8-4.2-15.7-5.7-23.4-6.8c5.8,6.6,5.8,6.8,1.2,13
	C379.3,148.7,386.5,147,394.2,143.5z"/>
<path style="fill:#010101;" d="M292.4,494.4c12.1,0.1,23.2,11.3,23.1,23.3c-0.2,11.9-11.1,22.8-23,22.9c-12,0.1-23.3-11.1-23.3-23.1
	C269.1,505.5,280.3,494.3,292.4,494.4z"/>
<path style="fill:#000001;" d="M292.1,475.9c-12.1-0.1-23.2-11.3-23-23.3c0.2-11.9,11.1-22.7,23-22.8c12.1-0.1,23.3,11,23.3,23.1
	C315.4,464.9,304.3,475.9,292.1,475.9z"/>
<path style="fill:#000001;" d="M292.4,365.2c12.2,0.1,23.2,11.2,23,23.3c-0.2,12-11,22.7-23,22.7c-12.2,0.1-23.3-10.9-23.3-23
	C269.1,376.1,280.2,365.2,292.4,365.2z"/>
<path d="M292.5,222.1c12.8-0.6,28.3,15.2,20.9,31.3c-4.4,9.6-10.6,18-17,26.3c-2.5,3.2-5.6,3.4-8.1,0.1c-6.5-8.2-12.6-16.7-17-26.2
	C263.6,237.1,279.6,221.3,292.5,222.1z"/>
<path style="fill:#010101;" d="M342.9,208.3c0,9.6-8.7,18.3-18.3,18.3c-9.5,0-18.4-8.7-18.6-18.2c-0.1-9.6,9.1-18.8,18.8-18.7
	C334.3,189.8,343,198.7,342.9,208.3z"/>
<path style="fill:#010101;" d="M241.6,207.9c0.1-9.6,9-18.3,18.5-18.2c9.4,0.1,18.4,9.1,18.4,18.5c0,9.6-9.2,18.6-18.9,18.4
	C250,226.4,241.5,217.6,241.6,207.9z"/>
<path style="fill:#FCB435;" d="M319.9,106.3c-23.4,0.1-46.8,0.1-70.2,0.3c-4.3,0-3.4-2.5-3.5-4.9c-0.1-2.5-0.2-4.4,3.5-4.3
	c23.4,0.2,46.8,0.2,70.3,0.3C322,100.5,321.9,103.4,319.9,106.3z M333.4,106.5c3.5,0.2,5.1-0.5,5.1-4.6c0-4.2-1.7-4.7-5.2-4.5
	c-4.5,0.3-9,0.2-13.5,0.2c0,2.9,0,5.7,0,8.6C324.4,106.3,328.9,106.3,333.4,106.5z M306,517.4c0-8.3-5.1-13.5-13.4-13.6
	c-8.6-0.1-14,5-14,13.5c-0.1,8.5,5.2,13.9,13.7,13.9C300.7,531.2,306,525.9,306,517.4z M292.1,439c-8.1,0.1-13.5,5.4-13.5,13.6
	c-0.1,8.4,5.4,14.1,13.6,14.1c8.2,0.1,13.8-5.6,13.8-13.9C306,444.4,300.5,438.9,292.1,439z M292,402.1c8.1,0.2,13.8-5.2,14-13.2
	c0.2-8.7-5.3-14.6-13.7-14.7c-7.9,0-13.6,5.5-13.7,13.5C278.4,396.3,283.7,401.9,292,402.1z M299.9,259.2c1.7-2.5,3.2-5.2,4.5-8
	c3.1-6.6,1.7-13.2-3.3-17.1c-4.9-3.8-12.7-3.8-17.6,0c-5,3.9-6.4,10.5-3.3,17.1c3,6.6,7.1,12.4,12.3,18.5
	C295.1,265.9,297.7,262.6,299.9,259.2z"/>
<path style="fill:#050505;" d="M324.6,199.1c5.7,0,9.2,3.4,9.2,9c0,5.4-3.6,9.3-9,9.4c-5.8,0.1-9.4-3.5-9.3-9.4
	C315.5,202.3,318.7,199.1,324.6,199.1z"/>
<path style="fill:#050505;" d="M269.1,208.1c0,5.7-3.2,9.2-8.8,9.4c-5.6,0.2-9.6-3.8-9.5-9.4c0.1-5.5,3.6-8.9,9.3-8.9
	C265.8,199.2,269,202.3,269.1,208.1z"/>
</svg>
