<?xml version="1.0" encoding="utf-8"?>
<!-- Generator: Adobe Illustrator 23.0.3, SVG Export Plug-In . SVG Version: 6.00 Build 0)  -->
<svg version="1.1" id="Layer_1" xmlns="http://www.w3.org/2000/svg" xmlns:xlink="http://www.w3.org/1999/xlink" x="0px" y="0px"
	 viewBox="0 0 554.9 555.1" style="enable-background:new 0 0 554.9 555.1;" xml:space="preserve">
<path style="fill:#FCD462;" d="M358.7,228.9c2.1,1.5,4.6,0.9,6.9,0.9c18.9,0.1,37.8,0,56.7,0.1c21.9,0.1,43.2,14.5,51.5,35.4
	c9,22.6,5.1,43.2-11.4,61.2c-8.6,9.4-19.1,15.4-31.8,17.1c-5-6.3-11.9-6.8-19.3-6.7c-80.1,0.1-160.1,0.1-240.2,0.1
	c-3.2,0-6.4-0.2-9.5,0.5c-3.7,0.9-6,3.2-6,7.1c0,3.9,2.4,6.2,6,7.1c2.3,0.6,4.7,0.5,7.1,0.5c82.1,0,164.1-0.1,246.2,0.1
	c6.6,0,11.4-2.3,15.7-6.8c21.5,2.6,42.1,22.1,46.4,44.1c7.3,36.8-19.3,69.5-56.8,69.6c-89.8,0.1-179.6,0.3-269.4,0
	C95.6,459.2,47,415.4,39.4,360.9c-6.6-47.5,17.3-94.1,58.5-116.8c12.4-6.9,25.7-11.6,39.9-13.1c0.7-0.1,1.4-0.6,2.1-0.9
	c3.1-3,7.1-2.1,10.8-2.1c62.9-0.1,125.8,0,188.7,0c4.6,0,9.2,0.1,13.7-0.4C355.1,227.3,357.2,227.1,358.7,228.9z"/>
<path style="fill:#299CD2;" d="M358.7,228.9c-70.9,2.2-141.9,0.4-212.8,0.9c-2,0-4,0.1-6,0.2c-21.1,0-42.2-0.1-63.3-0.1
	c-29.4,0-54.3-22.5-57.3-51.8c-2.9-28.6,16.7-55.4,45.1-61.7c0.8-0.2,1.6-0.2,2.4-0.3c5.2,6.4,12.2,6.8,19.9,6.8
	c79.8-0.2,159.6-0.1,239.4-0.1c3.2,0,6.4,0.2,9.5-0.5c3.9-0.9,6.4-3.3,6.3-7.5c-0.1-3.9-2.6-6.1-6.3-6.9c-2.5-0.6-5.1-0.5-7.7-0.5
	c-81.2,0-162.4,0.1-243.6-0.1c-7.1,0-12.8,1.7-17.5,6.8C40,109.9,19.4,85.9,19.2,58.7C19.1,30.3,38.9,6,66.2,1.5
	c15-2.5,30.2-1,45.3-1c77.3-0.2,154.5,0,231.8-0.1C402,0.3,450.4,42.6,458.1,100.9c8.1,61-35.8,119.1-96.5,127.8
	C360.7,228.8,359.7,228.8,358.7,228.9z"/>
<path style="fill:#D05241;" d="M0.3,516.7c-0.1-11.1,0.1-22.3-0.3-33.4c-0.1-4,1.2-4.9,5-4.9c35,0.1,70.1,0,105.1,0
	c146,0,291.9,0,437.9-0.1c5.3,0,7.2,1.1,6.9,6.7c-0.5,10.5-0.3,21.1-0.4,31.6c-1.7,1.8-3.9,1.8-6.1,1.9c-2,0.1-4,0.1-6,0.1
	c-176.7,0-353.4,0-530.2,0C8.3,518.7,3.9,519.7,0.3,516.7z"/>
<path style="fill:#E46353;" d="M0.3,516.7c184.8,0,369.5,0,554.3,0c0.1,11.1-0.1,22.3,0.3,33.4c0.2,4.7-1.9,4.9-5.6,4.9
	c-37.4-0.1-74.9,0-112.3,0c-142,0-284,0-425.9,0c-10.8,0-10.9,0.1-10.9-10.9C0.1,535,0.2,525.9,0.3,516.7z"/>
<path style="fill:#1C75A1;" d="M66.8,114.2c1.5-6.5,5.8-8.7,12.3-8.7c84.4,0.1,168.8,0.1,253.2,0.1c8,0,12.2,3.4,12,9.8
	c-0.2,6.1-4.2,9.3-12,9.3c-84.4,0-168.8,0-253.2,0.1c-6.5,0-10.8-2.1-12.3-8.7C66.8,115.4,66.8,114.8,66.8,114.2z"/>
<path style="fill:#F6C358;" d="M430.6,345.6c-1.3,6.3-5.3,8.6-11.6,8.6c-84.8-0.1-169.6,0-254.4,0c-7.5,0-11.6-3.6-11.4-9.9
	c0.1-6,4.1-9.3,11.4-9.3c84.8,0,169.6,0,254.4-0.1c6.3,0,10.3,2.3,11.6,8.6C430.5,344.3,430.6,344.9,430.6,345.6z"/>
</svg>
