<?xml version="1.0" encoding="utf-8"?>
<!-- Generator: Adobe Illustrator 23.0.3, SVG Export Plug-In . SVG Version: 6.00 Build 0)  -->
<svg version="1.1" id="Layer_1" xmlns="http://www.w3.org/2000/svg" xmlns:xlink="http://www.w3.org/1999/xlink" x="0px" y="0px"
	 viewBox="0 0 513.1 513.1" style="enable-background:new 0 0 513.1 513.1;" xml:space="preserve">
<path style="fill:#0076BE;" d="M455.1,472.8c-36,0.1-71.9,0.1-107.9,0.2c-16.7,0-33.3,0-50,0c-17.7,0-32.1-14.2-32.2-31.9
	c-0.1-15.3-0.1-30.6-0.1-46c0.6-2.1,2.4-2.6,4-3.4c31.3-14.7,62.7-29.4,94-44.2c7.7-3.6,15.2-7.5,23.1-10.8c2.6-1.1,5.2-2.3,7.4-4.1
	c5.2-4,7.3-10.1,5.3-16c-2-6.2-6.6-9.5-12.9-10.2c-5-0.5-10-0.4-15,0c-14.9,1.3-29.9,1.8-44.8,2.8c-14.6,1-29.2,1.6-43.8,2.7
	c-5.7,0.4-11.6,1.5-17.2-1c-0.1-40-0.4-80,0-120c0.1-16.5,14.8-30,31.3-30.1c10.8-0.1,21.7-0.1,32.5-0.1c2-1.6,4.4-1.5,6.7-1.5
	c32.9,0,65.8,0,98.8,0c2.3,0,4.7-0.1,6.7,1.5c5,0.1,10,0.2,15,0.3c16.6,3.5,26.4,15.4,26.4,32.6c0.1,82,0.1,164,0,246
	c0,12.5-5.1,22.5-15.6,29.6C463.3,471.7,459.2,472.2,455.1,472.8z"/>
<path style="fill:#E9C5BA;" d="M265.2,311.1c22.6,0,45.1-2.4,67.6-3.3c16.9-0.7,33.7-2.5,50.7-2.7c8.9-0.1,15.5,4.9,17.3,12.8
	c1.6,7.3-2.1,14.5-9.9,18.2c-40.9,19.2-81.9,38.4-122.8,57.6c-1.1,0.5-2.1,1-3.1,1.6c-13.7,6.5-27.5,12.7-41,19.5
	c-4.5,2.3-8.6,0.8-12.6,0.2c-21.5-3-42.9-6.5-64.3-9.6c-19.8-2.9-39.7-5.5-59.5-8.3c-2.1-0.3-4.3-0.7-6.4-1
	c-1.9-1.8-1.7-4.3-1.7-6.6c-0.1-36.6,0-73.2,0-109.8c0-2.3-0.2-4.7,1.6-6.6c24.5-2.2,48.1,3.6,71.8,8.4
	c26.4,5.4,52.9,10.4,79.3,15.7c8.9,1.8,14.1,7.6,16.8,15.9c1,8.4-5,15.9-13.6,17.2c-2.3,0.4-4.6,0.3-7,0.3c-22.3,0-44.6,0-66.9,0
	c-2.5,0-5-0.2-7.3,1c-2.5,1.3-4.4,3.2-4,6.3c0.4,3.2,2.4,5,5.6,5.5c1.8,0.3,3.7,0.2,5.5,0.2c23.1,0,46.3-0.5,69.4,0.2
	c16.8,0.5,32-13.5,32-27.9c0-1.3,0.3-2.6,1.3-3.7C264.4,311.8,264.8,311.5,265.2,311.1z"/>
<path style="fill:#00A2E0;" d="M455.1,472.8c10.7-3.2,19-9,23.4-19.7c1.7-4.2,2.5-8.5,2.5-13.1c0-82.1,0-164.2,0-246.3
	c0-15-8-26.3-22.3-31.4c-0.9-0.3-1.8-0.8-2.6-1.3c6.8,0,13.7-0.3,20.5,0c14.9,0.5,28.4,15.2,28.5,30.8c0,69.4,0,138.8,0,208.3
	c0,13.7,0,27.3,0,41c0,17.9-14,31.9-31.9,31.9C467.1,473,461.1,472.9,455.1,472.8z"/>
<path style="fill:#E32A17;" d="M49.1,401c0,0.7-0.2,1.3-0.1,2c0.9,13-3.5,14.5-14,14c-6.8-0.3-13.7-0.4-20.5,0.1
	c-4.9,0.3-5.7-1.6-5.7-5.9c0.1-47.5,0.1-95,0.1-142.5c0-5.2,0.2-10.3-0.1-15.5c-0.1-3.2,0.8-4.4,4.2-4.3c8.8,0.2,17.7,0,26.5,0.1
	c6.6,0,9.3,2.8,9.4,9.5c0,2.2,0.1,4.3,0.1,6.5c1.6,2,1.5,4.4,1.5,6.7c0,40.9,0,81.8,0,122.7C50.6,396.7,50.7,399.1,49.1,401z"/>
<path style="fill:#FDCB66;" d="M361,73c-12.3,0-24.6,0.1-37-0.1c-3.3,0-5.6,1-7.9,3.3c-5.2,5.4-10.5,10.7-15.9,15.9
	c-6.5,6.4-16.3,6.6-22.3,0.4c-6.8-7-6.8-16.2,0-23c7.9-7.9,15.8-15.7,23.6-23.7c3.2-3.3,7.1-4.8,11.6-4.8c45.1,0,90.2,0,135.4,0
	c9.4,0,16.3,6.8,16.4,15.8c0.1,9.2-6.9,16.2-16.5,16.2c-13.2,0-26.3,0-39.5,0c-1.8,1.6-3.9,1.6-6.1,1.6c-11.9,0-23.9,0-35.8,0
	C365,74.6,362.8,74.6,361,73z"/>
<path style="fill:#FDCB66;" d="M49.1,401c0-45.4,0-90.7,0-136.1c7.6,0,15.2,0,22.7,0c5.9,0,8.1,2,9.1,8c0,41,0,81.9,0,122.9
	c-2.6,4.1-6.2,5.4-11,5.1C63.1,400.8,56.1,401,49.1,401z"/>
<path style="fill:#FF7D9D;" d="M200.9,257c-23.8,0-38.6-23.8-28.3-45.2c6.8-14.2,16.1-26.6,25.4-39.2c2.2-3,4.2-2.6,6.2,0.1
	c9.1,12.4,17.9,25,25.2,38.7C240.8,233.2,223,257.7,200.9,257z"/>
<path style="fill:#E5B85E;" d="M361,73c16,0,32,0,48,0c0,21.3,0,42.7,0,64c-1.7,1.7-3.9,1.6-6.1,1.6c-12,0.1-23.9,0.1-35.9,0
	c-2.1,0-4.4,0.1-6.1-1.6C361,115.7,361,94.3,361,73z"/>
<path style="fill:#FF7D9D;" d="M361,137c16,0,32,0,48,0c9,0,18,0.2,26.9-0.1c3.8-0.1,5.4,0.8,5.1,5c-0.3,6.3-0.1,12.6,0,18.9
	c-37.4,0-74.7,0-112.1,0c0-6.5,0.2-13,0-19.5c-0.1-3.6,1.2-4.5,4.6-4.5C342.7,137.1,351.8,137,361,137z"/>
<path style="fill:#D2B0A8;" d="M263.9,312.1c2.5,17.7-15.8,33.6-32.5,33.1c-24.4-0.8-48.9-0.2-73.4-0.2c-6.1,0-10-3.1-10-8
	c0-4.2,4.8-8,10.3-8c24,0,47.9,0,71.9,0c11.3,0,15.9-3.8,17.9-14.8c0.1-0.4,0.6-0.8,0.9-1.2C254,313.4,258.9,311.4,263.9,312.1z"/>
</svg>
