<?xml version="1.0" encoding="utf-8"?>
<!-- Generator: Adobe Illustrator 23.0.3, SVG Export Plug-In . SVG Version: 6.00 Build 0)  -->
<svg version="1.0" id="Layer_1" xmlns="http://www.w3.org/2000/svg" xmlns:xlink="http://www.w3.org/1999/xlink" x="0px" y="0px"
	 viewBox="0 0 511.6 435.4" style="enable-background:new 0 0 511.6 435.4;" xml:space="preserve">
<path style="fill:#FDCB66;" d="M511.6,229.2c0,8,0,16,0,24c-1,6.7-0.7,13.5-1.7,20.2c-2.1,14.1-7.1,27.3-12.4,40.4
	c-9.8,24.3-23.8,45.8-42.9,63.7C435.9,395,414.3,408,390.3,417c-22.5,8.5-45.8,13.8-69.7,16.4c-16.4,1.8-32.9,2.4-49.3,1.6
	c-40.9-2-80.6-9.9-117.6-28.1c-21.1-10.4-40.2-23.6-54-43.3c-14.3-20.6-18.8-43.3-14.8-67.9c3.3-19.8,10.4-38.2,21.5-54.9
	c6.5-9.8,6-19.4,2.2-29.4c-4.4-11.6-12.4-20.7-21.5-29.1c-2.2-2-4.8-1.9-7.5-2.2c-2.2-0.2-4.9,0.2-5.3-3.1c2-0.7,3.9-1.3,5.9-2
	c1.4-1.5,2.8-3,4.3-4.5c-0.1-1-0.2-2-0.3-3c0.4-1.1,0.8-2.2,1.2-3.4c-0.2-2.7-0.4-5.5-0.7-8.4c-1.6-13.8-5.1-25.8-9-36
	c-0.3-1.1-0.5-2.2-0.8-3.3c-1-0.9-2.2-2.2-2.8-4c-1-2.8-0.4-5.4-0.2-6.4c12.1-51,42.6-76.4,42.6-76.4C130.8,15.5,150,7.9,171.8,7
	c20.4-0.8,40.1,2.1,59.3,9.2c4.7,1.7,9.3,3.7,13.6,6.2c3.8,2.2,7.5,2.2,11.5,0.8c11-3.7,20.4-9.7,27.1-19.5c1.3-1.9,2.6-4.5,5.3-3.5
	c2.4,0.9,2.7,3.6,3,5.9c0.7,7.9-2.5,14.3-7.5,20c-1.2,1.4-2.7,2.4-3.9,4.2c2.3,1.3,4.4,0.1,6.4,0c2.2-0.1,4.7-0.4,5.9,1.8
	c1.3,2.3-0.7,4-2.1,5.6c-2.7,3.1-6.1,5.2-9.8,6.7c-3.3,1.4-3.8,2.8-1.5,5.9c12.3,16.2,18.5,34.7,20.6,54.9
	c1.8,16.8,0.2,33.2-2.3,49.7c-1.2,7.9,3.8,12.8,11.7,11.6c40.9-6.2,80.6-1.9,119.2,13c5.4,2.1,11,3.9,16.5,5.8
	c6.2,2.2,10.2,1,13.8-4.4c5.5-8.3,12.2-15.4,19.6-21.9c0.9-0.8,1.7-1.6,2.7-2.3c8.2-5.9,13.9-3.9,16.6,5.9c5,18.2,7.1,23.4,7.1,23.4
	C506.1,197.8,508.4,211.7,511.6,229.2z"/>
<path style="fill:#E5B85E;" d="M189.3,245.3c-0.8,2.3-1.4,4.6-2.3,6.8c-9.7,23.3-6.3,45.2,6.9,66.1c10,15.7,23,28.4,39,37.8
	c12.5,7.4,26.2,11.4,40.5,13.1c20.3,2.4,40.4,0.9,60.4-3.4c18.5-4,36.3-9.8,53.5-17.4c13.5-6,27-12.3,39.3-20.5
	c2.9-1.9,6-3.5,10.1-4.3c-0.8,2.2-2.4,3.3-3.9,4.4c-16.1,12.7-34.2,22-52.7,30.1c-18.7,8.2-38.2,14.7-58.4,18.5
	c-24.6,4.6-49.2,5.9-73.6-1.3c-15.8-4.7-30-12.2-42.1-23.8c-12.7-12.3-23.5-25.8-29.1-42.9c-4-12.5-4.2-25-1-37.7
	C178.6,261.3,182.4,252.6,189.3,245.3z"/>
<path style="fill:#FDFDFD;" d="M135,82.1c16.5,0.1,29.8,13.3,29.6,29.4c-0.2,16.6-13.7,29.7-30.2,29.5c-16-0.2-28.8-13.7-28.7-30.4
	C105.7,95,119.1,82,135,82.1z"/>
<path style="fill:#E6B85E;" d="M448,297.9c-9.1,16.5-40.5,31.6-57,21.8C411.4,316.3,430.9,311.3,448,297.9z"/>
<path style="fill:#000000" d="M151.9,111.3c0,9.7-7.2,17-16.9,17.1c-9.5,0.1-17.1-7.6-17-17s7.9-17.1,17.3-17C144.5,94.5,152,102.1,151.9,111.3z"/>
<path style="fill:#F4F4F4;" d="M142.6,102.5c-0.1,2.5-1.3,3.8-3.6,3.9c-2.4,0.1-3.8-1.3-3.8-3.6c-0.1-2.2,1.1-3.8,3.6-3.8
	C141.1,99.1,142.3,100.4,142.6,102.5z"/>
<path style="fill:#E32A17;" d="M3.1,113.1c-0.6-2.8-1.3-5.6-1.9-8.4c0.3-0.1,0.6-0.3,1-0.4c3.3,5,6.6,10,9.9,15
	c4.9,7.5,10.2,14.5,18.2,19.3c9.9,6,20.9,6.6,32.3,5.9c8.5-0.5,16.6-3,24.8-4.7c3.2-0.7,5.8-2.1,7.9-4.4c4.2,7.9,4.2,16.2,1.9,24.7
	C95,164.5,93,169,89,172.3c-1.4-1.5-1.5-1.5-0.9-3.5c0.9-2.7,1.6-5.5,1.8-8.3c0.2-3-1.1-3.8-4.1-2.9c-1.6,0.5-3,1.3-4.5,2
	c-14.7,7.8-29.4,15.4-44.2,22.9c-3.4,1.7-5.7,5.2-9.8,5.5c-1.2,0.2-2.2-0.2-3-1.1c0.5-1.5,1.9-2.1,3-3c16.9-13,35.8-22.7,55.8-30.6
	c1.2-0.5,2.5-0.8,4.2-2.1c-11.5,2-22.3,2.8-33.3,1.5c-2.7-0.3-5.3-1.8-8.2-1.2C24.3,146.1,9.5,133.8,3.1,113.1z"/>
<path style="fill:#BF180B;" d="M45.8,151.6c0.4-0.7,1.1-1.1,1.9-0.9c12.5,2.3,25.2,1.8,37.8-0.1c1.6-0.2,3.2-0.2,4.8,1.2
	c-10.9,4.4-21.6,8.8-31.9,14c-9.9,5-19.2,11-28,17.5c-1.9,1.4-4,2.5-6,3.7c-2.8-2.5-1.7-5.4-0.3-8c5.2-9.2,12.5-16.9,21-23.5
	c1.1-0.9,2.3-1.8,3.6-2.8C47.7,152.2,46.7,151.9,45.8,151.6z"/>
<g>
	<path style="fill:#E32A17;" d="M91.3,126.7c-6.7-11.8-14.8-23-14.7-37.3c-3,2.1-5.8,4.4-8.9,6.4c-12.5,8.2-25.8,13-41.1,10.8
		c0,0,0,0,0,0c-3.7-1.1-7.3-2.2-11-3.3c-3.2-2.1-6.3-4.5-9.8-6.2c-3.5-1.8-6-0.2-5.8,3.5c0.3,4.3,1,8.7,3.1,12.6
		c0.6-2.4,0.6-2.4-0.1-5.6c5.4,7.9,10.4,17.8,18.6,25.8c8.3,8.1,18.7,11.9,30.8,12.4c12.7,0.5,24.8-2.3,36.9-5.4
		c2.7-0.7,5.5-1.7,6-5C94.8,132.1,92.9,129.5,91.3,126.7z"/>
	<path style="fill:#E32A17;" d="M89.9,156c-1.6-1.2-2.9-0.2-4.5,0.3c-2.7,0.9-5.1,2.3-7.5,3.7c-16.8,9.5-35,16.4-50.6,27.9
		c3.9,0.9,7-1.8,10.4-2.5c0.1,0,0.1,0.1,0.2,0.1c4.9-1.1,9.9-2.3,14.8-3.4c9.5-1.7,19.1-2.7,28.7-2.1c2.1-3,5.8-4.6,7.6-7.8
		c-1.1-0.6-0.5-1.6-0.2-2.2c1.7-2.9,1.7-6.2,2.5-9.4C91.7,158.8,91.5,157.2,89.9,156z"/>
</g>
<path style="display:none;fill:#EDF1F3;" d="M105.9,111.4c0-15.6,13.1-29.6,28.7-29.2c17.8,0.4,29.4,14.2,29.3,29.5
	c-0.1,16.3-12.9,29.3-29.2,29.4C118.5,141.1,105.9,128.1,105.9,111.4z"/>
<path style="display:none;fill:#41B1DF;" d="M109,111.1c0.2-12.3,7.9-22.1,17.3-22.1c9.6,0,17.5,10.4,17.4,22.8
	c-0.1,12.1-7.1,21.7-16.3,22.3C116.9,134.7,108.8,124.5,109,111.1z"/>
<path style="display:none;fill:#445C6C;" d="M130.7,111.7c0,7.2-4.2,13.1-9.5,13.1c-5.1,0-10.4-6.4-10.5-12.7
	c-0.1-7.3,4.6-13.3,10.3-13.2C126.7,99,130.6,104.2,130.7,111.7z"/>
</svg>
