<?xml version="1.0" encoding="utf-8"?>
<!-- Generator: Adobe Illustrator 23.0.3, SVG Export Plug-In . SVG Version: 6.00 Build 0)  -->
<svg version="1.1" id="Layer_1" xmlns="http://www.w3.org/2000/svg" xmlns:xlink="http://www.w3.org/1999/xlink" x="0px" y="0px"
	 viewBox="0 0 512.2 512.2" style="enable-background:new 0 0 512.2 512.2;" xml:space="preserve">
<path style="fill:#0076BE;" d="M208,370.4c-35.6-9.1-67-25.8-92.8-52.1C95.3,298,81.1,274.6,76.6,246c-2.2-13.8-2.4-13.8,11.1-13.8
	c84.8,0,169.6,0,254.4,0c3.3,0,6.7-0.1,10-0.2c5.4-2.2,10.7-2.2,16.1,0c21,0,42,0.2,62.9,0c4.5,0,5.6,1.1,5.3,5.5
	c-1.4,22.6-9.7,42.7-22.8,60.8c-27.3,37.8-64.8,60.4-109.4,72c-1.2,1.5-2.9,2.1-4.7,2.5c-19.7,4.1-39.4,5.9-59.6,4.1
	c-8.6-0.8-17.2-2.2-25.7-3.7C211.9,372.7,209.6,372.4,208,370.4z"/>
<path style="fill:#FDCB66;" d="M208,370.4c32.1,7.6,64.1,7.6,96.2,0c-0.1,14.1,1.6,28.1,2.7,42.1c0.9,10.4,1.5,20.8,2.1,31.2
	c0.8,13.1,1.4,26.1,3,39.1c0.4,3.5-0.1,5.5-4.6,5.4c-14.5-0.3-29-0.2-43.4-0.2c-1.7-1.9-1.4-4.3-1.4-6.6c-0.1-8.6,0-17.2-0.1-25.9
	c-0.1-5.4-0.7-5.9-6.7-5.8c-5.5,0-6.1,0.5-6.2,5.8c-0.1,8.6,0,17.2,0,25.9c0,2.3,0.3,4.7-1.5,6.6c-14.6,0-29.3,0-43.9,0.2
	c-3.4,0-4.4-1.1-4.2-4.3c1.3-15.3,2.5-30.7,3.9-46c0.4-4.8,0.6-9.6,0.8-14.4C205.6,405.7,208.1,388.1,208,370.4z"/>
<path style="fill:#BBE3EE;" d="M368.2,231.9c-5.4,0-10.7,0-16.1,0c0-14.5-0.1-28.9,0.1-43.4c0-3.4-0.9-4.8-4.4-4.5
	c-3.8,0.3-7.6,0.1-11.5,0.1c-2.7-5.4-2.7-10.7,0-16.1c4,0,8-0.2,12,0.1c3.2,0.2,3.9-1.1,3.9-4.1c-0.1-30.3,0.2-60.6-0.2-91
	c-0.2-18.4-14.9-35.3-33.7-39.9c-18.3-4.5-38.5,4-47.8,19.9c-3.4,5.8-5.6,12-6.3,18.7c-5.4,2.7-10.7,2.7-16.1,0
	c3.1-33.8,31.1-57.9,64.7-55.8c26.1,1.6,49.7,23,54.2,48.9c0.7,4.1,1,8.2,1,12.4C368.1,128.9,368.2,180.4,368.2,231.9z"/>
<path style="fill:#E32A17;" d="M248.1,71.9c5.4,0,10.7,0,16.1,0c4.2,0.1,8.3,0.3,12.5,0.1c2.3-0.1,3.6,0.6,4.2,3
	c2.3,9.5,4.6,19,7.1,28.8c-21.3,0-42.3,0-63.8,0c2.5-9.9,4.9-19.7,7.3-29.5c0.5-2.1,1.9-2.3,3.7-2.3C239.5,72.1,243.8,72,248.1,71.9
	z"/>
<path style="fill:#E32A17;" d="M336.3,168.1c0,5.4,0,10.7,0,16.1c-0.4,8-0.4,8-8.3,8c-6.8,0-13.7-0.1-20.5,0.1
	c-2.6,0.1-3.5-0.6-3.4-3.3c0.2-8.5,0.2-17,0-25.5c-0.1-2.7,0.9-3.4,3.5-3.3c7.8,0.1,15.7,0.3,23.5,0c4.1-0.2,5.9,0.8,5.2,5.1
	C336,166,336.2,167.1,336.3,168.1z"/>
<path style="fill:#E5B85E;" d="M248.2,488c0-11.9,0-23.9-0.2-35.8c-0.1-3.4,1.2-4.1,4.3-4.2c11.8-0.1,11.8-0.2,11.7,11.6
	c0,9.4-0.1,18.9-0.1,28.3C258.7,488,253.5,488,248.2,488z"/>
<path style="fill:#84BCFE;" d="M161.2,289.9c0,6.8-6.3,10.5-11.8,7c-9-5.6-16.5-13-23.5-20.8c-3.1-3.5-2.6-9,0.5-11.7
	c3.7-3.2,7.5-3,11.4,1c6.6,6.6,12.9,13.5,20.7,18.7C160.6,285.5,161.5,287.6,161.2,289.9z"/>
<path style="fill:#E5B85E;" d="M248.1,423.8c0-7.7,0-7.8,9.7-7.7c7.6,0.1,6.3-1.1,6.3,9.5c0,7.8,1.3,6.4-9.9,6.4
	C246.9,432.1,248.2,432.7,248.1,423.8z"/>
</svg>
