<?xml version="1.0" encoding="utf-8"?>
<!-- Generator: Adobe Illustrator 23.0.3, SVG Export Plug-In . SVG Version: 6.00 Build 0)  -->
<svg version="1.1" id="Layer_1" xmlns="http://www.w3.org/2000/svg" xmlns:xlink="http://www.w3.org/1999/xlink" x="0px" y="0px"
	 viewBox="0 0 512.2 512.2" style="enable-background:new 0 0 512.2 512.2;" xml:space="preserve">
<path style="fill:#BBE3EE;" d="M466.2,213.9c0,73,0,145.9-0.1,218.9c0,3.5,0.5,6.9-2.1,10c-3.1,3.7-7.2,4.4-11.6,4.4
	c-33.5,0-67,0-100.4,0c-65.5,0-130.9,0-196.4,0c-3.5,0-7.1-0.2-10-2.2c-3.1-2.2-4.5-5.3-4.5-9.4c0.1-32.1,0.1-64.3,0-96.4
	c0-8.9,1.3-7.8-8-7.9c-1,0-2,0-3,0c0.7-3,3.3-2.4,5.3-2.5c2.9-0.3,4.1-1.7,4.1-4.5c0-1,0-2,0-3c-0.1-35.3,0.1-70.6,0.2-105.9
	c0.6-23.3-0.5-46.6-4-69.7c-3.2-20.8-7.8-41.3-18.4-59.9c-4.4-7.6-9.7-14.4-18.1-18c-1.1-0.5-2.2-1-2.2-2.4c53,0,106-0.1,159-0.1
	c51.2,0,102.3,0.6,153.4-0.3c18-0.3,28.3,7.7,35.7,22.3c9.3,18.2,14,37.7,17.1,57.8c1.8,11.3,2.6,22.7,3.8,34
	c0.3,2.8,1.5,3.2,3.8,3.2c5.5-0.1,11-0.1,16.5,0c1.6,0,3.4-0.4,4.8,0.9c-2.5,2.5-5.6,1.6-8.5,1.7c-3.3,0.2-6.7,0.1-10,0
	c-3.7-0.1-5,1.6-4.9,5.1c0.1,6,0.1,12,0,18C467.6,209.9,467.9,212.1,466.2,213.9z"/>
<path style="fill:#FF7D9D;" d="M97,65.2c15.3,5.4,22,18.4,27.6,32c7.5,18.5,11.4,37.9,13.7,57.8c2.3,19.7,3.2,39.3,2.8,59.1
	c-1,9.2-0.4,18.5-1.5,27.7c-2.9,23.7-7.8,46.9-18.9,68.3c-2.5,4.8-5.7,9-9.1,13c-5.5,6.4-12.3,8.7-20.5,7c-9.2-2.2-14.4-9.2-19-16.5
	c-9-14.2-13.5-30.2-16.9-46.5c-3.3-15.7-5.9-31.6-5.9-47.7c0-4.5-1.4-5.5-5.7-5.6c-6.8,0-13.6,1-20.3-0.5c1.2-1.8,3.1-1.8,4.9-1.8
	c14.7-0.3,29.5-0.1,44.2,1c0.5,0,0.9,0.3,1.4,0.5c1.9,1.4,1.6,3.5,1.9,5.4c1.6,10.5,3.3,21,8.5,30.5c1.2,2.2,2.6,4.2,4.4,6
	c5,4.9,9.5,4.5,13.8-1.1c4.4-5.8,6.8-12.5,8.6-19.5c1.8-6.9,2.8-14,3.3-21.1c0.7-9.8,0.6-19.6,0-29.4c-0.7-10.2-2.3-20.2-5.6-29.8
	c-1.4-4.2-3.5-7.9-6.1-11.4c-4.9-6.6-11.2-6.5-15.9,0.2c-6,8.7-8.2,18.8-10.3,29c-0.8,3.8,0.2,8.1-2.7,11.5
	c-2.2,1.5-4.7,1.4-7.2,1.4c-12.1,0-24.2,0.1-36.3,0c-2.4,0-5,0.4-6.9-1.8c6.7-1.3,13.6-0.6,20.3-0.5c3.9,0.1,5.5-0.8,5.6-5.1
	c0.9-27.9,5.5-55.1,15.8-81.1c3.6-9.2,8.6-17.6,15.9-24.5C85.4,67.4,90.7,65.1,97,65.2z"/>
<path style="fill:#0076BE;" d="M73.9,214c-16.9-0.6-33.8-1.4-50.7-0.6C14,212,8.8,206.3,8.9,197.8c0.1-8.2,5.5-13.8,14.4-14.9
	c15.9,0,31.8,0.1,47.8,0.1c0.9,0,1.9-0.5,2.8-0.7c6.8-1.5,13.6-0.5,20.4-0.7c5.2-0.2,10.3-0.1,15.5,0c2,0,4,0.2,5.7,1.5
	c1.3,10.3,1.2,20.7,0,31c-0.5,0.4-1.1,1-1.7,0.9c-7.6-1.1-15.2,1.6-22.8,0.1c-3.3-0.6-6.6-0.4-9.9,0.2C78.5,215.6,76,215.9,73.9,214
	z"/>
<path style="fill:#CBCBCB;" d="M91,330.2c14.8,1.4,21.8-9,27.7-19.7c9.5-17,14.2-35.7,17.3-54.7c2.1-12.7,3.7-25.5,4-38.5
	c0-1.2-0.1-2.4,1-3.2c0,37.1,0,74.3,0.1,111.4c0,3.8-1.2,5-4.9,4.7c-2-0.1-4.4-0.8-6.2,0.9c-11.4,0-22.9,0-34.3,0
	C94.1,331,92.4,331.5,91,330.2z"/>
<path style="fill:#0076BE;" d="M466.2,213.9c0-8.9,0.1-17.9-0.2-26.8c-0.1-3.4,1.1-4.2,4.2-4.2c6.9,0.2,13.9,0,20.9,0
	c9.3,3.3,13.4,9.4,12.1,18c-1.2,7.7-7.9,12.9-17,13C479.5,214,472.8,213.9,466.2,213.9z"/>
<path style="fill:#0076BE;" d="M219.5,198.1c2.3,0,4.7,0,7,0c5.3,0,7.2,2.8,5.6,8.1c-0.5,1.9-1.8,1.6-3.1,1.6
	c-6.3,0-12.6-0.1-18.9,0.1c-4.8,0.2-3.5-3.1-3.8-5.8c-0.3-2.9,0.5-4.4,3.8-4.1C213.2,198.3,216.4,198.1,219.5,198.1z"/>
<path style="fill:#0076BE;" d="M261.7,198.1c2.2,0,4.3,0,6.5,0c6.5,0,6.4,0,6.1,6.7c-0.1,2.4-1,3.2-3.3,3.1
	c-6.3-0.1-12.6-0.2-18.9,0c-4.4,0.1-3.5-2.8-3.7-5.4c-0.2-2.8,0-4.9,3.8-4.5C255.4,198.3,258.5,198.1,261.7,198.1z"/>
<path style="fill:#0076BE;" d="M345.8,207.8c-2.7,0-5.3-0.2-8,0c-3.6,0.4-5.1-0.6-4.8-4.5c0.2-3.2,0-5.7,4.6-5.3
	c5.9,0.5,11.9,0.3,17.9,0.1c3.1-0.1,3.8,1.4,3.4,3.9c-0.4,2.3,1.5,5.8-3.1,5.8C352.4,207.8,349.1,207.8,345.8,207.8z"/>
<path style="fill:#0076BE;" d="M388.1,198.1c2.3,0,4.7,0,7,0c6.3,0,6.2,0,5.9,6.3c-0.1,2.2-0.7,3.4-3.1,3.4
	c-6.6-0.1-13.3-0.1-19.9,0c-4.1,0-2.7-3-2.7-5s-1.1-5,2.9-4.8C381.5,198.2,384.8,198.1,388.1,198.1z"/>
<path style="fill:#0076BE;" d="M430.3,198.1c2.5,0,5,0.3,7.5-0.1c4.7-0.7,5.6,1.3,5.4,5.5c-0.2,3.1-0.7,4.5-4.1,4.3
	c-5.8-0.3-11.6-0.3-17.4,0c-4.2,0.2-4.5-1.8-4.5-5.1c0-3.1,0.4-5.1,4.2-4.7C424.3,198.3,427.3,198,430.3,198.1L430.3,198.1z"/>
<path style="fill:#0076BE;" d="M176.9,207.8c-2.5,0-5-0.2-7.5,0.1c-4.6,0.6-5.6-1.4-5.4-5.7c0.1-3.2,0.9-4.3,4.2-4.2
	c5.8,0.3,11.6,0.3,17.4,0c4.2-0.3,4.3,1.7,4.4,5c0.1,3.6-0.8,5.2-4.7,4.9C182.6,207.6,179.8,207.8,176.9,207.8L176.9,207.8z"/>
<path style="fill:#0076BE;" d="M303.7,207.8c-2.5,0-5-0.3-7.4,0.1c-4.5,0.6-5.7-1.1-5.5-5.5c0.1-3.5,1.1-4.5,4.5-4.4
	c5.9,0.3,11.9,0.2,17.9,0c3.9-0.1,3.2,2.5,3.1,4.6c-0.1,2.2,1.2,5.4-3.1,5.2C310,207.7,306.8,207.8,303.7,207.8L303.7,207.8z"/>
<path style="fill:#F0F1F1;" d="M115.4,183c-12.1,0-24.2,0-36.3-0.1c-1.8,0-3.7,0.5-5.3-0.7c1-12.5,3.2-24.7,9.1-35.9
	c2.5-4.8,5.3-9.7,11.4-10c6.2-0.3,9.2,4.7,11.8,9.4C112.4,157.3,114.5,170,115.4,183z"/>
<path style="fill:#F0F1F1;" d="M73.9,214c13.9-0.7,27.7-1,41.6,0c-0.8,11.2-2.8,22.1-7.3,32.4c-1,2.3-2.2,4.5-3.5,6.6
	c-6.3,9.5-14,9.4-20.2-0.4c-5.3-8.3-7.5-17.7-9.2-27.2C74.4,221.7,74.3,217.8,73.9,214z"/>
</svg>
