<?xml version="1.0" encoding="utf-8"?>
<!-- Generator: Adobe Illustrator 23.0.3, SVG Export Plug-In . SVG Version: 6.00 Build 0)  -->
<svg version="1.1" id="Layer_1" xmlns="http://www.w3.org/2000/svg" xmlns:xlink="http://www.w3.org/1999/xlink" x="0px" y="0px"
	 viewBox="0 0 398.9 491" style="enable-background:new 0 0 398.9 491;" xml:space="preserve">
<path style="fill:#E4E4E4;" d="M122.7,32c0,11.7,0.5,23.3-0.1,35c-0.6,11.9-2.4,23.7-3.5,35.5c-1.9,19.1-5.5,37.9-9.3,56.7
	c-3.4,16.7-7.4,33.3-11.9,49.7c-1.6,5.9-3.3,11.8-4.9,17.7c-0.7,2.7-0.1,5.2,3.2,4.2c5.8-1.6,11.6,1.4,17.2,0c7-1.7,14.2,1.8,21-0.9
	c2.3-0.7,4.6-0.6,6.9-0.6c78.4,0,156.7,0,235.1,0c7.2,0,14.3,0.1,21.5-0.4c2.3,5.1-0.1,10.2-0.5,15.1c-1.1,16.5-4.4,32.7-9.8,48.5
	c-5.3,15.4-12.2,29.9-24.3,41.1c-6.2,5.7-13.4,10.2-19.3,16.4c-13.6,14.1-17.2,33.3-8.8,50.9c11.2,23.6,18.7,48.4,23.5,74.1
	c-1.9,1.8-4.3,1.6-6.6,1.6c-76.6,0-153.2,0-229.8,0c-2.3,0-4.7,0.2-6.6-1.6c9.4-17.8,14.6-36.7,17.1-56.7
	c1.9-14.8,0.6-29.1-3.2-43.3c-3.4-12.5-9.9-23.4-17.8-33.6c-14.3-18.4-31.4-34.7-42.2-55.7c-2.6-5.1-3.6-10.7-5.4-16
	c-0.8-2.6-2-3.7-4.9-3.8c-20.2-1.1-37.6-19.8-37.6-40.1c0-64.6,0-129.2,0-193.9c1.9-1.7,4.3-1.6,6.6-1.6c29.3,0,58.5,0,87.8,0
	C118.4,30.4,120.8,30.3,122.7,32z"/>
<path style="fill:#0076BE;" d="M397.9,229c-0.9,2.9-3.3,1.7-5,1.7c-65.4,0.1-130.8,0.1-196.2,0.1c-18.8,0-37.6,0-56.4,0
	c-1.9,0-4,0.6-5.8-0.8c6.1-17.4,19.8-27,38.3-27c61.6,0,123.2,0.1,184.8,0C376.8,202.9,390.3,211.3,397.9,229z"/>
<path d="M115.7,475c23.3,0.1,46.6,0.2,69.8,0.3c54.2,0,108.5,0,162.7,0c3.5,0,7-0.2,10.5-0.3c7.5,0.1,15,0.1,22.5,0.3
	c8.2,0.2,14.2,4.3,16.4,10.8c1.2,3.5,0.8,4.9-3.6,4.9c-38.2-0.2-76.3-0.1-114.5-0.1c-91.5,0-182.9,0-274.4,0c-5.7,0-6.2-0.7-3.9-5.8
	c3.2-7,9-9.8,16.5-9.8c30.5,0.1,61,0.1,91.5,0.1C111.4,475.3,113.6,475.1,115.7,475z"/>
<path style="fill:#E4E4E4;" d="M21.8,24c0-0.3,0-0.7,0-1c-0.1-15-0.1-15,14.5-18.7C47.8,1.5,59.6-0.2,71.5,0
	c15.8,0.3,31.2,2.9,46.1,8.4c1.8,0.7,2.9,1.4,3.3,3.6c0.8,4,0.6,7.9,0.9,11.9c-1.8,2-4.3,1.7-6.5,1.7c-29,0.1-57.9,0-86.9,0
	C26.1,25.6,23.7,25.8,21.8,24z"/>
<path style="fill:#0076BE;" d="M21.8,24c33.3,0,66.7-0.1,100-0.1c1.9,2.5,0.7,5.4,0.9,8.1c-33.7,0-67.3,0-101,0
	C21.7,29.4,21.7,26.7,21.8,24z"/>
</svg>
