<?xml version="1.0" encoding="utf-8"?>
<!-- Generator: Adobe Illustrator 23.0.3, SVG Export Plug-In . SVG Version: 6.00 Build 0)  -->
<svg version="1.1" id="Layer_1" xmlns="http://www.w3.org/2000/svg" xmlns:xlink="http://www.w3.org/1999/xlink" x="0px" y="0px"
	 viewBox="0 0 614 613.9" style="enable-background:new 0 0 614 613.9;" xml:space="preserve">
<path style="fill:#FEFEFE;" d="M307,613.8c-100.7,0-201.3,0-302,0.1c-3.9,0-5-0.6-5-4.8c0.1-201.3,0.1-402.7,0-604
	C0,0.6,1.2,0,5.3,0c201.1,0.1,402.3,0.1,603.4,0c4.1,0,5.3,0.6,5.3,5.1c-0.2,201.1-0.2,402.3,0,603.4c0,4.7-1.2,5.4-5.6,5.4
	C507.9,613.8,407.5,613.8,307,613.8z"/>
<path style="fill:#00ABE3;" d="M143.8,143.9c0.7-5.7-0.5-11.5,1.3-17.3c3.8-12.4,14.5-21,27.5-21c86.9,0,173.8,0,260.7,0
	c4.4,0,8.9-0.4,13.1,0.4c14.2,2.6,23.6,14.4,23.7,28.9c0,3,0,6-0.1,9c-1.8,2-4.3,1.9-6.6,1.9c-7.3,0-14.6,0.2-21.9-0.1
	c-6.8,0.2-13.6,0-20.3,0.1c-6.2,0.1-6.7,0.6-6.8,7c-0.1,10,0.1,19.9-0.1,29.9c0.4,3,0.2,6,0.2,9c0,73.2,0,146.3,0,219.5
	c0,3.7,0.7,7.6-1.6,11.1c-2.6,2-5.7,1.7-8.6,1.7c-83.8,0-167.7,0-251.5,0c-2.9,0-6.1,0.4-8.5-1.9c-0.1-45.5-0.1-91.1-0.2-136.6
	c-0.1-34.4-0.1-68.7-0.2-103.1c-1.2-1.5-1.6-3.2-1.6-5c-0.2-9.5-0.2-19,0-28.5C142.2,147,142.6,145.3,143.8,143.9z"/>
<path style="fill:#0076BE;" d="M412.5,422c0-80,0-159.9,0-239.9c2.3-2,5.2-1.8,7.9-1.8c6.9,0,13.9-0.2,20.8,0.1
	c7.3-0.3,14.7-0.1,22-0.1c2.4,0,4.8-0.1,6.7,1.9c0,111,0.1,222.1,0.1,333.1c0,16.4,0,32.8,0,49.1c0,12.6-7.9,20.5-20.6,20.5
	c-82.1,0-164.2,0-246.2,0c-13,0-20.7-7.8-20.8-21c-0.1-12.2-0.1-24.4-0.1-36.5c3-2.8,6.8-1.9,10.3-1.9c64.2-0.1,128.5-0.3,192.7,0.1
	c17.8,0.1,26.7-5.9,25.5-25.6c-0.4-6.7-0.3-13.6,0.1-20.3c-0.2-6.4-0.2-12.9,0-19.3c-0.2-6.4-0.2-12.9,0-19.3
	C411.2,434.8,409,428.2,412.5,422z"/>
<path style="fill:#00ABE3;" d="M412.5,479.6c0,9.2,0,18.4,0,27.6c0,12.7-7.8,20.4-20.6,20.4c-69.9,0-139.8,0-209.6,0
	c-6.2,0-12.3,0-18.5,0c-11.5-0.2-19.6-8-19.7-19.4c-0.1-9.5,0.1-19.1,0.2-28.6c2.3-2.2,5.2-1.9,7.9-1.9c84.2,0,168.3,0,252.5,0
	C407.3,477.6,410.2,477.5,412.5,479.6z"/>
<path style="fill:#DADAD8;" d="M469.9,182.3c-9.6-0.1-19.1-0.2-28.7-0.2c-0.4-0.5-1-0.8-1-1.4c-1.5-11.7-1.5-23.4,0-35.1
	c0.1-0.6,0.7-1,1-1.4c9.6-0.1,19.1-0.2,28.7-0.3c14.1,0,28.3-0.1,42.4,0.1c4.5,0.1,6.2-1.4,5.6-5.8c-0.7-6.1,1.2-12.3-1.3-18.3
	c-1-11.9-0.9-23.9-0.2-35.8c0.7-10.4,10.4-18.7,20.7-18.7c10.6,0,19.9,7.9,20.5,18.7c0.7,11.9,0.9,23.9-0.2,35.8
	c-2.6,7.2-1.1,14.6-1.1,21.9c0,9.3-2.4,17.6-7.9,25c-7.2,9.8-17,14.9-28.9,15.3C503.1,182.6,486.5,182.3,469.9,182.3z"/>
<path style="fill:#DADAD8;" d="M143.8,143.9c0,12.8,0,25.7,0,38.5c-11.9,0-23.9-0.9-35.8,0.1c-34.1,2.8-53.6-16-50.4-50.8
	c0.3-3.8,1.1-8-1.1-11.7c-1-11.9-0.9-23.9-0.2-35.8c0.7-10.7,10-18.6,20.6-18.6c10.3,0,19.7,7.7,20.5,18.1c1,12.1,0.9,24.3-0.1,36.4
	c-2.6,7.1-1,14.5-1,21.7c0,3.1,3.3,2.1,5.3,2.1C115.6,144,129.7,143.9,143.8,143.9z"/>
<path style="fill:#FF7D9D;" d="M97.3,120c-1.9-1.5-1.2-3.7-1.2-5.6c-0.1-9,0-17.9,0-26.9c0-11.6-8.1-20.2-18.9-20.3
	c-11.3-0.1-19.4,8.3-19.5,20.3c0,9,0,17.9,0,26.9c0,1.9,0.6,4-1.2,5.6c-19-9.5-30.1-29.4-27.4-49.4C31.8,50,48.5,32.2,69.9,29.2
	c34.7-4.8,60,26.2,54.2,55.8C120.8,101.3,112,112.8,97.3,120z"/>
<path style="fill:#FF7D9D;" d="M557.6,120c-2-1.7-1.2-4.1-1.2-6.2c-0.1-9.2,0.1-18.3-0.1-27.5c-0.1-11.1-8.5-19.2-19.4-19.1
	c-10.2,0.1-18.8,8.7-18.9,19.1c-0.1,9.4,0,18.7-0.1,28.1c0,1.9,0.6,4-1.2,5.6c-18.8-9.4-28.3-24.9-27.3-45.7
	c0.9-19,10.5-33.2,28.1-41c25.5-11.2,51.9-0.7,63.7,24.9C592,81.7,580,110.3,557.6,120z"/>
<path style="fill:#0076BE;" d="M412.5,422c0,6.4,0,12.8,0,19.2c-2.3,2.1-5.2,1.9-7.9,1.9c-84.2,0-168.3,0-252.5,0
	c-2.8,0-5.7,0.2-7.9-2c0-6.4,0-12.7,0-19.1C233.6,422.1,323,422.1,412.5,422z"/>
<path style="fill:#00ABE3;" d="M144.2,441.2c89.4,0,178.9,0,268.3,0c0,6.4,0,12.8,0,19.2c-2.3,2.1-5.2,1.9-7.9,1.9
	c-84.2,0-168.3,0-252.5,0c-2.8,0-5.7,0.3-7.9-1.9C144.2,454,144.2,447.6,144.2,441.2z"/>
<path style="fill:#0076BE;" d="M144.2,460.4c89.4,0,178.9,0,268.3,0c0,6.4,0,12.8,0,19.2c-89.4,0-178.9,0-268.3,0
	C144.2,473.2,144.2,466.8,144.2,460.4z"/>
<path style="fill:#BBE3EE;" d="M191.9,278.2c0,20.6-0.1,41.1,0.1,61.7c0,4-0.9,5.6-5.3,5.6c-14,0-14,0.2-14-13.6
	c0-37.9,0.1-75.9-0.1-113.8c0-5.3,1.1-7.3,6.8-7.1c12.4,0.4,12.5,0.1,12.5,12.8C191.9,241.8,191.9,260,191.9,278.2z"/>
<path style="fill:#DADAD8;" d="M441.3,144.2c0,12.6,0,25.3,0,37.9c-9.6,0-19.2,0.1-28.8,0.1c0-11.1,0.1-22.2-0.1-33.3
	c0-3.3,0.5-5.1,4.5-5C425,144.2,433.2,144.1,441.3,144.2z"/>
<path style="fill:#BBE3EE;" d="M172.7,182c0.1-10-1.2-9.3,8-9.2c12.5,0.1,11.1-1.7,11.2,8.4c0.1,10.7,0,10.8-10.7,10.7
	C171.3,191.8,172.9,193,172.7,182z"/>
</svg>
