<?xml version="1.0" encoding="utf-8"?>
<!-- Generator: Adobe Illustrator 23.0.3, SVG Export Plug-In . SVG Version: 6.00 Build 0)  -->
<svg version="1.0" id="Layer_1" xmlns="http://www.w3.org/2000/svg" xmlns:xlink="http://www.w3.org/1999/xlink" x="0px" y="0px"
	 viewBox="0 0 601.12 627.91" style="enable-background:new 0 0 601.12 627.91;" xml:space="preserve">
<g>
	<path style="display:none;fill:#F6F6F6;" d="M0.06,313.95C0.06,210.3,0.07,106.65,0,3c0-2.45,0.55-3,3-3
		c198.37,0.07,396.75,0.07,595.12,0c2.45,0,3,0.55,3,3c-0.07,207.3-0.07,414.6,0,621.9c0,2.45-0.55,3-3,3
		c-198.37-0.07-396.75-0.07-595.12,0c-2.45,0-3-0.55-3-3C0.07,521.25,0.06,417.6,0.06,313.95z"/>
	<path style="fill:#FFD081;" d="M558.63,273.13c0,97.32,0,194.63,0,291.95c-1.27,1.51-3.05,1.37-4.72,1.37
		c-39.58,0.04-79.15,0.05-118.73,0.01c-1.57,0-3.18-0.01-4.54-1.01c-1.6-2.15-1.13-4.67-1.13-7.06
		c-0.03-38.56-0.02-77.13-0.02-115.69c0-54.02,0-108.03,0-162.05c0-8.75,0.17-8.92,9.03-8.9c4.38,0.01,8.76-0.03,13.13-0.24
		c5.41,0.58,10.85,0.16,16.27,0.25c6.88,0.12,13.77-0.12,20.65,0.1c21.29-0.23,42.58-0.07,63.87-0.08
		C554.56,271.76,556.88,271.26,558.63,273.13z"/>
	<path style="fill:#FFD081;" d="M47.25,565.07c0-97.32,0-194.63,0-291.95c1.5-1.7,3.56-1.37,5.45-1.37
		c21.51,0.04,43.03-0.2,64.54,0.1c11.11-0.24,22.23-0.04,33.35-0.09c1.21-0.01,2.4-0.01,3.59-0.27c5.22,0.29,10.45,0.2,15.68,0.25
		c5.66,0.06,6.43,0.87,6.52,6.65c0.01,0.73,0.01,1.46,0.01,2.19c0,92.43,0,184.85-0.02,277.28c0,2.51,0.5,5.14-1.02,7.46
		c-1.32,1.09-2.93,1.11-4.5,1.12c-39.62,0.05-79.25,0.04-118.87,0C50.3,566.44,48.52,566.58,47.25,565.07z"/>
	<path style="fill:#D23B23;" d="M558.63,273.13c-21.06-0.04-42.11-0.07-63.17-0.12c-2.31-0.01-4.62-0.07-6.93-0.11
		c0.47-3.11-1.43-4.91-3.58-6.63c-19.09-15.28-38.03-30.74-57.04-46.11c-14.38-11.62-28.75-23.24-43.12-34.89
		c-1.09-0.88-2.54-1.62-2.2-3.44c4.26-0.04,8.51-0.12,12.77-0.12c45.99-0.01,91.97,0.01,137.96-0.02
		c14.54-0.01,25.05,6.35,31.62,19.37c9.09,18,18.32,35.93,27.49,53.89c0.33,0.65,0.72,1.27,1.03,1.93
		c4.19,8.95-0.13,15.96-10.03,16.11C575.17,273.12,566.9,273.09,558.63,273.13z"/>
	<path style="fill:#D23B23;" d="M117.35,272.89c-20.2,0.04-40.41,0.08-60.61,0.12c-3.16,0.01-6.33,0.07-9.49,0.11
		c-8.03-0.04-16.05-0.06-24.08-0.12c-10.83-0.08-15.25-7.12-10.37-16.75c9.71-19.18,19.37-38.4,29.38-57.42
		c5.72-10.87,15.29-16.93,27.46-17c50.85-0.29,101.7-0.12,152.56-0.12c0.36,0,0.72,0.07,1.09,0.11c0.34,1.83-1.11,2.56-2.2,3.44
		c-22.91,18.48-45.77,37.02-68.65,55.54c-10.49,8.5-20.99,16.99-31.51,25.45C118.79,267.98,116.87,269.78,117.35,272.89z"/>
	<path style="fill:#A91100;" d="M117.35,272.89c-1.95-1.93-1.44-3.53,0.53-5.13c7.31-5.96,14.55-12.01,21.88-17.95
		c10.89-8.84,21.83-17.62,32.75-26.42c12.24-9.86,24.6-19.58,36.67-29.65c4.72-3.94,9.95-7.31,14.11-11.92
		c7.26-4.88,13.73-10.75,20.52-16.21c16.63-13.38,33.16-26.87,49.73-40.32c3.83-6.33,11.78-6.99,17.96-1.49
		c0.28,0.46,0.5,0.97,0.84,1.4c15.25,12.41,30.49,24.82,45.74,37.22c7.06,5.74,14.14,11.46,21.23,17.17
		c1.03,0.83,2.19,1.5,3.29,2.24c5.46,5.52,11.84,9.94,17.78,14.88c10.88,9.04,21.99,17.81,33,26.68
		c13.37,10.77,26.76,21.51,40.11,32.32c4.98,4.03,9.82,8.24,14.78,12.31c1.95,1.6,1.95,3.15,0.27,4.88
		c-11.52,0.04-23.03,0.08-34.55,0.11c-0.72,0-1.48,0.07-1.94-0.67c0.32-3.02-1.78-4.67-3.75-6.26
		c-9.83-7.95-19.53-16.07-29.29-24.11c-23.27-19.18-46.57-38.32-69.82-57.52c-12.66-10.45-25.34-20.87-38.01-31.3
		c-5.74-4.73-10.8-4.69-16.46-0.01c-29.69,24.58-59.49,49.02-89.23,73.54c-15.67,12.92-31.32,25.86-47.04,38.71
		c-2.21,1.81-4.87,3.45-4.59,6.96c-0.47,0.74-1.23,0.67-1.95,0.67C140.38,272.97,128.87,272.93,117.35,272.89z"/>
	<path style="fill:#D5EDEF;" d="M430.75,565.07c11.29,0.04,22.59,0.12,33.88,0.11c31.33-0.02,62.67-0.07,94-0.11
		c8.75,0.04,17.5,0.07,26.25,0.12c6.54,0.04,10.19,3.64,10.23,10.11c0.03,5.59,0.06,11.19-0.01,16.78c-0.07,5.8-3.83,9.61-9.63,9.61
		c-57.63,0.02-115.25-0.01-172.88-0.02c-2.07-2.41-1.22-5.33-1.27-8.03c-0.22-10.1,1.19-8.8-8.9-9c-2.84-0.06-5.85,0.73-8.48-1.12
		c-1.45-6.18-1.65-12.34,0.1-18.5c1.45-1.14,3.19-1.07,4.88-1.07c8.99-0.04,17.98-0.03,26.97,0
		C427.59,563.94,429.33,563.85,430.75,565.07z"/>
	<path style="fill:#D5EDEF;" d="M47.25,565.07c21.62,0.04,43.23,0.11,64.85,0.11c21.01,0,42.02-0.07,63.03-0.11
		c1.19-1.04,2.65-1.11,4.11-1.12c9.44-0.05,18.88-0.05,28.32,0c1.45,0.01,2.92,0.06,4.17,0.97c1.13,1.3,1.2,2.91,1.12,4.47
		c-0.25,4.67,0.89,9.43-0.84,14.01c-2.57,2.02-5.61,1.17-8.45,1.23c-10.23,0.21-8.78-1.1-9,8.97c-0.06,2.72,0.8,5.64-1.28,8.07
		c-57.51,0.01-115.01,0.03-172.52,0.03c-6.26,0-9.95-3.73-9.99-9.98c-0.04-5.59-0.05-11.19,0-16.78c0.06-6.01,3.79-9.69,9.86-9.74
		C29.51,565.13,38.38,565.11,47.25,565.07z"/>
	<path style="fill:#89664C;" d="M193.28,601.67c0.03-5.19,0.14-10.38,0.05-15.56c-0.04-2.02,0.55-2.74,2.64-2.7
		c5.19,0.11,10.38,0.01,15.57-0.01c1.53-1.28,3.39-1.22,5.21-1.22c57.46-0.02,114.92-0.02,172.38,0c1.82,0,3.68-0.06,5.21,1.22
		c5.19,0.02,10.38,0.12,15.57,0.01c2.09-0.05,2.68,0.68,2.64,2.7c-0.09,5.19,0.02,10.38,0.05,15.56
		C339.49,601.67,266.39,601.67,193.28,601.67z"/>
	<path style="fill:#A91100;" d="M306.74,121.84c-0.2-0.19-0.41-0.39-0.61-0.58c-1.23-1.67-1.29-3.61-1.29-5.57
		c0-29.41-0.01-58.82,0.02-88.23c0-1.9-0.32-3.95,1.35-5.46c1.12,1.68,0.68,3.58,0.53,5.33c-0.33,3.75,0.73,6.82,3.2,9.66
		c8.8,10.15,19.34,16.65,33.27,15.52c8.71-0.71,17.13-3.16,25.59-5.23c12.85-3.14,25.04-2.4,35.87,6.15
		c3.92,3.09,7.31,6.68,10.7,11.68c-3.61-2.02-6.34-3.65-9.5-4.42c-9.09-2.22-16.76,1.43-24.06,5.92
		c-9.44,5.8-17.39,13.55-25.88,20.6c-8.68,7.2-17.25,14.63-28.66,17.39c-6.11,1.48-11.77,0.66-17.1-2.67
		c-0.89-0.55-1.76-1.35-3.42-1.08C306.74,107.82,306.74,114.83,306.74,121.84z"/>
	<path style="fill:#89664C;" d="M306.61,23.12c-0.01,33.09-0.02,66.18-0.03,99.27c-3.13-4.92-4.49-4.8-7.4,0.67
		c0-29.33,0-58.66,0-87.99c0-3.64,0.01-7.26,0.2-10.91c0.29-5.7,1.4-8.81,3.49-9.03C304.83,14.91,306.16,17.76,306.61,23.12z"/>
	<path style="fill:#F3DCC3;" d="M211.54,565.25c-12.13-0.06-24.27-0.12-36.4-0.18c-0.01-95.6-0.02-191.2-0.02-286.8
		c0-5.26,0-5.17-5.31-5.29c-5.32-0.13-10.68,0.64-15.96-0.65c-3.02-2.05-0.71-3.62,0.68-4.81c6.66-5.69,13.43-11.23,20.19-16.8
		c39.42-32.47,78.86-64.91,118.27-97.39c7.81-6.44,12.11-6.43,19.91,0c44.95,37.04,89.92,74.05,134.88,111.08
		c1.59,1.31,3.2,2.63,4.61,4.13c1.16,1.23,1.89,2.72-0.35,3.78c-5.52,1.31-11.13,0.71-16.69,0.57c-3.68-0.09-4.67,0.89-4.67,4.64
		c0.12,70.06,0.09,140.11,0.09,210.17c0,25.78-0.01,51.57-0.02,77.35c-12.13,0.06-24.27,0.12-36.4,0.18
		c-1.18,0.98-2.6,1.25-4.05,1.15c-4.83-0.33-9.79,1.05-14.5-1.03c-1.21-1.57-1.07-3.44-1.07-5.24c-0.03-33.14-0.02-66.28-0.01-99.42
		c0-1.33,0-2.67,0.37-3.97c0.68-2.1,2.48-2.07,4.18-2.11c3.53-0.09,7.06-0.09,10.58-0.01c2.53,0.06,3.59-1.04,3.38-3.51
		c-0.04-0.48-0.08,0.11,0-0.36c1.61-9.1-1.73-14.72-10.15-19.42c-21.13-11.79-41.34-25.17-61.73-38.21c-3.28-2.1-6.41-4.43-9.64-6.6
		c-6-4.03-11.72-4-17.7,0.07c-22.52,15.37-45.81,29.5-69.05,43.72c-3.11,1.9-6.13,3.97-9.33,5.73c-2.17,1.2-3.06,2.94-3,5.37
		c0.07,3.16,0.12,6.33-0.01,9.49c-0.11,2.63,0.88,3.8,3.59,3.71c3.4-0.1,6.81-0.08,10.22,0.01c1.68,0.04,3.51-0.1,4.3,1.98
		c0.56,1.91,0.43,3.86,0.43,5.8c0.01,32.05,0.02,64.1-0.01,96.14c0,2.27,0.38,4.64-0.99,6.73c-3.95,2.2-8.25,0.85-12.38,1.13
		C215.65,566.56,213.41,566.74,211.54,565.25z"/>
	<path style="fill:#D23B23;" d="M494.46,382.58c8.88,0,17.75-0.01,26.63,0c8.74,0.02,14.73,5.8,14.8,14.54
		c0.1,11.79,0.12,23.59-0.01,35.38c-0.09,8.04-5.65,13.2-13.51,13.75c-14.57,1.02-29.15,0.16-43.72,0.56
		c-4.64,0.13-9.21-0.44-13.8-0.73c-6.02-0.39-11.26-6.37-11.35-13.17c-0.17-12.16-0.22-24.32,0.01-36.48
		c0.15-8.29,6.31-13.85,14.69-13.86C476.95,382.57,485.71,382.58,494.46,382.58z"/>
	<path style="fill:#D23B23;" d="M494.46,537.5c-9.01,0-18.01,0.02-27.02-0.01c-8.07-0.03-13.79-5.24-13.93-13.25
		c-0.22-12.17-0.22-24.34,0-36.5c0.15-8.15,6.28-13.82,14.39-13.84c17.89-0.03,35.78-0.03,53.67,0c8.07,0.02,14.17,5.76,14.3,13.92
		c0.2,12.04,0.17,24.1,0.01,36.14c-0.11,8.19-5.79,13.51-14.04,13.53C512.71,537.52,503.58,537.5,494.46,537.5z"/>
	<path style="fill:#D23B23;" d="M494.59,350.46c-9.12,0-18.24,0.03-27.36-0.01c-7.3-0.04-13.61-5.94-13.72-13.27
		c-0.19-12.28-0.17-24.57-0.01-36.85c0.1-7.52,6.37-13.44,13.92-13.45c18.24-0.03,36.48-0.04,54.73,0
		c7.33,0.02,13.61,5.91,13.73,13.26c0.19,12.16,0.23,24.33-0.01,36.48c-0.16,8.33-6.22,13.82-14.64,13.84
		C512.34,350.48,503.47,350.46,494.59,350.46z"/>
	<path style="fill:#D23B23;" d="M111.19,446.85c-9.3-0.36-18.39-0.04-27.51-0.5c-8.3-0.42-13.53-6.49-13.67-13.66
		c-0.22-12.03-0.2-24.08-0.01-36.11c0.13-8.31,6.25-13.99,14.59-14c17.75-0.02,35.51-0.01,53.26,0c8.28,0.01,14.4,5.72,14.53,14.03
		c0.19,12.03,0.22,24.08-0.02,36.11c-0.14,7.18-5.39,13.21-13.69,13.63C129.43,446.82,120.22,446.46,111.19,446.85z"/>
	<path style="fill:#D23B23;" d="M111.01,537.5c-9.01,0-18.01-0.17-27.01,0.05c-8.42,0.2-13.75-6-13.94-13.27
		c-0.32-12.16-0.25-24.34-0.03-36.5c0.14-8.15,6.26-13.86,14.35-13.87c17.89-0.03,35.78-0.03,53.67,0
		c8.09,0.01,14.2,5.73,14.34,13.89c0.21,12.17,0.22,24.34-0.01,36.51c-0.15,8.01-5.88,13.18-13.98,13.21
		C129.26,537.52,120.13,537.5,111.01,537.5z"/>
	<path style="fill:#D23B23;" d="M111.2,350.46c-9.12,0-18.24,0.03-27.36-0.01c-7.51-0.03-13.75-6-13.84-13.53
		c-0.14-12.16-0.14-24.32,0-36.48c0.09-7.55,6.3-13.53,13.82-13.55c18.24-0.04,36.48-0.04,54.73,0c7.51,0.01,13.75,5.99,13.85,13.53
		c0.15,11.92,0.15,23.84,0.01,35.75c-0.1,8.56-6.06,14.28-14.57,14.3C128.95,350.48,120.08,350.46,111.2,350.46z"/>
	<path style="fill:#89664C;" d="M376,565.17c6.11,0.03,12.23,0.05,18.34,0.08c0,6.05,0,12.1,0,18.15
		c-57.53,0.02-115.06,0.04-172.59,0.05c-3.41,0-6.81-0.04-10.22-0.05c0-6.05,0-12.1,0-18.15c6.11-0.03,12.23-0.05,18.34-0.08
		c1.38-1.23,3.08-1.16,4.76-1.17c4.54-0.03,9.09,0.04,13.63-0.24c15.01,0.42,30.02,0.06,45.03,0.18c1.69,0.01,3.39-0.08,5.08,0.14
		c3.05-0.18,6.09-0.18,9.14,0c16.71-0.25,33.41-0.26,50.12,0c4.78-0.28,9.57-0.11,14.35-0.11
		C373.42,563.97,374.85,564.12,376,565.17z"/>
	<path style="fill:#A91100;" d="M229.87,455.74c-5.11-0.04-10.22-0.17-15.33-0.08c-2.13,0.04-3.3-0.45-2.91-2.8
		c0.02-0.12,0-0.24,0-0.36c0.07-4.98-1.33-10.66,0.62-14.74c1.97-4.12,7.94-5.6,12.16-8.21c23.27-14.39,46.72-28.52,69.33-43.95
		c5.95-4.06,12.09-4.24,18.08-0.18c25.89,17.55,52.65,33.7,79.36,49.95c2.24,1.36,3.3,2.78,3.13,5.47
		c-0.24,3.76-0.27,7.56,0.01,11.31c0.23,3.04-0.96,3.65-3.71,3.55c-4.86-0.17-9.73,0.02-14.6,0.06c-1.21,1.01-2.67,1.11-4.13,1.1
		c-4.73-0.01-9.47,0.18-14.2-0.11c-16.7,0.24-33.4,0.26-50.1,0c-3.06,0.17-6.12,0.18-9.18,0c-16.71,0.25-33.42,0.26-50.12,0
		c-4.89,0.28-9.79,0.11-14.69,0.1C232.24,456.83,230.95,456.64,229.87,455.74z"/>
	<path style="fill:#89664C;" d="M357.72,455.74c6.1,0,12.19,0,18.29,0c0,36.48,0,72.95,0,109.43c-6.11,0-12.23,0-18.34,0
		c-1.26-1.39-1.2-3.13-1.2-4.83c-0.03-33.27-0.03-66.54,0-99.81C356.47,458.85,356.35,457.09,357.72,455.74z"/>
	<path style="fill:#89664C;" d="M229.87,455.74c6.1,0,12.19,0,18.29,0c1.36,1.35,1.25,3.11,1.25,4.8
		c0.03,33.06,0.04,66.12-0.01,99.18c0,1.67,0.14,3.45-1.35,4.73c-3.94,1.57-8.05,0.42-12.07,0.71c-2.02,0.15-4.07,0.01-6.11,0.01
		C229.88,528.69,229.87,492.22,229.87,455.74z"/>
	<path style="fill:#89664C;" d="M354.48,373.03c-8.87-0.04-14.91-5.92-14.81-14.43c0.11-8.73,6.49-14.62,15.79-14.55
		c8.95,0.07,14.93,5.82,14.9,14.33C370.33,367.41,364.2,373.07,354.48,373.03z"/>
	<path style="fill:#89664C;" d="M320.9,373.03c-9.04,0.06-15.12-5.75-15.1-14.43c0.03-8.55,6.39-14.53,15.49-14.56
		c9.14-0.02,15.23,5.71,15.2,14.32C336.46,367.25,330.39,372.96,320.9,373.03z"/>
	<path style="fill:#F3DCC3;" d="M362.76,357.63c0.03,7.5-4.47,11.69-9.86,10.07c-2.43-0.73-3.94-2.37-4.8-4.67
		c-1.06-2.83-1.06-5.69-0.15-8.54c1.09-3.42,3.8-5.5,7.05-5.49c3.16,0,5.82,1.93,6.96,5.21
		C362.44,355.57,362.63,357.02,362.76,357.63z"/>
	<path style="fill:#F3DCC3;" d="M328.9,358.53c-0.01,6.66-4.54,10.81-9.93,9.15c-2.1-0.64-3.53-2-4.42-3.91
		c-0.92-1.96-1.31-4.06-1.09-6.22c0.56-5.47,3.71-8.8,8.04-8.55C325.86,349.25,328.91,353.18,328.9,358.53z"/>
	<path style="fill:#89664C;" d="M274.76,358.47c0-3.88,0.09-7.77-0.04-11.65c-0.06-1.85,0.4-2.58,2.39-2.51
		c5.8,0.19,4.73-0.57,4.79,4.77c0.07,6.2,0.02,6.2,6.24,6.2c5.77,0,5.77,0,5.77-5.78c0-0.39-0.01-0.78,0-1.17
		c0.07-4.53-0.57-3.82,4.06-4.05c2.37-0.12,3.17,0.51,3.11,3.01c-0.17,7.57-0.15,15.15-0.01,22.72c0.04,2.23-0.65,3.03-2.79,2.7
		c-0.57-0.09-1.17-0.08-1.74,0c-1.97,0.27-2.82-0.42-2.67-2.54c0.17-2.42-0.04-4.86,0.07-7.28c0.07-1.68-0.6-2.23-2.21-2.18
		c-2.52,0.08-5.05,0.12-7.57-0.01c-1.88-0.09-2.33,0.76-2.26,2.43c0.09,2.42-0.07,4.86,0.05,7.28c0.09,1.8-0.58,2.35-2.34,2.31
		c-6.03-0.16-4.72,0.59-4.83-4.67C274.7,364.88,274.76,361.67,274.76,358.47z"/>
	<path style="fill:#89664C;" d="M228.19,372.98c-1.78,0.06-4.26-0.31-6.7-1.04c-2.73-0.81-0.73-2.48-0.65-3.73
		c0.08-1.22,0.51-2.26,2.24-1.52c1.98,0.85,4.12,1.09,6.28,1.03c2.06-0.06,4.48,0.03,4.92-2.55c0.45-2.65-2.08-3.15-3.89-3.95
		c-1.51-0.66-3.13-1.07-4.61-1.78c-3.14-1.5-5.58-3.57-5.35-7.52c0.19-3.3,2.38-5.88,6.33-7.12c4-1.25,8.03-0.98,12.07-0.04
		c1.75,0.4,1.57,1.4,1.01,2.59c-0.54,1.13-0.07,3.33-2.48,2.59c-1.99-0.61-4-0.75-6.04-0.64c-1.62,0.09-3.29,0.47-3.62,2.3
		c-0.33,1.8,1.27,2.47,2.6,3.05c1.87,0.8,3.83,1.38,5.69,2.21c4.34,1.93,5.97,4.35,5.67,8.16c-0.27,3.41-2.6,5.9-6.67,7.2
		C233.02,372.87,231,372.95,228.19,372.98z"/>
	<path style="fill:#89664C;" d="M261.96,373.07c-1.6-0.14-3.27-0.13-4.88-0.44c-7.54-1.47-12.09-6.82-11.93-13.93
		c0.16-7.51,5.55-13.34,13.45-14.42c3.19-0.43,6.39-0.39,9.57,0.22c1.4,0.27,2.55,0.79,1.72,2.48c-0.59,1.2,0.11,3.78-2.84,2.76
		c-1.75-0.61-3.65-0.49-5.5-0.37c-5.45,0.36-8.83,3.91-8.83,9.25c0,5.21,3.54,8.79,9.02,9.04c1.55,0.07,3.23,0.27,4.63-0.23
		c2.64-0.95,2.72,0.6,3.29,2.41c0.8,2.56-0.99,2.55-2.42,2.79C265.52,372.92,263.76,372.93,261.96,373.07z"/>
	<path style="fill:#89664C;" d="M382.21,355.92c0,2.92,0.15,5.84-0.05,8.74c-0.15,2.29,0.76,2.85,2.86,2.73
		c2.62-0.15,5.25,0.09,7.87-0.07c2.39-0.15,2.05,1.37,2.06,2.82c0.01,1.39,0.23,2.67-1.96,2.62c-5.34-0.13-10.69-0.07-16.03-0.02
		c-1.36,0.01-1.89-0.42-1.88-1.83c0.05-8.26,0.05-16.52,0-24.78c-0.01-1.43,0.58-1.75,1.9-1.82c5.24-0.27,5.24-0.32,5.24,4.9
		C382.21,351.45,382.21,353.69,382.21,355.92z"/>
	<path style="fill:#D5EDEF;" d="M490,414.32c0,6.7-0.06,13.39,0.04,20.09c0.03,2.15-0.56,3.04-2.87,2.99
		c-6.33-0.13-12.66,0.01-18.99-0.07c-3.78-0.04-5.31-1.6-5.32-5.35c-0.04-11.56-0.04-23.13,0-34.69c0.01-3.89,1.59-5.66,5.46-5.75
		c6.33-0.14,12.66,0.01,18.99-0.08c2.08-0.03,2.75,0.74,2.73,2.78C489.95,400.93,490,407.63,490,414.32z"/>
	<path style="fill:#D5EDEF;" d="M499.37,414.37c0-6.45,0.11-12.9-0.05-19.34c-0.07-2.62,0.56-3.71,3.42-3.6
		c5.71,0.21,11.43-0.01,17.15,0.09c5.14,0.09,6.63,1.71,6.64,6.87c0.01,11.07,0.02,22.14-0.01,33.21c-0.01,4.24-1.45,5.7-5.67,5.74
		c-6.2,0.05-12.41-0.07-18.61,0.06c-2.27,0.05-2.93-0.76-2.9-2.95C499.44,427.75,499.37,421.06,499.37,414.37z"/>
	<path style="fill:#D5EDEF;" d="M490,505.72c0,6.69-0.08,13.38,0.04,20.07c0.04,2.24-0.7,2.96-2.93,2.91
		c-6.32-0.12-12.65,0.01-18.98-0.07c-3.74-0.05-5.27-1.63-5.28-5.39c-0.04-11.56,0.01-23.11-0.03-34.67
		c-0.01-3.39,1.42-5.08,4.9-5.44c6.68-0.68,13.37-0.11,20.05-0.35c2.17-0.08,2.24,1.27,2.24,2.86
		C489.99,492.34,490,499.03,490,505.72z"/>
	<path style="fill:#D5EDEF;" d="M499.37,505.8c0-6.69,0.01-13.38-0.01-20.07c0-1.53-0.06-3,2.15-2.93
		c6.8,0.21,13.61-0.37,20.41,0.38c3.34,0.37,4.62,2.15,4.61,5.32c-0.03,11.56,0.01,23.11-0.02,34.67c-0.01,3.78-1.53,5.42-5.21,5.47
		c-6.45,0.08-12.9-0.05-19.34,0.06c-2.18,0.04-2.65-0.89-2.62-2.83C499.42,519.18,499.37,512.49,499.37,505.8z"/>
	<path style="fill:#D5EDEF;" d="M526.52,319c0,5.59,0.04,11.18-0.01,16.76c-0.03,4.19-1.56,5.78-5.66,5.81
		c-6.19,0.06-12.39-0.06-18.59,0.06c-2.22,0.04-2.95-0.7-2.94-2.92c0.08-13.36,0.08-26.73,0-40.09c-0.01-2.18,0.63-3,2.89-2.96
		c6.31,0.12,12.63-0.01,18.95,0.07c3.68,0.05,5.29,1.7,5.33,5.4C526.57,307.1,526.52,313.05,526.52,319z"/>
	<path style="fill:#D5EDEF;" d="M490,318.64c0,6.68-0.07,13.36,0.04,20.04c0.03,2.19-0.65,3-2.9,2.95
		c-6.31-0.12-12.63,0.02-18.95-0.07c-3.67-0.05-5.3-1.71-5.32-5.41c-0.05-11.66-0.05-23.32,0-34.99c0.02-3.71,1.63-5.38,5.3-5.44
		c6.32-0.09,12.64,0.05,18.95-0.07c2.23-0.04,2.97,0.71,2.93,2.93C489.93,305.28,490,311.96,490,318.64z"/>
	<path style="fill:#D5EDEF;" d="M115.88,414.49c0-6.7,0.07-13.39-0.04-20.08c-0.04-2.21,0.69-3,2.93-2.96
		c6.08,0.12,12.17-0.03,18.26,0.06c4.39,0.06,5.99,1.69,6,5.97c0.03,11.44,0.03,22.89,0,34.33c-0.01,3.97-1.52,5.48-5.52,5.52
		c-6.21,0.06-12.42-0.08-18.62,0.07c-2.48,0.06-3.09-0.87-3.05-3.19C115.96,427.64,115.88,421.07,115.88,414.49z"/>
	<path style="fill:#D5EDEF;" d="M106.51,414.35c0,6.69-0.07,13.38,0.04,20.07c0.03,2.16-0.59,3.02-2.88,2.97
		c-6.32-0.13-12.65,0.01-18.98-0.07c-3.77-0.04-5.31-1.6-5.32-5.35c-0.04-11.56,0.04-23.12-0.05-34.67c-0.03-3.46,1.6-5.48,4.84-5.6
		c6.8-0.26,13.62-0.15,20.43-0.2c2.04-0.02,1.92,1.41,1.92,2.77C106.51,400.97,106.51,407.66,106.51,414.35z"/>
	<path style="fill:#D5EDEF;" d="M106.51,505.64c0,6.57-0.09,13.14,0.05,19.71c0.05,2.45-0.56,3.45-3.22,3.38
		c-6.08-0.18-12.16-0.02-18.25-0.07c-4.23-0.03-5.72-1.52-5.73-5.69c-0.03-11.44,0.02-22.87-0.03-34.31
		c-0.01-3.35,1.31-5.14,4.82-5.51c6.68-0.7,13.37-0.12,20.04-0.37c2.1-0.08,2.33,1.11,2.32,2.78
		C106.49,492.26,106.51,498.95,106.51,505.64z"/>
	<path style="fill:#D5EDEF;" d="M115.88,505.85c0-6.57,0.09-13.14-0.05-19.71c-0.05-2.46,0.58-3.53,3.24-3.39
		c6.43,0.34,12.88-0.32,19.31,0.41c3.31,0.38,4.67,2.08,4.66,5.28c-0.03,11.68,0.02,23.36-0.03,35.04
		c-0.01,3.49-1.61,5.11-5.15,5.15c-6.45,0.09-12.9-0.04-19.34,0.06c-2.11,0.03-2.71-0.77-2.68-2.78
		C115.93,519.24,115.88,512.54,115.88,505.85z"/>
	<path style="fill:#D5EDEF;" d="M115.88,318.8c0-6.68,0.09-13.36-0.05-20.04c-0.05-2.42,0.77-3.15,3.14-3.09
		c6.07,0.14,12.15,0.01,18.22,0.06c4.19,0.03,5.81,1.58,5.83,5.65c0.04,11.54,0.04,23.08,0,34.62c-0.02,3.93-1.61,5.53-5.52,5.58
		c-6.19,0.07-12.39-0.07-18.59,0.07c-2.43,0.05-3.13-0.8-3.08-3.16C115.97,331.93,115.88,325.36,115.88,318.8z"/>
	<path style="fill:#D5EDEF;" d="M106.51,318.5c0,6.68-0.09,13.36,0.05,20.04c0.05,2.42-0.78,3.15-3.14,3.1
		c-6.07-0.13-12.15-0.01-18.22-0.06c-4.21-0.03-5.81-1.56-5.82-5.65c-0.04-11.54-0.04-23.08,0-34.62c0.01-3.91,1.62-5.54,5.53-5.58
		c6.32-0.07,12.63,0.04,18.95-0.06c2.1-0.03,2.72,0.77,2.69,2.78C106.46,305.14,106.51,311.82,106.51,318.5z"/>
	<path style="fill:#D5EDEF;" d="M366.22,455.74c-0.02,36.48-0.04,72.95-0.06,109.43c-19.48-0.01-38.96-0.02-58.43-0.03
		c-1.69-1.28-1.66-3.03-1.66-4.72c-0.04-33.31-0.04-66.62,0-99.93c0-1.69-0.05-3.44,1.6-4.75
		C327.19,455.74,346.71,455.74,366.22,455.74z"/>
	<path style="fill:#D5EDEF;" d="M240.59,564.45c0.04-27.48,0.08-54.96,0.12-82.44c0.01-8.76,0.01-17.51,0.01-26.27
		c19.17,0,38.35,0,57.52,0c1.62,1.31,1.57,3.06,1.57,4.75c0.04,33.31,0.04,66.62,0,99.93c0,1.7,0.03,3.44-1.63,4.72
		c-18.04,0.01-36.08,0.04-54.12,0.03C242.86,565.17,241.52,565.51,240.59,564.45z"/>
	<path style="fill:#89664C;" d="M298.39,565.15c0.02-36.47,0.04-72.93,0.05-109.4c3,0,6,0,9,0c0.02,36.47,0.04,72.93,0.05,109.4
		C304.46,565.15,301.42,565.15,298.39,565.15z"/>
	<path d="M323.45,505.95c0.85,0,1.73,0.13,2.55-0.02c3.9-0.73,4.08,1.61,3.92,4.48c-0.08,1.54-0.61,2.2-2.17,2.16
		c-2.55-0.06-5.13-0.2-7.66,0.04c-2.89,0.28-3.46-0.98-3.42-3.58c0.04-2.37,0.72-3.37,3.14-3.1
		C321,506.06,322.23,505.95,323.45,505.95z"/>
	<path d="M282.45,512.56c-0.96,0-1.94-0.09-2.89,0.02c-2.47,0.28-3.72-0.29-3.67-3.25c0.05-2.73,0.86-3.69,3.54-3.42
		c1.91,0.19,3.89,0.27,5.78-0.01c3.72-0.56,4.19,1.38,3.98,4.38c-0.12,1.71-0.72,2.38-2.4,2.29
		C285.35,512.5,283.9,512.56,282.45,512.56z"/>
	<path style="fill:#89664C;" d="M270.01,198.77c-0.5-17.13,14.56-32,32.05-31.92c17.16,0.08,31.87,14.77,31.83,32.07
		c-0.04,17.25-14.81,32.01-32.17,31.93C284.68,230.76,269.46,216.18,270.01,198.77z"/>
	<path style="fill:#D5EDEF;" d="M324.66,198.85c0,12.8-10.01,22.78-22.82,22.77c-12.78-0.02-22.74-10.05-22.71-22.88
		c0.03-12.72,9.99-22.65,22.73-22.66C314.7,176.07,324.67,186.02,324.66,198.85z"/>
	<path style="fill:#A91100;" d="M297.17,198.79c0.17-4.67-0.23-9.36,0.27-14.03c0.27-2.53,1.93-4.18,4.39-4.2
		c2.46-0.02,4.26,1.63,4.49,4.09c0.58,6.31,0.09,12.64,0.29,18.96c0.01,0.22-0.15,0.45-0.23,0.67c-0.5-0.27-0.52-0.77-0.63-1.24
		c-0.65-2.67-1.65-3.49-4.4-3.63c-1.09-0.06-2.18,0.06-3.26-0.11C297.73,199.25,297.39,199.13,297.17,198.79z"/>
	<path d="M297.17,198.79c1.15,0.02,2.3,0.05,3.45,0.05c4.2,0.02,5.58,1.32,5.76,5.44c-0.91,2.71-2.26,3.7-5.08,3.71
		c-2.73,0.01-5.46,0.02-8.19,0c-2.89-0.03-4.85-1.86-4.88-4.51c-0.03-2.67,1.89-4.55,4.76-4.63
		C294.39,198.82,295.78,198.81,297.17,198.79z"/>
	<path style="fill:#D23B23;" d="M255.33,313.63c-7.37,0-14.74,0.02-22.1-0.01c-6.06-0.03-11.11-4.85-11.18-10.93
		c-0.11-9.82-0.11-19.65,0-29.47c0.07-6.1,5.09-10.93,11.16-10.95c14.74-0.03,29.47-0.03,44.21,0c6.07,0.01,11.11,4.84,11.19,10.93
		c0.12,9.63,0.12,19.26,0.01,28.88c-0.08,6.92-4.89,11.53-11.77,11.55C269.67,313.65,262.5,313.64,255.33,313.63z"/>
	<path style="fill:#D5EDEF;" d="M259.11,288.06c0-5.4,0.07-10.8-0.04-16.19c-0.04-1.95,0.63-2.54,2.53-2.5
		c4.9,0.11,9.81,0.01,14.72,0.05c3.39,0.03,4.7,1.28,4.71,4.57c0.03,9.32,0.03,18.65,0,27.97c-0.01,3.17-1.3,4.47-4.46,4.51
		c-5,0.05-10.01-0.06-15.01,0.05c-1.96,0.04-2.53-0.65-2.49-2.55C259.18,298.66,259.11,293.36,259.11,288.06z"/>
	<path style="fill:#D5EDEF;" d="M251.54,287.82c0,5.4-0.07,10.8,0.04,16.19c0.04,1.95-0.63,2.54-2.54,2.5
		c-4.9-0.11-9.81-0.01-14.72-0.05c-3.4-0.03-4.69-1.26-4.71-4.56c-0.03-9.32-0.03-18.65,0-27.97c0.01-3.16,1.31-4.47,4.46-4.51
		c5.1-0.06,10.21,0.04,15.31-0.05c1.7-0.03,2.2,0.62,2.18,2.25C251.5,277.03,251.54,282.42,251.54,287.82z"/>
	<path style="fill:#D23B23;" d="M357.56,313.64c-7.37,0-14.74,0.02-22.1-0.01c-6.06-0.03-11.11-4.85-11.18-10.93
		c-0.11-9.82-0.11-19.65,0-29.47c0.07-6.1,5.09-10.93,11.16-10.95c14.74-0.03,29.47-0.03,44.21,0c6.07,0.01,11.11,4.84,11.19,10.93
		c0.12,9.63,0.12,19.26,0.01,28.88c-0.08,6.92-4.89,11.53-11.77,11.55C371.9,313.65,364.73,313.64,357.56,313.64z"/>
	<path style="fill:#D5EDEF;" d="M361.34,288.07c0-5.4,0.07-10.8-0.04-16.19c-0.04-1.95,0.63-2.54,2.53-2.5
		c4.9,0.11,9.81,0.01,14.72,0.05c3.39,0.03,4.7,1.28,4.71,4.57c0.03,9.32,0.03,18.65,0,27.97c-0.01,3.17-1.3,4.47-4.46,4.51
		c-5,0.05-10.01-0.06-15.01,0.05c-1.96,0.04-2.53-0.65-2.49-2.55C361.41,298.67,361.34,293.37,361.34,288.07z"/>
	<path style="fill:#D5EDEF;" d="M353.77,287.82c0,5.4-0.07,10.8,0.04,16.19c0.04,1.95-0.63,2.54-2.54,2.5
		c-4.9-0.11-9.81-0.01-14.72-0.05c-3.4-0.03-4.69-1.26-4.71-4.56c-0.03-9.32-0.03-18.65,0-27.97c0.01-3.16,1.31-4.47,4.46-4.51
		c5.1-0.06,10.21,0.04,15.31-0.05c1.7-0.03,2.2,0.62,2.18,2.25C353.73,277.03,353.77,282.43,353.77,287.82z"/>
</g>
</svg>
