<?xml version="1.0" encoding="iso-8859-1"?>
<!-- Generator: Adobe Illustrator 19.0.0, SVG Export Plug-In . SVG Version: 6.00 Build 0)  -->
<svg version="1.1" id="Capa_1" xmlns="http://www.w3.org/2000/svg" xmlns:xlink="http://www.w3.org/1999/xlink" x="0px" y="0px"
	 viewBox="0 0 512 512" style="enable-background:new 0 0 512 512;" xml:space="preserve">
<path style="fill:#303C42;" d="M490.667,407.298V134.592c6.556-7.504,10.667-17.199,10.667-27.926
	c0-23.531-19.135-42.667-42.667-42.667c-19.759,0-36.262,13.559-41.095,31.815c-26.184-30.341-60.587-52.945-99.566-64.794
	C312.897,13.121,297.762,0,279.708,0c-8.188,0-16.24,3.917-23.708,11.448C248.531,3.917,240.479,0,232.292,0
	c-18.053,0-33.189,13.121-38.297,31.021c-40.332,12.26-75.852,35.96-102.341,67.9c-6.9-14.294-21.41-24.254-38.32-24.254
	c-23.531,0-42.667,19.135-42.667,42.667c0,10.727,4.111,20.422,10.667,27.926v262.039C8.944,411.716,0,423.445,0,437.333v64
	C0,507.229,4.771,512,10.667,512H96c5.896,0,10.667-4.771,10.667-10.667v-64c0-13.888-8.944-25.617-21.333-30.035V189.552
	c26.406-51.204,75.193-87.951,131.711-99.658l31.018,34.564c2.021,2.25,4.906,3.542,7.938,3.542s5.917-1.292,7.938-3.542
	l31.021-34.564c56.516,11.708,105.306,48.451,131.708,99.655v217.749c-12.389,4.418-21.333,16.147-21.333,30.035v64
	c0,5.896,4.771,10.667,10.667,10.667h85.333c5.896,0,10.667-4.771,10.667-10.667v-64C512,423.445,503.056,411.716,490.667,407.298z"
	/>
<g>
	<path style="fill:#9575CD;" d="M448,147.819c3.43,0.891,6.962,1.514,10.667,1.514c3.704,0,7.237-0.624,10.667-1.514v257.514H448
		V147.819z"/>
	<circle style="fill:#9575CD;" cx="458.667" cy="106.667" r="21.333"/>
</g>
<path style="opacity:0.2;fill:#FFFFFF;enable-background:new    ;" d="M448,117.333C448,105.573,457.573,96,469.333,96
	c3.12,0,6.034,0.749,8.708,1.958c-3.349-7.406-10.734-12.625-19.375-12.625c-11.76,0-21.333,9.573-21.333,21.333
	c0,8.641,5.219,16.026,12.625,19.375C448.749,123.367,448,120.453,448,117.333z"/>
<g>
	<path style="fill:#9575CD;" d="M42.667,405.333V158.486c3.43,0.891,6.962,1.514,10.667,1.514c3.704,0,7.237-0.624,10.667-1.514
		v246.848H42.667z"/>
	<path style="fill:#9575CD;" d="M53.333,96c11.76,0,21.333,9.573,21.333,21.333c0,2.859-0.608,5.573-1.634,8.068
		c-0.201,0.333-0.379,0.68-0.577,1.014c-3.436,7.184-10.643,12.251-19.122,12.251c-11.76,0-21.333-9.573-21.333-21.333
		S41.573,96,53.333,96z"/>
	<path style="fill:#9575CD;" d="M85.333,490.667h-64v-53.333c0-5.885,4.781-10.667,10.667-10.667h42.667
		c5.885,0,10.667,4.781,10.667,10.667V490.667z"/>
	<path style="fill:#9575CD;" d="M85.333,150.003v-3.146c0.909-1.763,1.971-3.421,2.932-5.151c1.264-1.809,2.302-3.764,3.28-5.762
		c23.112-38.379,59.046-67.464,101.54-82.199c1.366,6.608,4.182,12.703,8.163,18.01C154.798,84.121,113.961,111.893,85.333,150.003z
		"/>
	<path style="fill:#9575CD;" d="M256,101.365l-36.688-40.885c-3.854-4.333-5.979-10.188-5.979-16.479
		c0-12.5,8.5-22.667,18.958-22.667c2.865,0,8.458,3.406,14.813,13c3.958,5.979,13.833,5.979,17.792,0
		c6.354-9.594,11.948-13,14.813-13c10.458,0,18.958,10.167,18.958,22.667c0,6.292-2.125,12.146-5.948,16.448L256,101.365z"/>
	<path style="fill:#9575CD;" d="M310.757,71.757c3.975-5.298,6.792-11.395,8.158-18.01c46.456,16.112,85.18,49.329,107.753,93.109
		v3.152C398.039,111.9,357.206,84.125,310.757,71.757z"/>
	<path style="fill:#9575CD;" d="M490.667,490.667h-64v-53.333c0-5.885,4.781-10.667,10.667-10.667H480
		c5.885,0,10.667,4.781,10.667,10.667V490.667z"/>
</g>
<path style="opacity:0.2;fill:#FFFFFF;enable-background:new    ;" d="M444.444,426.667h-7.111c-5.885,0-10.667,4.781-10.667,10.667
	v53.333h10.667v-53.333C437.333,431.448,440.521,426.667,444.444,426.667z"/>
<path style="opacity:0.1;enable-background:new    ;" d="M480,426.667h-7.111c3.923,0,7.111,4.781,7.111,10.667v53.333h10.667
	v-53.333C490.667,431.448,485.885,426.667,480,426.667z"/>
<g>
	<path style="opacity:0.2;fill:#FFFFFF;enable-background:new    ;" d="M42.667,128c0-11.76,9.573-21.333,21.333-21.333
		c3.12,0,6.034,0.749,8.708,1.958C69.359,101.219,61.974,96,53.333,96C41.573,96,32,105.573,32,117.333
		c0,8.641,5.219,16.026,12.625,19.375C43.415,134.034,42.667,131.12,42.667,128z"/>
	<path style="opacity:0.2;fill:#FFFFFF;enable-background:new    ;" d="M39.111,426.667H32c-5.885,0-10.667,4.781-10.667,10.667
		v53.333H32v-53.333C32,431.448,35.188,426.667,39.111,426.667z"/>
</g>
<path style="opacity:0.1;enable-background:new    ;" d="M74.667,426.667h-7.111c3.923,0,7.111,4.781,7.111,10.667v53.333h10.667
	v-53.333C85.333,431.448,80.552,426.667,74.667,426.667z"/>
<linearGradient id="SVGID_1_" gradientUnits="userSpaceOnUse" x1="-47.5321" y1="638.5776" x2="-21.1225" y2="626.2628" gradientTransform="matrix(21.3333 0 0 -21.3333 996.3334 13791.667)">
	<stop  offset="0" style="stop-color:#FFFFFF;stop-opacity:0.2"/>
	<stop  offset="1" style="stop-color:#FFFFFF;stop-opacity:0"/>
</linearGradient>
<path style="fill:url(#SVGID_1_);" d="M490.667,407.298V134.592c6.556-7.504,10.667-17.199,10.667-27.926
	c0-23.531-19.135-42.667-42.667-42.667c-19.759,0-36.262,13.559-41.095,31.815c-26.184-30.341-60.587-52.945-99.566-64.794
	C312.897,13.121,297.762,0,279.708,0c-8.188,0-16.24,3.917-23.708,11.448C248.531,3.917,240.479,0,232.292,0
	c-18.053,0-33.189,13.121-38.297,31.021c-40.332,12.26-75.852,35.96-102.341,67.9c-6.9-14.294-21.41-24.254-38.32-24.254
	c-23.531,0-42.667,19.135-42.667,42.667c0,10.727,4.111,20.422,10.667,27.926v262.039C8.944,411.716,0,423.445,0,437.333v64
	C0,507.229,4.771,512,10.667,512H96c5.896,0,10.667-4.771,10.667-10.667v-64c0-13.888-8.944-25.617-21.333-30.035V189.552
	c26.406-51.204,75.193-87.951,131.711-99.658l31.018,34.564c2.021,2.25,4.906,3.542,7.938,3.542s5.917-1.292,7.938-3.542
	l31.021-34.564c56.516,11.708,105.306,48.451,131.708,99.655v217.749c-12.389,4.418-21.333,16.147-21.333,30.035v64
	c0,5.896,4.771,10.667,10.667,10.667h85.333c5.896,0,10.667-4.771,10.667-10.667v-64C512,423.445,503.056,411.716,490.667,407.298z"
	/>
<g>
</g>
<g>
</g>
<g>
</g>
<g>
</g>
<g>
</g>
<g>
</g>
<g>
</g>
<g>
</g>
<g>
</g>
<g>
</g>
<g>
</g>
<g>
</g>
<g>
</g>
<g>
</g>
<g>
</g>
</svg>
