<?xml version="1.0" encoding="iso-8859-1"?>
<!-- Generator: Adobe Illustrator 19.0.0, SVG Export Plug-In . SVG Version: 6.00 Build 0)  -->
<svg version="1.1" id="Capa_1" xmlns="http://www.w3.org/2000/svg" xmlns:xlink="http://www.w3.org/1999/xlink" x="0px" y="0px"
	 viewBox="0 0 512 512" style="enable-background:new 0 0 512 512;" xml:space="preserve">
<path style="fill:#303C42;" d="M466.979,303.323l-17.632-43.03c5.197-12.206,9.319-24.978,9.319-46.96
	c0-26.26-6.146-40.115-11.583-52.333c-4.879-10.982-8.99-20.932-9.539-39.819l41.727-46.514c7.354-8.24,11.396-19.135,11.396-30.667
	c0-24.26-18.083-44-40.292-44c-8.208,0-16.25,3.917-23.708,11.438C419.208,3.917,411.167,0,402.958,0
	c-22.208,0-40.292,19.74-40.292,44c0,11.531,4.042,22.427,11.417,30.698l42.177,47.009c0.694,23.214,6.224,36.503,11.323,47.96
	c5.229,11.771,9.75,21.927,9.75,43.667c0,5.84-0.387,10.794-0.979,15.249l-12.979-31.676c-6.646-15.938-22.104-26.24-39.375-26.24
	H170.667c-17.271,0-32.729,10.302-39.417,26.313l-39.846,97.26c-2.255-5.633-5.025-10.229-7.654-14.5
	c-5.084-8.24-9.083-14.76-9.083-29.073c0-14.313,4-20.833,9.083-29.073c5.275-8.561,10.943-18.531,11.884-35.77l42.303-47.158
	c7.354-8.24,11.396-19.135,11.396-30.667c0-24.26-18.083-44-40.292-44c-8.208,0-16.25,3.917-23.708,11.438
	C77.875,67.917,69.833,64,61.625,64c-22.208,0-40.292,19.74-40.292,44c0,11.531,4.042,22.427,11.417,30.698l41.635,46.405
	c-0.694,11.565-4.227,17.888-8.802,25.303c-5.75,9.333-12.25,19.906-12.25,40.26s6.5,30.927,12.25,40.26
	c4.284,6.961,7.621,12.884,8.633,23.031C67.936,321.389,64,330.863,64,341.333v85.333c0,23.531,19.146,42.667,42.667,42.667
	c0,23.531,19.146,42.667,42.667,42.667h21.333c23.521,0,42.667-19.135,42.667-42.667h128C341.333,492.865,360.479,512,384,512
	h21.333C428.854,512,448,492.865,448,469.333c23.521,0,42.667-19.135,42.667-42.667v-85.333
	C490.667,324.655,480.956,310.337,466.979,303.323z"/>
<path style="fill:#D32F2F;" d="M384,44c0-12.5,8.5-22.667,18.958-22.667c2.875,0,8.479,3.406,14.813,12.99
	c3.958,5.979,13.833,5.979,17.792,0c6.333-9.583,11.938-12.99,14.813-12.99c10.458,0,18.958,10.167,18.958,22.667
	c0,6.292-2.125,12.146-5.958,16.448l-36.708,40.917l-36.688-40.885C386.125,56.146,384,50.292,384,44z"/>
<path style="fill:#BBDEFB;" d="M150.958,205.135c3.333-7.979,11.083-13.135,19.708-13.135H384c8.625,0,16.375,5.156,19.667,13.063
	l38.345,93.604H112.65L150.958,205.135z"/>
<linearGradient id="SVGID_1_" gradientUnits="userSpaceOnUse" x1="-39.5147" y1="637.1115" x2="-26.6272" y2="631.1041" gradientTransform="matrix(21.3333 0 0 -21.3333 996.3334 13791.667)">
	<stop  offset="0" style="stop-color:#FFFFFF;stop-opacity:0.6"/>
	<stop  offset="1" style="stop-color:#FFFFFF;stop-opacity:0.2"/>
</linearGradient>
<path style="fill:url(#SVGID_1_);" d="M150.958,205.135c3.333-7.979,11.083-13.135,19.708-13.135H384
	c8.625,0,16.375,5.156,19.667,13.063l38.345,93.604H112.65L150.958,205.135z"/>
<path style="fill:#D32F2F;" d="M42.667,108c0-12.5,8.5-22.667,18.958-22.667c2.875,0,8.479,3.406,14.813,12.99
	c3.958,5.979,13.833,5.979,17.792,0c6.333-9.583,11.938-12.99,14.813-12.99C119.5,85.333,128,95.5,128,108
	c0,6.292-2.125,12.146-5.958,16.448l-36.708,40.917l-36.688-40.885C44.792,120.146,42.667,114.292,42.667,108z"/>
<path style="opacity:0.1;enable-background:new    ;" d="M122.042,113.781l-27.594,30.757c-4.866,5.424-13.363,5.424-18.23,0.001
	l-27.572-30.727c-2.719-3.056-4.211-7-5.069-11.19c-0.372,1.77-0.91,3.471-0.91,5.378c0,6.292,2.125,12.146,5.979,16.479
	l36.688,40.885l36.708-40.917C125.875,120.146,128,114.292,128,108c0-1.906-0.536-3.607-0.909-5.376
	C126.233,106.81,124.745,110.747,122.042,113.781z"/>
<path style="opacity:0.1;enable-background:new    ;" d="M463.375,49.781l-27.594,30.757c-4.866,5.424-13.363,5.424-18.23,0.001
	l-27.572-30.727c-2.719-3.056-4.211-7-5.069-11.19C384.538,40.392,384,42.094,384,44c0,6.292,2.125,12.146,5.979,16.479
	l36.688,40.885l36.708-40.917c3.833-4.302,5.958-10.156,5.958-16.448c0-1.906-0.536-3.607-0.909-5.376
	C467.566,42.81,466.078,46.747,463.375,49.781z"/>
<g>
	<path style="fill:#495965;" d="M170.667,490.667h-21.333c-11.771,0-21.333-9.573-21.333-21.333h64
		C192,481.094,182.438,490.667,170.667,490.667z"/>
	<path style="fill:#495965;" d="M405.333,490.667H384c-11.771,0-21.333-9.573-21.333-21.333h64
		C426.667,481.094,417.104,490.667,405.333,490.667z"/>
	<path style="fill:#495965;" d="M469.333,426.667c0,11.76-9.563,21.333-21.333,21.333h-10.667H352H202.667h-85.333h-10.667
		c-11.771,0-21.333-9.573-21.333-21.333v-85.333c0-11.76,9.563-21.333,21.333-21.333H448c11.771,0,21.333,9.573,21.333,21.333
		V426.667z"/>
</g>
<circle style="fill:#303C42;" cx="149.333" cy="384" r="42.667"/>
<circle style="fill:#FAFAFA;" cx="149.333" cy="384" r="21.333"/>
<circle style="fill:#303C42;" cx="405.333" cy="384" r="42.667"/>
<circle style="fill:#FAFAFA;" cx="405.333" cy="384" r="21.333"/>
<g>
	<path style="fill:#303C42;" d="M330.667,362.667H224c-5.896,0-10.667,4.771-10.667,10.667S218.104,384,224,384h106.667
		c5.896,0,10.667-4.771,10.667-10.667S336.563,362.667,330.667,362.667z"/>
	<path style="fill:#303C42;" d="M330.667,405.333H224c-5.896,0-10.667,4.771-10.667,10.667c0,5.896,4.771,10.667,10.667,10.667
		h106.667c5.896,0,10.667-4.771,10.667-10.667C341.333,410.104,336.563,405.333,330.667,405.333z"/>
</g>
<linearGradient id="SVGID_2_" gradientUnits="userSpaceOnUse" x1="-46.2229" y1="640.8015" x2="-22.0718" y2="629.5395" gradientTransform="matrix(21.3333 0 0 -21.3333 996.3334 13791.667)">
	<stop  offset="0" style="stop-color:#FFFFFF;stop-opacity:0.2"/>
	<stop  offset="1" style="stop-color:#FFFFFF;stop-opacity:0"/>
</linearGradient>
<path style="fill:url(#SVGID_2_);" d="M466.979,303.323l-17.632-43.03c5.197-12.206,9.319-24.978,9.319-46.96
	c0-26.26-6.146-40.115-11.583-52.333c-4.879-10.982-8.99-20.932-9.539-39.819l41.727-46.514c7.354-8.24,11.396-19.135,11.396-30.667
	c0-24.26-18.083-44-40.292-44c-8.208,0-16.25,3.917-23.708,11.438C419.208,3.917,411.167,0,402.958,0
	c-22.208,0-40.292,19.74-40.292,44c0,11.531,4.042,22.427,11.417,30.698l42.177,47.009c0.694,23.214,6.224,36.503,11.323,47.96
	c5.229,11.771,9.75,21.927,9.75,43.667c0,5.84-0.387,10.794-0.979,15.249l-12.979-31.676c-6.646-15.938-22.104-26.24-39.375-26.24
	H170.667c-17.271,0-32.729,10.302-39.417,26.313l-39.846,97.26c-2.255-5.633-5.025-10.229-7.654-14.5
	c-5.084-8.24-9.083-14.76-9.083-29.073c0-14.313,4-20.833,9.083-29.073c5.275-8.561,10.943-18.531,11.884-35.77l42.303-47.158
	c7.354-8.24,11.396-19.135,11.396-30.667c0-24.26-18.083-44-40.292-44c-8.208,0-16.25,3.917-23.708,11.438
	C77.875,67.917,69.833,64,61.625,64c-22.208,0-40.292,19.74-40.292,44c0,11.531,4.042,22.427,11.417,30.698l41.635,46.405
	c-0.694,11.565-4.227,17.888-8.802,25.303c-5.75,9.333-12.25,19.906-12.25,40.26s6.5,30.927,12.25,40.26
	c4.284,6.961,7.621,12.884,8.633,23.031C67.936,321.389,64,330.863,64,341.333v85.333c0,23.531,19.146,42.667,42.667,42.667
	c0,23.531,19.146,42.667,42.667,42.667h21.333c23.521,0,42.667-19.135,42.667-42.667h128C341.333,492.865,360.479,512,384,512
	h21.333C428.854,512,448,492.865,448,469.333c23.521,0,42.667-19.135,42.667-42.667v-85.333
	C490.667,324.655,480.956,310.337,466.979,303.323z"/>
<g>
</g>
<g>
</g>
<g>
</g>
<g>
</g>
<g>
</g>
<g>
</g>
<g>
</g>
<g>
</g>
<g>
</g>
<g>
</g>
<g>
</g>
<g>
</g>
<g>
</g>
<g>
</g>
<g>
</g>
</svg>
