<?xml version="1.0" encoding="iso-8859-1"?>
<!-- Generator: Adobe Illustrator 19.0.0, SVG Export Plug-In . SVG Version: 6.00 Build 0)  -->
<svg version="1.1" id="Capa_1" xmlns="http://www.w3.org/2000/svg" xmlns:xlink="http://www.w3.org/1999/xlink" x="0px" y="0px"
	 viewBox="0 0 512 512" style="enable-background:new 0 0 512 512;" xml:space="preserve">
<path style="fill:#303C42;" d="M448,319.292l-10.667-160c-0.375-5.604-5.031-9.958-10.646-9.958h-85.333
	c-5.615,0-10.271,4.354-10.646,9.958L320.021,320c0,31.639,23.128,57.807,53.333,62.922v107.745h-21.333
	c-5.896,0-10.667,4.771-10.667,10.667S346.125,512,352.021,512h64c5.896,0,10.667-4.771,10.667-10.667s-4.771-10.667-10.667-10.667
	h-21.333V382.921C424.893,377.798,448.018,351.566,448,319.292z"/>
<polygon style="fill:#FAFAFA;" points="416.708,170.667 420.986,234.667 347.068,234.667 351.333,170.667 "/>
<polygon style="opacity:0.1;enable-background:new    ;" points="416.708,170.667 407.723,170.667 412,234.667 420.986,234.667 "/>
<path style="fill:#FEE88A;" d="M341.333,320.708L345.646,256h76.764l4.277,64c0,23.531-19.135,42.667-42.667,42.667
	S341.354,343.531,341.333,320.708z"/>
<path style="opacity:0.1;enable-background:new    ;" d="M422.41,256h-9.262L416,298.667c0,23.531-19.135,42.667-42.667,42.667
	c-12.397,0-23.477-5.395-31.281-13.759c3.402,19.652,20.854,35.092,41.969,35.092c23.531,0,42.667-19.135,42.667-42.667L422.41,256z
	"/>
<path style="fill:#303C42;" d="M246.333,198.188c-14.23-26.379-28.81-53.833-31.935-104.09c5.133-6.663,7.574-15.026,6.518-23.4
	l-5.333-42.667C213.583,12.052,199.938,0,183.833,0H157.5c-16.104,0-29.75,12.052-31.75,28.031l-5.333,42.656
	c-1.056,8.383,1.385,16.747,6.518,23.41C123.81,144.354,109.23,171.809,95,198.188c-15.25,28.26-31,57.469-31,111.146V352v85.333v32
	C64,492.865,83.146,512,106.667,512h128c23.521,0,42.667-19.135,42.667-42.667v-32V352v-42.667
	C277.333,255.656,261.583,226.448,246.333,198.188z"/>
<path style="fill:#FFCA28;" d="M146.917,30.677c0.667-5.323,5.208-9.344,10.583-9.344h26.333c5.375,0,9.917,4.021,10.583,9.344
	l5.333,42.677c0.396,3.073-0.521,6.042-2.583,8.365c-2.042,2.333-4.896,3.615-8,3.615h-37c-3.104,0-5.958-1.281-8-3.615
	c-2.063-2.323-2.979-5.292-2.583-8.375L146.917,30.677z"/>
<path style="opacity:0.2;fill:#FFFFFF;enable-background:new    ;" d="M160.978,81.719c-0.754-2.323-1.09-5.292-0.945-8.375
	l1.951-42.667c0.243-5.323,1.904-9.344,3.87-9.344H157.5c-5.375,0-9.917,4.021-10.583,9.344l-5.333,42.667
	c-0.396,3.083,0.521,6.052,2.583,8.375c2.042,2.333,4.896,3.615,8,3.615h11.736C162.767,85.333,161.724,84.052,160.978,81.719z"/>
<path style="opacity:0.1;enable-background:new    ;" d="M194.417,30.677c-0.667-5.323-5.208-9.344-10.583-9.344h-8.353
	c1.966,0,3.626,4.021,3.87,9.344l1.951,42.677c0.145,3.073-0.191,6.042-0.945,8.365c-0.746,2.333-1.789,3.615-2.924,3.615h11.736
	c3.104,0,5.958-1.281,8-3.615c2.063-2.323,2.979-5.292,2.583-8.365L194.417,30.677z"/>
<path style="fill:#FFCA28;" d="M147.342,106.151c1.595,0.245,3.189,0.516,4.824,0.516h37c1.635,0,3.229-0.271,4.824-0.516
	c4.747,48.306,19.931,76.871,33.572,102.172c2.557,4.741,5.053,9.469,7.491,14.246c-37.307,70.34-58.643,76.098-64.387,76.098
	c-5.743,0-27.079-5.758-64.387-76.098c2.438-4.777,4.934-9.505,7.491-14.246C127.411,183.022,142.595,154.457,147.342,106.151z"/>
<path style="opacity:0.2;fill:#FFFFFF;enable-background:new    ;" d="M124.667,222.569c1.741-4.777,3.525-9.505,5.352-14.246
	c9.71-25.206,20.504-53.678,23.936-101.656h-1.788c-1.635,0-3.229-0.271-4.824-0.516c-4.747,48.306-19.931,76.871-33.572,102.172
	c-2.557,4.741-5.053,9.469-7.491,14.246c37.307,70.34,58.643,76.098,64.387,76.098C166.564,298.667,151.32,292.909,124.667,222.569z
	"/>
<path style="opacity:0.1;enable-background:new    ;" d="M227.563,208.323c-13.641-25.301-28.824-53.866-33.572-102.172
	c-1.595,0.245-3.189,0.516-4.824,0.516h-1.788c3.432,47.978,14.227,76.451,23.936,101.656c1.827,4.741,3.611,9.469,5.352,14.246
	c-26.654,70.34-41.897,76.098-46,76.098c5.743,0,27.079-5.758,64.387-76.098C232.616,217.792,230.12,213.064,227.563,208.323z"/>
<path style="fill:#666666;" d="M245.878,247.18C204.4,319.823,179.339,320,170.667,320s-33.733-0.177-75.211-72.82
	c-6.018,16.668-10.122,36.048-10.122,62.154v160c0,11.76,9.563,21.333,21.333,21.333h128c11.771,0,21.333-9.573,21.333-21.333v-160
	C256,283.228,251.896,263.848,245.878,247.18z"/>
<path style="opacity:0.2;fill:#FFFFFF;enable-background:new    ;" d="M117.333,469.333v-160c0-9.852,0.461-18.5,1.118-26.651
	c-7.013-9.335-14.656-20.897-22.996-35.503c-6.018,16.668-10.122,36.048-10.122,62.154v160c0,11.76,9.563,21.333,21.333,21.333h24
	C123.31,490.667,117.333,481.094,117.333,469.333z"/>
<path style="opacity:0.2;enable-background:new    ;" d="M245.878,247.18c-8.34,14.605-15.983,26.168-22.996,35.503
	c0.658,8.151,1.118,16.799,1.118,26.651v160c0,11.76-5.977,21.333-13.333,21.333h24c11.771,0,21.333-9.573,21.333-21.333v-160
	C256,283.228,251.896,263.848,245.878,247.18z"/>
<g>
	<circle style="opacity:0.4;fill:#FFFFFF;enable-background:new    ;" cx="368" cy="272" r="5.333"/>
	<circle style="opacity:0.4;fill:#FFFFFF;enable-background:new    ;" cx="378.667" cy="293.333" r="5.333"/>
	<circle style="opacity:0.4;fill:#FFFFFF;enable-background:new    ;" cx="389.333" cy="272" r="5.333"/>
	<circle style="opacity:0.4;fill:#FFFFFF;enable-background:new    ;" cx="410.667" cy="272" r="5.333"/>
	<circle style="opacity:0.4;fill:#FFFFFF;enable-background:new    ;" cx="410.667" cy="325.333" r="5.333"/>
	<circle style="opacity:0.4;fill:#FFFFFF;enable-background:new    ;" cx="389.333" cy="346.667" r="5.333"/>
	<circle style="opacity:0.4;fill:#FFFFFF;enable-background:new    ;" cx="389.333" cy="304" r="5.333"/>
	<circle style="opacity:0.4;fill:#FFFFFF;enable-background:new    ;" cx="410.667" cy="293.333" r="5.333"/>
	<circle style="opacity:0.4;fill:#FFFFFF;enable-background:new    ;" cx="378.667" cy="314.667" r="5.333"/>
	<circle style="opacity:0.4;fill:#FFFFFF;enable-background:new    ;" cx="357.333" cy="314.667" r="5.333"/>
	<circle style="opacity:0.4;fill:#FFFFFF;enable-background:new    ;" cx="357.333" cy="293.333" r="5.333"/>
	<circle style="opacity:0.4;fill:#FFFFFF;enable-background:new    ;" cx="357.333" cy="261.333" r="5.333"/>
	<circle style="opacity:0.4;fill:#FFFFFF;enable-background:new    ;" cx="368" cy="336" r="5.333"/>
</g>
<linearGradient id="SVGID_1_" gradientUnits="userSpaceOnUse" x1="-44.8145" y1="636.7533" x2="-24.6213" y2="627.3342" gradientTransform="matrix(21.3333 0 0 -21.3333 996.3335 13791.667)">
	<stop  offset="0" style="stop-color:#FFFFFF;stop-opacity:0.2"/>
	<stop  offset="1" style="stop-color:#FFFFFF;stop-opacity:0"/>
</linearGradient>
<path style="fill:url(#SVGID_1_);" d="M448,319.292l-10.667-160c-0.375-5.604-5.031-9.958-10.646-9.958h-85.333
	c-5.615,0-10.271,4.354-10.646,9.958L320.021,320c0,31.639,23.128,57.807,53.333,62.922v107.745h-21.333
	c-5.896,0-10.667,4.771-10.667,10.667S346.125,512,352.021,512h64c5.896,0,10.667-4.771,10.667-10.667s-4.771-10.667-10.667-10.667
	h-21.333V382.921C424.893,377.798,448.018,351.566,448,319.292z M214.398,94.098c5.133-6.663,7.574-15.026,6.518-23.4l-5.333-42.667
	C213.583,12.052,199.938,0,183.833,0H157.5c-16.104,0-29.75,12.052-31.75,28.031l-5.333,42.656
	c-1.056,8.383,1.385,16.747,6.518,23.41C123.81,144.354,109.23,171.809,95,198.188c-15.25,28.26-31,57.469-31,111.146V352v85.333v32
	C64,492.865,83.146,512,106.667,512h128c23.521,0,42.667-19.135,42.667-42.667v-32V352v-42.667c0-53.677-15.75-82.885-31-111.146
	C232.103,171.809,217.523,144.354,214.398,94.098z"/>
<g>
</g>
<g>
</g>
<g>
</g>
<g>
</g>
<g>
</g>
<g>
</g>
<g>
</g>
<g>
</g>
<g>
</g>
<g>
</g>
<g>
</g>
<g>
</g>
<g>
</g>
<g>
</g>
<g>
</g>
</svg>
