<?xml version="1.0" encoding="iso-8859-1"?>
<!-- Generator: Adobe Illustrator 19.0.0, SVG Export Plug-In . SVG Version: 6.00 Build 0)  -->
<svg version="1.1" id="Capa_1" xmlns="http://www.w3.org/2000/svg" xmlns:xlink="http://www.w3.org/1999/xlink" x="0px" y="0px"
	 viewBox="0 0 512 512" style="enable-background:new 0 0 512 512;" xml:space="preserve">
<path style="fill:#303C42;" d="M506.264,278.542l-143.6-74.924V80.997l5.562,3.034c1.625,0.885,3.375,1.302,5.104,1.302
	c3.771,0,7.437-2.01,9.354-5.563c2.833-5.167,0.917-11.646-4.25-14.469l-117.33-64c-1.582-0.864-3.34-1.301-5.099-1.302
	c-1.762-0.001-3.524,0.437-5.109,1.302l-117.33,64c-5.167,2.823-7.083,9.302-4.25,14.469c2.792,5.167,9.271,7.073,14.458,4.26
	l5.562-3.034v122.62l-143.6,74.924c-5.229,2.729-7.25,9.167-4.521,14.396c2.729,5.229,9.166,7.25,14.395,4.521l5.729-2.99V480
	c0,5.896,4.771,10.667,10.666,10.667h74.665v10.667c0,5.896,4.771,10.667,10.666,10.667h277.326c5.896,0,10.666-4.771,10.666-10.667
	v-10.667h74.665c5.896,0,10.666-4.771,10.666-10.667V294.469l5.729,2.99c1.583,0.823,3.271,1.208,4.937,1.208
	c3.833,0,7.562-2.083,9.458-5.729C513.514,287.708,511.493,281.271,506.264,278.542z"/>
<path style="fill:#D7D8D6;" d="M170.66,69.361l85.333-46.548l85.333,46.548v123.126l-80.396-41.945
	c-3.083-1.604-6.792-1.604-9.875,0l-80.396,41.945V69.361z"/>
<polygon style="opacity:0.2;fill:#FFFFFF;enable-background:new    ;" points="170.66,192.487 191.993,181.357 191.993,69.361 
	255.993,22.813 170.66,69.361 "/>
<polygon style="opacity:0.1;enable-background:new    ;" points="255.993,22.813 319.993,69.361 319.993,181.357 341.326,192.487 
	341.326,69.361 "/>
<path id="SVGCleanerId_0" style="fill:#9E5F2C;" d="M298.66,490.667h-85.333V384c0-23.531,19.146-42.667,42.667-42.667
	S298.66,360.469,298.66,384V490.667z"/>
<g>
	<path id="SVGCleanerId_0_1_" style="fill:#9E5F2C;" d="M298.66,490.667h-85.333V384c0-23.531,19.146-42.667,42.667-42.667
		S298.66,360.469,298.66,384V490.667z"/>
</g>
<path style="opacity:0.2;fill:#FFFFFF;enable-background:new    ;" d="M223.993,405.333c0-23.531,19.146-42.667,42.667-42.667
	c12.374,0,23.44,5.38,31.241,13.826c-3.569-19.948-20.956-35.159-41.908-35.159c-23.521,0-42.667,19.135-42.667,42.667v106.667
	h10.667V405.333z"/>
<path style="fill:#D7D8D6;" d="M319.993,490.667V384c0-35.292-28.708-64-64-64s-64,28.708-64,64v106.667h-64V304.361l128-68.267
	l128,68.267v186.306H319.993z"/>
<polygon style="opacity:0.2;fill:#FFFFFF;enable-background:new    ;" points="127.993,490.667 149.326,490.667 149.326,304.361 
	255.993,236.094 127.993,304.361 "/>
<polygon style="opacity:0.1;enable-background:new    ;" points="255.993,236.094 362.66,304.361 362.66,490.667 383.993,490.667 
	383.993,304.361 "/>
<path style="fill:#D7D8D6;" d="M469.326,469.333h-64V315.738l5.646,3.012c1.604,0.844,3.313,1.25,5.021,1.25
	c3.813,0,7.5-2.052,9.417-5.646c2.771-5.198,0.792-11.656-4.396-14.438l-160-85.333c-3.125-1.667-6.917-1.667-10.042,0l-160,85.333
	c-5.188,2.781-7.167,9.24-4.396,14.438c2.771,5.188,9.25,7.115,14.438,4.396l5.646-3.012v153.595h-64V283.339l213.333-111.307
	l213.333,111.307V469.333z"/>
<polygon style="opacity:0.2;fill:#FFFFFF;enable-background:new    ;" points="42.66,469.333 63.993,469.333 63.993,283.339 
	255.993,172.031 42.66,283.339 "/>
<polygon style="opacity:0.1;enable-background:new    ;" points="255.993,172.031 447.993,283.339 447.993,469.333 469.326,469.333 
	469.326,283.339 "/>
<path style="fill:#303C42;" d="M266.66,117.333V96h10.667c5.896,0,10.667-4.771,10.667-10.667s-4.771-10.667-10.667-10.667H266.66
	V64c0-5.896-4.771-10.667-10.667-10.667S245.326,58.104,245.326,64v10.667H234.66c-5.896,0-10.667,4.771-10.667,10.667
	S228.764,96,234.66,96h10.667v21.333c0,5.896,4.771,10.667,10.667,10.667S266.66,123.229,266.66,117.333z"/>
<linearGradient id="SVGID_1_" gradientUnits="userSpaceOnUse" x1="-44.7739" y1="637.2324" x2="-22.35" y2="626.7755" gradientTransform="matrix(21.3333 0 0 -21.3333 996.3334 13791.667)">
	<stop  offset="0" style="stop-color:#FFFFFF;stop-opacity:0.2"/>
	<stop  offset="1" style="stop-color:#FFFFFF;stop-opacity:0"/>
</linearGradient>
<path style="fill:url(#SVGID_1_);" d="M506.264,278.542l-143.6-74.924V80.997l5.562,3.034c1.625,0.885,3.375,1.302,5.104,1.302
	c3.771,0,7.437-2.01,9.354-5.563c2.833-5.167,0.917-11.646-4.25-14.469l-117.33-64c-1.582-0.864-3.34-1.301-5.099-1.302
	c-1.762-0.001-3.524,0.437-5.109,1.302l-117.33,64c-5.167,2.823-7.083,9.302-4.25,14.469c2.792,5.167,9.271,7.073,14.458,4.26
	l5.562-3.034v122.62l-143.6,74.924c-5.229,2.729-7.25,9.167-4.521,14.396c2.729,5.229,9.166,7.25,14.395,4.521l5.729-2.99V480
	c0,5.896,4.771,10.667,10.666,10.667h74.665v10.667c0,5.896,4.771,10.667,10.666,10.667h277.326c5.896,0,10.666-4.771,10.666-10.667
	v-10.667h74.665c5.896,0,10.666-4.771,10.666-10.667V294.469l5.729,2.99c1.583,0.823,3.271,1.208,4.937,1.208
	c3.833,0,7.562-2.083,9.458-5.729C513.514,287.708,511.493,281.271,506.264,278.542z"/>
<g>
</g>
<g>
</g>
<g>
</g>
<g>
</g>
<g>
</g>
<g>
</g>
<g>
</g>
<g>
</g>
<g>
</g>
<g>
</g>
<g>
</g>
<g>
</g>
<g>
</g>
<g>
</g>
<g>
</g>
</svg>
