<?xml version="1.0" encoding="iso-8859-1"?>
<!-- Generator: Adobe Illustrator 19.0.0, SVG Export Plug-In . SVG Version: 6.00 Build 0)  -->
<svg version="1.1" id="Capa_1" xmlns="http://www.w3.org/2000/svg" xmlns:xlink="http://www.w3.org/1999/xlink" x="0px" y="0px"
	 viewBox="0 0 469.333 469.333" style="enable-background:new 0 0 469.333 469.333;" xml:space="preserve">
<path style="fill:#303C42;" d="M458.667,341.329h-97.083c-4.686-41.659-35.685-75.414-76.253-83.449l11.536-17.303
	c2.823-4.229,2.26-9.865-1.333-13.458l-10.667-10.668c-2-2-4.708-3.125-7.543-3.125h-21.333c-2.833,0-5.542,1.125-7.543,3.125
	l-10.667,10.668c-3.594,3.594-4.156,9.229-1.333,13.458l11.536,17.303c-40.568,8.035-71.566,41.79-76.253,83.449H99.993
	L359.536,81.79c4.167-4.167,4.167-10.917,0-15.083l-54.013-54.012c-16.917-16.917-44.449-16.938-61.367,0L12.688,244.16
	c-16.917,16.917-16.917,44.449,0,61.366l51.294,51.293v69.846c0,23.531,19.137,42.668,42.669,42.668h320.014
	c23.531,0,42.668-19.137,42.668-42.668v-74.669C469.333,346.1,464.563,341.329,458.667,341.329z M193.078,341.333
	c5.232-36.089,36.074-64,73.589-64s68.357,27.911,73.589,64H193.078z"/>
<polygon style="fill:#DFE1DF;" points="260.417,234.667 272.917,234.667 274.271,236.021 266.667,247.438 259.063,236.021 "/>
<path style="fill:#B5231D;" d="M27.792,259.25L259.25,27.792c4.302-4.302,9.948-6.448,15.594-6.448
	c5.656,0,11.302,2.146,15.604,6.448l46.469,46.469L74.26,336.917l-46.469-46.469C19.188,281.844,19.188,267.854,27.792,259.25z"/>
<path style="opacity:0.2;fill:#FFFFFF;enable-background:new    ;" d="M38.453,301.104c-8.604-8.604-8.604-22.594,0-31.198
	L269.911,38.448c4.302-4.302,9.948-6.448,15.594-6.448c5.65,0,11.289,2.143,15.589,6.438l-10.646-10.646
	c-4.302-4.302-9.948-6.448-15.604-6.448c-5.646,0-11.292,2.146-15.594,6.448L27.792,259.25c-8.604,8.604-8.604,22.594,0,31.198
	l46.469,46.469l0.003-0.003L38.453,301.104z"/>
<path style="fill:#B5231D;" d="M448,426.667c0,11.76-9.573,21.333-21.333,21.333h-320c-11.76,0-21.333-9.573-21.333-21.333v-64H448
	V426.667z"/>
<path style="opacity:0.1;enable-background:new    ;" d="M437.333,362.667V416c0,11.76-9.573,21.333-21.333,21.333H96
	c-3.12,0-6.034-0.749-8.708-1.958C90.641,442.781,98.026,448,106.667,448h320c11.76,0,21.333-9.573,21.333-21.333v-64H437.333z"/>
<linearGradient id="SVGID_1_" gradientUnits="userSpaceOnUse" x1="-64.8909" y1="616.3222" x2="-43.7511" y2="606.4643" gradientTransform="matrix(21.3333 0 0 -21.3333 1430.1111 13315.2227)">
	<stop  offset="0" style="stop-color:#FFFFFF;stop-opacity:0.2"/>
	<stop  offset="1" style="stop-color:#FFFFFF;stop-opacity:0"/>
</linearGradient>
<path style="fill:url(#SVGID_1_);" d="M458.667,341.329h-97.083c-4.686-41.659-35.685-75.414-76.253-83.449l11.536-17.303
	c2.823-4.229,2.26-9.865-1.333-13.458l-10.667-10.668c-2-2-4.708-3.125-7.543-3.125h-21.333c-2.833,0-5.542,1.125-7.543,3.125
	l-10.667,10.668c-3.594,3.594-4.156,9.229-1.333,13.458l11.536,17.303c-40.568,8.035-71.566,41.79-76.253,83.449H99.993
	L359.536,81.79c4.167-4.167,4.167-10.917,0-15.083l-54.013-54.012c-16.917-16.917-44.449-16.938-61.367,0L12.688,244.16
	c-16.917,16.917-16.917,44.449,0,61.366l51.294,51.293v69.846c0,23.531,19.137,42.668,42.669,42.668h320.014
	c23.531,0,42.668-19.137,42.668-42.668v-74.669C469.333,346.1,464.563,341.329,458.667,341.329z M193.078,341.333
	c5.232-36.089,36.074-64,73.589-64s68.357,27.911,73.589,64H193.078z"/>
<g>
</g>
<g>
</g>
<g>
</g>
<g>
</g>
<g>
</g>
<g>
</g>
<g>
</g>
<g>
</g>
<g>
</g>
<g>
</g>
<g>
</g>
<g>
</g>
<g>
</g>
<g>
</g>
<g>
</g>
</svg>
