<?xml version="1.0" encoding="iso-8859-1"?>
<!-- Generator: Adobe Illustrator 19.0.0, SVG Export Plug-In . SVG Version: 6.00 Build 0)  -->
<svg version="1.1" id="Capa_1" xmlns="http://www.w3.org/2000/svg" xmlns:xlink="http://www.w3.org/1999/xlink" x="0px" y="0px"
	 viewBox="0 0 512 512" style="enable-background:new 0 0 512 512;" xml:space="preserve">
<path style="fill:#303C42;" d="M375.716,136.378C351.802,57.561,278.521,0,192,0C86.135,0,0,86.135,0,192
	c0,84.669,55.78,159.229,136.285,183.625C160.199,454.443,233.479,512,320,512c105.865,0,192-86.135,192-192
	C512,235.367,456.207,160.755,375.716,136.378z M128.854,303.138C89.081,280.582,64,238.594,64,192c0-70.583,57.417-128,128-128
	c47.613,0,89.152,26.181,111.201,64.852C210.754,136.919,136.951,210.701,128.854,303.138z M320,192c0,70.583-57.417,128-128,128
	C192,249.417,249.417,192,320,192z M320,448c-47.613,0-89.152-26.181-111.201-64.852c92.444-8.068,166.245-81.845,174.345-174.28
	C422.902,231.435,448,273.445,448,320C448,390.583,390.583,448,320,448z"/>
<g>
	<path style="fill:#FBC02D;" d="M21.333,192C21.333,97.896,97.896,21.333,192,21.333S362.667,97.896,362.667,192
		c0,91.63-72.643,166.415-163.336,170.296c-2.385-6.784-4.201-13.81-5.419-21.059c81.456-1.039,147.422-67.539,147.422-149.237
		c0-82.344-66.99-149.333-149.333-149.333S42.667,109.656,42.667,192c0,58.143,33.517,110.079,85.674,134.728
		c0.292,8.323,1.113,16.497,2.435,24.522C65.573,326.198,21.333,263.092,21.333,192z"/>
	<path style="fill:#FBC02D;" d="M320,490.667c-94.104,0-170.667-76.563-170.667-170.667c0-91.63,72.643-166.415,163.336-170.296
		c2.385,6.784,4.201,13.81,5.419,21.059C236.633,171.802,170.667,238.302,170.667,320c0,82.344,66.99,149.333,149.333,149.333
		S469.333,402.344,469.333,320c0-58.1-33.533-110.1-85.674-134.741c-0.29-8.324-1.115-16.499-2.438-24.523
		C446.414,185.788,490.667,248.93,490.667,320C490.667,414.104,414.104,490.667,320,490.667z"/>
</g>
<path style="opacity:0.1;enable-background:new    ;" d="M383.659,185.259c3.829,1.81,7.337,4.063,10.96,6.159
	c-0.048-8.638-0.902-17.07-2.195-25.363c-3.742-1.763-7.305-3.822-11.202-5.319C382.544,168.76,383.368,176.935,383.659,185.259z"/>
<path style="opacity:0.1;enable-background:new    ;" d="M205.986,340.477c-3.992,0.374-7.997,0.708-12.074,0.76
	c1.219,7.249,3.034,14.275,5.419,21.059c4.319-0.185,8.553-0.677,12.784-1.177C209.63,354.431,207.499,347.576,205.986,340.477z"/>
<linearGradient id="SVGID_1_" gradientUnits="userSpaceOnUse" x1="-46.4728" y1="639.9722" x2="-22.9335" y2="628.9965" gradientTransform="matrix(21.3333 0 0 -21.3333 996.3334 13791.667)">
	<stop  offset="0" style="stop-color:#FFFFFF;stop-opacity:0.2"/>
	<stop  offset="1" style="stop-color:#FFFFFF;stop-opacity:0"/>
</linearGradient>
<path style="fill:url(#SVGID_1_);" d="M375.716,136.378C351.802,57.561,278.521,0,192,0C86.135,0,0,86.135,0,192
	c0,84.669,55.78,159.229,136.285,183.625C160.199,454.443,233.479,512,320,512c105.865,0,192-86.135,192-192
	C512,235.367,456.207,160.755,375.716,136.378z M128.854,303.138C89.081,280.582,64,238.594,64,192c0-70.583,57.417-128,128-128
	c47.613,0,89.152,26.181,111.201,64.852C210.754,136.919,136.951,210.701,128.854,303.138z M320,192c0,70.583-57.417,128-128,128
	C192,249.417,249.417,192,320,192z M320,448c-47.613,0-89.152-26.181-111.201-64.852c92.444-8.068,166.245-81.845,174.345-174.28
	C422.902,231.435,448,273.445,448,320C448,390.583,390.583,448,320,448z"/>
<g>
</g>
<g>
</g>
<g>
</g>
<g>
</g>
<g>
</g>
<g>
</g>
<g>
</g>
<g>
</g>
<g>
</g>
<g>
</g>
<g>
</g>
<g>
</g>
<g>
</g>
<g>
</g>
<g>
</g>
</svg>
