<?xml version="1.0" encoding="iso-8859-1"?>
<!-- Generator: Adobe Illustrator 19.0.0, SVG Export Plug-In . SVG Version: 6.00 Build 0)  -->
<svg version="1.1" id="Capa_1" xmlns="http://www.w3.org/2000/svg" xmlns:xlink="http://www.w3.org/1999/xlink" x="0px" y="0px"
	 viewBox="0 0 512 512" style="enable-background:new 0 0 512 512;" xml:space="preserve">
<path style="fill:#303C42;" d="M501.333,490.667h-10.667v-85.333c0-23.531-19.135-42.667-42.667-42.667v-85.333
	c0-23.531-19.135-42.667-42.667-42.667v-85.333c0-23.531-19.135-42.667-42.667-42.667h-82.762l28.72-32
	C315.958,66.417,320,55.531,320,44c0-24.26-18.073-44-40.292-44c-8.188,0-16.24,3.917-23.708,11.448
	C248.531,3.917,240.479,0,232.292,0C210.073,0,192,19.74,192,44c0,11.531,4.042,22.417,11.406,30.698l28.69,31.969h-82.763
	c-23.531,0-42.667,19.135-42.667,42.667v85.333C83.135,234.667,64,253.802,64,277.333v85.333c-23.531,0-42.667,19.135-42.667,42.667
	v85.333H10.667C4.771,490.667,0,495.438,0,501.333S4.771,512,10.667,512h490.667c5.896,0,10.667-4.771,10.667-10.667
	S507.229,490.667,501.333,490.667z"/>
<path style="fill:#9575CD;" d="M213.333,44c0-12.5,8.5-22.667,18.958-22.667c2.865,0,8.458,3.406,14.813,13
	c3.958,5.979,13.833,5.979,17.792,0c6.354-9.594,11.948-13,14.813-13c10.458,0,18.958,10.167,18.958,22.667
	c0,6.292-2.125,12.146-5.948,16.448L256,101.365l-36.688-40.885C215.458,56.146,213.333,50.292,213.333,44z"/>
<path style="fill:#FAFAFA;" d="M149.333,128h213.333c11.76,0,21.333,9.573,21.333,21.333v17.607
	c-3.819-1.553-7.232-3.458-10.875-5.534c-9.917-5.656-21.156-12.073-42.677-12.073c-21.49,0-32.719,6.417-42.615,12.073
	c-8.698,4.969-16.208,9.26-32.031,9.26c-15.833,0-23.333-4.292-32.031-9.26c-9.896-5.656-21.115-12.073-42.604-12.073
	s-32.708,6.417-42.604,12.073c-3.546,2.025-6.863,3.895-10.563,5.427v-17.5C128,137.573,137.573,128,149.333,128z"/>
<path style="fill:#9575CD;" d="M128,189.345c8.836-2.405,15.306-6.078,21.156-9.418c8.688-4.969,16.188-9.26,32.01-9.26
	s23.323,4.292,32.021,9.26c9.896,5.656,21.115,12.073,42.615,12.073c21.49,0,32.719-6.417,42.615-12.073
	c8.698-4.969,16.198-9.26,32.031-9.26c15.865,0,23.396,4.292,32.115,9.271c5.911,3.371,12.461,7.072,21.438,9.474v45.255H128
	V189.345z"/>
<path style="fill:#FAFAFA;" d="M106.667,256h10.667h277.333h10.667c11.76,0,21.333,9.573,21.333,21.333v17.508
	c-5.113,2.107-11.629,3.826-21.438,3.826c-15.865,0-23.385-4.292-32.094-9.26c-9.917-5.656-21.156-12.073-42.688-12.073
	c-21.5,0-32.719,6.417-42.615,12.073c-8.698,4.969-16.198,9.26-32.031,9.26s-23.333-4.292-32.031-9.26
	c-9.896-5.656-21.115-12.073-42.604-12.073s-32.708,6.417-42.604,12.073c-8.698,4.969-16.198,9.26-32.021,9.26
	c-9.699,0-16.147-1.689-21.208-3.767v-17.566C85.333,265.573,94.906,256,106.667,256z"/>
<path style="fill:#9575CD;" d="M85.333,317.361C91.16,318.926,98.021,320,106.542,320c21.49,0,32.708-6.417,42.604-12.073
	c8.698-4.969,16.198-9.26,32.021-9.26s23.323,4.292,32.021,9.26c9.896,5.656,21.115,12.073,42.615,12.073
	s32.719-6.417,42.615-12.073c8.698-4.969,16.208-9.26,32.031-9.26c15.875,0,23.396,4.292,32.115,9.271
	c9.906,5.656,21.146,12.063,42.667,12.063c8.613,0,15.557-1.09,21.438-2.684v45.35H85.333V317.361z"/>
<path id="SVGCleanerId_0" style="fill:#FAFAFA;" d="M64,384h384c11.76,0,21.333,9.573,21.333,21.333v0.811
	c-14.664,1.74-23.936,6.656-32.01,11.262c-8.708,4.969-16.229,9.26-32.094,9.26c-15.865,0-23.385-4.292-32.094-9.26
	c-9.917-5.656-21.156-12.073-42.688-12.073c-21.49,0-32.719,6.417-42.615,12.073c-8.698,4.969-16.208,9.26-32.031,9.26
	c-15.833,0-23.333-4.292-32.031-9.26c-9.896-5.656-21.115-12.073-42.604-12.073s-32.708,6.417-42.604,12.073
	c-8.698,4.969-16.198,9.26-32.021,9.26c-15.802,0-23.292-4.292-31.969-9.26c-8.053-4.603-17.294-9.517-31.906-11.26v-0.813
	C42.667,393.573,52.24,384,64,384z"/>
<path id="SVGCleanerId_1" style="fill:#9575CD;" d="M42.667,490.667v-63.195c9.035,1.461,14.854,4.763,21.302,8.456
	C73.865,441.583,85.073,448,106.542,448c21.49,0,32.708-6.417,42.604-12.073c8.698-4.969,16.198-9.26,32.021-9.26
	s23.323,4.292,32.021,9.26c9.896,5.656,21.115,12.073,42.615,12.073c21.49,0,32.719-6.417,42.615-12.073
	c8.698-4.969,16.198-9.26,32.031-9.26c15.875,0,23.396,4.292,32.115,9.271c9.906,5.656,21.146,12.063,42.667,12.063
	c21.521,0,32.76-6.417,42.677-12.073c6.483-3.699,12.328-7.009,21.427-8.466v63.206H42.667z"/>
<g>
	<path id="SVGCleanerId_0_1_" style="fill:#FAFAFA;" d="M64,384h384c11.76,0,21.333,9.573,21.333,21.333v0.811
		c-14.664,1.74-23.936,6.656-32.01,11.262c-8.708,4.969-16.229,9.26-32.094,9.26c-15.865,0-23.385-4.292-32.094-9.26
		c-9.917-5.656-21.156-12.073-42.688-12.073c-21.49,0-32.719,6.417-42.615,12.073c-8.698,4.969-16.208,9.26-32.031,9.26
		c-15.833,0-23.333-4.292-32.031-9.26c-9.896-5.656-21.115-12.073-42.604-12.073s-32.708,6.417-42.604,12.073
		c-8.698,4.969-16.198,9.26-32.021,9.26c-15.802,0-23.292-4.292-31.969-9.26c-8.053-4.603-17.294-9.517-31.906-11.26v-0.813
		C42.667,393.573,52.24,384,64,384z"/>
</g>
<g>
	<path id="SVGCleanerId_1_1_" style="fill:#9575CD;" d="M42.667,490.667v-63.195c9.035,1.461,14.854,4.763,21.302,8.456
		C73.865,441.583,85.073,448,106.542,448c21.49,0,32.708-6.417,42.604-12.073c8.698-4.969,16.198-9.26,32.021-9.26
		s23.323,4.292,32.021,9.26c9.896,5.656,21.115,12.073,42.615,12.073c21.49,0,32.719-6.417,42.615-12.073
		c8.698-4.969,16.198-9.26,32.031-9.26c15.875,0,23.396,4.292,32.115,9.271c9.906,5.656,21.146,12.063,42.667,12.063
		c21.521,0,32.76-6.417,42.677-12.073c6.483-3.699,12.328-7.009,21.427-8.466v63.206H42.667z"/>
</g>
<g>
	<path style="opacity:0.2;fill:#FFFFFF;enable-background:new    ;" d="M362.563,179.938c-8.719-4.979-16.25-9.271-32.115-9.271
		c-15.833,0-23.333,4.292-32.031,9.26C288.521,185.583,277.292,192,255.802,192c-21.5,0-32.719-6.417-42.615-12.073
		c-8.698-4.969-16.198-9.26-32.021-9.26s-23.323,4.292-32.01,9.26c-5.85,3.34-12.32,7.013-21.156,9.418v21.333
		c8.836-2.405,15.306-6.078,21.156-9.418c8.688-4.969,16.188-9.26,32.01-9.26s23.323,4.292,32.021,9.26
		c9.896,5.656,21.115,12.073,42.615,12.073c21.49,0,32.719-6.417,42.615-12.073c8.698-4.969,16.198-9.26,32.031-9.26
		c15.865,0,23.396,4.292,32.115,9.271c5.911,3.371,12.461,7.072,21.438,9.474v-21.333
		C375.023,187.009,368.474,183.309,362.563,179.938z"/>
	<path style="opacity:0.2;fill:#FFFFFF;enable-background:new    ;" d="M405.229,320c-21.521,0-32.76-6.406-42.667-12.063
		c-8.719-4.979-16.24-9.271-32.115-9.271c-15.823,0-23.333,4.292-32.031,9.26C288.521,313.583,277.302,320,255.802,320
		s-32.719-6.417-42.615-12.073c-8.698-4.969-16.198-9.26-32.021-9.26s-23.323,4.292-32.021,9.26
		C139.25,313.583,128.031,320,106.542,320c-8.521,0-15.382-1.074-21.208-2.639v21.333c5.827,1.565,12.688,2.639,21.208,2.639
		c21.49,0,32.708-6.417,42.604-12.073c8.698-4.969,16.198-9.26,32.021-9.26s23.323,4.292,32.021,9.26
		c9.896,5.656,21.115,12.073,42.615,12.073s32.719-6.417,42.615-12.073c8.698-4.969,16.208-9.26,32.031-9.26
		c15.875,0,23.396,4.292,32.115,9.271c9.906,5.656,21.146,12.063,42.667,12.063c8.613,0,15.557-1.09,21.438-2.684v-21.333
		C420.786,318.91,413.842,320,405.229,320z"/>
	<path style="opacity:0.2;fill:#FFFFFF;enable-background:new    ;" d="M447.906,435.927C437.99,441.583,426.75,448,405.229,448
		c-21.521,0-32.76-6.406-42.667-12.063c-8.719-4.979-16.24-9.271-32.115-9.271c-15.833,0-23.333,4.292-32.031,9.26
		C288.521,441.583,277.292,448,255.802,448c-21.5,0-32.719-6.417-42.615-12.073c-8.698-4.969-16.198-9.26-32.021-9.26
		s-23.323,4.292-32.021,9.26C139.25,441.583,128.031,448,106.542,448c-21.469,0-32.677-6.417-42.573-12.073
		c-6.448-3.693-12.267-6.995-21.302-8.456v21.333c9.035,1.461,14.854,4.763,21.302,8.456c9.896,5.656,21.104,12.073,42.573,12.073
		c21.49,0,32.708-6.417,42.604-12.073c8.698-4.969,16.198-9.26,32.021-9.26s23.323,4.292,32.021,9.26
		c9.896,5.656,21.115,12.073,42.615,12.073c21.49,0,32.719-6.417,42.615-12.073c8.698-4.969,16.198-9.26,32.031-9.26
		c15.875,0,23.396,4.292,32.115,9.271c9.906,5.656,21.146,12.063,42.667,12.063c21.521,0,32.76-6.417,42.677-12.073
		c6.483-3.699,12.328-7.009,21.427-8.466v-21.333C460.234,428.918,454.389,432.228,447.906,435.927z"/>
</g>
<linearGradient id="SVGID_1_" gradientUnits="userSpaceOnUse" x1="-43.4409" y1="636.2007" x2="-21.3021" y2="625.8778" gradientTransform="matrix(21.3333 0 0 -21.3333 996.3334 13791.667)">
	<stop  offset="0" style="stop-color:#FFFFFF;stop-opacity:0.2"/>
	<stop  offset="1" style="stop-color:#FFFFFF;stop-opacity:0"/>
</linearGradient>
<path style="fill:url(#SVGID_1_);" d="M501.333,490.667h-10.667v-85.333c0-23.531-19.135-42.667-42.667-42.667v-85.333
	c0-23.531-19.135-42.667-42.667-42.667v-85.333c0-23.531-19.135-42.667-42.667-42.667h-82.762l28.72-32
	C315.958,66.417,320,55.531,320,44c0-24.26-18.073-44-40.292-44c-8.188,0-16.24,3.917-23.708,11.448
	C248.531,3.917,240.479,0,232.292,0C210.073,0,192,19.74,192,44c0,11.531,4.042,22.417,11.406,30.698l28.69,31.969h-82.763
	c-23.531,0-42.667,19.135-42.667,42.667v85.333C83.135,234.667,64,253.802,64,277.333v85.333c-23.531,0-42.667,19.135-42.667,42.667
	v85.333H10.667C4.771,490.667,0,495.438,0,501.333S4.771,512,10.667,512h490.667c5.896,0,10.667-4.771,10.667-10.667
	S507.229,490.667,501.333,490.667z"/>
<g>
</g>
<g>
</g>
<g>
</g>
<g>
</g>
<g>
</g>
<g>
</g>
<g>
</g>
<g>
</g>
<g>
</g>
<g>
</g>
<g>
</g>
<g>
</g>
<g>
</g>
<g>
</g>
<g>
</g>
</svg>
