<?xml version="1.0" encoding="iso-8859-1"?>
<!-- Generator: Adobe Illustrator 19.0.0, SVG Export Plug-In . SVG Version: 6.00 Build 0)  -->
<svg version="1.1" id="Layer_1" xmlns="http://www.w3.org/2000/svg" xmlns:xlink="http://www.w3.org/1999/xlink" x="0px" y="0px"
	 viewBox="0 0 410.195 410.195" style="enable-background:new 0 0 410.195 410.195;" xml:space="preserve">
<g>
	<path style="fill:#5C6670;" d="M356.317,144.832c27.08,0,49.034,21.954,49.034,49.036c0,27.08-21.954,49.034-49.034,49.034h-67.565
		c-27.08,0-49.035-21.954-49.035-49.034c0-27.082,21.955-49.036,49.035-49.036H356.317z"/>
	<path style="fill:#7D868C;" d="M410.152,162.052c-0.894-26.295-22.478-47.344-48.992-47.344h-67.565
		c-11.05,0-21.245,3.658-29.445,9.826H157.196c-38.202,0-69.994,27.371-76.883,63.566c-0.006,0.013-0.023,0.024-0.027,0.038
		c-1.322,5.14-5.427,9.16-10.612,10.368H39.456C17.666,198.507,0,216.171,0,237.962c0,21.792,17.666,39.456,39.456,39.456h33.316
		c13.196,0,24.872-6.485,32.035-16.436c13.874,12.506,32.239,20.122,52.389,20.122h107.866c39.857,0,72.734-29.797,77.632-68.325
		h5.386c5.452,10.608,16.498,17.871,29.245,17.871c18.152,0,32.87-14.719,32.87-32.871v-34.034
		C410.195,163.177,410.182,162.613,410.152,162.052z"/>
	<path style="fill:#5C6670;" d="M293.771,261.882c0,18.559-15.047,33.605-33.607,33.605s-33.606-15.047-33.606-33.605v-46.306
		c0-18.56,15.046-33.605,33.606-33.605s33.607,15.046,33.607,33.605V261.882z"/>
	<circle style="fill:#333E48;" cx="340.686" cy="142.556" r="5.821"/>
	<circle style="fill:#5C6670;" cx="154.821" cy="146.567" r="2.911"/>
	<circle style="fill:#5C6670;" cx="185.284" cy="136.733" r="2.911"/>
	<circle style="fill:#5C6670;" cx="128.371" cy="142.556" r="2.911"/>
	<circle style="fill:#5C6670;" cx="167.961" cy="160.833" r="2.911"/>
	<circle style="fill:#5C6670;" cx="199.64" cy="154.197" r="2.911"/>
	<circle style="fill:#5C6670;" cx="216.171" cy="142.556" r="2.911"/>
	<circle style="fill:#5C6670;" cx="232.124" cy="133.823" r="2.911"/>
</g>
<g>
</g>
<g>
</g>
<g>
</g>
<g>
</g>
<g>
</g>
<g>
</g>
<g>
</g>
<g>
</g>
<g>
</g>
<g>
</g>
<g>
</g>
<g>
</g>
<g>
</g>
<g>
</g>
<g>
</g>
</svg>
