<?xml version="1.0" encoding="iso-8859-1"?>
<!-- Generator: Adobe Illustrator 19.0.0, SVG Export Plug-In . SVG Version: 6.00 Build 0)  -->
<svg version="1.1" id="Layer_1" xmlns="http://www.w3.org/2000/svg" xmlns:xlink="http://www.w3.org/1999/xlink" x="0px" y="0px"
	 viewBox="0 0 366.766 366.766" style="enable-background:new 0 0 366.766 366.766;" xml:space="preserve">
<g>
	<g>
		<path style="fill:#B36F0F;" d="M205.791,279.735c-0.365-1.787-1.945-3.131-3.841-3.131h-5.485c-2.164,0-3.919,1.756-3.919,3.92
			c0,2.167,1.755,3.922,3.919,3.922h1.564v6.97c0,2.166,1.756,3.921,3.921,3.921c2.166,0,3.921-1.755,3.921-3.921v-10.892
			C205.871,280.255,205.843,279.991,205.791,279.735z"/>
		<g>
			<path style="fill:#B36F0F;" d="M197.95,279.735c-0.365-1.787-1.946-3.131-3.841-3.131h-5.484c-2.166,0-3.921,1.756-3.921,3.92
				c0,2.167,1.755,3.922,3.921,3.922h1.563v6.97c0,2.166,1.755,3.921,3.921,3.921s3.92-1.755,3.92-3.921v-10.892
				C198.029,280.255,198.003,279.991,197.95,279.735z"/>
		</g>
		<path style="fill:#B36F0F;" d="M190.109,279.735c-0.366-1.787-1.946-3.131-3.842-3.131h-5.483c-2.166,0-3.921,1.756-3.921,3.92
			c0,2.167,1.755,3.922,3.921,3.922h1.564v6.97c0,2.166,1.755,3.921,3.919,3.921c2.166,0,3.921-1.755,3.921-3.921v-10.892
			C190.188,280.255,190.16,279.991,190.109,279.735z"/>
	</g>
	<path style="fill:#2D3740;" d="M183.535,217.635c-19.753,0-35.763-16.01-35.763-35.764c0-19.751,16.011-35.762,35.763-35.761
		h102.684c0,39.5-32.023,71.523-71.526,71.525L183.535,217.635L183.535,217.635z"/>
	<path style="fill:#333E48;" d="M77.149,340.034c71.61,0,129.663-58.052,129.663-129.663V26.731
		c-71.61,0-129.662,58.052-129.662,129.663"/>
	<path style="fill:#333E48;" d="M77.149,340.034c71.61,0,129.663-58.052,129.663-129.663V26.731
		c-71.61,0-129.662,58.052-129.662,129.663"/>
	<path style="fill:#333E48;" d="M77.149,340.034H0l77.149-77.148l0.001-106.491c0-71.611,58.052-129.663,129.662-129.663v183.64
		C206.811,281.982,148.759,340.034,77.149,340.034"/>
	<path style="fill:#FFFFFF;" d="M140.582,106.708c0,24.53,13.344,45.928,33.16,57.374v48.189c0,19.131,9.347,36.069,23.714,46.528
		l0,0c6.302-15.125,9.355-30.761,9.355-48.429V40.479C170.234,40.479,140.582,70.13,140.582,106.708z"/>
	<path style="fill:#2D3740;" d="M107.085,219.146c19.753,0,35.764-16.011,35.764-35.764c0-19.751-16.011-35.763-35.764-35.762H4.403
		c0,39.501,32.022,71.523,71.525,71.525h31.157V219.146z"/>
	<circle style="fill:#2D3740;" cx="176.863" cy="81.613" r="8.256"/>
	<g>
		<path style="fill:#ED9900;" d="M366.766,106.708c0-44.17-35.807-79.977-79.977-79.977h-79.978v79.977H366.766z"/>
		<path style="fill:#333E48;" d="M343.61,50.439c-16.964,9.549-28.429,27.715-28.429,48.568c0,2.614,0.193,5.182,0.541,7.7h51.043
			C366.766,84.764,357.922,64.89,343.61,50.439z"/>
		<rect x="206.811" y="106.708" style="fill:#B36F0F;" width="159.954" height="13.447"/>
	</g>
	<g>
		<path style="fill:#FFB648;" d="M190.108,279.735c-0.365-1.787-1.946-3.131-3.841-3.131h-5.485c-2.164,0-3.919,1.756-3.919,3.92
			c0,2.167,1.755,3.922,3.919,3.922h1.564v6.97c0,2.166,1.756,3.921,3.921,3.921c2.166,0,3.921-1.755,3.921-3.921v-10.892
			C190.188,280.255,190.16,279.991,190.108,279.735z"/>
		<g>
			<path style="fill:#FFB648;" d="M182.268,279.735c-0.366-1.787-1.947-3.131-3.841-3.131h-5.485c-2.166,0-3.921,1.756-3.921,3.92
				c0,2.167,1.755,3.922,3.921,3.922h1.564v6.97c0,2.166,1.755,3.921,3.921,3.921c2.165,0,3.919-1.755,3.919-3.921v-10.892
				C182.346,280.255,182.32,279.991,182.268,279.735z"/>
		</g>
		<path style="fill:#FFB648;" d="M174.426,279.735c-0.366-1.787-1.946-3.131-3.842-3.131h-5.483c-2.166,0-3.921,1.756-3.921,3.92
			c0,2.167,1.755,3.922,3.921,3.922h1.563v6.97c0,2.166,1.755,3.921,3.92,3.921c2.166,0,3.921-1.755,3.921-3.921v-10.892
			C174.506,280.255,174.477,279.991,174.426,279.735z"/>
	</g>
</g>
<g>
</g>
<g>
</g>
<g>
</g>
<g>
</g>
<g>
</g>
<g>
</g>
<g>
</g>
<g>
</g>
<g>
</g>
<g>
</g>
<g>
</g>
<g>
</g>
<g>
</g>
<g>
</g>
<g>
</g>
</svg>
