<?xml version="1.0" standalone="no"?><!DOCTYPE svg PUBLIC "-//W3C//DTD SVG 1.1//EN" "http://www.w3.org/Graphics/SVG/1.1/DTD/svg11.dtd"><svg class="icon" height="512" viewBox="0 0 1024 1024" version="1.1" xmlns="http://www.w3.org/2000/svg"><path d="M683.886263 579.674779c-9.978512-9.978512-9.978512-26.19999 0-36.178502l135.40073-135.40073 109.814802-109.814802c16.119134-16.119134 43.700765-4.707811 43.700765 18.114837l0 245.266703 0 245.266703c0 22.771476-27.58163 34.233971-43.700765 18.114837l-109.814802-109.814802L683.886263 579.674779zM102.881015 365.622907l229.352256 195.988206-229.352256 195.988206 0-195.988206L102.881015 365.622907M51.70916 310.101444l0 251.50967 0 251.50967c0 21.850382 25.585928 33.619909 42.216781 19.445305l294.289341-251.50967c5.987107-5.117186 8.955075-12.281245 8.955075-19.445305 0-7.16406-2.967968-14.32812-8.955075-19.445305L93.925941 290.656139C77.34626 276.430363 51.70916 288.251062 51.70916 310.101444L51.70916 310.101444zM563.427715 156.483534l0 100.194493-51.171855 0L512.255859 156.483534 563.427715 156.483534zM563.427715 307.849883l0 102.343711-51.171855 0 0-102.343711L563.427715 307.849883zM563.427715 461.365449l0 102.343711-51.171855 0 0-102.343711L563.427715 461.365449zM563.427715 614.881015l0 102.343711-51.171855 0 0-102.343711L563.427715 614.881015zM563.427715 768.396582l0 102.343711-51.171855 0 0-102.343711L563.427715 768.396582zM563.427715 921.912148l0 102.343711-51.171855 0 0-102.343711L563.427715 921.912148zM844.87292 181.557743c0 5.833592-1.995702 11.616011-5.78242 16.221478-4.912498 5.884763-12.12773 9.36445-19.803508 9.36445l-153.515566 0c-14.123432 0-25.585928-11.462496-25.585928-25.585928s11.462496-25.585928 25.585928-25.585928l115.54605 0c-23.180851-39.914047-85.098796-104.492929-243.475688-104.492929-224.030383 0-252.021388 129.260107-253.095997 134.786667-2.712108 13.816401-16.016791 22.924991-29.833192 20.315227-13.765229-2.609765-23.078507-15.095697-20.468742-29.526161 1.279296-7.215232 34.541002-176.747589 303.449103-176.747589 268.447554 0 305.137774 169.071811 306.519414 176.23587C844.719404 178.180401 844.87292 179.869072 844.87292 181.557743z" /></svg>