<svg id="Capa_1" enable-background="new 0 0 488.462 488.462" height="512" viewBox="0 0 488.462 488.462" width="512" xmlns="http://www.w3.org/2000/svg"><path d="m473.201 427.409h-152.647c-8.437 0-15.265-6.827-15.265-15.265v-335.823c0-7.185 5.009-13.401 12.03-14.922 7.14-1.55 14.162 2.072 17.128 8.601l152.647 335.823c2.147 4.725 1.744 10.226-1.058 14.579-2.817 4.368-7.647 7.007-12.835 7.007zm-137.382-30.53h113.68l-113.68-250.094z"/><path d="m167.907 427.406h-152.647c-5.188 0-10.017-2.639-12.835-7.006-2.803-4.353-3.205-9.853-1.058-14.579l152.647-335.824c2.966-6.544 10.062-10.167 17.128-8.601 7.021 1.521 12.03 7.737 12.03 14.922v335.823c0 8.438-6.827 15.265-15.265 15.265zm-128.945-30.529h113.68v-250.094z"/><path d="m228.966 30.525h30.529v427.412h-30.529z"/></svg>