<svg id="Capa_1" enable-background="new 0 0 488.471 488.471" height="512" viewBox="0 0 488.471 488.471" width="512" xmlns="http://www.w3.org/2000/svg"><path d="m415.766 244.237 66.474-48.748c3.921-2.877 6.231-7.453 6.231-12.313s-2.311-9.436-6.231-12.313l-228.971-167.911c-5.396-3.935-12.671-3.935-18.067 0l-228.971 167.911c-3.92 2.877-6.231 7.454-6.231 12.313 0 4.86 2.311 9.436 6.231 12.313l66.474 48.748-66.474 48.744c-3.92 2.877-6.231 7.453-6.231 12.313s2.311 9.436 6.231 12.313l228.971 167.912c2.698 1.968 5.858 2.952 9.034 2.952 3.175 0 6.335-.984 9.034-2.952l228.971-167.912c3.921-2.877 6.231-7.453 6.231-12.313s-2.311-9.436-6.231-12.313c-.002 0-66.475-48.744-66.475-48.744zm-171.531-210.04 203.152 148.98-203.152 148.98-203.152-148.981zm0 420.078-203.152-148.98 57.446-42.12 136.673 100.227c2.698 1.968 5.858 2.952 9.034 2.952 3.175 0 6.335-.984 9.034-2.952l136.673-100.227 57.446 42.12c-.002 0-203.154 148.98-203.154 148.98z"/></svg>