<?xml version="1.0" encoding="utf-8"?>
<!-- Generator: Adobe Illustrator 24.0.0, SVG Export Plug-In . SVG Version: 6.00 Build 0)  -->
<svg version="1.0" id="Layer_1" xmlns="http://www.w3.org/2000/svg" xmlns:xlink="http://www.w3.org/1999/xlink" x="0px" y="0px"
	 viewBox="0 0 393.2 425.5" style="enable-background:new 0 0 393.2 425.5;" xml:space="preserve">
<path style="fill:#FF2A2A;" d="M205.1,94.8c14.3,0.2,27.4-5.7,41.1-7.9c33.3-5.5,64.4,0.6,92.9,19.2c7.2,23,10.7,46.6,10.4,70.7
	c-0.3,20.8-3.8,40.8-9.7,60.7c-7.5,25.2-20,47.7-36,68.2c-26.4,33.9-60.6,57-101.4,70.6c-25.1,8.4-50.8,11.6-77.1,10.3
	c-24.5-1.2-48.3-6.2-70.9-16.2c-1.5-0.7-2.9-1.7-4.7-1.8c-14.5-17-23.5-37-31.3-57.6C5,276-2,239.9,0.5,202.3
	c4-60.6,44-105.1,101.6-115.2c24-4.2,46.6-0.7,69.3,5.7c5.4,1.5,11,2.6,16.8,2C193.8,92.1,199.5,91.9,205.1,94.8z"/>
<path style="fill:#E22525;" d="M49.7,368.6c1.4-1.8,2.9-1,4.5-0.3c30.6,13.8,63.1,18.6,96.2,16.4c34.9-2.3,67.6-12.5,97.4-31.5
	c14.6-9.3,28.5-19.3,40.2-31.9c22-23.7,39-50.4,49.2-81.5c8.5-26.1,11.7-52.6,10.3-79.7c-0.8-16-3.3-31.9-8.4-47.3
	c-0.7-2-3.2-4.5-0.1-6.8c26.8,17.9,43.3,42.8,50.1,74.1c7.8,36,3.2,71.4-6.5,106.4c-6.1,21.9-14.6,42.8-25.9,62.6
	c-13.4,23.4-31.6,42.2-53.5,57.8c-22.7,16.1-47.1,22.3-74.5,15.4c-6.7-1.7-13.5-2.9-20.1-5.2c-8-2.8-16.2-3-24.1-0.1
	c-13.4,4.9-27.4,6.4-41.3,8.1c-8.7,1-17.3-0.6-25.4-3.7C90,410.6,67.7,392.3,49.7,368.6z"/>
<path style="fill:#6FC237;" d="M76,15.9C86,8.6,96.1,4.5,107.1,2.2c21.8-4.5,42.7-2.7,61.9,9.6c12.9,8.3,21.5,19.8,25.8,34.6
	c2.5,8.3,1,16.1-3.1,25c-4-13.6-10.4-24.6-20.9-32.7c-10.5-8.1-22.4-11.7-36.8-12c6.4,4.8,12,8.7,17.2,13.1
	c10.8,9.1,18.6,20.4,24.5,33.2c2.6,5.6,0.7,7.6-4.5,9.4c-23.1,7.8-45.3-2.4-52.7-26.3C111.7,34.8,99.4,20.7,76,15.9z"/>
<path style="fill:#754A22;" d="M205.1,94.8c-5.6,0-11.3-0.1-16.9-0.1c6.9-45.4,47-79.3,94.2-79.6c5.5,0,10.9,0,16.4-0.5
	c3.5-0.3,5,0.3,4.8,4.2c-0.4,5.9-0.4,11.8-0.4,17.6c0,3.3-0.7,4.3-4.4,3.4c-12.6-3.3-25.3-5.4-38.6-3.1
	C231.9,41.6,208,66.4,205.1,94.8z"/>
</svg>
