<?xml version="1.0" encoding="utf-8"?>
<!-- Generator: Adobe Illustrator 24.0.0, SVG Export Plug-In . SVG Version: 6.00 Build 0)  -->
<svg version="1.0" id="Layer_1" xmlns="http://www.w3.org/2000/svg" xmlns:xlink="http://www.w3.org/1999/xlink" x="0px" y="0px"
	 viewBox="0 0 584 491.6" style="enable-background:new 0 0 584 491.6;" xml:space="preserve">
<path style="fill:#FDC012;" d="M539.7,347c6.7,9.7,6.1,21.5-1.5,30.9c-38.1,46.9-86.7,76.9-145.6,90.5c-14.2,3.3-28.5,5.5-43,6.5
	c-1,0.1-2.2-0.2-2.8,1c-14.2,0-28.4,0-42.6,0c-7.1-2.1-14.6-2-21.9-3c-56.1-7.7-107.2-27.9-151.9-62.7C87,376.3,54,333.9,33.8,282.3
	c-14.1-35.9-18.7-73-9.7-111c3.4-14.5,8.6-28.1,20.2-38.4c4.8-1.9,9.4,0,14.1,0.5c5.8,0.6,11.6,0.7,17.4,2c3.2,3.3,2.1,7.7,2.6,11.6
	c4.9,40.4,20.5,76.6,43.6,109.7c22.4,32,49.8,59.1,81.7,81.7c23,16.2,49,25.4,76.3,31.5c32.9,7.4,66.3,7.7,99.6,6.2
	c32.6-1.4,64.9-6.8,96.8-14c19.1-4.3,37.9-9.3,56.7-14.7C535.2,346.8,537.4,345.5,539.7,347z M536,191.4
	c-24.8,21.2-51.7,39.2-81.6,52.4c-38.4,16.9-78.5,24.6-120.4,19.9c-60.8-6.8-112.1-34-156.3-75.5c-18-16.9-34.5-35.2-48.5-55.7
	c-1.6-2.3-2.9-5-6-5.7c-8.7,0.9-17.4,1.1-25.8,3.6c-1.1,1.3-1.2,2.7-0.9,4.3c3.9,14.1,9.2,27.6,17.7,39.6
	c8.3,11.7,16.8,23.3,25.8,34.5c17.5,22.1,36.6,42.9,55.1,64.1c27.3,31.5,60.8,52.2,101,62.6c36.5,9.4,73.5,11.2,110.8,8.4
	c24.4-1.8,48.6-5.4,72.7-9.7c2.6-0.5,5.3-0.7,7.1-3.1c1.3-1,2.4-2.1,3.8-2.9c13.3-7.9,24.3-18.5,33.7-30.6
	c21.9-28.2,33.2-60.5,38.2-95.6c1.6-11.2-1.2-18.5-11-23.6C545.2,181.5,541.1,187,536,191.4z"/>
<path style="fill:#FDDC4D;" d="M97.6,135c2.4,3.6,2.8,7.9,4.2,11.9c6.7,19.7,19.9,35.3,32,51.5c11.6,15.6,24.3,30.3,36.8,45.1
	c5,5.9,10.2,11.7,15.5,17.4c14.6,15.6,28.4,32.1,46.3,44.3c21,14.4,43.9,24.1,68.6,30c18.4,4.4,37.1,6.4,56,7.8
	c16.5,1.3,32.9,0.4,49.3-0.6c23.2-1.4,46.3-4.6,69.1-9.1c3.8-0.7,7.6-1.5,11.4-2.3c7.7,0.4,15.3-0.3,22.9-1.3
	c14.5-1.9,23.2,5.8,30,17.1c-27.6,8.2-55.4,15.6-83.6,20.9c-18.5,3.5-37.2,6-55.9,8.1c-22.3,2.5-44.6,2-66.9,1.8
	c-15.9-0.1-31.6-2.3-47.2-5.2c-22.4-4.2-43.9-11-64.1-21.4c-16.1-8.3-30.4-19.3-44.2-31c-10.4-8.8-20-18.6-29.4-28.5
	c-16.6-17.5-30.8-36.9-42.5-58c-12.7-22.9-22-47-26.8-72.8c-1.5-8.1-2.9-16.3-2.8-24.7c1.1-1.4,2.7-1.7,4.3-1.6
	C86.2,134.9,92,133.2,97.6,135z M541.3,171.8c-5.4-4-11-3.8-17.1-2.4c-14.2,3.2-27,9.6-39.4,16.9c-25.3,14.7-50.9,28.6-79.5,36.4
	c-33.5,9.1-66.6,9.8-99.8-1.3c-34.8-11.6-66.5-28.9-96.9-49.2C184.5,156,163,136,137.1,122.4c-4.2,2-9.4,1.6-13,5.2
	c21.2,31.5,46.8,59,76.9,82.3c31.3,24.3,66.2,41.3,104.9,50.5c26.3,6.3,52.9,7.4,79.6,4.3c28.3-3.3,55.2-12.2,80.7-24.9
	c23.1-11.4,44.5-25.5,64.3-42c7.3-6.1,14.6-12.3,21-19.4C548.4,175.7,544.6,174.2,541.3,171.8z"/>
<path style="fill:#904700;" d="M54,58.6c-3.3-0.4-6.7-1-10-1.3c-2.5-0.2-3.8-1.9-4.8-3.7c-4.9-8.6-7.1-18.1-9.4-27.5
	c-0.7-3,1.7-4,3.8-5c5.5-2.8,11.6-3.5,17.5-3.9c18.1-1.2,35.4,1.6,51.2,10.9c12.6,7.4,25.8,13.3,40.2,16.3c1.5,0.3,3.4,0.3,4,2.1
	c2.6,7,2.9,14.2,1.3,21.4c-0.4,1.7-1.9,1.9-3.3,2.2c-6,1.4-12,3.1-18.3,3.3c-5.3,2.1-10.4,0.5-15.5-0.7c-5.9-1.3-11.6-3.3-17.4-4.7
	c-9.1-2.9-18.5-4.5-27.8-6C61.5,61.2,57.4,61.3,54,58.6z"/>
<path style="fill:#72D700;" d="M54,58.6c11.4,1.8,22.8,3.5,34,6.2c1.8,0.4,3.6,1.3,5.3,2c1,1.3,1.4,2.8,1.5,4.5
	c1.1,18.5,1.5,37.1,3.5,55.6c0.1,1.4,0.1,2.8-0.7,4.1c0,1.4,0,2.7,0,4.1c-7,1.9-14.3,0.9-21.4,1.3c-10.7-0.2-21.3-1.5-31.9-3.3
	c10.6-16.4,15-34.6,14.8-54C59,71.8,57.7,64.9,54,58.6z"/>
<path style="fill:#39A50E;" d="M97.6,130.9c-0.7-4.5-1.8-9-2.1-13.5c-0.6-9.3-0.7-18.7-1.2-28c-0.5-7.6-1.4-15.1-0.9-22.7
	c3.1,0.7,6.2,1.1,9.2,2.1c7.7,2.6,15.6,3.7,23.7,4.4c1,14.4,2.6,28.7,6.9,42.6c0.8,2.5,1.3,5.2,4,6.6c-3.3,4.2-8.7,3.3-13,5.2
	C115.4,129.3,106.5,130.2,97.6,130.9z"/>
</svg>
