<?xml version="1.0" encoding="utf-8"?>
<!-- Generator: Adobe Illustrator 24.0.0, SVG Export Plug-In . SVG Version: 6.00 Build 0)  -->
<svg version="1.0" id="Layer_1" xmlns="http://www.w3.org/2000/svg" xmlns:xlink="http://www.w3.org/1999/xlink" x="0px" y="0px"
	 viewBox="0 0 584 584" style="enable-background:new 0 0 584 584;" xml:space="preserve">
<path style="fill:#734BAE;" d="M177.2,539.9c-8.5-6.8-16-14.4-19.5-25c-5.9-17.7-3.2-33.8,8.5-48.3c1.7-2.1,3.3-3,6.2-1.8
	c14,5.6,28,5.2,41.8-0.6c3.3-1.4,4.6-1.4,5.9,2.4c5.2,14,14.4,24.6,28,31.1c3.1,1.5,3.4,3.3,3.1,6.2c-3,27.7-30.3,47.5-57.8,42
	c-1.2-0.2-2.3-1-3.6-0.4C185.6,543.6,181.4,541.7,177.2,539.9z"/>
<path style="fill:#6EA923;" d="M511.9,116.8c-6.6,4-12.3,8-18.4,11.1c-6,3.1-12.9,3.3-19.6,4.9c5.2,1,10.4,2,15.7,3
	c11,2,18.3,7.7,20.1,19.5c1,6.8,2.9,13.5,4.3,20.3c1.5,6.8,4.6,12.9,8.5,19.3c-13.3,0.1-25.2,4.1-37.3,7.4c-2.4,0.7-4.8,1.1-7.3,1.5
	c-9.1,1.6-16.7-0.9-22.8-8c-4.8-5.6-8.4-12.1-12.7-18.3c3.2,13.8-0.4,27.4-0.4,41.4c-21.2-6-38.5-16.7-46.8-38.9
	c-2.8,3.4-2.1,7.3-2.9,11.1c-3.4-1.2-5.7-3.7-8.1-5.9c-7.5-7.1-12.5-15.8-15.8-25.5c-4.4-12.9,0-23.6,8.9-32.9
	c1.8-1.9,4-3.5,6.1-5.1c7.2-5.4,7.3-5.5-0.5-10.5c-8.5-5.5-17.9-9.3-27.2-13.2c-3.6-1.5-4.5-0.7-4.5,3.1c0.2,20.4-1.7,40.6-4.7,60.8
	c-0.1,0.7-0.3,1.4-0.5,2c-4.2-1-8.3-2.2-12.5-2.9c-3.4-0.6-2.5-3-2.4-4.9c0.4-14,1-27.9,0.3-41.9c-1.4-29.5-6.7-58.4-15.6-86.6
	c-1.2-3.8-0.4-4.8,3.2-5.4c5.9-1.1,11.8-2.4,17.6-4.2c3.7-1.1,4.8,0.1,5.7,3.5c4.5,17.4,7,35.1,7.9,53c0.2,3.9,1.6,6,5.1,7.6
	c14,6.6,27,14.7,39.9,24.7c2.9-19.8,13-33.9,32-39.3c16.9-4.8,32.9-0.8,47.9,9c-4.3,2.1-9.1,1.7-13.1,4.8c4.6,1,8.8,1.7,12.9,2.7
	c10.1,2.3,18.2,7.6,24.1,16.2C502.8,105.8,506.2,111.9,511.9,116.8z"/>
<path style="fill:#734BAE;" d="M288.5,288.5c10.9-24.8,39.3-36,64-25.2c24.4,10.7,35.5,39.7,24.6,64.4
	c-10.7,24.2-39.7,35.6-63.9,25.1C288.9,342.3,277.7,313.1,288.5,288.5z"/>
<path style="fill:#734BAE;" d="M275.4,229.9c9.3,4.4,18,14,22.8,27.4c1,2.8,0.8,4.6-1.7,6.8c-14.4,12.2-21.2,28-20.6,46.8
	c0.1,3.4-0.8,5.1-3.8,6.4c-17.8,7.3-34.8,6.1-50-6.1c-15.5-12.4-21.4-29-17.2-48.3C211.4,232.2,243.7,215.8,275.4,229.9z"/>
<path style="fill:#734BAE;" d="M125,223.1c6.7-17.7,25.7-30.4,45.9-30.1c19.7,0.3,37.7,13.3,44.3,31.7c1,2.9,0.4,4.4-1.6,6.4
	c-13.9,12.9-19.9,29-18.1,47.8c0.4,4.1-1.6,5.3-4.3,6.6c-17.5,8.8-38.9,6.1-53.6-6.8c-14.5-12.7-20.1-33.5-13.9-51.8
	C124.1,225.8,124.4,224.8,125,223.1z"/>
<path style="fill:#734BAE;" d="M455.8,366.5c-8.4,18.8-27,30.2-47.1,29.1c-20-1.2-37-14.5-43.4-33.8c-1.3-3.9-1-6.3,2.7-9.3
	c14.1-11.2,21.5-26.1,21.5-44.2c0-3.9,1.3-5.6,4.7-6.9c18.2-7.1,39-2.7,52.4,11.3C460.4,327.1,464,348.2,455.8,366.5z"/>
<path style="fill:#734BAE;" d="M254.7,491.3c-30.2-13.2-39.2-51.8-18.7-76c2-2.3,3.8-3,6.8-1.9c19,6.8,36.9,4.2,53.4-7.3
	c2-1.4,3.4-1.1,5.2,0.2c18.1,12.1,25.5,37.7,16.9,58.7c-8.7,21.1-32.5,33.9-54.5,29.1C260.4,493.3,257,492.4,254.7,491.3z"/>
<path style="fill:#734BAE;" d="M278.5,201.2c7.3-21.2,29-34.5,51-32.3c22.1,2.2,40,20,42.6,42.2c1.9,16-3.1,29.6-14.3,41.1
	c-1.7,1.7-3.1,2.7-5.9,1.7c-13.7-4.9-27.5-4.5-40.9,1.3c-3.4,1.5-4.4,0.7-5.5-2.5c-5-13.7-14.1-24-27-30.7c-2.1-1.1-2.8-2.3-2.8-4.5
	C275.8,211.4,276.5,205.5,278.5,201.2z"/>
<path style="fill:#734BAE;" d="M176.5,457.4c-25.7-11.4-37.5-37.2-30.1-60.1c7.7-24,31.2-38.2,55.5-33.9c3.1,0.6,4.3,1.5,4.8,4.9
	c2.3,15.2,9.4,27.7,21.6,37.1c2.4,1.8,2.8,2.8,0.8,5.3c-9.1,11.5-13.4,24.8-12.4,39.5c0.2,3-1.1,4.1-3.3,5.1
	C200,461.4,186.7,461.5,176.5,457.4z"/>
<path style="fill:#734BAE;" d="M307.7,378.4c-10.3,23.7-36.4,35.7-59.3,27.9c-25.2-8.6-38.5-32.9-32.3-58.5
	c1.8-7.4,5.5-13.7,10.1-19.6c1.4-1.8,2.8-2.6,5.4-1.6c14.4,5.1,28.8,5,42.9-1.2c2.7-1.2,3.6-0.5,4.5,2.1c5.2,14.7,15.2,25.4,29,32.3
	c3.1,1.6,3.5,3.3,3.1,6.3C310.5,370.6,309.4,375,307.7,378.4z"/>
<path style="fill:#734BAE;" d="M136.9,308.3c0.4-0.8,1.2-2.4,2-4c5-9.3,5.9-9.8,15.7-7.2c13.6,3.6,26.7,2.4,39.2-3.8
	c3.5-1.7,4.6-1,5.9,2.4c3.7,9.2,9.7,16.8,17.7,22.7c2.3,1.7,3.8,2.8,1.1,6c-6.6,7.6-10.6,16.7-11.7,26.8c-0.4,3.8-1.8,3.9-5.1,3.4
	c-16.2-2.4-31.1,1.2-43.8,11.6c-3.8,3.1-5.8,2.2-8.8-0.4C132.7,351.8,127.6,328.9,136.9,308.3z"/>
<path style="fill:#734BAE;" d="M386.5,418.2c-8.5,19.6-29.8,31.7-50.8,29c-3.5-0.4-5.4-1.3-5.6-5.6c-1-16.6-8.4-30.1-21.5-40.4
	c-2.8-2.3-2.9-3.5-0.8-6.3c6.3-7.9,10.2-16.9,11.5-27c0.3-2.7,0.9-4.1,4.2-3.5c10,1.9,19.8,0.7,29.1-3.1c2.7-1.1,3.6-0.6,4.4,2.1
	c5,16.5,15.4,28.4,30.9,35.8c2,1,2.5,2.2,2.3,4.1C389.7,408.5,388.5,413.4,386.5,418.2z"/>
<path style="fill:#734BAE;" d="M441.8,288.2c0,0-0.4,0.7-0.7,1.6c-1.6,4.8-3.9,5.9-9,3.7c-13.1-5.6-26.6-5.2-39.9-0.3
	c-3.3,1.2-4.4,0.8-5.4-2.7c-3.5-11.9-10.5-21.6-20.6-28.9c-3-2.2-2.6-3.3-0.5-5.6c7.6-8.3,12.5-18,14.2-29.2c0.6-3.7,2.3-5,5.5-5.8
	c34.2-9.3,66.6,20.8,60,55.8C444.9,280.5,443.8,284,441.8,288.2z"/>
<path style="fill:#734BAE;" d="M257.4,153.8c9.1,4.3,16.9,11.6,22.3,21.7c1.3,2.5,1.5,4.4-0.6,7.1c-7.1,9-11.1,19.3-11.8,30.7
	c-0.2,3.3-1.1,4-4.5,3.4c-12.4-2.3-24.4-0.7-35.6,5c-2.9,1.5-3.8,0.7-4.9-2c-5.9-14-15.6-24.3-29.6-30.3c-2.6-1.1-3.4-2.3-2.6-5.2
	C198,156.6,229.8,141.7,257.4,153.8z"/>
</svg>
