<?xml version="1.0" encoding="utf-8"?>
<!-- Generator: Adobe Illustrator 24.0.0, SVG Export Plug-In . SVG Version: 6.00 Build 0)  -->
<svg version="1.0" id="Layer_1" xmlns="http://www.w3.org/2000/svg" xmlns:xlink="http://www.w3.org/1999/xlink" x="0px" y="0px"
	 viewBox="0 0 578 578" style="enable-background:new 0 0 578 578;" xml:space="preserve">
<path style="fill:#FF9000;" d="M256.9,546c-69.7-1.4-135.5-27.7-190.4-80.3c-24.5-23.5-34.4-53.2-35.4-86.3
	c-1.3-45.5,12-87.7,33.1-127.3c47.8-89.5,117.4-156.5,210.1-198.4c28.9-13.1,59.3-20.9,91.1-22.6c49.7-2.6,88.6,16.6,118.8,56.2
	c31,40.6,51.8,85.3,58.6,135.8c11.1,83.3-9.9,158.2-64,222.8c-38.6,46.1-87.5,76.3-145.8,91.2C310.1,543.1,286.8,545.9,256.9,546z"
	/>
<path style="fill:#FDFDFD;" d="M316.9,422.8c-34.5,25.4-72.2,44.4-113.8,54.9c-27.3,6.9-54.9,9.3-82.6,2.6
	c-44.3-10.8-73.4-46.4-76.7-92c-3.4-46.5,9.6-89.2,30.8-129.5c43.4-82.2,106.8-144.7,189.7-187C297.2,55,332.1,44,369.4,43.2
	c45.3-1,87.3,16,106,62.6c9.5,23.5,10.5,48,7,72.7c-7.3,50.5-29.1,95.1-57.9,136.5c-0.5,0.7-1.2,1.2-1.7,1.9
	C388.3,353,353,388.2,316.9,422.8z"/>
<path style="fill:#F7F7F7;" d="M316.9,422.8c0.3-2.1,2-3.2,3.3-4.6c32.7-32.7,65.3-65.4,98-98c1.3-1.3,2.5-3,4.6-3.3
	c-18.4,27.2-40.6,51.2-64.8,73.2C345,401.9,331.7,413.3,316.9,422.8z"/>
<path style="fill:#ED5D53;" d="M226.9,291.5c0.2,3-2.3,4.7-4.2,6.6c-42.3,42.3-84.6,84.6-126.9,127c-3.6,3.6-7.2,7.3-10.9,10.9
	c-4.8,4.5-8.3,4.1-12.1-1.3c-11-16-16.1-33.9-17.3-53.1c-0.6-10.5,0.1-21,1.1-31.4c0.5-5.1,3.9-6.7,7.8-8.1
	c29.9-11,59.8-22.1,89.7-33.1c21.1-7.8,42.2-15.6,63.3-23.2C223.2,283.7,227,286.2,226.9,291.5z M352.4,56.5c-5,0.2-7.8,2.2-9.5,6.9
	c-18.6,50.6-37.3,101.2-55.9,151.9c-1.4,3.7-2.7,7.5,1.7,10.2c4.1,2.5,6.8-0.1,9.5-2.8c45.7-45.7,91.3-91.3,136.9-137
	c5.7-5.7,5.2-8.8-1.3-13.3c-18.4-12.5-39-16.9-60.9-17C366,55,359.2,56.2,352.4,56.5z M178.4,470.3c5.5-0.7,8.3-2.8,10.2-7.9
	c18.2-49.6,36.6-99.2,55-148.8c1.4-3.9,2.4-7.6-1.8-10.2c-4-2.4-6.8,0.2-9.5,2.9c-45.8,45.8-91.6,91.6-137.4,137.4
	c-5.5,5.5-5.1,9,1.6,13.2c17.6,11.2,37.2,14.7,59.6,15.1C162.2,471.2,170.3,471.3,178.4,470.3z M456.6,96.1c-3.7-6-7.5-6.6-12.4-1.7
	c-46,45.9-91.9,91.9-137.9,137.8c-2.8,2.8-3.9,5.9-1.9,9.2c2.2,3.5,5.6,3.1,9.1,1.8c13.6-5.1,27.3-10.1,40.9-15.2
	c36.3-13.4,72.7-26.8,109-40.2c3.4-1.3,5.8-3.2,6.4-7.2c1.3-8.5,1.6-17,1.7-25.6C472.1,133.9,467.8,114.1,456.6,96.1z M72.9,326
	c15.5-5.5,31-11,46.5-16.5c35.7-12.6,71.4-25.2,107-37.8c3.3-1.2,6.6-2.5,6.6-6.8c0-4.3-3.2-5.7-6.6-6.8
	c-35.5-11.9-70.9-23.8-106.4-35.9c-5.1-1.7-8.7-1.1-12,3.8c-14.7,21.9-27.3,45-36.8,69.7c-3.1,8-5.7,16.1-8.2,23
	C63,325.2,67.2,328,72.9,326z M315.1,64.5c-31.2,10-60.3,24.3-87.5,42.5c-5.4,3.6-6.6,7.2-4.5,13.4c11.9,34.6,23.5,69.3,35.2,104
	c1.2,3.6,2,7.7,7.2,7.7c5.2,0,6-4,7.3-7.6c10.8-30.2,21.5-60.5,32.2-90.7c7.1-20,14.1-40,21.1-59.9c2.3-6.5,0.1-10.6-6.3-10.7
	C318.7,63.5,316.9,63.9,315.1,64.5z M214.5,462c31.7-10.4,61.3-25.1,88.7-44.2c4.1-2.9,5.3-6,3.6-10.9
	c-11.7-34.2-23.3-68.4-34.8-102.6c-1.3-3.8-2.6-7.8-7.3-7.6c-4.3,0.1-5.7,3.9-7,7.4c-17.2,48.6-34.4,97.1-51.5,145.7
	c-0.8,2.2-1.3,4.5-1.7,5.9C204.4,462,208.1,464.1,214.5,462z M418.8,301.5c18.2-26.4,32.5-54.9,42.5-85.4c1.2-3.7,3.2-7.3-0.2-10.7
	c-3.4-3.3-6.8-1.2-10.2,0c-43.4,15.3-86.8,30.7-130.2,46c-6.1,2.1-12.2,4.2-18.2,6.4c-2.9,1.1-5.2,3-5.1,6.7c0.1,3.4,2.3,4.9,5,6
	c1,0.4,2,0.8,3,1.1c28.8,9.7,57.6,19.5,86.4,29.2c6.5,2.2,13,4.3,19.5,6.4C415.4,307.1,416.9,304.2,418.8,301.5z M246.2,235.7
	c-10.9-34.7-21.8-69.3-32.6-104c-2.8-8.9-6.5-10-13.9-4.1c-26.5,21.2-50.4,45.1-71.7,71.5c-5.6,6.9-4.4,10.7,4.2,13.5
	c22.2,7.1,44.4,14.2,66.6,21.2c12.8,4.1,25.7,8.1,38.5,12.1c5.9,1.8,10-0.6,10-6.6C247.1,238.5,246.7,237.1,246.2,235.7z
	 M396.7,315.7c-34.5-10.8-69-21.6-103.5-32.4c-3-1-5.9-1.6-8.4,0.9c-2.5,2.5-1.8,5.5-0.9,8.4c10.7,34.1,21.3,68.2,32.1,102.3
	c2.4,7.8,6.3,8.9,12.7,3.7c26.1-21.1,49.6-44.7,70.6-70.8c1.4-1.7,2.7-3.3,2.5-5.6C402,318.4,399.8,316.6,396.7,315.7z"/>
</svg>
