<?xml version="1.0" encoding="utf-8"?>
<!-- Generator: Adobe Illustrator 24.0.0, SVG Export Plug-In . SVG Version: 6.00 Build 0)  -->
<svg version="1.0" id="Layer_1" xmlns="http://www.w3.org/2000/svg" xmlns:xlink="http://www.w3.org/1999/xlink" x="0px" y="0px"
	 viewBox="0 0 600.9 527" style="enable-background:new 0 0 600.9 527;" xml:space="preserve">
<path style="fill:#5E4115;" d="M320.3,504.6c-12.5,0-25,0-37.5,0c-8.6-1-17.3-0.9-25.9-1.4c-24-1.4-46.4-8.4-68.3-17.7
	c-20.3-8.6-39.2-19.8-56.1-34c-21.9-18.4-40.7-39.4-55.8-63.7c-17-27.5-29.9-56.7-38.6-87.8c-4.2-15.1-7.9-30.4-10-46
	c-0.3-2.4-1.1-5,1.4-6.9c3.5-0.6,4.2,2.1,4.9,4.4c7.7,24.1,22.2,43.8,40.3,61c15.4,14.7,32.9,26.8,51.7,36.9
	c34.7,18.7,71.8,30.5,110.6,37.3c28.6,5,57.5,6.3,86.4,4.6c51.3-3.1,100.4-15.7,146.2-39.4c25.4-13.1,48.6-29.4,67.9-50.5
	c14.1-15.5,24.9-33,31-53.2c0.7-2.5,1-5.5,4.8-5.4c1.7,1.8,0.9,4,0.8,6c-0.5,16.8-5.3,32.7-10,48.5c-11.9,40-29.3,77.3-54.6,110.7
	c-19.8,26.2-43.4,48.3-71.9,64.6c-31,17.7-63.8,29.9-100.2,30.9C331.6,503.8,325.9,503.3,320.3,504.6z"/>
<path style="fill:#DFE5AB;" d="M575.4,228.1l-0.4,0.2l-0.5,0c-4-4.3-4-15.3,0-19.6c0.3-0.1,0.6-0.1,0.9,0.1
	C575.4,215.3,575.4,221.7,575.4,228.1z"/>
<path style="fill:#62B110;" d="M574.5,208.7c0,6.5,0,13,0,19.6c-0.5,4.9-0.9,9.8-1.4,14.7c-4,12.2-8.3,24.3-15,35.3
	c-15,24.5-35.6,43.6-59.2,59.4c-42.1,28.1-88.9,44-138.6,52.3c-26.4,4.4-52.9,5.5-79.4,4.1c-67.6-3.8-130.6-21.8-186.3-61.7
	c-20.3-14.6-37.6-32.2-50.7-53.7c-6-9.8-9.8-20.6-13.8-31.2c-5.8-26.4-3.1-52.2,6.1-77.3c14-38,40-66.7,72.6-89.7
	c43.5-30.7,92.4-47.1,144.9-53.8c54.3-6.9,107.6-2.5,159.7,14.3c46.1,14.9,87.3,38.1,119.7,74.8
	C556.5,142.3,571.6,172.8,574.5,208.7z"/>
<path style="fill:#F4F654;" d="M307.7,343.9c-43.9,0.3-81.8-5.8-117.5-21.9c-28.1-12.7-52-30.8-67.6-57.9
	c-11.4-19.8-16.3-41.2-13.8-64.2c4.6-41.2,27.8-69.7,61.8-90.7c28.1-17.4,59.3-25.8,91.9-30.2c13.5-1.8,27.1-2.7,40.5-2.7
	c43.2,0.1,85.4,6.5,124.2,27c24.1,12.7,44.2,30,57.8,54.1c9.1,16.1,13.9,33.5,13.9,51.6c0,29.9-10.6,56.2-31.4,77.9
	c-23.7,24.8-53.2,39-85.9,47.7C355.8,341.6,329.5,344.3,307.7,343.9z"/>
<path style="fill:#F4F654;" d="M279.5,166.8c24.3-4,48-2.6,70.4,8.8c5.9,3,11.3,6.9,15.9,11.6c12.4,12.8,12.4,29.2-0.1,41.9
	c-12.4,12.7-28.5,18.2-45.4,20.9c-22.6,3.7-44.4,1-65.1-9.3c-8.3-4.1-15.4-9.6-20.6-17.4c-6.6-10-6.5-21.8,0.6-31.5
	c9.7-13.3,23.9-19.2,39-23.6c1-0.3,2-0.7,3-1C277.9,166.5,278.7,166.4,279.5,166.8z"/>
<path style="fill:#62B110;" d="M321.3,265.2c0-2.7,0-4,0-5.2c0.1-3.8,1.7-6.8,5.4-7.7c3.6-0.9,5.6,1.8,7,4.6
	c7.4,14.6,14.8,29.3,22.2,43.9c2,4,2.6,8.1,1.5,12.5c-1.6,6.2-7,11.7-12.4,11.9c-6.8,0.3-11.9-3.1-15.5-8.8c-2-3.3-2.6-7-3.2-10.7
	C324.1,291.8,322.4,277.8,321.3,265.2z M297.8,159.6c1,4.7,7.4,5.9,11.5,2.9c2.3-1.7,3.3-4.1,4.2-6.7c4.7-14.1,8.4-28.4,11.9-42.8
	c3.4-13.9-3.5-23.4-17.8-24.8c-10.5-1.1-20.5,6.6-20.5,17.2C290.4,122.5,293.9,141.1,297.8,159.6z M279.5,166.8
	c-0.7,0.1-1.4,0.2-2.2,0.4c-3.4-0.1-5.5-1.9-7.3-4.7c-8.6-14-17.3-27.9-26-41.8c-3.6-5.8-4.8-11.6-0.6-17.5c4.1-5.7,9.6-9.2,17-7.8
	c7.1,1.4,12.6,4.8,14.3,12.5c3.7,15.8,5.6,31.9,8,48C283.3,160,282.6,163.8,279.5,166.8z M372.7,111.4c0.1,4.5-0.9,7.6-2.5,10.4
	c-8.2,14.2-17.3,27.8-27.1,40.9c-2.4,3.2-5.6,5.6-9.6,3.8c-4.2-1.9-3.7-5.8-2.8-9.7c3.7-15,7.3-30.1,11-45.1c1.1-4.6,3-8.8,7.2-11.5
	c5.1-3.3,10.5-4.8,16.1-1.8C370.6,101.3,372.5,106.6,372.7,111.4z M166.9,156.5c-0.2-4.9,1.6-9.3,6.7-11.8
	c6.7-3.2,13.3-2.8,19.1,1.8c7.2,5.8,14.3,11.8,21.3,17.9c5.4,4.7,10.5,9.6,15.6,14.6c2.9,2.9,5.3,6.3,2.4,10.4
	c-2.8,3.8-6.6,2.6-10.2,1.1c-14.2-5.7-28.5-11.4-42.7-17.2C170.8,170.1,166.9,164.8,166.9,156.5z M174.2,263.5
	c-7.7,0-14.7-5.1-16.2-11.2c-1.6-6.4,2.9-15.4,10-18.4c6.5-2.7,13.4-4.9,20.2-6.9c8.9-2.6,17.9-4.9,26.8-7.2
	c1.7-0.5,3.5-0.9,5.3-0.8c3.2,0.1,6,1.4,7.1,4.7c1.2,3.3-0.7,5.5-3.1,7.3c-7.5,5.5-15.1,10.8-22.6,16.2c-5.8,4.1-11.6,8.3-17.4,12.4
	C181,261.9,177.4,263.4,174.2,263.5z M412.4,132.8c-0.4,4.3-1.8,8.8-5.4,12.4c-11.4,11.6-23.6,22.2-36,32.6
	c-0.8,0.7-1.7,1.3-2.7,1.8c-2.9,1.4-5.7,2.2-8.4-0.4c-2.8-2.6-2.2-5.4-0.7-8.3c6.4-12,12.7-23.9,19.2-35.8c1.9-3.6,3.8-7.3,6.1-10.6
	c4.1-5.8,12.1-8.2,18.6-5.9C408.9,120.6,412.4,125.7,412.4,132.8z M264.5,287c-0.3,7.7-1.8,15.2-3.8,22.6
	c-2.6,9.4-12.7,15.1-20.6,12.2c-8.1-3-12-13.6-7.8-22.6c5.6-12.2,12.7-23.6,19.7-34.9c2-3.2,3.9-6.4,6.2-9.4c2.3-3,5.4-5,9.3-3.2
	c3.6,1.7,3.5,5,2.8,8.3C268.2,269,267.7,278.3,264.5,287c-2.6-1.2-2.9-3.8-3.8-6.1c-2-4.9-6-5.6-9.5-1.7c-2.9,3.3-4.3,7.4-3.8,11.8
	c0.3,2.7,1.4,5.3,4.6,5.9c2.8,0.6,4.7-1,6.4-3.1c1.1-1.4,1.8-3,2.6-4.6C261.7,287.8,262.4,286.4,264.5,287z M203.2,125.1
	c0.1-7.1,4-13.2,9.5-14.6c7.2-1.8,15.7,1.5,19.4,8.1c8,14.5,14.7,29.6,20.9,45c0.3,0.8,0.6,1.7,0.8,2.5c0.5,3.6,0.2,6.9-3.4,8.8
	c-3.4,1.7-5.8-0.4-8-2.6c-8.6-8.6-17.1-17.2-25.5-25.9c-3.4-3.4-6.7-6.9-9.8-10.5C204.3,132.8,203.1,129.2,203.2,125.1z
	 M166.2,216.2c-8,0-14.8-5.3-16.9-13.3c-2.2-8.7,8-19,18.1-17.3c17.3,2.8,34,8,50.6,13.4c3.5,1.1,6.3,3.6,5.7,8
	c-0.4,3.5-3.1,4.8-6.1,5C200.7,213.4,183.7,214.7,166.2,216.2z M308.2,311.1c0,10.2-7.1,17.8-15.8,17.9c-7.9,0.1-14.5-7-15-16.4
	c-0.2-4.7,1.2-9.2,2.1-13.7c2.4-12,4.8-24.1,8.1-35.9c0.2-0.7,0.3-1.4,0.5-2.1c1.2-3.8,3.3-7.1,7.7-6.9c4.5,0.2,5.4,4.2,5.9,7.8
	c1.3,9.2,2.3,18.4,3.5,27.5C306.3,297,307.4,304.6,308.2,311.1z M203.1,300c-5.6,0-10.2-1.9-12.8-7.1c-3.3-6.6-2.3-13.4,2.4-18.6
	c11.7-13,25-24.4,38.6-35.4c2.8-2.2,6.2-3.1,9.4-0.5c3.3,2.8,2.1,6.1,0.4,9.2c-7.4,14-14.8,28.1-22.4,42.1
	C214.8,297,210,299.9,203.1,300z M454.5,217.2c0.1,8-9.5,16.1-18.3,14.8c-16.8-2.4-33.2-6.5-49.6-11c-1.2-0.3-2.4-0.9-3.4-1.5
	c-2.3-1.6-4.2-3.6-3.7-6.6c0.5-3.2,2.9-4.7,6-5.1c11-1.4,21.9-2.8,32.9-4.2c5.5-0.7,10.9-1.5,16.4-2
	C445.8,200.5,454.4,207.5,454.5,217.2z M443.6,165.6c-0.5,6.4-3,12-8.8,15c-15.6,8-32.1,13.7-48.7,19.4c-3.7,1.2-7.2,0.2-9.3-3.4
	c-1.9-3.4,0.5-5.8,2.7-7.8c12.6-11.1,25.1-22.3,37.9-33.1c7-5.9,16.3-5.1,22.4,0.8C442.6,159,443.9,161.9,443.6,165.6z M404,292.1
	c0,7.3-3.5,12.8-9.3,14.7c-6.6,2.2-15.1-1.1-19.4-7.8c-6.5-10-12-20.6-17.5-31.2c-2.1-4.1-4.2-8.2-6.2-12.4
	c-1.7-3.7-2.1-7.5,1.5-10.2c3.6-2.7,6.7-0.6,9.5,2c11.9,10.8,23.8,21.5,35.6,32.3C401.9,282.9,404.2,286.9,404,292.1z M421.9,277.4
	c-4.1,0-7.7-1.3-10.8-3.9c-13.2-10.7-25.1-22.7-36.9-34.9c-2.7-2.8-3.8-6.3-1.3-9.7c2.3-3.2,5.7-2.5,8.8-1.2c15,6.5,30,13.1,45,19.8
	c4.2,1.9,7.4,5,9.2,9.3C440.2,267.6,433.5,277.5,421.9,277.4z"/>
<path style="fill:#010100;" d="M316.4,128.4c0,7.5-4.1,13.6-9.2,13.7c-5.2,0.1-9.4-5.9-9.5-13.4c-0.1-7.9,3.9-14,9.2-14.1
	C312.3,114.5,316.4,120.5,316.4,128.4z"/>
<path style="fill:#010101;" d="M276.9,134.9c-0.3,4-1.1,8.6-6.3,10c-5.2,1.4-8.4-2.1-10.7-6.1c-2.8-4.8-3.7-10-1.6-15.4
	c2.2-5.5,7.4-6.8,12.2-3.3C274.3,123,276.9,128.8,276.9,134.9z"/>
<path style="fill:#010101;" d="M357.9,132.2c-0.3,5.1-2,10.1-6.6,13.6c-4.7,3.5-9.3,2.2-11.8-3c-2.9-6.3-0.4-16.2,5.3-20.3
	c2.5-1.8,5.3-2.5,8-1.1C356.9,123.5,357.8,127.5,357.9,132.2z"/>
<path style="fill:#010101;" d="M196.7,174.8c-5-0.3-10.3-2.7-13.7-8.4c-2.9-5-1-9.6,4.5-11.4c6.7-2.2,16.5,2,19.6,8.4
	C210.1,169.7,206.1,174.9,196.7,174.8z"/>
<path style="fill:#010100;" d="M190.6,232.9c3.3,0.3,6.8,1,8.5,4.7c1.8,4,0,7.3-2.8,10.1c-4.6,4.5-10.1,6.7-16.5,5.2
	c-6-1.4-8.1-6.5-5-11.9C177.6,236.4,184.4,232.8,190.6,232.9z"/>
<path style="fill:#010100;" d="M370.4,156.3c0.3-7.3,8.1-15,15.4-15.2c5.6-0.1,9,3.8,8,9.3c-1.2,6.5-7.3,12.7-13.9,14
	C374.2,165.6,370.2,162.2,370.4,156.3z"/>
<path style="fill:#010101;" d="M264.5,287c-1.6,3.9-2.6,8.1-6,11c-5,4.4-11,3-13.1-3.3c-2.2-6.4-0.5-12.3,3.6-17.4
	c2.2-2.7,5.1-4.6,8.8-3.5c3.7,1,5.3,4,5.9,7.5C264.1,283.1,264.3,285.1,264.5,287C264.5,287,264.5,287,264.5,287z"/>
<path style="fill:#010100;" d="M241.3,144.9c0,5-3,8-8,7.8c-7.2-0.3-15.1-8.1-15.6-15.3c-0.3-4.8,2.8-8.2,7.6-8.3
	C233,129,241.3,137.2,241.3,144.9z"/>
<path style="fill:#010101;" d="M176.1,213.4c-7.9,0-14-4.1-13.9-9.5c0.1-5.2,6-9.2,13.6-9.2c8-0.1,13.9,4,13.8,9.5
	C189.6,209.4,183.8,213.3,176.1,213.4z"/>
<path style="fill:#010100;" d="M302.2,294.7c0,7.8-4.3,14-9.6,13.8c-5.1-0.2-9.1-6.3-9.1-13.8c0-7.5,4-13.6,9.1-13.8
	C297.9,280.6,302.2,286.8,302.2,294.7z"/>
<path style="fill:#010100;" d="M218.1,260.2c5.1,0.1,8.2,3.7,7.5,8.8c-0.9,6.7-7.7,13.7-14.4,14.7c-5.3,0.8-9.1-2.5-9.1-7.8
	C202.1,268.2,210.4,260.1,218.1,260.2z"/>
<path style="fill:#010101;" d="M420.9,226.1c-7.5-0.1-13.6-4.2-13.6-9.3c0-5.1,6-9.3,13.5-9.4c7.7-0.1,14.1,4.1,14.1,9.4
	C435,222,428.7,226.2,420.9,226.1z"/>
<path style="fill:#010100;" d="M415.6,168c4-0.1,7.7,0.9,9.3,4.9c1.7,4-0.2,7.3-3,10.1c-4.3,4.1-9.5,6.3-15.6,5.3
	c-6.8-1.1-9.3-7.1-5.3-12.8C404.5,170.5,409.5,168.2,415.6,168z"/>
<path style="fill:#010100;" d="M346.4,291.6c-0.3,4.5-0.9,8.9-6.2,10.6c-4,1.2-8.5-1.4-11-6.5c-2.5-4.9-3.5-10.1-1.1-15.4
	c2.3-4.9,7-6.3,11.4-3.2C344.5,280.6,346.2,285.8,346.4,291.6z"/>
<path style="fill:#010101;" d="M373.9,265.5c7.4,0.4,15,8.3,15.1,15.5c0.1,5.3-3.7,8.7-8.9,7.9c-6.5-0.9-13.3-7.4-14.5-14.1
	C364.5,269.1,368,265.1,373.9,265.5z"/>
<path style="fill:#010101;" d="M411.4,263.6c-6.1-0.1-11.1-2.4-14.7-7.3c-4.3-5.8-1.7-12.1,5.4-13c6.9-0.9,12.6,1.8,16.9,7.2
	c1.9,2.5,3,5.4,1.4,8.5C418.6,262.7,415.2,263.7,411.4,263.6z"/>
</svg>
