<?xml version="1.0" encoding="utf-8"?>
<!-- Generator: Adobe Illustrator 24.0.0, SVG Export Plug-In . SVG Version: 6.00 Build 0)  -->
<svg version="1.0" id="Layer_1" xmlns="http://www.w3.org/2000/svg" xmlns:xlink="http://www.w3.org/1999/xlink" x="0px" y="0px"
	 viewBox="0 0 538 538" style="enable-background:new 0 0 538 538;" xml:space="preserve">
<path style="fill:#F86D50;" d="M20.1,271.4c0-12,0-23.9,0-35.9c1.2-7.1,1-14.4,1.8-21.6c1.6-13.9,5.8-27.1,11-40.1
	c9.7-24.3,24.6-45.1,43.9-62.6c20.2-18.3,43.7-30.7,69.6-39.1c18.8-6.1,37.9-5.2,57.1-3.9c16.2,1.1,32,4.2,47.5,9.1
	c3.3,1,6.4,2.3,9.2,4.3c2.5,2.4,1.5,5.2,1,8c-0.9,2.8-3.6,3.6-5.9,4.7c-12.8,6.5-25.6,13.1-37.2,21.7c-14.4,10.7-27.5,22.7-38.8,37
	c-17,21.6-26.6,46.1-30.5,72.9c-3.3,22.4-1.1,44.8,3.9,66.8c5.6,24.7,14.6,48.1,25.4,71c8.9,18.7,19.4,36.4,30.5,53.9
	c0.9,1.4,1.7,2.8,2.8,4c2.1,2.3,4.5,3.4,7.3,1.4c2.7-1.9,3-4.6,1.4-7.3c-3-5-6.1-9.9-9.1-14.9c-20.5-33.9-37.9-69.1-46.9-108
	c-4-17.5-6.4-35.3-5.3-53.3c2.2-34.2,14.1-64.3,38.1-89.4c19.4-20.4,41.8-36.3,67.6-47.5c0.9-0.4,1.7-0.8,2.6-1.3
	c6.4-3.2,6.9-4.2,6.1-11.4c1.1-2.3-1.1-4.6,0.2-6.9c1.5-1.8,3.5-2.9,5.6-3.6c17.1-5.7,34.5-9.6,52.5-11.1c8.6-0.7,17.1-0.5,25.6-0.9
	c13.7-0.7,26.6,2.4,39.4,6.8c19.7,6.8,38,16.3,54.4,29.3c26.1,20.7,45,46.6,56.1,78c6.3,17.8,9.6,36,10.1,55
	c0.5,18.4,0.5,36.8-1.4,55.1c-1.8,17.4-7.2,34.1-13.6,50.4c-10.6,26.6-25.5,50.7-44.5,72.2c-21.9,24.9-48.1,43.1-78.7,55.8
	c-27.6,11.5-55.9,21.1-83.6,32.5c-6.9,2.8-13.6,6-20.3,9.3c-4.3,2.1-8.8,2.2-13.1,0c-24-12.3-49.7-20.2-74.6-30
	c-19.6-7.6-39-15.6-57.6-25.5c-10.7-5.7-20.1-13.5-29.3-21.4c-16.8-14.4-31.1-31-43-49.6c-17.1-26.5-29.2-55-34.9-86.1
	c-1.5-7.9-1.4-16-2-24.1C20.5,273.9,21,272.6,20.1,271.4z"/>
<path style="fill:#EA563D;" d="M275.2,89.7c1.8,6.9,0.8,9.9-5.8,12.8c-17.7,7.8-34.4,17.2-49.5,29.2c-29.2,23.1-50,51.6-56.6,89
	c-2.8,16.1-3,32.2-1,48.6c2.9,23.7,9.5,46.1,18.5,68c10.7,26.3,24.7,50.8,39.8,74.7c2.3,3.6,4.8,7.1,1,11.3c-3.8,4.4-9.1,4.1-12.5-1
	c-7.8-11.7-15.1-23.7-21.9-36c-10.3-18.7-19.3-38-26.6-58.1c-7.3-20.1-12.3-40.7-14.6-62.1c-3.7-35,2.5-68,20-98.5
	c8.9-15.4,20.7-28.7,34.1-40.6c17-15.1,36.1-26.5,56.4-36.3c1-0.5,2.1-0.8,3.2-1.2C264.2,83,271.3,82.9,275.2,89.7z"/>
<path style="fill:#A1D568;" d="M275.2,89.7c-5.1-4.4-10.2-2.9-15.3,0.1c-0.3-2.5-0.7-5.1-1-7.6c0.7-11.5,2.6-22.7,8.7-32.9
	c4.5-7.6,10.3-14.1,17.3-19.4c4.3-3.3,8.7-2.9,11.6,0.7c2.9,3.7,2.4,7.9-1.9,11.4c-13.2,10.6-20.1,24.1-19.8,41.2
	C274.9,85.4,275.1,87.6,275.2,89.7z"/>
</svg>
