<?xml version="1.0" encoding="utf-8"?>
<!-- Generator: Adobe Illustrator 24.0.0, SVG Export Plug-In . SVG Version: 6.00 Build 0)  -->
<svg version="1.0" id="Layer_1" xmlns="http://www.w3.org/2000/svg" xmlns:xlink="http://www.w3.org/1999/xlink" x="0px" y="0px"
	 viewBox="0 0 612 792" style="enable-background:new 0 0 612 792;" xml:space="preserve">
<path style="fill:#97C334;" d="M441.8,292.7c24.4,37.5,17.7,75.1,2.1,113.7c-14.4,35.5-29.7,70.9-37,108.9
	c-4.3,22.2-7.9,44.5-16.4,65.6c-18.1,45.4-47.6,80.2-91.1,103.6c-23.6,12.7-48.4,18.9-74.5,17.1c-34.9-2.3-66.6-15.6-94.6-36.4
	C102,644.1,81.1,616.9,69,583.6c-25.2-69.1-10.5-143.3,49.4-193.4c30.2-25.2,65.5-40.8,101-56c21.9-9.4,39.7-24.2,58.4-38.1
	c16.7-12.4,33.3-24.8,53-32.6c34.2-13.4,63.6-4.6,90.6,17.5c0.2,6.2-6.3,5.4-8.9,8.7c-2.2,2.8-4.4,5.5-1.9,9
	c2.1,2.9,5.1,1.9,8.1,1.2C426.5,297.9,432.5,290.1,441.8,292.7z"/>
<path style="fill:#799B2B;" d="M459.3,203.9c-54.6,27.4-112.2,34.2-172,24.2c-18.6-3.1-33.3-15.6-49.1-25
	c-11.6-6.9-23.6-12.5-36.4-16.4c-5.9-1.8-6.8-3.8-3.7-8.7c20-30.8,43.5-57.6,78.7-71.9c25.2-10.2,51-9.2,75.8-1.7
	c34.8,10.5,67.3,26.1,90.3,56.3c3.5,4.6,7.2,9.1,8.9,14.7c-6.9,3.9-13.2-0.1-19.5-1.8c-44.7-12.1-90.1-19.5-136.5-20.6
	c-10.6-0.3-21.1,1.1-31.6,2.4c-3.8,0.5-7.6,1.2-10.8,3.5c-2.5,1.8-4.4,4.3-2.9,7.6c1.3,2.8,4.1,2.8,6.6,2.4
	c7.9-1.3,15.7-3.1,23.8-3.3c49.1-1,96.8,8.9,144.5,18.1c10.6,2,19.7,7.4,29,12.5C457.4,197.7,460.8,199.4,459.3,203.9z"/>
<path style="fill:#455518;" d="M459.3,203.9c-13.6-12.2-30.3-16.6-47.8-19.7c-37.5-6.7-74.8-15.1-113.2-14.9
	c-12.8,0.1-25.7-2.1-38.4,2.8c-4.8,1.9-12.5,2.7-14.2-5.4c-1.7-7.5,3.1-11.5,10-13.1c27.4-6.2,55-3.8,82.5-1.1
	c38.6,3.8,76.2,12.7,113.5,22.9c18.5,10.3,36.1,21.7,48.2,39.6c3.3,4.9,6.8,5.4,10.8,0.5c3.4-4.2,7.9-7.6,10.9-12.1
	c4.3-6.6,9.3-6.1,14.5-2.3c6.6,4.8,3.8,11.1,0,15.4c-12.1,13.5-24.8,26.3-38.9,37.9c-17.5,14.3-36.8,25.7-55.5,38.2
	c-7.2,3.3-14.9,5.7-21.4,10c-6,3.9-11,3-14-1.8c-3.5-5.7-1-11.3,5.2-14.6c3.2-1.7,6.5-3.5,9.7-5.2c21.1-12,41.6-24.8,61-39.6
	c6.5-5,7.6-8.9,1.6-15.2C476.2,218.2,469.8,208.8,459.3,203.9z"/>
</svg>
