<?xml version="1.0" encoding="utf-8"?>
<!-- Generator: Adobe Illustrator 24.0.0, SVG Export Plug-In . SVG Version: 6.00 Build 0)  -->
<svg version="1.0" id="Layer_1" xmlns="http://www.w3.org/2000/svg" xmlns:xlink="http://www.w3.org/1999/xlink" x="0px" y="0px"
	 viewBox="0 0 628 628" style="enable-background:new 0 0 628 628;" xml:space="preserve">
<path style="fill:#FAA33A;" d="M472.5,30.8c26.1,17.5,42.1,42.4,50,72.2c15.8,59.5,2,113.2-35.4,161c-22.6,28.8-51.6,48.8-87.7,57.5
	c-11.4,2.7-22.9,3.3-34.5,3.2c-8,1.9-15-1.4-22-4.4c-0.7-0.8-0.9-1.7-0.8-2.8c7.8-18.2,16.1-36,24.2-54.1
	c11.9-26.8,24-53.5,36.2-80.2c14.4-31.7,28.4-63.6,43-95.3c7.9-17.2,15.1-34.7,23.4-51.8C469.6,34,470,31.6,472.5,30.8z"/>
<path style="fill:#FAA33A;" d="M260.8,325.3c-7.5-2.2-15.3-0.5-22.9-1.9c-45.1-7.8-79.1-32.5-105.4-68.8c-18.1-25-29.1-53.1-33-83.6
	c-5.2-40.9,2-79.4,26.8-113.4c7.7-10.6,16.8-19.9,28-26.9c2.3,0.7,2.7,2.9,3.6,4.7c14.9,32.3,29.3,65,43.9,97.4
	c15.7,34.7,31.4,69.4,47,104.1c12,26.7,24.4,53.3,36.1,80.2c0.1,1-0.1,1.9-0.6,2.8C276.7,323.3,269.2,326.3,260.8,325.3z"/>
<path style="fill:#EECF42;" d="M342.8,319.5c7.3,1.7,14.6,3.4,21.9,5.1c23.6,7.4,47.8,12.6,71.7,19.2c9.4,2.6,18.8,5.2,28.3,7.3
	c4.2,0.9,5.4,2.7,5.4,7c-0.2,30.7-0.1,61.5-0.1,92.2c-1.4,1.8-3.4,2-5.4,2.1c-9.4,0.2-18.9,0.2-28.3,0c-2,0-4.1-0.3-5.4-2.1
	c0-20.8-0.1-41.6,0.1-62.3c0-4.3-1-6.3-5.6-7.5c-31.6-8.3-63.2-17-94.7-25.7c-2.7-0.7-5.7-0.9-7.8-3.1c-0.5-1.9,1-2.5,2.2-3.2
	c9.8-5.5,15.1-13.9,16.1-25.1C341.4,321.9,341.6,320.5,342.8,319.5z"/>
<path style="fill:#EFCF42;" d="M260.8,325.3c7.7-1.9,15.4-3.9,23.2-5.8c1.1,0.8,1.4,2,1.5,3.2c0.5,12,6.6,20.3,16.9,26
	c1.1,0.6,2,1.3,2.3,2.6c-10.4,4.7-21.7,6.7-32.6,9.8c-23.7,6.7-47.4,13.1-71.2,19.4c-4,1.1-5,2.9-5,6.7c0.2,21,0.1,42,0.1,63
	c-1.4,1.8-3.5,2-5.5,2.1c-9.4,0.2-18.8,0.2-28.1,0c-2,0-4.1-0.2-5.5-2.1c0-30.4,0.1-60.8-0.1-91.1c0-4.9,1.2-7,6.2-8.2
	C195.5,342.6,228.1,333.9,260.8,325.3z"/>
<path style="fill:#EDC33A;" d="M284.2,317.3c-4.9-5.9-6.9-13.3-10-20.1c-20.7-45.2-41-90.6-61.4-135.9c-15-33.3-30.1-66.6-45.1-99.9
	c-4.6-10.2-9-20.4-13.5-30.6c4.6-4.8,10.7-7.1,16.4-10.1c3.5-1.8,3.7,1.3,4.5,3.1c8.5,18.5,16.9,36.9,25.2,55.4
	c8.5,18.9,16.9,37.8,25.4,56.7c12.1,27,24.2,54.1,36.4,81.1c8.1,18,16.2,35.9,24.3,53.8c4,8.9,8.1,17.7,12.1,26.6
	c0.6,1.1-0.1,2-0.8,2.6c-5.2,4.4-9.4,9.5-11.7,16C285.9,316.8,285.1,317.2,284.2,317.3z M458.3,21.7c-3.9-2.4-5.4-1.2-7.1,2.6
	c-10.2,22.8-20.7,45.5-30.9,68.2c-12.4,27.4-24.6,54.8-36.9,82.2c-8.3,18.5-16.5,37.1-24.9,55.6c-10.1,22.4-20.3,44.7-30.4,67.1
	c-0.7,1.5,0.4,2.3,1.3,3.1c4.8,4.2,8.8,8.9,11,15.1c0.3,1,1.1,1.7,2.3,1.7c2.4-1.9,3.2-4.7,4.3-7.3c11.2-24.6,22.2-49.3,33.3-73.9
	c9.8-21.7,19.7-43.3,29.4-65c11.7-26.1,23.3-52.3,35-78.5c9.2-20.6,18.6-41.1,27.8-61.7C468.5,26.5,463.1,24.6,458.3,21.7z"/>
<path style="fill:#5F983A;" d="M156.7,450.2c13.1,0,26.1,0,39.2,0c8.1,0.1,16.3,0.3,24.4,0.1c3.4-0.1,5.1,0.4,5,4.5
	c-0.3,16.5-0.2,33-0.3,49.5c-32.5,0-65,0-97.5,0c-0.1-16.5,0-33-0.3-49.5c-0.1-4.1,1.6-4.6,5-4.5
	C140.4,450.5,148.6,450.3,156.7,450.2z M406.4,450.3c-3.4-0.1-5.1,0.5-5,4.6c0.3,16.5,0.2,33,0.3,49.5c32.5,0,65.1,0,97.6,0
	c0.1-16.5,0-33,0.3-49.5c0-3.4-0.9-4.6-4.4-4.5c-8.3,0.2-16.7-0.1-25-0.1c-13.1,0-26.1,0-39.2,0
	C422.7,450.3,414.5,450.5,406.4,450.3z"/>
<path style="fill:#69A940;" d="M225.1,504.4c0.1,33,0.1,66.1,0.2,99.1c0,3.1-1.3,3.6-4,3.6c-30-0.1-60-0.1-89.9,0
	c-2.7,0-4-0.5-4-3.6c0.2-33,0.2-66.1,0.2-99.1c2.3-2.3,5.2-2.1,8-2.1c27.2-0.1,54.3-0.1,81.5,0C219.9,502.3,222.8,502.1,225.1,504.4
	z M491.2,502.3c-27.2-0.1-54.4-0.1-81.6,0c-2.8,0-5.7-0.2-8,2c-0.1,32.8-0.1,65.6-0.2,98.5c0,3.7,1.5,4.3,4.7,4.3
	c29.6-0.1,59.1-0.1,88.7,0.1c3.2,0,4.7-0.6,4.7-4.3c-0.2-32.8-0.2-65.6-0.2-98.5C497,502.1,494,502.3,491.2,502.3z M298.7,297.3
	c-7.1,5-12.1,11.5-14.5,19.9c-0.1,0.7-0.2,1.5-0.3,2.2c-0.6,15.5,6.5,25.9,20.6,31.8c6.1,2.1,12.2,1,18.3,0.2
	c13.1-6.7,20.5-16.9,19.9-32c-0.1-0.8-0.2-1.6-0.3-2.4c-2.5-8.3-7.4-14.8-14.5-19.8C318.3,292.5,308.5,292.7,298.7,297.3z"/>
</svg>
