<?xml version="1.0" encoding="utf-8"?>
<!-- Generator: Adobe Illustrator 24.0.0, SVG Export Plug-In . SVG Version: 6.00 Build 0)  -->
<svg version="1.0" id="Layer_1" xmlns="http://www.w3.org/2000/svg" xmlns:xlink="http://www.w3.org/1999/xlink" x="0px" y="0px"
	 viewBox="0 0 612 792" style="enable-background:new 0 0 612 792;" xml:space="preserve">
<path style="fill:#7AC14A;" d="M536.9,537.5c0-21.6,0-43.2,0-65.1c-3.4,1-3.7,3.9-5,5.8c-59.7,93-145.2,137.6-255.2,130.7
	C155.1,601.3,52.2,505.7,32.2,385.5C8.1,240.2,98.9,105.5,242.3,73.7c143.8-31.9,290,61.6,321.7,205.4c7.5,34.3,6.7,69,6.7,103.7
	c0,51.6,0,103.1-0.1,154.7c-0.5,0.1-1,0.3-1.5,0.4c-0.8-0.7-1.4-1.6-1.7-2.5c-1-3.3-0.8-6.8-0.8-10.2c0-41,0-81.9,0-122.9
	c0-7.9,1.1-15.7,1.7-21c-1.4,27.5-12.3,55-24.8,81.9c-2.2,4.8-2.4,9.8-2.6,15c-0.4,19,1,38.1-0.8,57.1c-0.3,1-0.9,1.9-1.7,2.6
	C537.9,537.8,537.4,537.6,536.9,537.5z"/>
<path style="fill:#FDFDFD;" d="M62.1,339.7c0-129.3,101.7-233.1,228.2-237.7c132.6-4.9,242.6,98.7,245.9,230.9
	c3.3,132.1-100.5,240-232.3,242.8C171.7,578.6,64.9,474.3,62.1,339.7z"/>
<path style="fill:#5D9A3A;" d="M538.4,537.2c0-5.1,0.2-10.3-0.1-15.4c-1.4-30.8-0.3-60.7,14.9-89.2c9-16.8,11.3-36.5,15.9-55.3
	c0,53.3,0,106.6,0,160c-1,1.9-2.9,2.3-4.8,2.6c-2.3,0.2-4.7,0.2-7,0.2c-2.3,0.1-4.6,0.1-7,0c-2.4,0.1-4.7,0.1-7.1-0.2
	C541.2,539.6,539.4,539.1,538.4,537.2z"/>
<path style="fill:#FAA33A;" d="M562.4,713.7C562.4,713.7,562.4,713.7,562.4,713.7c2.7,1.5,4.3,3.7,3.2,6.9c-1.1,3.4-4,3.4-6.9,3.4
	c-3.4,0-6.7,0-10.1,0c-2.9,0-5.8,0-6.9-3.4c-1-3.2,0.5-5.4,3.3-6.9c-3.2-27.2-6.9-54.3-9.6-81.6c-2-20-6.5-39.7-5.8-59.9
	c0.8-0.7,1.6-0.7,2.4,0c0.3,0.4,0.6,0.9,0.8,1.4c1.9,0,3.7-0.6,5.3-1.7c1.7,0.1,3.4,0.2,5.1,0.2c2.5-0.6,5-1.4,7.5-1.9
	c1.9-0.3,3.8-0.2,5.6,0.3c2.4,1,5.1,0.1,7.5,1.4c3.5,0.5,7,1,10.6,1.5c0-0.1,0.1-0.2,0.1-0.3c0.3-0.4,0.5-0.7,0.8-1.1
	c0.9-0.6,1.7-0.5,2.4,0.3c-0.4,26.1-5.1,51.7-7.8,77.5C567.8,671.1,565,692.4,562.4,713.7z"/>
<path style="fill:#7AC14A;" d="M298.8,545.1c-114.9-0.7-207.1-93.4-206-207.5c1.1-118.2,99.1-209,213.7-205
	c108.9,3.8,200.3,93.5,199.2,210.2C504.8,453.9,411.1,545.7,298.8,545.1z"/>
<path style="fill:#EDC33A;" d="M577.8,572.3c-0.5-0.1-1-0.1-1.6-0.1c0,0,0,0,0,0c0,0,0,0,0,0c0,0-0.1,0-0.1,0c0,0,0,0,0,0
	c0,0.5-0.1,1-0.3,1.5c-1.7,0.1-3.4,0.1-5.1,0.2c-2.2,0-4.4,0.1-6.6,0.1c-1.7,0-3.4,0-5.1,0c-0.5,0-1,0-1.5,0
	c-0.4,0.1-0.9,0.1-1.3,0.2c-0.7,0-1.5,0-2.2-0.1c-0.7,0-1.4,0-2.1,0c-0.3,0.1-0.8,0.1-1.2,0.1c-0.4,0-0.7,0-1-0.1
	c-1.1,0-2.1,0-3.2,0.1c-1.1,0.1-2.1,0.1-3.2,0.2c-0.7,0-1.4,0-2.1-0.1c-1.3,0-2.6,0-3.9,0c-1.1-0.1-2.3-0.1-3.4-0.1
	c-0.2,0-0.4,0-0.7,0c-0.2,0.1-0.5,0.1-0.8,0.1c-0.3,0-0.6,0-0.8-0.1c-0.2-0.1-0.4-0.1-0.6-0.2c-0.2,0-0.3,0-0.5,0
	c-0.4,0-0.7,0-1.1,0c0-1.2,0.1-1.7,0-1.7c0,0,0,0,0,0c-9.3-7.7-8.1-29.3,1.9-34c1.8-0.2,3.6-0.4,5.3-0.6c0,0-0.2,0.2-0.2,0.2
	c0.2-0.1,0.3-0.1,0.5-0.2c0.7,0,1.5,0,2.2,0c1.4,0.1,2.8,0.3,4.1,0.4c0,0,0,0,0,0c2.3,0,4.6,0,6.9,0c0,0,0,0,0,0c2.2,0,4.5,0,6.7,0
	c2.3,0,4.6,0,6.9,0c0,0,0,0,0,0c0.9-0.1,1.8-0.1,2.7-0.1c0.7,0,1.4,0,2.1-0.1c0.7-0.5,1.4-0.6,1.8-0.4c0.1,0.1,0.1,0.1,0.2,0.3v0
	c0,0-0.2-0.3-0.2-0.3c1.8,0.2,3.5,0.4,5.3,0.6c6.2,1.1,8.5,5.4,7.9,11.1C583,557.1,587.5,566.6,577.8,572.3z"/>
<path style="fill:#FDFDFD;" d="M299.9,510.9c-94.6,0.8-172.3-76.1-173-171.2c-0.7-94,76-172.1,169.6-173
	c95.7-0.9,174.2,75,175.1,169.1C472.5,432.7,396.7,510.1,299.9,510.9z"/>
<path style="fill:#7AC14A;" d="M299.1,480.3c-79.3-0.7-142.1-64.1-141.5-142.7c0.6-78.5,64.8-140.9,144-140.1
	c77.8,0.7,140.2,65.2,139.3,144C440.1,418,375.7,481,299.1,480.3z"/>
<path style="fill:#FEFEFE;" d="M299.1,446.1c-58.1,0.5-106.7-47.5-107.4-106c-0.6-59,47-108,105.6-108.6
	c59.6-0.6,108.8,46.4,109.4,104.7C407.4,397.5,360.3,445.6,299.1,446.1z"/>
</svg>
