<?xml version="1.0" encoding="utf-8"?>
<!-- Generator: Adobe Illustrator 24.0.0, SVG Export Plug-In . SVG Version: 6.00 Build 0)  -->
<svg version="1.0" id="Layer_1" xmlns="http://www.w3.org/2000/svg" xmlns:xlink="http://www.w3.org/1999/xlink" x="0px" y="0px"
	 viewBox="0 0 612 612" style="enable-background:new 0 0 612 612;" xml:space="preserve">
<path style="fill:#69A940;" d="M473.6,343.9c11.5,6.1,24.5,7.8,36.5,12.4c9.7,3.7,18.3,8.7,23.9,17.8c-3.9,2.4-7.1-0.5-10.4-1.6
	c-45.2-14.1-84.8,13.3-93.7,51.3c-1.9,8.2-3.7,16.6-1.7,25.3c0.5,2.2,0.6,4.6-1.4,6.4c-51.3,0.1-102.7,0.1-154,0.2
	c-2-2.7-0.3-5.4,0.4-7.9c13.1-49.6-20.1-96.7-65.3-106.7c-36.4-8-75.7,8.9-94.1,41.3c-1.4,2.5-2,5.8-5.5,6.6
	c-6.4-12.1-15.9-21.9-23.6-33c-3.3-4.7-6.6-9.4-10.4-13.7c-3.3-3.8-2.9-6.2,0.7-9.7c25.9-25.5,51.6-51.3,77.3-77
	c1.9-1.9,3.8-4,5.6-6.1c3-2.6,6.1-1.2,9.2-0.3c17.3,5,34.4,10.4,51.6,15.7c2,2.4,4.6,3.4,7.6,4.2c9.5,2.5,18.5,6.4,28.3,8
	c12.3,1.2,23.6,6.2,35.2,9.7c57.9,17.4,115.5,35.5,173.4,53C466.9,340.9,470.5,341.8,473.6,343.9z"/>
<path style="fill:#FAA33A;" d="M473.6,343.9c-6,0.7-11.1-2.3-16.5-3.9c-52.1-15.8-104-31.9-156-48c-15.5-4.8-31.4-8.5-46.4-14.8
	c5.9-18.6,11.4-37.4,17.8-55.9c8.2-23.7,34.8-37.3,58.9-29.9c42.3,13,84.5,26.3,126.5,40.1c27,8.8,40,35.4,31.5,62.4
	C484.2,310.5,478.9,327.2,473.6,343.9z M100.7,432c1.7,38.3,33.1,74.2,70.9,80.6c45.2,7.7,83.5-13.8,101.2-57
	c4.7-14.6,6.8-29.4,4-44.6c-9.6-52.2-61.4-85.1-112.2-70.3c-26,7.6-44.6,23.9-56.2,48.3C102,402.6,100.1,417,100.7,432z
	 M428.4,459.9c8.4,29.1,33.7,51.2,62.1,53.9c32,3.1,60.5-11.6,74.7-38.4c14.5-27.4,10.6-59.8-9.9-83.8c-6.1-7.2-14.1-11.8-21.3-17.6
	c-2-0.6-3.9-1.2-5.9-1.9c-37.2-14.7-78.8,1.5-95.5,37.6c-6.7,14.5-8.4,29.9-5.7,45.7C427.4,456.9,428,458.4,428.4,459.9z
	 M115.8,90.5c-2.1-3.5-4.5-4.5-8.3-4.4c-21.7,0.1-43.4,0-65.2,0c-13.3,0-23.4,9.7-23.4,22.2c0,12.5,9.9,22,23.4,22.1
	c13.4,0.1,26.8,0.1,40.2,0c3.2,0,5.5,0.3,7.4,3.5c22.6,38.6,45.4,77,68.2,115.5c2.8-0.1,5.4,0.4,8.1,1.2
	c12.8,4.1,25.6,8.2,38.6,11.7c4.6,1.2,8.9,4.7,14.1,2.5C184.5,206.7,150.1,148.7,115.8,90.5z"/>
<path style="fill:#FFFFFF;" d="M188.4,469.8c-22.5,1.1-45.1-20.8-43.5-46.4c1.4-23,21.2-42.5,44.7-42.1c24.3,0.4,44.3,20.8,44.1,45
	C233.6,450.7,213.2,470.3,188.4,469.8z"/>
<path style="fill:#FFFFFF;" d="M500.2,469.8c-16.8,0.1-30.3-13.2-30.1-29.5c0.2-16.3,13.3-29.1,29.8-29.1
	c16.4,0,29.5,12.9,29.6,29.1C529.5,456.7,516.6,469.8,500.2,469.8z"/>
</svg>
