<?xml version="1.0" encoding="utf-8"?>
<!-- Generator: Adobe Illustrator 24.0.0, SVG Export Plug-In . SVG Version: 6.00 Build 0)  -->
<svg version="1.0" id="Layer_1" xmlns="http://www.w3.org/2000/svg" xmlns:xlink="http://www.w3.org/1999/xlink" x="0px" y="0px"
	 viewBox="0 0 626 626" style="enable-background:new 0 0 626 626;" xml:space="preserve">
<path style="fill:#785548;" d="M524.5,446.7c7,6.2,14.3,12,20.1,19.4c13.9,17.7,21.2,37.7,21.5,60.2c0.1,11.4-0.3,22.8,0.2,34.1
	c0.2,5.1-1.6,5.9-6.1,5.8c-108.7-0.1-217.4-0.1-326.1-0.1c-56.3,0-112.6-0.1-168.9,0.1c-5.4,0-6.8-1.3-6.6-6.6
	c0.8-16.8-1.6-33.8,1.8-50.5c6.6-32.3,25-55.8,54.6-70.4c1.3-0.6,2.5-1.3,3.8-1.9c1.3-1.7,3.1-2.5,5-3.2c23.7-8.5,46.9-7.5,69.8,3
	c4.4,2,8.4,6.3,13.2,5.5c4.6-0.8,6.4-6.4,9.7-9.7c14.4-14.9,31.2-26.4,50.2-34.8c26.7-10.6,53.8-11.7,81.3-3.7
	c11.8,4.1,23,9.6,33.7,16.1c11.7,8.5,23.3,17.1,32,28.8c2.8,3.8,5.7,4.1,9.8,1.8c15.3-8.6,31.7-13.6,49.5-12.7
	c16.3,0.8,31.5,5.4,45.7,13.6C520.9,442.8,523,444.4,524.5,446.7z"/>
<path style="fill:#2E7C32;" d="M380.7,411.1c-10.1-6.2-20.9-11.1-31.8-15.6c-2.1-2.7-2.4-6-3-9.1c-7.3-39.4-18.1-77.9-33.3-115
	c-1.2-3-1.1-5.4,1-7.8c8-28.5,20.1-55.2,35.4-80.4c23.9-39.2,54.8-71.4,94.6-94.7C460.9,78.3,480,73.1,499.9,65
	c-23.8,67.1-38.3,134.7-47.5,203.5c1.2,6.3-2.3,10.6-5.9,15.1c-23.6,30.1-41.4,63.5-55,99.3c-2.9,7.6-5.6,15.3-8.1,23
	C382.9,407.8,382.4,409.8,380.7,411.1z M309.9,260.3c-19.8-44.1-45-84.4-80.5-117.9c-29.7-28.1-64.3-46.8-105.5-54.8
	c20.4,48.6,35.3,98.5,43.5,150.3c-0.4,3.4,1.4,5.7,3.8,7.8c15.1,13.4,27.9,28.8,39.9,44.9c22.9,30.9,39.5,65.1,51.4,101.6
	c0.8,2.5,1.2,5.2,3.7,6.8c1.2-0.3,2.4-0.4,3.5-0.8c13.6-5.1,27.6-7.6,42.1-7.9c12.7-0.3,24.9,2.8,37.2,5.2
	c-1.4-12.8-4.5-25.4-7.3-37.9c-6.6-29.4-15.7-58.1-27.1-86c-1.1-2.8-1.7-5.2-0.8-8C309.4,266,310.5,261.6,309.9,260.3z"/>
<path style="fill:#69A940;" d="M167.4,238c1.3,2.4,2.3,5.2,4.8,6.8c8.7,5.6,14.5,14.2,21.2,21.6c13.3,14.7,25,30.7,35.2,47.8
	c16,26.8,28.5,55,37.5,84.9c-13.9,7.1-27.3,14.9-39.1,25.3c-6.1,5.4-11.5,11.4-16.7,17.6c-2.4,2.9-3.8,3.4-7.3,1.4
	c-16-9.4-33.1-14.9-52-13.9c-11.2,0.6-21.8,3.6-32.4,7.3c4.1-30.9,2.6-61.6-2.1-92.3c-8.7-55.9-27.9-108.2-54.8-157.8
	c-1.6-2.9-3-6-5.2-10.5c7.8,3.3,14,6.1,20.4,8.5c32.5,12.2,61.9,29.3,87.7,52.6C165.4,238,166.1,239.7,167.4,238z M414.5,442.2
	c2.5,3.3,4.2,2.9,7.4,1c21.4-12.6,44.3-17.2,68.8-11.3c12.1,2.9,23.2,8.1,33.8,14.7c-0.5-6.5-0.9-13-1.4-19.4
	c-3.1-45.4-0.4-90.4,8.2-135.2c6.1-31.9,18.3-61.7,30.3-91.7c0.8-1.9,2.2-3.7,1.7-5.7c-42.3,18.1-80.8,41.3-110.2,79
	c-0.3-2.8-0.5-4-0.6-5.1c-0.8,6.9-5.4,11.7-9.4,16.9c-19.1,24.8-34.2,51.9-46.4,80.7c-6.2,14.7-12.2,29.5-16,45
	C393.2,420.1,405.1,429.9,414.5,442.2z"/>
</svg>
