<?xml version="1.0" encoding="utf-8"?>
<!-- Generator: Adobe Illustrator 24.0.0, SVG Export Plug-In . SVG Version: 6.00 Build 0)  -->
<svg version="1.0" id="Layer_1" xmlns="http://www.w3.org/2000/svg" xmlns:xlink="http://www.w3.org/1999/xlink" x="0px" y="0px"
	 viewBox="0 0 612 792" style="enable-background:new 0 0 612 792;" xml:space="preserve">
<path style="fill:#FAA33A;" d="M151.9,672.2c-0.5-1.1-1-2.2-1.5-3.2c-3.6-6.3,0.2-11.8,2-17.4c8.6-13.9,21.5-20.2,37.4-19.5
	c28.3,1.2,55.4-3.6,81.1-15.7c29.4-13.8,51.8-34.9,67-63.6c3.5-6.6,3.9-13.8,3.2-20.9c-2.7-25.6-4.6-51.3-6.9-76.9
	c-2.4-25.6-4.3-51.3-6.6-76.9c-3.6-39.1-6.9-78.2-10.3-117.3c-2.8-32.2-5.9-64.5-8.3-96.7c-0.6-7.6-1.2-15.2-2.1-22.8
	c-0.4-3-1-6.1,1.8-8.5c9.3-0.2,17.9,3.3,27,4.5c24.6,3.3,49.3,2.8,74,3.1c34.7,0.3,69.3-1.2,103.6-6.2c3.2-0.5,6.6-1.4,9.7,0.5
	c2.9,3.9,3.3,8.6,3.4,13.1c0.3,10.2,1.1,20.4,1.5,30.5c2.8,68.3,2.1,136.6,1.5,205c-0.3,32.7-4.2,65.1-11.9,96.9
	c-6.9,28.3-5.6,56.6-0.3,85c6.5,34.1,11.1,68.4,11.3,103.2c0,1.3,0,2.5-0.4,3.8c-1.6,3.2-4.6,3.8-7.7,4.1
	c-22.1,1.6-44.2,3.8-66.3,4.9c-16.6,0.8-32.9,3.4-49.2,6.5c-51.8,9.7-104.2,13.9-156.8,11.5c-30.9-1.4-61.6-5.3-89.2-21.3
	C156.4,676.2,153.3,675.3,151.9,672.2z"/>
<path style="fill:#E29435;" d="M308.4,133.4c1.9,20.4,3.9,40.8,5.7,61.3c1.2,13.6,2.2,27.3,3.4,40.9c1.9,21.2,4,42.4,5.8,63.6
	c1.3,14.4,2.1,28.8,3.4,43.2c1.8,20.7,3.9,41.3,5.8,62c1.2,13.6,2.2,27.3,3.4,40.9c1.9,21.7,4.3,43.4,5.7,65.1
	c0.7,10.6,3.3,21.3,1.9,31.9c-1.8,13.7-10.4,24.1-18.5,34.5c-24.2,30.8-57,47.3-94.7,55.1c-12.3,2.6-24.8,2.6-37.2,2
	c-16.6-0.7-29.7,5.1-39.5,18.6c-2.3,2.1-5.1,2.2-7.9,1.9c-28.6-2.6-56.4-8.1-82.3-21c-2.9-1.5-6.2-2.5-7.8-5.8
	c-2-16.9,5.7-29.2,21.8-34.9c10.1-3.6,20.5-3.6,31-3.1c43.1,2.1,110.5-24.1,137.7-84.4c1.8-3.9,2.3-7.5,1.9-11.7
	c-4.5-50-8.8-100.1-13.2-150.1c-4.4-49.5-8.9-99-13.2-148.6c-3.2-36.3-6.2-72.6-9.2-108.9c22.3,8,45.7,8.8,69,10.1
	c16,0.9,32,1.7,48,1.1c35.6-1.4,71.1-3.1,106.3-9.4c7.8-1.4,14.5-6.2,22.5-6.5c2.3,9.5,0.8,19.5,3.5,28.9
	c-9.3,2.5-18.9,2.2-28.4,2.3c-37.9,0.3-75.7,2.7-112.8,10.8C314.8,124.6,308.5,125.3,308.4,133.4z M538.8,674.7
	c9.1,0.1,9.1,0.1,9.2,9.4c0.1,9.6-0.1,19.3,0.1,28.9c0.1,3.1-0.7,6.7,3,8.7c0.1-14.3,0.2-28.6,0.3-42.8c0-2-0.6-4.6,0.3-6
	c6.8-9.6,5-20.6,4.7-31c-1.3-37.9-9.5-74.7-17.6-111.6c-1.3-5.7-3.2-11.2-2-17.3c9.7-50.9,16.1-102.2,20.1-153.8
	c5.8-76.8,4.5-153.5-2.4-230.1c-0.2-2.2,0.8-5.3-2.6-6.4c-6.3,4.6-13.6,6.9-21.1,8.4c-2.9,0.6-6.2,0.7-8,3.8
	c3.3,28.3,3.9,56.8,4.2,85.2c0.6,58.8,1.5,117.7-0.7,176.5c-1,27-4.5,53.5-10.4,79.7c-6.6,29.2-6.5,58.2-1,87.5
	c6.2,32.9,11.4,65.9,11.2,99.6c0,3,0.9,6,1.3,9C530.6,675.6,534.8,674.6,538.8,674.7z"/>
<path style="fill:#130A04;" d="M527.2,672.4c5.9-0.1,11.8,0.4,17.5-0.5c5.2-0.8,6,1.1,6,5.6c-0.1,14.8,0.2,29.5,0.3,44.3
	c-0.4,1.3-1.3,2-2.7,2.1c-8.8-0.4-17.5,0-26.3-0.2c-4.9-2.3-2.2-6.7-2.3-9.9c-0.1-4.6-1.2-6.7-6-5.9c-1.5,0.2-3.1,0.2-4.6,0
	c-5.1-0.7-7.9,0.9-6.8,6.5c1.5,8.2-2.1,11-9.9,9.6c-1.2-0.2-2.5-0.1-3.8-0.1c-12.7-0.1-12.7-0.1-14.5-12.6c-1-7.2-6.3-2.7-9.5-3.5
	c-2.5-0.6-5.9-1.4-6.2,3.8c-0.9,12.7-1.2,12.7-14.4,12.5c-10.3-0.1-10.3-0.1-10.6-10.6c-0.5-15.2-0.5-15.6-15-13.6
	c-21.4,2.9-42.8,6.5-64.2,9.8c-2.5,0.4-5.1,0.8-7.6,0.8c-7.1,0-13.6,0.3-12.1,10.3c0.3,2.1-0.9,3.2-3.1,3.3
	c-5.1,0-10.2,0.2-15.3,0.3c-3.6,0.1-3.3-2.6-3.2-4.7c0.2-3.9-0.7-7.1-5.4-5.5c-3.9,1.3-11.5-4.1-11.2,5.4c0.2,4.4-1.8,5.1-5.4,4.8
	c-2.3-0.2-4.6-0.3-6.9,0c-5.2,0.6-8.5-0.4-7.1-6.8c0.8-3.9-2-4.4-4.6-3.8c-2.9,0.7-8.4-3-8.3,2.8c0.1,8-4.3,7.6-9.7,7.4
	c-5.2-0.1-10.6,0.8-9-7.5c0.7-3.7-2-4.4-4.7-4.1c-2.7,0.3-7.4-3-7.8,2.6c-0.5,6.7-4.2,5.9-8.7,4.6c-2.4-0.7-4.9-1.3-7.5-1.6
	c-4.9-0.5-7.5-2.2-5-7.6c1.4-3.1-0.2-4.8-3.3-5.1c-2.6-0.3-6.1-3.7-7.6,1.1c-1.7,5.2-4.8,4.9-8.9,3.4c-3.6-1.3-7.2-2.6-10.8-3.8
	c-3.9-1.3-8.2-2.3-5.2-8.2c1.5-3-1.4-3.5-3.1-3.9c-2.7-0.7-6.4-4.5-8-1.2c-3.1,6.6-6.4,3.4-10.2,1.7c-0.5-0.2-0.9-0.4-1.4-0.7
	c-3.2-1.9-9.3-2.4-9.5-5.4c-0.3-5,2.3-10.2,4-15.2c0.6-1.9,2.7-0.6,4-1c16.6,7.6,32.9,15.5,51.2,19c36.9,7.2,74,6.7,111.2,4.8
	c38.2-2,75.8-8.8,113.6-14.7c23.8-3.7,48.2-4,72.3-6.1C509.2,674.5,518.4,675.2,527.2,672.4z"/>
<path style="fill:#140B05;" d="M55.5,627.7c30.8,15.7,63.5,23.7,98,24.9c-1.3,5.4-3.2,10.7-3.1,16.4c-5-0.2-11.7-3.8-11.8,5.9
	c0,1.5-0.8,2.4-2.4,2.1c-5.7-1.2-11.5-2.4-17.1-3.8c-2.7-0.7-1-2.7-1-4.4c0.1-2.5,3.2-6.1-2.2-7.1c-3.8-0.7-8.1-3.7-9.4,3
	c-0.7,3.3-2.8,2.8-5.3,2c-4.8-1.7-9.6-3.3-14.5-4.8c-3.9-1.2-6.6-2.5-4.1-7.4c1.9-3.8-2.1-4.1-4.1-4.7c-2.4-0.8-5.7-4.5-7.6,0.2
	c-1.7,4.1-3.8,3.3-6.9,2c-14.6-6.4-14.6-6.4-9.9-21.6C54.4,629.4,55.1,628.6,55.5,627.7z"/>
<path style="fill:#CB0909;" d="M522.1,723.7c8.8-0.6,17.6-0.6,26.3,0.2C539.6,723.8,530.8,723.8,522.1,723.7z"/>
<path style="fill:#EDC33A;" d="M458.2,81.3c-10.5,7.6-22.9,8.9-35.2,10.7c-25.3,3.8-50.8,5.3-76.4,6.5c-16.5,0.8-33.1,1.6-49.5,0.8
	c-25.2-1.3-50.6-1.3-75.4-7.5c-3.7-0.9-7.2-2.4-9.5-5.9c1.8-6.1,7.4-6.5,12-7.8c28.2-7.8,57.3-9.5,86.3-11.1
	c37.2-2,74.5-2,111.6,1.8c9.4,1,18.7,2.3,27.8,5C453.6,75,458.6,75.4,458.2,81.3z M538.2,116.5c-25.2-5.2-50.8-6.5-76.5-6.3
	c-4-0.5-8.2-1.9-12-1.2c-18.4,3.4-37,0.5-55.5,2.5c-20.1,2.1-40.4,2.9-60.3,6.7c-7.9,1.5-16.2,2-23.5,5.8c-4,2.1-8.2,4.8-2,9.4
	c17.9,6.6,36.8,8.3,55.3,8.7c53.1,1.2,106.3,2.1,159-7.2c6.6-1.6,13.2-2.8,19.6-4.9c3.7-1.2,8.7-1.8,9.5-7.3
	C548.1,118.8,543.1,117.6,538.2,116.5z M288.4,638c31.5-4.7,57.6-20.8,82.3-39.6c9.1-6.9,18.1-14.2,23.2-24.9c3.4-7,1.2-13-5.7-16.5
	c-7.2-3.6-13.4-1.6-18.9,3.4c-7,6.4-12.5,14.1-18,21.7c-14.9,20.5-32,38.1-56.4,47.6c-13.4,5.2-27.3,7.4-41.4,9.9
	C265.2,640.9,276.8,639.7,288.4,638z M336.7,249.4c1.6,8.4,4.2,16.7,6.4,25c0.4,1.5,0.9,3.9,3.3,3.3c1.6-0.5,1.6-2.4,1.7-3.9
	c0.1-1.5,0-3.1,0.1-4.6c0.3-18.6,2.1-37,4.2-55.4c1.6-14.1,5.3-28,4.9-42.3c-0.2-8.8-5.2-14.2-13.9-15.1
	c-8.6-0.9-13.5,2.9-15.9,11.7c-1.1,4.1-0.6,8.1-1,13.2C327.8,203.6,332.2,226.5,336.7,249.4z M196.5,657.2c3.6-1.7,7.2-3.7,7.3-8
	c0.1-4.4-3.6-6.5-7.2-7.9c-9.2-3.7-18.4-3.6-27,1.7c-4.8,2.9-5.2,7.3-1.3,11.3c4.3,4.5,9.9,4.7,15.6,4.5
	C188.1,658.6,192.4,659.2,196.5,657.2z M251.5,222.6c0.2-19.6,2-39.1,4.5-58.5c1.6-12.8,5-25.5,4.8-38.5
	c-0.1-9.7-5.6-15.2-15.1-15.4c-10.5-0.3-15.2,4.5-15.4,16.2c-0.5,29.2,6,57.5,11.9,85.9c1.4,6.8,2.2,14,7.1,20
	C252,229.2,251.5,225.8,251.5,222.6z M78.7,597.3c-5.4,3.6-5.5,8.6-0.2,12.2c5.2,3.5,11.2,4.8,17.4,4.3c10.2-0.8,17.7-5.6,17.4-10.7
	c-0.3-5.2-9.2-10.1-19.8-10.2C89,593.3,83.5,594.1,78.7,597.3z"/>
</svg>
