<?xml version="1.0" encoding="utf-8"?>
<!-- Generator: Adobe Illustrator 24.0.0, SVG Export Plug-In . SVG Version: 6.00 Build 0)  -->
<svg version="1.0" id="Layer_1" xmlns="http://www.w3.org/2000/svg" xmlns:xlink="http://www.w3.org/1999/xlink" x="0px" y="0px"
	 viewBox="0 0 612 612" style="enable-background:new 0 0 612 612;" xml:space="preserve">
<path style="fill:#FAA33A;" d="M386.3,310.1c0,3.3,2.3,5.3,4.4,7.4c17,17,34,34,51.1,51c20.1,20,20.4,51.3,0.2,71.2
	c-26.5,26.1-57.1,47-89.3,65.4c-38.7,22.1-79.6,39.1-122.2,51.8c-26.2,7.8-52.9,13.9-80.1,17.2c-16.3,2-32.7,3.6-49.1,3.7
	c-17.5,0.1-35.1-1.6-52.3-5.1c-4.8-1-6.6-3.3-7.8-8c-4.1-17.5-4.5-35.3-5-53c-0.5-19.8,2.2-39.5,5.5-59
	C48,414.2,59,376.9,74.4,340.9c18.7-43.9,41.9-85.2,73.4-121.4c12.9-14.9,26.4-29,41.7-41.4c19-15.4,49.5-12.5,65.7,4.2
	c17.2,17.7,35,35,52.5,52.5c2.1,2.1,4.1,4.4,7.4,4.3c-1.2,3.7-4.8,3.2-7.4,3.6c-5.1,0.6-8.9,3-12.4,6.6
	c-6.3,6.6-12.8,13.1-19.4,19.4c-22.8,21.5-22.7,58.9-0.2,81.3c22.4,22.3,58.3,21.8,81-0.6c4.2-4.2,8.3-8.5,12.7-12.6
	c7.1-6.6,14.1-13.1,14.5-23.8C383.8,311.6,384.6,310.3,386.3,310.1z"/>
<path style="fill:#69A940;" d="M386.3,310.1c-0.3,13.9-9.4,22.4-18.6,31c-8.8,8.3-16.8,17.4-28.3,22.4
	c-37.8,16.5-81.8-11.8-82.3-52.9c-0.2-17.2,5.5-31.7,17.8-43.7c2.9-2.9,6-5.7,8.7-8.8c8.5-9.6,17.5-18.5,31.5-19.1
	c22.2-5.5,39.2-18.2,51.3-37.4c21.3-33.9,42.5-67.8,63.7-101.7c5.2-8.3,10.1-16.9,15.7-25c17.6-25.6,48.4-37.6,78.9-31.1
	c27.8,6,52.4,30.7,57.2,57.7c5.9,32.7-6.4,62.4-33.5,79.5c-41.3,25.9-82.8,51.4-124.1,77.3C404.9,270.6,391.7,287.6,386.3,310.1z"/>
<path style="fill:#FDFDFD;" d="M502.1,155c-16.5-0.1-29.2-12.8-29-29.2c0.2-17.1,12.5-29.1,29.9-28.9c16.3,0.1,28.6,13,28.4,29.8
	C531.1,142.6,518.1,155.2,502.1,155z"/>
</svg>
