<?xml version="1.0" encoding="utf-8"?>
<!-- Generator: Adobe Illustrator 24.0.0, SVG Export Plug-In . SVG Version: 6.00 Build 0)  -->
<svg version="1.0" id="Layer_1" xmlns="http://www.w3.org/2000/svg" xmlns:xlink="http://www.w3.org/1999/xlink" x="0px" y="0px"
	 viewBox="0 0 580 580" style="enable-background:new 0 0 580 580;" xml:space="preserve">
<path style="fill:#69A940;" d="M556.1,212.6c-9,21.5-17.9,43-26.9,64.4c-11,26.3-22.1,52.6-33.2,78.9c-0.6,1.4-1.3,2.7-2,4
	c-3.4-0.3-4.4-3.3-6.1-5.4c-13-16.1-29.2-27-49.7-30.9c-24.2-4.6-46.3,0.5-66.3,14.9c-2.5,1.8-4.5,4.7-8.1,4.6
	c-48.2-19.8-96.5-39.5-144.7-59.2c-2-0.8-3.5-1.6-4.2-4c-5.9-22.1-12-44.1-18-66.2c-0.1-0.3,0-0.7,0.1-1.1c3-2.4,6.5-1.5,9.8-1.5
	c98-0.1,196,0,294-0.1c16,0,32,0,48,0C551.2,211,553.9,210.5,556.1,212.6z"/>
<path style="fill:#5F983A;" d="M512.1,180.7c12,0.1,24.1,0.1,36.1,0.2c12.6,0.1,18,8.3,13.1,20.1c-1.4,3.5-2.9,6.9-4.4,10.4
	c-1.7,1.3-3.6,0.7-5.5,0.7c-16.9,0.1-33.9,0-50.8,0c-99.2,0-198.3,0-297.5,0c-2.2,0-4.5,0.4-6.7-0.3c-1.4-4.6-3-9.2-4-13.9
	c-2-9.5,3.9-16.7,13.7-16.9c10.9-0.1,21.8-0.1,32.6-0.1c3.2-2,6.9-1.7,10.4-1.7c50,0.1,99.9-0.2,149.9,0.1
	c35.3-0.2,70.7-0.1,106-0.1C507.5,179.1,509.8,179.7,512.1,180.7z"/>
<path style="fill:#FAA33A;" d="M361.7,148.1c5.2,6.2,12.1,10.4,18,15.8c6.3,5.8,13.6,10.4,19.4,16.8c-25.8,0.1-51.6,0.2-77.4,0.2
	c-27.7,0-55.3-0.1-83-0.1c24.2-23.1,48.4-46.2,72.4-69.5c2.7-2.6,4.1-0.9,6,0.6c13.1,10.9,26.3,21.9,39.5,32.8
	C358.2,146,359.5,147.8,361.7,148.1z"/>
<path style="fill:#985F04;" d="M460.8,480.6c-50.6,25.6-110.2-2.9-122.2-58.4c-2.5-11.3-2.4-22.8,0.2-34.1c0.8-3.6,0-5-3.4-6.2
	c-10.6-3.9-21.1-8-31.4-12.5c-3.3-1.4-4.8-0.6-6.8,2c-15.6,20.8-31.4,41.3-47,62.1c-10.4,13.8-24.5,17.8-40.5,15
	c-9.5-1.7-15.9-8.4-18.3-18c-6.9-27.6-13.7-55.3-20.3-83c-11.8-49.3-23.4-98.6-35-147.9c-5.1-21.7-9.7-43.5-14.6-65.3
	c-3-12.1-3-12.1-15.2-12c-1.3,0-2.6,0.1-3.9,0.1c-0.5-6.6-0.5-13.1,0-19.7c6.7-0.7,13.4-0.7,20.2,0c8.4,2.1,13.9,7.1,15.7,15.8
	c0,0,0,0,0,0c5.3,23.2,10.6,46.4,16,69.5c5.3,22.8,10.8,45.5,16.1,68.3c7.9,33.6,15.2,67.3,23.6,100.7c5.6,22.2,10.8,44.5,16.5,66.7
	c1.1,4.3,3.4,5.9,7.6,5.6c6.2-0.4,11.7-2.3,15.7-7.5c14.9-19.7,29.8-39.3,44.8-58.9c2.1-2.7,1.9-3.6-1.4-5
	c-21.2-8.7-42.3-17.8-63.5-26.5c-3.4-1.4-5-3.3-5.5-6.9c-0.9-5.9-2.3-11.7-3.7-18.8c3.4,1.4,5.8,2.4,8.3,3.4
	c43.2,18,86,36.9,129.7,53.7c3.5,1.4,5.5,1.6,7.5-2.3c3.5-6.7,8.8-12.1,14-17.6c16.2-14.4,35.2-22.5,56.9-22.8
	c21.2-0.3,40.2,6.7,56.5,20.6c6.5,5.5,11.6,12.2,16.8,18.9c5.3,10.4,9.9,20.9,11.7,32.7C511,428.3,492.8,464.4,460.8,480.6z"/>
<path style="fill:#CACECF;" d="M122.3,102.8c-6.7,0-13.4,0-20.2,0c-0.1-0.4-0.1-0.7,0.1-1.1C108.9,102.5,115.7,100.6,122.3,102.8z"
	/>
<path style="fill:#EDC33A;" d="M512.1,180.7c-37.7,0-75.3,0-113,0c-8.4-4.7-14.9-11.8-22.4-17.6c-4-3.1-7.8-6.4-11.6-9.7
	c-1.6-1.4-4-2.4-3.3-5.3c17.7-17.1,35.5-34.2,53.2-51.4c2.8-2.7,3.9-0.2,5.4,1.1c27.9,25.1,55.7,50.2,83.5,75.3
	C506.6,175.5,509.3,178.2,512.1,180.7z M103.1,103.7c-0.2-0.7-0.5-1.3-0.9-1.9c-2.4-8.6-6.8-12.9-14.8-13.1c-19-0.3-38-0.3-57.1,0
	c-9,0.2-14.5,6.4-14.6,15.4c-0.1,5.5-0.1,10.9,0,16.4c0.1,10.2,5.9,16.1,16.1,16.2c18.1,0.1,36.2,0.1,54.2,0c9.2,0,14.4-4.8,16-14.1
	C104.7,116.3,103.5,110,103.1,103.7z M364.9,405.4c0,31.6,25.3,57,57,57c31.2,0,57.4-26.2,57.1-57.2c-0.3-31.3-25.8-56.9-56.7-56.9
	C390.1,348.2,364.9,373.2,364.9,405.4z"/>
<path style="fill:#FFFFFF;" d="M447.8,405.6c-0.1,14.1-11.9,25.9-25.9,26c-14.1,0.1-26.2-12.1-26.2-26.3c0-14.2,12.2-26.4,26.3-26.2
	C436.3,379.1,447.9,391.1,447.8,405.6z"/>
</svg>
