<?xml version="1.0" encoding="utf-8"?>
<!-- Generator: Adobe Illustrator 23.0.3, SVG Export Plug-In . SVG Version: 6.00 Build 0)  -->
<svg version="1.0" id="Layer_1" xmlns="http://www.w3.org/2000/svg" xmlns:xlink="http://www.w3.org/1999/xlink" x="0px" y="0px"
	 viewBox="0 0 612.2 545" style="enable-background:new 0 0 612.2 545;" xml:space="preserve">
<path style="fill:#F7AE05;" d="M211.7,483.3c-2.8,2.8-5.6,5.6-8.5,8.3c-30.6,28.7-69.4,28.6-100.1,0.1
	c-19.7-18.3-32.5-41.1-42.2-65.7c-13-33.1-19.5-67.5-21.7-102.9c-3.1-49.2,2.1-97.4,18.3-144c9.3-26.5,21.8-51.3,42.1-71.3
	c34.8-34.3,76.7-33,109.9,3c1.5,1.6,3.1,3.1,4.6,4.7c3.5,0.7,5,3.7,6.9,6.3c16.9,23.4,28.2,49.4,35.7,77.1
	c6.6,24.5,10.4,49.4,12,74.8c3.2,52.8-3,104.1-22,153.6c-6.8,17.7-15.8,34.4-27.4,49.5C217.1,479.4,215.2,482.2,211.7,483.3z"/>
<path style="fill:#B67300;" d="M295.4,467.4c-1.2-4,2.3-6,4-8.6c15.1-23.6,23.4-49.8,29.4-76.8c4.1-18.4,6.2-37,7.5-55.8
	c1-13.5,1.4-27,0.8-40.5c-2.2-45.8-9.6-90.5-30.8-131.9c-2.8-5.5-6.4-10.5-9.5-15.8c-0.8-1.4-2.9-2.5-1.4-4.6
	c17.6-14.4,37.8-13.1,54.4,3.6c3.6,3.6,6.8,7.8,10.1,11.6c5.9,3.7,8.3,10.1,11.2,15.8c13.2,25.9,20,53.6,24,82.2
	c3.1,22.3,4.5,44.8,3.5,67.3c-1.7,37.5-6.8,74.5-21.5,109.5c-1.5,3.6-2.6,7.6-6.3,9.9c-6.5,13.1-14.2,25.4-25.8,34.6
	C328.8,480.8,311.4,480.5,295.4,467.4z M437.4,395.2c3.5-11.8,8.3-23.1,11-35.1c3.6-16.8,6.2-33.7,7.5-50.9
	c0.8-11.9,1.4-23.8,0.7-35.6c-1.8-36.1-7-71.7-23.8-104.4c-3.5-6.8-8.1-13.1-12.2-19.7c7.6-10.9,16.8-19.2,31.2-18.9
	c7.7-2.2,12.9,2.6,18,6.8c10.8,8.8,17,20.9,22.3,33.4c9.2,21.4,13.2,44.1,15.2,67.2c0.9,10.5,1.5,21,1.2,31.5
	c-0.6,24.3-3.5,48.3-10.2,71.8c-1.1,4-2.3,8.1-5.7,10.9c-5.4,14.9-12.3,29-24.9,39.2C458.6,398.8,448.4,401.1,437.4,395.2z
	 M535.7,286.1c-2.3-5.6,0.9-10.7,1.6-15.9c2.6-20.5,3.9-40.9,2.2-61.6c-1.6-19.9-4.9-39.2-11.4-58.1c-4.7-13.6-11.2-26.2-21.6-36.6
	c-6-6-13.6-8.4-21.2-10.9c5.5-11.5,12-21.9,25-26.3c3.1-3.6,7.2-3,11.1-2c7.5,2,13.7,6.2,18.6,12.3c7.8,9.8,12.7,21.1,16.6,32.9
	c5.7,17.2,7.9,34.9,9.4,52.8c0.4,4.8-0.7,9.4-1.5,14.1c-0.6,28.2-4.1,55.9-16.6,81.7C544.6,275,541.2,281.3,535.7,286.1z"/>
<path style="fill:#C48F33;" d="M211.7,483.3c27.1-31.9,40.7-69.9,48.9-110.3c6.1-29.9,8.5-60.1,7.1-90.5
	c-2.3-48.3-11.2-95.2-34.4-138.4c-5.5-10.1-11.8-19.7-19.1-28.7c8.9-5.8,18.2-10.8,29.2-11c19.2-0.4,33.1,9.6,45.2,23
	c2,2.2,3,5.8,6.8,6c12.8,17.1,21.2,36.5,27.5,56.7c8.6,27.5,13.1,55.6,15,84.4c3,46.4-1.4,91.8-15,136.2
	c-6.2,20.2-14.7,39.6-27.5,56.7c-3.5-0.1-4.3,3.1-6,5.1c-7.7,8.8-16.3,16.2-27.2,20.6C243.2,500.6,226.9,495.1,211.7,483.3z
	 M370.8,433.3c13.5-27.3,19.9-56.7,23.6-86.6c2.6-20.9,3.6-41.9,2.4-62.9c-1.7-31.6-5.9-62.9-16.4-93.1c-5.2-14.8-11.8-29-20.5-42.1
	c5.1-4.3,9.6-9.3,15.9-12.3c12.9-6,24.6-3.7,35.5,4.9c3.2,2.6,6.2,5.5,9.3,8.2c4.5,2.1,6.4,6.4,8.8,10.2
	c13.3,21.3,19.8,45,24.2,69.5c4.1,22.8,5.7,45.8,4.8,68.9c-1.3,30.7-5.7,61-16.9,89.9c-1,2.5-1.6,5.4-4,7.2
	c-5.2,7.7-8.6,16.5-14.5,23.8c-5.5,6.7-11.3,12.8-19.2,16.7C392.2,441.5,381.4,439.1,370.8,433.3z M492.7,352.1
	c6.4-16.8,9.8-34.1,11.9-51.9c1.8-15.6,3-31.3,2.1-46.9c-1.9-33-6.2-65.6-22.7-95.1c-7.3-13.1-16.1-24.8-32.3-27.5
	c7.3-13.9,17.8-23.9,33.5-27.6c8.7-0.8,15.3,3.6,21.3,8.9c9,7.9,15,18,19.6,28.9c8.6,20.7,12.9,42.4,14.9,64.8
	c2,22.7,0.8,45.2-2.6,67.7c-0.6,4.3-1.5,8.6-2.8,12.8c-2,2.5-2.9,5.5-3.8,8.6c-4.2,14.8-9.6,29-18.9,41.4
	C507.6,343.2,501.3,349,492.7,352.1z M564.3,186.9c0-27.5-3.6-54.4-14.5-79.9c-4.5-10.6-10.1-20.8-20.3-27.1
	c-5.9-3.6-12.2-5.8-19.2-3.1c2.9-10.5,5-21.3,9.6-31.2c1.9-4,3.8-7.9,6.5-11.3c8.9-11.6,19-11.6,27.9-0.1c4,5.2,6.8,11.2,9,17.4
	c9.9,28.5,11.9,57.9,9.9,87.6C572.1,155.4,570.2,171.5,564.3,186.9z"/>
<path style="fill:#885700;" d="M229.7,302.1c-0.4,33.6-4.6,70.4-16.7,105.9c-6.2,18.1-14.6,35.1-27.2,49.9
	c-18.8,22.2-46.9,22.3-65.7-0.3c-15.8-18.9-24.9-41-31.3-64.3C78.6,356.4,75.3,318.7,77,280.6c1.6-34.8,6.8-69.1,19.8-101.8
	c7.3-18.2,16.2-35.5,31.8-48.2c20-16.4,41.3-10.2,56.5,6.8c17.9,19.9,26.9,44.3,33.6,69.6c5.6,21.4,8.8,43.1,10.1,65.2
	C229.2,280.9,229.5,289.6,229.7,302.1z"/>
</svg>
