<?xml version="1.0" encoding="utf-8"?>
<!-- Generator: Adobe Illustrator 23.0.3, SVG Export Plug-In . SVG Version: 6.00 Build 0)  -->
<svg version="1.0" id="Layer_1" xmlns="http://www.w3.org/2000/svg" xmlns:xlink="http://www.w3.org/1999/xlink" x="0px" y="0px"
	 viewBox="0 0 612.2 613.4" style="enable-background:new 0 0 612.2 613.4;" xml:space="preserve">
<path style="fill:#D77841;" d="M134.1,262c22.4,0,44.8,0,67.4,0c-0.2-2.6-2-3.4-3.2-4.6c-31.4-31.4-62.8-62.8-94.2-94.3
	c-1.5-1.5-3.4-2.9-3.7-5.3c1.8-5.8,7-10.5,11.9-10.9c10.5,8.3,19.2,18.4,28.6,27.8c23.9,23.7,47.6,47.5,71.4,71.3
	c0.8,0.8,1.7,1.6,2.7,2.4c2.2-1.9,1.1-4.3,1.2-6.2c0.1-37.6,0.1-75.3,0-112.9c0-3.8,0.6-7.1,3.9-9.4c2.9-2,6-2.1,9-0.5
	c3.7,1.9,5.1,5.2,5.1,9.4c-0.1,15.7,0,31.5,0,47.2c0,28.9,0,57.7,0,86.6c0,3,0.2,5.7,2.7,8.1c19.1,18.9,38.1,38,57.1,56.9
	c0.5,0.5,1.2,0.9,1.8,1.4c1.6-1.5,0.9-3.1,0.9-4.6c0.1-61.7,0.1-123.5,0.1-185.2c0-1.4-0.1-2.8-0.2-4.2c6.2-0.5,12.4-1.6,18.4,0.9
	c0.1,18.1,0.4,36.2,0.4,54.3c0,72.3,0,144.6,0,216.9c0,0.6,0.1,1.2,0.2,1.8c2.3,0.6,3.1-1.4,4.2-2.6c30.2-30.1,60.3-60.3,90.5-90.4
	c2.2-2.2,3.6-4.3,3.6-7.7c-0.1-45.8-0.1-91.6-0.1-137.4c6-0.9,12.1-1.8,17.9,1c0,40.3,0,80.6,0,122.6c24.4-24.4,47.7-47.6,71-70.9
	c5,3.5,9.6,7.4,12.6,12.8c-21.3,21.5-42.7,42.9-64,64.4c-1.7,1.7-3.8,2.9-6.5,4.8c3.9,2,6.3,1.4,8.5,1.4c37,0,74.1,0,111.1,0
	c3.3,0,6.4,0.1,8.9,2.5c2.6,2.6,3.7,5.7,2.4,9.2c-1.6,4.2-4.7,6.2-9.2,6.2c-18.7,0-37.4,0-56.2,0c-26.1,0-52.2,0-78.3-0.1
	c-3.5,0-5.9,1-8.4,3.4c-34.8,35-69.8,69.9-104.8,104.8c-2.9,2.9-3.5,5.8-3.5,9.6c0.1,45.8,0.1,91.6,0,137.4c0,2,0.1,4-0.2,6
	c-0.8,5.5-4.7,9.2-9.3,9c-4.8-0.2-8.9-4.5-8.9-10.1c-0.2-14.7-0.1-29.5-0.1-44.2c0-59.5,0-119.1,0.2-178.6c0-4.5-1.2-7.8-4.5-11
	c-22.5-22.3-44.8-44.7-67.2-67.1c-2.4-2.4-4.8-4.3-8.7-4.3c-27.5,0.2-55,0.2-82.4,0.2C133.1,274.1,132.8,268.1,134.1,262z"/>
<path style="fill:#66BB6A;" d="M332.8,94.7c-1.1-10.2-4.2-19.8-7.9-29.2c-5-12.7-11.1-24.9-18.9-37.2
	c-10.2,17.2-18.7,34.2-23.9,52.6c-3.5,12.3-4.2,24.6-1,37c2.2,8.4,6.7,14.8,15.5,17.2c6,2.1,12.2,0.9,18.4,0.9
	c6.5-3,12.4-6.7,14.7-13.9C332.7,113.3,333.8,104.2,332.8,94.7z M217.8,479c-12,2.1-18.3,12.1-19.3,26.7
	c-2.1,30.2,12.3,54.7,26.4,80.7c8.1-12.3,14-24.3,18.8-36.6c6-15.4,10.6-31.1,7.6-48.2C248,483,237,475.6,217.8,479z M119.8,247.3
	c-6.3-2.2-12.8-3.3-19.3-3.1c-27,0.9-49.7,13.7-73,26.8c7.3,5.6,14.8,9.1,22.3,12.7c18.6,8.9,37.6,16.1,58.9,14.2
	c13.3-1.2,21.6-6.4,25.5-17.7c1.7-6.1,1.5-12.1-0.1-18.1C132.1,254.4,127.1,249.9,119.8,247.3z"/>
<path style="fill:#FFDC64;" d="M580.4,155.5c-18.4,4.7-36,11.2-52.5,20.8c-9.1,5.3-16.4,12.6-22.3,21.2c-5.6,8.2-7.9,16.9-2.9,26.3
	c3.4,5,8,8.9,12.6,12.8c8.2,3.6,16.2,3.7,23.9-1.2c6.9-4.4,13.2-9.5,18.3-16c14.1-18.2,20.5-39.7,26.8-61.3
	C585.6,153.6,582.6,154.9,580.4,155.5z M220.6,367.1c-5.3,2.8-10,6.5-14.1,10.8c-18.1,19-25.2,43.2-32,67.6c-1,3.7,1.3,3,3.2,2.4
	c9.6-3,19.5-5.6,28.9-9.3c17.1-6.7,33.5-14.8,44.7-30.3c3.9-5.4,7-11,7.2-17.9C258.7,371.9,236.7,358.5,220.6,367.1z M114.9,510
	c-7-18.8-15.1-36.8-32.1-49.1c-5.2-3.7-10.5-7.2-15-6.9c-13.8,0.1-20.4,7.3-26.1,15.8c-5.1,7.7-3.6,15.5,0.8,23
	c4.1,6.9,9.1,13,15.5,17.9C76.5,525,98.2,532,120.3,538c3.4,0.9,3.3-0.8,2.6-3.1C120.2,526.6,117.9,518.1,114.9,510z M511.2,359.5
	c-8.3-5.3-16.8-6.8-25.2-1.3c-9.2,5.9-16.4,13.6-15,25.8c0.8,7,4.6,12.6,9,17.8c19.7,23,47.4,29.9,75.8,38.5
	c-3.6-14.5-7.8-27.3-13.1-39.8C535.8,384.1,526.7,369.4,511.2,359.5z"/>
<path style="fill:#FFF082;" d="M112.3,147c-5.2,2.3-8.2,7-11.9,10.9c-17.8,7.6-30.3-1-43.9-18.1c-14-17.6-20-39.1-26.1-60.3
	c-0.9-3,0.3-3.5,3-2.8c22.1,6,43.9,13,62.3,27.4c6.5,5.1,11.7,11.4,15.7,18.6c3.6,6.6,5,13.4,1.4,20.5
	C112,144.4,111.3,145.6,112.3,147z M431.8,172.1c-6-0.3-12.1,1.2-17.9-1c-9.1-2.1-13.5-8.7-15.7-17c-2.8-10.7-2.9-21.5-0.3-32.4
	c4.8-20.3,14.2-38.6,24.9-57.1c5.5,7.5,9.3,15.1,12.9,22.8c8.3,17.7,15.5,35.7,14.1,56C448.9,156.4,445,167,431.8,172.1z M27.2,370
	c24.2-13.4,47.5-26.7,75.6-26.7c4.1,0,8.3,0.6,12.4,1.5c14.7,3.4,21.5,13.4,19.9,29.1c-1.3,13.8-11.2,21.8-27.2,23.1
	c-21.8,1.8-40.9-6.2-59.9-15.2C41.1,378.6,34.3,375,27.2,370z M447.4,459.5c0.1,11.4-4.6,17.7-9.7,23.9
	c-11.8,14.4-28.1,21.8-44.9,28.2c-8,3-16.2,5.2-24.3,7.8c-3.9,1.3-5.8,0.8-4.6-3.9c4.9-18.5,11.2-36.5,21.3-52.8
	c6.1-9.9,14.2-18.3,24.7-23.7C426.1,430.6,447.5,444,447.4,459.5z"/>
</svg>
