<?xml version="1.0" encoding="utf-8"?>
<!-- Generator: Adobe Illustrator 23.0.3, SVG Export Plug-In . SVG Version: 6.00 Build 0)  -->
<svg version="1.0" id="Layer_1" xmlns="http://www.w3.org/2000/svg" xmlns:xlink="http://www.w3.org/1999/xlink" x="0px" y="0px"
	 viewBox="0 0 474 597.7" style="enable-background:new 0 0 474 597.7;" xml:space="preserve">
<path style="fill:#D28F36;" d="M65.1,387c0-42,0.1-84.1,0.1-126.1c5.2-3.9,11.5-2.8,17.2-3.1c43.1-1.7,85.4,3.4,126.6,16.7
	c25,8.1,49.3,18.4,74.5,25.7c38,11.1,76.1,11.3,114.5,2.2c3.6-0.9,7.2-2.8,11-1c0,28.5,0.1,57.1,0.1,85.6c-3.2,2.9-7.1,2.1-10.8,2.1
	c-51.7,0.1-103.5,0-155.2,0c-55.7,0-111.5,0-167.2,0C72.3,389.1,68.3,389.9,65.1,387z M337.6,132.4c27.7,20.7,48.4,46.8,60.7,79.3
	c4.1,10.8,7.4,21.8,8.6,33.3c-1.7,2.7-4.6,3-7.2,3.6c-45.4,11-89.9,7.9-133.7-8.5c-28.5-10.7-56.6-22.4-86.5-29
	c-17.1-3.8-34.4-6.2-51.9-7.6c-14.3-1.1-28.6-1-42.9-0.8c-1.5,0-3.8,0.9-4-2c26.5-54,69-87,128.3-98c3.3-0.6,6.7-1.1,10-1.6
	c2.4-2.1,5.5-2.3,8.4-2.4c36.2-1.5,69.9,6.8,100.8,25.7C331.6,126.6,335.7,128.2,337.6,132.4z"/>
<path style="fill:#F0AA52;" d="M80.7,200.7c2.4,1.7,5,0.2,7.5,0.1c47.7-1.7,93.9,5.9,138.6,22.6c22.7,8.5,45,18.1,68.7,23.9
	c37.4,9.2,74.5,7.5,111.5-2.4c2.2,3.9,2.3,8.3,2.4,12.5c0.3,14.7,0,29.4,0,44c-24.1,6.6-48.6,10.1-73.7,9.1
	c-25.1-1-49.1-6.7-72.6-15.1c-26.9-9.6-53.5-20.3-81.5-26.8c-38.3-8.8-77-11.5-116.1-7.7c0.4-16.5,4.5-32.3,9.8-47.9
	C76.5,208.7,78.2,204.5,80.7,200.7z M65.1,387c60.9,0.1,121.9,0.1,182.8,0.1c53.8,0,107.5-0.1,161.3-0.1c0,12.7,0.1,25.5,0.1,38.2
	c-11.9,0.1-23.9,0.2-35.8,0.2c-100.5,0-200.9,0-301.4,0c-2.4,0-4.8-0.1-7.2-0.2C65.1,412.5,65.1,399.8,65.1,387z"/>
<path style="fill:#B73631;" d="M409.4,425.2c23.6,1.6,38.2,17.3,38.2,41c0,18.1,0.1,36.3,0,54.4c-0.1,21.8-16.8,38.7-38.6,38.7
	c-114.5,0-229.1,0-343.6,0c-21.8,0-38.5-16.8-38.5-38.6c-0.1-18.1,0-36.3,0-54.4c0-23.6,14.6-39.3,38.2-41c2.4-1.9,5.2-1.7,8-1.7
	c109.5,0,218.9,0,328.4,0C404.1,423.5,407,423.3,409.4,425.2z M337.6,132.4c-22.9-15.7-47.8-26.3-75.4-30.3
	c-14.4-2.1-28.8-2.4-43.2-1c-6.6-33.8,18.2-69.6,53-76.1c27.6-5.2,54.9,6.5,69.6,29.8C356.8,79,355.4,107.9,337.6,132.4z"/>
<path style="fill:#FFFFFF;" d="M107,505.7c-0.1,7.6-7.8,11.9-14.2,8.3c-1.4-0.8-2.7-1.8-3.6-3.1c-3.4-4.7-6.2-4.5-10.1-0.1
	c-5,5.7-10.7,5.9-15,1.7c-4.3-4.3-4.1-10,1.6-15c4.3-3.8,4.5-6.3,0.1-10.2c-5.3-4.6-5.8-11.3-2.1-15.2c3.9-4.1,10.7-3.5,15.7,2
	c3.7,4.1,6.1,4.1,9.7,0c4.9-5.5,11.8-6,15.7-2c3.9,4,3.2,10.6-2.4,15.6c-4,3.5-4.2,6,0.1,9.3C105.2,499.2,107.4,502.1,107,505.7z"/>
<path style="fill:#FFFFFF;" d="M183.5,505.7c0,7.5-7.6,11.9-14.1,8.4c-1.2-0.7-2.4-1.5-3.2-2.6c-3.6-4.9-6.7-5.2-11-0.2
	c-4.6,5.4-10.4,5.5-14.6,1.4c-4.2-4.2-4.2-10,1-14.6c4.5-4,5.2-6.8,0.2-11s-5.4-11-1.8-14.8c3.7-4,10.8-3.8,15.2,1.4
	c4.3,5.1,7.1,4.1,11-0.3c4.3-4.8,11.1-5.1,14.8-1.3c3.7,3.8,3.5,10.5-1.4,14.8c-4.6,4-5.4,7.1-0.1,11
	C182.3,499.7,183.8,502.5,183.5,505.7z"/>
<path style="fill:#FFFFFF;" d="M250.6,515.1c-4.3,0.3-7.1-2.4-9.4-5.3c-2.9-3.6-5.2-3.5-7.9,0.1c-1.1,1.4-2.4,2.7-3.9,3.6
	c-4.1,2.4-8.3,2.7-12-0.9c-3.9-3.8-3.7-8.1-1.2-12.5c0.5-0.8,1.2-1.7,2-2.2c5.5-3.8,5-7.1,0-11.4c-4.9-4.2-5-11.1-1.1-14.8
	c3.7-3.5,10-3,14.5,1.1c5.8,5.4,5.8,5.4,11.6-0.1c4.5-4.1,10.8-4.6,14.5-1c3.7,3.6,3.3,10-0.8,14.5c-1.1,1.2-2.2,2.4-3.4,3.4
	c-2.3,1.9-2,3.5,0.1,5.3c1.6,1.4,3.2,3,4.6,4.7c2.4,3.1,2.8,6.7,1.2,10.1C257.6,513.2,254.8,515.6,250.6,515.1z"/>
<path style="fill:#FFFFFF;" d="M336.6,479.4c0.3,4.2-2.8,6.9-5.8,9.4c-3,2.6-3,4.6,0.1,7.1c1.5,1.2,3.1,2.7,4,4.3
	c2.6,4.4,2.7,8.7-1.3,12.4c-3.8,3.6-7.9,3.2-12.1,0.8c-0.7-0.4-1.2-1-1.8-1.5c-6-5.4-6-5.4-12.1,0c-4.8,4.3-10.3,4.4-14.3,0.3
	c-3.7-3.9-3.5-9.3,0.7-13.9c0.9-1,1.9-2.1,3-2.9c2.7-2.1,2.7-4,0-6.2c-1.7-1.4-3.4-2.9-4.5-4.8c-2.7-4.3-2.8-8.9,0.9-12.6
	c3.5-3.4,7.9-3.3,12.1-0.9c1,0.6,2,1.4,2.7,2.4c3.7,5.2,7.1,5,10.9,0c3.1-4.1,7.6-5,12.3-3.1C335.3,471.8,336.6,475,336.6,479.4z"/>
<path style="fill:#FFFFFF;" d="M413,479.3c0.3,4-2.5,6.7-5.4,9.1c-3.6,2.9-3.4,5.2,0.1,7.9c1.4,1.1,2.7,2.4,3.6,3.9
	c2.6,4.4,2.7,8.7-1.3,12.4c-3.8,3.5-7.9,3.1-12.1,0.8c-0.8-0.5-1.7-1.2-2.2-2c-3.8-5.6-7.1-5-11.4,0s-10.1,5-14.2,1.1
	c-4.3-4.1-4.4-10.1,0.9-14.6c5.1-4.3,5-7.2-0.1-11.5c-4.9-4.2-5-11.1-1.1-14.8c3.7-3.5,10-3,14.5,1.1c5.8,5.4,5.9,5.5,11.6-0.1
	c3.6-3.5,7.6-4.3,12-2.6C411.8,471.8,413.2,475,413,479.3z"/>
</svg>
