<?xml version="1.0" encoding="utf-8"?>
<!-- Generator: Adobe Illustrator 23.0.3, SVG Export Plug-In . SVG Version: 6.00 Build 0)  -->
<svg version="1.0" id="Capa_1" xmlns="http://www.w3.org/2000/svg" xmlns:xlink="http://www.w3.org/1999/xlink" x="0px" y="0px"
	 viewBox="0 0 512 512" style="enable-background:new 0 0 512 512;" xml:space="preserve">
<path style="fill:#FFDC64;" d="M74.2,256.9C18,309.9,3.3,414.7,0,446.5c-0.5,5,3.5,9.3,8.6,9.1c31.9-1.4,137.4-9.9,193.6-62.9
	c43.5-41,33.8-121.1,14.3-141.7C197,230.3,117.7,215.9,74.2,256.9z"/>
<path style="fill:#FFDC64;" d="M511.7,320.7c-7.3-26-31.6-100.2-79.5-132.4c-38.2-25.7-96.6-4.8-108.8,13.4
	c-12.2,18.1-9.5,80.1,28.7,105.8c47.9,32.2,125.8,26.7,152.6,23.7C509.7,330.6,513.1,325.6,511.7,320.7z"/>
<path style="fill:#FFDC64;" d="M206.6,60.1c-39.9,16-69.6,65.1-80.4,85c-2.4,4.5-0.2,10.2,4.7,11.8c21.6,7.1,76.9,22.1,116.9,6.1
	c33-13.2,45.1-59.6,38.8-75.2C280.3,72.2,239.6,46.9,206.6,60.1z"/>
<path style="fill:#FFF082;" d="M74.2,256.9C18,309.9,3.3,414.7,0,446.5c-0.3,2.7,0.8,5.1,2.5,6.7l214.7-201.3
	c-0.3-0.3-0.5-0.7-0.7-1C197,230.3,117.7,215.9,74.2,256.9z M323.4,201.7c-12.2,18.1-9.5,80.1,28.7,105.8
	c47.9,32.2,125.8,26.7,152.6,23.7c2.5-0.3,4.6-1.7,5.9-3.6L323.4,201.7z M206.6,60.1c-39.9,16-69.6,65.1-80.4,85.1
	c-1.2,2.2-1.2,4.7-0.4,6.8l160.7-64.3C280.1,72,239.5,47,206.6,60.1z"/>
<path style="fill:#D77841;" d="M238,219.3L131.8,319.4l-42.7-1.3c-0.1,0-0.2,0-0.3,0c-4.5,0-8.2,3.6-8.3,8.1
	c-0.1,4.6,3.5,8.4,8.1,8.6l26.1,0.8l-19.3,18.2c-3.3,3.2-3.5,8.4-0.3,11.8c1.6,1.7,3.8,2.6,6.1,2.6c2,0,4.1-0.7,5.7-2.3l34-32.1l0,0
	l26-24.5l-1.4,45.9c-0.1,4.6,3.5,8.4,8.1,8.6c0.1,0,0.2,0,0.3,0c4.5,0,8.2-3.6,8.3-8.1l1.8-62.5l65.4-61.6c3.3-3.2,3.5-8.4,0.3-11.8
	C246.6,216.3,241.3,216.2,238,219.3z M68.2,379.4l-6.8,6.4c-3.3,3.2-3.5,8.4-0.3,11.8c1.6,1.7,3.8,2.6,6.1,2.6c2,0,4.1-0.7,5.7-2.3
	l6.8-6.4c3.3-3.2,3.5-8.4,0.3-11.8C76.8,376.4,71.5,376.2,68.2,379.4z M429.3,262.9l-29.7-20c0,0-0.1,0-0.1-0.1l-19-12.8l30.1-5.9
	c4.5-0.9,7.5-5.3,6.6-9.8s-5.2-7.5-9.8-6.6l-46.5,9.1l-56.7-38.1c-3.8-2.6-9-1.5-11.5,2.3c-2.6,3.8-1.6,9,2.3,11.5l92.5,62.2
	l6.2,31.5c0.8,4,4.3,6.7,8.2,6.7c0.5,0,1.1,0,1.6-0.2c4.5-0.9,7.5-5.3,6.6-9.8l-3-15.2l13.1,8.8c1.4,1,3,1.4,4.6,1.4
	c2.7,0,5.3-1.3,6.9-3.7C434.2,270.7,433.2,265.5,429.3,262.9z M459.1,283l-6-4c-3.8-2.6-9-1.5-11.5,2.3c-2.6,3.8-1.5,9,2.3,11.5l6,4
	c1.4,1,3,1.4,4.6,1.4c2.7,0,5.3-1.3,6.9-3.7C464,290.7,463,285.5,459.1,283z M314.8,76.4c-1.7-4.3-6.6-6.4-10.8-4.6l-79.5,31.8
	l-21.6-9.4c-4.2-1.9-9.1,0.1-11,4.3c-1.8,4.2,0.1,9.1,4.3,11l6.6,2.9L181,121c-4.3,1.7-6.3,6.5-4.6,10.8c1.3,3.3,4.4,5.2,7.7,5.2
	c1,0,2.1-0.2,3.1-0.6l53-21.2l-7.6,17.8c-1.8,4.2,0.1,9.1,4.4,10.9c1.1,0.5,2.2,0.7,3.3,0.7c3.2,0,6.3-1.9,7.6-5l14.2-33.1
	l48.2-19.3C314.5,85.5,316.5,80.7,314.8,76.4z"/>
</svg>
