<?xml version="1.0" encoding="utf-8"?>
<!-- Generator: Adobe Illustrator 23.0.3, SVG Export Plug-In . SVG Version: 6.00 Build 0)  -->
<svg version="1.0" id="Layer_1" xmlns="http://www.w3.org/2000/svg" xmlns:xlink="http://www.w3.org/1999/xlink" x="0px" y="0px"
	 viewBox="0 0 481 454" style="enable-background:new 0 0 481 454;" xml:space="preserve">
<path style="fill:#EC7424;" d="M30.2,382.2C30.2,352.5,30,322.7,30,293c0-2.6-1.1-5.4,1.1-7.8c17.7-4.6,35.7-8.1,53.5-12
	c72.6-15.7,145.3-31.3,217.9-47c37.1-8,74.2-16,111.3-23.9c3-0.6,6-2,9,0.1c2.3,3.3,0.6,7.3,2.1,10.8c1.5,23.7,2.3,47.4,1.5,71.1
	c-0.4,10.9-4.5,15.2-15.9,17.6c-41.6,9-83.3,17.9-124.9,26.9c-69.4,15-138.8,29.9-208.2,45c-13.7,3-27.4,5.8-41.1,8.8
	C34.3,383,32.2,384,30.2,382.2z"/>
<path style="fill:#F59226;" d="M422.4,202.5c-15.1,3.1-30.3,6.2-45.4,9.4c-38.4,8.2-76.7,16.4-115.1,24.6
	c-27.4,5.9-54.8,12-82.1,17.9c-48.5,10.5-97.1,20.9-145.7,31.4c-1.2,0.3-2.2,0.6-3-0.7c7-10.9,14-21.9,21.1-32.8
	c17.2-26.6,34.4-53.1,51.7-79.7c3.2,0.2,2.6,2.8,2.5,4.5c-1.1,22.4,15.3,36.6,32.8,42.2c12,3.8,24.2,5.8,36.7,5.9
	c19.8,0.1,39.6-0.3,59.2-4.5c5.6-1.2,11-2.9,16-5.4c11.6-5.9,18.9-14.8,18.1-28.6c1.1-10.8-3.1-19.1-11.6-25.5
	c-4.2-6.3-7.8-12.9-12.6-18.8c-5-6.2-10.9-11-17.9-14.6c-20.7-10.9-34.3-27.5-39.6-50.4c-0.7-3.1-1.6-4.9-4.8-2.2
	c-13.6,11.6-27.3,23.1-34.8,40c-1.8,2.6-1.5,6.3-4.2,8.5c-2.8,0.8-5.5,4.6-8.6,0.4c14.5-22.2,29-44.5,43.4-66.7
	c1.1-1.6,2.2-3.2,3.3-4.7c2-1.5,4-0.9,6.1-0.4c33.5,9.2,65.8,21.6,97.3,35.9c20.1,9.1,39.7,18.9,58.1,31
	c30.8,20.1,57.2,44.7,77.2,75.8C422,197.3,424.4,199.4,422.4,202.5z"/>
<path style="fill:#FBBA15;" d="M30.2,382.2C87.6,369.8,145,357.4,202.4,345c47.7-10.3,95.4-20.7,143.2-31
	c21.2-4.6,42.4-9.1,63.7-13.6c12.2-2.6,15.3-6.5,15.6-19.2c0.6-22.8-0.7-45.5-1.3-68.2c-1.8-8-0.1-14.6,6.7-20
	c4.8-3.8,9.6-7.8,13.8-12.3c1-1.1,2.3-2.1,4.1-1.7c0.1,51.6,0.1,103.1,0.2,154.7c0,3.7-1.5,4.9-4.9,5.7c-28.2,6-56.4,12.2-84.5,18.3
	c-32.9,7.1-65.8,14.2-98.7,21.3c-36.3,7.8-72.7,15.4-109,23.3c-32.5,7-65,14.3-97.5,21.4c-6.2,1.4-12.5,2.6-18.7,4
	c-3.4,0.7-5-0.2-5-4.1C30.2,409.9,30.2,396,30.2,382.2z"/>
<path style="fill:#FDF4E4;" d="M270.6,186.2c1.1,15.5-6.8,25.3-20.1,31.4c-10,4.6-20.7,6.7-31.5,7.6c-22.1,1.9-44.1,3.6-66.2-0.4
	c-7.5-1.4-14.7-3.4-21.6-6.7c-17-8.1-26.2-21.3-26.7-40.3c0-1.7,0.5-3.5-0.6-5.1c1-3,1.7-6-0.2-8.9c-0.9-1.4-0.2-2.6,0.3-3.8
	c5.8-13.3,15-23.7,27-31.7c1.7-1.1,2.7-2.7,4.1-4c3.3,2.6,5.5-1.6,8.4-1.4c0.5,0.3,1.1,0.6,1.3,1.2c3.4,14.6,15.6,18.5,27.6,21.9
	c8.5,2.4,17.4,4.1,24.6,2.4c-13.2,1.1-27.5-1.1-40.4-9.6c-10.6-7.1-12.4-11.6-9.7-24.1c5.3-13.5,15.6-23,25.8-32.5
	c4.5-4.2,9-8.4,15-11.8c2.1,21.2,13.4,36.7,28.9,49.6c2.4,2,5,3.7,7.8,4.9c16.1,7.2,26.1,20.2,33.6,35.6c-5.3,3.3-11.4,1.8-17,2.5
	c-12.2,1.4-24.3,3.2-36.5,4.4c-12.8,1.2-25.5,0.1-38.1-1.4c-0.8-0.2,0,1.2-0.1,0.5c0-0.1,0.1-0.2,0.4-0.2
	c12.5,1.5,25.1,2.3,37.7,1.8c13.2-0.5,26.4-0.9,39.6-2c9.7-0.8,18.7,0.3,24.2,10.1C269.7,179.3,269.4,182.9,270.6,186.2z"/>
<path style="fill:#FECC08;" d="M448.1,179.1c-5.7,5.2-11.1,10.8-17.2,15.4c-6.5,4.9-8.1,11.1-7.4,18.6c-2-3.4-0.5-7.1-1.2-10.6
	c-3.6-10.1-10.7-17.8-17.2-26c-30.8-38.6-71.1-64.1-115.4-84.4c-27.2-12.4-54.9-23.7-83.4-32.6c-8.1-2.5-16.2-5.4-24.7-6.6
	c1.2-6.7,2.8-13.3,3.6-20c0.6-4.7,2.8-5,6.6-4.1c30.9,7.3,60.8,17.4,89.9,30c40.1,17.4,78.1,38.3,112.8,65
	c19.6,15.1,38,31.6,51.9,52.3C447.2,177,447.6,178.1,448.1,179.1z"/>
<path style="fill:#FCDEC3;" d="M270.6,186.2c-0.4-0.8-1-1.6-1.3-2.5c-4.6-14.8-12.5-17.6-27.9-15.6c-1.1,0.2-2.3,0.6-3.4,0.5
	c-14.9-0.6-29.8,2.4-44.7,1.1c-9.7-0.8-19.6-0.7-28.9-4.1c6-0.8,11.9,0.7,17.8,0.8c17.3,0.2,34.3-2.4,51.3-4.5
	c8-1,16.1-2.2,24.3-1.5C267.7,166.3,271.3,175.2,270.6,186.2z"/>
<path style="fill:#FBDFC6;" d="M146.7,114.6c0.8,5.8-1.4,12.1,3.6,17.1c6.7,6.8,15,10.9,24.1,13.4c4.6,1.2,9.5,2,14.3,2.4
	c4.6,0.4,9.3,0.1,13.9,0.5c-18.4,3.8-35.5,0.4-51.3-9.6c-5.4-3.5-7.1-9.4-8-15.5C145.1,120.4,144.5,116.9,146.7,114.6z"/>
</svg>
