<?xml version="1.0" encoding="utf-8"?>
<!-- Generator: Adobe Illustrator 23.0.3, SVG Export Plug-In . SVG Version: 6.00 Build 0)  -->
<svg version="1.0" id="Layer_1" xmlns="http://www.w3.org/2000/svg" xmlns:xlink="http://www.w3.org/1999/xlink" x="0px" y="0px"
	 viewBox="0 0 492 528" style="enable-background:new 0 0 492 528;" xml:space="preserve">
<path style="fill:#EC7424;" d="M226.5,163.2c-4.3,6.2-10.6,10.7-15.1,16.8c-7,9.5-11.5,19.4-9.6,31.5c0.1,0.7-0.2,1.6-0.6,2.2
	c-4.6,7.7-4.2,16.1-3.9,24.6c0.2,4.6-1.7,9.3-1.9,14c-0.3,9.3-1.1,18.7,0.2,27.8c1,6.6-1.2,12.9-0.2,19.1c1.7,9.8-0.3,19.8,1.4,29.2
	c1.2,6.7-0.8,13.4,1,19.6c2.8,10-0.8,20.4,3.8,30.4c1.9,4.2-1.6,11,0.8,16.2c3.1,6.7-0.3,14,2.3,20.6c3.2,8.2,1.1,17.2,4.9,25.6
	c1.7,3.9,0.6,9.6,2.2,14.2c3.2,8.9,2.4,18.9,7.2,27.4c-15.5,4.7-30.5,3.4-44.7-4.2c-3.2-1.7-5.2,0.7-7.8,0.2
	c-2.5-0.9-4.4-2.6-6.3-4.4c-11.1-11.2-20.2-23.8-28.6-37.1c-8-12.7-13.9-26.4-18.9-40.1c-2.9-8-5.7-16.6-7.3-25.5
	c-1.8-10.7-2.4-21.6-5.3-32.1c-0.5-1.8-0.3-3.5-0.2-5.3c0.4-6.3,1.2-12.7-1.1-18.9c-0.6-1.8-0.3-3.5,0.3-5.3
	c0.7-2.1,1.4-4.3,1.1-6.4c-1.5-10.6,2.6-20.8,2.7-31.2c0.1-11.5,4.8-21.5,7.4-32.2c0.7-2.9,1.5-5.8,1.3-8.8c-0.1-1.6,0-3.3,0.9-4.6
	c7.6-11.2,12.7-23.9,21-34.7c10.1-13.1,22.8-22.6,37.8-29.4c2.3-1.1,6.5-1.5,5.8-4.8c-0.5-2.8-4.4-3.2-7.1-3.3
	c-4.9-0.3-8.9-3.9-13.7-3.8c-10.4,0.2-21-1-31.3,2c-3.4,1-7.9,3.3-9.7-1.8c-1.7-5,2.8-6.5,6.3-8.5c5.2-3.1,10.5-3.7,16.5-3.4
	c10.3,0.5,20.5-0.4,30.6,2.9c8.9,3,17.5,6.5,25.2,11.8c5,3.4,9.6,0.5,14.4,0.9c3.8,3,8.2,4.7,13,5.4
	C223.6,160,226.1,160.2,226.5,163.2z M265.8,482.7c7.3-10.2,14.1-21,17-33.2c2.8-12,10.3-22.5,10.9-34.8c0.4-9.2,5.8-17.3,5.4-26.2
	c-0.4-9.3,3.7-17.7,3.6-26.5c-0.2-8.9,2.1-17.4,2.5-26c0.4-8.2,1.4-16.5,1.1-24.6c-0.3-8.9,1.2-17.7,0.2-26.4
	c-1-8.7,0.8-17.6-1.4-25.8c-2.4-8.8,1.7-18.1-3.6-26.9c-1.7-2.7,1-8.9-0.8-13.1c-3.5-8.1-4.1-16.9-7.7-25.2c-3-7.1-7-13.4-10.6-19.9
	c-1.8-3.2-5.1-5.9-9.1-7.1c0.3-3.5,3.4-3.3,5.6-4.1c3.1-1.2,6.4-2,9.7-2.4c8.8-2.2,18-1.6,26.8-3.7c12.3,1.5,23,6.9,33.5,13.2
	c12.9,7.9,22.3,19.3,29.7,31.9c4.4,7.5,8.3,15.6,11.2,24.2c3.1,9.5,5.4,19.2,7,28.7c1.6,9.2,3.4,18.7,2.5,28.3
	c-0.5,5.3-0.6,10.8,0.4,16.1c1.1,6-3.6,10.8-3.6,16.7c0,4.5-1.9,8.9-1.1,13.6c0.3,1.8-0.6,3.5-1.4,5.1c-4.3,8.9-7,18.2-8,27.9
	c-0.2,2-0.7,3.9-1.7,5.7c-6.1,11.2-11.2,22.8-13.9,35.4c-0.3,1.4-1,2.6-1.8,3.8c-12.1,17-21.5,35.8-34.3,52.5
	c-6.6,8.7-13.8,16.9-20.1,25.8c-9.6-0.7-18.7,3.3-28.2,2.9C278.4,488.1,271.6,486.9,265.8,482.7z"/>
<path style="fill:#F59226;" d="M265.8,482.7c-5.8,1.9-11.1,5.3-17.3,5.9c-10.4,1-20.1-0.7-29.2-5.9c-3.4-2.6-4.5-6.5-5.4-10.4
	c-4.3-20.4-9.1-40.8-11.1-61.5c-1-10-2.6-20-3.3-30.1c-0.7-9.6-1.1-19.4-2.9-28.9c-0.1-0.8-0.1,0.2-0.1-0.6
	c0.7-11.3-2.6-22.6-1.2-33.8c0.8-6.6-2.5-12.6-1.4-18.9c1.8-11.2,0.3-22.6,0.3-33.8c0-13.6,0.7-27.1,2.4-40.3
	c1.5-11.3,2.4-22.9,6.7-33.7c4.7-11.6,13.3-20.1,22.9-27.8c3.9,0,7.8-0.3,11.7-0.8c5.3-0.6,10.6,0.3,14.8,4.1
	c7.4,11.2,13.3,23.2,16.9,36.1c2.9,10.6,6.1,21.2,6.5,32.5c0.3,8.7,1.3,17.4,0.8,26.1c-0.1,1.8,0.1,4,2.3,5.2
	c2.4-1.1,1.8-3.3,2.1-5.1c1.3-8.2,0.8-16.5,0-24.7c-1.3-13.2-3.5-26.2-8-38.8c-3.4-9.6-7.2-18.8-12.6-27.4c-1-1.5-1.8-3.2-0.2-4.9
	c4.3-2.1,8.5-0.7,12.8,0.1c10.9,4.5,15.4,14.3,19.9,24.1c4,8.6,6.3,17.9,8.7,27c0.3,1.2,0.8,2.3,0.8,3.5c0.1,10.5,4,20.5,3.3,31.2
	c-0.4,5.2,1.9,10.6,1.5,15.9c-1,10.8,0.6,21.6,0.5,32.5c-0.1,10.2-0.5,20.6-1.1,30.7c-1,15.3-0.7,30.9-5.2,45.9
	c-0.6,2-0.7,3.9-0.5,5.9c0.2,3,0.4,6-0.5,8.9c-3.8,12.1-3.8,25.2-8.5,37c-6,15-8.4,31.4-17.7,45.1
	C271.7,476.4,270.3,480.8,265.8,482.7z M208.6,154.8c-5.9,2.3-10.7,3.2-17.3-1.2c-7.9-5.3-17.3-8.8-27-11.5
	c-11.3-3.1-22.6-0.4-33.9-1.9c-3.9-0.5-8.5,3.6-12.7,6c-1.8,1-1.7,3.1-1.1,4.9c0.7,2,2.8,2,4,1.3c9.1-4.8,19.4-1.8,28.9-4.1
	c2.7-0.7,6.2-0.3,8.7,0.9c6.1,3,13,2.9,19.1,5.8c4.6,2.2,4.8,3.7,0.5,6.3c-6.2,3.9-13.2,6.3-19.5,10.2
	c-15.2,9.7-25.9,23.2-34.4,38.7c-2.4,4.4-4.7,8.7-7.3,13c-1.9,3.2-2.8,6.1-3.3,10.1c-1,8.1-3,16.3-6.7,23.9
	c-1.3,2.6-2.2,4.6-1.4,7.8c1.4,5.3,0,11-1.5,15.8c-2.2,6.8-1.8,13.4-1.7,20.2c0,3.6,0.4,7.2-1.6,10.5c-0.5,0.8-0.8,2.1-0.4,2.8
	c3.6,7.2,1.7,14.6,1.3,22.1c-0.2,3.8,2,7.3,2.2,11.4c0.4,7.5,3.2,15,3.4,22.3c0.3,9.2,5.2,16.8,6.8,25.6c1.1,6.2,4.5,13.4,8.1,19.6
	c2.2,3.7,4.2,7.5,5.4,11.9c1.2,4.5,5.2,7.6,7.5,11.7c8.1,15.2,19.9,27.7,31.8,39.9c-22.9,4.6-43.7-0.6-62.9-13.5
	c-29.8-20.1-46.7-49-57.9-82.3C33,345.1,26.2,306.4,27.8,266.4c0.9-23.3,4.5-46.4,14-67.4c20.1-44,55.1-68,103.5-71.5
	c1.4-0.1,2.8-0.1,4.2-0.2c7.7-2.4,15,0.3,22.1,2.3c14.5,4.1,27.5,11.1,37.1,23.3C208.9,153.5,208.9,154.2,208.6,154.8z M313.6,485.6
	c-1.5-1.9-0.4-3.1,0.9-4.6c17.8-19.3,31.4-41.6,45.3-63.8c5.3-8.5,8.7-17.4,12.3-26.5c3.3-8.2,6.3-16.6,10.6-24.4
	c2.7-4.8,1.6-11.4,3.7-17c2.1-5.5,2.5-11.6,6.2-16.5c1-1.3,0.8-2.8,0.7-4.5c-0.6-7.9,1-15.6,3.7-23c0.3-0.9,1.5-1.9,1.3-2.6
	c-2.9-10.2,1.3-20.8-1.6-31.1c-0.8-2.8-0.7-5.9-0.6-8.9c0.2-7.3-3.7-14-4-21c-0.4-8-4.7-14.6-6.2-22.3c-1.1-5.7-5.1-11.6-8.3-16.7
	c-5.9-9.4-12.7-18.7-21.1-25.8c-7.3-6.2-16.4-10.7-25.4-14.7c-4.9-2.2-10.5-1.7-15-4.9c0.7-2.2,2.4-3,4.3-3.7
	c12-3.9,24.4-4.2,36.8-5.1c1.6-0.1,3,0.8,4.5,1.5c31.2-2.1,53.2,14.2,72.1,36.3c14.2,16.6,21.1,36.4,23.1,57.8
	c5.2,55.1-3.9,107.8-27.4,157.9c-11,23.5-26.5,43.9-47.1,60.1C362.2,477.9,338.9,484.8,313.6,485.6z"/>
<path style="fill:#5E8932;" d="M288.4,162c-5.3,1.1-10.6,2.1-15.3,4.9c-4.4-0.4-8.7-2.1-13.2-1.3c-2.5,2-5.2,3-8.3,1.2
	c-5.5-3-11.3-4.2-17.5-2.4c-2.8,0.8-5.4,0.8-7.7-1.2c-2.6-2-5.7-2.5-8.8-2.6c-4.3-0.2-7.3-2-9-5.8c0-0.4-0.1-0.7-0.4-1
	c-1.9-6.2,2.7-10.1,6.3-13c5.2-4.2,7-9.2,7.7-15.3c0.4-3.7,0.5-7.6,2.9-10.8c3.9-16.4,6.7-33.1,12-49.1c3.3-10.2,7-20.3,13-29.3
	c8-12.1,22.3-15.4,35-8.4c3.3,1.8,4.4,3,1.4,6.5c-17.6,20.5-22.9,44.8-21.3,71.1c0.3,4.9,1.4,9.8,2.1,14.7c1.2,1.3,2.2,2.9,2.4,4.7
	c1,8.5,5.2,15,11.8,20.4c3.4,2.8,5.7,6.6,7.1,10.7C289.4,158,290.5,160.1,288.4,162z"/>
<path style="fill:#B24326;" d="M288.4,162c-0.2-7-3.7-12.8-9-16.7c-8.7-6.4-10.4-15.6-12-25.2c18.8-4.9,37.6-5.6,56.2,0.8
	c15.9,5.5,28.4,15.5,38.1,29.1c-13.1,0.9-26.2,1.2-39,4.7c-2.3,0.6-4.4,1.6-6.5,2.6c-5.7,4.5-12.7,1.4-19,3.3
	C294.5,161.5,291.3,161.6,288.4,162z M225.2,114.7c-0.9,6.6-1.7,13.2-2.6,19.8c-0.3,2.4-2.4,3.4-4.1,4.8c-4.8,3.9-9.1,8.1-10.2,14.5
	c-15.9-17-36-24.8-58.8-26.5C172.6,110.2,197.5,103.9,225.2,114.7z"/>
<path style="fill:#EC7424;" d="M251.6,166.8c2.7-0.6,5.4-1.7,8.3-1.2c5.4,6.5,6.7,15.3,12.1,21.8c2,2.5,0.2,5.5,1.6,8
	c4.3,7.2,4.5,15.6,6.7,23.4c2,7.5,0.6,15.4,2.8,22.4c2.4,8-1.7,14.9-0.5,22.3c0.4,2.6-0.5,5.3-3.2,5.6c-2.9,0.3-3.2-2.5-4.1-4.8
	c-1.3-3.9,0.1-7.4,0.2-11.1c0.1-10.5-0.4-21.2-2.8-31.3c-3.3-14.2-6.3-28.6-14.3-41.5C255.9,176.2,252.8,171.9,251.6,166.8z"/>
</svg>
