<?xml version="1.0" encoding="utf-8"?>
<!-- Generator: Adobe Illustrator 23.0.3, SVG Export Plug-In . SVG Version: 6.00 Build 0)  -->
<svg version="1.0" id="Layer_1" xmlns="http://www.w3.org/2000/svg" xmlns:xlink="http://www.w3.org/1999/xlink" x="0px" y="0px"
	 viewBox="0 0 612.2 613.5" style="enable-background:new 0 0 612.2 613.5;" xml:space="preserve">
<path style="fill:#CB798A;" d="M387.2,49c-3.1,6-6.2,12.1-9.3,18.1c0.2,2.9-1.2,4.7-3.8,5.8c-5.2,5.2-10.3,10.3-15.5,15.5
	c-0.9,2.9-2.8,4.2-5.8,3.8c-6,3.1-12.1,6.2-18.1,9.4c-5.4,4.1-11.1,6.2-17.8,3.8c-7.2,1.1-14.4,1.1-21.6,0
	c-3.9,2.5-7.4,1.1-10.7-1.3c-6-2.4-12-4.7-17.9-7.1c-5.6-0.9-10.1-3.5-13.1-8.5c-5.2-5.2-10.3-10.3-15.5-15.5
	c-2.6-1.1-4-2.9-3.7-5.8c-3.1-6-6.3-12-9.4-18.1c-4-4.3-4.3-9.9-4.8-15.3c-0.1-1.2,0.2-2.9,2.3-2.6c18.2,8.8,35.6,19.3,55.7,23.9
	c34.5,7.9,67,2.6,97.5-15.2c5.1-3,10.3-6,15.4-9C393.8,37.8,391,43.5,387.2,49z"/>
<g>
	<path style="fill:#BE2B57;" d="M282.8,536.7c-4.1,0-5.5,1.2-5.5,5.4c0.2,14.1,0.1,28.2,0.1,42.3c6.4,0,12.7,0,19.1,0
		c0-11.3,0-22.7,0-34C296.5,536.5,296.5,536.7,282.8,536.7z"/>
	<path style="fill:#BE2B57;" d="M206.3,536.7c-4.1,0-5.5,1.2-5.5,5.4c0.2,14.1,0.1,28.2,0.1,42.3c6.3,0,12.7,0,19,0
		c0-11.3,0-22.7,0-34C220.1,536.5,220.1,536.7,206.3,536.7z"/>
	<path style="fill:#BE2B57;" d="M244.6,536.7c-4.1,0-5.5,1.2-5.5,5.4c0.2,14.1,0.1,28.2,0.1,42.3c6.3,0,12.7,0,19,0
		c0-11.3,0-22.7,0-34C258.3,536.5,258.3,536.7,244.6,536.7z"/>
	<path style="fill:#BE2B57;" d="M321.1,536.7c-4.1,0-5.5,1.2-5.5,5.4c0.2,14.1,0.1,28.2,0.1,42.3c6.3,0,12.7,0,19,0
		c0-11.3,0-22.7,0-34C334.8,536.5,334.8,536.7,321.1,536.7z"/>
	<path style="fill:#BE2B57;" d="M359.3,536.7c-4.1,0-5.6,1.1-5.5,5.4c0.2,14.1,0.1,28.2,0.1,42.3c6.4,0,12.7,0,19.1,0
		c0-11.3,0-22.7,0-34C373,536.5,373,536.7,359.3,536.7z"/>
	<path style="fill:#BE2B57;" d="M397.5,536.7c-4.1,0-5.5,1.2-5.5,5.4c0.2,14.1,0.1,28.2,0.1,42.3c6.3,0,12.7,0,19,0
		c0-11.3,0-22.7,0-34C411.3,536.5,411.3,536.7,397.5,536.7z"/>
	<path style="fill:#BE2B57;" d="M539.2,536.2c5.6-2,11.5-3.2,16.9-5.7c7-3.3,14.9-3.9,21.5-8.1c-0.1-6-0.9-12-2.5-17.8
		c-11.3,2.4-21.9,6.8-32.8,10.4c-16.1,5.3-14.1,2.2-8.4,18.7C535,536.6,536.4,537.3,539.2,536.2z"/>
	<path style="fill:#BE2B57;" d="M72.4,510.2c-1.5,4.9-3.7,9.9-3.2,15.3c0,0.3,1,0.6,1.5,0.7c11.8,2.8,23.3,7.2,35.6,8.2
		c1.7-5.9,3.3-11.7,3.6-17.9c-10.1-2.5-20.3-5-30.4-7.6C76.9,508.2,73.4,506.8,72.4,510.2z"/>
	<path style="fill:#BE2B57;" d="M76.8,546.3c-4.3-1.4-8.6-3-13-4.4c-1.8-0.6-3.3,0.3-3.7,2c-2.6,9.5-7.3,18.4-8.5,28.4
		c5.1,1.3,10.3,2.6,15.4,4c1.7-0.1,3-0.9,3.6-2.6c2.6-7.9,5.2-15.8,7.9-23.7C79,548.1,78.9,546.9,76.8,546.3z"/>
	<path style="fill:#BE2B57;" d="M549.8,548.8c-4,0.8-8.1,1.6-12.1,2.4c-1.4,0.3-2.8,0.7-2.4,2.6c1.6,8,1.4,16.4,5.4,23.9
		c5.7-1.1,11.3-2.5,16.6-4.8c0.2-7-2.3-13.5-3.1-20.4C553.9,550.2,552.7,548.3,549.8,548.8z"/>
</g>
<path style="fill:#BE2B57;" d="M413,446.9c-7.3-9.1-13.5-9.6-21.8-1.4c-10.8,10.6-21.4,21.4-32.1,32.1c-5.1,5.1-5.2,5.1-10.4-0.1
	c-10.7-10.7-21.3-21.4-32.1-32.1c-7.7-7.7-13.2-7.7-20.9,0c-10.9,10.8-21.7,21.7-32.5,32.5c-4.6,4.6-5,4.6-9.5,0.1
	c-11.3-11.2-22.4-22.6-33.8-33.7c-6.8-6.6-13.5-6-19.4,1.2c-7.4,8.9-14.7,17.8-22,26.7c-5.4,6.6-11.9,12.4-15.5,20.3
	c0,9.5,0,19.1,0,28.6c4.4-1.8,6.4-6.2,9.3-9.5c12.2-14.6,24.2-29.3,36.3-44c1.8-2.2,3.1-2.3,5.2-0.2c9.5,9.7,19.1,19.2,28.6,28.8
	c0.6,0.6,1,1.2,0.2,2.2c-13,0-26.1,0-39.2,0c-11.9,0-11.6,0-12,12c-0.2,5.7,1.5,7.3,7.3,7.3c77.8-0.2,155.6-0.1,233.4-0.1
	c6.1,0,12.2-0.7,17.4,3.6c0-9.5,0-19.1,0-28.6c-1.4-3.1-3.5-5.8-5.6-8.4C433.4,471.8,423,459.5,413,446.9z"/>
<path style="fill:#BE2B57;" d="M445.4,352.1c-11.1-12.9-21.9-26.2-32.9-39.2c-7.7-9-13.1-9.3-21.7-0.8c-10.7,10.6-21.3,21.4-32,32
	c-4.7,4.7-5,4.7-9.5,0.2c-9-9-18.1-17.9-26.9-27c-1.7-1.7-3.4-3.3-5.1-5c-8.6-8.5-13.7-8.6-22.2-0.1c-10.7,10.6-21.4,21.4-32.1,32
	c-4.5,4.5-4.9,4.5-9.5-0.1c-11.3-11.2-22.4-22.6-33.8-33.7c-6.7-6.5-13.5-6-19.4,1.4c-7.1,8.8-14.6,17.4-21.6,26.2
	c-5.4,6.8-12.1,12.7-15.8,20.8c0,9.9,0,19.9,0,29.8c3.2,0.5,4.3-2.2,5.9-4.1c13-15.3,25.6-31,38.5-46.4c3.2-3.8,5-3.8,8.4-0.4
	c10.4,10.7,21,21.2,31.6,31.7c1.7,1.7,3.1,4.4,6.3,3.8c5.3,2.6,9.5,0.8,13.4-3.1c11.6-11.8,23.5-23.3,35-35.2
	c3.2-3.3,5.1-3.6,8.5-0.1c11.2,11.6,22.7,22.9,34.1,34.3c7.5,7.4,11.5,7.4,19.1-0.1c11.6-11.5,23.1-23.1,34.7-34.6
	c1.5-1.5,2.8-3.7,5.1-0.8c8.2,10.2,16.4,20.3,24.9,30.3c7.1,8.3,13.4,17.2,21.2,24.8c0-9.9,0-19.9,0-29.8
	C448.3,356.4,447.1,354.1,445.4,352.1z"/>
<path style="fill:#BE2B57;" d="M392.6,245.4c-10.5,10.3-21,20.6-31.5,30.9c-6.7,8.3-6.7,8.3-13.9,1c-10.6-10.6-21.1-21.1-31.7-31.7
	c-7.3-7.3-11.5-7.3-18.6-0.2c-11.4,11.4-23,22.7-34.1,34.3c-3.5,3.6-5.5,3.6-8.9,0c-11.6-12-23.5-23.8-35.4-35.5
	c-5-5-11.2-5.2-15.2-0.6c-4.5,5.3-8.7,10.8-13.2,16.1c-9,10.7-18.2,21.4-27.2,32.1c0,9.9,0,19.8,0,29.8c2.8,0.6,3.7-1.8,5.1-3.4
	c13.2-15.7,26.5-31.3,39.3-47.3c3.3-4.1,5.2-3.5,8.3-0.3c10.6,10.8,21.3,21.5,32.1,32.1c8.1,8,13.4,8,21.4,0.1
	c10.9-10.8,21.8-21.6,32.5-32.6c3.3-3.4,5.6-4,9.2-0.2c9.6,10.1,19.7,19.7,29.5,29.7c0.7,0.7,1.4,1.4,2.1,2.1c9.5,9.3,14,9.4,23.4,0
	c10.4-10.4,20.9-20.7,31.1-31.2c2.9-3,4.7-3.7,7.9,0.1c13.3,15.8,26.2,31.9,39.6,47.5c1.4,1.6,2.3,3.9,5.1,3.4c0-9.9,0-19.9,0-29.8
	c-12.6-15-25.4-29.8-37.7-44.9C405.1,238.7,400,238.1,392.6,245.4z"/>
<path style="fill:#BE2B57;" d="M411.6,380.6c-6.6-7.9-11.7-8.7-19.1-1.3c-11.7,11.7-23.5,23.3-35,35.1c-2.8,2.8-4.5,2.7-7.2,0
	c-11.4-11.7-23-23.2-34.6-34.7c-7.6-7.5-11.7-7.6-19.1-0.2c-11.6,11.5-23.1,23.1-34.7,34.6c-1.7,1.7-3.2,4.4-6.2,1.3
	c-8.3-8.6-16.7-17.1-25-25.6c-2.7-5.5-7.6-9.1-11.9-13.1c-6.1-5.7-12.4-4.9-18,1.5c-7.9,9.1-15.7,18.4-23.3,27.8
	c-5,6.1-11,11.4-14.7,18.6c0,9.9,0,19.9-0.1,29.8c2.1-2,4.5-3.9,6.4-6.2c12.8-15.4,25.5-30.8,38.1-46.3c2.6-3.2,4.4-3.3,7.4-0.2
	c11.5,11.9,23.2,23.4,35,35.1c6.3,6.3,10.9,6.3,17.4-0.1c11.4-11.4,22.9-22.6,34.1-34.3c3.6-3.8,5.8-4.4,9.8-0.2
	c10.8,11.4,22.1,22.3,33.2,33.4c7.8,7.8,11.7,7.8,19.5,0.1c11.5-11.5,23.1-23.1,34.6-34.6c1.6-1.6,2.9-3.5,5.1-0.6
	c7.9,9.9,15.6,19.9,24,29.4c7.4,8.5,13.5,18.1,22.1,25.6c0-9.9,0-19.9,0-29.8C436,411.3,424.1,395.7,411.6,380.6z"/>
<path style="fill:#BE2B57;" d="M449.6,230.3c0-2.9-0.6-5.2-2.6-7.6c-9.6-11.5-19.1-23.2-28.5-34.9c-2.6-2.9-5.5-5.7-7.9-8.8
	c-5.4-6.9-11.1-7.4-17.4-1.2c-11.9,11.8-23.8,23.6-35.4,35.5c-2.9,3-4.6,3.1-7.6,0.1c-11.5-11.9-23.3-23.5-35-35.1
	c-6.9-6.9-11.2-6.8-18.2,0.2c-11.4,11.4-23,22.7-34.2,34.3c-3.5,3.6-5.4,3.6-8.9,0c-11.6-12.1-23.5-23.8-35.4-35.6
	c-5.9-5.8-11.3-5-16.6,1.3c-9.6,11.6-18.5,24-29.4,34.2c-13,12.2-9.3,26.6-9.6,42.6c2.8-3.4,4.4-5.4,6-7.4
	c13-15.5,26.1-30.8,38.8-46.6c2.8-3.4,3.9-3.8,7-0.7c11.5,11.8,23.3,23.5,35,35.1c6.4,6.3,11,6.3,17.4-0.1
	c11.7-11.7,23.5-23.3,35-35.1c3.1-3.1,4.8-3.4,8-0.1c11.5,11.9,23.3,23.5,35,35.1c6.6,6.6,11.1,6.5,17.8-0.1
	c9.9-9.8,19.7-19.7,29.6-29.6c8.8-8.8,8.7-8.8,16.4,0.9c13.2,15.7,26.5,31.5,40.6,48.3C449.5,245.8,449.5,238,449.6,230.3z"/>
<path style="fill:#BE2B57;" d="M393.7,30.2c-1-0.4-1.9-0.3-2.7,0.7c0.4,6.4-2.8,12-3.8,18.1c0.5,0.8,0.8,2,1.5,2.4
	c10.3,5.1,20.7,10.1,31,15.1c2.9,1.4,3.4-0.8,4-2.7c2.3-6.9,4.5-13.8,6.8-20.7C418.5,37.9,405.9,34.7,393.7,30.2z"/>
<path style="fill:#BE2B57;" d="M225,49.1c-0.7-2.5-1.8-4.9-1.8-7.4c-0.1-3.5-3.6-6.8-0.7-10.5c-1.2-1.5-2.8-1.4-4.3-0.8
	c-10.9,3.8-21.9,7.6-32.8,11.4c2.6,3.5,2.7,7.7,3.8,11.7c3.3,13.1,3.4,13.3,15.3,7C211.3,56.8,219.1,54.7,225,49.1z"/>
<path style="fill:#BE2B57;" d="M334.7,101.6c-5.9,1.4-11.6,3.8-17.8,3.8c-2.7,12.4-0.7,24.9-1.1,37.3c0,1.5,1.1,2,2.5,1.7
	c7.8-1.3,15.7-2,23.3-4.4c1.8-0.6,3.2-1.3,2.6-3.1C340.6,125.3,339.6,112.9,334.7,101.6z"/>
<path style="fill:#BE2B57;" d="M228.5,112.5c-1.7,1.8,0,3.4,1.4,4.4c5.1,3.7,10.4,7.1,15.6,10.7c3.6,2.5,5.4,1.2,7.1-2.5
	c4.5-9.5,9.3-18.8,14-28.2c-4.4-2.8-8.7-5.6-13.1-8.5C243.6,94.8,236.5,104.1,228.5,112.5z"/>
<path style="fill:#BE2B57;" d="M295.3,105.4c-3.6-0.4-7.1-0.9-10.7-1.3c-5,9.9-9.9,19.9-14.9,29.8c-0.8,1.6-2.6,3.7,0.6,4.8
	c7.1,2.4,14.3,4.4,21.9,5c3.4,0.2,4.5-1.2,4.4-4.5c-0.2-8.3,0-16.7-0.1-25C296.5,111.1,297.2,108.1,295.3,105.4z"/>
<path style="fill:#BE2B57;" d="M362.3,90.3c-1-1-2.1-1.8-3.6-1.8c-1.9,1.3-3.9,2.5-5.8,3.8c2.7,11.3,5.8,22.6,8.1,34
	c1.1,5.4,3.1,5.7,7,3.1c4.8-3.2,9.4-6.6,14.4-9.5c4.5-2.6,4.1-5.3,1-8.4C376.3,104.4,369.3,97.4,362.3,90.3z"/>
<path style="fill:#BE2B57;" d="M409.3,82.7c-10.5-5-20.9-10.3-31.3-15.5c-1.3,1.9-2.5,3.9-3.8,5.8c3.9,7.2,9.8,12.7,15.5,18.4
	c12.2,12.2,12.1,12.2,21.6-2.3C413.5,85.6,412.7,84.3,409.3,82.7z"/>
<path style="fill:#BE2B57;" d="M234.3,67.1c-8.5,4.2-17,8.5-25.5,12.7c-8.1,4-7.7,2.8-2.9,10.3c7,10.9,7.1,10.9,16.2,1.7
	c5.9-5.8,11.8-11.6,16-18.8C236.8,71,235.6,69.1,234.3,67.1z"/>
<path style="fill:#F98D97;" d="M582.1,554.5c-1.1-10.7-3-21.4-4.6-32.1c-4.1,0.1-7.8,1.7-11.5,2.9c-8.1,2.7-16.1,5.8-24.2,8.5
	c-3.7,1.2-6.2,0.8-7.3-3.3c-0.4-1.3-1.1-2.6-1.5-3.9c-1.9-5.4-1.5-6.4,4.1-8.3c10.6-3.6,21.2-7.1,31.7-10.6c2.2-0.8,4.7-1.2,6.3-3.1
	c-1.3-11-2.4-22-3.9-33c-3.8-27.8-7.8-55.7-11.6-83.5c-3-22.4-5.7-44.8-8.7-67.1c-3.4-25.1-7.1-50.2-10.5-75.3
	c-3-22.4-5.7-44.8-8.7-67.1c-3.4-26.1-6.9-52.2-10.6-78.2c-1.1-8-2.5-16-7.1-23.1c-9.3-14.3-24.3-17.4-39.3-21l0,0
	c-14.8-4.4-29.6-8.7-44.4-13.1c-3-0.2-2.7,2.5-3.1,4.1c-1.3,4.4-2.7,8.7-4,13c-1.1,3.9-2.8,5-6.8,3.2c-9.9-4.4-19.7-9.2-29.1-14.6
	c-6.2,4.4-7.1,11.8-10.1,17.9c1.1,3.2,4,4.4,6.7,5.5c6.1,2.4,11.9,5.4,17.8,8.5c9.5,4.9,11.9,2.9,3.1,14.4c-3.9,5.1-4.3,5-9.1,0.6
	c-7.7-7.2-14.3-15.4-21.7-22.9c-6.6,3.8-11.6,9.3-15.8,15.6c-0.1,0.1,0.1,0.4,0.1,0.6c7.5,7.3,15,14.7,22.3,22.2
	c3.9,4,3.7,5.3-0.6,8.4c-3.8,2.8-7.8,5.4-11.8,7.9c-3.6,2.2-5.1,1.5-6-2.7c-2-8.9-4.1-17.8-6.3-26.6c-0.6-2.4-0.7-5.3-3.6-6.4
	c-5.6,1.5-10.3,5-15.7,7.1c-1.5,0.6-2.6,1.8-2.5,3.7c2.3,10,4.5,20.1,7.1,30.1c1,3.8,0.1,6-4,6.9c-4.7,1-9.3,2-14,2.6
	c-4.4,0.6-6.3-0.7-6.1-5.3c0.2-5.1,0.3-10.3,0-15.4c-0.3-5.5,1.2-11-0.7-16.4c-7-0.9-13.9-0.6-20.9-0.1c-1.7,1.7-0.9,3.7-0.9,5.7
	c0.1,8.8,0,17.5,0.1,26.3c0,4.2-1.9,5.8-6,5c-4.9-0.9-9.8-1.8-14.5-3.4c-2.9-1-3.8-2.6-2.4-5.4c1.2-2.5,2.6-4.9,3.7-7.5
	c3.1-7.1,7.9-13.4,9.5-21.1c-4.8-5.3-11.7-6-18-8c-2.6,0.9-3.4,3.2-4.4,5.3c-3.6,7-7.3,14.1-10.6,21.3c-2.1,4.5-4.5,4.9-8.3,2.3
	c-3.3-2.2-6.4-4.6-9.7-6.9c-5.2-3.6-5.3-4.7-1-9.1c6.8-6.9,13.7-13.7,20.6-20.5c0.2-1-0.1-2.1-0.8-2.7c-4.4-3.8-8.5-8-12.4-12.4
	c-0.7-0.7-1.7-1-2.7-0.8c-6.1,5.5-10.6,12.3-16.5,17.9c-8.4,8.1-8.1,8.1-14.6-1.6c-2.9-4.2-1.7-6,2.5-8c6.8-3.1,13.5-6.6,20.2-10.1
	c2.1-1.1,4.5-1.8,5.4-4.4c-1.7-5.9-5.1-11-7.6-16.5c-0.4-0.9-1.4-1.4-2.4-1.4c-8.6,4.1-17,8.4-25.4,12.8c-4.2,2.2-6,1.2-7.2-3.1
	c-1.1-4-2-8.1-3.3-12c-0.6-1.8-0.4-4.6-3.6-4.6c-23.2,6.9-46.6,13.3-69.5,21c-12,4-19.8,13.5-22.3,26c-2.2,10.8-3.4,21.9-4.9,32.9
	c-2.7,19.4-5.3,38.9-8,58.3c-2.9,21.4-5.9,42.8-8.7,64.2c-2.6,19.6-5.1,39.3-7.7,59c-3,22.4-6.1,44.8-9.1,67.2
	c-2.6,19.4-5.3,38.9-7.9,58.3c-1.8,13.4-3.4,26.7-5.1,40.1l0,0c-2.4,3.3-0.7,7.2-1.7,10.7c-0.6,3.6-1.3,7.2-1.9,10.8l0,0
	c-0.8,6.8-1.6,13.5-2.4,20.3c-0.1,1.2-0.1,2.4-0.2,3.5l0,0c-1.9,7.9-2.6,15.9-3.4,24l0,0l0,0c-1.2,7.8-2.4,15.6-3.6,23.5
	c-0.5,3,0.4,4.6,3.8,5.4c6.4,1.5,12.6,3.6,18.8,5.5c3.5-5.9,4.7-12.6,6.9-19c3.8-10.9,4.6-11.3,15.1-6.6c2.5,1.1,3.5,2.5,2.6,5
	c-3,8.2-4.7,16.9-9.2,24.5c8.6,2.6,17.3,5,25.9,7.7c2.4,0.7,3.4-0.2,3.8-2.2c3.2-15.8,6.4-31.6,9.6-47.4c-1.3-1.3-3.1-1.6-4.9-2
	c-8.7-1.9-17.3-4.4-26-6.5c-3.6-0.9-5.2-2.6-4-6.3c0.4-1.3,0.8-2.7,1-4c0.8-4.9,3.4-6.1,8.1-4.8c7.5,2.1,15,3.9,22.5,5.7
	c2.2,0.5,4.5,1.8,6.9,0.1c0.5-2.4,1-4.8,1.5-7.1c2.2-6.6,3.4-13.5,4.4-20.4l0,0l0,0c0.7-3.1,1.8-6.2,1.5-9.5
	c2.3-6.6,3.6-13.5,4.6-20.3l0,0c0.6-3.6,2.7-6.9,2.3-10.8c0.4-1.6,0.8-3.2,1.2-4.8l0,0l0,0c9.2-43.2,18.4-86.4,27.6-129.6
	c2.9-13.4,5.7-26.8,8.6-40.2c0.4,0.1,0.7,0.1,1.1,0.2c0,6,0,11.9,0,17.9c2.8,0.5,3.7-1.8,5.1-3.4c11.6-13.4,22.5-27.4,34.1-40.7
	c6.4-7.4,10.1-7.7,17.1-0.7c10.5,10.4,20.8,20.8,31.3,31.2c7.8,7.8,7.9,7.8,15.5,0.2c10.3-10.3,20.5-20.6,30.8-30.8
	c7.6-7.5,11-7.6,18.4-0.2c10.9,10.8,21.7,21.7,32.5,32.5c5.6,5.6,7.4,5.5,12.5-0.3c0.8-0.9,1.5-1.9,2-3c0-0.1,0.1-0.2,0.1-0.3
	c2.3-0.2,3.5-2.4,5-3.8c8.8-8.6,17.4-17.5,26.2-26.1c6.5-6.4,11-6,16.8,1.1c11.4,13.8,22.8,27.6,34.3,41.3c1.2,1.5,2.2,3.4,4.7,2.9
	c0-6,0-11.9,0-19.4c0.9,1.9,1.2,2.4,1.3,2.9c6.5,31,12.9,62,19.5,93c15,70.5,30.1,140.9,45,211.4c0.9,4.5,2.3,5.1,6.2,3.8
	c6.4-2.1,12.8-3.9,19.3-5.8c-0.4-6.5-1.9-12.9-3.2-19.2c-0.8-4,0.5-6.1,4.5-6.5c1.4-0.2,2.8-0.3,4.1-0.6c4.5-1.3,6.4,0.6,7.2,5.1
	c1,5.5,1,11.4,4,16.5c4.8-1.3,9.5-2.5,14.3-3.8C582.9,566.1,583.3,566.1,582.1,554.5z M448,251.3c-11.7-14-22.9-27.7-34.5-41.2
	c-1.1-1.3-1.9-3.1-3.9-3.2l0,0c-0.1-1.3-0.8-2.2-1.5-3.2c-6.1-8.4-6.9-8.5-14.3-1.1c-10.1,10.1-20.3,20.3-30.4,30.4
	c-7.8,7.8-11.2,7.8-18.9,0.2c-10.9-10.8-21.7-21.7-32.5-32.5c-5.3-5.2-6.5-5.3-11.7-0.1c-10.8,10.6-21.4,21.4-32.1,32.1
	c-8.4,8.3-11.4,8.4-19.7,0.1c-10.9-10.8-21.6-21.7-32.6-32.5c-4.4-4.3-5.5-4.2-9.5,0.5c-4.5,5.4-9.1,10.6-13.5,15.9
	c-9.3,11.3-18.6,22.6-28.8,34.5c0-6.6,0.2-12.1-0.1-17.6c-0.3-5.3,1.3-9.6,4.8-13.6c11.2-12.9,21.9-26.3,33.1-39.2
	c6.5-7.4,10.1-7.7,17.1-0.8c11,10.9,21.9,22,33,32.9c5.7,5.7,6.8,5.6,12.6-0.1c10.4-10.4,20.8-20.8,31.3-31.2
	c8.8-8.8,11.6-8.8,20.6,0.2c10.1,10.1,20.3,20.3,30.4,30.4c6.8,6.8,7.3,6.8,14.2-0.2c10.7-10.7,21.4-21.4,32.1-32.1
	c6.7-6.6,10.7-6.2,16.9,0.6c2.5,2.8,4,7,8.3,7.8c-0.3,3,2.1,4.8,3.7,6.7c6.9,8.2,13.7,16.6,20.6,24.8c2.3,2.7,5.1,5.3,5.2,9.2
	C448.2,236.2,448.1,243.6,448,251.3z"/>
<path style="fill:#F98D97;" d="M435.7,515.9c-77.2,0-154.4,0-231.6,0c-2.2,0-4.4,0.1-6.6-0.1c-1.4-0.1-3.1-0.2-3.6-1.6
	c-1.4-3.8-1.5-7.9-0.1-11.7c1.1-3,4.4-2.1,6.9-2.1c12.3-0.1,24.7,0,37-0.1c2.1,0,4.8,0.3,5.9-2c1-2.3-1.1-4-2.6-5.6
	c-8-8.3-16.2-16.5-24.5-24.5c-4.8-4.7-6.7-4.5-11.2,0.8c-9.9,11.7-19.5,23.6-29.3,35.4c-4.6,5.5-9.6,10.6-13.2,16.9
	c2.7,19.2,5.5,38.3,8.1,57.5c0.5,3.9,1.5,6.2,6.1,6c7.9-0.4,15.9-0.2,23.9-0.3c2.1-2.3,1.8-5.2,1.8-7.9c0.1-10.3,0-20.6,0.1-30.9
	c0.1-6.4,0.7-6.9,7.4-7c7.2-0.1,7.9,0.5,8,7c0.1,10.3,0,20.6,0.1,30.9c0,2.7-0.3,5.6,1.8,7.9c6.4,0,12.8,0,19.2,0
	c2.1-2.3,1.8-5.2,1.8-7.9c0.1-10.3,0-20.6,0.1-30.9c0.1-6.4,0.7-6.9,7.4-7c7.2-0.1,7.9,0.5,8,7c0.1,10.3,0,20.6,0.1,30.9
	c0,2.7-0.3,5.6,1.8,7.9c6.4,0,12.8,0,19.2,0c2.1-2.3,1.8-5.2,1.8-7.9c0.1-10.3,0-20.6,0.1-30.9c0.1-6.4,0.7-6.9,7.4-7
	c7.2-0.1,7.9,0.5,8,7c0.1,10.3,0,20.6,0.1,30.9c0,2.7-0.3,5.6,1.8,7.9c6.4,0,12.8,0,19.2,0c2.1-2.3,1.8-5.2,1.8-7.9
	c0.1-10.3,0-20.6,0.1-30.9c0.1-6.4,0.7-6.9,7.4-7c7.2-0.1,7.9,0.5,8,7c0.1,10.3,0,20.6,0.1,30.9c0,2.7-0.3,5.6,1.8,7.9
	c6.4,0,12.8,0,19.2,0c2.1-2.3,1.8-5.2,1.8-7.9c0.1-10.3,0-20.6,0.1-30.9c0.1-6.4,0.7-6.9,7.4-7c7.2-0.1,7.9,0.5,8,7
	c0.1,10.3,0,20.6,0.1,30.9c0,2.7-0.3,5.6,1.8,7.9c6.4,0,12.8,0,19.2,0c2.1-2.3,1.8-5.2,1.8-7.9c0.1-10.3,0-20.6,0.1-30.9
	c0.1-6.4,0.7-6.9,7.4-7c7.2-0.1,7.9,0.5,8,7c0.1,10.3,0,20.6,0.1,30.9c0,2.7-0.3,5.6,1.8,7.9c8,0.1,15.9-0.1,23.9,0.3
	c4.6,0.2,5.6-2,6.1-6c2.6-19.2,5.4-38.3,8.1-57.5C446.2,515.8,441,515.9,435.7,515.9z"/>
<path style="fill:#F98D97;" d="M406.2,402.1c-4.7-5.5-5.4-5.6-10.7-0.4c-11,10.9-21.9,22-33,32.9c-6.7,6.7-10.5,6.7-17.1,0.1
	c-10.9-10.8-21.7-21.7-32.6-32.5c-6.5-6.5-7-6.5-13.3-0.2c-10.3,10.3-20.6,20.6-30.8,30.8c-9,9-11.7,9.1-20.5,0.2
	c-10.4-10.4-20.8-20.9-31.3-31.3c-5.5-5.5-7-5.4-11.7,0.6c-7.3,9.2-15,18.1-22.5,27.1c-6.7,8.1-14.1,15.7-19.8,24.6
	c0,12.8,0,25.5,0,38.3c12.7-15.1,25.6-30.2,38-45.5c5.9-7.3,11.6-8,18.4-1.3c11.6,11.5,23.2,22.9,34.5,34.7c3.4,3.5,5.4,3.8,8.9,0.1
	c11.3-11.8,23-23.2,34.5-34.7c6.6-6.6,11.1-6.6,17.8,0c11.7,11.7,23.5,23.2,35,35.1c3.2,3.3,5,3,8-0.1c11.8-12.1,23.8-24,35.8-35.9
	c5.3-5.3,11.5-5.2,16,0.3c4.2,5,8.1,10.3,12.3,15.2c9.1,10.7,17.4,22,27.2,32.1c0-12.4,0-24.8,0-37.1c-0.9-1.8-2-3.4-3.3-5
	C432.9,434.3,419.7,418.1,406.2,402.1z"/>
<path style="fill:#F98D97;" d="M406.3,335.3c-4.8-5.6-5.5-5.7-10.7-0.5c-11,10.9-21.9,22-32.9,32.9c-7,6.9-10.6,6.9-17.6-0.1
	c-11.2-11.1-22.2-22.3-33.4-33.3c-5-5-6.2-5-11.2,0c-10.7,10.6-21.5,21.2-32,32.1c-4.3,4.5-8.8,7.3-15.1,6.3c-0.1,0-0.2,0.1-0.2,0.2
	c-1.4-1.2-2.8-2.3-4.1-3.6c-11.7-11.7-23.4-23.3-35-35c-1.6-1.6-2.8-3.5-5.1-0.6c-8.3,10.3-16.6,20.7-25.2,30.8
	c-6.9,8.1-13,17-20.9,24.3c0,12,0,24,0.1,36c14.2-13.9,25.7-30.2,38.8-45c5.7-6.4,10.7-7.3,17-1.2c3.9,3.7,7.7,7.4,11.6,11.1
	c-0.1,0.1-0.1,0.3-0.2,0.4c0.2,2.7,2.2,4.1,3.9,5.8c5.9,5.9,11.8,11.8,17.7,17.7c6.1,6.1,7,6.1,13,0.2
	c10.9-10.8,21.6-21.7,32.5-32.5c7.2-7.1,10.7-7.1,18,0.2c10.9,10.8,21.6,21.7,32.5,32.5c5.7,5.7,6.7,5.7,12.5-0.1
	c11.3-11.2,22.4-22.6,33.8-33.7c6-5.9,10.7-5.5,16,1.1c11.2,13.9,22.9,27.5,34.1,41.4c1.3,1.6,2.5,3.7,5.2,3.2c0-12.4,0-24.7,0-37.1
	c-1.2-2.3-2.3-4.6-4-6.6C432.1,366.6,419.5,350.7,406.3,335.3z"/>
<path style="fill:#F98D97;" d="M309.9,267.4c-2.9-3-4.7-3.1-7.6,0c-11.5,11.8-23.3,23.4-35,35.1c-6.9,6.9-11.2,6.8-18.2-0.2
	c-11.7-11.7-23.4-23.3-35-35.1c-2-2-3.4-3.1-5.6-0.3c-8.1,10-16.2,20-24.4,29.9c-7,8.3-14.1,16.5-21.2,24.8c0,12.4,0,24.8,0,37.2
	c12.7-15.2,25.6-30.2,38-45.5c5.9-7.3,11.6-8,18.4-1.3c11.6,11.5,23.2,22.9,34.5,34.7c3.4,3.6,5.4,3.7,8.9,0.1
	c11.5-11.9,23.2-23.5,35-35.1c6.1-6,10.7-5.9,17,0.1c2.3,2.2,4.7,4.3,7,6.4c9.3,9.5,18.8,18.9,27.9,28.6c3.5,3.7,5.5,3.4,8.9-0.1
	c11.6-12,23.5-23.8,35.4-35.5c5-4.9,11.2-5.2,15.2-0.6c4.5,5.3,8.7,10.8,13.2,16.1c9,10.7,18.1,21.4,27.2,32.1c0-12.4,0-24.8,0-37.1
	c-3-1.3-3.9-4.4-5.8-6.6c-13.1-15.4-26.3-30.7-38.9-46.5c-3.2-4-4.5-3.4-7.4-0.4c-10,10.3-20.5,20.1-30.3,30.5
	c-10.2,10.9-15.7,12.2-25.1,0.9c-0.2-0.3-0.7-0.4-1-0.6l0,0C330.5,288.5,320.1,278,309.9,267.4z"/>
<path style="fill:#F98D97;" d="M308.3,466.7c-1.3-1.3-2.6-1.8-4.1-0.3c-10.3,10.4-20.6,20.7-31.6,31.8c22.9,0,44.5,0,67.2,0
	C328.7,487.2,318.5,476.9,308.3,466.7z"/>
<path style="fill:#F98D97;" d="M426.9,497.9c0.6-1.2-0.3-2.3-1.1-3.2c-7.5-9.1-15.1-18.3-22.6-27.4c-1.2-1.4-2.2-2.1-3.9-0.5
	c-10.2,10.2-20.4,20.4-31.7,31.7c19.9,0,38,0,56,0C424.8,498.5,426.3,499.1,426.9,497.9z"/>
</svg>
