<?xml version="1.0" encoding="utf-8"?>
<!-- Generator: Adobe Illustrator 23.0.3, SVG Export Plug-In . SVG Version: 6.00 Build 0)  -->
<svg version="1.0" id="Layer_1" xmlns="http://www.w3.org/2000/svg" xmlns:xlink="http://www.w3.org/1999/xlink" x="0px" y="0px"
	 viewBox="0 0 512.2 512.2" style="enable-background:new 0 0 512.2 512.2;" xml:space="preserve">
<path style="fill:#F4BAD4;" d="M139.8,27.2c93.9,0,187.8,0,281.7,0c6.5,0.9,12.4,2.7,16,9c2.3,4,3.6,8.1,3.9,12.7
	c0.2,2.8,0.1,5.7,0.1,8.5c0,106.4,0,212.8,0,319.2c0,2.8,0.1,5.7-0.2,8.5c-0.4,4.6-1.7,5.9-6.4,6.2c-1.9,0.1-3.9,0.1-5.8,0.1
	c-93,0-186,0-279,0c-12.2,0-12.4-0.2-12.4-12.6c0-113.9,0-227.7,0-341.6C137.8,33.9,136.7,30,139.8,27.2z"/>
<path style="fill:#E43C5B;" d="M100.5,485c-30-7.3-36.4-52.3-14.7-73.1c5.5-5.3,12-8.2,19.7-8.2c108.5,0,217,0,325.4,0
	c0.9,0,1.7,0.1,2.9,0.1c-2,5.3-4,10.4-5.9,15.5c-0.8,2.3-2.8,1.3-4.2,1.3c-25.9,0.1-51.9,0-77.8,0c-69.6,0-139.2,0-208.8,0
	c-1.5,0-3-0.1-4.5,0c-4.2,0.3-7.1,3.2-7.2,7.1c-0.1,4.2,2.7,7.2,7.1,7.7c1.3,0.1,2.7,0.1,4,0.1c94.2,0,188.4,0,282.5-0.1
	c4.5,0,5.7,1.1,4.7,5.4c-0.5,2.3-0.6,4.8-0.2,7.1c0.9,4.7-1.2,5.2-5.3,5.2c-94-0.1-188.1-0.1-282.1-0.1c-1.5,0-3-0.1-4.5,0.2
	c-3.9,0.7-6.4,3.6-6.3,7.4c0.1,3.7,2.8,6.7,6.6,7.2c1.5,0.2,3,0.1,4.5,0.1c95.1,0,190.1,0,285.2-0.1c3.4,0,5.2,0.6,6.2,4.3
	c1.1,4.4,3.4,8.5,5.1,12.8C322.3,485,211.4,485,100.5,485z M125.5,27.2c0,115,0,230,0,345c0,4.2-0.2,8.4,0.1,12.5
	c0.2,3.3-0.7,4.5-4.1,4.3c-4.9-0.3-9.8,0-14.7-0.1c-12.1-0.3-22.4,4-31.1,12.3c-0.6,0.6-1.3,1.1-2,1.7c-1.2-1.3-0.7-2.7-0.7-3.9
	c0-109.8,0-219.6,0-329.4c0-22,11.4-36.4,32.8-41.8c0.4-0.1,0.7-0.5,1.1-0.7C113,27.2,119.3,27.2,125.5,27.2z"/>
<path style="fill:#FEFEFE;" d="M319.6,263.8c0,21.2,0,42.3,0,63.5c0,7.3-2.3,9.7-9.6,9.7c-13.3,0-26.5,0-39.8,0
	c-8.1,0-10.4-2.2-10.4-10.3c0-42-0.1-84,0.1-126.1c0-4.5-1.1-5.8-5.6-5.7c-13.4,0.3-26.8,0.1-40.2,0.1c-7.8,0-10.3-2.4-10.3-10
	c0-13.4,0-26.8,0-40.2c0-7,2.5-9.5,9.4-9.5c14.2,0,28.3-0.1,42.5,0.1c3.3,0,4.4-0.8,4.3-4.2c-0.2-14.2-0.1-28.3-0.1-42.5
	c0-7.1,2.6-9.6,9.8-9.6c13.3,0,26.5,0,39.8,0c8,0,10.2,2.3,10.2,10.5c0,13.9,0.1,27.7-0.1,41.6c0,3.4,1,4.3,4.3,4.3
	c14.3-0.2,28.6-0.1,42.9,0c6.4,0,9,2.5,9.1,8.9c0.1,13.9,0.1,27.7,0,41.6c0,6.5-2.7,9.2-9.3,9.2c-14.2,0.1-28.3,0.1-42.5-0.1
	c-3.5,0-4.6,0.9-4.5,4.5C319.7,220.9,319.6,242.4,319.6,263.8z"/>
<path style="fill:#F5BB49;" d="M304.8,254c0,21.1-0.1,42.3,0.1,63.4c0,4.1-1.1,5.1-5,4.9c-6.7-0.3-13.4-0.3-20.1,0
	c-4,0.2-5.3-1-5.3-5.1c0.2-25.2,0.1-50.3,0.1-75.5c0-17.3,0-34.6,0-51.8c0-7.1-2.5-9.7-9.7-9.7c-14.1,0-28.3-0.1-42.4,0
	c-3.1,0-4.2-0.8-4.1-4c0.2-7.4,0.2-14.9,0-22.3c-0.1-3.2,1.1-4,4.1-4c14.1,0.1,28.3,0.1,42.4,0c7.2,0,9.6-2.4,9.7-9.6
	c0-14,0.1-28-0.1-42c0-3.3,1-4.4,4.3-4.4c7.1,0.2,14.3,0.2,21.4,0c3.3-0.1,4.4,1,4.4,4.4c-0.1,14.1,0,28.3,0.1,42.4
	c0.1,7.2,2.3,9.2,9.5,9.2c13.7,0,27.4,0.2,41.1-0.1c4.4-0.1,5.6,1.4,5.4,5.6c-0.3,6.8-0.2,13.7,0,20.5c0.1,3.3-0.9,4.4-4.3,4.3
	c-13.6-0.2-27.1-0.1-40.7-0.1c-9.2,0-11.2,2.2-11.2,11.4C304.8,212.3,304.8,233.2,304.8,254L304.8,254z"/>
</svg>
