<?xml version="1.0" encoding="utf-8"?>
<!-- Generator: Adobe Illustrator 23.0.3, SVG Export Plug-In . SVG Version: 6.00 Build 0)  -->
<svg version="1.0" id="Layer_1" xmlns="http://www.w3.org/2000/svg" xmlns:xlink="http://www.w3.org/1999/xlink" x="0px" y="0px"
	 viewBox="0 0 410 512.2" style="enable-background:new 0 0 410 512.2;" xml:space="preserve">
<path style="fill:#FDD835;" d="M220.1,33c44,3.9,78.6,23.6,101.7,61.7c13.4,22.2,22,46.2,21,72.4c-1.2,32.6-13.4,60.1-40.6,79.8
	c-0.8,0.6-1.3,1.4-2,2.2c-3.6,4.4-8.8,6.4-13.7,8.8c-18.4,8.8-37.9,13.2-58.2,14.8c-6.6,0.5-13.2,1.7-19.9,0.6
	c-11.2-1.5-22.5-2.2-33.5-4.7c-27.3-6.4-51.6-18.1-68.9-41.1c-11.5-15.3-17.7-32.7-19.4-51.7c-3.7-39.8,9.7-74.2,35.5-103.2
	c18.1-20.4,42.1-32.9,69.3-38.2C200.9,32.3,210.5,32.3,220.1,33z M246.9,437.2c-12.9,1.5-25.8,3.3-38.9,2.8
	c-9.2-0.5-18.5-0.8-27.6-2.3c-4.3-0.7-8.5-1.5-12.6-2.7c-1.4-0.6-1.6-2-2-3.2c-2.4-7-6.6-8.2-12.3-3.6c-0.6,0.5-1.2,1.1-2.1,1.3
	c-11.9-3.5-22-10.2-31.7-17.6c-9.5-7.3-16.7-16.7-22.6-27.1c-1.4-2.6-3.3-5.1-2.3-8.4c19.5-27.6,18.4-56.8,6.7-86.8
	c-0.6-1.5-1.6-2.9-1.4-4.7c4.9-11,11.8-20.5,20.1-29.2c1.3-1.3,2.9-2.6,4.8-1.6c4.6,2.2,9.7,3.2,13.8,6.6
	c12.1,6.6,25.2,10.2,38.6,12.9c13.2,2.7,26.6,4.4,40.1,4.1c14.4-0.3,28.9,0.7,43.3-1.8c15.5-2.6,30.5-6.8,45-12.7c2-0.8,3.9-2,6.1-2
	c3.8,4.3,7.1,9,10.2,13.8c0.7,1.7,0.1,3-1.1,4c-9.9,7.8-13.2,18.9-15.2,30.6c-2.6,14.4-2.2,28.9,1.2,43.1c3.2,13,8.8,24.1,22.6,28.9
	c1,0.3,2.3,0.8,2,2.4c-11.9,22.8-31.3,36.5-54.8,45.3c-4.5,1.7-9,3.4-13.8,4.2c-1-0.5-1.2-1.5-1.6-2.5c-1.2-3.6-3.5-5.7-7.4-5.3
	c-4,0.5-5.5,3.3-5.8,6.9C248.2,434.2,248.4,436,246.9,437.2z"/>
<path style="fill:#FBC02D;" d="M347,274.1c8.3,3.1,14.1,9.2,19.1,16.2c7.8,10.8,12.5,23,16.3,35.7c0.3,1.1,0.7,2.2,0.3,3.4
	c-5.1,16.5-11.2,32.4-23.7,45c-3.4,3.4-7.3,6.3-12,7.8c-8,1.7-12.7-3.6-17.2-8.6c-5.1-5.7-7.4-13-9.2-20.3c-5-20.2-4.2-40.2,3-59.8
	c3-8,7.8-14.6,15.7-18.6C341.9,273.6,344.3,273,347,274.1z M101,284.1c-0.3,3.3,2.5,5.3,3.5,8.1c8.8,23.9,9,47.9-0.1,71.8
	c-1.9,5.1-4.9,9.8-9.4,13.2c-2.8,3.9-6.7,5.7-11.2,6.5c-12.2-4.1-19.4-13.5-25.4-24.1c-4.9-8.5-8.6-17.6-11.4-27.1
	c-0.7-2.4-1.2-4.8-0.4-7.3C51,311,56.7,297.4,66,285.5c3.4-4.4,7.7-7.7,12.5-10.5c2.4-1.4,4.9-2,7.6-1c1.6,0.3,3.1,1.6,4.9,0.9
	C94.3,278,98.9,279.6,101,284.1z"/>
<path style="fill:#FEE067;" d="M86,274c-7.9,0.6-13.5,5.5-18.2,11.1c-10.1,12-15.9,26.3-20.4,41.2c-0.5,1.6-0.2,2.9,0.3,4.3
	c4.5,14.5,10.3,28.3,20,40.3c4.5,5.5,10.5,8.4,16.1,12.1c-0.4,0.8-1.1,1.1-2,1.1c-20.1,1.8-30.5-11-39.3-26
	c-4.9-8.3-8.1-17.4-11-26.7c-0.6-1.8-1-3.7-0.4-5.4c5.3-16.9,11.7-33.3,25.1-45.8C64.7,272.4,76.9,269.7,86,274z M347,274.1
	c-11.6,1.5-18.1,9.3-21.9,19.3c-8.6,23-8.6,46.4,0,69.5c3.7,10,10.3,17.8,21.9,19.3c-4.8,3.1-10.1,1.7-15.3,1.8
	c-18.7-5.7-24.7-20.8-27.5-37.9c-2.7-16.7-2.1-33.4,3.5-49.6c2.5-7.2,5.7-13.8,12.3-18.2c1.1-0.8,2-1.7,2.1-3.2
	c1.8,1.3,3-0.3,4.5-0.8C333.5,271.8,340.2,270.5,347,274.1z M300.2,249c-5.4,2.9-10.7,6.1-16.2,8.5c-24.2,10.8-49.7,14.6-76,14.5
	l0,0l0,0c-0.7-0.3-1.5-0.8-2.2-0.9c-18.2-0.9-35.8-4.3-52.8-10.9c-16.9-6.6-32-16-43.2-30.3c-19.6-25.1-26.4-53.8-20.8-85.2
	c5.4-30.4,17.9-57.1,41.1-78.2C142.4,55.3,156.4,46.9,172,41c15.5-5.9,31.6-8.9,48.3-8c-1.3-1-2.8-0.8-4.3-0.9
	c-11.1-0.2-22.2,0-33.3,1.8c-32.1,5.4-60,18.6-80.3,44.6c-22.6,28.8-34.5,61.3-30.3,98.6c3.2,28.3,15.4,51.5,38.4,68.7
	c2.5,1.9,2.1,2.7,0.1,4.6c-7.6,7.2-14.4,15.1-19.5,24.4c2,4.5,6.9,6,10.1,9.2c0.5-0.7,1-1.3,1.4-2c5.4-9.1,11-18,18.5-25.5
	c1.1-1.1,2-2.6,4.1-1.6c4.2,2.1,8.6,4,12.9,6c0,2.1,1.9,1.9,3,2.4c20.6,9.3,42.5,14.4,64.9,15.4c27.9,1.3,55.9,1.3,82.8-8
	c7.9-2.7,16.2-4.6,23.2-9.7C308.7,256.6,304.5,252.7,300.2,249z M151.2,429.1c-0.1,1.6-0.2,3.3-0.3,4.9c-10.2-3.4-20.5-6.7-30-11.8
	c-16.7-9-30-21.4-39-38.1c0.4-0.8,1.1-1.1,2-1.1c3.7-2,7.4-4,11.1-5.9c9.7,23.5,27.7,38.5,50.1,48.9
	C147.2,426.9,149.5,427.5,151.2,429.1z"/>
<path style="fill:#FDDF67;" d="M167.1,437.2c0-1,0-2.1-0.1-3.1c6,1,12,2.1,18,3c7.6,1.1,15.3,1.9,22.9,2.9
	C194.3,440.7,180.7,439.5,167.1,437.2z"/>
<path d="M169,156.2c0,10-8.2,18-18.2,17.9c-9.8-0.1-17.7-8.1-17.8-17.8c-0.1-10,8-18.1,18-18.2C160.9,138.1,169,146.2,169,156.2z
	 M281,156c0.1,10-8,18.1-18,18.1s-18.1-8.1-18-18.1c0.1-9.8,8-17.8,17.7-17.9C272.7,138,280.9,146,281,156z"/>
<path style="fill:#E53935;" d="M174.1,480.1c-2.3-0.1-4.7,0-7,0c0-14.3,0-28.6,0-42.9c0.7-1,0.7-2.1-0.1-3.1
	c0.2-4.6-1.1-8.4-5.9-9.7c-4.5-1.2-7.7,0.9-9.9,4.8c-1.9,1.5-1.2,3.2-0.3,4.9c0,15.3,0,30.6,0,45.9l0,0c-10.5,0-20.9,0-31.4,0.1
	c-5.1,0.1-8.4,3.3-8.5,7.9c-0.1,4.5,3.3,7.8,8.3,8.1c1.7,0.1,3.3,0,5,0c16.6,0,33.2,0,49.8,0c5.4,0,8.9-3.3,8.9-8
	C183,483.4,179.5,480.2,174.1,480.1z M293.5,480.1c-10.1-0.1-20.3,0-30.4-0.1c0-15.6,0-31.1,0-46.7c-0.6-6.5-3.4-9.5-8.6-9.3
	c-5,0.2-7.5,3.5-7.6,10.1c0,1-0.1,2-0.1,3c0,14.3,0,28.6,0,42.9c-2.2,0-4.3,0-6.5,0.1c-5.8,0.1-9.4,3.1-9.4,8s3.5,8,9.4,8
	c17.8,0,35.6,0,53.3,0c5.8,0,9.4-3.2,9.3-8.1C302.9,483.1,299.4,480.1,293.5,480.1z M199.4,193.4c-7.3,2.8-13.5,10.8-12.4,20.7l0,0
	c0.2,2.5,0.6,4.9,1.9,7c3,11,9.8,19.8,16.3,28.7c1.2,1.7,2.7,1.1,3.7-0.3c6.3-8.9,13-17.6,16-28.4l0,0c1.3-2.1,1.8-4.5,2-7
	c0.5-5.7-0.9-10.9-4.8-15.3C216.3,192.3,207.5,190.3,199.4,193.4z"/>
<path style="fill:#FBFBFB;" d="M157.1,156.2c-0.6,3.5-2.5,5.9-6.2,5.8c-3.6-0.1-5.9-2.4-5.8-6c0.1-3.7,2.4-5.9,6-5.8
	C154.8,150.2,156.6,152.6,157.1,156.2z M269.1,156.1c-0.5,3.6-2.4,5.9-6.1,5.9s-5.9-2.3-5.9-5.9c0-3.7,2.3-5.9,5.9-5.9
	C266.7,150.2,268.6,152.5,269.1,156.1z"/>
</svg>
