<?xml version="1.0" encoding="utf-8"?>
<!-- Generator: Adobe Illustrator 23.0.3, SVG Export Plug-In . SVG Version: 6.00 Build 0)  -->
<svg version="1.0" id="Layer_1" xmlns="http://www.w3.org/2000/svg" xmlns:xlink="http://www.w3.org/1999/xlink" x="0px" y="0px"
	 viewBox="0 0 384.2 512.2" style="enable-background:new 0 0 384.2 512.2;" xml:space="preserve">
<path style="fill:#F4D8E7;" d="M147.4,494c-34,0-68,0-102,0c-1.7-1.4-1.9-3.3-1.9-5.3c-0.1-23.1,0-46.3,0-69.4c0-1.5,0.4-3,0.5-4.5
	c-0.2-3.6,2.4-5.7,4.6-8c21.5-21.6,43.1-43.1,64.6-64.6c4.5-4.5,9.1-8.9,13.5-13.5c7.5-7.8,5.2-17.9-4.9-21.8
	c-2-0.8-4.1-1.3-4.9-3.6c-0.7-1.9-0.5-3.9-0.5-5.8c0-17.1,0-34.1,0-51.2c0-2.1,0.2-4.2,0.6-6.3c-0.2-2.7,1.3-4.6,3.1-6.3
	c22.1-22.2,44.2-44.3,66.3-66.3c3.9-3.9,5.8-3.9,9.6-0.1c22.2,22,44.3,44.2,66.4,66.3c1.7,1.7,3.3,3.6,3.2,6.3
	c0.5,2.5,0.6,5.1,0.6,7.7c0,16.1,0,32.3,0,48.4c0,2.4,0.2,4.8-0.4,7.2c-0.7,2.1-2.5,2.8-4.4,3.6c-11.2,4.4-13.3,14.3-4.7,22.9
	c25.8,25.9,51.7,51.7,77.6,77.6c2.3,2.3,5.3,4.4,4.5,8.4c0.7,8,0.3,16.1,0.3,24.1c0.1,15.9,0.1,31.8,0,47.7c0,2.4,0.2,4.9-1.9,6.7
	c-34,0-68,0-102,0c-2.3-2-1.9-4.7-1.9-7.2c0-21.8,0.1-43.7,0-65.5c-0.1-23.3-19.3-42.2-42.5-42c-22,0.2-40.9,18.9-41.1,41.1
	c-0.2,22.1,0,44.3-0.1,66.4C149.3,489.4,149.7,492.1,147.4,494z"/>
<path style="fill:#F9BD49;" d="M178.3,136c-1.5-2.2-1.8-4.8-1.7-7.4c0-12.9-0.1-25.8,0.1-38.7c0-3.1-0.9-4.4-4.1-4.1
	c-3.5,0.2-7,0.1-10.5,0c-8.2-0.1-14.5-6.4-14.6-14.3c-0.1-8.2,6.2-14.6,14.6-14.8c3.8-0.1,7.6-0.1,11.4,0c2.3,0.1,3.3-0.7,3.2-3.1
	c-0.2-2.4,0.2-4.9-0.1-7.3c-0.8-8.9,2.6-15.3,11-18.8c2.4,0,4.9,0,7.3,0c8.3,3.5,11.5,9.8,11.1,18.8c-0.5,10.4-0.1,10.4,10.4,10.4
	c2.3,0,4.6-0.2,6.8,0.2c7.2,1.3,12.4,8.2,11.8,15.6c-0.6,7.2-6.5,13-13.8,13.3c-3.8,0.2-7.6,0.3-11.4,0c-3.3-0.2-4,1.1-4,4.1
	c0.2,12.6,0.1,25.2,0.1,37.8c0,2.9,0,5.8-1.8,8.3c-2.1,0.9-3.3-0.7-4.8-1.7c-5.7-3.9-10.5-3.9-16.1,0
	C181.6,135.4,180.4,137,178.3,136z"/>
<path style="fill:#E43C5B;" d="M147.4,494c0-24-0.1-47.9,0-71.9c0.1-26.6,20.1-45.7,46.7-44.8c21.2,0.7,40.6,20.7,40.7,42
	c0.1,24.9,0,49.7,0,74.6C205.7,494,176.5,494,147.4,494z M118.2,304.4c-4.8,0.3-8.5,2.6-11.8,6c-27.4,27.5-54.8,54.9-82.3,82.2
	c-3.1,3.1-6,6.3-7.9,10.3c0,2.4,0,4.9,0,7.3c0.7,5.1,2.8,9,7.8,11.2c8.4,3.7,16.8,0.5,21.4-8.3c1.2-1.4,2.3-2.8,3.6-4
	c26.2-26.2,52.3-52.4,78.5-78.5c4.6-4.6,6.7-9.7,4.5-16C129.7,308,124.8,304.9,118.2,304.4z M361.1,395.5
	c-28.6-28.5-57.2-57.1-85.8-85.8c-3.1-3.1-6.7-5.1-11.2-5.3c-6.6,0.6-11.5,3.6-13.8,10c-2.3,6.5,0,11.8,4.8,16.3
	c4.5,4.3,8.8,8.8,13.2,13.2c23.2,23.3,46.4,46.5,69.6,69.8c0.2,2.5,1.7,4.1,3.5,5.6c9.4,7.6,22,3,24.8-9.1c0-2.4,0-4.9,0-7.3
	C364.5,400.4,363.3,397.7,361.1,395.5z M264,238.2c1.1,1,2.3,1.9,3.4,3c6.7,6.5,15.4,6.8,21.4,0.8s5.7-14.8-0.9-21.4
	c-14.2-14.3-28.5-28.5-42.8-42.8c-13.8-13.9-27.5-27.8-41.3-41.6c-1.2-1.1-2.5-2.2-3.7-3.2c-4.9-4.2-12.9-4.3-17.9-0.3
	c-1.4,1.1-2.7,2.3-4.1,3.5c-12.6,12.7-25.2,25.4-37.8,38.1c-15.6,15.7-31.4,31.3-46.9,47c-6,6.1-6,15-0.2,20.8s14.6,5.7,20.8-0.2
	c1.3-1.2,2.7-2.4,4-3.6c0.9-1,1.7-2.1,2.7-3.1c22.3-22.3,44.7-44.6,66.9-67c2.7-2.7,4.1-2.7,6.7,0c19.3,19.5,38.8,38.9,58.2,58.4
	C256.5,230.2,260.3,234.2,264,238.2z M191.4,231.6c15.7-0.1,28.8,13.1,28.8,29c0,16.1-13.1,29.3-29.1,29.3
	c-15.8,0.1-29.2-12.8-29.3-28.1C161.8,244.6,174.5,231.7,191.4,231.6z"/>
</svg>
