<?xml version="1.0" encoding="utf-8"?>
<!-- Generator: Adobe Illustrator 23.0.3, SVG Export Plug-In . SVG Version: 6.00 Build 0)  -->
<svg version="1.0" id="Layer_1" xmlns="http://www.w3.org/2000/svg" xmlns:xlink="http://www.w3.org/1999/xlink" x="0px" y="0px"
	 viewBox="0 0 512.2 434" style="enable-background:new 0 0 512.2 434;" xml:space="preserve">
<path style="fill:#565F6F;" d="M120.1,359.1c13.8-2.8,27.3-6.7,41.2-9.2c24.8-4.6,49.8-8,75-9c1.3-0.1,2.7,0.2,3.8-0.7
	c4.7-2.5,27.1-2.5,31.9,0c6.3,1.7,12.8,1.1,19.2,1.6c33,2.7,65.4,8.3,97.4,16.9c1.1,0.3,2.3,0.4,3.4,0.5c4.7-0.8,8.8,1.6,13,2.9
	c6.4,2.1,13.4,2.8,19,7c15.7,6.2,31.8,11.8,47.1,19c5,2.4,10.1,4.7,14.9,7.8c-153.3,0-306.6,0-461.2,0c14.4-7.3,28.1-13.1,41.9-18.6
	c7.1-2.8,14.2-5.5,21.4-8.2c7-4.3,15.1-5.7,22.8-8.3C113.9,359.7,116.8,358.2,120.1,359.1z"/>
<path style="fill:#F2597C;" d="M352.2,127.5c-0.3-7.7-0.3-15.3,0-23c0.2-4-1.3-4.6-4.8-4.6c-23,0.2-46-0.1-69,0.2
	c-4.8,0.1-6.5-0.8-6.4-6.1c0.4-17.5,0-35,0.2-52.5c0.1-4.2-0.7-5.9-5.4-5.6c-7,0.5-14,0.4-21,0c-4.4-0.2-6,0.8-5.9,5.6
	c0.3,17.5,0,35,0.2,52.5c0.1,4.7-0.9,6.2-5.9,6.1c-23.2-0.3-46.3-0.1-69.5-0.2c-3.6,0-5,0.7-4.8,4.6c0.3,7.7,0.3,15.3,0,23
	c-0.2,3.9,1.3,4.6,4.8,4.6c22.3-0.2,44.7-0.1,67-0.1c8.3,0,8.3,0,8.3,8c0,66.7,0,133.3,0.1,200c10.6,0,21.3,0,31.9,0
	c0-67.2,0-134.3,0.1-201.5c0-7.4-0.8-6.5,6.3-6.5c23,0,46-0.1,69,0.1C351,132.2,352.4,131.4,352.2,127.5z M168.2,192.2
	c0.1-3.7-1.3-4.4-4.6-4.3c-12.5,0.2-25-0.1-37.5,0.2c-4.6,0.1-6.3-0.8-6.2-5.9c0.4-12.6,0.1-25.3,0.2-38c0-3.1-0.5-4.5-4-4.4
	c-8,0.3-16,0.2-24,0c-3.4-0.1-4.1,1.1-4.1,4.3c0.2,13.2-0.1,26.3,0.1,39.5c0.1,3.6-1.1,4.4-4.5,4.4c-13.2-0.2-26.3,0-39.5-0.1
	c-3.3,0-4.3,1-4.2,4.2c0.2,8,0.2,16,0,24c-0.1,3.1,0.9,4,3.9,3.9c12.7-0.2,25.3,0.2,38-0.2c5-0.2,6.3,1.2,6.3,6.2
	c-0.2,47.6-0.1,95.3-0.1,142.9c10.7-3.3,21.3-6.6,32-9.9c0-44.8,0-89.6-0.1-134.4c0-3.6,0.8-4.9,4.6-4.8c13,0.3,26,0,39,0.2
	c3.4,0,4.7-0.7,4.6-4.4C167.9,207.9,167.9,200.1,168.2,192.2z M472.2,215.5c-0.3-7.5-0.3-15,0-22.5c0.1-3.8-0.7-5.2-4.9-5.1
	c-12.8,0.3-25.7,0-38.5,0.2c-3.6,0.1-4.9-0.7-4.8-4.6c0.3-13,0-26,0.2-39c0-3.4-0.8-4.7-4.4-4.5c-7.7,0.3-15.3,0.3-23,0
	c-3.6-0.1-4.9,0.8-4.8,4.6c0.3,12.8,0,25.7,0.2,38.5c0.1,3.8-0.8,5.1-4.9,5.1c-13-0.3-26,0-39-0.2c-3.2,0-4.4,0.7-4.3,4.1
	c0.2,7.7,0.3,15.3,0,23c-0.1,3.8,0.8,5.1,4.9,5c12.8-0.3,25.7,0,38.5-0.2c3.7-0.1,4.8,0.8,4.8,4.7c-0.2,44.8-0.1,89.7-0.1,134.5
	c10.7,3.3,21.3,6.6,32,9.9c0-47.7,0.1-95.3,0-143c0-4.6,0.8-6.3,5.9-6.1c12.5,0.4,25,0,37.5,0.2C471,220.1,472.4,219.4,472.2,215.5z
	"/>
</svg>
