<?xml version="1.0" encoding="utf-8"?>
<!-- Generator: Adobe Illustrator 23.0.3, SVG Export Plug-In . SVG Version: 6.00 Build 0)  -->
<svg version="1.0" id="Layer_1" xmlns="http://www.w3.org/2000/svg" xmlns:xlink="http://www.w3.org/1999/xlink" x="0px" y="0px"
	 viewBox="0 0 612 792" style="enable-background:new 0 0 612 792;" xml:space="preserve">
<path style="fill:#FEC967;" d="M211,70.4c-2.6,1.2-4.8,2.9-6.9,4.9c-8.3,8-15.9,16.6-24.7,24c-9.1,7.6-15.9,16.9-17.7,29.2
	c-0.1,0.6-0.2,1.6-1.4,1.6c-1.3-3.3-2.4-6.5-3.5-9.9c-3.1-10-5-20.3-8.6-30.1c-5.7-15.5-21.7-19.9-34.3-19.9c-5.3,0-6.9,2.2-6.9,7.6
	c0,6.8,0.1,13.7,0,20.5c0,3.3,0.5,6.7-0.5,10.3c-3.4-2.6-5.6-5.8-9.1-7.6c-11.9-6.3-24.2-5.6-36.3-1.3
	c-12.6,4.4-15.1,10.4-12.2,23.7c1.8,8,4.8,15.5,7.7,23.4c-1.5,0-2.6,0.1-3.7,0c-10.6-1.1-21.1-2.3-31.7-0.7
	c-5.2,0.8-9.5,3.1-11.6,8.2c-3.6,8.8,1,26.8,9.8,31.7c7.1,4,14.2,7.9,21.7,11.1c4.2,1.8,8.4,3.5,12.5,5.2c-4.7,2.2-9.3,3.4-13.9,4.7
	c-11.5,3.2-23.3,5.3-33.6,12c0,1,0,2,0,3c2,1.2,3.9,2.5,6.1,3.4c11.4,5.1,23.5,8.1,35.7,10.4c8.9,1.7,18,3.7,27.1,3
	c15-1.2,29.8-4.2,44.7-6.4c13.7-2,27.2-1.2,39.2,6.7c5.3,3.4,10.2,7.4,15.1,11.4c5.2,4.2,10.5,7.7,17.6,6.5c2.1-0.4,4.2-0.7,6.4-1
	c1.9-0.2,3.3-1.2,4.1-3c2-3.1,2.3-7.1,5.7-9.6c1.6-1.2,1.3-3.5,0.9-5.6c-1.7-7.4-3-14.9-4.9-22.3c-2.3-9.3-3.8-19-11.5-26
	c-1.4-1.3-0.7-2.6-0.4-4.1c2.1-10.3,8.6-18.2,14.2-26.7c5.3-8,10.3-16,11.8-25.6c1.5-9.3,2.6-18.7,3.1-28.1
	c0.6-10.3,0.6-20.6-1.8-30.8C217.8,69.4,215.4,68.4,211,70.4z M601.8,84.7c-6.6-0.2-12.8,1.7-19,3.8c-0.9,0.3-2,0.9-2.9,0.3
	c-1-0.8-0.3-1.9,0-2.7c5.1-12.5-0.3-22.5-8.2-31.4c-7.4-8.3-13.2-7.8-20.2,0.8c-3.3,4.1-7.1,7.8-11.2,11.7c-1.3-5.4-2.7-10.2-6.1-14
	c-7.4-8.2-15.8-14.7-27.2-16.1c-3,0-6,0-9,0c-13.8,8.8-17.8,24-24.5,37.5c-4.3-4.1-8.4-8-12.4-12c-5.3-5.3-10.5-10.7-16.9-14.7
	c-4.1-2.5-8.4-3.9-13.2-2c-8.6,3.3-16.7,14.9-17.2,24c-0.4,8.7,2.8,16.3,6.1,23.9c2.3,5.2,4.6,10.4,7,15.7c-2.2,0.9-3.4-0.3-4.7-0.9
	c-6.1-3-12.2-6.1-18.4-9c-5.9-2.8-11.8-5.3-18.1-7.1c-2.2-0.6-4.8-1.2-6.7,0.4c-2.1,1.9-0.2,4.1,0.4,6c1.6,5.1,4.3,9.7,7.1,14.2
	c9.2,14.7,18.6,29.4,33,39.5c11.3,7.9,23.3,14.8,34.9,22.2c13.2,8.5,22.2,19.8,24.1,35.9c0.8,7,1.3,14.1,2,21.2
	c2.4,3.1,4.6,6.2,8.3,8c7,3.4,14.3,4.2,21.9,3.1c3-0.4,5.7-1.8,7-5c1-8.3,1.7-16.6,4.7-24.7c4.8-12.8,8-26.1,14.2-38.6
	c4.3-8.8,9.5-14.5,18.6-18.1c17.4-6.8,26.9-21.9,37-36.4c6-8.6,10.8-17.8,15.6-27.1c0-1.7,0-3.3,0-5
	C606.8,85.3,604.5,84.8,601.8,84.7z"/>
<path style="fill:#3EB219;" d="M370,757c-2.2-3.5-1.9-7.6-2.5-11.7c-2.2,1-1,3.2-2.2,4.4c-1.4-0.9-0.8-2.2-0.7-3.2
	c1.9-20.6,1.3-41.3,0.3-61.9c-1.3-27.8-2.8-55.6-5.6-83.3c-3.8-38-11.5-75.3-19.8-112.5c-15.8-70.1-34.4-139.6-50.9-209.5
	c-3.8-16.2-7.5-32.5-8.7-49.1c-0.1-2-1.1-5.3,0.9-5.9c2.7-0.8,3.3,2.7,4.2,4.6c8.6,18.2,14.3,37.6,20.6,56.7
	c24.1,73.1,48.1,146.3,68,220.8c2.7,10.1,5.2,20.2,8.5,30.3c1.3-13.1,2.5-26.1,3.9-39.2c5-46,8.8-92.2,19.1-137.4
	c7.6-33.4,19-65.5,34.9-95.9c2.5-4.7,5.3-9.2,8.2-13.7c1-1.6,2-3.5,4.6-3.8c0.8,4.3-0.5,8.3-1.4,12.2
	c-8.8,37.4-17.8,74.8-26.5,112.2c-10,43-16.5,86.6-22.9,130.3c-3.6,24.9-7,49.8-10.7,74.6c-1,7,0.5,13.6,1.1,20.4
	c4.5,50.4-0.8,99.7-15.5,148.1c-1.4,4.5-3.1,8.8-5.9,12.6C370.7,757,370.3,757,370,757z M480.7,231.9c0.4-0.8,0.3-2.1,1.5-0.3
	c7.6,11.1,24.4,14,35.7,6.4c-1.9,31.9-2.9,63.9-9.7,95.2c-5.9,27-16.9,52.1-27.5,77.4c-9.2,22.1-19.1,43.9-30.7,64.8
	c-17.8,32-27.1,66.7-31.9,102.7c-4.6,34.3-9.6,68.5-14.4,102.8c-0.3,2-0.4,4-0.7,6c-1.1,2.1,0.3,4.4-0.6,7.6c0.1-0.4,1.2-1,0.5-1.1
	c-0.2,0-0.2-0.2-0.1-0.4c0.2-0.8,0.6-1.5,1.2-2.1c19-57.4,37.7-115,61.1-170.9c15.3-36.3,38.1-67,68.2-92.3
	c3.8-3.2,7.8-6.3,12.2-8.6c1.2-0.6,2.7-2,4.1-0.7c1.1,1.1-0.1,2.6-0.7,3.6c-3,5.6-6,11.1-9.4,16.5c-21.7,35.1-44.2,69.7-61.8,107.2
	C454,596,433,647.4,411.1,698.4c-7.3,17.1-14.4,34.3-23.1,50.9c-1.1,2.2-2.4,4.3-4.3,7.6c-0.2-4.7,0.8-7.7,2-10.6
	c7.2-18,9-36.8,10.5-56c4-53.1,8.5-106.2,18.7-158.6c7.2-36.7,20.2-71.6,33.3-106.5c7.4-19.6,17.1-37.9,27.2-56
	c5.4-9.7,10.4-19.7,15-29.9c8.7-19.6,9.8-39.4,3.2-59.8c-4.4-13.6-9.7-27-12-41.1C481.2,236.1,481,234,480.7,231.9z M197.9,255.9
	c1-1.5,2.6-2.2,4.1-3c14.9,31.8,29.9,63.5,44.7,95.3c31,66.8,61.9,133.7,88.9,202.3c17.7,44.9,27.5,91,26.4,139.4
	c-0.3,12.5-1,25-4.1,37.2c-0.6,2.3-0.7,5.9-3.5,5.9c-2.4,0-2.7-3.4-3.4-5.6c-6-19.9-10.1-40.3-14.4-60.7c-15-72.2-38-142-64.1-210.8
	c-23.2-61.1-46-122.3-69-183.5C201.4,267,199.7,261.4,197.9,255.9z M221.8,439.2c3.2,2.8,4.6,6.6,6.1,10.2
	c12.6,29.8,22.4,60.5,30.4,91.8c14.1,55,34.5,107.6,60,158.3c4.7,9.4,9.1,18.9,11.1,29.3c0.5,2.4,0.6,4.9,0.7,7.4
	c0.1,1.5,0.1,3.2-1.7,3.8c-1.7,0.5-2.9-0.7-3.8-1.9c-1.9-2.5-4-5-5.4-7.7c-25.9-49.6-50.7-99.7-68.4-152.8
	C238,539.5,230.7,500,224,460.4C222.8,453.5,221.5,446.5,221.8,439.2z"/>
<path style="fill:#ADDE9D;" d="M403.9,690.9c-0.4,2-0.5,4.1-3.2,6.3c1.7-4,0.5-7.4,2.2-10.4C403.6,688.1,402.2,689.9,403.9,690.9z"
	/>
<path style="fill:#D80939;" d="M113.8,111.8c-7-2.5-10-1.4-12,5.8c-2.5,8.9-6.5,15.2-16.9,14.8c-1.5-0.1-3.2,0.8-4.6,1.6
	c-3.5,2.1-5.7,5.6-3.8,9.3c5.1,10.2,9.8,20.7,23,23.5c8.2,1.7,16.1,5.1,24.2,7.6c0.9,0.3,1.8,1.5,3.1,0.4c-6.8-9.1-10.5-18.9-7-30.3
	c2.7-8.8,6.3-10.5,14.8-6.8c-1.7-5.6-3.8-10.8-7.1-15.4C123.9,117.6,119.5,113.8,113.8,111.8z M525.1,78.6c-1.9-2.6-4.1-3-6.8-1
	c-9.6,6.9-19.1,9-28.7-0.1c-1.6-1.5-4-2.7-5.7-0.5c-4.3,5.6-5.2,12.5-6.6,19.1c-0.7,3.3,1.8,5.2,3.3,7.5c3.3,5.4,6.8,10.7,10.1,16.1
	c2.4,3.8,4.5,7.8,7.1,12.2c3-10.8,7.2-20.2,12.4-29.1c6.2-10.8,9.8-12.2,22.3-8.3C530.9,88.2,528.5,83.2,525.1,78.6z"/>
</svg>
