<?xml version="1.0" encoding="utf-8"?>
<!-- Generator: Adobe Illustrator 23.0.3, SVG Export Plug-In . SVG Version: 6.00 Build 0)  -->
<svg version="1.0" id="Layer_1" xmlns="http://www.w3.org/2000/svg" xmlns:xlink="http://www.w3.org/1999/xlink" x="0px" y="0px"
	 viewBox="0 0 620.1 627.4" style="enable-background:new 0 0 620.1 627.4;" xml:space="preserve">
<path style="fill:#F2597C;" d="M293,0.1c10.5,0,21,0,31.5,0c7.9,1.3,16,0.6,23.9,2.5c21.7,5.4,42.3,13.5,61.3,25.6
	c35,22.2,62.1,52.4,84.5,87.1c35.4,55,55.8,115.7,66.3,180c4.4,27,6.7,54.3,5.3,81.7c-2.8,54.5-16.9,105.4-48.7,150.3
	c-19.2,27.1-43.2,48.9-71.7,65.7c-29,17.1-60.1,27.6-93.2,32.6c-6.7,1-13.6,0.4-20.3,1.7c-15.3,0-30.7,0-46,0
	c-17.5-1.3-34.7-4-51.6-8.9c-36.8-10.7-70-28.1-98.5-54.3C91.3,523.4,67.3,472,58,412.9c-3.9-24.6-4.4-49.4-2.9-74.4
	c3.2-52.7,15.1-103.2,34.3-152.1c14.6-37,33.7-71.5,58.9-102.2c28.6-34.9,62.6-62.3,105.8-76.6C266.8,3.4,279.8,1.1,293,0.1z"/>
<path style="fill:#FF9AA8;" d="M122.6,286.7c3.2,3.5,4.9,3.4,8.3,0c25.7-26.3,51.5-52.3,77.4-78.4c7-7,13.6-6.9,20.5,0.1
	c25.6,26,51.4,51.9,76.9,78.1c3.4,3.5,5.1,3.8,8.8,0.1c25.6-26.3,51.5-52.4,77.4-78.4c6.7-6.7,13.9-6.4,20.5,0.3
	c26,26.5,52.1,52.9,78.1,79.4c2.6,2.6,3.8,2.2,6.1-0.2c5.8-6.2,11.3-13,18.1-18c11.1-8.3,11.8-17.3,7.7-30.2
	c-17.1-54.4-40.8-104.9-78.3-148.1c-3.3-3.8-6.7-5.5-11.8-5.5c-40.5,0.2-81.1,0.1-121.7,0.1c-40.8,0-81.5,0.1-122.3-0.1
	c-5.4,0-8.9,1.8-12.3,5.8c-40.4,46.9-65.5,101.7-81.4,161.2c-0.8,3.2-0.3,5.2,2.1,7.4C105.3,268.9,114.1,277.7,122.6,286.7z
	 M538.5,383.5c-11.5,11.7-22.5,22.9-33.5,34c-9.2,9.3-14.3,9.4-23.4,0.2c-25.4-25.7-50.9-51.3-76.1-77.2c-3.2-3.3-4.7-3.1-7.8,0.1
	c-25.4,26-51,51.8-76.5,77.6c-8.3,8.4-13.9,8.4-22.1,0.1c-25.6-25.8-51.2-51.6-76.5-77.6c-3.5-3.6-5.1-3-8.3,0.2
	c-25,25.5-50.2,50.9-75.3,76.3c-9.8,9.9-14.5,9.9-24.3,0c-11-11.2-21.9-22.2-33.3-33.7c-0.3,1.4-0.6,1.9-0.6,2.4
	C83,422.4,92,457,109.2,489.3c1.7,3.2,4,3.3,6.9,3.3c129.2,0,258.3,0,387.5,0.1c4.1,0,6-1.4,7.9-4.9c14-26.4,22.2-54.5,26-84.1
	C538.3,397.3,539.9,390.8,538.5,383.5z"/>
<path style="fill:#FFC600;" d="M128,517.3c121.6,0,242.3,0,364.5,0c-40.3,50.8-92.2,77.7-154.7,84.1
	C246.8,610.6,171.9,575.8,128,517.3z"/>
<path style="fill:#B31D32;" d="M539.1,333c-2.2-15.5-3.2-31.1-6.6-47.6c-9.8,10-19,19.4-28.3,28.8c-8.2,8.3-13.9,8.3-22.1,0
	c-25.6-25.8-51.1-51.6-76.6-77.6c-3-3.1-4.5-3.5-7.8-0.1c-25.5,26.2-51.3,52.1-77,78c-7.8,7.9-13.8,7.9-21.7-0.1
	c-25.6-25.8-51.2-51.6-76.5-77.6c-3.3-3.3-4.9-3.5-8.3-0.1c-25,25.6-50.1,50.9-75.3,76.3c-9.9,10-14.7,10-24.7-0.2
	c-8.7-8.8-17.3-17.6-26.7-27.1c-0.5,1.7-0.8,2.4-1,3.2c-3.4,18.5-5.2,37.1-6.4,55.9c-0.2,2.9,1.6,4.4,3.3,6.2
	c13.1,13.3,26.4,26.4,39.3,39.9c3.2,3.4,4.7,3.1,7.8-0.1c25.7-26.3,51.6-52.3,77.4-78.5c6.7-6.7,14-6.9,20.1-0.7
	c25.9,26.3,51.9,52.6,77.7,79.1c3.4,3.5,5.1,3.1,8.4-0.1c25.6-26.1,51.3-52.1,77-78c7.3-7.3,14.3-7,21.4,0.2
	c25.9,26.4,51.9,52.6,77.7,79c2.5,2.6,3.8,2.1,6.1-0.2c10.9-11.2,21.5-22.8,33.1-33.2C537.4,351.3,540.6,343.9,539.1,333z
	 M410.7,61.3C351.6,12.2,267.5,12.8,210,60.8C216.2,61.8,383.9,62.3,410.7,61.3z"/>
</svg>
