<?xml version="1.0" encoding="utf-8"?>
<!-- Generator: Adobe Illustrator 23.0.3, SVG Export Plug-In . SVG Version: 6.00 Build 0)  -->
<svg version="1.0" id="Layer_1" xmlns="http://www.w3.org/2000/svg" xmlns:xlink="http://www.w3.org/1999/xlink" x="0px" y="0px"
	 viewBox="0 0 512.2 512.2" style="enable-background:new 0 0 512.2 512.2;" xml:space="preserve">
<path style="fill:#F2597C;" d="M464.1,336.2c-14.4,46.4-28.8,92.7-42.9,139.1c-1.2,4-2.9,4.9-6.9,4.9c-105.1-0.1-210.3-0.1-315.4,0
	c-4.7,0-6.7-1.2-8.1-5.9c-14-46.1-28.4-92.1-42.7-138.2c2.2-2.1,5-1.6,7.6-1.7c13.7-0.1,27.3,0,41,0c119.1,0,238.3,0,357.4,0
	C457.4,334.5,461.1,333.6,464.1,336.2z M48,288.1c0-16.2,0-32.3,0.1-48.5c0.3-94.9,64.5-177.3,156.4-201
	c110.9-28.6,225,39,253.2,150.1c4.3,16.8,6.4,34,6.4,51.4c0,16,0,32,0.1,48c-1.4,1.5-3.2,1.6-5,1.6c-6.1-0.2-12.2,0.8-18.3-0.6
	c-1.4-0.6-1.9-1.9-2-3.2c-1.3-19.2-6.7-37.3-14-54.9c-2.2-18.2-5.5-36.2-12.8-53.2c-16.2-37.6-42.1-66.4-78.6-85.3
	c-19.7-10.2-40.7-16.2-62.9-18.1c-45.2-3.7-85.5,8.5-120.6,36.8c-34.6,28-54.9,64.6-61.3,108.8c-0.5,3.6-0.7,7.3-1.4,10.9
	c-4.5,12.2-9.5,24.1-11.6,37.1c-0.9,5.4-1.2,10.9-2.1,16.3c-0.3,1.8-0.1,3.7-2.1,4.8C63.6,289.8,55.7,291.1,48,288.1z"/>
<path style="fill:#E4B3BE;" d="M440,288.1c8,0,16.1,0,24.1,0c14.1,0.9,24.1,11.1,23.9,24.3c-0.1,13-10.2,23-24,23.8
	c-138.7,0-277.4,0-416,0c-13.8-0.8-23.9-10.8-24-23.8c0-13.3,9.9-23.4,24-24.3c8,0,16.1,0,24.1,0c1.6-1.5,3.6-1.6,5.6-1.5
	c35.4,0,70.8-0.2,106.3,0.1c29.3-0.3,58.7-0.1,88-0.1c18.7,0,37.3-0.2,56,0.1c35.5-0.3,70.9-0.1,106.4-0.1
	C436.4,286.5,438.4,286.6,440,288.1z"/>
<path style="fill:#AFD731;" d="M312.1,226.8c6-9.4,12-18.7,20.1-26.5c22.1-21.4,49.8-21.3,71.9,0.1c8.9,8.7,15.4,19.1,21.7,29.7
	c5.5,13.2,10.6,26.5,12.6,40.7c0.8,5.7,1.8,11.5,1.6,17.3c-37.3,0-74.6,0-112,0c-2.1-2.9-1.8-6.4-2.1-9.6
	c-1.5-16.1-6.2-31.3-12.8-46C312.4,230.6,311,228.9,312.1,226.8z"/>
<path style="fill:#FE3548;" d="M86.3,230.1c6.4-10.7,12.8-21.5,22.1-30c12.8-11.6,27.1-18.9,44.9-15c13.4,3,23.5,11.2,32.5,21.2
	c5.6,6.2,9.7,13.4,14.3,20.4c1.1,1.7,0.1,3.2-0.6,4.7c-7.7,16.3-12.2,33.5-13.8,51.5c-0.2,1.8-0.1,3.7-1.4,5.2c-37.3,0-74.7,0-112,0
	c0.4-19.2,5.1-37.3,12.9-54.7C85.5,232.3,85.9,231.2,86.3,230.1z"/>
<path style="fill:#FFD628;" d="M184.1,288.1c0.5-19.6,5.2-38.2,13.6-55.9c0.8-1.8,1.6-3.6,2.3-5.4c6.1-9.5,12.1-19.1,20.5-26.8
	c10-9.1,21.1-15.7,35-15.8c14.3-0.2,25.8,6.5,36,15.8c8.5,7.7,14.4,17.3,20.5,26.8c6.7,14.1,12.1,28.5,14.3,44.1
	c0.8,5.7,1.8,11.4,1.6,17.2C280.1,288,232.1,288.1,184.1,288.1z"/>
</svg>
