<?xml version="1.0" encoding="utf-8"?>
<!-- Generator: Adobe Illustrator 23.0.3, SVG Export Plug-In . SVG Version: 6.00 Build 0)  -->
<svg version="1.0" id="Layer_1" xmlns="http://www.w3.org/2000/svg" xmlns:xlink="http://www.w3.org/1999/xlink" x="0px" y="0px"
	 viewBox="0 0 341 512.2" style="enable-background:new 0 0 341 512.2;" xml:space="preserve">
<path style="fill:#FCD985;" d="M232.9,189c3.1,5.7,7.6,10.3,10.8,16c6.8,12.1,10.9,25.2,11,38.9c0.1,12.8,3.9,22.7,12.5,32.3
	c15.3,17,24.7,37.3,28.8,59.9c5.1,28.1,2.1,55.5-10.7,81c-19.3,38.4-50.1,62.6-92.6,71c-27.8,5.5-55.1,2.4-80.6-10.1
	c-33.2-16.2-55.8-42.1-67.8-77.2c-5.8-17-7.6-34.5-6-52.1c2.2-25.4,11.4-48.3,27.1-68.5c5.4-6.9,12.7-12.4,14.7-21.6
	c0.5-2.1,1-4.2,0.9-6.4c-0.4-22.2,5.5-42.3,19.9-59.6c0.9-1.1,1.2-2.4,1.3-3.7c11.3-12.7,25.3-21.2,41.5-26c2.9-0.9,5.7-1.6,8.4-2.9
	c1,1.6,2.4,1.4,4.1,1.3c8.9-0.2,17.8-1.2,26.7,0.7c1.3-1.2,2.8-0.8,4.2-0.5c16.7,3.8,31.2,11.7,43.4,23.8
	C231.6,186.4,232.5,187.6,232.9,189z"/>
<path style="fill:#D9486F;" d="M108.9,47.2c-5.7-8.7-11.5-17.3-19.3-25.2c-3.9,13.9-5.7,27.5-6.4,41.1c-1.3,25.6,0.3,51.1,5.4,76.4
	c3.4,16.8,8,33.2,13.6,49.4c1.3,0.2,2.1-0.7,3-1.5c12.2-12.1,26.5-20.7,43.5-24.5c1.6-0.4,3.3-0.9,3.5-3c-1.2-6.2-2.1-12.4-3.6-18.5
	C140.3,108,127.8,76.2,108.9,47.2z M245,22.5c-1.1,1.3-2.2,2.6-3.2,3.9c-15.3,18.4-27.2,39-36.8,60.9c-10.5,24-17.9,48.9-22.1,74.8
	c7.2,1.2,14,3.3,20.7,6.2c11.2,5,20.5,12.5,29.3,20.7C252.7,141.4,259.8,45.5,245,22.5z"/>
<path style="fill:#4E4E4E;" d="M198.6,283.1c-4.2-0.5-6.9,1.9-9.5,4.5c-6.3,6.2-12.6,12.4-18.7,18.8c-2.3,2.4-3.6,2.3-5.8,0
	c-6.6-6.9-13.3-13.5-20.1-20.2c-4.7-4.6-10.7-4.3-13.6,0.8c-2.6,4.6-0.2,8.3,3,11.5c8.5,8.7,17.1,17.3,25.8,25.8
	c2.2,2.2,4.7,4.4,8.2,3.9c1.8,0.1,3.6,0,5.1-1.5c10.3-10.4,20.7-20.7,31-31.1c2.1-2.1,2.7-4.9,1.3-7.8
	C203.9,284.8,201.7,283.5,198.6,283.1z M137.6,238.1c9.9,1.4,18.3-7.6,18.2-17.5c-0.1-9.6-7.2-17.6-18.2-17.7
	c-9-0.1-17.7,8.2-17.7,17.7C119.9,230.1,128.6,239.2,137.6,238.1z M198.6,203.1c-10.7,0-18.2,7.3-18.1,17.6
	c0.1,10.1,7.2,17.4,17.1,17.4c11.5,0,18.4-6.5,18.4-17.5C216,210.1,209.1,203.1,198.6,203.1z"/>
</svg>
