<?xml version="1.0" encoding="utf-8"?>
<!-- Generator: Adobe Illustrator 23.0.3, SVG Export Plug-In . SVG Version: 6.00 Build 0)  -->
<svg version="1.0" id="Layer_1" xmlns="http://www.w3.org/2000/svg" xmlns:xlink="http://www.w3.org/1999/xlink" x="0px" y="0px"
	 viewBox="0 0 511.4 697.6" style="enable-background:new 0 0 511.4 697.6;" xml:space="preserve">
<path style="fill:#050505;" d="M176.3,660.9c-8-2.2-13.3-7.1-16.2-15c-11.6-32-23.3-64-34.9-96c-1.1-3-2.6-5.2-5.2-7.1
	c-6.2-4.6-9.5-10.8-9.4-18.8c0.2-19.1,0-38.2,0-57.4c0-13.8,9.6-23.3,23.3-23.4c14.8-0.1,29.7-0.1,44.5,0.1c3.8,0.1,5.2-0.8,5.2-5
	c-0.2-22.4-0.1-44.7-0.2-67.1c0-8.3-2.3-10.5-10.3-10.7c-20.9-0.5-41.3-2.6-60.2-12.6c-31.3-16.5-52.1-41.5-61.2-75.8
	c-1.2-4.4-2.6-6.8-7.5-5.9c-2.2,0.4-4.5,0.2-6.7,0c-6.1-0.5-10.3-5.2-10.1-10.9c0.2-5.5,4.4-9.5,10.3-9.9
	c10.4-0.7,10.4-0.7,10.4-11.1c0-0.2,0-0.4,0-0.6c0-8.9,0-8.9-8.6-9.1c-7.5-0.2-12.3-4.4-12.1-10.7c0.1-6.2,4.6-10,12-10.1
	c1.6,0,3.3-0.2,4.9,0c3.4,0.5,4.1-1.2,4-4.2c-0.2-4.3-0.3-8.6,0-12.8c0.3-3.5-1.3-4-4.2-3.9c-2.8,0.1-5.7,0.1-8.5-0.5
	c-5.2-1.1-8.4-5.5-8.1-10.6c0.3-5.1,4.2-10,9.3-9.4c9.3,1.2,11.6-3.1,13.9-11.2c5.8-20.6,25.9-33.2,45.6-30.2
	c20.8,3.2,35.1,20.4,35.1,42.5c0.1,22.8,0,45.6,0,68.3c0,29.7,19.5,47.4,48.9,44.5c2.8-0.3,3.5-1.3,3.3-3.8c-0.1-1.6,0-3.3,0-4.9
	c-0.1-3.8,1-8.5-0.8-11.2c-1.8-2.7-6.8-0.6-10.4-1c-5.4-0.6-9.2-4.2-9.6-9.3c-0.4-5.7,2.4-9.3,7.6-11c0.9-0.3,2-0.4,3-0.5
	c10.1-0.7,10.1-0.7,10.1-10.7c0-2-0.2-4.1,0.1-6.1c0.4-3.3-1.1-4.3-4.2-4c-2.2,0.2-4.5,0.1-6.7,0c-5.7-0.3-9.6-4.2-9.9-9.6
	c-0.3-5.4,3.1-9.9,8.5-11c3.9-0.8,10.4,1.6,11.4-1.1c1.9-5,0.6-11.1,0.9-16.8c0.1-2.4-0.9-3.2-3.2-3.1c-2.6,0.1-5.3,0.2-7.9,0
	c-5.6-0.4-9.4-4.5-9.6-9.9c-0.2-5.4,3.4-9.8,8.8-10.8c0.6-0.1,1.2-0.1,1.8-0.1c10.2-0.6,10.2-0.6,10.2-10.7c0-2-0.2-4.1,0-6.1
	c0.4-3.3-1-4.3-4.1-4c-2.4,0.2-4.9,0.2-7.3,0c-5.5-0.5-9.3-4.8-9.4-10.1c-0.1-5.6,3.9-10,9.6-10.6c3.6-0.4,8.3,1.6,10.5-0.9
	c2-2.3,1.3-6.9,1.9-10.5c5.7-30.4,33.4-56.5,63.2-60.8c38.1-5.6,73.2,25.1,79.7,58.4c0.4,2,1.3,4.1,1,6c-1.3,7.9,3.2,8.1,9.1,7.9
	c7.7-0.3,12.1,3.9,12,10.5c-0.1,6.3-4.5,10.1-11.8,10.2c-8.9,0.1-8.9,0.1-8.9,8.8c0,0.6,0,1.2,0,1.8c0,9.8,0,9.8,9.6,10.1
	c6.8,0.3,11.1,4.2,11.2,10.3c0.1,6.4-4.2,10.4-11.5,10.5c-9.3,0.2-9.3,0.2-9.3,9.2c0,3.6-1,8.1,0.7,10.7c1.7,2.6,6.4,0.6,9.8,0.9
	c6.2,0.6,10.4,4.8,10.3,10.6c-0.1,5.9-4.1,9.9-10.6,10.2c-10.2,0.5-10.2,0.5-10.2,10.7c0,9.7,0,9.7,9.5,10.1
	c7,0.3,11.4,4.6,11.2,10.9c-0.2,6.1-4.3,9.7-11.4,9.9c-9.3,0.2-9.3,0.2-9.3,9.8c0,5.9,0.1,11.8-0.1,17.7c-0.1,2.8,0.6,3.7,3.7,4
	c31.2,2.5,49.8-20.8,48.8-45.5c-1-22.3-0.2-44.7-0.2-67.1c0-23.2,14.4-39.9,37.2-43.3c18.8-2.8,40.6,13.1,44.6,33.6
	c1.3,6.6,3.7,8.7,9.9,7.8c5.8-0.8,9.4,2.6,12.2,7.2c0,2.4,0,4.9,0,7.3c-1.7,5.7-5.8,7.7-11.5,7.8c-7.5,0.2-7.5,0.4-7.6,8.1
	c0,0.8,0.1,1.6,0,2.4c-0.5,4.8,1.3,7.1,6.4,6.9c6.3-0.2,10.9,2.5,12.6,8.9c0,2.4,0,4.9,0,7.3c-1.6,6.3-6.3,7.6-12,7.8
	c-6.8,0.2-7,0.5-7.1,7.4c0,1,0.1,2,0,3c-0.5,4.7,1.2,7.1,6.3,7.1c6.1,0,11.1,2.2,12.7,8.9c0,2.4,0,4.9,0,7.3
	c-1.5,6.1-5.9,7.9-11.5,7.8c-11.1-0.2-9.5,1.6-12.3,9.6c-16.8,48.6-50.7,76.7-101.6,84.1c-6.2,0.9-12.6,0.1-18.9,0.3
	c-7.2,0.3-10.1,2.9-10.2,10.1c-0.2,17.9,0,35.8-0.1,53.7c0,4.5,1.9,6.1,6.3,6c13.8-0.1,27.7-0.1,41.5,0c15.3,0.1,25.3,9.8,25.4,25.2
	c0.2,18.9,0,37.8,0.1,56.7c0,7.1-2.3,13.2-7.7,17.9c-4.8,4.1-7.4,9.4-9.5,15.3c-10.2,28.5-20.7,56.9-31,85.5
	c-1.7,4.8-3.7,9.4-7.4,13.2c-3.8,3.8-8,6.2-13.5,5.9c-50.6,0-101.3,0-151.9,0C180.7,661.4,178.4,661.9,176.3,660.9z"/>
<path style="fill:#FDFDFD;" d="M485.3,221.3c-3.1-5.5-7.9-8.1-14.1-7.1c-5.8,0.9-7.5-1.6-6.6-6.9c0.1-0.6,0-1.2,0-1.8
	c0.1-3.8-1.1-8.6,0.8-11.2c1.8-2.6,6.8-0.8,10.4-0.9c4.6-0.1,6.8-3.7,9.7-6.2C485.3,198.5,485.3,209.9,485.3,221.3z"/>
<path style="fill:#FDFDFD;" d="M485.3,262.8c-3.2-5.4-7.9-8-14.2-7c-5.8,0.9-7.5-1.6-6.6-6.9c0.1-0.6,0-1.2,0-1.8
	c0.1-3.8-1-8.5,0.8-11.2c1.8-2.6,6.8-0.8,10.4-0.9c4.6-0.1,6.8-3.7,9.6-6.3C485.3,240,485.3,251.4,485.3,262.8z"/>
<path style="fill:#4F4F4F;" d="M336.4,660.9c-0.1,0.3-0.2,0.5-0.2,0.8c0,0.1,0.1,0.3,0.1,0.4c-53.3,0-106.6,0-159.9,0
	c0-0.4-0.1-0.8-0.1-1.2C229.7,660.9,283,660.9,336.4,660.9z"/>
<path style="fill:#2EB532;" d="M443.6,258.6c-1.2,44.8-30.8,80.7-75.7,89.4c-10,1.9-20.2,1.9-30.3,1.4c0,0,0,0,0,0
	c-1.1,0.1-2.3,0.3-3.4,0.4c0,0,0,0,0,0c-18.3,6.4-27,20.3-26,38.4c0.9,16.6,0.1,33.2,0.3,49.8c0,4.3-1,5.7-5.6,4.9
	c-4.5-0.8-9.3-0.4-13.9-0.5c-0.3-0.3-0.5-0.7-0.6-1.1c-0.2,0.4-0.5,0.8-0.8,1.1c-26.2,0.1-52.5,0.1-78.7,0.3c-4.3,0-4.3-2.2-4.3-5.3
	c0.1-21.6-0.5-43.1,0.2-64.7c0.5-16.4-15-35.1-36-34c-48.9,2.7-87.9-27.3-97.7-74.6c-1.1-5.5-1.8-11.3-1.8-16.9
	c-0.2-27.9-0.2-55.7-0.1-83.6c0-14,8-21.8,22-21.8c0,0,0,0,0,0c11.3,0.3,19.4,8.4,19.5,19.7c0.1,19.5,0.5,39-0.1,58.4
	c-0.5,17.8,1.3,34.7,11.2,50.1c4.1,4.2,7.9,8.8,12.4,12.6c12.6,10.7,27.3,15.8,44,14.6c4.5-0.3,6.5,1,5.8,5.7
	c-0.3,1.8-0.1,3.7,0,5.5c0.4,5.5,4,9.2,9.2,9.6c5.7,0.4,10-2.6,11.2-8.1c0.5-2.2,0.3-4.4,0.3-6.7c0-64.5-0.1-129,0.1-193.4
	c0.1-26.8,21.1-49.4,47.1-51c8.9-0.5,17.9-0.7,26.2,3.8c0,0,0,0,0,0c16.9,6.2,30.3,24.2,30.4,42.6c0.2,60.7,0,121.4,0,182.1
	c0.1,9.8,0.1,19.5,0.2,29.3c0.1,7.4,4.6,12.4,10.7,12.2c6.2-0.2,9.9-4.7,10-12.1c0.1-8.6,0.1-8.6,8.7-8.7
	c36.8-0.1,64.2-27.6,64.3-64.6c0-23.8-0.1-47.6,0.1-71.4c0.1-11.6,9-20,20.7-20c0,0,0,0,0,0c13.7,1.2,20.7,8.5,20.8,22
	C443.8,202.1,444.3,230.4,443.6,258.6z"/>
<path style="fill:#F29900;" d="M381.4,522.6c0,4.9-3.2,3.8-5.8,3.8c-27.7,0.1-55.3,0.1-83,0.1c-51.7,0-103.3-0.1-155,0.1
	c-5.2,0-6.4-1.4-6.3-6.5c0.3-16.7,0.1-33.4,0.2-50c0-1.8-1.2-4.1,1-5.6c17-0.1,34.1-0.4,51.1-0.4c56.8,0,113.7,0,170.5,0
	c2.2,0,4.5,0.2,6.7,0.2c5.7-0.1,11.4-0.1,17.1-0.3c2.6-0.1,3.6,1,3.5,3.6C381.3,485.9,381.2,504.3,381.4,522.6z"/>
<path style="fill:#050505;" d="M240.7,99.6c1.6,0,3.3-0.1,4.9,0c6.7,0.7,10.4,4.4,10.5,10.3c0.1,6-3.4,9.6-10.2,10.5
	c-3.5,0.5-6.9,0.3-10.3-0.1c-6.6-0.7-10.4-4.5-10.3-10.4c0.1-5.7,4.2-9.8,10.6-10.4C237.4,99.5,239.1,99.6,240.7,99.6z M245.4,307.9
	c6.8-0.3,10.8-4.4,10.7-10.7c-0.1-6.1-3.9-9.8-10.6-10.1c-3.2-0.1-6.5-0.1-9.7,0c-6.4,0.2-10.5,4.3-10.6,10.2
	c0,5.7,4.3,10.1,10.4,10.6c1.6,0.1,3.2,0,4.9,0C242.1,308,243.7,308,245.4,307.9z M267.8,328.8c-7.1,0.2-11.1,3.8-11.2,10.1
	c-0.1,6.5,4.1,10.5,11.3,10.7c3,0.1,6.1,0.1,9.1,0c6.3-0.4,10.5-4.6,10.4-10.4c0-5.8-4.3-10-10.5-10.3c-1.6-0.1-3.2,0-4.9,0
	C270.7,328.7,269.2,328.7,267.8,328.8z M245.1,214.1c6.8-0.2,10.7-3.6,10.9-9.7c0.3-6.3-3.7-10.6-10.3-11c-3.6-0.2-7.3-0.3-11,0.1
	c-5.7,0.5-9.7,5.2-9.5,10.7c0.1,5.6,4.2,9.6,10.2,9.9c1.8,0.1,3.7,0,5.5,0C242.3,214.1,243.7,214.2,245.1,214.1z M276.2,255.7
	c7-0.2,11.2-4,11.3-10c0.1-6.2-4.5-10.5-11.5-10.7c-3.2-0.1-6.5-0.2-9.7,0.1c-6.3,0.6-10,5-9.7,11.1c0.3,5.8,4.1,9.3,10.4,9.6
	c1.6,0.1,3.2,0,4.9,0C273.3,255.7,274.8,255.7,276.2,255.7z M267.9,141.6c-6.9,0.2-10.8,3.5-11.2,9.3c-0.4,6.3,3.2,10.7,10.1,11.3
	c3.8,0.4,7.7,0.4,11.5-0.1c5.9-0.8,9.5-5.4,9.3-10.9c-0.3-5.6-4.3-9.3-10.5-9.6c-1.6-0.1-3.2,0-4.9,0
	C270.7,141.6,269.3,141.6,267.9,141.6z M240.6,380.9c-1.6,0-3.2-0.1-4.9,0c-5.9,0.3-9.9,3.7-10.5,8.9c-0.6,5.6,2.8,10.4,8.6,11.4
	c5.2,0.9,10.5,1.2,15.7-0.5c5.2-1.7,7.1-5.8,6.5-11c-0.6-5.1-3.6-8-8.7-8.7C245.1,380.8,242.9,381,240.6,380.9
	C240.6,381,240.6,381,240.6,380.9z"/>
<path style="fill:#F35801;" d="M364.1,553.7c-7.5,20.4-14.9,40.8-22.3,61.2c-2.6,7.2-5.4,14.5-7.8,21.8c-1.1,3.1-2.7,4.5-6.2,4.5
	c-47.8-0.1-95.6,0-143.3,0c-0.8,0-1.6-0.3-2.4-0.5c-0.3,0-0.7-0.2-1-0.3c-5.2-10.1-8.2-21.1-12.2-31.7c-7-18.8-13.7-37.8-20.7-56.6
	c-1.1-2.9-1.9-4.8,2.7-4.7c65.1,0.2,130.2,0.2,195.2,0.3c4.5-0.1,8.9-0.2,13.4-0.2C366.4,547.3,366.4,547.3,364.1,553.7z"/>
</svg>
