<?xml version="1.0" encoding="utf-8"?>
<!-- Generator: Adobe Illustrator 23.0.3, SVG Export Plug-In . SVG Version: 6.00 Build 0)  -->
<svg version="1.0" id="Layer_1" xmlns="http://www.w3.org/2000/svg" xmlns:xlink="http://www.w3.org/1999/xlink" x="0px" y="0px"
	 viewBox="0 0 576.2 576.2" style="enable-background:new 0 0 576.2 576.2;" xml:space="preserve">
<path style="fill:#050505;" d="M27.6,171.8c0-16,0-32,0-48c0-12.1,5.6-20.9,16.2-26.7c32.6-17.8,65.2-35.7,97.9-53.5
	c8.5-4.6,17.3-5.1,26.2-1.4c47.1,19.4,94.2,38.8,141.4,58.1c5,2.1,9.2,5.2,12.9,9.2c72,75.9,143.9,151.9,216.1,227.6
	c8.4,8.8,12.5,18.2,12.3,30.3c-0.5,23.2-0.1,46.5-0.1,69.7c0,11.1-4.4,19.9-13.6,26.2c-32,22.2-64,44.5-96,66.8
	c-11.1,7.7-22.3,8-33.8,1.3c-99.3-57.9-198.5-115.8-297.8-173.7c-5-2.9-9-6.7-12.1-11.7C75.1,310.4,53,274.7,30.8,238.9
	c-3.4-5.6-5-11.5-5-18.1c0.1-16.3,0-32.7,0-49C26.5,171.8,27,171.8,27.6,171.8z"/>
<path style="fill:#DDA379;" d="M155.9,52.5c2.5,0.8,5,1.4,7.3,2.3c47,19.3,94,38.7,141,58.1c2.8,1.1,5.1,2.7,7.2,4.9
	c41.2,43.5,82.3,86.9,123.5,130.4c23,24.2,46,48.4,69,72.6c8.9,9.4,17.6,18.9,26.6,28.1c2.5,2.6,1.8,3.5-0.7,5.3
	c-29.4,20.3-58.7,40.8-88.1,61.2c-4.5,3.1-9.2,6-13.5,9.5c-3.3,2.7-5.8,2.7-9.5,0.3c-60.3-39.7-120.8-79.2-181.2-118.8
	c-40.1-26.3-80.3-52.6-120.4-78.8c-2.4-1.6-4.2-3.5-5.6-5.9c-21.6-34.9-43.2-69.8-65-104.6c-2.3-3.6-1.4-5.3,1.9-7.1
	c33.7-18.3,67.3-36.7,100.9-55.1C151.4,53.7,153.6,53.3,155.9,52.5z"/>
<path style="fill:#BE8156;" d="M114.1,241.2c16.8,11,32.7,21.4,48.7,31.8c71.3,46.7,142.7,93.5,214,140.2c12.2,8,24.5,16,36.8,23.8
	c2.6,1.6,3.7,3.3,3.7,6.5c-0.2,24.4-0.2,48.9,0,73.3c0,4.5-0.8,4.9-4.7,2.6c-98.2-57.4-196.5-114.8-294.9-172
	c-3.7-2.2-5.3-4.5-5.1-8.9c1.3-30.9,0.9-61.9,1.2-92.9C113.8,244.6,113.9,243.5,114.1,241.2z M532.1,368.9
	c-32.8,22.8-65.6,45.6-98.4,68.3c-2.6,1.8-3.1,3.7-3.1,6.4c0.1,24.3,0,48.5,0.1,72.8c0,1.1-0.5,2.4,0.6,3.3c1.6,0.1,2.5-1,3.6-1.7
	c31.4-21.8,62.7-43.7,94.2-65.4c5.5-3.8,8-8.5,8-15.1c-0.1-22.4,0-44.7-0.1-67.1c0-1.3,0.5-2.7-0.6-4.2
	C534.9,367.1,533.4,367.9,532.1,368.9z M101.2,232.2c0.1-2.2-1.1-3.9-2.1-5.7c-14.9-24-29.8-48.1-44.7-72.2
	c-4.3-6.9-8.7-13.7-13.3-20.9c-0.5,1.1-0.7,1.4-0.7,1.7c-0.2,29.2,0.3,58.4-1.1,87.6c-0.2,3.5,1.3,6.3,3,9.1
	c10.7,17.4,21.4,34.8,32.1,52.1c8.2,13.2,16.4,26.5,24.7,39.7C100.3,292.9,99.8,262.5,101.2,232.2z"/>
<path style="fill:#FEE400;" d="M87.6,126c-0.3-7,2.7-12,8.2-15c19.4-10.7,38.9-21.2,58.5-31.6c5.2-2.7,10.5-2.2,15.9,0.3
	c28.4,13.1,56.8,26.1,85.3,39.1c6.4,2.9,12.7,6,19.2,8.8c5.5,2.3,10.1,5.6,14.3,9.8c28.6,28.4,57.3,56.6,85.9,84.9
	c22.7,22.3,45.3,44.7,68,67c11.5,11.3,23.2,22.6,34.7,33.9c9.8,9.6,9.1,20.9-1.9,28.9c-16,11.5-32.2,22.9-48.4,34.3
	c-7.4,5.3-14.8,5.3-22.5,0.3c-61.6-40.3-123.2-80.5-184.8-120.8c-23.2-15.1-46.3-30.3-69.5-45.4c-3.7-2.4-6.7-5.4-9.1-9
	c-16.9-25.1-33.9-50.1-50.8-75.2C88.4,133,87.3,129.5,87.6,126z"/>
<path style="fill:#050505;" d="M170.8,308.7c3.2-0.3,6.7,0.4,9.9,2.3c11.6,6.7,23.3,13.3,34.7,20.3c10.4,6.4,14,19.6,8.5,29.7
	c-6.1,11.2-19.8,15.3-31.1,9c-11.6-6.4-23-13.1-34.3-19.9c-8.7-5.2-12.9-16.5-10.1-26C151.1,314.6,159.4,308.7,170.8,308.7z
	 M345.7,409.9c-12-7.3-24.1-14.6-36.5-21.3c-9.7-5.3-23.5-1.2-29.3,7.8c-5.9,9.2-3.6,23.9,5.8,30.1c12.8,8.3,26,16.1,39.7,22.9
	c13.9,6.9,31.5-8.3,29.9-20C355.4,421,352.2,413.8,345.7,409.9z"/>
<path style="fill:#DDA379;" d="M470.9,337c0.2,1.9-0.9,3-2.4,4.1c-16.4,11.6-32.9,23.1-49.2,34.9c-2.9,2.1-4.8,1.3-7.3-0.4
	c-34.1-22.3-68.2-44.6-102.3-66.9c-49.7-32.4-99.3-64.9-149-97.2c-4.3-2.8-7.7-6.2-10.5-10.4c-15.7-23.6-31.6-47.1-47.4-70.6
	c-3.7-5.5-3.5-6.4,2.1-9.5c17.5-9.5,35.1-18.9,52.6-28.4c2.8-1.5,5.1-1.9,8.2-0.5c34.9,16.2,69.9,32.2,104.9,48.3
	c3.3,1.5,6.2,3.6,8.8,6.1c31.2,30.9,62.4,61.7,93.6,92.5c21.3,21,42.6,42,64,63c10.3,10.1,20.7,20.2,31,30.3
	C469.3,333.6,471,334.7,470.9,337z"/>
<path style="fill:#FDDE3D;" d="M204.2,359.3c-2.5,0.4-4.4-0.5-6.4-1.7c-10.5-6.2-21.1-12.2-31.6-18.4c-6.3-3.7-7.6-7.6-4.5-13.1
	c3.2-5.6,7.4-6.6,14-2.8c11.2,6.4,22.3,12.9,33.4,19.4c4.1,2.4,5.4,5.9,3.9,10.6C211.5,357.7,208.8,359.9,204.2,359.3z M339,421.1
	c-12.1-7.2-24.3-14.3-36.6-21.2c-4.5-2.5-8.5-0.9-11.3,3.7c-2.9,4.8-2.6,9,1.9,11.7c12,7.4,24.1,14.6,36.5,21.3
	c6.4,3.5,13.1-1.3,13.3-8.6C342.8,425,341.5,422.6,339,421.1z"/>
<path style="fill:#050505;" d="M265.5,205c0.5,7.5-2.7,13.1-9.4,16.2c-7.6,3.5-15.1,2.7-21.7-2.9c-7.7-6.6-15.4-13.2-22.9-20
	c-2.2-2-3.8-2.3-6.2-0.5c-4.3,3.1-8.8,6.1-13.2,9c-9.5,6.3-20.4,4.6-26.4-4.1c-6.4-9.3-4.3-20.3,5.1-27c7.8-5.6,7.8-5.6,1.1-12.3
	c-8.1-8.1-8.3-19.4-0.5-27.5c6.5-6.8,18.4-6.7,26.1,0.2c3.5,3.1,7.1,6,10.4,9.2c2.6,2.4,4.8,2.3,7.6,0.1c3.8-2.9,7.9-5.5,12-8.1
	c8.8-5.7,21.4-3.2,26.9,5.4c5.1,7.9,2.1,20.3-6.3,26c-7.4,5.1-7.4,5.1-0.6,11.1c3.9,3.4,8,6.5,11.8,10
	C263.9,193.8,265.9,199,265.5,205z"/>
<path style="fill:#FFFFFF;" d="M175.3,191.7c-0.3-2.3,1.1-3.7,2.9-4.9c4.8-3.3,9.7-6.5,14.5-9.9c5-3.5,5.3-7.8,0.8-11.9
	c-4-3.7-8.2-7.3-12.4-10.9c-3.1-2.7-3.3-5.8-0.7-8.5c2.4-2.5,5.3-2.5,8.2,0.1c5.4,5,11.2,9.7,16.6,14.7c3.6,3.3,7,3.6,11.1,0.7
	c5.9-4.2,11.9-8.1,17.8-12.3c3.2-2.2,6.1-3.2,8.8,0.7c2.9,4.2,0.7,6.6-2.7,8.8c-3.9,2.5-7.7,5.2-11.5,7.8c-7,4.8-7.3,8.3-0.8,14.1
	c7.7,6.9,15.5,13.6,23.1,20.6c3.4,3.1,3,6.2-0.5,8.9c-2.9,2.2-5.1,0.9-7.3-1.1c-9.2-8.1-18.4-16.1-27.5-24.2
	c-4.8-4.3-7.1-4.6-12.2-1.2c-6.4,4.3-12.8,8.7-19.2,13.1c-2.2,1.6-4.4,1.6-6.8,0.4C175.7,195.5,175.2,193.8,175.3,191.7z"/>
</svg>
