<?xml version="1.0" encoding="utf-8"?>
<!-- Generator: Adobe Illustrator 23.0.3, SVG Export Plug-In . SVG Version: 6.00 Build 0)  -->
<svg version="1.0" id="Layer_1" xmlns="http://www.w3.org/2000/svg" xmlns:xlink="http://www.w3.org/1999/xlink" x="0px" y="0px"
	 viewBox="0 0 576.2 576.2" style="enable-background:new 0 0 576.2 576.2;" xml:space="preserve">
<path style="fill:#03A9F4;" d="M415.1,367c-0.4,3.7-0.8,7.3-1.2,11c-6.7,3.3-8.2,9.2-9,16.1c-4.1,36.5-8.6,72.9-12.7,109.4
	c-1.5,12.9-5.8,17.1-18.7,17.1c-50.6,0-101.1,0-151.7,0c-3,0-6,0.3-8.8-1c-2.4-1.7-2.8-4.3-3.3-6.9c-10.8-56-20.9-112.2-28-168.9
	c-2.7-21.5-4.5-43.1-5.5-64.8c-0.3-6.6,0.5-13.1,1.6-19.5c4.7-7,12.2-7.2,19.3-7.6c7.3-0.3,14.4-0.8,21.4-3.1c5-1.6,9-5.3,14.2-6.4
	c20.7,1.4,38.5-16.3,39.1-38.9c0.2-8.8,0-17.6,0.1-26.4c0-2.6-0.4-5.3,1.5-7.5c2-1.3,4.3-1.2,6.5-1.2c12.7,0,25.5-0.1,38.2,0
	c7.7,0,8.6,1,8.7,8.9c0.1,7.3,0,14.6,0,21.9c0,31.2,20.9,52.3,52.1,52.4c16.1,0.1,28.1,6.8,35.1,21.6c3.1,6.7,3.3,13.8,2.5,20.9
	c-2.1,18.8-4.1,37.6-6.8,56.3C408.8,357.3,409.9,362.6,415.1,367z"/>
<path style="fill:#050505;" d="M415.1,367c-6.8-2.6-8.3-5.4-7.4-12.4c2.6-20.6,5.4-41.1,7.4-61.8c2.4-23.4-12.9-39.6-36.5-39.6
	c-31.3,0-53.3-22-53.4-53.3c0-8.4-0.1-16.9,0.1-25.3c0.1-3.5-0.7-5-4.6-5c-15.7,0.2-31.5,0.2-47.2,0.2c-3.8,3-8.3,1.6-12.5,1.6
	c-4.6,0-6.3,1.7-6.2,6.3c0.2,8.4,0.2,16.8,0,25.2c-0.3,13.9-5.7,25.7-14.9,35.9c-1.8,2.1-3.8,4.2-7,4.2
	c-11.1,7.6-23.4,10.8-36.8,10.3c-6.2-0.2-12.1,1.6-17.1,5.5c-0.9,1.4-1.9,2.8-3.1,3.9c-8.8,8.1-12.1,18.3-10.8,30
	c4.3,36.3,8.5,72.6,12.8,108.9c3.9,33.7,8,67.4,11.8,101c0.2,1.9,0.4,3.7,0.9,5.5c1.6,6.1,4.4,8.3,10.7,8.8c3.9,0.3,7.9-1,11.5,1.6
	c29.4,0.1,58.8,0.1,88.2,0.2c25.1,0,50.2,0,75.3,0c8.9,0,12.4-2.6,13.6-11.4c2.3-17.4,4.2-34.9,6.3-52.3c2.7-23,5.2-46,8-69.1
	c0.7-5.5,4.3-8,9.8-8c6,1.7,7.6,5.9,6.9,11.6c-3.1,26.4-6.2,52.8-9.3,79.2c-1.7,14.1-3.4,28.3-5.1,42.4c-1.7,14-12.9,24.4-27,24.4
	c-60,0.1-120,0.1-180,0c-14.3,0-25.5-10.1-27.2-24.1c-5.3-44.6-10.5-89.3-15.8-133.9c-3.2-27.2-6.2-54.3-9.8-81.4
	c-4.3-32.8,19-59.8,52-59.8c23.6,0,37.7-14.1,37.7-37.7c0-49.9,0-99.7,0-149.6c0-9,2.6-11.6,11.7-11.6c27.6,0,55.1,0,82.7,0
	c8.7,0,11.4,2.8,11.4,11.4c0,50.2,0,100.5,0,150.7c0,22.2,14.3,36.7,36.3,36.8c35.4,0.1,57.9,26.5,53,61.8
	c-2.7,19.7-4.8,39.4-7,59.1C423.8,363.3,421.1,366.6,415.1,367z"/>
<path style="fill:#FB9601;" d="M228.3,347.9c4.8-3.7,9-8.4,15.6-9.1c5.4,2.8,10.6,1.5,16.1-0.2c30.6-9.1,59.6-5.8,85.2,14.1
	c28.1,21.9,27.6,58.1-0.6,80.2c-14.8,11.6-31.8,17.1-50.6,17.6c-15,0.4-29.5-1.2-43.3-7.5c-16.5-7.5-29.4-18.5-35.7-36.1
	c-5.6-15.7-2.2-30,7.4-42.9C226.1,359.1,229.3,354.4,228.3,347.9z"/>
<path style="fill:#0369F4;" d="M212.7,518.6c-4.3,0.1-8.6,0.3-12.9,0.2c-6-0.1-10-3.3-10.8-9.3c-2-15-3.7-30-5.5-45.1
	c-2.8-23.8-5.5-47.5-8.3-71.3c-2.5-21-5-41.9-7.5-62.9c-1.4-11.7-2.5-23.4-4.2-35.1c-2.2-15.5,3.5-29.4,15.5-36.3
	c0,7.1-1.6,14.1-1.2,21.2c1.4,20.4,2.7,40.8,5.4,61.1c2.5,19.3,5,38.7,8.2,57.9c3.4,20.9,6.8,41.8,10.5,62.6
	c3.1,17.4,6.5,34.7,9.8,52C211.9,515.4,212.3,517,212.7,518.6z M241.5,243.8c19.3-4.8,32-21.2,32-41.3c0-10.9,0-21.7,0-32.6
	c-5.4-0.1-10.8,0-16.2-0.2c-3.3-0.2-4.1,1.2-4.1,4.2c0.2,8.2-0.2,16.4,0.1,24.6c0.5,18.2-6.4,33-20.3,44.6
	C235.6,245.2,238.7,244.5,241.5,243.8z"/>
<path style="fill:#FB9601;" d="M325.3,95.5c0,3.1-0.4,4.8-4.2,4.8c-15.9-0.2-31.8-0.2-47.7-0.3v0c-5.4,0.1-10.8,0-16.2,0.3
	c-3.3,0.2-4-1.1-4-4.2c0.2-13.6,0.1-27.2,0.2-40.8c1.2-2.3,3.3-1.2,5-1.2c20.6,0,41.2,0.1,61.8,0c3.7,0,5.3,0.8,5.2,4.9
	C325.1,71.2,325.2,83.4,325.3,95.5z"/>
<path style="fill:#E9F8FD;" d="M325.3,149.1c0,2.6-0.6,3.6-3.4,3.6c-22.3-0.1-44.6,0-66.9-0.1c-0.5,0-0.9-0.5-1.4-0.7c0,0,0,0,0,0
	c0,0,0,0,0,0c-0.1-10.7-0.2-21.5-0.4-32.2c-0.1-2.4,1.1-2.7,3-2.6c5,0.1,10,0.1,15,0.2c16.8-0.1,33.7-0.1,50.5-0.2
	c2.6,0,3.5,0.7,3.5,3.4C325.1,130,325.2,139.6,325.3,149.1z"/>
<path style="fill:#050505;" d="M228.3,347.9c2.7,4.6,2.3,8.5-1.3,12.7c-19.5,22.9-17.1,50.3,6,69.8c12.1,10.2,26.2,15.9,41.7,18
	c24.2,3.2,47-0.6,67.2-15.2c10.8-7.8,18.7-17.9,21.5-31.1c4-19-2.9-34.6-17.2-46.4c-26.9-22.2-57.5-24.8-89.9-14.2
	c-4.9,1.6-9.1,2.2-12.4-2.6c-2-7-1-10.5,4.6-12.4c38.8-13.8,75.4-10.5,107.9,15.9c34.8,28.3,33,76.5-3,103.3
	c-37.6,27.9-91.3,28.1-128.5-0.3c-17.5-13.4-28-31.1-27.8-53.9c0.2-16.5,6.8-30.5,17.7-42.6C218.8,344.4,222.2,344.3,228.3,347.9z
	 M288.9,412.1c14.1,0,28.1,0,42.2,0c6.7,0,10.4-3,10.4-8.3c0-5.3-3.7-8.5-10.3-8.6c-27.9-0.1-55.8,0-83.8,0
	c-6.6,0-10.3,3.2-10.4,8.4c-0.1,5.3,3.6,8.4,10.3,8.4C261.2,412.1,275,412.1,288.9,412.1C288.9,412.1,288.9,412.1,288.9,412.1z
	 M267.3,365.9c-4.6,0-8.5,3.9-8.5,8.6c0,4.5,3.6,8.1,8.1,8.3c4.8,0.2,8.7-3.4,8.8-8.1C275.8,370,271.9,366,267.3,365.9z
	 M310.8,365.9c-4.6,0.2-8.3,4.4-8,9c0.3,4.4,4,7.9,8.5,7.8c4.8,0,8.5-3.9,8.3-8.6C319.5,369.6,315.3,365.7,310.8,365.9z M244.9,366
	c-4.4,0.2-7.9,4.1-7.8,8.6c0.1,4.8,3.9,8.4,8.7,8.1c4.6-0.2,8-3.9,7.9-8.4C253.6,369.7,249.4,365.8,244.9,366z M297.6,374.5
	c0-4.7-3.9-8.7-8.5-8.6c-4.4,0.1-8.1,3.9-8.1,8.4c-0.1,4.9,3.6,8.5,8.5,8.4C294,382.7,297.5,379.1,297.6,374.5z M332.8,365.9
	c-4.4,0.2-8.1,4.1-8,8.5c0,4.8,3.8,8.5,8.6,8.3c4.6-0.1,8-3.7,8-8.3C341.4,369.7,337.4,365.7,332.8,365.9z"/>
</svg>
