<?xml version="1.0" encoding="utf-8"?>
<!-- Generator: Adobe Illustrator 23.0.3, SVG Export Plug-In . SVG Version: 6.00 Build 0)  -->
<svg version="1.0" id="Layer_1" xmlns="http://www.w3.org/2000/svg" xmlns:xlink="http://www.w3.org/1999/xlink" x="0px" y="0px"
	 viewBox="0 0 576.2 576.2" style="enable-background:new 0 0 576.2 576.2;" xml:space="preserve">
<path style="fill:#6C6CA8;" d="M399.2,547.1c0.1,5.6-4.6,9.8-11.3,9.9c-11.3,0.2-22.4-1.4-33.4-4c-6.7-1.6-8.8-4.5-9.1-11.4
	c-1.1-26-2.3-52-3.3-78.1c-0.1-2.1-1-3.3-2.5-4.7c-9.5-8.9-10.2-17.3-1.9-26.9c1.8-2.1,2.3-3.9,1.8-6.6c-3.4-15.7-6.6-31.5-9.7-47.3
	c-0.6-2.8-1.3-4-4.7-3.6c-8.8,1.1-17.2-0.4-24.4-6.1c-1.8-1.4-3-1.5-4.9-0.1c-7.4,5.2-15.5,7.3-24.5,5.4c-3.2-0.7-4.7,0.3-5.3,3.6
	c-3.3,16.3-6.7,32.6-10.2,48.9c-0.5,2.3,0.3,3.8,1.8,5.5c8.2,9.3,8,18.1-0.9,26.6c-2.2,2.1-3.2,4.2-3.3,7.3
	c-1,25.8-2.3,51.7-3.4,77.5c-0.2,4.9-2.4,8-7,9.7c-12,4.4-24.3,5.9-37,4.4c-6.1-0.8-9.7-4.9-9.3-10.6c0.4-5.5,4.7-9.2,11-8.5
	c6.6,0.7,13,0.9,19.5-0.6c2.5-0.6,3.8-1.5,3.9-4.4c0.4-11.8,1.4-23.6,1.8-35.3c0.3-9,0.1-18,0.1-26.9c2-6,0.9-10.8-3.5-15.7
	c-6.9-7.7-5.6-17.2,2.8-24.2c3-2.5,4.4-5.2,5.2-8.8c3.6-17.6,7.1-35.2,10.9-52.8c0.8-3.5,0.2-5.8-2.4-8.4
	c-8.6-8.1-15.2-17.6-17.8-29.3c-3.6-16.5,6.9-30.1,23.7-31c13.7-0.8,26.4,2.9,38.6,8.4c5.9,2.7,10.6,2.4,16.3-0.2
	c11.3-5.1,23-8.9,35.7-8.5c19.4,0.5,31.1,16.3,25.9,35c-3.2,11.4-10,20.4-18.7,28.1c-2.1,1.9-2.6,3.4-2,6.2
	c3.9,18.1,7.6,36.2,11.3,54.4c0.5,2.4,1.4,4,3.2,5.6c10.8,9.4,11.2,18.7,1.4,28.8c-1.8,1.8-2.3,3.6-2.2,6
	c1.1,22.6,2.2,45.3,3.2,67.9c0.1,3.4,2,4,4.6,4.4c6.3,0.9,12.6,1.3,19,1.3C394.6,537.7,399.1,541.6,399.2,547.1z M200.9,175.5
	c4.9-4,9.3-3,13.9-0.2c5.8,3.6,10.6,8.4,14.1,14.3c2.6,4.4,2.8,8.7-0.2,13.1c-3.5,5.1-2.8,10,1.6,13.5c4.1,3.3,9.7,2.9,13.4-1.8
	c2.4-3.1,4.6-2.9,7.7-2c8.7,2.5,17.6,3.8,26.5,4.8c11.4,1.2,11.2,1,11.3,12.3c0,4.1-1.2,5-5.1,4.8c-16.9-0.8-33.4-4.1-49.7-8.5
	c-6.5-1.7-11.2,0.6-12.9,6.3c-1.6,5.5,1.4,10.3,7.7,12.1c17,4.8,34.3,7.9,51.9,8.9c9.6,0.6,7.8-0.2,8,8.5c0,9.5,0,9.5-9.6,8.1
	c-8.5-1.3-16.9-3.2-25.2-5.7c-6.9-2.1-11.8,0.2-13.6,5.9c-1.8,5.7,1,10.3,8,12.5c11.5,3.6,23.1,6.2,35.2,6.8c3,0.1,5.3,0.3,5.3,4.5
	c-0.1,7.2,3.9,11.3,9.8,11.1c5.5-0.1,9.2-4.3,9.2-11.2c0-3.5,1.3-4.4,4.5-4.6c11.8-0.6,23.3-3.3,34.6-6.8c6.5-2,9.4-6.9,7.7-12.2
	c-1.9-5.8-6.9-8-13.6-6.1c-7.4,2.1-14.8,4.1-22.4,5.2c-10.8,1.4-10.5,1.5-10.9-9.2c-0.2-5.5,1.6-6.7,6.9-7
	c17.4-0.8,34.6-3.9,51.3-8.8c6.4-1.9,9.6-6.9,8-12.1c-1.7-5.5-6.9-8.2-13.1-6.4c-13,3.7-26.2,6-39.6,7.8
	c-13.4,1.8-13.6,1.7-13.5-11.6c0-3.4,1.1-4.6,4.4-4.7c11.1-0.3,21.9-2.5,32.6-5.3c2.7-0.7,4.4-0.2,6.3,1.9c4.6,5.1,9.4,5.7,13.8,2.2
	c4.4-3.5,4.9-8,1.2-13.9c-2.5-4.1-2.6-8.1-0.2-12.2c3.1-5.3,7.2-9.6,12.1-13.2c5.4-3.9,10.6-5.8,16.8-1c4.1,3.2,9.3,1.8,12.5-2.1
	c2.9-3.6,2.7-8.7-0.6-12.4c-3.6-3.9-8.2-5.8-13.4-6.2c-20.5-1.8-39.3,11.4-45.6,32.4c-1,3.2-2.4,4.6-5.4,5.4
	c-10.2,2.7-20.4,4.5-30.9,5.6c-3,0.3-3.4-0.7-3.6-3.2c-0.4-7.4-3.9-11.5-9.5-11.5c-5.6,0-9.2,4.1-9.5,11.4c-0.1,2.9-0.8,3.9-3.9,3.6
	c-10.6-1.2-21.1-2.9-31.5-5.5c-3.6-0.9-5.3-2.6-6.6-6.4c-5.4-16.9-17-27.5-34.4-31.2c-8.2-1.7-16.5-1.3-23.4,4.7
	c-4.4,3.8-4.9,9.5-1.5,13.6C191.1,177.9,196.7,178.9,200.9,175.5z M242.5,134.5c2.1,1.1,2.9,2.4,2.9,4.8
	c-0.1,8.5,3.9,14.9,10.1,20.4c7.5,6.7,16.5,11,25.3,15.4c9.6,4.8,20.2,3.7,29.3,1.4c12.4-3.1,23.6-10.4,32.8-19.9
	c4.4-4.5,7.8-9.7,7.3-16.4c-0.2-3.1,1.1-4.7,3.7-6.1c8.9-4.6,12.7-12.2,12.7-22.1c0-11.8,0-23.6,0-35.4c0-9-2.2-17.5-7.3-25
	c-14.4-21.1-35.4-31.3-60.1-32.2c-22.2-0.8-41,9-56.4,24.9c-9,9.3-14,20.2-13.5,33.4c0.2,5.2,0,10.5,0,15.7c0,0,0,0,0,0
	c0,6,0.2,12,0,18C228.9,122,233.2,129.7,242.5,134.5z M184.1,295c0.5-3.9,1.8-6.2,5.4-8.2c9.2-5,11.8-13.5,7.2-22.9
	c-1.9-3.8-1.6-6.8-0.3-10.5c6-16.5,11.8-33.1,17.6-49.7c2.3-6.6,0.5-11.4-4.8-13.6c-5.8-2.3-10.8,0.4-13.3,7.4
	c-6.1,17.1-12.2,34.1-18.2,51.2c-0.8,2.4-2.1,4-4.6,5.2c-12.6,6-15.5,15-8.9,27c1.2,2.2,1.8,4.2,1.4,6.8c-2.1,14-4.1,28.1-6,42.2
	c-0.4,3.1-1.9,4.8-4.8,6.1c-8.9,3.9-14.8,10.7-17.1,20.3c-1.3,5.3,1.9,10.2,7.1,11.6c5,1.3,9.8-1.3,11.6-6.3
	c0.4-1.1-0.2-2.7,1.7-3.6c4.6,5.2,9.8,5,15.7,0.6c0.1,1.5,0.2,2.1,0.2,2.6c-0.5,6.7,3,11.5,8.9,11.9c5.8,0.4,9.9-4,10-10.9
	c0.2-10-4.7-17.5-12-23.6c-1.6-1.3-2.9-2.3-2.5-5C180.5,321,182.4,308,184.1,295z M457.5,352.3c-3-7.2-8-12.8-15.2-15.8
	c-3.7-1.5-5-3.8-5.5-7.4c-1.4-10.2-3.1-20.3-4.5-30.5c-1-7.5-2.3-14.5,1.8-22.1c4.2-7.7,1.5-16-6.3-19.7c-7.3-3.5-9.6-9.1-11.7-15.7
	c-1.3-3.9-2.7-7.8-4.1-11.6c-4-11.1-7.8-22.2-11.9-33.2c-2.1-5.7-6.9-7.9-12-6.2c-5.3,1.8-7.7,6.8-6,12.7c0.3,0.9,0.6,1.8,0.9,2.6
	c5.9,16.5,11.7,33.1,17.8,49.6c1,2.8,1.1,5.1-0.3,7.9c-5.2,10.7-2.6,19,7.6,24.6c2.5,1.4,3.8,2.8,4.2,5.8c1.7,13,3.6,25.9,5.8,38.8
	c0.5,3.1,0.2,4.9-2.5,7c-7.3,5.6-11.6,13.2-12,22.5c-0.3,6.3,4.1,11.4,9.7,11.6c5.4,0.1,9.5-4.5,9.7-10.9c0-0.9,0-1.8,0-3.4
	c5.9,4.4,11.2,4,16.3-1.4c2.4,9.1,6.9,12.5,13.1,10.5C458.5,366.1,460.6,359.9,457.5,352.3z"/>
<path style="fill:#E4E9F4;" d="M348.9,335.4c-5.4,10.6-14.5,17.1-25.3,20.9c-6.9,2.4-11.5-0.5-15.3-8.5c-3.7-7.6-9.9-9.8-15.8-5.6
	c-1.9,1.4-2.7,3.5-3.8,5.5c-4.9,9.4-10.3,11.2-19.7,6.2c-8.9-4.7-16.7-10.8-21.1-20.2c-4.4-9.1-0.4-15.3,11.1-15.1
	c9,1,18.9,4.7,28,9.7c8.2,4.6,15.2,4.1,23.1-0.2c8-4.4,16.7-7.6,25.8-9.2c4.8-0.8,9.5-1,12.8,3.3C351.9,326.4,351.1,331,348.9,335.4
	z M253.5,118.3c7.8,0.1,11,3.7,11,11.6c0,2.8,0.1,5.6,0,8.4c0,2.4,0.4,4.9,2.3,6.1c9.2,6,17.1,15.4,30.2,12.3
	c1.2-0.3,2.6,0.1,3.8,0.6c3,1.2,5.6,1,8.4-0.8c2.5-1.6,5.2-3.1,7.9-4.2c10.3-4.2,15.8-10.8,14.2-22.9c-0.9-7.2,3.6-10.8,10.9-11.2
	c1.6-0.1,3.9,0.7,4.6-1.2c1.6-4.3,0.9-8.9,0.5-13.3c-0.2-1.7-1.7-0.7-2.7-0.3c-5.4,2-9.4,0.1-12.6-4.4c-2.6-3.7-6.8-2.3-10.3-3
	c-2.9-0.6-2.2,2.9-3.2,4.4c-2.3,3.6-5.3,5.8-9.8,5.3c-4.1-0.4-7.2-2.7-8-6.8c-1-5.3-0.3-10.4,3.6-14.7c5.9-6.3,13.3-8.2,21.5-7.2
	c7.8,0.9,15.2,3.4,21.8,9.5c-0.5-5.6,1-10.2-0.8-14.8c-0.8-9-5.6-15.8-12.5-21.1c-21.3-16.4-51.9-16.2-72.8,0.7
	c-8.5,6.9-13.8,15.7-12.7,27.3l0,0c0,2,0,4,0,6.8c3.8-2.4,6.9-4.7,10.6-6.1c3.7-1.3,7.6-1.9,11.5-2.5c13.6-2.2,24.7,6.9,24.3,19.5
	c-0.1,5.1-2.8,8.2-7.5,9.1c-4.7,1-8.4-1-10.6-5.4c-2.1-4.3-10.1-5.8-13-1.7c-4,5.7-8.7,7.2-15.5,3.9c0,4.1,0.2,7.7-0.1,11.1
	C248.3,117.3,249.8,118.3,253.5,118.3z"/>
<path style="fill:#6D6DA8;" d="M307.4,119.7c0,1.3,0.1,2.6,0,3.9c-0.4,5.3-3.8,8.9-8.7,9.2c-4.8,0.3-9.6-3.3-10.3-8.4
	c-0.4-2.9-0.4-6-0.1-8.9c0.5-5.4,5.2-9.6,10.1-9.4c4.8,0.2,8.8,4.8,9,10.3C307.4,117.5,307.4,118.6,307.4,119.7z"/>
</svg>
