<?xml version="1.0" encoding="utf-8"?>
<!-- Generator: Adobe Illustrator 23.0.3, SVG Export Plug-In . SVG Version: 6.00 Build 0)  -->
<svg version="1.0" id="Layer_1" xmlns="http://www.w3.org/2000/svg" xmlns:xlink="http://www.w3.org/1999/xlink" x="0px" y="0px"
	 viewBox="0 0 582 406" style="enable-background:new 0 0 582 406;" xml:space="preserve">
<path style="fill:#050505;" d="M19.9,263.7c2.9-4.5,7-6.5,12.2-7.7c43.2-9.7,86.7-17.4,130.6-22.6c5.2-0.6,10.5-1.2,15.7-1.5
	c2.9-0.2,3.7-1.3,3.9-4.2c2-32.6,8.2-64.4,19.2-95c8.8-24.4,20.7-47.2,39.7-65.6c10.8-10.5,23.4-17.9,38.3-20.7
	c18.7-3.5,35.1,2.2,49.9,13.1c20.2,15,32.7,35.9,42.7,58.4c12.1,27.3,18.5,56.1,23,85.5c1.2,8,1.7,16.1,2.2,24.1
	c0.2,3.2,1.3,4.1,4.3,4.4c49.9,4.7,99,13.6,147.9,24.5c8.8,1.9,12.1,7.5,9.2,15.9c-8.3,24.6-17.5,48.8-33.9,69.5
	C514.3,355,501.4,362,483.7,362c-129.2-0.4-258.3-0.4-387.5,0c-17.7,0.1-30.6-7-41.2-20.1c-13.8-17.2-22.3-37.2-29.9-57.6
	c-1.8-4.7-3.5-9.5-5.2-14.2C19.9,267.9,19.9,265.8,19.9,263.7z"/>
<path style="fill:#FEBF59;" d="M211.8,172.8c2.3-9.8,4.7-18.7,8.4-28.9c4.7,5,8.9,9.7,13.2,14.1c6.4,6.4,11.6,6.3,18.1-0.1
	c3.9-3.8,7.9-7.5,11.5-11.6c2.6-3,4.1-2.4,6.4,0.2c3.4,3.8,7.1,7.3,10.8,10.9c7.3,7.2,12.2,7.3,19.3,0.2c3.9-3.8,7.8-7.6,11.5-11.6
	c1.9-2.1,3.1-2.5,5.2-0.1c4.1,4.5,8.6,8.8,13,13.1c5.3,5.1,11,5.2,16.3,0.1c4.8-4.6,9.3-9.4,14.3-14.5c3.6,9.6,5.8,18.5,8.3,28.3
	c-7.6-4.1-12.9-1.2-17.7,4.2c-3.4,3.8-7.3,7.2-10.7,10.9c-1.8,1.9-2.9,1.8-4.6,0c-3.8-4.1-8-7.9-11.8-12c-6.4-6.7-12.1-6.9-18.5-0.6
	c-4,3.9-8.1,7.8-11.9,12c-2.1,2.3-3.4,2.8-5.7,0.2c-3.7-4.2-7.9-8-11.8-12c-5.9-6.1-11.8-6.2-17.8-0.3c-4.3,4.2-8.6,8.3-12.6,12.7
	c-1.9,2.1-3.1,1.9-5-0.1c-3.8-4.1-7.9-8-11.8-12C222.8,170.2,219.3,169.5,211.8,172.8z"/>
<path style="fill:#E61F62;" d="M293.1,246.9c27.9,0.2,58.8,1.4,89.6,4.1c50.2,4.4,99.9,12.3,149.1,23.1c3,0.7,3.8,1.6,2.6,4.4
	c-2.1,4.8-2.8,11.3-6.4,14.1c-3.8,2.9-9.9-0.7-14.9-1.7c-30.5-6.1-61.1-10.8-91.9-14.7c-43.4-5.4-87.1-8-130.8-8.1
	c-40.2-0.1-80.4,2.2-120.4,6.8c-38,4.3-75.8,10.1-113.2,18.2c-3.6,0.8-5.9,0.4-7-3.6c-1.1-3.7-2.6-7.3-4.2-10.8
	c-1.5-3.2-0.3-4,2.8-4.7c44.8-9.8,89.9-17.2,135.5-21.8C219.2,248.8,254.6,247,293.1,246.9z M207.8,340.3c13.4,0,26.1,0,39.5,0
	c-6.7-12.4-13.2-24.2-20.3-37.2C220.4,315.9,214.1,328,207.8,340.3z M332.6,340.4c13.6,0,26.3,0,39.6,0
	c-6.5-12.5-12.7-24.6-19.3-37.3C345.9,315.9,339.3,328,332.6,340.4z M271.4,340.4c12.6,0,24.5,0,37.1,0c-6.1-12.5-12-24.5-18.5-37.8
	C283.5,315.8,277.5,327.9,271.4,340.4z M413.8,308.6c-6,10.9-11.6,21.2-17.4,31.8c11.3,0,21.9,0,33.3,0
	C424.3,329.7,419.2,319.5,413.8,308.6z M166,308.7c-5.4,10.9-10.5,21.1-15.9,31.8c11.4,0,22.1,0,33.4,0
	C177.5,329.6,171.9,319.4,166,308.7z M125.4,340.4c-4.9-7.5-9.5-14.5-14.4-22.1c-2.5,7.6-4.7,14.5-7.2,22.1
	C111.2,340.4,117.9,340.4,125.4,340.4z M454.4,340.7c6.8,0,12.6-0.1,18.4,0c2.1,0,3.5-0.2,2.6-2.8c-2.1-6.3-4.2-12.6-6.5-19.5
	C463.9,326,459.3,333,454.4,340.7z"/>
<path style="fill:#03A9F4;" d="M289.9,66.4c9.5-0.1,17.9,3.2,25.5,8.7c16.3,11.8,26.5,28.3,35.1,46c0.9,1.9,0.3,2.9-0.9,4.1
	c-3.4,3.3-6.8,6.6-10,10.1c-1.7,1.8-2.7,1.4-4.2-0.2c-4-4.2-8.2-8.2-12.2-12.4c-6.1-6.3-12-6.5-18.2-0.4c-4.3,4.2-8.5,8.4-12.6,12.7
	c-1.7,1.8-2.8,1.9-4.6,0c-4.1-4.4-8.3-8.5-12.5-12.8c-5.6-5.7-11.7-5.8-17.5-0.2c-3.9,3.8-8,7.5-11.5,11.6c-3,3.6-5.1,3.2-7.6-0.2
	c-0.7-1-1.7-1.8-2.6-2.6c-8-8-7.9-8-2.3-18.1c7.6-13.8,16.3-26.6,29.1-36.3C270.8,70.3,279.6,66.4,289.9,66.4z M373.1,229.2
	c1.9,0.1,3.5,0.6,3.3-2.3c-0.8-9.6-0.4-19.5-10-25.7c-1.2-0.7-2.1-1.9-3-3c-1.5-1.9-2.7-2-4.5-0.1c-4.3,4.6-8.8,9.1-13.4,13.4
	c-5.3,5.1-11,5.1-16.3,0c-4.6-4.4-9-8.8-13.4-13.4c-1.7-1.8-2.7-1.9-4.5,0c-4.3,4.6-8.8,9.1-13.4,13.4c-5.3,5.1-11,5.1-16.3,0
	c-4.6-4.4-9.1-8.8-13.4-13.4c-1.7-1.9-2.8-1.8-4.5,0c-4.2,4.5-8.6,8.8-13,13.1c-5.7,5.6-11.3,5.6-17,0c-4.4-4.3-8.8-8.6-13-13.1
	c-1.8-1.9-2.7-1.6-4.5,0c-7.6,6.5-13.5,13.7-12.6,24.5c0.1,0.7-0.1,1.4-0.2,2.1c-0.7,3.5,0,4.7,4.2,4.4c33.1-2.5,66.3-3.6,99.5-3
	C329.3,226.4,351.2,227.7,373.1,229.2z M517.2,315.8c0.6-1,1.7-2.2-0.6-2.6c-9.4-1.9-18.7-3.7-29-5.8c3.5,10.9,6.7,20.8,10.1,31.3
	C506.6,332.3,512.2,324.3,517.2,315.8z M63.7,313.1c-2.4,0.4-1.8,1.5-1,2.8c4.5,7.7,9.7,14.9,16.6,20.8c2.1,1.7,3,1.6,3.8-1.1
	c2.8-9,5.7-17.9,9-28.2C82.1,309.4,72.9,311.3,63.7,313.1z M272.5,290c-9.6,0-18.7,0-28.6,0c5.2,9.6,9.9,18.3,15.1,27.7
	C263.8,308,268.2,298.9,272.5,290z M336,289.8c-10.1,0-19.2,0-28.8,0c4.4,9.1,8.9,18.1,13.7,27.9C326,308.2,330.8,299.4,336,289.8z
	 M185.6,294.4c-2.1,0.2-2.9,0.9-1.8,2.9c3.8,6.8,7.5,13.6,11.6,20.9c4.6-9,8.8-17.2,13.3-25.8C200.6,293.1,193.1,293.8,185.6,294.4z
	 M395.7,297.8c1.5-2.6,0.7-3.3-1.9-3.5c-7.3-0.5-14.6-1.2-22.6-1.9c4.4,8.6,8.6,16.8,13.3,25.9C388.5,310.9,392,304.3,395.7,297.8z
	 M125.5,302c3.9,5.9,7.4,11.3,11.5,17.4c3.5-7,6.6-13.2,10.1-20.2C139.4,299.4,132.8,301,125.5,302z M432.8,299.4
	c3.5,7,6.7,13.2,10.1,20c4-6.2,7.5-11.6,11.3-17.4C446.9,301.1,440.4,299.2,432.8,299.4z"/>
</svg>
