<?xml version="1.0" encoding="utf-8"?>
<!-- Generator: Adobe Illustrator 23.0.3, SVG Export Plug-In . SVG Version: 6.00 Build 0)  -->
<svg version="1.0" id="Layer_1" xmlns="http://www.w3.org/2000/svg" xmlns:xlink="http://www.w3.org/1999/xlink" x="0px" y="0px"
	 viewBox="0 0 591.4 591.4" style="enable-background:new 0 0 591.4 591.4;" xml:space="preserve">
<path style="fill:#050505;" d="M296.3,571.7c-44.9,0-89.9,0-134.8,0c-9.8,0-12.7-2.8-12.7-12.6c0-10.2,0-20.4,0-30.5
	c0-9.1,3-12.4,12-12c5,0.2,7.1-0.8,6.6-6.4c-0.6-6.3-0.2-12.7-0.1-19c0-8.4,3.2-12,11.3-11.5c6.2,0.4,7.3-1.7,7.2-7.5
	c-0.3-41.7-0.2-83.3,0-125c0-4.5-0.6-6.3-5.7-6.1c-10.1,0.5-12.8-2.6-12.8-12.9c0-6.5-0.3-13.1,0.1-19.6c0.2-3.7-1.1-4.8-4.5-4.3
	c-1.3,0.2-2.7,0.1-4,0c-6.4-0.2-9.9-3.7-10-10.1c-0.1-11.7-0.1-23.4,0-35.1c0.1-6.4,3.6-9.9,10-10c7.7-0.1,15.4-0.2,23,0
	c3,0.1,3.9-0.8,3.8-3.8c-0.2-7.1,0.1-14.2-0.1-21.3c-0.2-6,2.3-9.6,7.7-12c23.6-10.6,47-21.4,70.6-32c3.4-1.5,4.9-3.1,4.8-7.1
	c-0.3-19-0.3-38,0-57c0.1-4.5-1.3-5.4-5.4-5.2c-6.9,0.3-13.8,0.1-20.7,0.1c-7.2-0.1-10.8-3.4-10.8-10.4c-0.1-11.5-0.1-23,0-34.6
	c0.1-6.7,3.6-10.2,10.4-10.3c7.7-0.1,15.4-0.1,23,0c2.8,0.1,3.6-0.8,3.5-3.6c-0.2-7.7-0.1-15.4,0-23c0.1-6.8,3.6-10.3,10.3-10.3
	c11.5-0.1,23-0.1,34.6,0c6.8,0.1,10.3,3.5,10.4,10.3c0.1,7.5,0.2,15,0,22.5c-0.1,3.2,0.7,4.3,4.1,4.2c7.5-0.3,15-0.2,22.5-0.1
	c6.8,0.1,10.3,3.5,10.4,10.3c0.1,11.5,0.1,23,0,34.6c-0.1,7-3.6,10.4-10.8,10.5c-7.3,0.1-14.6,0.2-21.9-0.1c-3.1-0.1-4.3,0.5-4.3,4
	c0.2,19.8,0.2,39.6,0,59.3c0,3.5,1.8,4.6,4.3,5.7c23.2,10.5,46.3,21.1,69.6,31.4c6.7,3,9.8,7.1,9.3,14.6c-0.5,6.5,0,13.1-0.2,19.6
	c-0.1,3,0.8,3.9,3.8,3.8c7.5-0.2,15-0.1,22.5-0.1c7.1,0.1,10.6,3.5,10.6,10.6c0.1,10.9,0,21.9,0,32.8c0,8.7-3.2,12.2-11.7,11.7
	c-5.4-0.3-7.4,0.9-6.9,6.7c0.6,6.3,0.2,12.7,0.1,19c0,7.9-3.3,11.2-11.1,11.3c-7.4,0.1-7.3,0.1-7.3,7.6c0,41.5,0.1,83-0.1,124.4
	c0,4.7,0.6,6.7,6,6.4c9.7-0.5,12.5,2.7,12.5,12.6c0,6.5,0.3,13.1-0.1,19.6c-0.2,4,1.2,5.1,4.8,4.5c1.1-0.2,2.3-0.1,3.5,0
	c6.7,0.2,10.2,3.6,10.2,10.4c0.1,11.1,0,22.3,0,33.4c0,8.2-3.3,11.5-11.5,11.5C386.9,571.7,341.6,571.7,296.3,571.7z"/>
<path style="fill:#E61F62;" d="M383.2,341.1c-37.8,0.2-75.6,0.1-113.4,0.1c-20.3,0-40.7,0-61,0c-2.5,0-4.8-0.5-4.7,3.5
	c0.2,44.1,0.2,88.3,0.3,132.4h0c-0.1,4.4,3.4,2.2,5,2.3c39.9,0.1,79.8,0.1,119.8,0.1c18.2,0,36.5,0,54.7,0c2.5,0,4.8,0.5,4.8-3.5
	c-0.2-39.9-0.2-79.8-0.3-119.8c0.1-3.3-0.1-6.6,0.3-9.8C389.1,342,387.4,341.1,383.2,341.1z M368.2,387.8c-0.1,8,0,16.1,0,24.1
	c0,12.3,0.1,24.5-0.1,36.8c-0.1,7.8-2.6,10.1-10.5,10.4c-2.1,0.1-4.2,0-6.3,0c-27.2,0-54.4,0-81.6,0c-3.2,0-6.6-0.8-9.2,2
	c0,0,0,0-0.1,0c-0.2-0.4-0.5-0.7-1-1.2c-7.6-1.7-15.3-0.6-22.9-0.8c-10-0.2-12.2-2.2-12.3-12.2c-0.1-20.3,0-40.6,0-61
	c0-5.4-0.2-10.7,0.1-16.1c0.4-5.6,2.7-7.9,8.2-8.5c1.7-0.2,3.4-0.1,5.2-0.1c38.9,0,77.8,0,116.7,0c1.9,0,3.8,0,5.7,0.2
	c4.7,0.5,7.2,3.1,7.7,7.8c0.3,3-0.1,6.1,0.7,9.2c0.5,1,0.9,1.5,1.4,1.8C367.9,382.5,368.3,385.2,368.2,387.8z"/>
<path style="fill:#E61F62;" d="M167.1,280.3c0.2-12.8,0.1-12.8,12.8-12.8c79.7,0,159.4,0.1,239.1-0.1c5.4,0,6.6,1.5,6.5,6.6
	c-0.4,11.9-0.1,11.9-11.9,11.9c-39.2,0-78.4,0-117.5,0c-41.1,0-82.2-0.1-123.3,0.1C168,286,167,284.7,167.1,280.3z M419.4,534.7
	c-79.6,0.2-159.2,0.1-238.9,0.1c-13.4,0-13.2,0-13.5,13.3c-0.1,4.5,1.3,5.3,5.5,5.3c41.2-0.2,82.5-0.1,123.7-0.1
	c38.8,0,77.5,0,116.3,0c12.8,0,12.5,0,12.9-12.7C425.6,535.6,424.1,534.7,419.4,534.7z"/>
<path style="fill:#03A9F4;" d="M204.1,243.1c0.2-0.9,0-1.9,0-2.9c0-14,0-14,13.8-18.8c1.3-1.3,2.8-2,4.7-2.2h0c0,0,0,0,0,0
	c23.8-10.9,47.5-21.7,71.3-32.7c1.7-0.8,3.1-0.8,4.9,0c9.5,4.5,19,8.8,28.6,13.2c15.8,7.2,31.6,14.5,47.3,21.7c0.2,0,0.4,0,0.6,0.1
	c13.7,5.2,16.1,9.9,13.3,25.1c-0.3,1.6-0.7,2.5-2.4,2.5c-1.2,0-2.3,0-3.5,0c-57.6,0-115.1-0.1-172.7,0.1
	C205.1,249.1,203.3,247.8,204.1,243.1z M192.1,322.9c67.4-0.2,134.8-0.1,202.2-0.1c12.6,0,12.4,0,12.7-12.5c0.1-4.8-1.2-6.1-6-6
	c-34.8,0.2-69.5,0.1-104.3,0.1c-33,0-66.1,0-99.1,0c-12,0-11.7,0-12.1,11.9C185.4,321.5,186.9,322.9,192.1,322.9z M400.6,497.8
	c-34.8,0.2-69.5,0.1-104.3,0.1c-33.4,0-66.8,0-100.2,0c-10.4,0-10.4,0-10.4,10.7c0.1,9-1.1,7.8,7.5,7.8c67.2,0,134.4,0,201.6,0
	c12.1,0,11.8,0,12.3-12.4C407.3,498.5,405.3,497.8,400.6,497.8z"/>
<path style="fill:#FB9601;" d="M342.5,79.3c-0.2,13,0,13-12.9,13c-1.9,0-3.8-0.1-5.7-0.1c-17.4-0.2-18.7,1.2-18.5,18.5c0,0,0,0,0,0
	c0,0,0,0,0,0c0,19.3,0,38.5,0,58.8c-6.2-4.3-12-4.3-18.2,0c0-16.1,0-31.1,0-46.2c0-6.9,0-13.8-0.1-20.7c-0.1-6.8-3.5-10.2-10.3-10.3
	c-7.1-0.1-14.2-0.2-21.3,0c-3.8,0.1-5.4-0.7-5.4-5c0-13.5-0.2-13.5,13.4-13.5c4.6,0,9.2,0.1,13.8,0c6.1-0.2,9.6-3.6,9.7-9.7
	c0.1-7.3,0.2-14.6,0-21.9c-0.1-3.8,0.7-5.4,5-5.4c13.5,0,13.5-0.2,13.5,13.4c0,4.6-0.1,9.2,0,13.8c0.2,6.1,3.6,9.6,9.7,9.7
	c7.1,0.2,14.2,0.1,21.3,0.2c0,0,0,0,0,0c0,0,0,0,0,0C340.8,73.2,342.6,74.5,342.5,79.3z"/>
<path style="fill:#050505;" d="M370.2,380.3c-0.1,22.8-0.1,45.6-0.2,68.4c0,9.4-3,12.3-12.4,12.3c-32.4,0.1-64.7,0.1-97.1,0.2
	c-9-0.1-18-0.1-27-0.2c-7.5-0.1-11-3.4-11-10.8c0-26.6-0.1-53.3,0-79.9c0-7.1,3.5-10.6,10.6-10.6c42,0,84,0,126,0
	c7.5,0,10.8,3.4,10.9,10.9C370.1,373.8,370.2,377.1,370.2,380.3z"/>
<path style="fill:#FFFFFF;" d="M351.7,381.5c0.1-2.8-0.8-3.5-3.5-3.5c-34.6,0.1-69.1,0.1-103.7,0c-2.8,0-3.6,0.8-3.5,3.5
	c0.1,19.2,0.1,38.4,0,57.6c0,2.8,0.8,3.5,3.5,3.5c18.8-0.2,37.6-0.2,56.4-0.2c15.7,0.1,31.5,0.1,47.2,0.2c2.8,0,3.6-0.8,3.6-3.5
	c-0.2-12.3-0.2-24.6-0.2-36.8C351.5,395.4,351.4,388.4,351.7,381.5z"/>
</svg>
