<?xml version="1.0" encoding="utf-8"?>
<!-- Generator: Adobe Illustrator 23.0.3, SVG Export Plug-In . SVG Version: 6.00 Build 0)  -->
<svg version="1.0" id="Layer_1" xmlns="http://www.w3.org/2000/svg" xmlns:xlink="http://www.w3.org/1999/xlink" x="0px" y="0px"
	 viewBox="0 0 594 593.9" style="enable-background:new 0 0 594 593.9;" xml:space="preserve">
<path style="fill:#006ED8;" d="M39.5,197.2c3.8-12.2,11-22.8,15.7-34.6c7.7-19.3,17.1-37.9,25.9-56.7C89,88.8,96,71.2,105,54.6
	c2.6-4.9,4.1-10.2,8.4-14.3c5.5-5.3,11.9-7.7,19.3-7.7c116.1,0,232.2-0.1,348.3,0c9.6,0,18.9,1.5,25.2,10.1c2,2.7,3.5,5.4,4.3,8.7
	c5.2,23.6,10.6,47.1,15.7,70.7c3.8,17.2,7.2,34.5,10.9,51.8c5.4,24.9,10.9,49.8,16.3,74.8c0.7,3,2.4,5.7,2.2,8.9
	c-2.3,1.8-4.8,1-7.2,0.7c-34.5-3.9-69-8.1-103.6-12.1c-44.9-5.2-89.8-10.6-134.6-15.9c-45.3-5.3-90.5-10.8-135.8-16
	c-41.4-4.8-82.8-9.9-124.3-14.5C46.5,199.5,42.6,199.7,39.5,197.2z"/>
<path style="fill:#E8E9EC;" d="M39.5,197.2c15.7,1.7,31.4,3.4,47.1,5.2c21.4,2.5,42.9,5.1,64.3,7.6s42.9,4.9,64.3,7.5
	c21.6,2.5,43.2,5.1,64.8,7.6c21,2.5,42.1,5,63.1,7.4c21.8,2.6,43.6,5,65.4,7.6c21.4,2.5,42.8,5.2,64.3,7.7c21,2.5,42.1,4.9,63.2,7.4
	c6.5,0.8,13,1.6,19.5,2.4c0.3,21.6-4.6,42-15.4,60.7c-8.3,14.4-16.3,17.6-32.7,14.7c-13.6-2.4-27.2-4.7-40.8-7
	c-4.3,1.1-8.3,0.6-11.8-2.4c-36-6.6-72-13.1-108.1-19.7c-44-8-87.9-16.1-131.9-24c-41.1-7.5-82.3-14.8-123.4-22.4
	c-16.4-3-31.7-8.9-43-21.9C38.7,224.5,36.2,211.5,39.5,197.2z"/>
<path d="M454.8,323.6c3.9,0.8,7.9,1.6,11.8,2.4c-1.1,8-2.1,16.1-3.3,24.1c-0.3,1.8-0.7,3.2,1.5,4.3c13.8,7.5,20.4,20.5,23.8,34.7
	c12.5,52.5,5.4,102.2-22.6,148.5c-5.1,8.5-12.2,15.4-21.3,19.9c-11.3,5.6-22.9,3.8-32-4.9c-11.5-11.1-16.6-25.6-19-40.7
	c-7.3-46-1.1-89.9,21.6-131c6.1-11.1,13.8-21.8,26.2-26c8.8-2.9,11.2-7.8,11.4-15.9C452.9,334,454.1,328.8,454.8,323.6z"/>
<path style="fill:#EA0000;" d="M442.2,102.4c-8.8-0.1-16.4-7.5-16.3-16.1c0-8.9,7.9-16.7,16.7-16.6c8.9,0.1,16.6,7.8,16.6,16.7
	C459.2,95.2,451.5,102.5,442.2,102.4z"/>
<path style="fill:#F9E000;" d="M450.3,156.9c-9.4,0.1-16.5-6.9-16.5-16.3c0-9,7-16.3,15.9-16.5c9.3-0.2,16.7,6.9,16.8,16.1
	C466.6,149.8,459.8,156.8,450.3,156.9z"/>
<path style="fill:#FEFEFE;" d="M367.6,175.2c-9.7-1.2-20.7-2.3-31.7-3.9c-14.4-2.1-28.8-3.9-43.3-5.5c-13.3-1.4-26.6-3.5-39.9-5.2
	c-13.7-1.8-27.4-3.4-41-5.2c-12.3-1.6-24.7-3.4-37-4.9c-8.7-1.1-17.5-2.5-26.2-3c-11.6-0.7-15-5.6-10.9-16.6
	c5.5-14.6,10.9-29.2,16.1-43.8c1.7-4.8,4.3-7.1,9.7-7.1c63.9,0.1,127.8,0.1,191.7,0c5.9,0,9.2,2.6,10.2,7.9c4.8,25,9.4,50,14,75.1
	C381.1,172.6,378.7,175.3,367.6,175.2z M435.9,547.9c8.4-60.7,16.8-120.8,25.2-181.4c5.5,3.1,8.3,7.6,10.7,12.3
	c6.4,12.4,9.1,25.8,10,39.5c2.5,37.3-3.5,73-21.6,106.2c-3.3,6.1-7.4,11.8-12.6,16.5C444.5,543.9,441.3,546.6,435.9,547.9z
	 M449.3,364.2c-8.5,61.1-16.8,121.2-25.2,181.9c-5.7-3.1-8.5-7.9-11-12.8c-6.4-12.6-9.1-26.2-9.9-40.2c-2.2-37.1,3.7-72.7,22-105.5
	C430.7,378,437.2,369.1,449.3,364.2z"/>
</svg>
