<?xml version="1.0" encoding="utf-8"?>
<!-- Generator: Adobe Illustrator 23.0.3, SVG Export Plug-In . SVG Version: 6.00 Build 0)  -->
<svg version="1.0" id="Layer_1" xmlns="http://www.w3.org/2000/svg" xmlns:xlink="http://www.w3.org/1999/xlink" x="0px" y="0px"
	 viewBox="0 0 612.3 613.5" style="enable-background:new 0 0 612.3 613.5;" xml:space="preserve">
<path style="fill:#FFE28E;" d="M296.6,584.4c-38.2,0.1-76.5,0.2-114.7,0.2c-48.4,0-96.8-0.1-145.2,0.1c-5.8,0-8-1-8-7.6
	c0.2-180.3,0.2-360.6,0-540.9c0-5.4,1.5-6.5,6.6-6.4c180.3,0.1,360.6,0.1,540.9,0c6.1,0,7.5,1.6,7.4,7.5
	c-0.3,27.7-0.3,55.4-0.1,83.1c0,4.2-1.2,5.3-5.4,5.3c-23.7-0.2-47.4,0-71.1,0c-2.3,1.9-5.2,1.9-8,1.9c-39.4,0-78.8,0-118.2,0
	c-2.8,0-5.6,0.1-8-1.9c-23.9,0-47.8,0.1-71.7-0.2c-4.2,0-4.8,1.6-4.8,5.2c0.1,79.8,0.1,159.6,0.1,239.5c0,52.3,0.1,104.7,0.1,157
	c1.8,2.1,1.8,4.7,1.8,7.3c0.1,14.2,0.1,28.4,0,42.7C298.4,579.7,298.6,582.4,296.6,584.4z"/>
<path style="fill:#0090F6;" d="M516.5,469.9c-0.1,8.3,0.8,16.8-0.5,24.9c-2.8,17.4-14.1,27.5-30.6,32.3c-2.1,2.4-5,2.1-7.8,2.1
	c-25.1,0.1-50.1,0.1-75.2,0c-2.7,0-5.7,0.3-7.8-2.1c-16.3-4.6-27.3-14.5-30.5-31.4c-1.2-6.4-0.6-13.1-0.6-19.6
	c-0.1-32.1,0-64.1-0.1-96.2c0-3.8,0.5-5.7,5.1-5.7c48.8,0.2,97.6,0.1,146.4,0.1c0.6,0,1.2,0.1,1.8,0.2c3.3,6.2,1.2,12.8,1.7,19.2
	c0.3,19,0.3,38,0,56.9C517.8,457,520,463.7,516.5,469.9z"/>
<path style="fill:#6B4619;" d="M430.4,278.4c0-9.3,0-8.9,12.9-9.5c6.5-0.3,6.3,2.7,6.2,7.3c-0.2,12-0.1,12-13.3,12
	C430.4,288.2,430.4,288.2,430.4,278.4z M439.9,326.5c-9.5,0-9.3,0-9.6-12.8c-0.1-4.5,0.5-6.7,5.9-6.5c13.4,0.4,13.4,0.1,13.4,8.5
	C449.6,326.5,449.6,326.5,439.9,326.5z"/>
<path style="fill:#FD2E42;" d="M372.9,125.7c44.7,0,89.4,0,134.1,0c0,23.6-0.2,47.2,0,70.8c0,4.4-1,5.8-5.6,5.7
	c-14.1-0.3-28.2-0.1-42.3-0.1c-1.3,1.1-2.7,1.7-4.3,1.7c-9.9,0.3-19.8,0.3-29.7,0c-1.6-0.1-3.1-0.7-4.4-1.7
	c-14.1,0-28.2-0.2-42.3,0.1c-4.6,0.1-5.6-1.3-5.5-5.7C373.1,172.9,373,149.3,372.9,125.7z M516.5,393.5c0-6.3,0.1-12.7,0.1-19
	c6.4-0.1,12.7-0.2,19.1-0.2c15.8,0.2,28.4,12.6,28.6,28.4c0.1,12.7,0.1,25.5,0,38.2c-0.1,16.5-12.7,28.9-29.3,29
	c-6.2,0-12.3,0-18.5,0c0-6.4,0-12.8,0-19.2c4.3-3,9.2-1.6,13.9-1.7c10.8-0.3,12.9-2.2,13-12.9c0-9.9,0.1-19.9,0-29.8
	c-0.1-8.4-2.7-10.7-11.1-11.2C527,394.8,521.5,396.5,516.5,393.5z M162.4,288.2c-29.7,0-59.3-0.1-89,0.1c-4.8,0-6.6-1.1-6.5-6.2
	c0.3-13,0-13,12.7-13c57.1,0,114.3,0.1,171.4-0.1c5.6,0,7.6,1.2,7.4,7.1c-0.4,12.1-0.1,12.1-12.4,12.1
	C218.1,288.2,190.3,288.2,162.4,288.2z"/>
<path style="fill:#FBCB21;" d="M394.6,527.1c30.2,0,60.5,0,90.7,0c30.5,0,60.9,0.2,91.4,0c5.3,0,7,1.2,6.8,6.8
	c-0.4,15.3-0.2,30.7-0.1,46c0,3.4-0.4,4.9-4.4,4.9c-93.6-0.1-187.1-0.1-280.7-0.1c-0.6,0-1.2-0.1-1.8-0.2c0-19.1,0.1-38.1,0.1-57.2
	C329.3,527.2,362,527.1,394.6,527.1z M162.4,163.9c-26.5,0-52.9-0.1-79.4,0.1c-4.8,0-6.5-1.1-6.5-6.3c0.3-21.5,0.3-43,0-64.5
	c-0.1-4.9,1.6-5.9,6.2-5.9c53.3,0.1,106.7,0.1,160,0c4.5,0,6.2,1,6.2,5.9c-0.3,21.7-0.2,43.4,0,65.1c0,4.6-1.5,5.7-5.8,5.6
	C216.1,163.8,189.3,163.9,162.4,163.9z M86.2,364.1c0-7.8,0.1-15.5-0.1-23.3c-0.1-3.5,0.9-5,4.7-4.9c9.7,0.2,19.5,0.2,29.2,0
	c3.4-0.1,4.5,1.3,4.4,4.6c-0.1,16.1-0.1,32.2,0,48.3c0,3.2-0.9,4.7-4.4,4.6c-9.7-0.2-19.5-0.2-29.2,0c-3.7,0.1-4.8-1.3-4.7-4.9
	C86.3,380.4,86.2,372.2,86.2,364.1z M200.9,364.8c0-8,0.1-15.9,0-23.9c-0.1-3.3,0.6-5.1,4.6-5.1c9.7,0.2,19.5,0.2,29.2,0
	c3.3,0,4.6,1,4.6,4.4c-0.1,16.3-0.1,32.6,0,48.9c0,3.2-1.2,4.2-4.3,4.1c-9.9-0.1-19.9-0.2-29.8,0c-3.6,0.1-4.3-1.6-4.3-4.7
	C201,380.7,200.9,372.8,200.9,364.8z"/>
<path d="M420.8,202.1c12.8,0,25.6,0,38.4,0c0,11.3-0.2,22.6,0,33.9c0,3.3-0.9,4.5-4.3,4.4c-9.9-0.2-19.8-0.2-29.8,0
	c-3.4,0.1-4.4-1-4.3-4.4C421,224.8,420.8,213.5,420.8,202.1z M105.6,211.7c10.9,0,21.9,0.1,32.8-0.1c3.8-0.1,5.2,1,5.2,5
	c0.2,14.2,0.4,14.2-13.9,14.2c-19.1,0-38.2-0.1-57.3,0.1c-4,0-5.5-1-5.5-5.3c-0.1-13.9-0.2-13.9,13.6-13.9
	C88.9,211.7,97.3,211.7,105.6,211.7z M219.8,230.8c-10.9,0-21.9-0.1-32.8,0.1c-3.8,0.1-5.2-0.9-5.3-5c-0.2-14.2-0.4-14.2,13.9-14.2
	c19.1,0,38.2,0.1,57.3-0.1c4,0,5.5,1,5.6,5.3c0.1,13.9,0.2,13.9-13.6,13.9C236.5,230.8,228.1,230.8,219.8,230.8z"/>
</svg>
