<?xml version="1.0" encoding="utf-8"?>
<!-- Generator: Adobe Illustrator 23.0.3, SVG Export Plug-In . SVG Version: 6.00 Build 0)  -->
<svg version="1.0" id="Layer_1" xmlns="http://www.w3.org/2000/svg" xmlns:xlink="http://www.w3.org/1999/xlink" x="0px" y="0px"
	 viewBox="0 0 512.2 512.2" style="enable-background:new 0 0 512.2 512.2;" xml:space="preserve">
<path style="fill:#CCD1D9;" d="M464.1,352.3c-5.3,0-10.6,0-16,0c-1.6,1.4-3.7,1.4-5.6,1.5c-12.2,0.1-24.5,0.1-36.7,0
	c-2,0-4-0.1-5.6-1.5c-38,0-76-0.1-114-0.1c-56.3,0-112.7,0-169,0c-1.7,0-3.3,0.1-5,0.1c-1.6,1.4-3.7,1.4-5.6,1.5
	c-12.2,0.1-24.5,0.1-36.7,0c-2,0-4-0.1-5.6-1.5c-12,0-24-0.2-36,0c-3.4,0-4.1-1-4.1-4.2c0.1-106.6,0.1-213.3-0.1-319.9
	c0-4.6,2.4-4,5.2-4c123.8,0,247.6,0,371.4,0c27.3,0,54.6,0.1,82-0.1c4.5,0,5.7,1.1,5.7,5.6c-0.1,104.6-0.1,209.3-0.1,313.9
	c0,8.4,0,8.4-8,8.7C474.8,354.4,469.4,354.4,464.1,352.3z"/>
<path style="fill:#0090F6;" d="M124.1,304c-21.5,0-43,0-64.5,0.2c-4.1,0-3.6-2.3-3.6-4.8c0-37.2,0-74.3,0-111.5c0-42,0.1-84-0.1-126
	c0-4.3,0.8-5.9,5.6-5.9c108.3,0.2,216.6,0.2,324.9,0c4.8,0,5.6,1.6,5.6,5.9c-0.1,78.8-0.1,157.6,0,236.4c0,4.4-0.8,6-5.6,5.9
	c-20.8-0.3-41.6-0.2-62.5-0.3c0.7-2.7,3.3-2.4,5.2-3c10.3-3.6,17.1-10.5,20-21.2c1.4-5.3,0.7-6.1-4.8-6.2c-28.6,0-57.2,0-85.7,0
	c-6.3,0-12.6,0-18.9,0c-2.1,0-4.3,0.2-6.3-1c-0.4-3.5,2.5-2.6,4.2-2.9c11-1.5,21.5-4.5,31.4-9.7c26.4-13.8,39.7-36,41.6-65.4
	c0.3-4.3,0.1-8.7,0-13c0-2.7-1.3-4-4-4c-1.2,0-2.3,0-3.5,0c-52.7,0-105.3,0-158,0c-7.7,0-7.5,0-7.7,7.8
	c-0.4,18.1,2.7,35.2,13.4,50.3c14.4,20.3,34.9,30.2,58.9,34c1.9,0.3,4.9-0.8,5.1,2.8c-2.4,1.6-5.1,1.1-7.8,1.1c-34,0-67.9,0-101.9,0
	c-7.7,0-8.4,0.8-5.8,7.9c3.5,9.7,10.2,16.2,20,19.5C121.2,301.7,123.5,301.4,124.1,304z"/>
<path style="fill:#FE4456;" d="M124.1,304c-10.8-2.2-19.3-7.7-24.5-17.7c-0.1-0.1-0.2-0.3-0.2-0.4c-5.8-12.2-4.9-13.7,8.3-13.7
	c35.8,0,71.6,0,107.4-0.1c6-2.4,12-2.4,18,0c38,0,76,0.1,114,0c3.5,0,5.5-0.1,4.5,4.8c-3.1,14.9-11.7,23.8-26.6,26.6
	c-0.3,0.1-0.6,0.3-0.8,0.5c-51.5,0-103,0.1-154.5,0.1C154.5,304.1,139.3,304,124.1,304z M448.5,81.8c10.9,4.3,17.3,15.2,15.3,26.1
	c-2.1,11.7-12.1,20.2-23.8,20.2c-11.7,0-21.7-8.5-23.8-20.2c-1.9-11,4.4-21.8,15.3-26.1c1.9,1.1,1.8,3.1,1.9,4.9
	c0.2,2.8,0.1,5.6,0.1,8.5c0,6.8,4.7,9.8,11,7.1c2-0.9,1.9-2.5,2-4.2c0.1-3.7-0.1-7.3,0.1-11C446.8,85.2,446.5,83.1,448.5,81.8z
	 M448.5,177.8c10.9,4.3,17.3,15.2,15.3,26.1c-2.1,11.7-12.1,20.2-23.8,20.2c-11.7,0-21.7-8.5-23.8-20.2c-1.9-11,4.4-21.8,15.3-26.1
	c1.9,1.1,1.8,3.1,1.9,4.9c0.2,2.8,0.1,5.6,0.1,8.5c0,6.8,4.7,9.8,11,7.1c2-0.9,1.9-2.5,2-4.2c0.1-3.7-0.1-7.3,0.1-11
	C446.8,181.2,446.5,179.1,448.5,177.8z M440.1,272.1c-6.8,0-13.7-0.1-20.5,0.1c-2.9,0.1-3.5-0.9-3.6-3.7
	c-0.2-12.4-0.3-12.4,11.8-12.4c10.7,0,21.3,0.1,32-0.1c3,0,4.4,0.3,4.4,3.9c0,12.1,0.2,12.1-12.1,12.1
	C448.1,272.1,444.1,272.1,440.1,272.1z"/>
<path style="fill:#E6E9ED;" d="M111.2,448.1c1.3,5.4,1.3,10.7,0,16.1c-5.9,16.5-16.3,23.9-33.8,24c-7.8,0-15.7-0.3-23.5,0.1
	c-5,0.3-6.6-1.4-5.8-6.1c0.1-0.6-0.1-1.3-0.1-2c-2.2-5.4-2.2-10.8,0-16.2c0-5.3,0-10.5,0-15.8c-2.2-5.4-2.2-10.8,0-16.2
	c0.3-7.9,0.3-7.9,8.4-7.9c7,0,14,0,21,0C94.8,424.1,105.3,431.5,111.2,448.1z M448.5,81.8c-0.9,6.1-0.3,12.2-0.4,18.3
	c0,2.9-0.7,4-3.8,4.1c-12.2,0.3-12.2,0.4-12.3-12c0-3.5,0.5-6.9-0.4-10.4C437.3,79.2,442.9,79.2,448.5,81.8z M448.5,177.8
	c-0.9,6.1-0.3,12.2-0.4,18.3c0,2.9-0.7,4-3.8,4.1c-12.2,0.3-12.2,0.4-12.2-12c0-3.5,0.5-6.9-0.4-10.4
	C437.3,175.2,442.9,175.3,448.5,177.8z"/>
<path style="fill:#F7BE30;" d="M233.1,272c-6,0-12,0-18,0c-7.5-1.8-15.3-2.4-22.7-5c-29.2-10-48.3-29.1-54.8-59.8
	c-2-9.4-1.4-18.9-1.5-28.4c0-2.2,1-3,3-2.8c0.8,0.1,1.7,0,2.5,0c55,0,110,0,165-0.1c4.2,0,5.6,0.8,5.6,5.4c0.3,16.2-1,32-8.7,46.6
	c-12.7,24.2-33.7,36.8-59.8,42.2C240.3,270.9,236.5,270.4,233.1,272z"/>
<path d="M464.1,352.3c5.3,0,10.7,0,16,0c0,28.7,0,57.3,0,86c0,15.8-10.1,25.9-25.9,25.9c-114.3,0-228.7,0-343,0
	c-1.1-5.4-1.1-10.7,0-16.1c114.3,0,228.6,0,342.8,0c7.4,0,10-2.7,10-10.4C464.1,409.2,464.1,380.7,464.1,352.3z M112,360.1
	c0.1,7,0,14,0.2,21c0.1,2.4-0.7,3.1-3.1,3.1c-14-0.1-28-0.1-41.9,0c-2.4,0-3.1-0.8-3.1-3.1c0.2-7,0.2-14,0.2-21
	c1.6-1.6,3.6-1.5,5.6-1.6c12.1-0.1,24.3-0.1,36.5,0C108.3,358.5,110.4,358.5,112,360.1z M448,360.1c0.1,7,0,14,0.2,21
	c0.1,2.4-0.7,3.1-3.1,3.1c-14-0.1-28-0.1-41.9,0c-2.4,0-3.1-0.8-3.1-3.1c0.2-7,0.2-14,0.2-21c1.6-1.6,3.6-1.5,5.6-1.6
	c12.2-0.1,24.3-0.1,36.5,0C444.3,358.5,446.4,358.5,448,360.1z M112,360.1c-15.9,0-31.8,0-47.7,0c-0.1-2.6-0.1-5.2-0.2-7.8
	c16,0,32,0,48,0C112.1,354.8,112,357.5,112,360.1z M448,360.1c-15.9,0-31.8,0-47.7,0c-0.1-2.6-0.1-5.2-0.2-7.8c16,0,32,0,48,0
	C448.1,354.8,448,357.5,448,360.1z M48,432c0,5.4,0,10.8,0,16.2c-5.3-0.1-10.6-0.1-15.8-0.2c-2.4-5.3-2.5-10.5,0-15.8
	C37.4,432.1,42.7,432.1,48,432z M48,464c0,5.4,0,10.8,0,16.2c-5.3-0.1-10.6-0.1-15.8-0.2c-2.5-5.2-2.5-10.5,0-15.8
	C37.5,464.1,42.7,464.1,48,464z M32.2,432.2c0,5.3,0,10.5,0,15.8c-2.8,0-5.7,0.2-8.5,0.1c-4.5-0.3-7.5-3.5-7.6-7.7
	c-0.1-4.5,2.9-7.9,7.6-8.2C26.5,432,29.3,432.2,32.2,432.2z M32.2,464.2c0,5.3,0,10.5,0,15.8c-2.8,0-5.7,0.2-8.5,0.1
	c-4.6-0.3-7.7-3.7-7.6-8.2c0.1-4.3,3.1-7.4,7.6-7.7C26.5,464,29.3,464.2,32.2,464.2z M64.1,456.1c0-4.2,0.1-8.3,0-12.5
	c-0.1-2.5,0.8-3.4,3.4-3.6c12.6-0.8,12.6-0.8,12.6,11.8c0,5.5-0.1,11,0,16.5c0.1,2.7-0.8,3.7-3.7,3.8C64,472.6,64,472.7,64,460.5
	C64.1,459.1,64.1,457.6,64.1,456.1z M95.9,104.1c-1.3,0-2.7,0-4,0c-12.6,0-12.5,0-11.8-12.6c0.1-2.2,0.5-3.4,3-3.4
	c8.7,0.1,17.4-0.9,25.9,0.3c6.5,0.9,1.8,7.3,2.9,11.1c0.6,2.1,0.7,4.8-3.1,4.6C104.5,103.9,100.2,104.1,95.9,104.1z M136.3,88.1
	c8.5,0.1,7.9-1,7.8,6c-0.1,11,1.3,9.9-5.9,9.9c-11.3,0-10,1.4-10.1-6.2C128,88.1,128.1,88.1,136.3,88.1z"/>
</svg>
