<?xml version="1.0" encoding="utf-8"?>
<!-- Generator: Adobe Illustrator 23.0.3, SVG Export Plug-In . SVG Version: 6.00 Build 0)  -->
<svg version="1.0" id="Layer_1" xmlns="http://www.w3.org/2000/svg" xmlns:xlink="http://www.w3.org/1999/xlink" x="0px" y="0px"
	 viewBox="0 0 383.6 594.4" style="enable-background:new 0 0 383.6 594.4;" xml:space="preserve">
<path style="fill:#EA0000;" d="M265.6,376.2c16.1,0.3,16.1,0.3,20.9,15.5c17.1,54.5,34.1,109,51.2,163.5c3.1,9.8-1,15.3-11.4,15.4
	c-6.8,0.1-13.6-0.1-20.4,0c-1.8,0-3.9-0.7-5.5,1c-2.6,2.3-5.8,1.7-8.9,1.7c-7.7,0.2-7.7,0.1-8,7.7c-0.1,2.5,0.3,5.1-1.8,7.1
	c-2.3-4-1.1-8.4-1-12.5c0.1-4.2-1.3-5.1-5.3-5.1c-44.7,0.1-89.4,0.1-134.1,0.1c-25.8,0-51.7,0-77.5,0c-2.1,0-4.3-0.8-6.1,1
	c-3,2.5-6.5,1.7-9.9,1.8c-6.6,0.2-6.8,0.3-7.1,6.7c-0.1,2.4,0.3,5.1-1.9,7C37,583,38,578.7,38,574.5c0-3.1-1-4-4-3.9
	c-7.6,0.2-15.2,0.1-22.7,0c-8.9-0.1-12.9-5.5-10.5-14.4C7,533.8,13.3,511.4,19.7,489c9.5-33.8,19-67.5,28.5-101.3
	c2.9-10.3,4.3-11.4,15-11.4c3.1,0,6.2,0,9.3-0.1c5.1-1.5,10.3-1.5,15.6-1.5c55.4,0,110.7,0,166.1,0
	C258,374.7,261.9,374.7,265.6,376.2z"/>
<path style="fill:#006ED8;" d="M265.6,376.2c-64.4,0-128.8,0-193.1,0c3.7-1.2,1.7-3.8,1.2-5.7c-7.5-28.3-15.1-56.6-22.6-84.9
	c-3.7-14-7.4-28.1-11.2-42.1c-1.1-3.6,0.9-6,3.2-8.1c28.5-25.3,61-35.2,98.2-24.6c30.5,8.7,61,17.1,92.3,22.2
	c19.7,3.2,39.6,5.2,59.6,6.5c2.1,0.1,4.3-0.1,5.8,1.9c-11.2,43.2-22.5,86.4-33.6,129.6C264.9,372.7,263.2,374.6,265.6,376.2z"/>
<path style="fill:#DDDCDC;" d="M299,241.5c-54.1-2.4-106.5-13.6-158.3-29c-33.2-9.9-63.6-2.5-90.5,19.3c-4,3.3-9.6,5.5-10.4,11.8
	c-5.4-20.9-10.7-41.8-16.1-62.6c-3.9-14.9-7.8-29.8-11.7-44.8c5.4-3.2,11.4-1.5,17.1-1.6c11.4-0.1,22.9-0.1,34.3,0
	c13,0.1,26-0.1,39,0.1c8.9,0.2,17.9,0.1,26.8,0c22.5-0.1,45,0.1,67.6,0c17.9-0.1,35.7,0,53.6-0.1c13-0.1,26,0,39,0.1
	c10.1,0,20.2,0.3,30.3-0.1c2.5-0.1,5-0.7,7.5,0.4c-2.8,10.4-5.5,20.9-8.6,31.2c-1.4,4.5-1.3,7,4.3,6.2c1.1-0.2,2.3,0,3.2,1
	c-0.4,0.7-1,1.3-1.8,1.3c-5.1,0-6.9,2.9-8.4,7.5c-1.7,5-0.9,8.4,3.4,11.1c-6.6-0.8-8.8,2.7-10.1,8.8
	C306.3,215.2,302.4,228.3,299,241.5z M179.1,7.6c2.3,4.4,1.1,9.1,0.9,13.7c-0.1,4.6,0.9,6.4,6,6.3c30.3-0.2,60.6,0.1,90.8-0.3
	c6.4-0.1,10.2,2.3,12.8,7.8c7.7,16.5,15.7,32.9,23.3,49.4c4.8,10.5,10.6,20.6,14.3,31.7c-3.4,2.8-7.4,1.8-11.2,1.8
	c-89.1,0.1-178.2,0-267.4,0c-9.9,0-19.8,0-29.8,0c-2.7,0-5.5,0.3-7.8-1.6c3.3-11.1,8.5-21.5,12.7-32.3c6.3-16.3,13-32.6,19.3-49
	c2.1-5.5,5.8-7.6,11.6-7.6c34.9,0.1,69.9,0,104.8,0c3.4-2.7,7.4-1.5,11.1-1.7c6.1-0.3,6.4-0.6,6.7-6.6
	C177.4,15.3,176,11.1,179.1,7.6z"/>
<path d="M11,116.5c84,0,168,0.1,252,0.1c21.4,0,42.8-0.2,64.1-0.3c3.4,3.8,2.5,8.1,1.3,12.4c-0.6,2-0.9,4.1-1.3,6.1
	c-1.4,2.2-3.7,1.8-5.8,1.8c-58.1,0-116.2,0-174.2,0c-42.7,0-85.5,0-128.2,0c-2.3,0-4.6-0.3-6.9-0.5C11.2,129.6,7,123.3,11,116.5z
	 M319.3,193.1c-1.1-0.2-2.3-0.6-3.4-0.5c-3.7,0.4-4.4-1.2-3.1-4.4c0.7-1.6,0.9-3.3,1.4-5c2.5-9.6,2.5-9.6,11.9-10
	c11.5,1.1,22.7,3,33.1,8.3c15.3,7.8,24.1,20.2,24.2,37.5c0.3,36.9,0.2,73.8,0.1,110.8c0,7-4,11-10.1,10.9c-5.9-0.1-9.7-4.4-9.7-11.4
	c-0.1-34.6-0.1-69.2,0-103.8c0-17.6-5.9-25.3-23-29.8C333.6,193.8,326.5,192.9,319.3,193.1z M179.1,7.6c0,4.8-0.3,9.7,0,14.4
	c0.3,4.1-0.6,6-5.2,5.5c-4.8-0.5-9.6-0.1-14.5-0.2c0-5.2-0.2-10.5-0.1-15.7c0.1-6.6,3-10.7,8.3-11.6C173.5-0.8,177.2,2.2,179.1,7.6z
	 M281.6,588.1c0.7-5.3-2.5-12.5,1.3-15.4c4.3-3.3,11.5-0.8,17.4-1.1c0.1,4.2,0.2,8.5,0.2,12.7c-0.1,5.3-2.8,8.9-8,9.8
	C287.5,595.1,283.5,593.3,281.6,588.1z M38.7,587c0.1-0.8,0.2-1.5,0.2-2.3c0.3-13.1,0.3-13.1,13.5-13.1c1.7,0,3.5,0,5.2,0
	c0.1,4.2,0.3,8.5,0.2,12.7c-0.1,5.6-3,9.3-8.5,10C44.1,595,40,592.8,38.7,587z"/>
<path style="fill:#D80000;" d="M202.3,499.8c0.8,18.3-14.8,37.3-37.2,37.4c-23.5,0.1-37.9-20.2-37.6-37.9
	c0.4-19.8,16.8-37.6,38.3-37.3C186.4,462.2,203.1,480.8,202.3,499.8z M204.6,437.6c-1.7-12.9,12-28.4,28-28.2
	c14.9,0.2,29,11.9,28.7,28.5c-0.2,16-11,28.1-28.9,28.6C217.9,467,202.6,451.9,204.6,437.6z M69.2,437.6c-1.7-13,12.1-28.2,28-28.3
	c14.1,0,29.3,13,28.3,29.3c-0.9,15.9-12.2,27.6-28.2,28C82.1,466.9,67.8,453.2,69.2,437.6z"/>
<path style="fill:#00AB45;" d="M165.4,474.7C179,474.8,190,486,190,499.8c0,13.6-11.2,25-24.7,25c-14,0-25.2-11.2-25.1-25.1
	C140.3,485.5,151.3,474.6,165.4,474.7z"/>
<path style="fill:#F9E000;" d="M250.3,438.1c0,9.6-7.7,17.5-17.2,17.7c-9.7,0.1-17.9-7.9-17.9-17.7c0-9.6,7.7-17.4,17.3-17.5
	C242.5,420.4,250.2,428,250.3,438.1z M79.7,438.1c0-9.7,7.6-17.4,17.3-17.5c10-0.1,17.9,7.6,17.8,17.6c0,9.6-7.7,17.5-17.3,17.7
	C87.8,456,79.7,447.9,79.7,438.1z"/>
</svg>
