<?xml version="1.0" encoding="utf-8"?>
<!-- Generator: Adobe Illustrator 23.0.3, SVG Export Plug-In . SVG Version: 6.00 Build 0)  -->
<svg version="1.0" id="Layer_1" xmlns="http://www.w3.org/2000/svg" xmlns:xlink="http://www.w3.org/1999/xlink" x="0px" y="0px"
	 viewBox="0 0 612 388" style="enable-background:new 0 0 612 388;" xml:space="preserve">
<path style="fill:#414143;" d="M415.9,345.7c-93.7,0-187.4,0-281.1,0c-9.9,0-9.9,0-11.1,9.4c-0.2-0.1-0.5-0.1-0.5-0.2
	c-1.8-8-8-7.3-14.1-7.2c-3.4,0.1-7.1,0.8-10.1-1.8c-14.5-0.1-29.1-0.1-43.6-0.2c-12.5-0.1-18.3-5.8-18.3-18.2
	c0-91.4,0-182.8,0-274.2c0-10.7,5.7-16.9,15.7-16.9c119.7,0,239.3,0,359,0c1.4,0,2.8,0.1,4.2,0.2c2.1,2.3,1.9,5.2,1.9,7.9
	c0,97.7,0,195.5,0,293.2c0,2,0,4-0.6,5.9C416.9,344.5,416.5,345.1,415.9,345.7z M415.9,345.7c0-0.4,0-0.7,0.1-1.1
	c3.7-2.8,8.1-1.7,12.1-1.8c4.2-0.1,6.3-1.7,6.1-6c-0.1-2.4,0-4.8,0-7.2c0-93.9,0-187.7,0-281.6c0-3.9-0.9-8,1.9-11.5
	c40.8,0,81.6-0.1,122.4,0c10.2,0,16.2,6.1,16.2,16.5c0.1,50.5,0,101.1,0,151.6c0,41,0,82,0,123c0,12-5.9,18-17.9,18.1
	c-14.7,0.2-29.4,0.2-44.2,0.2c-3.6,2.9-7.9,1.9-11.9,1.7c-5.7-0.2-10.7,0-11.2,7.4c0,0.6-0.8,0.8-1.3,1.1
	c-1.8-10.3-1.8-10.4-13-10.4C455.5,345.7,435.7,345.7,415.9,345.7z"/>
<path style="fill:#273339;" d="M488.3,356.2c0.1-10.5,0.1-10.6,10.8-10.6c4.6,0,9.1,0.2,13.7,0.3c1,18.1-3.2,15.5-18.1,15.5
	C491.4,361.4,489.3,359.3,488.3,356.2z M99.1,345.9c6.3-0.1,12.6,0,18.9-0.4c4.4-0.3,6.2,1,5.6,5.5c-0.2,1.3,0.1,2.7,0.2,4.1
	c-1,4.6-4,6.4-8.6,6.4C99.4,361.8,99.2,361.7,99.1,345.9z"/>
<path style="fill:#00B4BA;" d="M556.9,191c0,38,0,76.1,0,114.1c0,7.9-1.9,10-9.7,10c-26.5,0-53,0-79.4,0c-7.6,0-9.9-2.2-9.9-10
	c0-75.9,0-151.7,0-227.6c0-8.1,3.1-11,11.3-11c25.7,0,51.4,0,77,0c8.5,0,10.7,2.3,10.7,11.1C556.9,115.3,556.9,153.1,556.9,191z"/>
<path style="fill:#565656;" d="M436.2,36.6c0.1,60.5,0.1,120.9,0.1,181.4c0,39.8,0,79.6,0,119.3c0,7.6,0,7.6-7.9,7.6
	c-4.2,0-8.3-0.2-12.5-0.2c0-102.7,0-205.3,0-308C422.7,36.6,429.5,36.6,436.2,36.6z M532,269.1c-0.2,13.7-11.4,24.4-25,24.1
	c-13.2-0.3-24-11.5-24-24.7c0.1-13.7,11.4-24.5,25.5-24.2C521.9,244.6,532.2,255.5,532,269.1z"/>
<path style="fill:#FDFDFD;" d="M507.3,177.6c7.3,0,14.7-0.1,22,0c9.5,0.2,15.5,6.2,15.7,15.7c0.1,2.2,0.1,4.4,0,6.6
	c-0.2,9.1-6.1,15.5-15.2,15.7c-14.9,0.2-29.8,0.2-44.7,0c-6.5-0.1-11.6-3.3-14-9.4c-2.4-6.2-2.4-13,0-19.2c2.5-6.3,7.8-9.3,14.6-9.4
	C493,177.5,500.1,177.6,507.3,177.6L507.3,177.6z M537.8,114.4c4,0.4,9.7-1.7,9.6,6.3c-0.1,8.1-0.5,8.8-8.7,8.8c-0.4,0-0.8,0-1.2,0
	c-9.7,0-10.3-0.5-10.3-7.8C527.3,114.8,527.9,114.4,537.8,114.4z M508.4,129.5c-5.2-0.4-11,1.7-10.9-6.6c0.1-7.5,0.8-8.5,8.4-8.5
	c1.2,0,2.4,0,3.6,0c7.2,0,11.1,6.5,7.6,12.7C514.9,130.9,511,128.9,508.4,129.5z M478,129.4c-9.9,0.1-10.8-1.1-10-10.1
	c0.3-3.1,1.6-4.8,4.8-4.8c2,0,4-0.1,6-0.1c8.5,0,11.5,4,8.7,11.9C485.7,131.3,481,128.7,478,129.4z M507.8,155.2
	c-4.6-0.5-10.5,1.9-10.3-6.3c0.1-7.7,0.6-8.4,8.4-8.5c1,0,2,0,3,0c8.2,0,11,3.7,8.5,11.6C515.6,157.3,510.8,154.2,507.8,155.2z
	 M507.9,103.4c-9.8,0-10.2-0.3-10.3-6.9c-0.1-7.1,0.5-7.7,7.8-7.8c1.2,0,2.4,0,3.6,0c8,0,11,4,8.4,11.6
	C515.5,105.6,510.8,102.5,507.9,103.4z M537.4,103.4c-9.7,0-10-0.4-10.2-7.9c-0.1-5.3,1.9-7.3,7.1-6.8c1.6,0.2,3.2,0,4.8,0
	c7.6,0,10.9,5.1,8,12C546,103.1,544.8,103.5,537.4,103.4z M537.5,155.2c-4.5-0.5-10.3,2-10.3-6.2c0-7.7,0.6-8.6,8.3-8.5
	c1.2,0,2.4,0,3.6,0c7.5,0,11,5.2,7.9,12C545,156.9,540.6,154.4,537.5,155.2z M477.2,88.8c1.4,0,2.4,0.1,3.4,0
	c5.4-0.7,7.3,1.5,7.2,7.1c-0.1,5.4-1.4,8.4-7.4,7.6c-1.2-0.2-2.4,0-3.6,0c-8.6,0-10.8-2.8-8.7-11.2
	C469.6,86.5,474.4,89.8,477.2,88.8z M478.3,155.1c-10.1,0-10.2,0-10.3-6.7c-0.1-7.5,0.3-7.9,8.1-7.9c1,0,2,0,3,0
	c7.9,0,11.4,4.9,8.3,12.1C485.5,157,481.1,154.3,478.3,155.1z"/>
<path style="fill:#F7BE30;" d="M315.7,100.9c23.5-0.1,47-0.2,70.5-0.2c6.2,0,8.4,2.6,8.4,9.6c0,35.6,0,71.3,0,106.9
	c0,17.9,0,35.8,0,53.8c0,7-2.3,9.4-9.2,9.4c-82.4,0-164.8,0-247.3,0c-0.6,0-1.2-0.1-1.8-0.2c-0.7-3,1.7-4.3,3.3-5.9
	c56.7-56.8,113.4-113.5,170.2-170.2C311.4,102.6,312.8,100.3,315.7,100.9z M315.7,100.9c-1.5,1.3-3.1,2.5-4.5,3.9
	c-57,57-114,114-171,171c-1.4,1.4-2.6,3-3.9,4.5c-20.1,1.2-40.1,0.6-60.2,0.3c-4.4-0.1-6.7-3-7.1-7.3c-0.1-1.6-0.1-3.2-0.1-4.8
	c0-51.9,0-103.8,0-155.7c0-10.5,2.1-12.6,12.4-12.6c76,0,152,0,227.9,0C311.5,100.1,313.7,99.6,315.7,100.9z M507.8,234.5
	c0.2,2-0.6,2.8-1.9,3s-2.4-0.4-2.7-1.7c-0.3-1.6,0.7-2.7,2.2-2.8C506.8,232.8,507.6,233.7,507.8,234.5z M525.1,239
	c-0.2,1.3-0.9,2.1-2.3,2.1c-1.6,0-2.6-0.9-2.5-2.5c0.1-1.3,1-2.2,2.3-2.2C524.2,236.3,525,237.4,525.1,239z M491.2,241
	c-0.2,1.3-0.9,2.2-2.4,2.1c-1.4-0.1-2.2-1-2.2-2.3c0-1.7,1.1-2.5,2.7-2.3C490.7,238.7,491.3,239.7,491.2,241z M538.1,250.1
	c-0.1,1.6-0.5,2.6-2,2.7c-1.4,0.1-2.4-0.7-2.5-1.9c-0.2-1.5,0.7-2.6,2.3-2.7C537.3,248,537.8,249.2,538.1,250.1z M477.5,251.6
	c1.5,0.1,2.1,1.1,2,2.4c0,1.3-0.6,2.3-2.1,2.3c-1.7,0-2.6-1.1-2.4-2.7C475.1,252.3,476,251.5,477.5,251.6z M476.2,271.3
	c-0.3,1.3-1.1,2.1-2.5,2s-2.3-1-2.2-2.3c0.1-1.5,1-2.7,2.8-2.4C475.6,268.9,476.1,270,476.2,271.3z M535.4,284.1
	c0.1-1.3,0.9-2.2,2.2-2.3c1.6-0.1,2.6,0.9,2.5,2.6c-0.1,1.5-1.1,2-2.4,2C536.3,286.3,535.5,285.6,535.4,284.1z M481.6,287.7
	c-0.1,1.4-0.9,2.1-2.3,2.1c-1.3,0-2.3-0.7-2.3-2.1c0-1.6,1-2.6,2.6-2.4C480.8,285.5,481.6,286.3,481.6,287.7z M543.7,267.1
	c-0.1,1.3-0.8,2.2-2.1,2.3c-1.6,0.1-2.6-0.9-2.4-2.6c0.1-1.3,1-2.1,2.4-2C542.8,264.9,543.6,265.7,543.7,267.1z"/>
</svg>
