<?xml version="1.0" encoding="utf-8"?>
<!-- Generator: Adobe Illustrator 23.0.3, SVG Export Plug-In . SVG Version: 6.00 Build 0)  -->
<svg version="1.0" id="Layer_1" xmlns="http://www.w3.org/2000/svg" xmlns:xlink="http://www.w3.org/1999/xlink" x="0px" y="0px"
	 viewBox="0 0 262 504.1" style="enable-background:new 0 0 262 504.1;" xml:space="preserve">
<path style="fill:#FD2E42;" d="M254.6,455c-1.6-1.8-0.8-3.9-0.8-5.9c0-91.2,0-182.4-0.1-273.6c-2.5-3.9-1.1-8.3-1.4-12.4
	c-0.3-34,0-68-0.1-101.9c0-6.3,0.1-12.6,0-18.9c-0.2-7.8-3.8-11.9-11.4-13.1c-2.2-0.4-4.4-0.3-6.6-0.3c-68.8,0-137.5,0-206.3,0
	c-1.6,0-3.1,0-4.7,0.1c-9,0.7-13.4,5.3-13.4,14.3c-0.1,37.1,0,74.3,0,111.4c0,2.7,0.3,5.4-0.8,7.9c-0.3,0.6-0.8,0.9-1.5,0.9
	C7.4,135.7,7.3,107.8,7.3,80c0-16.5,0-33,0-49.6c0-10.2,5.9-16.2,16-16.2c71.9,0,143.8,0,215.7,0c9.4,0,15.7,6.2,15.7,15.6
	c0,111.7,0,223.4,0,335.2C254.7,394.9,254.7,424.9,254.6,455z M7.5,456c1,0.1,1.9,0.3,2.1,1.5c1.2,5.8,3.1,6.8,9.1,8.4
	c6.4,1.8,12.4,1.2,18.8,0.5c3.2-0.3,7,1.3,10.5,0.8c6.6-0.9,13.2,0.6,19.7,0c6.3-0.6,12.6,0.6,18.8,0c6.2-0.6,12.3,0.6,18.3,0
	c6.5-0.7,12.9,0.7,19.3,0c6.3-0.7,12.6,0.7,18.8,0c6.3-0.7,12.6,0.6,18.8,0c6.5-0.6,12.9,0.6,19.3,0c6.3-0.6,12.6,0.7,18.8,0
	c6.3-0.7,12.6,0.3,18.8,0.1c5-0.2,10-0.8,15,0c7.8,1.3,13.6-2,17.8-8.4c0.7-1.1,1.7-1.9,3.1-1.9c0,2.8,0.2,5.6,0.1,8.5
	c-0.3,8-6.2,14.2-14.1,15c-0.2,0-0.3,0-0.5,0c-3.6,0-7.4-0.6-10.8,0.3c-4.8,1.3,0,6.6-2.9,9.1c-0.9-0.8-1.3-1.9-1.2-3
	c0.3-6.3-2.2-5.7-7-5.8c-5.5-0.1-10.9,0.5-16.4-0.3c-27.2-0.1-54.3-0.2-81.5-0.2c-19.9,0-39.9,0.1-59.8,0.2
	c-5.8,0.8-11.6,0.4-17.4,0.3c-4-0.1-6.4,0.9-6,5.4c0.1,1.3-0.3,2.5-1.3,3.4c-1.6-1.2-1-2.9-0.8-4.3c0.6-4.4-1.3-5.5-5.3-5.1
	c-2.9,0.3-6,0.3-8.9-0.1c-8.1-1.3-13.1-7.4-13.3-15.8C7.3,461.6,7.5,458.8,7.5,456z"/>
<path style="fill:#F7BE30;" d="M253.7,163.4c0,4.1,0,8.1,0,12.2c-82.1,0-164.2,0-246.2,0c0-4,0-8.1,0-12.1c0.3,0,0.5-0.1,0.8-0.1
	c2.6-2.1,5.7-1.5,8.6-1.5c62.4,0,124.8,0,187.2,0c14.1,0,28.3,0,42.4,0C249,161.7,251.7,161.4,253.7,163.4z"/>
<path style="fill:#FD2E42;" d="M7.5,456c-0.1-36.9-0.1-73.9-0.2-110.8c0-55.3,0-110.6,0-166c0-1.3,0.1-2.5,0.1-3.8
	c1.8-1.7,4.1-1.5,6.2-1.5c77.9,0,155.8,0,233.7,0c2.2,0,4.4-0.2,6.3,1.3c0.8,1.8,0.4,3.7,0.4,5.6c0,89.5,0,179,0,268.5
	c0,1.9-0.4,3.8,0.4,5.6c0,0.6,0,1.3,0,1.9c-0.3,0.4-0.6,0.7-0.8,1.1c-4.8,7.4-11.1,12.1-20.4,10.5c-5.4-0.9-10.7,0.5-15.9,0
	c-9.4-1-18.8-0.1-28.2-0.2c-8.1-0.1-16.3-0.1-24.4,0c-10.5,0.1-21,1.1-31.5-0.3c-3-0.4-5.9,0.8-8.9,0.7c-13.8-0.5-27.6,0.2-41.3-0.3
	c-8.8-0.3-17.5,0-26.3-0.1c-8.1-0.1-16.3-0.8-24.4,0.2c-5.5,0.7-11,0.2-16.4-1.4c-4.1-1.2-7.1-4-7.8-8.5
	C8.2,457.7,8.2,456.8,7.5,456z M253.7,163.4c-53.6,0-107.3-0.1-160.9-0.1c-28.2,0-56.3,0-84.5,0c0-40.1,0-80.2,0-120.3
	c0-10.3,5.5-15.6,16.2-15.6c57.3,0,114.5,0,171.8,0c14,0,28-0.1,42,0c6.3,0.1,11.7,2,14.6,8.3c0.7,1.5,1,2.9,1,4.5
	C253.8,81.3,253.7,122.3,253.7,163.4z"/>
<path d="M35.7,489.8c0-10.2,0-10.4,10.4-10.1c4.7,0.1,9.7-1.4,14.2,1c-0.2,9.3-0.2,9.4-9.7,9.3C45.6,489.9,40.7,489.8,35.7,489.8z
	 M201.7,480.6c2.7-2,5.7-0.7,8.6-1c2-0.2,4.1,0,6.1,0c10,0,10,0,9.9,10.2c-7,0.1-14,0-21.1,0.3c-3,0.1-3.8-1-3.6-3.8
	C201.9,484.4,201.7,482.5,201.7,480.6z"/>
<path style="fill:#FFFFFF;" d="M55.6,230.5c0,7.2,0.1,14.4,0,21.7c-0.1,5.6-3.4,9.4-8.5,10.1c-5.4,0.8-10.2-2.4-11.7-7.9
	c-0.3-1.2-0.5-2.5-0.5-3.7c0-13.7-0.1-27.3,0-41c0.1-7,4.3-11.4,10.5-11.5c4.5,0,10.9,3.6,10.3,11.5c-0.3,3.4,0,6.9,0,10.4
	S55.7,227.1,55.6,230.5C55.7,230.5,55.7,230.5,55.6,230.5z M55.7,110.1c0,7.2,0.1,14.5,0,21.7c-0.1,5.5-3.4,9.2-8.2,9.8
	c-6.2,0.8-10.3-1.8-11.9-7.4c-0.4-1.3-0.7-2.8-0.7-4.2c0-13.4-0.1-26.7,0-40.1c0.1-7.5,4-11.7,10.5-11.8c6.1-0.1,10.1,3.6,10.2,9.8
	C55.8,95.3,55.7,102.7,55.7,110.1L55.7,110.1z"/>
</svg>
