<?xml version="1.0" encoding="utf-8"?>
<!-- Generator: Adobe Illustrator 23.0.3, SVG Export Plug-In . SVG Version: 6.00 Build 0)  -->
<svg version="1.0" id="Layer_1" xmlns="http://www.w3.org/2000/svg" xmlns:xlink="http://www.w3.org/1999/xlink" x="0px" y="0px"
	 viewBox="0 0 560.3 456.3" style="enable-background:new 0 0 560.3 456.3;" xml:space="preserve">
<path style="fill:#FFE89D;" d="M243.4,384.5c-4.9-3.3-9.9-6.5-14.8-9.8c-14.2-9.5-26.5-21.1-36.6-34.8c-2.2-2.9-4.8-4.8-7.7-6.6
	c-21.8-13.7-44-26.8-65.4-41.1C97.7,278,86,257.3,82.8,232c-1.9-15.3-3.5-30.8-3.1-46.2c0.4-15.9-7.4-27.6-16.9-38.8
	c-1.2-1.4-3-2.9-2.2-4.6c0.9-1.9,3.2-0.9,4.9-0.9c8.1-0.1,16.3,0,24.4,0c15.8,0,23.1,6.9,25.4,22.5c2.2,15.1,4.8,30.2,14.6,42.9
	c7.5,9.7,17.1,16.4,28,21.5c3.1,1.5,3.8-0.3,4-2.9c1.8-17.8,7.2-34.5,15.3-50.3c2.7-5.3,6.2-11.1,6.2-11.1c1.7-2.8,4.1-6.6,7.4-11.1
	c2.8-3.8,6.4-7.7,13.4-15.3c2.3-2.5,4.2-4.5,5.5-5.9c4.6-0.9,9.3-0.7,14-0.7c61.6,0,123.1,0,184.7,0c5,0,10.1-0.2,15.1,0.7
	c10.3,8.5,14.5,14.5,16.5,18.5c2.3,4.7,6.5,8.2,9,12.8c0.1,0.3,0.6,1.3,1.7,1.6c0,0,0.1,0,0.2,0.1c1.7,0.4,3.9-1.8,3.9-1.8
	c7.6-5.4,14.4-12,23-16c23-10.7,52.1,2.4,57.6,29.3c1.8,9-0.1,17.6-0.5,26.3c-0.5,9.1-2.5,18.1-2.8,27.3c-0.6,17.2-7,30.8-21.4,40.8
	c-15.3,10.5-30.1,21.6-45.3,32.2c-3.1,2.2-5.2,4.8-6.7,8.2c-7.9,17.4-18.8,32.9-32.3,46.2c-9.9,9.7-20.9,18.2-33.2,24.8
	c-1.3,0.7-2.7,1.2-3.3,2.6c-2,2.1-4.6,1.9-7.1,1.9c-44.1,0.1-88.2,0.1-132.4,0C248,386.3,245.3,386.6,243.4,384.5z"/>
<path style="fill:#282828;" d="M243.4,384.5c48.9,0,97.7,0,146.6,0c32.4,0,64.7,0.2,97.1,0c4.6,0,6.5,0.9,6.1,5.9
	c-0.7,8.4,0.8,16.9-2.8,25c-5.7,12.8-17.9,21.2-31.8,21.2c-95.3,0-190.5,0-285.8,0c-20.5,0-35.6-15-35.6-35.4
	c0-3.8,0.3-7.6-0.1-11.4c-0.5-4.5,1.5-5.4,5.5-5.4C176.1,384.6,209.8,384.5,243.4,384.5z"/>
<path style="fill:#F9E000;" d="M423.6,131.7c-1.6,1.8-3.7,1.1-5.6,1.1c-67.5,0-135.1,0-202.6,0c-1.9,0-4,0.8-5.6-1
	c17.7-16.4,38-28.3,61-35.4c7-2.2,14.1-4,21.5-4.9c1.9-0.2,4-0.4,5.4-2c12.7-2.6,25.4-2.3,38.1,0c5.9,3.4,12.8,2.9,19.1,4.6
	c25.4,6.9,48.2,18.6,67.4,36.8C422.6,131.2,423.1,131.4,423.6,131.7z"/>
<path style="fill:#BF6016;" d="M94,20c9.4,0,9.3-0.1,7.4,9.3c-1.6,7.8-5.2,14.5-10.1,20.7c-8.9,11.3-8.5,25.2,0.6,36.3
	c5.8,7,9.1,15.1,10.4,24c0.6,3.9-0.7,5.9-4.9,5.2c-0.2,0-0.4,0-0.5,0c-3.4,0-7.2,0.8-10.2-0.4c-3.3-1.3-1.4-5.8-2.9-8.6
	c-1.7-3.2-3.2-6.4-5.4-9.3c-14.3-18.4-14.5-40-0.4-58.4c3.7-4.9,6.6-9.9,7.1-16.1c0.2-2.1,1.2-2.8,3.1-2.8C90,20,92,20,94,20z
	 M136.9,115.5c-1.8,0-3.6,0-5.4,0c-1.9,0.1-3-0.5-3.1-2.7c-0.5-6.4-3.6-11.5-7.3-16.5c-13.8-18.3-13.5-39.8,0.6-57.9
	c3.5-4.5,6.2-9.4,6.6-15.1c0.2-2.7,1.4-3.3,3.8-3.2c2.9,0.1,5.8,0.3,8.7-0.1c4.8-0.6,5.6,1.9,4.9,5.8c-1.5,8.7-4.8,16.5-10.2,23.5
	c-9.8,12.6-9.5,25.3,0.3,37.5c5.2,6.4,8.3,13.8,9.7,22c1,6,0.5,6.7-5.8,6.8C138.7,115.5,137.8,115.5,136.9,115.5z M50,115.5
	c-1.8,0-3.6,0-5.4,0c-2,0.1-2.9-0.7-3-2.8c-0.5-6.1-3.4-11.2-7.1-16.1c-14-18.5-13.8-40.1,0.5-58.4c3.5-4.5,6-9.4,6.6-15.1
	c0-0.4,0-0.7,0.1-1.1c0.6-1.8,10.6-3,15.1-2c3.4,0.8,2.2,3.5,2,5.3c-1.3,9.1-4.8,17.2-10.6,24.5c-9.1,11.4-9,24.5,0.1,36.2
	c5.1,6.5,8.7,13.6,10.1,21.8c1.2,7.3,1.1,7.7-6.3,7.7C51.4,115.5,50.7,115.5,50,115.5z"/>
<path style="fill:#FEFEFE;" d="M501.8,185.7c-1.5,13.3-2.8,25.8-4.2,38.2c0,0.2-0.1,0.4-0.1,0.5c2.7,17-12.5,20.3-21.7,27.8
	c-2.9,2.4-3.4-1.3-3.3-3.3c0.9-12.6-0.6-25-3.3-37.2c-0.2-0.9-0.3-1.8-0.5-2.6c-3.7-13.2-4.7-9.4,6.5-18c4.7-3.6,9.6-6.9,14.1-10.8
	c2.8-2.3,5.7-2.5,8.5-1.4C501,180.2,502.2,183.1,501.8,185.7z"/>
<path style="fill:#FD4E26;" d="M335.7,89.4c-3.3,2.3-6.6-0.1-9.9,0c-8,0.4-16.1-1.1-24.1,0.9c-1.5,0.4-2.8-0.4-4.1-0.9
	c-9.6-10.2-9.2-26.3,0.8-36c10.2-9.9,26.1-10.1,36.1-0.4C345,63.2,345.5,79,335.7,89.4z M454.9,174.2c-92.2-0.3-184.4-0.6-276.6-0.9
	c4.2-6.8,8.5-13.6,12.7-20.4c83.6,0,167.2,0,250.8,0C446.1,160.1,450.5,167.2,454.9,174.2z M149.7,375.4
	c108.2,0.4,216.5,0.7,324.7,1.1c-5,8-9.9,15.9-14.9,23.9c-98.1,0-196.3,0-294.4,0C160,392,154.8,383.7,149.7,375.4z M376.9,297.1
	l6.8,13.9l15.3,2.2L387.9,324l2.7,15.3l-13.7-7.2l-13.7,7.2l2.6-15.3l-11.1-10.8L370,311L376.9,297.1z M403,261.9l4.2,8.5l9.3,1.4
	l-6.8,6.6l1.6,9.3l-8.3-4.4l-8.4,4.4l1.6-9.3l-6.8-6.6l9.4-1.4L403,261.9z M333.6,276.7l2.8,5.7l6.3,0.9l-4.5,4.5l1.1,6.2l-5.7-2.9
	L328,294l1.1-6.2l-4.5-4.5l6.2-0.9L333.6,276.7z"/>
</svg>
