<?xml version="1.0" encoding="utf-8"?>
<!-- Generator: Adobe Illustrator 23.0.3, SVG Export Plug-In . SVG Version: 6.00 Build 0)  -->
<svg version="1.0" id="Layer_1" xmlns="http://www.w3.org/2000/svg" xmlns:xlink="http://www.w3.org/1999/xlink" x="0px" y="0px"
	 viewBox="0 0 512.2 512.2" style="enable-background:new 0 0 512.2 512.2;" xml:space="preserve">
<path style="fill:#DE8729;" d="M133.4,149.9c0-24.8,0.1-49.6,0-74.4c0-1.5,0.6-3.1-1.9-4.1c-15.9-5.9-17.9-18.3-4.8-29.2
	c2.8-1.9,6-2.4,9.4-2.4c63.7,0,127.5,0,191.2,0c0.6,0,1.3,0,1.9,0c9.1,0.3,15.8,5.8,17.1,13.9c1.3,7.9-3.5,15.4-11.9,18.6
	c-2.8,0.5-3.4,2.4-3,4.9c0.2,3.4-0.1,6.7,0.1,10.1c0.1,27.8,0,55.6,0,83.5c0,2.3,0.2,4.7-1.2,6.8c-1.7,1.4-3.8,1.4-5.8,1.4
	c-15.2,0.1-30.4,0-45.6,0c-1.9,0-3.8,0-5.5-1.1c-2-2.2-1.5-5-1.6-7.6c-0.1-17.9,0-35.9,0-53.8c0-1.9,0.1-3.8-0.3-5.6
	c-0.2-1.2-0.5-2.7-2.1-2.6s-1.8,1.6-2,2.8c-0.3,1.7-0.2,3.5-0.2,5.2c0,18.1,0,36.2,0,54.3c0,2.5,0.4,5.1-1.3,7.3
	c-1.3,1-2.9,1.2-4.4,1.2c-7.2,0.1-14.3,0.1-21.5,0c-1.6,0-3.1-0.2-4.5-1.1c-2-2.3-1.5-5-1.5-7.7c-0.1-18.2,0-36.5-0.1-54.7
	c0-2.6,1.2-6.9-2.4-7c-3.1,0-2.1,4.3-2.1,6.8c-0.1,18.4,0,36.8-0.1,55.2c0,2.5,0.4,5.1-1.3,7.3c-1.3,1-2.9,1.1-4.4,1.2
	c-7.2,0.1-14.3,0.1-21.5,0c-1.6,0-3.1-0.2-4.5-1.1c-2-2.3-1.5-5-1.5-7.7c-0.1-18.2,0-36.5-0.1-54.7c0-2.5,1.2-6.9-2.4-6.9
	c-3.1,0-2,4.3-2.1,6.8c-0.1,18.2,0,36.5-0.1,54.7c0,2.6,0.5,5.4-1.4,7.7c-2,1.3-4.2,1.2-6.4,1.2c-14.6,0-29.3,0-43.9,0
	c-2.2,0-4.4,0.2-6.4-1.1c-2.9-4.9-1.1-10.2-1.5-15.4C132.3,158.2,131,153.8,133.4,149.9z"/>
<path style="fill:#CDCCCA;" d="M273.3,177.2c18.9,0,37.8,0,56.7,0c4.5-2.5,9.4-0.9,14.1-1.3c7.9,0.2,13.3-3.2,18.6-12
	c-4.2-1-8.4-0.2-12.6-0.5c-2.1-0.1-4.5,0.4-5.9-2c-0.6-4.9-1.8-9.7,0.9-14.4c12.7,0.1,25.3-0.3,37.9,2.8c34.7,8.6,63.2,41,67,76.2
	c1.6,15.2,0.2,30.4,0.9,45.7c-0.4,0.7-1.2,1.2-1.9,1.2c-5.3-0.5-8.3,2-9.5,7c-2.3,1.2-4.7,1.1-7.1,0.2c-2.4-1.9-1.7-4.6-1.7-7
	c0.2-12.8,0.1-25.5-3.6-37.9c-4.7-15.8-12.5-29.8-24.5-41.3c-1.6-1.5-3.5-4.5-5.8-2.4c-2.4,2.3,0.3,4.6,2.1,6.3
	c15.3,14.6,23.6,32.8,26.3,53.5c1.1,8.6,0.2,17.3,0.5,25.9c0,1.3,0,2.5,0.3,3.8c0.1,1.8,0.2,3.6-0.1,5.4c0,15.1,0,30.1,0.1,45.2
	c0,2.1-0.8,5.7,2.3,5.7c3-0.1,2.2-3.6,2.2-5.8c0.1-12.5,0-25.1,0.1-37.6c0-2.3-0.3-4.7,1.1-6.9c2.4-1.7,4.9-1.5,7.5-0.6
	c0.9,0.5,1.3,1.3,1.5,2.2c0.5,3.6,2.8,4.7,6.2,4.7c1.5,0,3.1,0,4.2,1.4c0,38.4-0.1,76.8,0,115.2c0,5.6-1.7,9.9-5.7,13.8
	c-13.6,13.3-27.1,26.7-40.6,40.1c1.2-4.8,0.9-9.7,0.9-14.5c0-56.7,0.3-113.4-0.2-170.1c-0.2-19.1-7.2-36.4-19-51.6
	c-7.6-9.8-16.7-18-27.6-23.8c-10.2-5.4-20.8-9.2-32.4-10.6c-11-1.3-22-0.7-33-0.8c-59.1-0.1-118.1,0.2-177.2-0.2
	c-20.6-0.1-39.4,4.7-56.6,15.9c-0.9,0.6-1.8,1.3-3,1.3c15.6-15.4,29.9-32.3,47.4-45.8c8.7-6.7,18.8-10.7,29.2-13.7
	c0,4.1,0,8.2,0,12.4c-6.9,1.4-12.3,5-16.6,10.4c-0.6,0.7-1.6,1.4-1.3,2.3c0.4,1.4,1.8,1,2.8,1c3.4,0.1,6.9,0,10.3,0
	c1.7,0,3.5-0.1,4.9,1.2c18.9,0,37.8,0,56.8,0c2.5-1.7,5-1.7,7.5,0c10.1,0,20.2,0,30.3,0c2.5-1.7,5-1.7,7.5,0c10.1,0,20.2,0,30.3,0
	C268.3,175.5,270.8,175.5,273.3,177.2z"/>
<path style="fill:#E8E9EC;" d="M404.7,463.8c-4.2,6-9.7,8.6-17.2,8.5c-116.8-0.2-233.7-0.1-350.5-0.1c-11.2,0-16.9-5.8-16.9-16.8
	c0-58.3-0.2-116.5,0.1-174.8c0.1-18.3,5.9-35,16.8-50c4.6-6.2,9.4-12.1,14.9-17.6c1.5-1.5,3-2.8,4.9-3.6
	c17-13.7,36.6-18.6,58.1-18.5c66.5,0.2,132.9-0.2,199.4,0.2c36.1,0.2,63.4,16.7,81.4,47.9c7.7,13.3,11.5,27.9,11.5,43.4
	c0,56.9,0,113.7,0,170.6C407.1,456.7,407.3,460.6,404.7,463.8z M432.1,287c-2.3-0.4-5,0.9-6.6-1.9c-0.8-1.3-0.8-2.6,0-3.9
	c1.6-2.8,4.3-1.5,6.6-1.9c2.5,0,5,0.1,7.5,0.1c0,2.5,0,5,0,7.5C437.1,287,434.6,287,432.1,287z"/>
<path style="fill:#F79D22;" d="M330.1,86.6c0-3.5,0-6.9,0-10.4c1.6-1.2,2.3-2.9,2.8-4.7c10.4-4.2,14.5-11.4,11.3-20.3
	c-2.2-6.3-7.6-9.9-15-9.9c-29.3,0-58.6,0-87.9,0c-32.9,0-65.8,0-98.7,0c-5.3,0-10.7-0.3-15.9,0.9c4.1-4.2,8-8.4,12.2-12.5
	c2.7-2.6,6.2-3.6,9.9-3.6c65.3,0,130.6,0,196,0c6.6,0,11.5,3.1,14.2,9.1c2.8,6.3,1.4,12-3.3,16.9c-0.4,0.5-0.8,0.9-1.4,1.3
	c-7.1,5.2-10.9,11.8-9.2,20.9c-3.8,2.9-7,6.5-10.5,9.7C333.3,85.2,332.4,87.2,330.1,86.6z M330.1,86.6c3.4-3.3,6.8-6.5,10.2-9.8
	c1.4-1.3,2.6-2.8,4.8-2.5c0.1,24.2,0.1,48.5,0.2,72.7c0,5.1,0,10.1,0,15.2c2.1,5,2.2,10,0,15c-5.1,0-10.1,0-15.2,0
	C330.1,147,330.1,116.8,330.1,86.6z M197.7,177.2c-2.5,0-5,0-7.5,0c0-21.7,0-43.4,0-65.1c0-1.3-0.1-2.6,0.2-3.7
	c0.4-1.6,1.6-2.8,3.3-2.9c2-0.1,3.3,1.1,3.8,2.9c0.3,1.2,0.2,2.5,0.2,3.7C197.7,133.9,197.7,155.6,197.7,177.2z M235.5,177.2
	c-2.5,0-5,0-7.5,0c0-21.7,0-43.4,0-65.1c0-1.3-0.1-2.6,0.2-3.7c0.4-1.6,1.6-2.8,3.3-2.9c2-0.1,3.3,1.1,3.8,2.9
	c0.3,1.2,0.2,2.5,0.2,3.7C235.6,133.9,235.5,155.6,235.5,177.2z M273.3,177.2c-2.5,0-5,0-7.5,0c0-21.7,0-43.4,0-65.1
	c0-1.3-0.1-2.6,0.2-3.7c0.4-1.6,1.6-2.8,3.3-2.9c2-0.1,3.3,1.1,3.8,2.9c0.3,1.2,0.2,2.5,0.2,3.7
	C273.4,133.9,273.3,155.6,273.3,177.2z"/>
<path style="fill:#F6C191;" d="M332.9,71.5c2,3.3,0,4.2-2.8,4.7C330.3,74.2,329,71.3,332.9,71.5z"/>
<path style="fill:#1669AD;" d="M213.4,445.7c12.9,0,25.8,0,38.7,0c2.8,0,5.9,0,6,3.6c0.1,4-3.1,4-6.1,4c-26.1,0-52.2,0-78.3,0
	c-2.8,0-5.9,0-6-3.6c-0.1-4,3.1-4,6.1-4C187,445.8,200.2,445.7,213.4,445.7z M425.5,281.2c-1.7-1.9-0.9-4.2-0.9-6.3
	c0.2-14.6,0.3-29.2-5-43.2c-4.5-12-10.7-23-20.2-31.9c-1.7-1.6-3.6-3.1-4.6-5.3c-0.8-1.8-0.7-3.3,0.7-4.7c1.6-1.6,3.4-1.1,4.7,0.1
	c3.4,3.1,6.9,6.1,9.7,9.6c15.5,19.3,23.1,41.3,22.2,66.2c-0.2,4.6-0.1,9.1-0.1,13.7C430.2,281,427.8,280.9,425.5,281.2z"/>
<path style="fill:#1669AD;" d="M432.1,287c0,15.7,0,31.4,0.1,47.1c0,2.9-0.3,5.7-3.9,5.7c-3.3-0.1-3.7-2.7-3.7-5.5
	c0-15.2,0-30.4,0-45.7c0-1.2-0.3-2.6,0.9-3.5C427.8,285.5,430.2,285.4,432.1,287z"/>
<path style="fill:#DD3A2A;" d="M434.9,366.5c5.6-0.4,7.1,3.8,8.2,7.9c1.9,7.4-1.9,13.9-8.2,14.4c-5-1.7-7.5-5.5-7.5-11.2
	C427.4,372.1,430,368.3,434.9,366.5z"/>
<path d="M451.1,294.7c-1.1,0-2.2-0.1-3.3-0.1c-7.9-0.1-7.9-0.1-8.3-7.6c-1.6-2.5-1.6-5,0-7.5c0.4-7.5,0.5-7.5,7.8-7.6
	c1.2,0,2.5-0.1,3.7-0.1c12.1,0.1,24.2,0.1,36.2,0.2c7.6,0,12.8,4.7,12.8,11.3c0,6.7-5.2,11.3-12.8,11.3
	C475.3,294.6,463.2,294.6,451.1,294.7z M133.4,177.3c-5.6,0-11.3,0.1-16.9,0c-1.2,0-2.7,0.6-3.4-0.8c-0.8-1.7,0.9-2.5,1.8-3.4
	c2-2.2,4.3-4.1,6.3-6.4c3.3-3.7,7.4-5.1,12.2-4.5C133.4,167.3,133.4,172.3,133.4,177.3z M345.2,177.2c0-5,0-10,0-15
	c5.9,0,11.9,0,17.8,0c0.9,0,2-0.3,2.5,0.8s-0.4,1.7-1,2.3c-3.2,3.2-6.4,6.4-9.6,9.6C352.2,177.5,348.7,177.5,345.2,177.2z"/>
<path style="fill:#B6292A;" d="M434.9,366.5c-8.6,6.4-8.6,16,0,22.3c-11.6,0.7-17.1-6.2-13.1-16.6C423.8,367,425.9,366,434.9,366.5z
	"/>
</svg>
