<?xml version="1.0" encoding="utf-8"?>
<!-- Generator: Adobe Illustrator 23.0.3, SVG Export Plug-In . SVG Version: 6.00 Build 0)  -->
<svg version="1.0" id="Layer_1" xmlns="http://www.w3.org/2000/svg" xmlns:xlink="http://www.w3.org/1999/xlink" x="0px" y="0px"
	 viewBox="0 0 623.4 623.4" style="enable-background:new 0 0 623.4 623.4;" xml:space="preserve">
<path style="fill:#0D8FD9;" d="M273.5,0.1C300.9,8.7,322.1,27,343,45.5c38.3,33.9,73.3,71,102.5,113.1c3.9,5.6,7.5,11.5,10.9,17.5
	c6,10.5,9.4,21.4,9.4,33.9c-0.3,100-0.3,200,0,300c0.1,17.4,0,34.8,0.6,52.2c0.4,12.6-4.9,21.7-14.9,28.7
	c-13.8,9.7-29.3,15.5-45.4,19.5c-68.7,16.9-137,16.5-204.6-5.3c-11.2-3.6-21.7-8.7-31-16.2c-8-6.5-12.2-14.5-12.1-25.2
	c0.4-38.5,0.4-76.9,0.5-115.4c0-27.5-0.4-55.1-0.3-82.6c0.1-52.2,0.3-104.4,0.4-156.7c0-9.3,4.2-16.8,10.5-23.1
	c11.4-11.5,25.7-18,40.8-23c35.1-11.7,71.4-15.3,108.3-14.8c9.7,0.1,19.4,0.3,29.1,1.6c0.5-2.3-1.4-2.9-2.4-3.9
	c-27.3-26.8-53.5-54.7-75-86.6c-7.6-11.2-15-22.6-17.5-36.3c-2.1-11.6,0.8-17.3,11-22.7C267,0.1,270.2,0.1,273.5,0.1z"/>
<path style="fill:#FFFFFF;" d="M194.6,453.6c14.8,1.5,29.7,3.2,44.5,4.6c25.4,2.5,45.7-19.8,44.3-42.2c-0.5-7.5,0.1-15-0.1-22.5
	c-0.5-19.9-16.6-36.8-36.5-38.9c-17.1-1.8-34.1-4-51.1-6c-2.1-2.3-1.9-5.2-1.9-8c0-27.3-0.1-54.6,0-82c0-2.8-0.3-5.7,1.9-8
	c28.8,12,59,17.2,90,19.4c40.6,2.8,80.6-0.1,119.8-11.1c5.4-1.5,10.8-3.3,16.2-4.9c2.2,2.3,1.9,5.2,2,8c0,88.5,0,177,0,265.5
	c0,2.9-0.2,5.7-2,8.1c-18.4,7.8-37.7,11.6-57.3,14.5c-19,2.8-38.2,4.2-57.3,3.6c-36.4-1.1-72.4-5.2-106.6-19
	c-1.7-0.7-3.2-1.6-4.8-2.5c-1.7-2-1.9-4.4-1.9-6.8c-0.1-22.6,0-45.2,0-67.8C193.8,456.3,193.8,454.9,194.6,453.6z M233.1,242
	c-16.1-3.4-31.5-8.7-44.9-18.6c-12.1-9-12.3-18.3-0.2-27.3c16.6-12.3,36-17.7,56-21.3c27-4.7,54.3-4.6,81.5-4
	c16.4,0.3,32.7,2.6,48.8,5.8c3,0.6,5.7,1.9,8.4,3.3c11.6,8.6,22.5,18.1,34.7,25.8c4.6,2.9,9.2,5.6,13.8,8.5c0.4,4.6-2.9,6.9-5.9,9.2
	c-10.3,7.9-22.6,11.6-34.9,15c-18.8,5.2-38.1,7.6-57.5,8.8c-6.2,0.4-12.4,1.3-18.7,1.4C287,249.1,259.9,247.5,233.1,242z"/>
<path style="fill:#C2E4F8;" d="M421.7,535.7c0-93.9,0-187.8,0-281.6c7.7-3.9,15.7-7.1,23-12c2.1,2.1,1.2,4.4,1.2,6.5
	c0.1,88.6,0,177.2,0.2,265.8c0,6.1-2.2,10-6.9,13C433.6,530.7,427.9,533.7,421.7,535.7z M272.6,20.9c47.1,18.9,154.1,130,171,175.5
	c-2.5,0.8-4.2-1-5.9-2c-16.6-9.5-31.5-21.2-45.9-33.7c-37.9-32.8-73.1-68.1-102.3-109C282.8,42.5,276.6,32.8,272.6,20.9z
	 M445.8,548.6c0-1.9-1.2-1.8-2.3-0.6c-6.7,2.9-13.2,6.1-20,8.6c-27,9.8-55,14.4-83.6,16.1c-55.1,3.1-109.1-0.7-159.9-25l0,0
	c-0.2-0.1-0.4-0.2-0.6-0.2c-0.1,0-0.4,0.1-0.4,0.2c-0.1,4.8,0.2,9.7-0.3,14.5c-0.8,7,2.6,10.9,8.1,14.2c6.3,3.8,12.9,6.9,19.8,9.1
	c64,20.9,128.7,21.4,193.7,5.5c13.6-3.3,26.8-7.9,38.7-15.5c2.9-1.8,6.4-3.8,6.7-7.4C446.1,561.6,445.9,555.1,445.8,548.6z
	 M195.7,250.7c0,32.7,0,65.3,0,98c-4.6-0.4-9.2-0.8-13.8-1.1c-2.3-0.1-3.1-1.3-3.1-3.5c0-33.8,0-67.7,0-102.5
	C184.9,244.8,190.3,247.8,195.7,250.7z M194.6,453.6c1.4,2,1.1,4.2,1.1,6.5c0,24.1,0,48.2,0,72.2c-4.6-1.1-8.4-3.9-12.1-6.6
	c-3.3-2.4-4.8-5.7-4.8-9.9c0.1-19.8,0.1-39.5,0-59.3c0-4.1,1.7-4.9,5.1-4.3C187.4,452.7,191,453.1,194.6,453.6z M262.6,390.5
	c-1.4-8.4-9-15.1-17.5-16.1c-12-1.4-24-2.4-36-3.6c-5.7-0.6-11.3-1.9-17-1.6c-1.9-1-4-1.1-6.1-0.9c-1.5-0.1-3.1-0.3-4.6-0.4
	c-2.4,2.3-1.3,5.2-1.3,7.8c-0.5,1-0.8,2.2-0.7,3.5c0,11.9,0,23.8,0,35.7c0,9.2,0.1,9.5,9,10.6c17.4,2.2,34.8,3.9,52.2,6.1
	c6.7,0.8,13.8,1.1,19.5-4.1c1.5-1.5,2.2-3.4,2.5-5.4C264,411.8,264.3,401.1,262.6,390.5z"/>
<path style="fill:#0D8FD9;" d="M339.7,191.8c-0.1,3.7-2,6.6-5.3,8.8c-16.9,11.2-33.6,22.4-50.5,33.5c-5.7,3.7-11.7,2.6-14.9-2.4
	c-3.2-5-1.8-10.7,4-14.6c16.6-11.1,33.3-22.2,50-33.3c3.6-2.4,7.4-3.4,11.4-1.2C337.8,184.6,339.6,187.6,339.7,191.8z"/>
<path style="fill:#0D8FD9;" d="M344.8,232c-4.9-0.4-8.4-2.5-9.9-7.1c-1.7-5.2,0.4-9.1,4.6-12c12.4-8.3,24.9-16.6,37.4-24.9
	c0.7-0.4,1.4-0.9,2.1-1.2c5-2.1,9.2-1,12.4,3.3c3.2,4.3,3,9.6-1,12.6c-13.8,10.2-28,19.8-42.9,28.5
	C346.6,231.8,345.6,231.8,344.8,232z"/>
<path style="fill:#0D8FD9;" d="M230.3,226.9c-5.1-0.3-8.6-2.3-10.1-6.5c-1.5-4.1-1-8.5,2.7-11c12.4-8.6,25-17.1,37.8-25.2
	c4.3-2.7,10.1-0.7,12.8,3.4c2.8,4.2,2,10.4-2.5,13.5c-12,8.3-24.1,16.2-36.3,24.2C233.4,226.2,231.5,226.5,230.3,226.9z"/>
</svg>
