<?xml version="1.0" encoding="utf-8"?>
<!-- Generator: Adobe Illustrator 23.0.3, SVG Export Plug-In . SVG Version: 6.00 Build 0)  -->
<svg version="1.0" id="Layer_1" xmlns="http://www.w3.org/2000/svg" xmlns:xlink="http://www.w3.org/1999/xlink" x="0px" y="0px"
	 viewBox="0 0 265.4 612.1" style="enable-background:new 0 0 265.4 612.1;" xml:space="preserve">
<path style="fill:#0A93E1;" d="M62.8,612.1c-5.7-1.6-11.6-2.8-17.1-4.9C18.1,596.5,0.4,571,0.3,541C0.1,482.5,0.7,423.9,0,365.4
	c-0.5-41.8,9.3-80.5,29.3-117.1c13.8-25.1,28.3-49.8,39.6-76.2c9.1-21.3,12.7-43.8,12.9-66.9c0-3.5-1.1-5.1-4.2-6.8
	c-10.4-5.7-16.2-14.6-16.2-26.6c0-10.5-1.2-21.1,1.1-31.6C67.7,16.8,88,0.3,111.9,0.1c13.9-0.1,27.9-0.1,41.8,0
	c27.4,0.2,49.7,22.3,50.3,49.6c0.1,7.4,0.1,14.7,0,22.1c-0.2,12-5.7,21-16.3,26.5c-3.5,1.8-4.1,4-4.1,7.5
	c0.2,30.4,7.7,58.9,22.1,85.8c14.1,26.3,29.3,52,41.6,79.2c11.1,24.5,17.3,50.4,17.7,77.4c0.5,38,0.3,76,0.3,114.1
	c0,25.1-0.6,50.2,0.1,75.2c1.1,41.4-30.3,70.3-61.2,73.8c-0.5,0.1-1,0.5-1.5,0.8C156,612.1,109.4,612.1,62.8,612.1z"/>
<path style="fill:#FDFDFD;" d="M132.6,367.2c35.4,0,70.9,0.1,106.3-0.1c4.8,0,5.9,1.4,5.9,6c-0.2,30.3-0.2,60.5,0,90.8
	c0,4.6-1.4,5.6-5.8,5.6c-70.9-0.1-141.8-0.1-212.7,0c-4.8,0-5.9-1.4-5.9-6c0.2-30.1,0.2-60.1,0-90.2c0-5.1,1.6-6.2,6.4-6.2
	C62.2,367.3,97.4,367.2,132.6,367.2L132.6,367.2z M200.2,224.6c-9.3,0-17.4-0.1-25.6,0c-7.4,0.1-10.9,3.5-11.4,10.8
	c-1.2,17.2-14.1,29.9-30.4,29.9c-16.4,0-29.4-12.6-30.6-29.7c-0.6-7.6-4.1-11-11.8-11.1c-6.6-0.1-13.2-0.3-19.7,0
	c-4.9,0.2-4.7-1.4-2.8-5c7.1-13.3,14.7-26.4,20.3-40.5c9-22.8,13.7-46.4,13.9-71c0-3.5,0-6.1,4.4-7.4c4.7-1.5,6.2-5.9,5.4-10.7
	c-0.8-5.1-4.2-7.6-8.9-8.3c-3.5-0.5-7.2-0.2-10.7-0.4c-7-0.2-10.4-3.7-10.5-10.8c-0.1-6.6-0.1-13.1,0-19.7
	c0.3-16.6,12.7-29.7,29.3-30.3c14.5-0.4,29.1-0.4,43.6,0c15.9,0.5,28.5,13.6,28.9,29.4c0.2,7,0.1,13.9,0,20.9
	c-0.1,6.7-3.6,10.3-10.3,10.5c-6.4,0.2-12.7,0-19.1,0.2c-6.9,0.2-11.5,4.6-11.3,10.5c0.1,5.9,4.4,9.6,11.2,9.9c9,0.3,9,0.3,9.2,9.1
	c0.9,33,9.6,63.9,25.8,92.7C192.7,210.2,196.1,216.9,200.2,224.6z"/>
<path style="fill:#C0E2F6;" d="M133.2,489.9c35,0,70.1,0.1,105.1-0.1c5.4,0,6.7,1.6,6.5,6.7c-0.3,14.7,0,29.5-0.2,44.2
	c-0.3,28.9-22.3,50.9-51.2,51c-40.4,0.2-80.8,0.2-121.3,0c-29.5-0.1-51.4-22.4-51.5-52c0-14.5,0.2-29.1-0.1-43.6
	c-0.1-4.9,1.3-6.4,6.3-6.4C62.3,489.9,97.7,489.8,133.2,489.9z M132.8,346.8c-35,0-70.1,0-105.1,0c-7.3,0-7.3,0-6.6-7.3
	c3.1-33.2,15.2-63.2,31.8-91.6c1.1-1.9,2.4-3,4.7-2.9c2.2,0.1,4.4,0.2,6.6,0c11.4-1.3,18.7,0.5,24.3,13.6c8.6,20,27.2,28.9,49,26.8
	c21.7-2.1,36.7-14.2,43.7-35.3c1.3-3.8,2.7-5.5,7-5.1c7.7,0.7,16.9-2.8,22.7,1.3c5.5,3.9,7.7,12.6,11.3,19.3
	c12.6,23.4,19.6,48.5,22.3,74.9c0.5,4.8-0.4,6.5-5.8,6.5C203.3,346.6,168.1,346.7,132.8,346.8L132.8,346.8z"/>
</svg>
