<?xml version="1.0" encoding="utf-8"?>
<!-- Generator: Adobe Illustrator 23.0.3, SVG Export Plug-In . SVG Version: 6.00 Build 0)  -->
<svg version="1.0" id="Layer_1" xmlns="http://www.w3.org/2000/svg" xmlns:xlink="http://www.w3.org/1999/xlink" x="0px" y="0px"
	 viewBox="0 0 445 531" style="enable-background:new 0 0 445 531;" xml:space="preserve">
<path style="fill:#0D8FD9;" d="M116.9,161.4c-14-29.1-27.6-57.4-41.2-85.6C69.8,63.5,63.8,51.3,58,39c-4.4-9.3-0.6-15.5,9.6-15.6
	c11.2-0.1,22.3,0.2,33.5-0.1c6.4-0.2,9.7,3,12.2,8.3c19.7,41.2,39.6,82.2,59.2,123.4c2.3,4.8,4.7,6.9,10.3,6.7
	c12.5-0.5,25-0.4,37.5,0c4.3,0.1,6.1-1,6.9-5.5c7-39.7,35.4-68.4,74.7-75.8c49.7-9.4,99.3,26,106.6,76
	c10.3,70.7-56.3,125.1-123.3,100.4c-5.2-1.9-6-0.3-6.9,4.3c-5.4,26.6-13.3,52.4-26.4,76.4c-12.2,22.2-28.3,39.9-53.4,47.4
	c-2.7,0.8-2.9,2-2.9,4.2c0,15.4,0.2,30.8-0.1,46.2c0,3.7,2.1,5,4.6,6.6c18.9,12.2,37.9,24.4,56.8,36.6c3,1.9,6.1,3.7,7.1,7.6
	c1.5,6.2-2.4,11.4-9.3,11.7c-6,0.2-12.1,0.1-18.1,0.1c-38.6,0-77.2,0-115.9,0c-4.2,0-8.1-0.5-10.6-4.3c-3.2-4.8-1.7-10.2,4.4-14.1
	c18.5-12,37-24.1,55.7-35.7c4.9-3,7-6.3,6.7-12.2c-0.5-13.8-0.2-27.7-0.1-41.5c0-3.8-0.5-5.5-5-6.7c-17.9-4.5-30.9-16.1-41.4-30.8
	c-16.8-23.5-26.3-50.2-33-78c-1.9-7.8-3.5-15.6-5.1-23.5c-0.4-2.1-0.6-3.6-3.3-4.1c-29.7-5.3-42.4-26-47.7-53.2
	c-1.4-7-1.8-14.2-1.5-21.3c0.2-7.5,3.7-11,11.2-11c20.8-0.1,41.5,0,62.3,0C114.2,161.7,115.1,161.5,116.9,161.4z"/>
<path style="fill:#C2E4F8;" d="M313.4,183c-0.5-3.1-2.5-2.6-4.4-2.6c-47.3,0.1-94.6,0.1-141.9,0.2c-7.6-0.1-15.2-0.3-22.7-0.3
	c-26.6,0-53.1,0-79.7,0.1c-2.6,0-6-1.3-5.9,3.8c0.6,25.6,14.4,41.2,40,44.8c6.6,0.9,10.3,4,11,11.2c0.6,6.8,2.6,13.5,3.8,20.3
	c0.5,3.1,2.1,3.8,5.1,3.8c20.5-0.3,41-1,61.4-0.3c23.7,0.8,47.3,0.2,71,0.5c2.3,0,4.9,1,7-1.1l0,0c2.4-7.2,3.4-14.7,4.6-22.2
	c1.5-9.4,4-11.6,13.5-12.3c2-0.1,4-0.2,6-0.5C299.7,225.2,316.4,200.7,313.4,183z M389,153.6c-8.3-33.7-40.3-57.9-76.6-55.4
	c-33.6,2.3-60.5,28.8-66.2,57.7c-0.8,4.2-0.5,5.9,4.4,5.8c17.2-0.3,34.4-0.2,51.5,0c4.6,0.1,6.2-1.3,6.1-6
	c-0.3-12.3-0.2-24.5,0-36.8c0.1-7.1,3.5-10.8,9.8-11c31.1-1.2,62.1,24.4,63.4,61.8c0.3,6.9-3.8,10.7-10.7,10.7
	c-10.3,0.1-20.5,0.4-30.8-0.1c-5.6-0.3-7.5,2-7.8,7.1c-0.4,7.8-2.4,15.4-5,22.7c-4.8,13.4-13.4,23.8-26.1,32
	c9.7,2.9,18.3,2.7,27.2,1.5C370.8,237.5,399.3,195.5,389,153.6z M187.3,313.1c-0.6,0.3-1.1,0.6-1.5,1c-1.8-1.8-4.2-1.8-6.5-1.9
	c-13.9-0.1-27.9-0.1-41.8,0c-2.2,0-4.4,0.2-6.2,1.8c1.5,6.9,5.6,12.5,9,18.4c6.4,11.1,14,21.2,25.4,27.6c8.3,4.7,17,8.2,26.9,5.3
	c0.1,0,0.1,0,0.2,0c6.2-0.5,11.5-3.2,16.5-6.6c16-11.1,25.3-27.2,32.7-44.6c-1-1-2.3-1.5-3.6-1.5
	C221.3,312.3,204.2,311.3,187.3,313.1z M184.6,456.9c-10.9,7-21.9,14-34.4,22c24.9,0,47.7,0,72.2,0c-11.8-7.6-22-14.3-32.3-21
	C188.4,456.8,186.7,455.5,184.6,456.9z"/>
<path style="fill:#FFFFFF;" d="M140.8,161.6c4.3-0.2,8.7,0,13.7,0c-1.2-2.7-1.9-4.5-2.8-6.3c-16.1-33.5-32.2-66.9-48.3-100.4
	C97.1,41.7,97,41.7,82.3,42.3c-0.2,0-0.4,0.2-0.9,0.4c-0.1,0.6-0.2,0.8-0.1,1c18.3,38.3,36.7,76.6,55,114.9
	C137.3,160.6,138.4,161.7,140.8,161.6z M249.4,282.8c-21.1,0.6-42.3-0.7-63.4,0.6c-20.6-0.1-41.3-0.2-61.9-0.3
	c-2.7,0-4.4,0.7-3.3,3.9c3.3,9.1,5.5,18.7,10.4,27.2c18.3,0.1,36.5,0.2,54.8,0.2c0.4-0.2,0.9-0.3,1.3-0.5l0,0
	c18.2,0.1,36.4,0.1,54.6,0.2c4.2-8.8,7.2-18.1,10.2-27.4C253,283.6,252.7,282.7,249.4,282.8z M331.4,128.4c-3.3-0.8-4.4,0.1-4.3,3.4
	c0.1,8.7,0.1,17.3,0,26c0,2.9,1,3.9,3.9,3.9c10-0.1,20,0,30,0C358.6,146.7,345.1,131.8,331.4,128.4z"/>
<path style="fill:#0D8FD9;" d="M225.3,213.8c-6.2,0-12.5-0.1-18.7,0c-3.1,0.1-4.2-0.9-4.4-4.1c-1-14.7-1.1-14.7,13.8-14.7
	c9.3,0,18.7,0.1,28,0c3.3-0.1,4.6,0.9,4.8,4.5c0.7,14.4,0.8,14.4-13.5,14.3C232,213.8,228.6,213.8,225.3,213.8z"/>
</svg>
