<?xml version="1.0" encoding="utf-8"?>
<!-- Generator: Adobe Illustrator 23.0.3, SVG Export Plug-In . SVG Version: 6.00 Build 0)  -->
<svg version="1.0" id="Layer_1" xmlns="http://www.w3.org/2000/svg" xmlns:xlink="http://www.w3.org/1999/xlink" x="0px" y="0px"
	 viewBox="0 0 552 625.5" style="enable-background:new 0 0 552 625.5;" xml:space="preserve">
<path style="fill:#0D8FD9;" d="M76.7,19.7c3,1.7,5.1,4.4,7,7.3c15.6,23,31.4,45.9,46.8,68.9c2.4,3.6,5,4.8,9.3,4.8
	c124.1-0.1,248.2-0.1,372.3-0.1c1.9,0,3.8-0.1,5.7,0.2c3.3,0.4,5.5,2.3,6.7,5.4c1.6,3.9,0.2,7-2.3,9.9
	c-10.7,12.1-21.4,24.3-32.1,36.4c-68.3,77.3-136.7,154.5-205,231.8c-2.2,2.4-3.1,4.9-3.1,8.2c0.1,62.6,0.1,125.3,0,187.9
	c0,4.9,1,6.5,6.2,6.4c18.5-0.3,36.9-0.1,55.4-0.1c4.9,0,9.2,1.2,10.7,6.6c1.5,5.5-1.9,10.5-7.5,11.2c-1.1,0.2-2.3,0.1-3.4,0.1
	c-46.8,0-93.7,0-140.5,0c-4,0-7.6-0.5-10-4.2c-4.1-6.2,0.3-13.5,8.5-13.7c10.1-0.3,20.2-0.1,30.3-0.1c9.3,0,18.7-0.2,28,0.1
	c3.5,0.1,4.5-1.1,4.5-4.6c-0.1-63.6-0.1-127.2,0-190.7c0-3-1.2-5-3.1-7c-45.2-51-90.3-102-135.4-153.1
	c-33.8-38.2-67.5-76.5-101.3-114.7c-2.9-3.2-4.5-6.6-2.6-10.9s5.6-5.2,9.9-5.2c26.4,0.1,52.9,0,79.3,0c0.7-2.3-1-3.4-1.8-4.7
	C95.7,76,82.2,56.2,68.7,36.4c-5.3-7.8-4.8-11,2.2-16.8C72.9,19.7,74.8,19.7,76.7,19.7z"/>
<path style="fill:#FFFFFF;" d="M434.2,118.1L434.2,118.1L434.2,118.1c-0.9-0.1-1.9-0.2-2.8-0.2c-93.6,0-187.2,0-280.8,0
	c-1.2,0-2.6-0.5-3.9,0.7c0.1,0.5,0.1,1.1,0.4,1.5c20.7,30.5,41.5,60.9,62.1,91.4c1.4,2.1,3,2.5,5.2,2.5
	c53.1-0.1,106.1-0.1,159.2-0.2c11.8,0.1,23.6,0,35.3,0.3c2.9,0.1,4.4-1.3,6.1-3.3c19-21.5,38.1-42.9,57.1-64.3
	c8.1-9.2,16.1-18.5,24.8-28.5C475.4,118.1,454.8,118.1,434.2,118.1z M131.1,127.1c-5.1-7.8-10.6-10.5-19-8.9l0,0l0,0
	c-20.6,0-41.2,0-63.1,0c7.8,8.7,14.8,16.6,21.8,24.5c20.4,23,40.8,46.1,61.1,69.2c1.6,1.8,3.2,2.4,5.4,2.4
	c11.8-0.1,23.6-0.2,35.3-0.2c5.5,0,10.9,0,16.4,0c-0.1-2.6-1.8-4.1-2.9-5.7C167.8,181.2,148.9,154.5,131.1,127.1z"/>
<path style="fill:#C2E4F8;" d="M389,234.3c-10.6,11.3-21.4,22.5-32.2,33.6c-9.7,9.9-19.6,19.7-29.5,29.4c-1.9,1.9-3.9,4.3-6.6,1.9
	c0-0.1,0.1-0.1,0.1-0.2c3.8-6.9,8.5-13.1,12.6-19.8c0.4-0.6,0.8-1.3,1.2-1.9c0.5-0.4,0.9-0.8,1.2-1.2c12.2-15,26.2-28.4,39.8-42.2
	c0.3-0.3,0.2-1,0.4-1.7c-4.1,0.3-8.5-1.6-11,3.7c-1.1,2.3-2.9,1.2-4.5,0.2c0.2-0.4,0.5-0.7,0.7-1.1c1-4.6-2.5-3.3-4.6-3.3
	c-55.8-0.1-111.5-0.1-167.3,0c-5.5,0-6,1-3.4,6c3.3,6,7.3,11.6,11,17.3c24.2,37.4,47,75.6,72.5,112.1c2.4,4.3,4.7,4.3,7.1,0l0,0
	c7.8-8.6,15.6-17.1,23.3-25.7c21.9-24.8,43.8-49.6,65.6-74.4c9.9-11.3,19.7-22.6,29.6-33.9C392.8,231.4,391,232.1,389,234.3z"/>
</svg>
