<?xml version="1.0" encoding="utf-8"?>
<!-- Generator: Adobe Illustrator 23.0.3, SVG Export Plug-In . SVG Version: 6.00 Build 0)  -->
<svg version="1.0" id="Layer_1" xmlns="http://www.w3.org/2000/svg" xmlns:xlink="http://www.w3.org/1999/xlink" x="0px" y="0px"
	 viewBox="0 0 448.9 724.7" style="enable-background:new 0 0 448.9 724.7;" xml:space="preserve">
<path style="fill:#0D8FD9;" d="M314.9,130.7c9.7,0.1,19.4,0.2,29.1,0.3c9.4,0.1,12.1,2.1,13.3,11.3c4.1,31.2,8.1,62.4,12.1,93.7
	c5.4,42.1,10.9,84.3,16.2,126.4c3.4,27.2,7.6,54.3,9.9,81.6c6.3,72.7-43.8,140.8-115.1,157.3c-7.1,1.6-14.4,2.8-21.7,3.5
	c-3.8,0.4-5,1.3-5,5.3c0.2,18.8,0.3,37.6,0,56.3c-0.1,4.5,1.2,5.8,5.7,5.8c28.5-0.2,57-0.1,85.5,0c7.5,0,11,2.8,11.6,8.4
	c0.6,4.8-2.8,7.3-5.4,10.2c-70.9,0-141.8,0-212.6,0c-4.6-2.8-7.9-6.4-6.1-12.1c1.8-5.8,6.6-6.6,12-6.6c28.1,0.1,56.1-0.1,84.2,0.1
	c5.3,0,6.4-1.6,6.4-6.6c-0.3-18.3-0.2-36.7,0-55.1c0-4-0.9-5.4-5.1-5.9c-42.6-4.8-77.7-23.6-104.1-57.5
	c-25.7-33-35.6-70.8-30.5-112.4c5.5-44.5,10.6-89.1,16.2-133.6c3.9-31.5,8.2-62.9,12.4-94.3c0.2-1.7,0.2-3.4,0.3-5.1
	c-2.1-7.5,1.3-14.7,1.2-22c1.9-12.5,3-25,4.9-37.5c0.9-5.6,2.7-10.4,9-11.9c21.3-0.6,42.6-0.1,63.9-0.2c15.9-0.1,31.8,0.1,47.7-0.7
	c6.3-0.3,12.5,2.9,19,1.9c1.7-0.3,3.4,0.2,5.1-0.3c7.3-0.1,14.5-0.2,21.8-0.3C302.9,127.6,308.9,127.6,314.9,130.7z"/>
<path style="fill:#FDFDFD;" d="M228,150.5c21.6,0,43.1,0,64.7,0c2.2,2.3,0.9,4.9,0.5,7.3c-5.7,32.5-11.3,64.9-17.1,97.4
	c-0.5,2.6-0.2,5.7-3,7.5c-40.5,0.1-81,0.2-121.5,0.2c-0.6,0-1.3,0-1.9,0c-13.8-0.1-13.8-0.1-12-13.5c2.6-19.4,5.2-38.8,7.8-58.2
	c1.3-2.4,3.3-3.9,5.8-5c22.9-9.7,44.3-22.5,67.1-32.4C221.4,152.5,224.6,151.2,228,150.5z M311.8,150.4c7.3-0.1,14.7,0.3,22-0.3
	c4.9-0.4,6.2,1.6,6.7,6c2.6,21.6,5.4,43.3,8.1,64.9c1.6,12.4,3.1,24.8,4.9,37.2c0.5,3.7-0.3,4.8-4.2,4.8
	c-19.2-0.2-38.4-0.2-57.7-0.3c-2.1-2.8-0.8-5.9-0.3-8.7c5.5-31.8,11.3-63.6,16.8-95.5C308.8,155.5,309.1,152.4,311.8,150.4z"/>
<path style="fill:#0D8FD9;" d="M314.9,130.7c-6,0-12,0-18,0c1.6-16.1,5.3-31.8,8.1-47.7c0.5-3.1,3.1-5,6-6.3
	c34.9-16.2,69.9-32.4,104.8-48.5c6.3-2.9,9.7-1.5,14.6,5.2c0,2.2,0,4.3,0,6.5c-2.7,3.9-6.7,5.8-10.8,7.7
	c-30.8,14.1-61.4,28.3-92.3,42.3c-3.9,1.8-5.9,4-6.5,8.4C319.2,109.1,316.9,119.9,314.9,130.7z M127,180c0.1,7.4-1.1,14.6-2.6,21.8
	c-24.8,12-49.7,24-74.5,36.1c-11,5.3-14.2,4.3-19.7-6.8c-7-14.3-12.1-29-10.8-45.3c1.2-15-1.7-30.1,2.3-45
	C34.6,93.2,77.3,56,126.6,50.2c54.5-6.5,105.8,20.4,128.7,69.5c4.9,10.4,10.7,12.1,20,11.5c-19.2,0.2-38.3,0.5-57.5,0.6
	c-26.3,0.1-52.6,0.1-79,0.1c1.7-4.2,5.4-2.7,8.3-2.7c23.8-0.1,47.5-0.1,71.3-0.1c3,0,6.1,0.1,9-0.8c6.7-2,7.4-3.9,3.4-9.5
	c-7.2-10.2-16.5-18.4-26.8-25.1C141.4,53,57.3,87.1,42.5,162.4c-3.1,16-2.6,31.8,1.8,47.5c1.8,6.3,2.6,6.8,8.5,3.8
	c21.8-11,44.1-21,65.8-32.1C121.1,180.3,123.7,177.9,127,180z M311.8,150.4c-6.7,37.4-13.3,74.8-20,112.3c-6.3,0-12.5,0-18.8,0
	c6.5-37.4,13.1-74.8,19.6-112.2C299.1,150.5,305.5,150.5,311.8,150.4z"/>
<path style="fill:#0D8FD9;" d="M228,150.5c-27.5,13.6-55.1,27.1-82.6,40.7c1.1-8.6,2.3-17.1,3.4-25.7c5.9,0,10.4-3.8,15.4-6.1
	c4.5-2,8.8-4.5,13.3-6.4c1-0.1,0-1.2,0.3-0.4c0.1,0.2-0.1,0.3-0.6,0.3c-8.9-0.2-18,1.9-26.7-1.4c0.5-1.8,2-1.3,3.2-1.3
	C178.5,150.2,203.2,150.4,228,150.5z"/>
<path style="fill:#C2E4F8;" d="M378,449.8c-0.7-22.1-5-44-7.7-66c-2.4-19-4.8-38-7.3-56.9c-2-14.9-4.1-29.7-6.2-44.6
	c-1.8-1.1-3.8-0.6-5.7-0.6c-70.5,0-141.1,0-211.6,0c-1.9,0-3.9-0.4-5.7,0.6c-1.9,7.8-2.2,15.8-3.2,23.7c-2.9,22.6-5.8,45.2-8.7,67.8
	c-2.4,19-4.7,38-7.4,56.9c-2.5,17.9-2.6,35.6,1.5,53.3c16.3,69.9,85.1,114.4,154.8,100.5C334.9,571.8,380.2,515.4,378,449.8z
	 M127,180c2.8-12.3,3.5-24.9,5.2-37.4c0.7-4.8,1.9-8.7,6.6-10.8c2-2,4.5-1.2,6.8-1.2c24.6-0.1,49.3-0.1,73.9,0
	c5.1,0,9.7-0.9,14.3-3.2c2.9-1.4,3.4-2,1.6-4.9c-18-27.9-44.2-43.6-76.5-47.2c-34.5-3.9-65.3,6.1-89.6,32.2
	C40.6,138,32.6,173.6,43.5,213.8c1.3,4.7,3,5.1,7.2,3c23-11.5,46.1-22.7,69.1-34C122.1,181.8,124.2,180.1,127,180z"/>
<path style="fill:#C2E4F8;" d="M148.8,165.4c0.5,2.1,1.4,2.9,3.6,1.8c9.7-5,19.5-9.8,29.2-14.7c-0.1-0.4-0.2-0.7-0.3-1.1
	c-10.3,0-20.5,0-30.8,0C150,156.1,149.4,160.8,148.8,165.4z"/>
<path style="fill:#6ECCD0;" d="M356.8,282.4c-74.3,0-148.7,0-223-0.1c1.5-2.4,3.9-1.2,5.9-1.2c70.4,0,140.7,0,211.1,0.1
	C352.8,281.2,355.1,280.3,356.8,282.4z"/>
</svg>
