<?xml version="1.0" encoding="utf-8"?>
<!-- Generator: Adobe Illustrator 23.0.3, SVG Export Plug-In . SVG Version: 6.00 Build 0)  -->
<svg version="1.0" id="Layer_1" xmlns="http://www.w3.org/2000/svg" xmlns:xlink="http://www.w3.org/1999/xlink" x="0px" y="0px"
	 viewBox="0 0 597.4 597.4" style="enable-background:new 0 0 597.4 597.4;" xml:space="preserve">
<path style="fill:#0D8FD9;" d="M460.4,379.7c45.6-11,74.1-40,87.9-84.2c8.7-27.9,5.7-56.1,1.4-84.1c-5.5-36-12.1-71.7-17.5-107.7
	c-1.8-12.2-7.8-20.1-18.7-24.9c-12.5-5.5-25.9-7.7-39.3-8.9c-37.7-3.2-74.9,0.6-111.5,9.8c-15.2,3.8-30.1,8.8-43.2,17.8
	c-9.4,6.5-15,14.7-13.8,26.8c0.6,6.2,0.1,12.5,0.1,18.8c-0.3-0.1-0.8,0-1.2-0.3c-18.1-11.8-38.2-19.2-58.8-25.1
	c-31-8.9-62.5-14.3-94.9-13.2c-10.8,0.4-21.6,1.7-31.4,6.8c-5.8,3-10.8,6.8-12.8,13.7c-7.3,26-14.9,51.8-22.4,77.8
	c-7.4,25.6-15.8,51-18,77.7C61.5,336.2,90,389.9,145.8,409c3.1,1.1,3.7,2.3,3,5.4c-6.6,28.9-13.2,57.9-19.6,86.9
	c-0.7,3.3-2.1,3.8-5.2,3.2c-11.7-2.2-23.6-3.4-35.5-3.5c-10.5-0.1-21,0.4-30.8,4.7c-14.6,6.3-17.7,20.8-6.9,32.5
	c4.7,5.1,10.3,8.9,16.4,12.2c18.5,10,38.4,16.2,58.9,20.5c10.7,2.2,21.5,3.7,32.3,5.4c9,0,18,0,27.1,0c5.6-1.9,11.6-2.1,17.1-4.4
	c15-6.4,18.2-20.7,7.3-32.7c-4.2-4.6-9.2-8.1-14.5-11.2c-13.7-7.9-28.4-13.1-43.5-17.2c-3.4-0.9-4.1-1.9-3.3-5.4
	c6.7-28.6,13.2-57.2,19.4-85.8c0.9-4.1,2.5-4.9,6.1-4.3c10.1,1.6,20.2,1.1,30.2-0.8c52.9-10.1,83.8-43.8,99.3-93.5
	c4.2-13.5,6.7-27.6,9.1-42.1c2.4,2.3,2.3,4.7,2.8,6.9c14.7,58.5,61.3,97.2,116.5,97.1c2.7,0,3.6,0.8,3.9,3.6
	c3.4,29.5,6.9,59.1,10.6,88.6c0.5,3.9-1,4.8-4.6,5.2c-13.9,1.8-27.7,4.8-40.9,9.5c-8.9,3.1-17.5,6.9-24.3,13.6
	c-10.3,10.1-8.8,23.3,3.4,31c5.1,3.2,10.7,5.1,16.5,6.5c17.8,4.2,35.8,4,53.8,3.1c24.4-1.2,48.3-5.3,70.9-15.1
	c6.6-2.9,12.9-6.5,17.8-12c7.8-8.8,6.8-20.2-2.4-27.6c-4.3-3.4-9.3-5.5-14.5-7c-16.5-4.8-33.4-5.3-50.4-4.6
	c-3.8,0.2-5.4-0.5-5.9-4.6c-3.2-29-6.5-58-10.1-87C455.4,381.5,456.6,380.6,460.4,379.7z M319.8,79.2c5.2,2.1,10.6,3.3,13.7,3.4
	c14.6,0.1,18.2-5.8,12.6-16.5c-2.9-5.4-6.6-10.3-11.8-13.8c-8-5.3-17.8-3.1-22.3,5C307.4,65.5,310.9,75.6,319.8,79.2z M280.8,60.4
	c5,2.1,8.7,0.5,11.1-4.4c1.9-3.8,2.1-7.9,2-12.5c0.1-3.5-0.1-7.5-1.5-11.2c-2.9-7.9-11.4-11.9-19.2-9.3
	c-7.8,2.6-12.7,10.8-10.1,18.3C266.1,50.2,272.2,56.7,280.8,60.4z M265.4,111.8c5.2,4.7,10.7,3.1,13.1-3.5
	c1.8-4.9,2.2-10.2,2.3-16.3c0.2-2.6-0.1-5.9-1.1-9.3c-2.2-8-8.2-11-15.8-7.6c-5.8,2.5-9.3,7-9.2,13.4
	C254.8,97.7,258.5,105.6,265.4,111.8z"/>
<path style="fill:#C2E4F8;" d="M532.1,234.2c-0.2-8.6-1.4-17-3.2-25.4c-23.5-7.9-47.8-9.7-72.4-9.1c-16,0.4-32,1.7-47.8,4.3
	c-27.8,4.5-55.2,10.3-79.2,26.3c-0.2,8.6,0.2,17.3,2,25.7c24.1,10,49.5,11.1,75,10.7c15.6-0.2,31.1-1.9,46.5-4.2
	c25.6-3.7,50.4-9.6,73.4-21.7C530.9,240.7,532.9,238.7,532.1,234.2z M195,234.8c-32.6-6.6-65.3-11.4-98.4-2.5
	c-3,8-4.8,16.3-6.2,24.7c3.6,2.9,7.1,6.1,10.9,8.7c21.9,14.3,46.3,22.7,71.5,29.2c18.4,4.7,36.9,8.4,55.9,9.9
	c17.4,1.3,34.7,2,52-1.2c2.5,1.4,4.5,0.4,6.4-1.2c2.7-9.1,4.7-18.4,5.5-27.9c-5.2-3.9-10.3-7.9-16-11
	C251.1,249.2,223.5,240.6,195,234.8z"/>
<path style="fill:#FEFEFE;" d="M329.5,230.2c-0.5-19.7-2.5-39.4-0.7-59.3c0.6-7-2.4-14.7-2.3-22.2c0-1.9,0-3.9,0-4.8
	c64.9,13.3,127.8,7.9,188.9-19c4.5,27.6,9,55.8,13.6,84c-1.8,2-3.7,0.7-5.4,0.2c-26.4-8.2-53.4-8.7-80.7-7
	c-18.7,1.1-37.2,3.6-55.5,7.6c-18.7,4-37,9.4-53.3,19.8C332.7,230.1,331.3,231.1,329.5,230.2z M96.6,232.3
	c7.3-25.2,14.5-50.4,21.7-75.6c0.6-2.2,1.1-3.2,3.5-1.5c27,19.1,58,28.1,89.8,34.9c24,5.2,48.3,7.9,72.9,6.3
	c5.9-0.4,11.8-1.4,17.5-2.9c1.7-0.5,3.6-1.3,3,2.1c-4.2,26.3-8.4,52.6-12.5,78.9c-2,0.4-3.5-0.7-4.9-1.8c-18.9-14.3-40.8-22-63-28.9
	c-20.9-6.5-42.2-10.8-63.9-13.1c-19.7-2-39.5-3.2-59,1.9C100.1,233.1,98.3,233.6,96.6,232.3z M387.5,130.8c-16.3,0-32.4-1-48.2-5.3
	c-2.4-0.7-4.8-1.6-7.1-2.5c-2.3-0.9-5.6-1.5-5.8-4.1c-0.1-2.5,2.9-3.9,5-5.2c15.2-9.5,32.2-14.2,49.5-17.8c32.1-6.6,64.6-9,97.3-5.5
	c9.3,1,18.5,2.8,27.2,6.5c2,0.8,4.8,1.6,5,3.6c0.3,2.4-2.5,3.7-4.4,5c-11.3,7.4-23.9,11.7-36.8,15.1
	C442.5,127.6,415.1,130.7,387.5,130.8z M162.4,124.9c42,1.4,82.3,9.8,120.3,28.5c6.5,3.2,12.6,7,18,11.8c5.1,4.6,4.8,6.4-1.7,8.3
	c-8.7,2.6-17.7,3.3-26.7,3.3c-29.2,0-57.6-5.3-85.5-13.7c-16.9-5-33.4-11.3-48.3-20.9c-2.4-1.5-4.8-3.2-7-5
	c-2.1-1.8-5.5-3.7-4.9-6.5c0.6-2.5,4.4-2.8,6.9-3.5c5-1.3,10.2-2.3,15.4-2.4C153.4,124.9,157.9,124.9,162.4,124.9z"/>
<path style="fill:#FFFFFF;" d="M391.3,517.3c27.3,14.7,114.3,4.4,131.3-13.4C497.4,490.1,412.2,498.6,391.3,517.3z M66.1,524.3
	C81.6,544.6,167.4,564,195,553.2C175.3,531.6,91.9,513.1,66.1,524.3z M532.1,234.2c0.2,4-3.3,4.7-5.6,6.6
	c0.5,13.2,0.9,26.4-2.2,39.5c-8.3,35.3-27.8,61.3-61.9,75.6c-6.3,2.6-13.2,3-19.2,6.3c2.2-0.1,4.4,0,6.5-0.4
	C514.7,350.4,541.8,288,532.1,234.2z M256.5,354.7c-20.2,24.6-46,37.8-77.9,38.7c-5.8,0.2-11.4-1.9-17.2-1
	c11.1,4.1,22.7,4.1,34.1,2.9c51.5-5.7,84.6-48.5,91.6-92.9c-2.1,0.4-4.2,0.8-6.4,1.2C276,322.1,268.9,339.6,256.5,354.7z"/>
<path style="fill:#FBF9F9;" d="M130.3,362.6c-23.5-15.6-30.7-38.9-31-65.4C104.1,321.6,114.5,343.3,130.3,362.6z"/>
<path style="fill:#FBF9F9;" d="M355.4,296.1c13.5,21.1,19.7,27.4,46.1,46.8c-16,0-38.9-22.1-47.2-45.7
	C353.9,296.1,354.4,295.8,355.4,296.1z"/>
<path style="fill:#F3B7B6;" d="M355.4,296.1c-0.4,0.4-0.8,0.7-1.2,1.1c-1.8-2.3-2.4-4.9-3.1-8.5
	C353.4,291.3,354.5,293.7,355.4,296.1z"/>
</svg>
