<?xml version="1.0" encoding="utf-8"?>
<!-- Generator: Adobe Illustrator 24.0.0, SVG Export Plug-In . SVG Version: 6.00 Build 0)  -->
<svg version="1.1" id="Layer_1" xmlns="http://www.w3.org/2000/svg" xmlns:xlink="http://www.w3.org/1999/xlink" x="0px" y="0px"
	 viewBox="0 0 612 314" style="enable-background:new 0 0 612 314;" xml:space="preserve">
<path style="fill:#050505;" d="M305.6,272.7c-15.4-24-36.1-40.8-63.8-48.1c-20.8-5.5-41.4-3.6-61.9,2.1c-2.8,0.8-4.1,1-5-2.4
	c-7.9-31.1-30-47.9-59-57.4c-16.8-5.5-34.1-7.4-51.7-7.4c-0.8,0-1.5-0.2-2.5-0.3c4.6-18.5-3.9-32-16.2-44.1
	c-7.8-7.7-16.9-13.7-26.5-19.2c1.3-1.4,3.1-0.7,4.5-0.5c28,5.4,51.7-3.9,72.8-21.6c12.7-10.7,22.9-23.7,31.9-37.6
	c0.4-0.6,1-1.1,1.8-2c7.6,17.2,15.8,33.7,25.6,49.4c15.6,24.9,33.3,48,57.2,65.8c13.7,10.2,28.8,17.5,45.8,20.6
	c3.9,0.7,6.5,1.4,6.1-4.7c-0.6-10.9,3.5-20.6,11-28.7c2.1-2.2,2.9-4.4,3-7.4c0.4-8.9,1.1-17.7,3-26.8c2.7,6.4,5.5,12.8,8.1,19.3
	c1.1,2.7,2,3.6,5.2,2.5c7.3-2.5,14.9-2.6,22.3-0.6c3.6,1,5-0.3,6.2-3.4c2.4-6.2,5.1-12.3,8.8-18.2c0.5,8.2,1,16.4,1.5,24.6
	c0.1,1.9-0.3,4.2,1.4,5.6c11.3,10.1,16.2,22.7,15.1,38.1c22.1-3.2,40.4-13.1,56.6-27c29.9-25.5,50.4-57.9,67.6-92.7
	c2.6-5.3,5-10.8,7.7-16.7c7.1,10.8,14.2,20.8,22.7,29.7c18,18.8,38.8,32.2,65.8,33.3c8,0.3,15.8-0.6,23.7-2.6
	c-7.2,5.1-14.8,9.5-21.5,15.1c-11.4,9.5-21,20.1-23.5,35.4c-0.4,2.5-0.5,5.2-0.2,7.7c0.9,7.1,1,7-6.4,7.2
	c-20.2,0.5-40,3.5-58.6,11.9c-23.5,10.5-40.7,26.8-46.9,52.7c-1.1,4.4-3.2,3.2-6,2.4c-24.6-6.7-49-7.6-73.1,2.1
	c-18.8,7.5-33.9,19.7-45.9,35.8c-1.9,2.5-3.6,5.2-5.5,7.8C306.6,272.3,306.3,272.4,305.6,272.7z"/>
<path style="fill:#E98923;" d="M294.1,163c-5.8-0.2-9.8-2.8-12.6-7.3c-2.6-4.2-2.4-8.6-0.2-13c1.4-2.7,2.6-3.5,5.1-0.9
	c4,4.4,8.4,8.4,12.6,12.7c4.6,4.6,4.1,6.1-2.3,7.9C295.7,162.7,294.8,162.8,294.1,163z"/>
<path style="fill:#E98923;" d="M317.9,163c-0.7-0.2-2.2-0.4-3.7-0.9c-5.3-1.8-5.6-3.1-1.6-7.1c4.3-4.4,8.8-8.6,13-13.1
	c2.5-2.7,3.8-1.7,5.2,0.8C335.4,151.3,328.7,162.7,317.9,163z"/>
</svg>
