<?xml version="1.0" encoding="utf-8"?>
<!-- Generator: Adobe Illustrator 24.0.0, SVG Export Plug-In . SVG Version: 6.00 Build 0)  -->
<svg version="1.1" id="Layer_1" xmlns="http://www.w3.org/2000/svg" xmlns:xlink="http://www.w3.org/1999/xlink" x="0px" y="0px"
	 viewBox="0 0 580 580" style="enable-background:new 0 0 580 580;" xml:space="preserve">
<path d="M425.8,27.1c3.8,2.2,4.5,5.3,3.7,9.6c-1.3,6.4-1.1,12.9,0.3,19.3c1.7,7.6,5.6,13.4,12.5,17.2c5.4,2.9,10.6,6.1,15.9,9.2
	c9.2,5.5,15.7,13.3,18.4,23.6c4.1,15.4,11.8,29,21,41.8c4.4,6.2,5.2,12.5,2.6,19.3c-5.4,14.2-14.4,25.8-26.6,35
	c-6.7,5-15,4.2-22.7,5.1c-5,0.6-7,2.8-7.4,7.2c-0.7,9.8-0.8,19.4,4.4,28.3c13.8,23.7,16.6,49.4,13.8,76.1c-1,10-5.5,18.9-8.7,28.2
	c-2.2,6.3-4.3,12.5-5.8,19c-2.4,11-0.9,21.6,2.3,32.3c12.5,41.9,24.8,83.9,37.1,125.9c4.5,15.5-4.4,27.4-20.5,27.4
	c-3.1,0-6.1,0-9.2,0c-10.2-0.1-17.1-5.2-20.1-15c-8.4-27-17-53.9-27.4-80.2c-3.1-7.9-6.5-15.7-10.5-23.3c-0.8-1.6-1.9-3.1-3.3-5.5
	c-11.9,25.9-27.7,47.5-52.7,62c5.6,1.6,10.3,2.3,14.6,4.3c12.6,5.6,19.5,15,19.6,29.1c0.1,6.5,0.1,13,0,19.5c-0.1,7.2-2,9.1-9.2,9.1
	c-49.5,0-99.1-0.1-148.6,0c-15.9,0-31.8,0.3-47.5-1.9c-14.4-2-28.5-5.4-41.7-11.7C97,522.4,82,494.6,78.3,459.3
	c-3.3-31.4,2.1-61.9,8.8-92.3c5.1-23.3,11.8-46.2,16.3-69.6c0.4-2,0.6-4,0.9-6.1c1.2-8.8,1-9-7.2-12.1c-16.9-6.3-23.9-22.5-16.8-39
	c6.4-14.7,24-25.1,39.8-23.3c13.3,1.5,20.9,9.8,24.9,21.9c4.7,14.5,4,29.3,2.5,44.1c-2,19.7-7.9,38.7-11.3,58.2
	c-5.2,29.5-8.9,59.1-6.7,89.1c0.8,11.3,2.6,22.4,7.3,32.8c4.2,9.2,10.2,16.5,21,18.3c3,0.5,4.2,0.2,3.7-3.5
	c-3-22.4-4.6-44.8-3.6-67.4c2-44.6,18.4-82.8,50.4-114c9.5-9.3,19-18.8,29-27.4c34.5-29.7,59.1-65.7,72.7-109.2
	c4.2-13.3,9.3-26.3,15.6-38.8c8.2-16.3,20.5-29.3,34-41.2c6.6-5.8,12.7-11.8,18.1-18.7C388.3,47.9,401,37.5,416.1,30
	c1.6-0.8,3.5-1.2,4.6-2.9C422.4,27.1,424.1,27.1,425.8,27.1z"/>
<path style="fill:#FFD464;" d="M437,105.9c6.4-0.1,11.4,4.7,11.6,11c0.2,6.6-4.6,11.7-11.2,11.9c-6.6,0.1-11.6-4.9-11.6-11.5
	C425.8,110.9,430.7,106,437,105.9z"/>
</svg>
