<?xml version="1.0" encoding="utf-8"?>
<!-- Generator: Adobe Illustrator 24.0.0, SVG Export Plug-In . SVG Version: 6.00 Build 0)  -->
<svg version="1.1" id="Layer_1" xmlns="http://www.w3.org/2000/svg" xmlns:xlink="http://www.w3.org/1999/xlink" x="0px" y="0px"
	 viewBox="0 0 586 586" style="enable-background:new 0 0 586 586;" xml:space="preserve">
<path style="fill:#DAD6C8;" d="M297,0.1c8,0,16,0,24,0c3.6,1.4,7.5,0.6,11.2,0.9c28.5,2.1,52.6,14.4,74.3,31.9
	c28.5,23.1,46.2,53,54,89c6.7,30.7,14.5,61.1,23.1,91.3c8.3,29.4,23.4,55.2,42,79.1c7.4,9.5,15.2,18.5,23.4,27.2
	c9.9,10.5,9.3,22.9-1.9,31.8c-10.1,8.1-13.3,18.1-11,30.4c5.9,31.3,1.5,61.6-7.6,91.7c-9.9,32.6-52.8,45-78.3,20.7
	c-5.1-4.8-10.2-9.7-17.6-11.2c-11.1-2.3-22,2.5-27.5,12.5c-2,3.7-3,7.8-4.1,11.8c-5.8,20.3-13.7,39.4-28.7,55.1
	c-14,14.6-30.7,22.4-51,23.1c-22.6,0.8-42.9-4.2-59.7-20.4c-10.9-10.6-18.6-23-22.6-37.7c-3.1-11.4-5.2-23-8.4-34.4
	c-0.8-2.9-1.5-5.9-2.5-8.8c-6.7-19.1-28.1-24.9-43.4-11.8c-11.6,9.9-23,20-35.8,28.3c-20.6,13.3-45.3,8.5-59.4-11.6
	c-7-9.9-8.3-21-6.4-32.7c0.5-3,1.4-5.9,1.9-8.9c3-16.4-8.6-31-25.3-31.7c-6.8-0.3-13.3-1.1-18.9-5.2c-14-10.3-15.8-28-3.8-40.8
	c10.3-11,20.8-21.7,30.2-33.5c26.1-32.6,45.5-68.8,59.6-107.9c12.9-36.1,22.7-73,31-110.4c5.4-24.2,16.3-45.8,32.4-64.7
	c19.8-23.2,44.2-39.3,73.2-48.5c9.2-2.9,18.6-3.5,28.1-4.1C293.3,0.5,295.2,1.3,297,0.1z"/>
<path style="fill:#290D00;" d="M344.6,240.7c-11.6,0-23.2,0-34.8,0c-14,0-19.4-6-17.5-19.8c2.4-17.5,7.1-34.2,17.1-49
	c8.3-12.2,19.3-20.6,34.7-20.9c13.8-0.3,24.4,6.4,32.7,16.9c11.3,14.2,16.4,31,19.6,48.6c0.1,0.4,0,0.8,0.1,1.1
	c4.2,14.3-1.3,24.4-20.5,23.3C365.5,240.2,355,240.7,344.6,240.7z"/>
<path style="fill:#290D00;" d="M294.6,138.1c-17.1-0.3-31.3-10.7-35.9-25.1c-2.3-7.3-1.3-14.3,2.3-20.9c5-9,15.6-11.9,24.5-6.8
	c5.2,2.9,9.5,6.8,14,10.7c7.7,6.7,14.5,14.6,24.3,18.5c3.1,1.2,1.4,3,0.6,4.5C318,131.6,307.1,137.4,294.6,138.1z"/>
<path style="fill:#290D00;" d="M394.5,138c-12.6-0.6-23.3-6.7-30-19.2c-1.3-2.4-1.4-3.7,1.8-4.9c6.2-2.2,10.8-6.9,15.7-11.1
	c5.6-4.9,10.9-10,16.8-14.5c8.8-6.7,16.6-7.3,23.6-2.5c7,4.8,10.9,15.8,8.6,24.9C427.2,126.5,412.4,137.9,394.5,138z"/>
</svg>
