<?xml version="1.0" encoding="utf-8"?>
<!-- Generator: Adobe Illustrator 24.0.0, SVG Export Plug-In . SVG Version: 6.00 Build 0)  -->
<svg version="1.1" id="Layer_1" xmlns="http://www.w3.org/2000/svg" xmlns:xlink="http://www.w3.org/1999/xlink" x="0px" y="0px"
	 viewBox="0 0 612 612" style="enable-background:new 0 0 612 612;" xml:space="preserve">
<path style="fill:#FEE2AA;" d="M1.2,317.5c-0.4,0-0.7,0-1-0.1c0-10.7,0-21.5,0-32.2c0.3-0.1,0.7-0.1,1-0.1c1.4,1.1,1.8,2.6,1.9,4.2
	c0.4,8,0.4,16.1,0,24.1C3,314.9,2.5,316.4,1.2,317.5z"/>
<path style="fill:#FEE4B1;" d="M611.9,317.3c-0.3,0.1-0.7,0.1-1,0.1c-1.2-0.9-1.7-2.2-1.8-3.6c-0.5-8.4-0.5-16.9,0-25.3
	c0.1-1.4,0.6-2.7,1.8-3.6c0.3,0,0.7,0,1,0.1C611.9,295.9,611.9,306.6,611.9,317.3z"/>
<path style="fill:#FD8800;" d="M610.9,285c0,10.8,0,21.6,0,32.4c-1,47.8-10.1,94-28.7,138.2c-20.9,49.8-54.6,88.5-101.7,115.3
	c-7.1,4-14.7,6.9-22.7,8.6c-0.5-2.4,1.2-3.7,2.7-4.9c15.7-12.9,27.1-29.1,37-46.8c-11.5,15.9-24.9,29.6-39.7,42
	c-5,4.2-9.5,9-15.5,12c-8.8,0.7-16.5,5-24.9,7c-14.7,3.4-29.4,6-44.6,4.1c-1.9-0.3-3.8-0.8-5.8-1.3c-0.8-2,0.3-3.5,1.2-4.9
	c7.7-11.3,10.5-24.2,12.2-38.1c-5.7,12.5-10.5,24.7-19.5,34.6c-1.7,1.9-3.1,4.2-5.9,4.8c-19.7,11.2-41.2,12.3-63.1,10.9
	c-12.5-0.8-23.9-5.4-35-10.9c-5.8-3.1-9-8.7-12.6-13.9c-5.2-7.5-8.8-15.9-12.6-25.2c1.1,13.2,4.2,24.7,10.7,35.2
	c1.4,2.3,3.5,4.4,2.5,7.6c-14.1,2.9-28.1,1.2-42-1.4c-9.2-1.7-18.2-4.2-27-7.3c-2.5-0.9-4.9-1.3-7.5-0.9
	c-19.8-16.2-39.6-32.4-53.9-54.2c7.9,15.5,18.1,29,30.1,41.2c2,2,4,3.8,6.2,5.5c1.6,1.3,3.7,2.5,3.2,5.2
	c-19-4.5-34.9-14.9-50.1-26.6c-44.5-34-71.9-79.3-87.1-132.5c-9.7-33.7-15.5-67.9-15.8-103c0-10.8,0-21.6,0-32.5
	c2.7-44.7,17-84.4,50.3-115.8c7.4-6.9,15.5-13,25.1-16.6c0.8,2.5-1.3,3.5-2.7,4.8c-28,25.7-48.4,56.2-58.6,93
	c-4.5,16.2-7,32.8-7.3,49.7c-0.1,3.3,0,6.7,0,10c-0.6-18.2,1.6-36.2,5.9-53.8c7.3-29.2,20.8-55.1,42.4-76.6
	c14-13.9,28-27.6,45.5-37.3c3.5-1.9,7.4-2.9,10.7-5.2c21.2-6.3,42.6-8.1,64.5-4.7c1.3,4.3-2.6,4.3-4.7,5.1
	c-11.3,4.6-21.8,10.5-31.4,18.1C123,169.8,110.4,188,100.3,208c-7,13.8-12.1,28.4-16.2,43.3c3.7-12.2,7.3-24.4,13.1-35.8
	c13.7-26.8,31.7-50,57.4-66.3c10.2-6.5,21.5-11,33.1-14.4c7.6-1.4,15.1-3.2,22.7-4.1c12.3-1.4,24.5-1.6,36.1,4
	c-7.4,9.1-13.4,19-17.4,30.2c-6.3,17.7-9,36-11.5,53.2c6.9-28.1,20.6-53.9,39.4-77.2c4.4-3.2,8.8-6.3,13.2-9.5
	c5.7-4.9,13-6.5,19.9-7.1c15.4-1.4,31-2,45.9,3.9c7.1,2.8,13.6,6.5,18.7,12.3c17.9,21.5,30.5,45.9,38.6,72.7c0.9,3.1,1,6.2,1.8,9.3
	c-2.8-17.2-4.6-34.6-10.1-51.4c-3.4-10.5-7.5-20.5-14.2-29.4c-1.5-2-3.7-3.8-2.6-6.8c13.4-5.3,27-4,40.7-1.9
	c5.5,0.8,10.8,3.9,16.6,2.1c29.5,8,51.9,26.3,70.3,49.8c13.5,17.3,23.3,36.8,29.1,56c-2.6-9.8-7.3-21-12.6-31.7
	c-10.2-20.6-23-39.4-41.5-53.9c-9.1-7.2-19.1-12.8-29.9-17.3c-2.2-0.9-5.8-0.6-6-4.5c18.1-4.6,36-2.6,53.7,2.2
	c4.9,1.3,10.3-1,14.6,2.7c10.5,6.3,21.1,12.5,30.8,20.3c34.8,27.8,57.7,62.8,66.1,107c2.8,15,4.2,30,4,45.2c0,0.8,1.3-0.1,0.6,0.2
	c-0.2,0.1-0.4-0.1-0.4-0.5c0.1-19.2-1.8-38.3-6.7-56.9c-7.5-28.3-20.6-53.6-39.8-75.8c-4.9-5.7-10.1-11.2-15.4-16.6
	c-1.6-1.6-3.8-3.1-3.3-5.9c15.3,6.4,26.6,17.9,36.6,30.5c19.9,24.9,30.2,53.7,33.9,85C610.1,275.5,610.4,280.3,610.9,285z"/>
<path style="fill:#70AA00;" d="M353.8,142c-10.1-11.1-23.4-15.2-37.6-16.6c-15.7-1.5-31.2,0-46.1,6c7.4-10.2,13.7-21,15.4-33.7
	c2.4-17.5-3.7-32.4-15.1-45.4c-3.3-3.7-6.9-7.1-10.5-10.5c-7-6.5-8.6-14.2-4.4-21.3c3.8-6.3,11.8-8.3,20.8-5.1
	c31.5,11.3,49.6,34.4,58.2,65.7c2.7,9.7,4.4,19.7,4.9,29.9c0.5,10,6.6,17.2,13.8,23.4c1.5,1.3,3.1,2.5,4.6,3.8
	C357.8,140.9,356.6,142.3,353.8,142z"/>
<path style="fill:#FA7000;" d="M353.8,142c1.8-0.7,2.9-2.2,4-3.7c3.7-0.3,6.4-3.8,10.4-3.4c5.4,8.5,11.4,16.5,15,26.1
	c5.7,15.4,9.4,31.3,11.3,47.6c0.7,6.2,1.5,12.3,1.6,18.6C388,195.8,374.7,167,353.8,142z M246.5,134.7c-5.4,3.3-9,8.2-11.7,13.7
	c-8.3,16.3-13.5,33.6-16,51.8c-0.5,3.7-1,7.4-1.8,11.1c-0.8,3.6-0.5,7.1-0.5,12.4c1.3-2.3,1.8-2.9,2-3.6c6.6-26,18.6-49.4,33.9-71.2
	c1.7-2.5,5.2-4,4.6-7.9C253.8,138.3,250.6,135.8,246.5,134.7z M76.6,152.6c-9.5,8.6-18.7,17.7-26.7,27.7
	c-19.2,24-32.6,50.8-38.5,81.1c-3.3,16.9-4.9,33.8-3.4,51c1-7.2,0.9-14.5,1.5-21.7c1.6-18.8,5.5-37,12.2-54.6
	c7.4-19.4,17.9-36.8,32.5-51.9c14.6-15.1,29.4-30,48-40.4c3.5-2,7.9-2.9,10.2-6.8C99.7,140.6,87.5,145.2,76.6,152.6z M503.2,138.4
	c-1.3,2.5,1.2,2.4,2.2,3c12.5,7,24.4,14.9,35,24.4c20.2,18.1,37,39,47.5,64.4c8,19.3,12.7,39.3,14.6,60.1c0.7,7.4,0.6,14.8,1.7,22.2
	c0.5-1.6,0.5-3.1,0.5-4.6c0.4-14.5-0.8-28.7-3.4-43c-4.9-26.3-15.1-50.2-30.1-72.3c-9.3-13.6-20.9-25.3-32.2-37.2
	C528.4,147,516.1,142,503.2,138.4z M176.9,132.4c-1.1,3.8-4.9,3.6-7.6,4.7c-18.2,7.4-33.7,18.6-46.4,33.4
	c-17.7,20.8-29.8,44.6-37.1,70.9c-1.2,4.2-2.3,8.4-3.4,12.7c3.8-4.3,4.4-9.7,6.1-14.7c4.4-12.4,10.4-23.8,16.9-35.2
	c15.4-27,36-48.2,64.6-61.4c5.8-2.7,12.7-3.1,17.6-8C183.9,135,181,131.2,176.9,132.4z M425.5,135.1c0.3,2.8,2.9,2.4,4.5,3.1
	c3.7,1.5,7.6,2.3,11.2,4c35.8,17,59.3,45.4,75.2,80.8c3.4,7.6,6.6,15.3,9.8,22.9c-3.6-17.6-10-34-19-49.5
	c-12-20.5-26.9-38.1-47.3-50.7c-8-4.9-16.9-7.7-24.9-12.3C431.7,133.5,428.5,133.9,425.5,135.1z M457.8,579.5c1-1.2,1.9-2.6,3.2-3.5
	c13.6-10.6,23.6-24.3,32.7-38.7c2.5-3.9,5-7.9,5.1-13.1c-0.9,0.2-1,1.1-1.5,1.7c-9.6,12-18.9,24.3-31,34.2c-8.3,6.8-16,14.5-24,21.7
	C447.7,582.7,452.8,581.6,457.8,579.5z M168.6,581.8c-0.7-3.4-3.6-4.9-6-7c-12.1-10.2-24.4-20.1-34.6-32.4
	c-4.9-6-9.4-12.4-14.7-18.3c-1.1,1.5-0.6,2.4-0.2,3.2c5.2,11.2,12.3,21.1,19.9,30.7c6.3,7.9,14,14.5,21.2,21.5
	C158.8,581.4,163.6,582.4,168.6,581.8z M367,591.5c9.4-13.7,14.3-28.7,13.7-45.4c-7,15-14.2,29.6-25.6,41.7
	C358.9,589.3,362.6,591.4,367,591.5z M257,587.9c-11.1-12.3-19.2-26.5-25.4-41.9c-0.8,5.7-0.8,11,0.6,16.5
	c2.6,10.5,7.5,19.9,12.9,29C249.3,591.4,253.1,589.4,257,587.9z"/>
<path style="fill:#4D1900;" d="M411.8,421.2c4.9,5.2,9.4,9.9,13.8,14.7c1.9,2.1,3.5,3.2,6.6,2.3c5.1-1.4,11.6-0.7,15.4-3.6
	c4-3,2.3-10,3.6-15.1c0-0.2,0.1-0.4,0.1-0.6c1.2-5.6-0.6-13,3.6-16.3c4-3.2,10.9-2.8,16.5-4c4.3-0.9,8.7-1.4,12.9-2.5
	c4.8-1.3,7.9,1.9,11.4,3.8c1.8,0.9,0.7,2.4,0.2,3.7c-5.7,16.1-11.4,32.1-17.1,48.2c-0.6,1.8-1.8,2.9-3.4,4
	c-22.5,14.9-45,29.9-67.5,44.9c-0.6,0.4-1.3,0.6-1.8,0.9c-0.5-0.4-0.7-0.5-0.7-0.6c-0.9-11.1-0.9-11.1-12-11.1
	c-11.7,0-23.5,0.2-35.2-0.1c-4.3-0.1-5.5,1.4-5.3,5.4c0.3,4.9,0,9.9,0.1,14.9c0.1,2.8-0.9,4.3-3.5,5.4c-14.5,6.5-28.9,13.2-43.3,20
	c-2.6,1.2-4.4,0.6-6.6-0.6c-12.1-6.5-24.1-13.1-36.4-19.1c-4.5-2.2-5.8-4.8-5.4-9.6c1-10.4,0.7-10.2-9.7-11.3
	c-9.3-0.9-18.6-2.2-27.8-3.4c-3.5-0.5-5.5,0-5.6,4.4c-0.1,5.1-1.2,10.2-1.9,15.3c-2.5,0.4-3.5-1.3-4.7-2.3
	c-25.4-21.1-50.7-42.2-76.2-63.3c-2.2-1.9-3.7-3.9-4.6-6.7c-3.7-12.1-7.6-24.2-11.5-36.3c-1.2-3.6,2.5-12,5.8-13.7
	c1.7-0.9,2.6,0.4,3.7,1.1c10.3,6.3,20.6,12.8,31,19.1c2.2,1.3,2.9,2.9,3,5.3c0.2,7.1,0.7,14.3,0.8,21.4c0,3.3,1.1,4.8,4.5,4.4
	c0.4,0,0.8,0,1.2,0c7.1,0.1,15.6,3.7,21,0c5.1-3.4,6.8-11.7,10-17.9c0.8-1.5,1.1-3.4,3.4-4.8c2.2,12.1,4.5,23.8,6.2,35.6
	c0.6,4.6,2.5,6.4,6.9,6.8c7.3,0.7,14.6,1.6,21.9,2.7c3.5,0.5,4.9-0.8,6.1-3.9c3.8-9.8,7.9-19.4,12.3-30c5.4,11.6,10.5,22,15.2,32.7
	c1.8,4.1,4.1,5.4,8.5,5.3c12.7-0.3,25.5-0.2,38.2,0c4.1,0.1,6.5-1,8.3-4.9c4.2-8.7,8.9-17.2,13.8-26.7c3.1,8.8,6.1,16.7,8.7,24.7
	c1,3.2,2.4,4.5,5.9,3.9c13-2,26-3.7,39-5.4c2.9-0.4,4.4-1.6,5.6-4.3C401.7,443.3,406.6,432.6,411.8,421.2z M112,307
	c-2.1,4.2-1.3,5,3.1,5.8c33.5,5.7,66.9,11.7,100.4,17.5c7.6,1.3,15.3,2.5,22.9,3.8c-1.2-2.2-2.7-3.4-4.3-4.6
	c-17.9-13.3-35.7-26.6-53.6-39.8c-2.9-2.2-5.3-4.6-7.3-7.7c-9-14-18.1-27.9-27.8-42.7C133.9,262.5,123.1,284.8,112,307z M463,244.7
	c-8,12.3-16.1,24.6-24,37c-2.1,3.3-4.6,5.8-7.7,8.1c-17.9,13.2-35.8,26.5-53.6,39.9c-1.5,1.1-3.5,1.9-4.3,3.9c0.4,0.2,0.7,0.5,1,0.4
	c41.5-7.2,83-14.4,124.5-21.5c2.9-0.5,2.9-1.8,1.8-4.1c-11.3-22.7-22.5-45.5-34-69C465.2,241.5,464.1,243,463,244.7z M306,337.1
	c-13.3,22.7-26,44.5-39.5,67.4c12.1-4.7,22.7-8.6,33.1-12.9c4.6-1.9,8.5-1.8,13.1,0.1c10.4,4.3,20.9,8.2,32.8,12.8
	C332,381.5,319.3,359.8,306,337.1z"/>
</svg>
