<?xml version="1.0" encoding="utf-8"?>
<!-- Generator: Adobe Illustrator 24.0.0, SVG Export Plug-In . SVG Version: 6.00 Build 0)  -->
<svg version="1.1" id="Layer_1" xmlns="http://www.w3.org/2000/svg" xmlns:xlink="http://www.w3.org/1999/xlink" x="0px" y="0px"
	 viewBox="0 0 592 470" style="enable-background:new 0 0 592 470;" xml:space="preserve">
<path style="fill:#050505;" d="M297.9,418.4c-11.3,0.2-22-0.4-32.7-2c-28.7-4.2-45.8-21.3-54-48.4c-2.9-9.8-4.5-19.9-5.1-30
	c-0.2-4.3-1.7-6.7-5.6-8.9c-12.9-7.5-24.1-17.2-31.4-30.6c-7.7-14.2-8.8-28.8-2.2-43.7c1.4-3.1,1.3-5.4-0.6-8.4
	c-32-49.3-22.8-112.4,21.9-151.3c57.1-49.6,141-54.1,202.7-10.3c28.6,20.3,47.5,47.3,52.8,82.6c4.2,28.1-2.1,54.2-17.4,78.1
	c-2.2,3.4-2.6,5.9-0.9,9.8c7,16.7,4.7,32.7-5.2,47.7c-7.3,11.1-17.3,19.6-28.7,26.2c-3.7,2.1-4.8,4.5-5,8.6
	c-0.6,17.1-4.4,33.5-13.1,48.4c-10.8,18.5-27,28.9-48.4,31C315.8,418.1,306.6,418.7,297.9,418.4z"/>
<path style="fill:#050505;" d="M480.3,424.1c-8-0.4-15.8-6-21.1-15.3c-1.7-3-3.1-6.2-4.7-9.2c-3.9-7.6-9.6-13.3-17.5-16.8
	c-10.9-4.7-21.6-9.9-32.5-14.6c-2.9-1.3-4.4-2.6-3-5.9c0.6-1.4,1.1-3,1-4.5c-0.7-11.7,4.7-19.8,14.7-25.3c1.5-0.8,2.7-2.2,3.9-3.4
	c7.8-7.4,7.8-7.4,17.4-3c2.3,1,4.6,1.9,6.8,3.1c14.3,8.1,28.9,10.5,45.4,6.5c15.7-3.8,27.7,2.5,33.2,14.2c6.1,13,1.1,28.2-11.8,34.3
	c-4,1.9-4.4,3.5-3.3,7.6C513.2,408.6,500.6,424.3,480.3,424.1z"/>
<path style="fill:#050505;" d="M109.6,424.2C91.4,424,79.3,407.5,84.7,390c0.9-3,0.3-3.8-2.2-5c-12.6-6.2-18.4-18.5-14.8-30.9
	c3.7-12.7,16.2-20.8,29.8-19.3c2.9,0.3,5.7,0.7,8.5,1.4c12.7,3.2,24.6,1.9,36.2-4.5c5.7-3.1,11.9-5.3,17.8-8.2
	c2.8-1.4,4.7-1.4,7,1.1c5.4,6,11.7,11.1,18.5,15.6c1,0.6,2.5,1.3,2.6,2.1c1.4,7.7,2.7,15.4,3.7,23.2c0.2,1.9-2.4,2.2-3.9,2.9
	c-9.1,4.2-18,8.7-27.3,12.3c-11.3,4.3-19.1,11.8-23.9,22.7c-2.2,4.9-4.8,9.6-8.8,13.4C122.7,421.8,116.7,424.3,109.6,424.2z"/>
<path style="fill:#050505;" d="M443,252.7c7-12.7,12.3-24.7,15.5-37.5c2.1-8.2,3.1-16.6,3.8-25c0.2-2.5,0.7-4.3,3.4-5.2
	c12.9-4.4,21.3-13.5,27.5-25.4c5.5-10.5,13.6-18.1,26.6-18.2c17.4-0.1,29.8,16.4,25.1,33.2c-0.6,2.1-2.5,4,1.6,5.7
	c13.5,5.8,19.4,19.1,15.1,32.6c-4,12.2-17.2,19.6-30.9,17.3c-1.5-0.3-3.1-0.4-4.5-1c-14.4-5.8-27.6-2.5-40.8,4.2
	C471.9,240.2,457.9,245.9,443,252.7z"/>
<path style="fill:#050505;" d="M147,251.3c-15-6.8-30.1-13.3-44.9-20.5c-10-4.8-19.9-6.3-30.6-2.9c-7.5,2.4-15.2,3.9-23.2,1.2
	c-10.4-3.6-17.5-12.7-18-23.7c-0.5-10.6,5.4-20.4,15.3-24.9c2.2-1,4.3-1.2,3-5c-4.1-12.7,1.3-25.5,12.5-31.4
	c11.2-5.9,25.1-2.7,33.6,7.8c2.4,3,4.6,6.2,6.3,9.6c5.4,10.8,13.4,18.6,24.8,22.7c2.6,0.9,4.1,2.2,4.2,5.3
	c0.6,20.9,6.7,40.3,16.7,58.6c0.4,0.7,0.7,1.4,0.9,2.1C147.8,250.4,147.3,250.8,147,251.3z"/>
<path style="fill:#2E7EB8;" d="M335.8,388.9c0-7.3,1.9-13.6,2.7-20c0.8-6.9-2-11.8-7.6-12.8c-5.8-1-10.1,3.1-11.2,10.4
	c-1.1,7.6-2.6,15.1-3.4,22.8c-0.6,5.9-4.9,3.6-7.8,4c-3.9,0.6-2.9-2.6-3-4.7c-0.1-7.1,0-14.2-0.1-21.3c-0.1-7.1-3.8-11.3-9.6-11.2
	c-5.5,0.1-9.1,4.2-9.2,11c-0.1,7.3-0.1,14.6,0,21.9c0,2.4,0.1,5-3.5,4.2c-2.7-0.6-6.8,1.9-7.4-3.7c-0.9-7.8-2.3-15.6-3.4-23.3
	c-1-6.9-5.3-10.8-11-10.1c-5.7,0.7-8.5,5.5-7.6,12.6c0.8,6.2,1.8,12.5,2.8,19.5c-10.5-4.7-16-12.7-19.9-22.2
	c-5.2-12.9-5.9-26.6-6.5-40.2c-0.3-6.8-3.1-11-9.1-13.9c-8.8-4.3-17.1-9.5-23.9-16.8c-10.9-11.7-12-23.7-3.5-37.2
	c4.2-6.7,4.1-10.9-1.3-17.9c-12.1-15.7-19.4-33.2-20-53c-1-33.3,14.1-59.1,39.7-79.3c52.7-41.5,134.5-36.1,181.3,11.8
	c32.4,33.1,35.7,81.2,8.2,118.3c-7.4,9.9-7.5,11.8-1.3,22.1c6,10.1,5.5,20.1-0.9,29.8c-5.7,8.6-13.5,15.1-22.7,19
	c-11.3,4.8-15.3,12.1-14.6,24.2c0.9,14.4-2.6,28.2-10.2,40.7C347.9,380,343.2,385.4,335.8,388.9z"/>
<path style="fill:#050505;" d="M241.8,268.8c-19.5,0.5-31-10.3-31.7-29.9c-0.9-22.3,9.7-34.7,32.2-37.4c2.7-0.3,5.3-0.6,8-0.7
	c15.6-0.6,26.4,7.6,29.1,22C284.7,251.2,270.9,268.1,241.8,268.8z"/>
<path style="fill:#050505;" d="M311.3,231.4c0-3.7,0.6-8.8,2.4-13.7c3.2-8.7,9.4-14.2,18.3-15.8c11.6-2.1,23-0.7,33.7,4.6
	c8.6,4.3,13.7,11.3,15.4,21c1.6,9.2,0.3,18-3.4,26.4c-3.8,8.6-10.7,13.4-19.9,14.5c-7.7,1-15.3,0.4-22.8-1.8
	C318.9,262,311.1,250.8,311.3,231.4z"/>
<path style="fill:#050505;" d="M270.8,313.7c2.8-14.8,9.7-29.3,20.8-41.7c2.8-3.1,6-3.4,8.9-0.1c11.1,12.4,18.3,26.8,21,43.3
	c0.5,2.8,0,5.9-3,7.5c-2.8,1.5-5.2,0-7.4-1.5c-3-2.1-5.8-4.4-8.8-6.5c-4.6-3.4-9.1-3.4-13.6,0.5c-2.3,2-4.7,4-7.2,5.7
	c-2.3,1.6-4.6,3.8-7.8,2.1C270.6,321.3,270.9,318.2,270.8,313.7z"/>
</svg>
