<?xml version="1.0" encoding="utf-8"?>
<!-- Generator: Adobe Illustrator 24.0.0, SVG Export Plug-In . SVG Version: 6.00 Build 0)  -->
<svg version="1.1" id="Layer_1" xmlns="http://www.w3.org/2000/svg" xmlns:xlink="http://www.w3.org/1999/xlink" x="0px" y="0px"
	 viewBox="0 0 584 584" style="enable-background:new 0 0 584 584;" xml:space="preserve">
<path style="fill:#F1CD6C;" d="M490.3,318.1c0.1,22.7,0.8,45.3,0.2,68c-0.7,25.5-25.6,49.3-51.2,50.1c-10.2,0.3-20.4,0.4-30.6-0.1
	c-7-0.4-9.1,2.1-9,9c0.4,24.5,0.2,49.1,0.1,73.7c0,23.6-11.9,35.5-35.5,35.5c-4.9,0-9.8-0.2-14.7-0.4c1.6-10.4,2.3-20.9,1.5-31.4
	c-0.3-4.1-0.7-9.2-6.4-8.8c-4.6,0.3-5.1,5-5.3,8.8c-0.7,10.5-0.1,21,1.6,31.4c-9.2,0-18.5,0-27.7,0c1.6-10.4,2.3-20.9,1.5-31.4
	c-0.3-4.1-0.7-9.2-6.4-8.8c-4.6,0.3-5.1,5-5.3,8.8c-0.7,10.5,0,21,1.5,31.4c-9.2,0-18.5,0-27.7,0c1.6-10.4,2.2-20.9,1.5-31.4
	c-0.2-3.8-0.7-8.5-5.3-8.8c-5.6-0.4-6.1,4.7-6.4,8.8c-0.7,10.5-0.1,21,1.5,31.4c-9.2,0-18.5,0-27.7,0c1.6-10.4,2.3-20.9,1.5-31.4
	c-0.3-4.1-0.7-9.2-6.4-8.8c-4.6,0.3-5.1,5-5.3,8.8c-0.7,10.5-0.1,21,1.6,31.4c-13.7,0-28,3.7-39.7-7.7c-6.9-6.7-10.7-14.2-10.6-24
	c0.2-25.3-0.2-50.6,0.2-75.9c0.1-7.9-2.1-10.3-10.1-10.3c-14.6-0.1-29.4,2.4-43.8-2.7c-22-7.8-37-28.3-37.1-51.7
	c0-21.2,0.2-42.3,0.3-63.5c0,0,0,0,0,0c0.4-38.9-2.8-77.9,1.8-116.7c9.1-77.3,70.7-146.7,145.7-167C351.2,3.9,466,77.6,487.9,193.5
	c5.8,30.6,2.2,61.9,2.8,92.8C490.9,296.9,490.5,307.5,490.3,318.1z"/>
<path style="fill:#050505;" d="M387.5,388.2c-37.2,1.1-64.2-22.1-64.5-52c-0.5-48.4,45.2-68.9,82.9-50.6
	c23,11.1,39.9,29.4,47.1,54.7c4.1,14.5-1.3,26.9-14.1,34.9C422,386,402.7,386.8,387.5,388.2z M245.1,317.2
	c-5.4-20.1-34.4-44.5-58.7-35.3c-27.3,10.4-45.4,29.9-54,57.3c-5.3,16.9,1.3,29.2,17,37.7c11.5,6.2,24,8.3,36.8,10
	c32.7,4.5,61.6-20.1,61.5-54C249,328,246.6,322.6,245.1,317.2z"/>
<path style="fill:#E93236;" d="M232.1,553.9c-9.1-12.7-5.2-26.8-3.1-40c1.1-6.8,13.6-6.8,14.7,0c2.2,13.3,5.9,27.4-3.1,40
	C237.8,553.9,234.9,553.9,232.1,553.9z M277,553.9c9-12.7,5.3-26.8,3.1-40.1c-1.1-6.8-13.6-6.8-14.7,0c-2.2,13.3-5.9,27.4,3.1,40.1
	C271.3,553.9,274.1,553.9,277,553.9z M313.3,553.9c9-12.7,4.5-26.6,3.2-40.1c-0.3-3.2-4.3-5.1-8.1-4.8c-3.8,0.3-7.5,2.6-7.5,5.8
	c-0.1,13.1-5.4,26.9,3.8,39.2C307.6,553.9,310.5,553.9,313.3,553.9z M349.7,553.9c9-12.7,4.4-26.6,3.3-40.1c-0.2-2.8-3.7-4.6-7-4.8
	c-3.8-0.2-7.8,1.6-8.1,4.8c-1.3,13.5-5.7,27.4,3.3,40.1C343.9,553.9,346.8,553.9,349.7,553.9z M315.5,427c5.5-0.3,9.1-3.3,5.6-8.9
	c-8-12.8-16.5-25.3-25.1-37.7c-3.3-4.8-7.9-4.7-11.2,0.1c-8,11.9-15.5,24.1-23.3,36.1c-4.2,6.5-2,10.1,5.3,10.5
	c7.9,0.4,15.9,0.1,23.8,0.1C298.9,427.1,307.2,427.4,315.5,427z"/>
</svg>
