<?xml version="1.0" encoding="utf-8"?>
<!-- Generator: Adobe Illustrator 24.0.0, SVG Export Plug-In . SVG Version: 6.00 Build 0)  -->
<svg version="1.1" id="Layer_1" xmlns="http://www.w3.org/2000/svg" xmlns:xlink="http://www.w3.org/1999/xlink" x="0px" y="0px"
	 viewBox="0 0 569.3 579.4" style="enable-background:new 0 0 569.3 579.4;" xml:space="preserve">
<path style="fill:#050505;" d="M404,329.5c-4.9,6.9-9.5,14.1-17.1,18.5c-10.9,9.7-22.3,18.8-35.5,25.2c-3.7,1.8-1.5,3.3,0,4.9
	c13,14.2,21.3,30.8,23.4,50c4.1,37.5-10,66.8-40.8,88.3c-1.8,1.2-4.4,1.7-5,4.3c-2.3,2-4.9,3.2-8,3.4c-8.6,2.1-16.8,5.4-25.8,6.3
	c-13.4,1.3-26.4,0.4-39.2-4.1c-3.2-0.3-6-1.8-8.8-3.2c-3.6,0.8-6-1.2-8.3-3.5c-8.4-6.1-16.9-12-23.6-20.1
	c-30.1-36.2-29.7-85.3,1.4-120.6c3-3.4,3.1-4.4-1.1-6.5c-11-5.6-21-12.8-30-21.2c-1.4-1.3-2.5-2.9-4.8-2.4
	c-4.7-6.2-10.8-11.4-15.1-18c-1.1-1.6-3.7-3.1-1.2-5.6c5.4-1.1,10.6-3.4,16.4-2.6c0.3,0,0.5,0.1,0.7,0.2c0.2-0.4,0.6-0.8,1.2-1.2
	c11.5-3.5,23.4-4.7,35.2-6.2c19-2.4,38-3.2,57.2-3.7c40.5-0.9,80.5,2.8,120.1,11c2.6,0.5,5.2,0.9,7.6,2.1
	C405.2,326,405.3,327.8,404,329.5z M429.6,260.6c0.9-6.3-0.5-12.7,1.9-18.8c0.9-6.8,0.3-13.5-2.3-19.9c-0.8-0.6-1.7-0.9-2.6-1.1
	c-37.1-10-74.9-16.4-113.3-18.1c-37.2-1.6-74.4-0.7-111.2,5.6c-9.9,1.7-19.9,2.6-29.5,5.9c-0.6,0.4-1.1,0.8-1.6,1.4
	c0,0.1-0.1,0.2-0.1,0.3c-10.3,1.7-20.2,5.6-30.7,6.6c-1,6.4-0.6,13.1-2.6,19.4c2.6,4.5,0.1,9.6,1.4,14.2c1.4,5-0.4,6.9-5.1,7.2
	c4.9-0.4,6.9,2.1,7.2,6.8c0.1,1.6,0.8,3.3,1.2,4.9c8.4,1,16.1-1.7,23.6-4.9c0-0.2,0.1-0.3,0.1-0.5c3.1,1.8,6.2,0.6,9.3,0
	c35.1-6.4,70.5-9.9,106.1-10.1c10.6-0.1,21.2,0.4,31.8,0.9c33.6,1.4,66.7,6.1,99.6,13.2c4.4,0.9,8.7,2.8,13.4,2.1
	c1.7-0.7,2.7-2.3,2.8-3.9c0.2-4.3,2.8-6.5,6.1-8.4C433.8,261.4,429.1,264.2,429.6,260.6z M172.3,160.8c10.4-1.7,20.8-3.5,31.3-5
	c1.7-0.2,3.4-0.4,4.5-2c0.9-0.4,1.7-0.7,2.6-1.1c0,0,0,0,0,0l0,0c1.7,0,3.4,0.2,5.1,0c19.1-2.8,38.4-3.5,57.7-4.2
	c19.1-0.7,38.2,0.6,57.3,1.9c24.7,1.8,49.1,5.4,73.4,10.2c-0.8-6-5.7-9.3-9.1-13.5c-3.1-0.5-4.4-3.3-6.3-5.3
	c-8.5-8.4-17.5-16.1-27.9-22c-0.6-0.5-1.1-1-1.8-1.3c-21.5-12.9-44.7-19.7-69.8-20.5c-3.1-2-6.2-2-9.3,0
	c-35.7,1.4-66.7,14.2-93.4,37.7c-4.2,3.7-7.3,8.6-12.4,11.4c-1.2,5.1-6.6,7.7-7.9,12.8C168.1,161.5,170.2,161.1,172.3,160.8z"/>
<path style="fill:#050505;" d="M151.7,182.8c-10.4-31.5-45-52.5-77.9-47.4c-11.3,1.8-19-1.7-22.8-10.2c-5.1-11.6,2.3-23.7,15.7-25.7
	c16.8-2.5,33.3-1.4,49.4,3.8c24.4,7.9,44.1,22.2,58.2,43.9c1.5,2.1-0.2,3.5-1.2,5c-1.9,2.8-4.1,5.4-5.8,8.3
	c-4.4,5-7.6,10.8-10.5,16.8C155.6,179.5,154.9,182.4,151.7,182.8z M417.4,182.9c9.4-24.4,26.8-39.8,52.1-46.2
	c9.9-2.5,19.8-2,29.9-0.9c10.8,1.2,19.1-5.6,20.4-16c1.2-9.4-5.4-17.9-15.5-20c-2.2-0.5-4.5-0.7-6.8-0.8
	c-43.3-3.3-77.6,12.5-102.5,48.2c1.5,5.5,6.5,8.7,9.1,13.5C409.6,167.5,413,175.5,417.4,182.9z M491.7,345.9
	c4.7,10.9,14.3,15.5,24.2,11.5c9.8-3.9,13.8-14.3,9.6-25c-4.8-12.3-11.4-23.5-20.3-33.2c-18.8-20.6-41.9-33.1-70-35.9
	c-4.8-0.3-7.5,1.4-7.2,6.7c0.1,1.6-0.7,3.3-1.1,4.9c-0.7,8.4-4.4,15.9-6.7,23.8C453.6,298.6,478.5,315,491.7,345.9z M148.5,292.5
	c-2-6-4.3-12-4.8-18.4c-0.2-1.6-0.6-3.3-1-4.9c-1.4-6.3-2-6.7-8.7-6c-38.4,2.1-79.9,34.7-91.2,71.8c-3.1,10.1,2.6,20.4,12.8,23
	c9.5,2.5,17.7-2,22-12.2c13.1-30.7,38.9-47.7,71.4-47.1C150.8,296.6,149.2,294.5,148.5,292.5z M431.6,241.8
	c30.4-17.6,59.7-16.2,87.8,5.3c8.5,6.5,19.6,4.6,25.7-3.7c6.1-8.3,4.4-19.1-4.2-25.6C505,190.5,466.3,185.9,425,204
	c1.4,6,2.8,12.1,4.1,18.1C429.6,228.7,429.6,235.4,431.6,241.8z M140.3,238.3c0.2-5,1.5-9.9,1.4-15c0.2-2.8,1.2-5.5,1.5-8.3
	c0.5-3.6,3-7,1.1-10.9c-41.3-18.2-80-13.5-115.9,13.7c-8.6,6.5-10.3,17.3-4.2,25.6c6.2,8.5,17.2,10,26.2,3.3
	c4.6-3.4,9.1-6.8,14.3-9.3c25.1-11.9,49.5-10,73.1,4.3C140.1,241.8,140.2,239.8,140.3,238.3z M402.8,329.2
	c-4.5,7-10.6,12.5-15.8,18.9c26.9,18.2,38.5,43.2,34.1,75.5c-1.4,10.3,5.1,19.1,14.9,20.8c9.7,1.6,18.7-4.8,20.8-14.9
	c2.4-12,2.5-24.1,0.4-36.2c-5.5-31.2-21.3-55.8-47.4-73.8c-2.3,1.9-2.7,5.3-5.6,6.8C403.8,327.2,403.3,328.3,402.8,329.2z
	 M159.3,319.7c-36.1,24.8-55.2,69-47,108.9c2.2,10.8,10.7,17.3,20.7,15.8c10.3-1.5,16.6-10.4,15.1-21.6c-1.1-8.9-1.4-17.7,0.5-26.5
	c4.2-20.3,15.5-35.8,32.4-47.5c1.4-2.4-0.7-3.4-1.9-4.6c-5.7-5.5-10.5-11.7-15-18.1C164.1,322.8,162.7,320.5,159.3,319.7z
	 M238.7,554.4c1.3,2.8,3.2,5.1,6.6,3.5c3.6-1.7,3.2-4.5,1.6-7.6c-4.6-9.1-4.3-18.2,0.4-27.1c-2.8-1-5.2-3.2-8.3-3.5
	C232.8,531.2,233.1,542.8,238.7,554.4z M320.5,551.1c-1.4,2.7-1.2,5.3,1.7,6.8c3,1.5,5.2-0.2,6.5-2.8c5.6-11.3,6.4-22.8,0.4-34.3
	c-3.2,0-5.7,1.3-8,3.4C325,533.3,325.1,542.2,320.5,551.1z"/>
<path style="fill:#D82238;" d="M428,277.4c-1.7,7.4-2.5,15.2-7.8,21.4c-3.5,6.9-7,13.8-10.5,20.7c-0.8,3.1-1.3,6.5-5.6,6.8
	c-37.4-8.2-75.1-12.8-113.4-13.1c-36.6-0.3-72.8,2.5-108.7,9.7c-0.5,0.2-1,0.2-1.5-0.1c-5.4,1.8-10.9,3-16.6,3.3
	c-1.6-2.1-3.1-4.2-4.7-6.3c-3.5-7-6.9-13.9-10.4-20.9c-2-8-6.2-15.5-6.6-23.9c7.8-1.5,15.4-4.1,23.3-4.8c0.1-0.3,0.3-0.6,0.5-0.9
	c10.8-1.7,21.6-3.4,32.4-5.1c17.4-2.6,34.8-4.3,52.4-5.4c14.8-0.9,29.5-1.3,44.3-1c43.9,1.1,87.3,6.2,130,16.9
	c0.5,0.1,1.1,0.1,1.7,0.2C427.7,275.5,428.2,276.5,428,277.4z M425,204c-1.8-7.3-5-14.1-7.5-21.2c-3-9-6.4-17.7-14.3-23.7
	c-1.4-0.7-2.9-0.9-4.3-1.2c-34-7-68.5-10.2-103.2-11.2c-28-0.8-56,1.1-83.8,4.7c-1.3,0.1-2.5,0.5-3.4,1.5c-0.1,0.4-0.2,0.7-0.4,1
	c-2.8,0.3-5.6,0.6-8.3,1c-11.1,1.7-22.2,3.4-33.3,5.1c-2.1,1.1-3.2,3.1-4.3,5c-3.5,5.9-6.9,11.9-10.4,17.9
	c-2.5,7.1-5.9,13.8-7.4,21.2c-1.3,6.1-2.7,12.3-4,18.4c2.2,1.9,4.6,1.2,7,0.6c6.2-1.5,12.4-3.1,18.7-4.4c2.3-0.4,4.3-1.3,6-3
	c0.3-0.1,0.7-0.3,1-0.5c0,0,0,0,0,0c27.9-5.8,56.2-9.9,84.6-10.9c29.9-1.1,59.7-0.8,89.5,3c22.8,2.9,45.4,6.8,67.8,12.2
	c4.7,1.1,9.2,3.5,14.3,2.6C430.2,215.6,429,209.5,425,204z"/>
<path style="fill:#FDDD1E;" d="M248.1,444.5c10.2-0.1,18.4,8.2,18.4,18.4c-0.1,9.9-8.2,18-18.1,18.1c-10.2,0.1-18.4-8.2-18.4-18.4
	C230,452.7,238.1,444.6,248.1,444.5z"/>
<path style="fill:#FDDD1E;" d="M321.1,444.5c9.9,0,18.1,8,18.2,17.9c0.1,10.2-8.1,18.5-18.2,18.5c-9.9,0-18.1-8-18.2-18
	C302.8,452.8,310.9,444.5,321.1,444.5z"/>
</svg>
