<?xml version="1.0" encoding="utf-8"?>
<!-- Generator: Adobe Illustrator 24.0.0, SVG Export Plug-In . SVG Version: 6.00 Build 0)  -->
<svg version="1.1" id="Layer_1" xmlns="http://www.w3.org/2000/svg" xmlns:xlink="http://www.w3.org/1999/xlink" x="0px" y="0px"
	 viewBox="0 0 612 612" style="enable-background:new 0 0 612 612;" xml:space="preserve">
<path style="fill:#050505;" d="M30.3,154c20.1,2.1,40.1,2.4,60.2,0.2c68.7-7.5,127-36.2,174.6-86.2c11.7-12.3,21.9-25.7,31.1-39.9
	c6.1-9.5,13.7-9.6,19.8-0.3c44,67,105.4,108.3,184.2,123.5c25.7,5,51.8,5.8,77.9,3c2.4-0.2,4.9-0.6,7.1-0.1
	c6.9,1.5,9.3,8.1,5.4,14.9c-13.3,23.7-23.4,48.5-29.3,75c-15.3,68-6.6,132.8,25.7,194.5c0.5,0.9,1,1.7,1.4,2.6
	c6.4,11.7,4.3,16.3-8.6,19c-49.7,10.3-85.4,54.1-84.8,104.5c0.1,5.5,0.9,11.1,1.6,16.6c1,8.3-5.1,13.4-12.9,10.3
	c-3.1-1.2-5.8-3.3-8.7-5c-53.5-31.3-106.6-31-159.3,1.8c-9.1,5.7-10.1,5.7-19.2,0.1c-53.4-33.3-107-33.2-160.9-1.1
	c-1.2,0.7-2.4,1.5-3.5,2.2c-4.2,2.8-8.5,4.2-13.3,1.2c-4.7-3-4.5-7.5-3.8-12.2c3.3-24.9-1.5-48.3-14.5-69.7
	C84.4,482,60.1,466,29.5,459.3c-10.4-2.3-12.9-7.3-7.8-16.7c16.4-29.8,27.5-61.4,32.5-95.1c7.8-52,0.7-102-20-150.2
	c-4-9.3-8.8-18.2-13.5-27.1C16.2,161.2,20.8,153.7,30.3,154z"/>
<path style="fill:#F1CD6C;" d="M552,429.7c-16.8-7.6-33.6-15.3-50.4-22.9c-2-0.9-2.9-2.5-3.9-4.3c-30.5-58.4-32.6-117.8-6.4-178.3
	c0.6-1.5,1.3-2.8,2.9-3.6c18.1-10.3,36.2-20.6,54.3-30.9c2.1,2.5,0.6,4.9-0.3,7.2c-10.3,25.8-16.4,52.7-19.2,80.3
	c-4.6,45.6,1.3,89.9,17,133c1.8,4.9,3.2,9.8,5.5,14.5C552.3,426.2,553.2,427.9,552,429.7z M64.3,198c5.2,14,9.6,28.2,12.8,42.8
	c7,32,9.4,64.4,5.8,97.1c-3.2,29.2-10.2,57.5-21.4,84.7c-0.9,2.2-2.3,4.3-0.5,6.7c16.4-7.5,32.8-14.9,49.3-22.3c2-0.9,3-2.5,3.9-4.3
	c30.4-58.7,32.4-118.3,5.9-178.9c-0.6-1.5-1.2-2.8-2.7-3.7c-18-10.1-35.9-20.3-53.8-30.5C61.5,192.5,63.3,195.3,64.3,198z M295,74.6
	c-11.4,13.8-24.1,26.3-38,37.7c-27.9,22.9-58.7,40.6-92.8,52.7c-23.7,8.4-48.1,13.6-73.1,16.3c-5.6,0.6-11.5-0.3-16.8,2.5
	c13,7.6,26.6,14.3,38.8,22.9c13,9.1,26.8,10.9,41.7,9c5.1-0.6,10.3-1.2,15.3-2.2c58.8-11.3,102-43.5,129.7-96.4
	c0.8-1.6,1.4-3.2,1.4-5.1c-0.1-13.9-0.2-27.8-0.2-41.6C297.8,70.1,296.6,72.7,295,74.6z M531.9,182.2c-11.9-0.7-23.8-2.1-35.5-4.3
	c-33.1-6.2-64.7-16.6-94.2-33.2c-29-16.3-55.1-36.3-77.2-61.2c-4.4-4.9-7.7-11-13.9-14.2c0,14.1,0.1,28.2,0.1,42.3
	c0,2.1,0.7,3.8,1.5,5.7c29.9,61.8,98.4,102.5,166.7,98.9c1.8-0.1,3.5-0.2,5.1-1.2c17.8-10.4,35.6-20.7,53.5-31.1
	C536.3,181.9,534,182.4,531.9,182.2z M127.7,397.9c0.8,0.1,1.2,0.4,1.5,0.3c18.4-8.4,36.8-16.9,55.2-25.3c1.7-0.8,2.8-1.9,3.7-3.6
	c17.8-31,22.5-63.5,11.9-98c-1-3.4-2.8-5.3-5.7-7c-9.9-5.5-19.6-11.3-29.4-16.9c-10.1-5.8-20.2-11.6-31.4-18
	C155,287.1,152.9,342.9,127.7,397.9z M478.3,230.2c-1.2,0.3-1.7,0.3-2.2,0.5c-20,11.5-39.9,23-59.9,34.4c-2.3,1.3-3.2,3.2-4,5.5
	c-10.6,32.9-6.1,64.1,10.1,94.2c2.7,5,6.2,8.2,11.4,10.5c8.9,3.8,17.6,8.2,26.5,12.3c7.8,3.7,15.6,7.3,24.9,11.6
	C459.1,343,456.9,287.2,478.3,230.2z M310.8,135.5c0,21.6,0.1,41.6-0.1,61.7c0,2.9,1.4,4.9,2.8,7c17.3,24.3,40.4,40.1,69.3,47.3
	c18.1,4.5,36,6.2,51.7-7.4c0.9-0.8,2-1.2,3.1-1.8c8.9-5.1,17.7-10.2,27.8-16C398.3,221.2,347.3,191.6,310.8,135.5z M195.4,253.4
	c1.1,0.6,2.1,0.8,3.4,0.8c40.7-0.5,73.9-16.1,98.9-48.6c2.7-3.5,3.8-7.1,3.7-11.5c-0.3-10.5-0.1-21-0.1-31.6c0-8.6,0-17.2,0-27.2
	c-36.6,55.9-87.4,85.2-154.2,90.2C164.2,235.4,179.8,244.4,195.4,253.4z M470.1,544c7-42.9,29.4-75.1,67.3-96.6
	c4.3-2.4,9.2-3.8,12.7-7.5c-16.2-7.5-32.4-15-48.5-22.7c-2.2-1-3.7-0.6-5.5,0.5c-29.6,17.5-51.9,41.7-66.8,72.6
	c-1.1,2.3-1.5,4.1,0.3,6.5c13,17.3,25.9,34.7,38.8,52C470.1,547.6,469.8,545.7,470.1,544z M78.5,449.3c30.8,19,51.4,45.5,60.7,80.6
	c1.7,6.3,1.5,12.9,4.4,18.9c13-17.5,26-35,39.2-52.3c1.9-2.5,0.7-4.4-0.3-6.5c-14.8-30.7-36.9-54.7-66.2-72.1c-1.7-1-3.1-2-5.4-0.9
	c-16.2,7.8-32.6,15.3-48.8,23C66.8,444.3,73.1,445.9,78.5,449.3z M216.9,450.7c7.6-8.9,9.4-18.2,7.9-29.1
	c-2.3-16.2-8.4-30.1-23.4-38.7c-4.7-2.7-9-4-14.3-0.7c-4.7,2.9-10,4.7-15.1,7.1c-15.8,7.3-31.6,14.6-48.3,22.4
	c30.2,18,52.2,42.4,67.7,73.7C200.1,473.2,207.8,461.4,216.9,450.7z M429.2,383.6c-9.8-5.2-16.7-2.9-24,3.1c-1.5,1.3-3.1,2.6-4.4,4
	c-11.9,13.7-14,30.2-13.1,47.4c0.1,1.4,1.2,2.9,2.1,4.1c9.4,13.1,18.9,26,28.1,39.2c2.7,3.9,3.6,2.6,5.3-0.6
	c6.7-13.2,15.2-25.1,25.1-36.1c11.5-12.8,24.7-23.5,40.2-33.3C467.8,401.9,448,393.6,429.2,383.6z M322,553.8
	c22.2-10.9,45.7-16.6,70.2-17.2c17.5-0.4,35,1.2,51.9,6.7c2.5,0.8,5.2,2.5,7.9,0.4c-8.3-11.4-16.7-22.7-24.7-34.3
	c-3.2-4.6-6.9-7.5-12.2-9.4c-34.5-12.2-67.9-10.2-100.3,7.3c-2.3,1.3-4.2,2.4-4.1,5.7c0.3,14.7,0.2,29.4,0.3,44.1
	C315.4,558.7,318.6,555.5,322,553.8z M169.3,542.9c23.5-6,47.3-8.4,71.4-4.4c17.7,3,34.9,7.7,50.9,16.2c2.8,1.5,5.6,4.1,9.3,2.4
	c0.1-14.3,0-28.6,0.3-42.9c0.1-3.7-1.2-5.6-4.4-7.3c-32.4-17.3-65.8-19.3-100.1-6.3c-2.8,1.1-6.1,0.8-8.3,3.9
	c-9,12.8-18.3,25.4-27.5,38.1C163.6,545.2,166.5,543.6,169.3,542.9z M391.4,460.6c-4.1-5.6-8.2-11.2-12.4-16.7
	c-0.7-0.9-1.6-1.8-2.6-2.4c-18.6-12.9-48-9.2-63.2,7.8c-0.9,1-2.1,1.9-2.1,3.4c0,14.9,0,29.9,0,45.7c32.6-16.9,65.7-19.9,101.3-9.4
	C404.9,478.8,398.2,469.7,391.4,460.6z M301,454.6c0-2.7-1.3-4.4-3-6.1c-14.8-15.2-37.1-19-57.2-9.7c-4.1,1.9-7.4,4.3-10,8
	c-6.1,8.6-12.5,16.9-18.7,25.4c-3.9,5.3-7.7,10.6-12.2,16.7c35.6-10.4,68.7-7.5,101.2,9.3C301,483.2,300.9,468.9,301,454.6z
	 M355,300.4c-5.2,3-12.3,4.9-14.8,9.4c-2.6,4.8-0.5,12-0.8,18.1c-0.2,3.5,1.3,4.8,4.2,6.1c21,9.5,41.9,19.1,62.8,28.6
	c1.1,0.5,2.2,2.1,3.7,0.3c-13.2-28.2-17.3-57.4-8.5-89.3C385.2,283.1,370.1,291.7,355,300.4z M207.3,362
	c19.4-8.9,38.8-18.1,58.4-26.7c5-2.2,6.4-5,7-10.4c1.4-11.9-3-18.4-13.8-23.6c-16.3-7.9-31.7-17.8-48.5-27.5
	c8.8,31.7,4.9,61.1-9.1,90.8C204.1,363.3,205.7,362.7,207.3,362z M264,293.3c4.1,2.4,8.6,6.7,12.4,6.3c3.8-0.5,6.6-6.4,10.5-9.1
	c12.2-8.6,16-20.1,14.6-34.8c-1.2-12.5-0.3-25.2-0.3-39.1c-23.7,27.8-52.7,42.9-87.7,47.6C230.3,273.9,247.1,283.7,264,293.3z
	 M310.8,246.4c0.1,9.9-2.5,20.9,1.1,29.4c3.6,8.5,13.4,14.3,20.2,21.5c2.5,2.6,4.3,2.9,7.4,1.1c18.7-10.9,37.5-21.6,56.2-32.5
	c1-0.6,2.8-0.7,2.7-2.9c-34.9-3.5-63.8-18.7-87.5-46.3C310.8,227.5,310.7,236.9,310.8,246.4z M239,420.4
	c10.8-14.5,20.7-29.7,32.5-43.3c8.6-10,10.5-19.1,4.8-30.8c-2-3.9-3.2-4.1-6.7-2.4c-19.7,9.2-39.6,18.2-59.3,27.4
	c-1.4,0.7-3.5,0.8-4.1,2.7c18.3,12,27,29.3,28.8,51.6C236.6,423.4,237.9,421.9,239,420.4z M341.3,343.2c-3-1.4-3.8-0.3-4.5,2.3
	c-1.2,4-2.4,8-4,11.8c-1.6,3.8-1.2,6.8,1.4,10.2c13.7,18.1,27.1,36.3,40.6,54.5c0.7,0.9,1,2.6,2.8,2.4c1.8-21.2,10.5-38.5,29.4-51
	C384.5,363.1,362.8,353.2,341.3,343.2z M553.2,175.1C452.8,173.4,372.3,133.8,311,54.7c0,5.5,0,10.1,0,14.6
	c11,13.8,22.9,26.7,36.2,38.3c22,19.3,46.1,35.4,72.7,47.7c37.5,17.3,76.8,27,118,28.5C543.1,181.5,547.9,178.8,553.2,175.1z
	 M301,54.7c-61.5,78.9-141.9,118.4-242.6,120.5c6.2,3.4,11.1,6,15.9,8.6c9.7,0.1,19.3-1.1,28.9-2.4c27-3.7,53.1-10.8,78.2-21.3
	c39.2-16.6,73.5-40.4,103-71c5.7-6,11.1-12.3,16.6-18.5C301,65.4,301,60.4,301,54.7z M48.5,180.8c37.8,85.6,37.5,170-1.6,255.3
	c5.4-2.7,9.8-4.8,14.1-6.9c3.2-8.7,6.7-17.3,9.5-26.2c12.2-38.4,18.1-77.6,14.7-118c-1.9-22.9-5.4-45.4-12.5-67.3
	c-3-9.4-6.1-18.8-9.1-28.2C59.1,186.2,54.3,183.8,48.5,180.8z M565.2,436.2c-39.2-85.5-39.4-170-1.6-255.8
	c-5.1,2.9-8.7,4.9-12.3,7.1c-1,0.6-1.9,1.4-2.8,2.1c-0.2,1.3-0.2,2.8-0.8,4c-13.4,31.9-19.6,65.4-21.8,99.7
	c-1.4,23.4,0.8,46.7,5.1,69.7c4.3,23,11,45.3,20.9,66.7C556,431.7,560,433.6,565.2,436.2z M327.7,374.8c-1.3-1.7-2-6-5.4-3.8
	c-4.1,2.6-11.2,1.8-11.1,9.5c0.1,14.3,0,28.6,0,42.9c0,4.4,0,8.9,0,14.5c16.7-13.2,34.3-16.7,55.1-11.3
	C352.8,408.5,340.3,391.6,327.7,374.8z M301.4,386c0.3-7.7-1.8-11.8-9-14.6c-3.7-1.4-5-0.6-7,2.1c-11.8,16.2-23.7,32.3-35.6,48.4
	c-0.8,1.1-2.5,2-1.8,4.3c19.3-5,36.9-1.3,53.2,11.7C301.2,419.9,300.7,402.9,301.4,386z M155.1,550c-1.9,2.5-3.7,5.1-6.4,8.8
	c53.3-21.7,103.6-18.3,152.3,9.6c0-4.2,0-7.7,0-11.3c-11-4.4-21.3-10.3-32.8-13.8c-28.9-8.9-57.9-11.1-87.6-4.5
	c-6.5,1.4-12.9,3.9-19.7,3.8C159,545,157,547.5,155.1,550z M304,291.6c0.1,23,0,46,0.1,69c0,2.4,0.1,4.8,1.9,6.7
	c9.5-2.7,17.6-6.9,19.1-18.1c0.2-1.7,0.8-3.5,1.6-5.1c5.3-10.9,2.7-22.6,3.3-33.9c0.1-1.6-0.8-2.5-1.8-3.5
	c-6.7-6.7-13.5-13.5-20.2-20.2c-0.9-0.9-1.9-2.5-3.1-0.2C304.6,288,304,289.8,304,291.6z M289.7,300.7c-6,4.9-7.6,10.7-8,18.4
	c-0.6,14,4,26.4,8.3,39.1c0.5,1.4,1,2.6,2.4,3.1c4.6,1.8,8.5,5,13.4,6c0-25,0-49.9,0-74.9c0-2.1,0.9-4.4-1.2-6.1
	C299.7,291.1,295.1,296.3,289.7,300.7z M311,568.4c49.2-28.1,99.4-31.3,152.7-9.7c-4.6-5.9-8.2-10.5-11.7-15
	c-1.9-0.5-3.8-0.9-5.7-1.5c-29.1-8.7-58.5-9.5-88.1-3c-16.6,3.6-32.1,10.3-47.2,17.9C311,560.7,311,564.3,311,568.4z M50.8,445.2
	c51.8,20.7,80.4,58.2,85,114.7c3-4.3,5.4-7.7,7.7-11.1c0.5-8.9-2.1-17.2-4.6-25.4c-7.2-23.1-19.6-43.1-37.9-59.2
	c-11.6-10.2-24-19.4-39.1-24.2C58.1,441.2,54.3,442.8,50.8,445.2z M476.2,559.7c4.8-56.4,33.3-93.9,85.6-114.7
	c-4.5-1.9-8.1-3.5-11.7-5c-2.4,0.9-5,1.6-7.2,2.7c-18.4,9.5-34.8,21.6-47.4,38.2c-15.3,20.2-25.4,42.5-27.1,68.1
	C470.8,552.3,473.3,555.7,476.2,559.7z"/>
</svg>
