<?xml version="1.0" encoding="utf-8"?>
<!-- Generator: Adobe Illustrator 24.0.0, SVG Export Plug-In . SVG Version: 6.00 Build 0)  -->
<svg version="1.1" id="Layer_1" xmlns="http://www.w3.org/2000/svg" xmlns:xlink="http://www.w3.org/1999/xlink" x="0px" y="0px"
	 viewBox="0 0 624 624" style="enable-background:new 0 0 624 624;" xml:space="preserve">
<path style="fill:#C2B88C;" d="M453.1,218.2c0.9,7.8-1.4,15.8,1.8,23.4c4.2,20.3,8.8,40.7,6.5,61.6c-1.7,15.6-8.7,28.3-24.2,34.4
	c-4.5,1.8-5.8,4.2-5.1,8.8c3.6,22.5-4.1,41.2-19.8,57.1c-3.6,3.7-7.1,7.6-11.3,10.7c-10.1,8-20.1,16.1-30.1,24.3
	c-4.2,3.5-7.4,7.9-10,12.7c-2.5,4.2-5,8.4-8.4,12c-6.6,6.4-14.5,9.9-23.4,11.5c-7.1,0-14.3,1.2-21.3-1.5c-5.1-2.2-8.6-6.5-12.9-9.7
	c-3-2.2-6.2-4.1-9.6-5.5c-7.4-3.9-15.4-6.3-23.4-8.4c-14-3.8-26.5-10.4-37.7-19.7c-15.8-14.3-26.6-31.7-33.2-52
	c-5.7,2.7-11.4,2-17,0.4c-19.7-5.7-33.9-22.1-34.4-42.5c-0.6-20.8-7.1-39.7-14.7-58.5c-0.4-1-0.8-1.9-0.9-3c2.3-4-1.6-7-1.6-10.7
	c4.7-0.8,7.1,3,9.7,5.5c12.7,12.5,23.6,26.2,27.7,44.2c1.7,7.3,4.3,14.4,7.1,21.4c2.3,5.6,5.2,10.8,11.3,13.3
	c1.4,0.6,3.1,0.8,4.3-0.6c1.1-1.3,0.4-2.6-0.7-3.4c-10-7.5-12.5-19-15.3-29.9c-7.2-27.4-24-47.2-46.6-63c-2.6-1.8-4.9-3.8-6.9-6.3
	c-5.6-7.4-9.4-16-16.6-22.2c-2.4-2.1-5.1-5.4-2.6-8.8c2.3-3.1,6.2-2.3,9.4-1.1c12,4.4,23,10.5,32.3,19.4
	c7.8,7.5,15.6,15.1,22.1,23.8c0.7,0.9,1,2.8,2.7,1c3.4,0.9,3.7,4.1,4.7,6.6c7.5,20.5,16.1,40.6,24.1,60.9c1.5,3.9,2.5,9.5,8.8,7.4
	c5.6-1.9,6.9-6.6,5.8-12c-1.9-9-5.2-17.4-9.6-25.4c-10.3-18.8-18.5-38.4-21.3-59.9c-2-14.6-2-29.3,3.4-43.1
	c11.4-29.2,29.1-39.1,61.8-37.4c13,0.7,25.6,4.5,36.6,12.2c5.4,3.8,9.3,2.7,13.5-1.8c6-6.5,12.5-12.5,20.1-17.1
	c29.5-17.8,56.8-9.6,78.5,15.2c14,16,19.4,35.8,20.5,56.9c0.8,15.1-2.1,30-1.7,45.1c0.2,7.3,1.3,14.5,2.5,21.6c0.7,4,1.4,8.7,7,8.8
	c5.1,0.1,8-3.4,9.5-7.8c2.7-7.8,2.4-16,1-23.9c-3-17.3-2.8-34.6-0.7-52c0.2-2.1,0.3-4.2,2.3-5.5c0.7,1,1.3,2.1,2.3,3.6
	c4.9-13.8,10.3-27.1,18.8-38.8c3.7-5.1,7.9-9.6,13-13.2c2.4-1.7,5.6-2.7,8-0.9c2.5,1.9,1.7,5.3,0.7,8c-1,2.9-2.2,6-4.1,8.3
	c-6,7.5-8.1,16.5-10.7,25.3c-11.4,14.1-15.4,30.8-16.7,48.4c-0.4,5.4-0.2,10.9,0,16.3c0.1,2.9-0.7,7.5,3.4,7.3
	c3.7-0.2,2.1-4.5,2-7.2c-0.8-12.8,0.8-25.4,4.4-37.6C448.9,222.5,449.1,218.8,453.1,218.2z"/>
<path style="fill:#E02009;" d="M124.1,274.2c3.4,0.3,3.7,3.4,4.5,5.7c6.6,18.3,12.8,36.5,13.3,56.4c0.6,24.2,23.3,43.4,47.3,40.8
	c3.3-0.4,4.1,0.7,4.9,3c6.3,19.2,17.4,35.2,31.9,49c5.1,10.6,6.2,21.8,5.4,33.4c-7.3,4-8.2,9.7-6,17.5c2.6,8.9,4.6,18.1,6.6,27.2
	c1.8,8,3.6,9.2,11.4,6.5c17.6-6.2,34.7-13.7,52.5-19.6c3.7-1.2,7.5-1.9,11.4-1.5c6.4,1.4,13,1.3,19.5,1.2c4.8-0.2,9.5,0.9,14.2,1.7
	c16.5,3.7,32.6,8.7,49,12.5c8.3,1.9,10.2,1,12.1-7.3c2.4-10.7,4.8-21.3,8.5-31.6c1.7-4.8,4.3-8.9,8-12.2c1.5-1.4,3.3-3,5,0
	c1.2,3,1.1,6.1,1.1,9.2c-0.2,29.1,0,58.2,2.9,87.2c0.5,5.1,1.1,10.4-1.2,15.4c-64.5,6.3-129.2,8.4-194,6c-8-0.3-16-0.6-24.1-0.9
	c-3-3.6-2.5-7.9-1.8-12c3.1-20-0.3-39.9-1.3-59.9c-0.8-16.1-3.2-32.1-5.8-48c-0.4-2.6-0.3-5.2,0.7-7.7
	c-16.3-33.5-42.9-56.7-74.4-75.1c-25.2-14.7-52.4-24.9-80.9-31c-5.4-1.1-4.9-2.6-2.5-6.3c18.4-28.4,44.8-46.3,76.1-57.6
	C120.1,275.5,122.1,274.8,124.1,274.2z M434.6,417.3c26-42.2,63.1-70.2,110.2-84.9c10.9-3.4,22.2-5.8,34.2-8.8
	c-4-4.8-7.2-9.1-10.9-13.1c-31-34.1-68.3-57.7-113.2-68.8c-2.2,1.7-0.8,3.8-0.6,5.7c1.8,17.7,7.4,35.1,5.4,53.2
	c-1.9,17.3-8.9,30.9-26.5,36.5c-4.2,1.4-3.9,3.6-3.4,6.9c2.9,16.5,0,31.9-9.1,46.1c-6,9.3-14.3,16.4-22.2,23.8
	c-1.9,7.9,1.9,15.1,2.8,22.7c1.2,10,1.4,9.8-8.4,10.4c-3.1,0.2-6.9-1-8.4,3.3c1.5,2.2,3.8,2.6,6.1,2.6c10.5,0.1,21,0.6,31.5,0.1
	c3.1-5.5,0.2-12.2,3.5-17.7C427.8,428.9,431.1,423,434.6,417.3z"/>
<path style="fill:#282826;" d="M427.1,205.8c-0.3,17-3.8,34.1-0.3,51.2c1.5,7.4,1.9,14.9,1.7,22.5c-0.1,4.6-1.2,8.8-3.5,12.6
	c-2.7,4.3-6.8,6.2-11.9,5.8c-5.4-0.4-5.5-4.8-6.4-8.4c-3.6-14.8-3.8-29.9-2.5-44.9c2.2-25.3,1.4-50.1-13-72.2
	c-13.6-20.7-31.8-34.7-58.2-32c-18.5,1.9-32.6,13.2-44.6,26.4c-5.1,5.6-7.9,5.8-14.2,1.6c-20.2-13.4-42.8-16.1-65.7-9.1
	c-19.7,6-28.7,22.5-32.6,41.3c-5.8,28.2,1.3,54.6,13.7,79.8c6.2,12.5,13.7,24.4,16.4,38.5c0.7,3.7,0.7,7.3-1,10.6
	c-2.2,4.1-5.9,5.4-10.4,5.6c-4.5,0.2-4.8-3.4-5.8-6.1c-9.5-24.1-18.9-48.1-28.4-72.2c-4.9-19.2-8.4-38.5-5.8-58.5
	c4-30,18.7-53.7,42.4-71.7c34.8-26.4,74.7-34.6,117.6-31c18.2,1.5,35.9,5.6,52.2,14.2c34.1,17.9,51.8,47.4,58.4,84.3
	C425.9,198.1,426.5,201.9,427.1,205.8z M611.5,549.2c5.2-0.7,6.3-1.8,3.6-6.4c-6.6-11.2-13-22.5-19.3-33.8
	c-14.5-26.2-35.7-40.5-66.7-38c-10.5,0.9-20.6-1.2-30.6-4.6c-25.1-8.6-48.9-20.1-73-31.1c-6.1,4-3,10.6-4.4,15.9
	c-0.1,1.3,0,2.5,0.9,3.5c0,3.9,0.2,7.8,0.1,11.6c-0.8,34.2,0.8,68.3,4.1,102.3C488.3,564.2,550,557.6,611.5,549.2z M135.3,474.3
	c-13.8,4.3-27.3,10.9-42.1,9.9c-20-1.4-35.8,6.4-49.9,19.4C28,517.9,19,536.4,9.6,554.6c-2.3,4.5-0.1,5,3.8,5.4
	c23.5,2.2,47,4.9,70.5,7c41.4,3.7,82.8,5.7,124.4,6.7c2.1-21.2,1.8-42.5,0.1-63.6c-1.7-21.4-3.4-42.8-8.4-63.8
	C179.8,458.9,157.9,467.4,135.3,474.3z M399.8,449.6c4.2,0.2,5.7-1.5,4.9-5.5c-2-10.1-3-20.4-6.2-30.2c-8.9,7-17.9,13.8-26.5,21.2
	c-4.8,4.1-10,8.2-11.6,15c8.5-0.1,17-0.2,25.5-0.4C390.5,449.6,395.2,449.4,399.8,449.6z M270.5,449.7
	c-16.3-3.9-31.3-10.4-44.5-20.7c1.6,11.3,3.1,22.6,4.7,33.8c18.6-2,37.2-4,55.7-6.1C282,452.4,276,451.1,270.5,449.7z M283.6,269.2
	c-16.7-13.9-43.7-16.4-63.1-6c-3.2,1.7-7.4,3.4-5.4,8c2.3,5.1,6.2,2.8,9.8,1c17-8.6,33.6-7,49.5,2.8c2,1.2,3.6,3,5.7,4.1
	c4,2.2,6.3,0.2,7.5-3.4C287.7,272.4,285.6,270.9,283.6,269.2z M312.9,271.2c-2.4,4.3-1.9,7.8,3.3,8.7c3.3,0.6,4.7-2.6,6.1-5.1
	c6.7-11.6,16.3-19.2,29.8-21.5c5.5-1,10.8-0.4,16.2,0.6c3.3,0.6,5.9-0.6,6.6-3.9c0.8-3.4-1.5-5.4-4.7-6c-3.5-0.7-7.2-0.9-9.5-1.2
	C338.2,242.9,323.2,253.1,312.9,271.2z"/>
<path style="fill:#E6E5E4;" d="M352.1,461.5c8.6,0,17.1,0,25.7,0.1c2.9,0,6.5-0.2,6.6,3.6c0.1,4-3,5.7-6.8,5.8
	c-5.7,0.1-11.4,0.2-17.1-0.1c-6.3-0.3-12.3,0.8-19.5,2.6c6.5,5.7,14.3,4.8,21,6.7c3.9,1.1,8.1,1.6,12.1,2.6c3.4,0.8,6.9,1.9,5.7,6.6
	c-1.2,4.6-5.3,3.7-8.4,3.2c-8.4-1.4-16.6-3.2-24.9-5c-2.5-0.5-5.1-2.3-6.7,1.1c-1.5,3.1-2.9,6.3,1.3,8.7c-4.7-0.5-9.3-0.9-14-1.4
	c-1.3-8.1,0-15.8,3.1-23.3C338.3,470.7,345.6,466.9,352.1,461.5z M306.7,494.2c3.9-7.8,2.5-15.6,0-23.3c-3.7-3.1-7.3-6.1-11-9.2
	c0,1.8-0.2,3.7,0.1,5.5c1.1,6.9-1.6,9.2-8.6,8.7c-7.5-0.6-15.1-0.1-22.6-0.1c-3.1,0-5.9,0.5-6.1,4.3c-0.2,4.3,2.7,5.1,6.2,5.1
	c7.3,0,14.6,0,21.8,0c9.9,0,9.9,0,9.3,10.6C299.4,495.2,303.1,494.7,306.7,494.2z"/>
<path style="fill:#FDFDFD;" d="M295.8,495.6c-18.1,6.9-36.3,13.7-54.3,20.8c-6.8,2.7-9.7-0.1-11.1-6.2c-2.7-11.6-5.4-23.2-8-34.8
	c-2.1-9.3-1.2-10.5,8.3-12.5c2.7-2.4,6.1-2.7,9.4-3.1c12.4-1.5,24.7-2.9,37.1-4.2c3.2-0.3,6.2,0,9.1,1.2c3.8,0.3,6.4,2.9,9.4,4.8
	c5,11.5,2.2,16-10,16.3c-6.7,0.2-13.5-0.4-20.2,0.4c-1,0.1-2,0.5-2.9,1.8c1.5,3.1,4.5,2.4,7.1,2.5c7,0.3,14-0.4,20.9,0.4
	C298,483.9,299.9,488.9,295.8,495.6z M360.4,450.1c-2.8,3.8-5.5,7.7-8.3,11.5c4.8,3.9,10.5,1.7,15.8,2.3c4.2,0.5,8.7-1,13.6,2.2
	c-5.6,4-11.2,2.5-16.3,2.7c-7,0.2-14.1-0.3-20.8,2c-1.7,0.6-3.6,1.2-3.7,3.4c-0.1,2.2,1.6,3.2,3.2,4c3.5,1.8,7.4,2.2,11.2,3.1
	c6.1,1.3,12.4,1.6,18.2,4c1.4,0.6,3.2,1.2,2.7,3.2c-0.5,1.9-2.4,1.8-3.9,1.7c-3.9-0.2-7.8-0.8-11.5-1.8c-5.5-1.5-11.1-2.8-16.8-3.1
	c-3.7-0.2-5.7,1.9-6.7,5.3c-1.1,3.7,0.1,6,3.9,6.9c16.8,4.4,33.6,8.8,50.4,13.1c8.7,2.2,9.9,1.1,12.2-7.7
	c4.4-16.6,5.7-34.5,18.5-47.9c0-0.6,0-1.2,0-1.7c-2.4-3-5.8-2.9-9.2-2.9c-9-0.1-18-0.2-27.1-0.3C379,445.3,366.9,445.4,360.4,450.1z
	 M327,495.9c2.3-7.6,3.5-15.3,3.1-23.3c-7.8-0.4-15.7,1.2-23.3-1.7c0,7.8,0,15.6,0,23.3C313.3,496.2,320.1,496.4,327,495.9z"/>
<path style="fill:#282826;" d="M113.1,244.7c27.2,15.8,47.1,37.3,55,68.7c1.8,7,4.8,13.6,7.6,20.3c1.4,3.3,3,6.5,7,7.9
	c3,1.1,4.5,3.8,3.1,6.8c-1.5,3.2-4.8,2.8-7.5,1.9c-7.1-2.3-10.6-8.4-13-14.6c-3.4-8.6-5.9-17.6-8.4-26.6
	c-2.7-9.7-7.7-18.3-13.9-25.8c-6.1-7.3-12.3-14.6-20.4-19.9C118.3,257.8,115.6,251.3,113.1,244.7z M455.1,198
	c-3.4-1.9-3.8,1.6-4.8,3.1c-14,20.3-14.8,43.5-13.9,67c0.1,3.4,2.2,6.4,5.8,5.8c3.8-0.5,5.4-3.6,4.7-7.6c-3-16.7-0.1-32.7,6.3-48.2
	C453.8,211.5,454.4,204.7,455.1,198z M270.8,411.7c5.9-0.2,12,0.5,17.7-0.7c6-1.2,9.9-1,13.8,4.5c3.9,5.6,9.2,11.3,17.2,9.7
	c7.7-1.6,9.5-8.6,11.4-15.2c0.1-0.2,0.3-0.5,0.3-0.7c0.3-4.7,3.1-6.1,7.4-7.3c9.3-2.6,19.1-4,27.7-8.9c8.4,1.1,14.2-2.7,18.5-9.6
	c2.2-4.7,5.7-8.7,6.3-14.1c0.3-2.5,1.5-2.9,3.8-2.1c2.7,1,5.3,0.9,6.6-2.1c1.1-2.5-0.5-4.6-1.9-6.4c-4.8-6-20-8.8-26.8-5.2
	c-2.6,1.4-4.1,3.3-3.3,6.3c0.9,3.2,3.5,3.9,6.2,3c7.8-2.6,6.5,2.2,5.2,6.4c-1,3.1-2.3,6.6-5.3,8.4c-11.6,6.9-24.5,10.5-38.3,14.2
	c0.5-2.1,0.5-3.3,1-3.9c3.8-4.2,7.8-8.3,11.7-12.4c6.6-6.9,8-13.3,4.6-21.1c-1.4-3.3-3.7-4.2-6.8-3.4c-3.2,0.8-3.9,3.1-2.7,6
	c2.4,6.1-0.1,10.6-4.8,14.2c-12.2,9.2-17.3,22.1-19.3,36.7c-0.4,2.6-0.5,5.6-3.4,6.4c-3.1,0.9-4.4-2.2-6.2-3.8
	c-1.1-1-2.3-2.3-2.8-3.6c-4.8-13.3-15.2-20.4-27.3-26.2c-5.8-2.8-10.1-7.3-10.2-14.4c-0.1-4.1-1.5-7.9-6.1-7.2
	c-4.7,0.7-5.7,5-4.5,9.2c2.9,10.1,7.9,18.4,18.4,22.5c4.7,1.8,9.2,4.2,11.1,9c-16.5,5.8-29.8,0.7-41.2-11.1c-2.1-2.2-3.3-3.9,0.2-6
	c2-1.2,3.7-2.9,2.3-5.8c-1.5-3.1-4.1-2.9-6.7-2.7c-9.8,0.8-19.4,13.9-17,23.3c0.5,2,1.2,4.1,3.6,4.6c2.1,0.4,5,0.7,5.7-1.4
	c3.2-10.6,6.5-2.6,9.8-0.2c2.9,2.1,5.8,4.2,8.8,6.4C259.3,412,264.4,414,270.8,411.7z M287.9,304.5c1.2,17.8,2.2,35.5,3.2,53.3
	c0.2,4.2,0.9,8.7,5.9,8.2c5.2-0.6,6-5.3,4.5-9.7c-1.2-3.6-1.1-7.2-1-10.8c0.5-18.7-3.1-37-4.8-55.4c-0.3-3.2-2-5.4-5.1-6.1
	c-3.4-0.7-5.5,0.9-5.8,4.5c0.5,2.6,1,5.1,1.5,7.7C286.8,298.9,287.7,301.6,287.9,304.5z M441.8,288.6c-3-0.6-5.2,0.6-5.5,3.8
	c-0.7,7.5-4.1,13-10.5,17c-2.6,1.6-2.7,4.4-1.1,6.8c1.5,2.2,3.9,2.1,6.3,1.2c6.6-2.6,14.4-14.1,14.6-21.4
	C445.5,293,446.1,289.4,441.8,288.6z M314,285.1c-1.9,1.6-3.1,3.7-2.5,6.1c1.2,4.8,1.4,9.7,1.6,14.6c0.2,3.8,2.7,6.3,6.8,5.8
	c4.2-0.5,4.7-4.1,3.7-7.2c-1.5-4.9-1.2-9.7-1.2-14.6c-0.6-1-1.1-2-1.7-3C318.5,286.1,317.1,282.5,314,285.1z"/>
<path style="fill:#D8210B;" d="M320.7,286.9c9.8-10.3,22.8-13.7,36.1-15.3c6.8-0.8,13.9-1,20.8,1c3.8,1.1,4.3,2,1.7,4.9
	c-15.5,17.5-34.1,25.6-57,12.4C320.9,289.4,320,288.6,320.7,286.9z M284.8,288.4c-2.5-0.7-5-1.4-7.4-2.2c-15.9-4.8-31.1-2.4-46,4
	c-2.5,1.1-6.4,2.6-1.7,5.7c17.9,11.4,36.6,18.2,56.6,0.2C288.7,293,287.5,290.6,284.8,288.4z M376.5,412.6c6-7.2,8.2-15.2,8.2-29
	c-5.5,4.4-11.6,7.8-18.5,9.6C368.4,400.3,371.5,406.8,376.5,412.6z M269.2,429.4c-0.7-6.2,2.6-11.7,1.6-17.7
	c-5.6-0.4-10.5-2.7-15.6-4.8C253.5,414.3,258.6,422.8,269.2,429.4z"/>
</svg>
