<?xml version="1.0" encoding="utf-8"?>
<!-- Generator: Adobe Illustrator 24.0.0, SVG Export Plug-In . SVG Version: 6.00 Build 0)  -->
<svg version="1.1" id="Layer_1" xmlns="http://www.w3.org/2000/svg" xmlns:xlink="http://www.w3.org/1999/xlink" x="0px" y="0px"
	 viewBox="0 0 516 541" style="enable-background:new 0 0 516 541;" xml:space="preserve">
<path style="fill:#4F2855;" d="M367.9,238.3c2.6,10.7-1.4,20.6-3.6,30.6c-0.5,2.1-1,4.1-1.6,6.2c-6.3,23.3-1.4,35.3,19.3,48
	c0.5,0.3,1,0.8,1.4,1.2c3.1,13.5-3.4,23.6-11.8,33c-0.7,0.4-1.5,0.7-2.2,1.1c-6.1-0.6-10.5-4.4-15-7.9
	c-10.3-8.5-15.9-16.4-23.4-33.8c-3.2,3.9-5.2,8.2-8.2,11.9c-8,8.9-17.2,16.3-28.4,21.1c-7.3,3.1-12.1,9.2-17.3,14.8
	c-1.4,1.5-2.5,3.5-4.9,3.8c-14.1,19.7-35.3,22.9-57,24.6c-20.1,1.6-40.3,2.3-60.6,2.6c-2.8,0-5.8,0.5-7.3-2.5
	c-1.6-3.1,0.7-5.2,2.3-7.4c10.7-14.3,15.1-30.7,16.5-48.2c0.8-10.4,1.4-20.8,4.7-30.8c7-21.3,21-34,43.7-36.2
	c16.1-1.6,30-7.4,40.2-20.6c2-1.9,4.3-1.1,6.6-0.8c29,3.4,54.2-4.3,74.5-26.1c2.9-3.1,5.2-6.7,7.6-10.2c1.6-2.3,3.5-4.1,5.9-0.9
	c3.4,7.9,9.5,13.8,15.2,19.9C366.5,233.8,367.7,235.7,367.9,238.3z M347.3,122.8c10.8,0.7,21.6,1.5,32.3,3.8
	c8.8,1.8,17.5,3.8,26,6.6c1.9,0.6,4.7,3,6.2-0.9c-2.2-20.5-8.2-39.9-18.3-57.9c-14.1-25.3-34.8-41.4-63.7-46.1
	c-2.7-0.4-5.9-1.9-7.6,1c-1.7,2.9,1.2,5.1,3.1,7c6.3,6.3,9.1,14.3,10.8,22.7c4.1,20.2,4.7,40.5,1.2,60.9
	C340,122.7,343.7,122.5,347.3,122.8z M423.1,172.7c6.7,0.9,13.6,0.7,20.4,0.9c2.3,0.1,4.7-0.1,7-0.4c1.6-0.2,3.6-0.6,4.2-2.4
	c0.8-2.3-1.2-3.5-2.7-4.5c-2.6-1.7-5.4-3.3-8.3-4.7c-7.4-3.7-15.5-5.9-23.3-8.6c-1.9-1.3-3.6-2.8-6-3.4c-12.1-3.1-24.2-5.8-36.5-7.4
	c-11.7-2.2-23.4-4.2-35.3-4.8c-6.4-0.3-12.9-3.4-19.3,0c-5.1,0-10.2,0-15.2-0.1c-9.5-0.1-19.1-0.7-28.5,1.3c-2.1,0.4-4.6,0.6-5.2,3
	c-0.7,2.8,1.8,4,3.7,5.2c8.1,5.1,17.1,8.3,26.1,11.3c6.3-6.7,13.8-9.5,22.9-6.4c3.2,2.2,6.6,2.7,10.3,1.3c0.8,0,1.7,0,2.5,0
	c3.9,2.9,8.3,2.8,12.8,2.4c13.2,0.8,26.3,2.9,39.4,4.7c6,2.2,12.5,3.2,19.1,6.7c-4.5,0-7.9,0-11.3,0c-2.8,0-5.2,0.8-5.1,4.2
	c0.1,3.6,2.7,3.9,5.4,3.8c6.5-0.3,12.7,0.9,18.7,3.4C417.6,174.2,417.5,172,423.1,172.7z"/>
<path style="fill:#764D29;" d="M16.6,458.3c8.6-3,17.1-5.9,26.5-9.2c-5.7-2.3-11.3-1.5-16.5-4c3-4.7,6-9,8.7-13.6
	c1.5-2.5,3.9-3.1,6.3-3.8c18.8-5.6,37.3-4.1,55.7,1.9c11.3,3.7,22.5,7.5,33.9,11c10.8,3.4,21.7,3.7,32.5-0.3c2.7,1.1,5,2.6,3.7,6.1
	c-8.2,5.7-17.7,6-26.9,5.7c-10.2-0.4-20.3-2.3-29.9-6.2c-1.2-0.5-2.4-1-3.6-1.2c-1.4-0.2-3.2-0.7-3.7,1.3c-0.3,1.5,1.2,2.2,2.3,2.7
	c10,4.4,20.5,7,31.4,7.9c11.8,0.9,23.3-1,34.4-5.1c5.8,5,6.3,11.3,4.4,18.1c-17.3,13.5-35.5,25.6-57,31.6c-22,6.1-43.6,6.4-64.8-3
	c-1.9-0.8-4.1-1.2-5.4-3.4c2.7-2,5.4-4,8.4-6.2c-11.6-7-25.5-8.8-35.1-18.8c2.6-2,5.3-0.8,7.9-0.1c15.1,4,30.5,5.4,46,4.7
	c3.4-0.1,3.4-0.1,7.5-2.1c-2.5-2.6-5.6-1.9-8.3-1.8c-16.9,0.6-33.4-2.1-49.6-6.8C22.1,462.7,18.2,462.3,16.6,458.3z M311.2,432.9
	c7.8-5.3,16.2-10.1,22.2-17.6c-8.5-4.7-15.1-11.3-20.3-19.5c-2.1-1.9-3.9-0.6-5.8,0.3c-7.8,4-15.3,8.5-21.7,14.4
	c-7.1,6.5-14.7,12.8-18.5,22.2c3.6,8.1,8.5,15,17.9,16.9C293.8,444,302.7,438.7,311.2,432.9z M191.2,413.9
	c-4.3,6.6-8.3,13.1-14.7,17.7c-1.5,1.6-0.7,3.3,0.3,4.6c5.3,7.2,7.5,15.6,9.5,24.1c0.4,1.6,0.6,3.5,2.9,3.5
	c8.4-2.7,16.9-1.8,25.5,0.2c-1.2-9.1-5.1-16.7-7.6-24.7c-2.5-4.3-4.9-8.6-7.4-12.8C197,422.2,195,417.5,191.2,413.9z"/>
<path style="fill:#FAD4AF;" d="M348.6,212.9c0.3-14.3,8.5-25.5,22.4-28.5c11.2-2.4,16.7-9.2,18.7-19.8c0.3-1.8-0.1-4,2.5-4.5
	c6.7-1.5,12.3,2.1,17.9,4.6c2.4,1.1,1.3,2.7-0.7,3.4c-2.7,0.9-5.5,0.4-8.2,0.8c-1.2,0.2-2.9,0.2-3.1,1.7c-0.3,2.2,1.8,2.1,3.1,2.2
	c5.1,0.2,10.1,0.9,14.9,2.9c1.2,0.5,2.1,1.4,2.8,2.5c0.8,6.1,2.6,11.2,8.6,14.9c8,4.8,11.5,13.2,13.2,22.3c0.6,3.4,0.6,7.2-3.1,8.9
	c-3.9,1.8-5.5-1.7-7.4-4.2c-0.5-0.7-1.1-1.3-1.6-2c-7.2-8.2-9.4-8-14.6,1.4c-5.6,2.9-10.1-0.9-14.8-2.8c-3.5-1.4-6.3-4.1-9.1-6.7
	c-1.1-1-2.4-2.2-3.8-0.7c-1.3,1.3-0.5,2.8,0.4,4c5.7,7.2,13.8,10.1,22.3,12.4c2.2,0.6,2.8-2.5,4.9-2.3c-0.8,7.5,3,13.4,6.2,19.7
	c1,2.1,2.2,4.2,2.8,6.4c0.6,2,1,4.3-0.7,6c-1.9,2-4,0.7-5.9-0.1c-15-6.3-30.9-10.3-45.6-17.5c-1.2-0.6-2.2-1.4-2.8,0.6
	c-3.3-5.2-8.2-9-12.2-13.6C352.7,221.1,349.8,217.5,348.6,212.9z M383.6,324.4c0.4,5.8-0.7,11.4-3.3,16.7
	c-2.7,5.5-5.7,10.9-8.5,16.3c2.3-0.6,4.1-0.3,6.1,1.5c11.5,10.2,24.8,8.1,32.5-4.8c3.9-6.6,3.4-9.7-2.4-14.5
	c-5.9-1.7-12.2-2.8-15.5-9C387,332.1,385.2,328.4,383.6,324.4z"/>
<path style="fill:#F8C20A;" d="M285.1,449.6c-3.7,3.8-2.8,6.6,1.2,10c3,2.5,5.7,6,7.1,9.7c2.3,6,6.6,8,12.3,9.2
	c9.9,2.1,19.6,6.1,30.1,4.1c1.3-0.2,3.2-0.7,3.9,1.1c0.7,1.6-0.7,2.8-1.4,4c-5.9,9.1-15.3,12.1-25.3,12.5
	c-14.4,0.6-28.3-1.6-41.1-9.3c-11.1-6.7-21.6-14.4-34.4-17.8c-1.4-0.4-2.6-1.4-3.3-2.8c-4.3-7.9-2.1-19.2,4.8-24.7
	c2.1-3.8,6.2-5.1,9.8-6.5c6-2.4,11.6-6,18.2-7c0.2,0,0.5,0,0.6,0.2C272.1,439.4,277.9,445.1,285.1,449.6z M381.1,125.1
	c-14.3-4.1-29.2-3.1-43.8-5.4c-4.1-0.7-6.8,0.6-8.3,4.8c-1.6,4.4-3.7,8.5-5.6,12.8c18.4,1.2,36.7,4,55,6.4
	C381.7,137.8,383.2,131.7,381.1,125.1z M420.5,152.9c-0.6-2.5-1.3-4.9-1.7-7.4c-1-5.1-1.1-10.7-7-13.2c-1.1,1.2-2.4,0.5-3.5,0.1
	c-8.9-3.1-18-5.4-27.2-7.2c-0.9,6.2-1.7,12.4-2.6,18.6C392.6,146.1,406.6,149.2,420.5,152.9z"/>
<path style="fill:#BB1716;" d="M176.5,431.6c2,6.4,7,11.3,8.9,17.8c1.4,4.8,0.9,10,3.7,14.4c-4.8,1.1-9,3.8-13.4,5.9
	c-0.7-6.1-0.9-12.4-4.4-17.8c-2.2-1.5-3.4-3.7-3.7-6.3c-1.3-1.7-2.7-3.4-4-5.1C168.4,438.2,172.3,434.6,176.5,431.6z"/>
<path style="fill:#D69D81;" d="M413.9,223.2c-0.8,4.1-3.2,5.2-6.9,3.7c-7.6-3.1-15.6-5.4-21.2-12.2c-2.1-2.6-3.5-4.9-0.7-7.7
	c3.3-3.4,4.9,0.3,6.5,2c6.3,6.2,13.7,9.7,22.5,10.3C414,220.6,414,221.9,413.9,223.2z"/>
<path style="fill:#FBFBFB;" d="M355.7,349.8c-3.3,3-7.2,4.5-11.4,5.5c-3-8.8-9.8-14.6-16.1-20.7c-2.3-2.2-4.5-4.4-6.7-6.6
	c3.6-4.6,6.7-9.6,9.6-16.4C336.3,327.4,344,340,355.7,349.8z"/>
<path style="fill:#BB1716;" d="M294.5,379.8c6.6,3.1,13.3,6.2,19.9,9.3c-3.2,4.4-8.3,5.7-12.9,7.8c-19.7,9-39.2,18.4-58.7,27.8
	c-0.8,0.4-1.5,0.7-2.4,0.2c-8.9,2-16.4,7.2-24.6,10.6c-2.9,1.2-5.8,2.5-8.7,3.8c-5.3-2.6-6.9-7.4-7.4-12.8c1.4-0.4,2.9-0.6,4.2-1.2
	c29.1-14.4,58.2-28.9,87.3-43.4C292.4,381.3,293.4,380.5,294.5,379.8z M408,339.6c29-14.3,57.9-28.6,86.9-42.9
	c7.4-3.7,7.3-3.7,3.2-11.3c-1.9-3.4-3.1-5.9-8-3.4c-32.4,16.4-65,32.4-97.6,48.6C392.6,336.4,400.9,341.2,408,339.6z M369.6,358.5
	c-4.6-2.9-9.2-5.8-13.9-8.7c-4.1,1.3-8.5,1.7-11.4,5.5c-7.4,5.2-7.4,5.2-2.5,13c0.7,1,1.4,2.1,2.1,3.1
	C352.5,367.1,361,362.8,369.6,358.5z M354.3,153.9c-1.1,0.2-2,0.5-2.9,1c-3.5-1.2-7.1-1.6-10.8-1.9c-0.2-0.2-0.4-0.4-0.6-0.7
	c-0.9-0.4-1.8-0.4-2.7-0.1c-0.2,0.2-0.4,0.3-0.6,0.5c-3.1-0.9-6.3-1.4-9.5-1.1c-0.1-0.3-0.3-0.6-0.6-0.9c-11-3.9-17.4-1.8-22.4,7.2
	c-0.6,2.9-3.2,4.4-5,6.4c-7.3,8.1-14.5,16.2-19.9,25.6c-5.5,9.5-13.4,16.4-22.9,21.5c-10.5,5.7-21.7,9.1-34.8,9.3
	c3,4,5.4,7.2,7.9,10.3c6.8,8.4,16.1,13.5,25.3,18.8c11.1,1.7,22.5,2.8,33.5,0.7c24.1-4.5,44.1-15.9,56.8-37.8c1.4-2.5,2.3-1.6,3.5,0
	c1.6-0.8,1.7-2.3,1.9-3.8c1.4-12.7,9.6-20,20.9-23c14.4-3.8,19.3-13.8,21-26.9C380,155.3,367.1,154.9,354.3,153.9z"/>
<path style="fill:#663F22;" d="M240.4,424.9c8-6.1,17.7-9.2,26.6-13.6c15.6-7.7,31.5-14.9,47.3-22.2c5.2,3.2-1.7,4.3-1.2,6.6
	c-11.1,3.5-20,10.5-28.6,17.8c-6.6,5.6-11.5,12.9-17.4,19.1c-9.4,4.3-18.8,8.6-28.1,12.9C237.2,438.5,238.9,431.7,240.4,424.9z
	 M9.5,460.8c4.4,3,7.7,6.9,12.3,9c1.2,0.2,2.5,0.3,3.7,0.7c17.9,5.3,36.2,6.5,54.8,5.8c3-0.1,6-0.7,6-4.2c0-3.3-2.9-3.5-5.7-3.5
	c-9.8-0.1-19.5,0.4-29.2-1.2c-11.9-1.9-23.8-4-34.9-9.1C14.1,458.2,11.8,458.8,9.5,460.8z M134.8,449.8c-9.6-1.3-18.7-3.5-27.6-7
	c-3.1-1.3-5.5-1-6.9,2c-1.6,3.5,1.4,4.4,3.7,5.4c15.1,6.4,30.8,9.6,47.2,8c7-0.7,14.5-1.1,20.2-6.4c-0.6-2.5-1.8-4.6-3.7-6.3
	C157.1,449.6,146.4,451.4,134.8,449.8z M112,491.6c11.5-2.6,23.3-4.7,32.3-13.3c1.7-1.6,5.5-3,2.6-6.5c-2.7-3.2-5.5-1.3-7.8,0.5
	c-5.9,4.8-12.6,7.5-20,9.1c-5.5,1.2-11.1,2.4-16.6,3.6c-2.6,0.6-4.4,1.8-3.9,4.7c0.5,3.1,2.9,3.2,5.3,3.2
	C106.6,492.5,109.3,492.2,112,491.6z M75.9,437.9c-0.7,3.7,2.4,4.8,5.6,5.3c1.2,0.2,2.4,1,3.6,1c2.9-0.1,6.9,1.7,8-2.7
	c1.2-4.8-3.1-4.5-5.9-5.3c-1.4-0.4-2.8-0.6-3.8-0.8C80.2,435.7,76.6,434.2,75.9,437.9z"/>
<path style="fill:#050505;" d="M272.4,368.3c7.4-10.1,16.1-18.3,27.9-23.2c8.6-3.5,14.9-10.3,21.2-17c10.2,6.7,19.4,14.3,23.4,26.5
	c-1.4,2.3-1.9,12.4-0.8,15.6c0.1,0.4,0,0.8-0.2,1.2c7.3,20.5,4.4,32.8-10.4,43.9c-1.3,0.6-2.5,0.4-3.6-0.4
	c-6.9-5.1-13.9-10.1-17.2-18.6c-1.1-2.3,2.9-4,0.6-6.4c-6.4-3.2-13.6-4.7-18.8-10.1C287.1,376,279.7,372.1,272.4,368.3z
	 M405.8,178.1c-2.1-0.1-4,0.8-3.8,3.2c0.2,2.7,2.3,4,4.8,4.1c2.1,0.1,3.7-0.8,3.7-3.4C410.2,179.3,408.4,178.1,405.8,178.1z"/>
</svg>
