<?xml version="1.0" encoding="utf-8"?>
<!-- Generator: Adobe Illustrator 23.0.3, SVG Export Plug-In . SVG Version: 6.00 Build 0)  -->
<svg version="1.0" id="Layer_1" xmlns="http://www.w3.org/2000/svg" xmlns:xlink="http://www.w3.org/1999/xlink" x="0px" y="0px"
	 viewBox="0 0 491.5 367.1" style="enable-background:new 0 0 491.5 367.1;" xml:space="preserve">
<path style="fill:#49AC34;" d="M368.2,61.2c0,12,0.1,24.1,0.1,36.1c0,5.3-3,8.2-8.2,8.4c-3.5,0.1-7,0.2-10.5,0
	c-2.4-0.1-3.2,0.8-3.1,3.2c0.2,4.9-0.8,9.6,4,13.6c3.3,2.7,2.2,8.8-1.4,11.9c-1.8,1.5-2.9,2.9-2.6,5.3c0.5,2.9-1,3.5-3.7,3.5
	c-2.6,0-4.1-0.6-3.7-3.5c0.3-2.1-0.4-3.5-2.2-5c-4.7-4-4.6-10.1,0-14.3c1.7-1.6,3.2-11.7,2-13.7c-0.7-1.2-1.9-0.8-2.9-0.8
	c-5.9,0-11.9,0-17.8,0c-2.1,0-3.2,0.5-3,2.8c0.4,4.8-1.2,9.6,3.6,13.7c3.6,3.1,2.6,8.5-1.4,12.1c-1.6,1.5-2.6,2.9-2.3,5.1
	c0.4,2.7-0.6,3.8-3.5,3.8c-2.8-0.1-4.5-0.5-4-3.8c0.3-1.9-0.4-3.3-2-4.6c-4.8-4-4.8-9.9-0.4-14.3c1.9-1.8,3.4-11.3,2.3-13.7
	c-0.4-0.8-1-1-1.8-1c-6.7,0-13.4,0-20.1,0c-0.5,0-1.2,0.4-1.5,0.8c-1.3,1.7,0.2,12.1,1.8,13.7c4.7,4.5,4.7,9.7-0.1,14.3
	c-1.4,1.3-2.2,2.5-2,4.3c0.4,3.1-0.8,4.3-4.1,4.3c-3.2,0-4-1.3-3.7-4.1c0.2-1.5-0.2-2.8-1.4-4.1c-5.6-5.5-5.5-9.7-0.1-15.2
	c1.4-1.4,2.3-12.2,1.1-13.5c-0.7-0.8-1.7-0.6-2.6-0.6c-5.9,0-11.9,0.1-17.8-0.1c-2.5-0.1-3.2,0.9-3.1,3.2c0.3,4.7-0.9,9.4,3.7,13.2
	c3.5,2.9,2.5,9.1-1.2,12.2c-1.8,1.5-2.9,3-2.5,5.3c0.5,3.1-1.3,3.4-3.8,3.4c-2.7,0.1-4.1-0.7-3.7-3.6c0.3-2.1-0.4-3.5-2.2-5
	c-4.7-4.1-4.5-10,0.1-14.3c1.6-1.6,3.1-12,1.9-13.7c-0.7-1.1-1.9-0.7-2.9-0.7c-3,0-6.1,0-9.1,0c-6.7-0.1-9.5-2.8-9.5-9.4
	c-0.1-9.6-0.1-19.2-0.1-28.8c4.6-2.7,9.7-4.4,14.6-6.2c10.4-3.8,18.4-10.3,25.1-19c4.5-5.9,8.8-12.1,14.2-17.3
	c11.5-11,22.5-12.3,35.9-3.7C331.8,33.6,350.2,47.1,368.2,61.2z"/>
<path style="fill:#B39100;" d="M396.5,321.9c-4.2-2.6-5.9-6.2-7.2-10.6c-5.1-16.6-3.8-33.5-1.4-50.2c3-20.9,7.3-41.7,5.2-63
	c-10.5-9.9-14.4-22.2-15-36.4c-0.3-7.7-0.2-15.8-3-23.5c-5.1,1.8-9.6,4.6-14.1,7.4c1.7,0.5,1.6,2,1.8,3.3
	c2.2,15.5,4.7,30.9,6.6,46.5c2.7,21.9,1.8,43.8,1,65.7c-0.3,10.5-0.9,21,0.3,31.5c0.9,8.1,2.1,16.3,0.4,24.6
	c-1.7,8.4-4.3,16.5-7.5,24.4c-0.6,1.4-1.6,2.9-0.2,4.2c1.2,1.1,2.5,0.2,3.8-0.1c2-0.5,3.8-1.8,6-1.5c0.2,2.3-2.9,4.5-0.5,6.4
	c1.6,1.3,4,0.6,5.4-1c4.1-4.6,9.3-7.2,14.7-9.7c2.2-1,4-2.8,5.5-4.8C401.8,330.7,401.2,324.8,396.5,321.9z M185.3,175.4
	c1.7,1,3.6,0.7,5.4,0.5c4.1-0.4,5.4,0.8,4.3,5.2c-1.7,7-2.8,14.2-4.2,21.4c-3.9,20.7-8.3,41.2-16.3,60.9
	c-5,12.5-11.3,24.6-14.1,37.9c-3.2,15-9.3,28.2-20.4,38.9c-0.9,0.9-1.9,1.9-1.6,3.1c0.5,1.7,2.3,1.1,3.5,1.4c1.5,0.3,3,0.6,4.4,0.8
	c0.1,1.9-3.3,2.7-1.4,4.8c1.8,1.9,4,1.3,5.9,0.4c3.6-1.7,7.4-2.5,11.4-2.7c3.7-0.2,7.5-1.3,10.1-4.6c2.1-2.6,3.1-5.9,0.8-8.3
	c-5-5.3-3.6-11.3-2.8-17.2c1.7-13.2,7.4-25,13.8-36.4c10.3-18.3,19.1-37.1,23.5-58c2.8-13.2,7.9-25.6,19-34.4
	c-8.6-3.8-17.4-7.3-25.8-11.4C195.7,175.1,190.7,174.8,185.3,175.4z"/>
<path style="fill:#CD1820;" d="M41.7,48.5C57,51.9,62,62.8,63.6,75.1c0.3,2.5,0.6,5.1,0.9,7.6c2.4,5.6,1.2,11.3,0.9,17
	c-0.6,8.3-2.3,16.5-3.6,24.8c-1.3,8.2,2.8,13,11.2,13.6c10.2,0.8,19.2-2.5,27.8-7.4c11.4-6.8,19.8-18.9,22.1-32.2
	C114.8,103.8,107,109,99,114c-1.4,0.9-2.7,2-4.5,2.1c-2.9-2.4-4.9-5.2-4.3-9.3c10.3-5.8,20-12.6,30-18.9c2-1.3,4-2.8,6.4-3.4
	c1.1,2.8,2.1,5.6,3.2,8.3c-1.1,18.4-10.1,32.3-24.8,42.9c-8.6,5.1-17.7,8.7-27.9,8.8c-2.4,0-4.9,0-7.3-0.5
	c-10.5-1.8-15.8-9.6-14-20.2c2.1-12.7,4.9-25.4,3.9-38.4c-0.1-1.5-0.4-3-0.6-4.5c-1.4-1.3-1.1-3-1.3-4.7
	c-1.3-10.3-5.1-18.7-16.3-21.7c-2.1-0.6-4.5-1.2-5.3-3.8C37.8,49.2,39.9,49.1,41.7,48.5z"/>
<path style="fill:#FCC900;" d="M469.5,333.8c-2.3-5.6-2.5-11.2-1.2-17c1.8-7.6,0.7-14.8-2.3-21.9c-1.9-4.3-3.9-8.6-5.8-12.9
	c-2.8-6.1-3.9-12.5-3-19.2c0.5-3.5,1.1-6.9,1.4-10.4c1-11.8-1.3-22.3-10.2-30.9c-9.7-9.5-17-20.6-21.1-33.7
	c-3.3-10.5-5.4-21.2-6.6-32.1c-0.9-8.2-2-16.5-1.9-25.5c6.3,3.6,9.6,8.8,11.6,14.8c2,5.9,3.2,12,4.8,18.1c2,7.5,4,15.1,9.2,21.1
	c3.9,4.5,8,3.4,9.6-2.3c0.4-1.6,0.5-3.3,0.6-5c0.4-9.1-3.9-16.4-8.9-23.5c-7.5-10.6-14.4-21.6-18.6-33.9c-1.9-5.5-5-10.1-8.8-14.3
	c-15.2-16.4-32.3-30.6-50-44c-1.6,1.8-1.2,4-1.2,6.1c-0.1,9,0,18,0,27c-0.1,7.5-2.5,9.9-9.8,10.1c-2.6,0.1-5.2-0.1-7.8,0.1
	c-2,0.2-3.8,0.9-4,3.1c-0.4,5.1-1.6,10.2,2.8,14.6c3.1,3.1,3,7,0.3,10.4c-1.6,2.1-3.2,4-3.6,6.7c-0.2,1.3-0.9,2.3-2.4,2.2
	c-1.6,0-1.9-1.3-2.1-2.5c-0.3-1.8-1-3.4-2.2-4.9c-4.3-5.5-4.2-7.7,0.1-13.2c3.4-4.3,2.2-9.3,1.5-14c-0.3-1.7-2-2.2-3.6-2.3
	c-5.9-0.2-11.9-0.2-17.8,0c-2,0.1-3.8,0.8-4,3c-0.4,4.9-1.6,9.9,2.4,14.3c3.3,3.7,3.2,6.8,0.3,10.7c-1.5,2-2.8,3.9-3.2,6.5
	c-0.2,1.2-0.6,2.4-2.1,2.5c-1.6,0.1-2.2-0.9-2.4-2.2c-0.3-2.7-2-4.6-3.7-6.7c-2.5-3-2.8-7.2,0-10.1c3.7-3.9,3.7-8.4,3.5-13.2
	c-0.1-3.1-1.6-4.8-4.8-4.9c-5.6-0.1-11.3-0.2-16.9,0c-1.9,0.1-4,0.5-4.2,2.7c-0.6,5.1-1.8,10.3,2.2,14.8c2.3,2.6,3.1,5.7,1.3,8.9
	c-1.7,2.9-3.6,5.5-4.5,8.9c-0.6,2.3-4,2.6-4.4,0.6c-1-4-3.7-7-5.3-10.5c-1.2-2.6-0.6-5.3,1.3-7.3c4-4,3.3-8.9,3.1-13.7
	c-0.1-2.7-1.6-4.2-4.3-4.3c-5.8-0.2-11.6-0.2-17.4,0c-3,0.1-4.4,1.7-4.5,4.6c-0.2,4.8-0.3,9.3,3.3,13.3c2.8,3.2,2.7,7.1,0.3,10.1
	c-1.8,2.1-3.5,4.2-3.8,7.1c-0.1,1.1-0.8,2-2.1,2s-1.9-0.8-2.2-1.9c-0.4-1.8-0.8-3.5-1.9-5.1c-4.9-6.7-4.7-7.3,0.1-14.3
	c2.9-4.2,2.4-9.3,0.8-13.6c-1.3-3.4-5.3-1.9-8.2-2.2c-1.2-0.1-2.4,0-3.7,0c-6.5-0.2-9-2.7-9.2-9.3c-0.1-7.3,0-14.6-0.1-21.9
	c0-1.9,0.3-4-1.3-5.6C218,70,213.8,73.3,210,77c-6.6,6.5-11.9,14.2-17.8,21.3c-5.4,6.5-11.3,12.3-18.9,16.2
	c-11.6,5.8-22.4,4.2-31.9-4.6c-5.1-4.8-8.2-10.9-11.6-16.8c-1.3,0.7-1.2,2-1.4,3.2c-2,14.9-9,26.9-20.8,36.2
	c-1.1,0.9-2.7,1.6-2.6,3.5c0.9,1.2,1.7,2.5,2.6,3.7c11,15.9,24.6,28.1,43.7,33.2c11.2,3,22.6,2.7,34,2.8c3.4,0.9,7.2-0.9,10.2,0.8
	c8.6,4.8,17.9,8,26.8,12.1c1.4,0.6,2.7,1.3,4.3,0.8c8.4,7.1,13.7,16.2,17.1,26.4c3.4,10.4,3.9,21.2,3.5,32.1
	c-0.2,6.7,1.3,12.8,4.5,18.8c5.3,10.2,10.9,20.4,13.6,31.8c3.2,13.5,1.2,25.7-8.8,35.9c-1.9,2-3.6,4.1-5.2,6.4
	c-1.1,1.5-2.7,3.2-1.2,5.3c1.5,2.1,3.5,1.3,5.4,0.6c3.3-1.4,6.2-1.2,9.5,0.7c4.8,2.8,10.1,3.5,15.1,0.1s4.5-8.6,3.8-13.7
	c-5.4-38.1-11.7-76-19.7-113.7c-2.1-9.9-3.4-19.8-1.2-29.9c0.6-2.6,0.9-4.1,4.3-3.1c3.2,0.9,6.6,1.1,9.9,1.1
	c14.5,0.2,27.3-5.3,39.5-12.5c15.4-9,29.3-20.3,44.3-29.8c3.4,0,5.9-2.3,8.7-3.7c4.7-2.3,4.9-2.2,5.6,2.8c1,6.9,1.1,13.9,1.8,20.8
	c0.6,6.7,1.6,13.3,4.6,19.3c2.6,5.3,5.6,10.4,11.3,13.2c7.6,6.8,14.1,14.7,21.3,21.9c24.7,24.9,38.1,54.3,35.4,90.1
	c-0.8,10.3-2.5,19.7-13,24.8c-0.9,0.4-1.8,1.2-2.4,2c-2.3,2.7-4,5.7-1.6,9.1c2.4,3.3,5.6,2.3,8.7,1.1c1.5-0.6,2.9-2.2,4.6-0.9
	c7,5.3,13.3,1.8,19.6-1.4C470.6,342,471.7,339.2,469.5,333.8z M126.5,84.4c-3-10.2-6-20.4-9.1-30.5c-0.7-2.2-0.5-3.6,1.4-5.1
	c3.3-2.6,5.3-6.2,6.4-10.3c1.4-5.1,1-5.5-4.3-4.5c-4.7,0.9-9,5.1-14.2,1.2c-0.8-0.6-2.6,0.2-3.9,0.5c-2.8,0.7-5.6,1.5-8.4,2.2
	C77,42.2,59,43.8,41.7,48.5c0.2,1.3,1.4,1.6,2.3,1.9c12.2,3.7,16.8,13,18.4,24.7c0.3,2.6,0.6,5.1,1.6,7.5c0.5,0.8,1.3,1.3,2.1,1.7
	C75.7,88,82,95,86.8,103.8c0.8,1.4,1.7,2.9,3.4,3.4c2,0.3,3.5-1,5-1.9c6-3.6,11.8-7.5,17.6-11.3C117.4,90.9,122.5,88.4,126.5,84.4z
	 M42,53.4c-2-0.4-3.8-1.8-5.7-2.7c-7.4,2.8-13.5,7-15.2,15.5c-0.8,3.8,0.5,5.1,4.3,4.7c2-0.2,3.9-1.5,6.4-0.4
	c-2.1,2.7-4.3,5.1-5.1,8.2C26.4,79.9,26,81,27.1,82c1,0.9,1.9,0.6,2.9,0.2c9.5-3.8,19.2-3.7,29.1-1.3c0-1.2,0-2.4,0-3.6
	C58.7,68.1,54.2,55.8,42,53.4z M102.2,131.2c-2.5-5.2-5.8-10-7.7-15.4c9.8-6.4,19.6-12.7,30.3-19.7
	C121.7,111.5,115.1,123.3,102.2,131.2z"/>
<path d="M88.1,48.8c3.6-0.3,6.8,1,9.8,3.1c1.3,1,1.3,1.7,0.1,2.8c-4.4,4.3-15.2,4.2-19.5,0c-1.3-1.3-1-2,0.2-2.9
	C81.5,49.7,84.5,48.6,88.1,48.8z"/>
</svg>
