<?xml version="1.0" encoding="utf-8"?>
<!-- Generator: Adobe Illustrator 23.0.3, SVG Export Plug-In . SVG Version: 6.00 Build 0)  -->
<svg version="1.0" id="Layer_1" xmlns="http://www.w3.org/2000/svg" xmlns:xlink="http://www.w3.org/1999/xlink" x="0px" y="0px"
	 viewBox="0 0 609.4 609.5" style="enable-background:new 0 0 609.4 609.5;" xml:space="preserve">
<path style="fill:#FFDF7A;" d="M430.1,349.3c-0.8,3.6-1.6,7.2-2.3,10.8c-6.5,17.3-16.4,32.1-31.6,43c-7.3,5.2-15.8,8-23.2,13
	c-0.5,0.3-1.1,0.1-1.6-0.3c-16.8,16.7-23.1,38.3-28,60.4c-7.2,32.5-9.6,65.6-9.5,98.8c0,4.8-1.4,5.9-5.9,5.8
	c-49.8-0.2-99.7-0.2-149.5,0c-5,0-7.1-1.4-7.5-6.3c-0.3-3.5-1.4-6.9-2.2-10.4c-4.3-8.1-4.3-17.1-5.5-25.9
	c-1.5-10.7-2.9-21.5-3.4-32.4c-0.1-1.9-0.4-4,0.6-5.8c1.1-1,0.5-2.2,0.4-3.3c-1.5-36.1-0.6-72,9-107.1c7.8-28.6,20.6-54.3,43.5-74
	c9.4-8.1,19.9-14.3,31.5-18.6c19.4-7.3,38.7-14.9,56.8-25.2c4.3,1.4,6,5.5,8.7,8.6c30.3,35.4,68.3,57.3,114,66.2
	C426.5,347.2,428.7,347.4,430.1,349.3z M336.4,239.1c5.2-10.5,6.7-21.6,7-33.2c0.3-14.9-1.3-29.9,0.9-44.9
	c1.8-12.3,5.9-23.6,13.3-33.6c0.6-0.8,0.8-1.7,1.2-2.6c1.1-2.5,2.8-4.7,5-6.4c16.7-13.1,36.1-15.2,56.4-13.9c1,0.1,1.8,0.7,2.6,1.3
	c12.2,0.6,24.4,1.1,36.5,3.6c7.7,1.6,14.9,4.3,20.5,9.9c13.7,13.4,27.2,27,40.9,40.4c2.3,2.2,2.9,4.1,1.7,7.2
	c-5.5,13.1-10.8,26.3-15.9,39.5c-1.3,3.3-2.9,4-6.2,3.8c-10.7-0.6-21.3-0.2-31.6,3.4c-19.4,6.8-29.7,20.9-30.4,41.4
	c0,1.4-0.1,2.8-0.2,4.1c-4.5,2.9-9.6,1.8-14.4,1.4c-27.9-2-55.1-7.1-81.2-17.2C340.1,242.4,337.5,241.8,336.4,239.1z"/>
<path style="fill:#5CADE0;" d="M336.4,239.1c25.3,10.3,51.5,16.5,78.8,19c7.7,0.7,15.3,0.9,23,1.1c0.5,10.7-0.1,21.5,1,32.3
	c0.2,1.5,0.4,3.2-0.8,4.5c-4.4,2.5-9,0.5-13.3-0.2c-21.5-3.2-41.8-10.4-60.8-21.1c-2.1-1.2-4.5-4.1-6.8-1.6c-2.7,3-5.7,6.3-6.1,10.6
	c-0.2,2.4,2.6,3.3,4.4,4.4c19.6,11.7,40.8,18.9,63.2,22.9c3.5,0.6,7,1.1,10.6,1.5c2.7,0.3,5.6,0.3,7.6,2.8
	c-0.9,11.7-2.9,23.2-7.1,34.3c-52.9-9-96-34.4-128.4-77.3c10.4-7.4,21.4-14.1,29-24.7C332.6,244.6,334.5,241.8,336.4,239.1z
	 M409.8,542.6c-12.6,0.1-25.2,0.2-37.8,0.2c0-22.2,0-44.4,0-66.6c1.7-1.7,3.9-1.8,6.1-1.8c10.8-0.1,21.7-0.1,32.5,0
	c2.2,0,4.4,0.1,6,1.9C414.3,498.5,412.1,520.5,409.8,542.6z"/>
<path style="fill:#DC2513;" d="M372,438.3c16.1,0,32.1,0.1,48.2,0.1c-1.2,12.6-2.4,25.3-3.6,37.9c-14.9,0-29.7-0.1-44.6-0.1
	C372,463.6,372,451,372,438.3z M437.3,315c-26.3-2.8-51.5-9.3-75-21.7c-0.3-0.2-0.7-0.4-1-0.6c-13.7-7.1-13.5-7-5.9-20.2
	c2.2-3.8,3.9-3.1,6.8-1.3c16.8,10.3,34.9,17.3,54.2,21.3c7.3,1.5,14.8,2.3,22.2,3.4C438,302.2,439.4,308.7,437.3,315z"/>
<path style="fill:#F7AA00;" d="M160.4,500.2c-3.7-3.9-7.5-7.6-11-11.6c-17.6-21.1-27.8-44.9-26-72.9c1.5-24.2,11.3-45.4,24.8-65
	c16.5-24,31.8-48.6,43.7-75.2c16-35.7,20.9-71.9,5.1-109c-5-11.8-10.3-23.6-18.8-33.4c-5.2-6-11.1-11.1-19.8-9.6
	c-11.5,1.9-16.9,12-14.3,25.6c2,10.2,6.6,19.4,11.7,28.4c9.9,17.3,12.2,35.6,7.1,54.9c-3.3,12.5-8.1,24.3-13.7,35.9
	c-14.2,29.4-32.6,56.4-48.9,84.6c-18,31.1-23.7,64.3-14,99.3c13.2,47.8,44.8,82.3,82.3,112.3c-2.4-16.5-4.9-33-6.6-49.6
	C161.6,509.9,163,504.7,160.4,500.2z M466.9,575.8c-0.3-4.3,0-8.7-0.1-13c-0.1-12.1-8-19.9-20.2-20c-12.3-0.1-24.5-0.1-36.8-0.2
	c-12.5-2.8-24.9-2.6-37.4-0.1c-0.8,0.2,0.3,0-0.4,0.4c-0.1,11.1,0,22.1-0.3,33.2c-0.1,4,1.2,4.9,5,4.9c28.5-0.1,57-0.2,85.4,0
	C466.3,581,467.1,579.5,466.9,575.8z M422.8,105.8c-5.2-27.3-17.8-51.3-32-76c-13.2,22.7-24.7,44.8-30.6,69.3c-2,8.4-4,17-1.4,25.7
	c8.6-7.7,18-13.8,29.4-16.6C399.6,105.4,411.2,105.8,422.8,105.8z M378.6,440.2c11.6,0.1,23.3,0.1,34.9,0c2.3,0,4.8,0.1,6.7-1.7
	c2.5-26.1,5.1-52.2,7.6-78.3c-0.4-0.1-0.7-0.3-1.1-0.3c-0.1,0-0.2,0.3-0.3,0.4c-6.6,16.3-15.9,30.5-30.2,41.2
	c-7.8,5.8-17.3,8.4-24.9,14.4c0.2,7.5,0.4,15,0.6,22.5C373.8,440.2,376.3,440.2,378.6,440.2z M280.9,315
	c-21,3.6-39.6,12.2-54.6,27.4c-20.8,20.9-29.9,47.3-33.7,75.8c-1.4,10.4-0.8,9.7,10.4,11c7.3,0.9,7.9-2.5,8.5-7.7
	c2.6-21.7,8.6-42,22.7-59.3c11.4-14,25.6-23.9,43.7-27.2c8.4-1.5,8.4-1.5,8.4-10.2c0-1.8-0.2-3.6,0-5.3
	C286.8,315,284.4,314.3,280.9,315z M199.3,447.8c-9.2-0.1-7.9-0.8-8,9.1c0.2,11-1.4,9.8,8.3,9.9c10.7,0.1,10.7,0,10.6-10
	C210.2,446.1,211.7,447.9,199.3,447.8z"/>
<path d="M457,162.8c-11-0.2-9.1,1.6-9.2-11.4c-0.1-7.6,0-7.6,8.9-7.6c10.1,0,10.2,0,10.1,10.5C466.7,164.2,467.9,162.7,457,162.8z"
	/>
</svg>
