<?xml version="1.0" encoding="utf-8"?>
<!-- Generator: Adobe Illustrator 23.0.3, SVG Export Plug-In . SVG Version: 6.00 Build 0)  -->
<svg version="1.0" id="Layer_1" xmlns="http://www.w3.org/2000/svg" xmlns:xlink="http://www.w3.org/1999/xlink" x="0px" y="0px"
	 viewBox="0 0 612.3 613.5" style="enable-background:new 0 0 612.3 613.5;" xml:space="preserve">
<g>
	<path style="fill:#FED69B;" d="M219.4,164.2c-2.3-1-4.7-0.9-7-0.6c-7.6,1.1-15.3,1.8-22.9,3.5c-13.2,3.1-26.3,6.5-39,11.3
		c-11.6,4.3-23,8.7-33.5,15.4c-2,2-4.4,3.4-6.8,4.7C81.5,213.6,56,233,32.6,255.4c-2.7,2.6-4.7,4.1,1.1,5.7
		c21.8,6.1,43.1,13.8,63.5,23.6c22.2,10.7,44.2,21.8,66.3,32.6c15,7.4,31,12,47,16.3c2.3,0,4.6,0,7,0.1c-1.2-3.2-4.3-3.3-6.8-4.2
		c-41.6-14.3-65.6-61.3-52.6-103.3c8.8-28.2,27.3-47,55.2-56.8c2.5-0.9,5.6-0.9,7.1-3.8C220.3,165,220,164.5,219.4,164.2z"/>
	<path style="fill:#FED69B;" d="M436.9,247c-12.1-5.1-23.5-11.7-35.9-15.9c-7.5-4.2-15.8-7-22.1-13.2c-0.6-0.8-1.3-1.5-2.2-1.9
		c-19.1-10.7-37.5-22.4-57.1-32.2c-16.2-8-32.9-14.7-50.8-18c-2.4-0.4-5.5-2.3-7,1.7c1.6,2.1,4.1,2.3,6.3,3.1
		c41.5,14.4,65.4,61.4,52.2,103.3c-9,28.5-27.8,47.5-56.3,57c-2.6,0.9-6.2,0.5-7.5,4c8,0.2,15.8-1.7,23.6-2.9
		c3.4-0.5,6.8-2.6,10.4-1c0.4-1.3,1.3-1.8,2.6-2.1c12.6-2.8,24.7-7.2,36.7-11.9c31-12.2,59.4-29.1,86.6-48.1
		c8.6-3.2,14.6-10.1,21.5-15.7C440.4,251.1,440,248.3,436.9,247z"/>
</g>
<path style="fill:#DC1346;" d="M481.1,346.6c-9.9-1.8-19.9-0.9-29.8-0.9c-10.9,0-18.8,8.3-18.8,19s7.9,18.8,18.8,19.1
	c6.2,0.2,12.3,0,18.5,0c11.5,0.1,20.1,8.5,20,19.3c-0.2,10.7-8.6,18.9-19.8,18.9c-30.5,0.1-60.9,0-91.4,0.1c-2.8,0-4.8-0.8-6.7-2.9
	c-27.1-29.5-54.2-58.9-81.4-88.3c-2.3-3.1-5.3-1.8-8.1-1.3c-8.5,1.5-16.9,3.9-25.7,3.4c-13.4,1.9-26.7,1.3-40-1.1
	c-2.1,0.2-4.4-0.1-6.1,1.7c0,9.6,0,19.1,0,28.7c0,54.4,0,108.8,0,163.1c0,9.5,4.3,16.5,11.9,19.6c13.1,5.3,26.3-4.2,26.3-19.1
	c0-57,0-113.9,0-170.9c0-2.1,0-4.2,0-6.3c0.5-0.2,1-0.5,1.5-0.7c1.3,1.7,2.5,3.5,4,5c30.7,32.6,61.5,65.2,92.1,97.9
	c6,6.4,12.9,9.5,21.7,9.4c34.5-0.1,68.9,0.1,103.4-0.1c29.8-0.1,53.7-23.1,56.5-54C530.5,378.6,509.4,351.8,481.1,346.6z
	 M264.2,119.1c22,2.8,43.5,8.1,64.5,15.1c20.4,7,40.1,15.5,59,25.7c2.4-2.2,4.1,0.2,5.8,1.1c11.2,6,22.3,12.3,32.9,19.4
	c2.8,1.9,5.6,2.6,8.9,2.6c42.4-0.1,84.8,0,127.2-0.1c12.2,0,20.8-7.9,20.9-18.9c0.1-11.3-8.6-19.3-21.1-19.3
	c-31.1,0-62.1-0.2-93.2,0.1c-6.9,0.1-12.5-1.6-18.4-5.2C389.3,102,322.4,81.5,250.5,78.1c-39.9-1.9-78.9,4.9-117.1,15.8
	c-33,9.5-64.3,23.1-93.9,40.4c-10.5,6.2-14,19.4-8,29.5c5.6,9.5,16.8,12,27.6,5.9c21.5-12.2,43.8-22.6,66.8-31.5
	c3.8,0.6,7.4-0.6,10.9-1.9c20.4-7.1,41.2-12.8,62.7-15.7C221,117.9,242.6,116.8,264.2,119.1z M562.2,230.8c-25.9,0-51.8,0-77.6,0
	c-27.9,0-55.7,0.2-83.6,0.2c11.1,6.5,22.8,11.7,34.6,16.8c3.4,1.5,3.8,2.8,0.7,5.1c-6.7,5.2-13.3,10.6-19.9,15.9
	c2.2,0.1,4.4,0.2,6.6,0.2c46.4,0,92.8,0,139.2,0c12.6,0,21.3-7.8,21.3-19.1C583.4,238.6,574.8,230.8,562.2,230.8z"/>
<path d="M261.9,167c39.5,10.8,66.5,49,63.2,89.4c-3,36.3-28.1,66.6-63.1,76.4c-1.9,0.5-3.7,1.3-5.6,1.9c-13.1,2-26.1,1.6-39-1.1
	c-15.2-5.1-29.3-12.2-40.3-24.2c-22.3-24.4-29.8-52.8-20.1-84.3c9.5-31.3,31.1-50.9,63-58.9c3.2-3.1,7.6-2.3,11.4-3.6
	c7.9-0.5,15.9-1.5,23.7,0.9C257.4,164.6,260.3,164.7,261.9,167z"/>
<path style="fill:#5CADE0;" d="M193.2,120c-23,4-45.3,10.7-67.3,18.4c3.2,2.2,0.8,4.9,0.4,7.2c-3,16.1-6.2,32.1-9.3,48.1
	c9-2.1,16.6-7.3,25.1-10.6c15.3-5.9,31.1-10.2,47-14.6c1.8-1.4,2.5-3.4,3-5.6c2.5-12.4,5-24.8,7.4-37.2c0.4-2.1,0.9-4.3-0.8-6.2
	C196.8,119.8,195,119.7,193.2,120z M305.3,125.5c-13-3.9-26.5-5.7-39.9-8.1c-0.4,0.7-0.1-0.3-0.4,0.4c-5.1,15.2-8.4,30.8-9.3,46.9
	c1.6,2.1,4.2,1.4,6.2,2.2c1.7-1.1,3.3-0.4,5.1-0.1c18.5,3.2,35.5,10.7,52.4,18.3c3.6-17.4,7.2-34.8,10.8-52.2
	C321.9,130.5,313.6,128,305.3,125.5z"/>
<path style="fill:#8AC4F2;" d="M382.7,155.4c-17-8.7-34.6-15.9-52.4-22.5c-2.1,1.5-2.6,3.8-3.1,6.2c-2.6,13-5.3,26-7.8,39
	c-0.5,2.3-1,4.7,0.1,7c18.6,10.6,37.3,21.3,55.9,31.8c1,0.6,2.2,0.6,3.4,0.9c3-19.3,6-38.6,9-57.9
	C387.3,157.2,384.8,156.5,382.7,155.4z M229.8,116.2c-10.4,0.8-21,0.8-31.2,3.5c-3.2,16.3-6.4,32.6-9.6,48.9
	c10.4-0.9,20.6-3.7,31.1-3.7c3.5-0.3,7.1-0.2,10.6-0.9c8.3,0.1,16.7-0.9,25,0.8c4.1-15.6,6.7-31.5,9.7-47.4
	C253.6,116.5,241.7,115.3,229.8,116.2z"/>
<path style="fill:#B19369;" d="M220.1,164.9c3.4-2,7.1-0.7,10.6-0.9c-3.4,1.7-7.1,1.6-10.7,2.2C220,165.7,220.1,165.3,220.1,164.9z"
	/>
<path style="fill:#FFFFFF;" d="M238.8,288.2c-21.1-0.1-38-17.4-37.8-38.8c0.1-20.8,17.4-37.7,38.4-37.7
	c21.2,0.1,38.2,17.3,38.1,38.5C277.3,271.4,260.1,288.3,238.8,288.2z"/>
</svg>
