<?xml version="1.0" encoding="utf-8"?>
<!-- Generator: Adobe Illustrator 23.0.3, SVG Export Plug-In . SVG Version: 6.00 Build 0)  -->
<svg version="1.0" id="Layer_1" xmlns="http://www.w3.org/2000/svg" xmlns:xlink="http://www.w3.org/1999/xlink" x="0px" y="0px"
	 viewBox="0 0 512.2 372.5" style="enable-background:new 0 0 512.2 372.5;" xml:space="preserve">
<path style="fill:#FFD77F;" d="M483.5,209.8c-24-30.6-48.1-61.1-72.1-91.7c-9.5-12.1-18.9-24.3-28.5-36.4c-0.8-1-1.9-4.4-4-0.8
	c-0.1,2.1-1.4,3.8-1.9,5.8c-6.8,23-13.1,46.2-20.2,69.2c-1.9,6.1-0.8,10.4,3.1,15.2c11.8,14.6,23.3,29.5,34.6,44.4
	c0.9,1.2,2.4,2.1,2.1,4.3c-3.9,0.3-7.9,0-11.8,0.2s-6.6-1.4-8.9-4.4c-14.6-19.1-29.6-37.9-44.3-56.8c-3.8-4.9-7.1-10.2-12-14.1
	c-7.3-7.5-13.2-16.2-19.6-24.4c-15.5-19.5-30.7-39.2-45.9-58.8c-1.9-2.5-3.4-3.2-5,0.2c-3.9,11.9-8.3,23.7-12.3,35.6
	c-8.6,25.8-17.7,51.4-26.4,77.2c-1.1,3.2-1.3,5.8,1.2,8.7c17.8,20.6,34.9,41.7,52.7,62.3c-1.3,4.1-2.6,8.1-4,12.1
	c-1.7,4.9-3.3,9.8-4.9,14.7c-2.6-3.1-5.1-6.4-7.2-10c-0.1-1.4-1.2-2.2-2-3.2c-15-18.3-29.8-36.8-44.8-55.1
	c-11.5-14-22.8-28.1-34.4-42c-2.1,0-2.8-1.7-3.9-3.1c-7.2-8.9-14.4-17.7-21.5-26.6c-1.4-1.7-2.8-2.9-4.1,0.1
	c-8.6,23.5-15.4,47.7-23.3,71.5c-5.8,17.5-10.5,35.3-16.5,52.7c-5.7,16.8-11.1,33.8-16.4,50.8c-0.5,1.7-1.6,3.6-0.3,5.4
	c0.5,0,1,0.1,1.4,0.1c53.6,0,107.2,0,160.7,0c0.1,0.3,0.2,0.5,0.4,0.8c0.5,0,1,0.1,1.4,0.1c67.6,0,135.2,0,202.8,0
	c0.8,0,2,0.5,2.5-1.1c-8-9.9-16.2-19.7-24.2-29.8c-5.2-6.6-11.2-12.5-15.4-19.7c0-0.4-0.2-0.7-0.3-1.1c0.2,0,0.3,0,0.5,0
	c-10.7-13.8-20.7-26.6-31.2-40.1c9.9,0.3,18.8-0.5,27.6-0.6c26.6-0.3,53.1-0.1,79.7-0.2c1.4,0,4.1,1.6,4.3-1.8
	C488.1,216.7,486,213.1,483.5,209.8z"/>
<path style="fill:#F7AB48;" d="M137.4,132.5c-26.2,35.3-52.3,70.7-78.5,106c-12.3,16.6-24.7,33-37,49.6
	c-5.8,8.1-11.5,16.1-17.5,24.4c0.9,0.3,1.4,0.5,1.8,0.5c24.9,0,49.9-0.1,74.8-0.1c8.4-26.7,16.8-53.4,25.3-80.1
	c10.3-32.3,20.7-64.6,30.9-96.9C137.5,134.9,138.9,133.7,137.4,132.5z M399.1,219.1c-13.6-17.5-27.3-35-40.9-52.5
	c-1.5-1.9-1.9-3.6-1.2-6.1c6.3-21.4,12.6-42.8,18.5-64.3c1.4-5,4.3-9.7,3.6-15.2c-19.8,21.3-39.6,42.5-59.4,63.8
	c0.3,0.7,0.5,1.6,0.9,2.2c18.5,23.6,36.9,47.2,55.5,70.8c1.1,1.3,2.1,3.3,3.9,3.3c6.6,0.2,13.1,0.1,20,0.1
	C399.4,219.9,399.3,219.4,399.1,219.1z M300,133.4c-20,27.1-40.1,54.1-60.1,81.2c-8.9-10.6-17.8-21.3-26.9-31.7
	c-2.3-2.6-2.7-4.6-1.6-7.9c12.5-36,24.8-72.1,37-108.2c0.5-1.5,2.5-3.2,0.6-5.1c-27.3,33.5-54.7,66.9-82,100.4
	c-0.1,1.5,0.7,2.8,1.6,3.9c5.8,7.1,11.6,14.3,17.4,21.4c12.9,15.8,25.9,31.7,38.9,47.5c-1.1,1.5-2.3,3.1-3.4,4.6
	c-12.3,16.6-24.7,33-37,49.6c-5.8,8.1-11.5,16.1-17.5,24.4c0.9,0.3,1.4,0.5,1.8,0.5c24.9,0,49.9-0.1,74.8-0.1
	c5.4-17.2,10.8-34.3,16.3-51.5c6.6,0,13.1-0.1,19.7-0.1c-4.7-5.7-9.5-11.4-14.2-17.1c1.2-3.8,2.4-7.6,3.6-11.4
	c10.3-32.3,20.7-64.6,30.9-96.9C300.1,135.8,301.5,134.6,300,133.4z"/>
</svg>
