<?xml version="1.0" encoding="utf-8"?>
<!-- Generator: Adobe Illustrator 23.0.3, SVG Export Plug-In . SVG Version: 6.00 Build 0)  -->
<svg version="1.0" id="Layer_1" xmlns="http://www.w3.org/2000/svg" xmlns:xlink="http://www.w3.org/1999/xlink" x="0px" y="0px"
	 viewBox="0 0 612.2 613.4" style="enable-background:new 0 0 612.2 613.4;" xml:space="preserve">
<path style="fill:#D1781E;" d="M286.9,296c-3-2.8-5.3-6.5-9.5-7.8c-15.9,0-31.9,0-47.8,0c-2,2.3-1.8,5.2-1.9,7.9
	c-0.1,10.5,0,21,0,31.6c0,9.5,0.1,19.1-0.1,28.6c0,2.5,0.4,5.2-3.1,6.2c-8.2,2.4-12.1-0.3-12.1-8.6c0-18.9,0-37.7,0-56.6
	c0-3.1,0.4-6.4-1.9-9.1c-9.5,0-19,0-28.5,0c-3.3,6.3-2.9,12.6-0.2,19c0,24,0.3,48-0.1,72c-0.3,15.3,2.6,29.8,8.4,43.9
	c-0.7,1.4-0.2,2.7,0.5,3.9c5.1,9.1,10.2,18.2,18.7,24.8c0.4,0,0.7,0.1,1.1,0.1c2.6-2.6,1.9-5.9,1.9-9c0.1-16.7,0-33.4,0.1-50
	c0-2.4-0.7-5.3,2.4-6.7c7.2-3.2,12.8,0.3,12.8,8.3c0,20.7,0,41.3,0,62c0,3.4-0.2,6.8,1.9,9.8c5.8,4,12.1,7,19.1,8.5
	c2.8-3,1.9-6.8,1.9-10.2c0.1-44.7,0-89.5,0-134.2c0-2.4-0.1-4.8,0.2-7.2c0.2-1.9,0.9-3.3,3-3.9c8.1-2.5,12,0.2,12,8.6
	c0,46.5,0,93.1,0,139.6c0,3.8-0.3,7.5-1.8,11.1c0.9,0.9,2.1,1.1,3.3,1.1c9.7-0.1,19.5-0.1,29.2-0.2c2.5-3.1,1.7-6.8,1.8-10.3
	c0.1-46.1,0-92.2,0-138.4c0-2.2,0-4.4,0.1-6.6c0-3,1.3-4.9,4.3-5.7c4.7-2.1,1.7-4.8,0.1-6.5C297.7,306.5,292.4,301.1,286.9,296z
	 M430.5,378.7c-0.3-23.8-0.1-47.6,0-71.4c2.6-6.4,3.2-12.8-0.3-19.1c-9.5,0-19,0-28.4,0c-2,2.3-1.9,5.1-1.9,7.9
	c-0.1,10.5,0,21,0,31.6c0,9.5,0.1,19.1-0.1,28.6c0,2.5,0.4,5.2-3.1,6.2c-8.2,2.4-12.1-0.3-12.1-8.6c0-18.9,0-37.7,0-56.6
	c0-3.1,0.4-6.4-1.9-9.1c-15.9,0-31.8,0-47.7,0c-10.4,7.1-18.2,17-26.9,25.9c-1.9,2-0.7,3.6,1.6,4.4c5.2,1.4,4.2,5.7,4.2,9.3
	c0.1,47.1,0,94.1,0.1,141.2c0,3.5-0.8,7.2,1.8,10.3c5.4,0.1,10.7,0.3,16.1,0.1c5.5-0.2,11,1.1,16.4-1c-1.6-4-1.8-8.1-1.8-12.3
	c0-45.7,0-91.5,0-137.2c0-2.2-0.1-4.4,0.2-6.6c0.2-1.5,0.8-2.5,2.3-3.1c7.3-2.9,12.6,0.4,12.7,8.1c0,1.8,0,3.6,0,5.4
	c0,43.9,0,87.9,0,131.8c0,3.5-0.8,7.2,2,10.2c6.9-1.6,13.3-4.4,19.1-8.5c1.4-2,1.9-4.3,1.9-6.8c0-3.2,0-6.4,0-9.5
	c0-18.9,0-37.7,0.1-56.6c0-2.4-0.7-5.4,2.2-6.9c6.6-3.6,13.1,0.2,13.1,7.8c0,16.5,0,33,0,49.4c0,2.9-0.5,6,1.9,8.4
	c0.4,0,0.7,0,1.1-0.1c8.1-6.4,13.4-14.9,18.3-23.7c0.8-1.5,1.8-3.1,0.9-5C428.2,408.9,430.7,394.1,430.5,378.7z"/>
<path style="fill:#FD9127;" d="M430.5,269.1c-1.7-10.6-4.6-20.8-8.3-30.9c-3.9-12.3-12-21.6-21.1-30.2c-2.5-2.4-4.5-6.3-9-6
	c-8.6-7-18.9-10.7-28.7-15.5c-6-4.7-13.4-5.1-20.4-5.2c-24.6-0.5-49.2-0.5-73.8,0c-7,0.1-14.3,0.5-20.4,5.2
	c-10,4.5-20.1,8.6-28.7,15.5c-2.1-0.6-3.3,0.9-4.6,2c-8.9,7.2-16,15.9-21.9,25.6c-1.6,2.7-3.5,5.3-3.5,8.7c-4,9.9-6.5,20.3-8.3,30.8
	c-3,6.5-2.6,12.9-0.2,19.4c1.9,1.4,4.1,1.5,6.2,1.5c7.5,0,15,0.2,22.6-0.1c6.5,0.2,12.9,0.2,19.4,0c15.5-0.1,31,1,46.5-0.6
	c3.5-1.8,4-5.3,4.9-8.5c4.5-16.7,9.7-33.2,14.2-50c0.7-2.8,1-6.1,4.3-7.5c7.6-3.4,15.2,0.2,17.4,8.2c4.4,16.5,9.3,32.9,14,49.4
	c0.9,3.2,1.4,6.7,5,8.4c15.5,1.5,31,0.5,46.5,0.6c6.5,0.2,12.9,0.2,19.4,0c5.7,0.3,11.5,0.2,17.2,0.1c3.9-0.1,8,0.8,11.5-1.6
	C433,282,433.4,275.5,430.5,269.1z M255.8,168c9.4-2.1,18.9-2.4,28.5-2.3c11.7,0.2,23.5,0.1,35.2,0c12.7-0.1,25.5-0.3,38.1,2.5
	c1.9,0.4,4,0.8,5.7-0.7c0.1-3.8,0.2-7.5,0.2-11.3c0-13.7-7.7-21-21.5-21.1c-9.1-0.1-18.2,1-27.2-0.8c-6.1,1.5-12.2,1.1-18.3-0.1
	c-1.9,1.5-4.2,0.9-6.3,0.9c-7.6,0.1-15.1-0.1-22.7,0.1c-10.4,0.3-18.4,8.2-18.7,18.6c-0.1,4.6,0.1,9.1,0.1,13.7
	C251.1,169.3,253.5,168.5,255.8,168z"/>
<path style="fill:#27825A;" d="M375.7,517.7c-23.1,0-46.2,0-69.3,0c-22.1,0-44.2,0-66.3,0c-11.2,0-11.2,0-9.4,11.3
	c6.8,43.2,46.9,71.8,89.5,63.9c32.7-6,58.5-33.7,62.4-66.9C383.4,518,383.1,517.7,375.7,517.7z M199.3,194.8
	c-8.4,7.3-14.1,16.7-21,25.2c3,6.7,7.7,12.3,11.8,18.3c7.8-13.9,17.1-26.6,30-36.3c-3.6-4.7-7.2-9.5-10.9-14.2
	C205.2,189,202.4,192.1,199.3,194.8z M422.1,238.2c4.2-5.9,8.7-11.6,11.8-18.2c-4-5.3-7.7-10.8-12.1-15.8
	c-5.5-6.3-10.8-13-18.9-16.4c-3.6,4.7-7.2,9.5-10.9,14.2c4.2,3.9,8.6,7.5,12.7,11.6C411.9,220.9,416.5,229.9,422.1,238.2z
	 M182,288.2c-0.1-6.4-0.1-12.7-0.2-19.1c-6.4,0.2-12.9,0.8-19.2,2.2c0.1,11.9,0.1,23.9,0.2,35.8c6.3,0,12.7,0.1,19,0.1
	C181.8,300.9,181.9,294.6,182,288.2z M430.5,269.1c-0.1,6.4-0.2,12.7-0.3,19.1c0.1,6.4,0.2,12.7,0.3,19.1c6.3-0.1,12.7-0.1,19-0.2
	c0.1-11.9,0.1-23.9,0.2-35.8C443.3,269.8,436.9,269.4,430.5,269.1z M174.6,435.1c1.3,2.2,2.4,4.5,3.9,6.6
	c5.2,7.4,9.3,15.5,16.7,21.2c4.7-3.6,9.5-7.3,14.2-10.9c-6.9-9.2-14.4-18.1-19.2-28.7C184.7,426.8,179.2,430.4,174.6,435.1z
	 M412.2,439.9c-2.8,4.3-7.4,7.1-9.4,12c4.7,3.6,9.5,7.3,14.2,10.9c2.6-1.6,4.4-3.9,6.2-6.2c5.4-6.8,9.6-14.3,14.4-21.5
	c-4.6-4.8-10.2-8.3-15.6-12C419.2,429,415.8,434.5,412.2,439.9z"/>
<path style="fill:#40D694;" d="M296.5,134.2c-26.7-4.1-47.5-28.2-47.7-55.3c-0.2-28.4,19.6-52.8,46.6-57.4
	c31.1-5.3,60,13.6,66.8,43.6c6.7,29.9-11.1,59.5-41,68c-2.1,0.6-4.3,0.8-6.4,1.2C309.6,138,302,138,296.5,134.2z M403,187.8
	c10.7,9,20.3,19.1,27.9,31c0.6,1,1.6,1.7,3,1.2c0.3-0.2,0.7-0.4,0.9-0.7c20.4-30.4,40.7-60.9,61-91.4c2.9-4.4,2.1-11.3-1.5-15.3
	C481.6,98.1,469,83.5,456.2,69c-7.9-9-15.9-17.8-23.7-26.9c-2.9-3.4-6.6-2.9-9.9-2.3c-3.7,0.7-1.8,4.3-1.8,6.6
	c-0.2,11.9-0.1,23.9-0.2,35.8c0,3.1,0.6,5.6,3,8c7.4,7.2,14.5,14.8,21.8,22.1c5,5,5.6,10.9,1.3,16.8
	C432.3,148.6,417.6,168.2,403,187.8z M166.5,112.1c7.2-7.2,14.3-14.4,21.6-21.5c2.3-2.2,3.4-4.5,3.4-7.8c-0.2-12.3,0-24.7-0.1-37
	c0-2,1.3-5-1.4-5.8s-6-1.2-8.6,0.6c-1.3,0.9-2.3,2.2-3.3,3.4c-19.9,22.7-39.8,45.5-59.8,68.3c-4.3,4.9-4.8,11.2-1.1,16.7
	c8.7,13.1,17.3,26.2,26.1,39.3c11.6,17.3,23.4,34.6,35.1,51.8c2.9,0.5,3.6-2,4.8-3.6c2-2.7,3.9-5.4,5.9-8.2
	c5.7-7.9,13.4-13.8,20.3-20.5c-14.7-19.6-29.3-39.1-44-58.7C161,123.3,161.5,117.1,166.5,112.1z M497.2,480.5c0-0.9-1.2-2-2.1-2.7
	c-19.1-14.3-38.3-28.4-57.4-42.7c-0.8-0.4-1.6-0.2-2,0.5c-5.6,9.5-12.3,18.1-18.6,27.2c8.8,7.1,17.6,14.3,26.4,21.3
	c7.7,6.1,8.4,10.8,2.8,19.2c-10.8,16.2-21.6,32.5-32.5,48.6c-1.9,2.8-2.2,4.9-0.6,8c5,9.5,9.7,19.2,14.5,28.8
	c1.4,2.8,2.2,5.7,6.6,5.6c4-0.1,6.4-1.1,8.6-4.8c17.2-29.1,34.6-58.1,52-87C499.2,495.5,496.7,487.9,497.2,480.5z M165.6,502.9
	c-5.2-7.8-4.3-12.8,3.1-18.7c8.9-7,17.6-14.2,26.4-21.3c-6.1-9-13-17.3-18.5-26.7c-0.4-0.7-1.2-1-2-1.1
	c-19.1,14.2-38.3,28.4-57.4,42.7c-0.9,0.7-2.1,1.8-2.1,2.7c0.4,7.2-2.2,14.7,1.9,21.6c17.8,29.7,35.6,59.3,53.4,88.9
	c3,5,10.6,4.6,13.2-0.6c5.1-10.1,10-20.3,15.3-30.4c1.6-3.1,1.3-5.2-0.6-8C187.4,535.7,176.5,519.2,165.6,502.9z M554.1,372.2
	c-8.8-29.5-17.7-58.9-26.5-88.4c-1-3.4-2.4-5.2-6.3-5.6c-23.9-2.1-47.8-4.6-71.7-6.9c-1.5,1.3-1.8,3-1.9,4.8
	c-0.3,8.7-0.2,17.4,0,26.1c0,1.8,0.4,3.6,1.7,4.9c14.3,0.1,28.6,0.2,43,0.1c3.1,0,5.1,0.4,6.1,3.9c5.5,19.9,11.1,39.7,16.9,59.5
	c0.9,3,0.2,4.7-1.5,6.9c-7.8,10.3-15.4,20.8-23.3,31c-2.2,2.8-3.1,5,0.3,7.2c3.1,2.1,4.3,8,10.4,3.8c15.5-10.8,31.4-21,47.1-31.5
	C555.3,383.4,556.6,380.4,554.1,372.2z M121.7,408.7c-8-10.4-15.7-21-23.7-31.4c-1.6-2.1-2.1-3.8-1.3-6.4
	c5.7-19.4,11.3-38.9,16.7-58.4c1.1-4,2.9-5.2,7-5.2c14.1,0.2,28.3,0,42.4-0.1c3.1-11.8,2.8-23.6,0.2-35.4c-0.2-0.8,0,0.3-0.4-0.4
	c-5.5,0.4-11.1,0.8-16.6,1.3c-18.6,1.9-37.1,3.9-55.7,5.6c-3.1,0.3-4.4,1.5-5.3,4.4c-8.9,29.9-18,59.7-27,89.6
	c-2.3,7.7-0.8,11.4,6,15.9c14.4,9.6,28.8,19.2,43.2,28.8c7.3,4.9,7.1,4.7,13.9-1.2C124.1,413.3,124,411.7,121.7,408.7z M307.3,316.8
	c-0.8,0-1.6,0-2.3,0c-7-8.7-15.3-15.9-23.1-23.8c-1.5-1.5-2.9-3.2-4.4-4.8c5.8-20.4,11.7-40.7,17.3-61.1c1.2-4.3,3.1-6,7.8-6
	c13.6,0.2,13.3,0,17,13.4c4.9,17.9,10.2,35.8,15.3,53.6C325.7,297.7,316.5,307.2,307.3,316.8z"/>
<path style="fill:#5053D6;" d="M307.3,316.8c-0.8-0.6-1.6-0.6-2.3,0c-3,1.2-8.5-2.8-8.5,4.6c0.2,52.6,0.1,105.3,0.2,157.9
	c6.3,0,12.6,0,18.9,0c0-51.2,0.1-102.5,0.1-153.7C315.7,317,315.7,317,307.3,316.8z M267.9,328.8c0-12,0-11.8-12.3-12.1
	c-5.5-0.2-6.9,1.4-6.9,6.9c0.2,50.3,0.1,100.7,0.1,151c4.9,2.2,10.2,3.2,15.5,3.7c5.1,0.2,3.7-3.7,3.7-6.3
	C267.9,424.4,267.9,376.6,267.9,328.8z M349.6,316.8c-4.3,0-5.3,1.4-5.3,5.5c0.2,16.5,0.1,33,0.1,49.5c0,33.6,0,67.3,0,100.9
	c0,2.6-1,6,3.7,5.7c5.4-0.5,10.6-1.4,15.5-3.7c0-48.2,0-96.3-0.1-144.5C363.5,316.6,363.5,316.7,349.6,316.8z M363.4,186.5
	c0-6.3,0-12.7-0.1-19c-12.2-2.9-24.5-4-37-3.7c-11.3,0.3-22.6,0.2-33.9,0c-14.6-0.2-29.2-0.1-43.5,3.7c0,6.3,0,12.7,0,19
	C287,180.9,325.2,180.9,363.4,186.5z M216.1,383.7c-4.4,0-5.8,1.1-5.8,5.6c0.2,20.9,0.1,41.8,0,62.7c5.8,5.6,11.8,10.8,19.2,14.2
	c0-23.1,0-46.1,0-69.2C229.6,383.6,229.7,383.8,216.1,383.7z M388.4,383.7c-4.9-0.1-5.9,1.6-5.9,6.1c0.2,25.5,0.1,50.9,0.1,76.4
	c7.4-3.3,13.4-8.6,19.2-14.2c0-18.3-0.1-36.6-0.1-54.9C401.7,383.7,401.7,384,388.4,383.7z M229.6,288.2c-6.4,0-12.7,0-19.1,0
	c0,21.1,0,42.2,0,63.3c0,13.4,0,13.1,13.4,13.4c5.1,0.1,5.8-1.8,5.8-6.2C229.5,335.1,229.6,311.7,229.6,288.2z M396.1,364.8
	c5.1,0.1,5.8-1.8,5.8-6.2c-0.2-23.5-0.1-47-0.1-70.4c-6.4,0-12.8,0-19.2,0c0,21.1,0,42.2,0,63.3
	C382.6,364.8,382.6,364.5,396.1,364.8z"/>
</svg>
