<?xml version="1.0" encoding="utf-8"?>
<!-- Generator: Adobe Illustrator 23.0.3, SVG Export Plug-In . SVG Version: 6.00 Build 0)  -->
<svg version="1.0" id="Layer_1" xmlns="http://www.w3.org/2000/svg" xmlns:xlink="http://www.w3.org/1999/xlink" x="0px" y="0px"
	 viewBox="0 0 605.4 605.4" style="enable-background:new 0 0 605.4 605.4;" xml:space="preserve">
<path style="fill:#CB8C01;" d="M251.5,37.6c34.1,0,68.2,0,102.4,0c28.3,1.8,49.1,28.7,49.5,58.5c0.2,13.9,0,27.8,0.1,41.8
	c0.3,13.3,0.2,26.6,0.1,39.9c-0.6,7.9-0.3,15.8-1.1,23.8c-3,31.5-18,55.7-43,74.4c-38.3,24.3-76.5,24.3-114.8,0.1
	c-28.3-20.9-42.8-49.1-43.8-84.2c-0.1-4.6,0-9.3-0.2-13.9c-0.1-13.3-0.2-26.6,0-39.9c0.2-13.6-0.1-27.3,0.1-40.9
	c0.3-13.7,3.5-26.5,11.9-37.7C222.4,46.3,235,38.5,251.5,37.6z"/>
<path style="fill:#7E4404;" d="M113.5,501.4c1,4.3,4.5,2.8,7,2.8c27.1,0.1,54.3,0.4,81.4,0c26.3-0.4,44.7,22.7,43.2,42.8
	c-0.7,9.2-0.1,18.5-0.1,27.8c-1.7,1.6-3.8,1-5.7,1c-47.2,0-94.4,0-141.6-0.1c-6.1,0-12.3-0.7-18.4-0.9c-2.8-0.1-4-1.2-3.9-4
	c0.4-10.5-1-21.1,1.1-31.7c3.4-17.3,13.8-28.1,30.4-33.2C109.7,505,112.2,504.3,113.5,501.4z M359.1,574.7
	c0.6-13.2-1.7-26.5,1.3-39.5c4-17.3,21.3-30.8,39.1-30.9c28-0.1,56,0,84-0.1c2.5,0,6,1.5,7-2.8c1.4,1.6,2.2,3.4,4.8,4.1
	c20.6,5.6,32.7,20.9,33.3,42.1c0.2,7.1-0.2,14.1,0.1,21.2c0.2,4.6-1.4,5.8-6,6c-43.2,1.9-86.4,0.4-129.6,0.9
	c-9.3,0.1-18.5,0.1-27.8,0C363.3,575.7,360.9,576.4,359.1,574.7z M233,306.6c0.6-0.3,1.1-0.9,1.7-1C245,304,245,304,245,293.3
	c0-6.2,0.1-12.4,0.1-18.5c10.6,5.5,21,11.7,32.9,14.5c27.6,6.4,53.4,2.2,77.5-12.8c1.1-0.7,2.3-1.1,3.5-1.7c0,7.7,0.4,15.5,0,23.2
	c-0.3,5.6,1,8.5,7.2,7.5c1.7-0.3,3.6-0.4,4.9,1.2C325,306.6,279,306.6,233,306.6z M260,136.9c7.5,0,15,0,22.5,0
	c1.9,0,4.6-0.5,4.7,2.2c0.5,11.2,1.8,22.5-7.5,31.5c-8.3,7.9-20.3,10.5-30.3,6.3c-11.5-4.9-17.6-13.3-17.6-26c0-14,0-14,13.7-14
	C250.3,136.9,255.1,136.9,260,136.9z M316.6,148.1c0.2-13-1.7-11.1,11.2-11.2c13-0.1,26,0.1,39-0.1c4.4-0.1,5.7,1.4,5.7,5.7
	c-0.1,9.3,0.6,18.6-6.1,26.3c-7.9,9-20.5,12.5-31,8.6C324,173.1,315.5,164,316.6,148.1z"/>
<path style="fill:#B37900;" d="M435.7,338.3c14.3,19.8,18.5,43.7,25.6,66.3c10.1,32.2,19.6,64.6,29.3,96.8c1.2,3.1-1,3.9-3.2,4.4
	c-2.6,0.6-5.3,0.4-7.9,0.4c-25.2,0-50.3,0.4-75.4-0.1c-26.1-0.6-44.8,20.3-43,43.2c0.5,5.9,0.1,11.9,0,17.9c0,2.6,0.2,5.4-1.9,7.4
	c-38,0-76,0-114.1,0.1c-2.2-2.1-1.9-4.8-2-7.4c-0.1-6.6,0-13.2,0-19.9c-0.1-23.8-16.9-40.9-40.9-41.1c-26.3-0.2-52.5,0-78.8-0.1
	c-2.6,0-5.3,0.2-7.9-0.8c-1.9-0.7-2.9-1.9-2-4.1c7.9-26.1,15.7-52.3,23.6-78.4c4.6-15.2,9.3-30.3,13.7-45.6
	c3.9-13.9,9.3-27.1,17.5-39c8.8-13.7,21.5-22.5,36.4-28.2c9.7-3.7,19.9-6,30.4-5.4c44.6-0.4,89.1-0.5,133.7,0
	c25.4-0.3,46.3,9.4,63.3,28C433.6,334.4,434.9,336.2,435.7,338.3z M401.5,136.8c6.5,0.4,13.2-1.3,18.9,3.7c7,6.1,10.8,13.4,8.1,22.8
	c-3,10.5-10.9,14.9-21.1,16c-2,0.2-4,0-6,0C401.5,165.2,401.5,151,401.5,136.8z M202.6,179.3c-11,0-20.9-1.7-26.1-13.5
	c-5.7-12.9,4-28.6,18.2-28.9c2.6-0.1,5.3,0,7.9,0C202.5,151,202.5,165.2,202.6,179.3z"/>
<path style="fill:#B37900;" d="M239.5,313.6"/>
<path style="fill:#DFBA69;" d="M514.3,285.8c-1.5-34.8-9.7-68-22.6-100.1c-18.5-46.1-43-88.5-79.7-122.7
	c-16.2-15.1-34-27.7-58.1-25.4c0.3,0.3,0.6,0.7,1,0.8c28.5,5.4,47.2,29.9,46.6,60.8c-0.2,12.5,0.1,25.1,0.1,37.6
	c1.9,1.9,4.4,1.9,6.8,1.7c10-0.8,18.3,9.3,19.1,17.6c0.8,9.5-5.6,17.9-15.9,20.5c-3.4,0.8-7.2,0.1-10.1,2.6
	c-0.3,8-0.3,15.9-1.1,23.8c-1.9,17.8-8,33.7-18.4,48.2c-6.5,9.1-15.1,15.9-23.1,23.5c-3.8,7.9-1.3,16.3-1.7,24.6
	c-0.3,5.3,2.2,7.5,7.6,6.9c2.1-0.3,4.3-0.6,6.4,0.5c12.8-0.5,24.5,3.4,36,8.8c11.4,5.3,19.5,14.7,28.6,22.9
	c4.1-8.3,10.1-14.9,17.3-20.6c16.2-12.8,35.1-20,55.1-24.3C512.7,292.5,514.5,290.9,514.3,285.8z M220.1,53.9
	c8.9-9.1,20-13.1,31.7-16.2c-4-0.2-7.9-0.2-11.9,0.6c-20.1,4.3-35.6,16.3-49.8,30.1c-35.8,34.7-60.7,76.6-79,122.6
	c-12.2,30.7-19.9,62.6-21.1,95.8c-0.1,4.2,1.3,5.7,5.1,6.6c6.6,1.6,13.3,3.2,19.7,5.6c21.7,8,41.7,18.4,53.7,39.5
	c2.5-2.4,5.2-4.7,7.6-7.2c15.7-16.1,34.7-24.2,57.1-24.6c2.9-1.3,6-0.5,9-0.6c2.2-0.1,4.1-0.7,4.3-3c0.6-9.5,2.4-19-1.3-28.3
	c-11.2-10-22.1-20.1-29.6-33.5c-10.9-19.4-13.4-40.4-13-62c-3-2.5-6.8-1.8-9.8-2.4c-10.3-2.7-16.9-11-15.9-20.5
	c1-9.7,8.8-16.9,19.1-17.6c2.4-0.2,4.9,0.1,6.8-1.8c0-13.9-0.2-27.7,0.2-41.6C203.5,79.5,208.7,65.5,220.1,53.9z M367.5,316.3
	c-44.3,0-88.6,0-132.9,0c23.8,85.6,47.5,171.2,71.3,256.7C326.4,487.4,347,401.9,367.5,316.3z"/>
</svg>
