<?xml version="1.0" encoding="utf-8"?>
<!-- Generator: Adobe Illustrator 23.0.3, SVG Export Plug-In . SVG Version: 6.00 Build 0)  -->
<svg version="1.0" id="Layer_1" xmlns="http://www.w3.org/2000/svg" xmlns:xlink="http://www.w3.org/1999/xlink" x="0px" y="0px"
	 viewBox="0 0 512 512" style="enable-background:new 0 0 512 512;" xml:space="preserve">
<path style="fill:#DCE1EC;" d="M422.4,81.9C409.9,78.1,400.2,71.1,396,58c-0.4-7,3.7-11.9,8.1-16.5c8.8-9,19.8-13.3,32.2-13.9
	c18.7-0.9,37.2,0.6,55.6,4c3.9,0.7,7,2,7.9,6.4c1.9,13.3,3.6,26.7,3.1,40.2c-0.4,11.5-3.6,21.8-11.7,30.4
	c-9.3,9.8-20.4,12.8-33.1,9.8c-13.1-3.1-21.1-11.9-25-24.6c-0.2-0.8-0.6-1.5-0.9-2.3C430.3,87.9,426,83.7,422.4,81.9z"/>
<path style="fill:#1480E3;" d="M48.9,118c-2.1-2-4.6-3-7.3-3.9c-11.3-3.8-21.3-9.8-29.6-18.4C9.4,93,7.4,90,6.8,86.2
	C6.3,83,7.6,80.4,9.6,78c7.8-9.1,21.1-10.7,29.9-2.6c13.3,12.3,29.1,13.8,45.8,11.4c12.3-1.7,23.8-6.5,34.8-12
	c26.5-13.4,54.6-21.5,84-24c67.7-5.8,128.2,12.5,180.5,56.3c35.5,29.8,60.7,66.9,75.1,111.1c6,18.4,9.1,37.3,10.2,56.6
	c1.9,42.3-7.6,82.2-26.5,119.9c-7.6,15.2-13.1,30.9-12.5,48.3c0.4,11.7,4.1,22.1,12,30.9c8.2,9.2,7.8,20.5-0.7,28.5
	c-8.3,7.8-19.9,7.2-28.5-1.5c-9.6-9.7-15.8-21.4-19.4-34.4c-0.7-2.5-1.7-4.6-3.2-6.6c-1.5-6.2-1.5-12.5-2-18.8
	c0.8-8.4,1.2-16.9,3-25.2c3-14.1,8-27.5,14.6-40.3c16.9-32.9,24.2-68,21.9-104.8c-2.5-40.7-16.5-77.5-41.5-110
	c-3.3-4.4-6.9-8.5-10.5-12.7c-3-4.3-6.9-7.7-10.8-11.2c-12.5-11-25.6-21.2-40.3-29.3c-25.7-14.1-53.2-22.3-82.5-24.7
	c-39-3.2-75.2,5.5-110,22.7c-18.5,9.1-38,15.1-59.1,14.5c-1.7-0.1-3.3,0-4.9,0.5C62.1,120.6,55.4,119.9,48.9,118z M108.2,415
	c1.5,9.7,3.1,19.4,4.6,29.1c-0.8,1.9-1.9,3.5-3.4,4.9c-10.4,10.3-20.7,20.7-31.1,31.1c-0.5,0.5-0.9,0.9-1.4,1.4
	c-3.7,3.2-5.4,2.7-6.3-2c-1.5-7.7-2.6-15.4-3.9-23.2c-1.3-7.6-1.3-7.6-8.9-8.9c-12-2.1-24-3.8-36-5.9c-1.9-0.3-4.1-0.2-5-2.6
	c12.6-12.8,25.3-25.5,37.9-38.4c1.6-1.6,3.1-1.2,5-0.9c13.1,2.1,26.2,4.2,39.4,6.3C105.9,403.5,110.5,408.2,108.2,415z"/>
<path style="fill:#9BA6C3;" d="M499.8,38c-2.9-5.9-9-5-13.9-5.9c-15.5-2.7-31.2-3.4-47-3.2c-17.9,0.2-37.5,10-43,29.1
	c-5.2-13.4-0.5-28.5,11.4-37.6c8.4-6.4,17.9-9.1,28.3-9.4c17-0.6,33.8,1.2,50.5,4.1c5.7,1,9.9,4.1,11.3,9.9
	C498.5,29.2,499,33.7,499.8,38z"/>
<path style="fill:#02357E;" d="M48.9,118c2.5-2.2,5,0.3,7.5,0.3c4.2,0,8.5,1,12.7,1.6c3.1,0,4.5,2.6,6.3,4.4
	c50.7,50.6,101.4,101.3,152,152c3.3,3.5,6.8,6.9,10.2,10.3c49.3,49.4,98.7,98.7,148,148.1c1.8,1.8,4.5,3.2,4.4,6.3
	c1.3,5.3,0.3,10.8,1.8,16c0.3,1,0.3,2.3-0.9,3.1c-39-38.9-77.9-77.8-116.9-116.7c-15.7-15.6-31.4-31.2-47.1-46.8
	c-4.5-2-7.8-5.2-9.7-9.7c-2.4-2.5-4.8-5.1-7.2-7.5c-52.8-52.8-105.7-105.7-158.5-158.5C50.7,119.9,49.8,118.9,48.9,118z M469.8,275
	c-0.9-6.3-1.9-12.7-2.8-19c-2.6-19.9-8.5-38.8-16.2-57.3c-8.9-21.3-20.7-40.9-35.5-58.6C396,117,373.5,97.5,347.2,82.5
	c-23.2-13.2-47.9-22.1-74-27.2c-18.6-3.7-37.5-5.4-56.4-4.2c-34.6,2.1-67.7,10.2-98.8,26.2c-15.5,7.9-31.9,12.9-49.8,11.8
	c-10.8-0.7-20.5-3.9-27.9-11.5c-9.7-9.9-29.4-7-33.6,8.6C4.4,77.8,7.4,69.9,15,64.6c6.4-4.5,16.6-4.9,22.3,0.4
	c19,17.6,40.5,16.3,62.9,9.3c12.9-4,24.5-11.1,36.9-16.1c20.7-8.4,42.2-14,64.3-16.1c57.6-5.6,111.1,7,159.8,38.7
	c12.4,8.1,23.6,17.8,34.7,27.5c4.3,2,7.7,4.9,9.2,9.6c15.4,16.9,28.7,35.3,39,55.8c12.3,24.4,20.5,50.2,23.9,77.4
	C469.1,259.2,470.5,267,469.8,275z M16.8,438.9c9.4,2.7,19.2,3.2,28.8,5.1c6,1.2,12.1,2.1,18.1,3c2.3,0.3,3,1.3,3.3,3.5
	c1.5,9.7,3.2,19.3,4.9,28.9c0.2,1.1-0.4,2.6,0.8,3.2c1.6,0.7,2.3-1,3.2-1.9c11.7-11.7,23.3-23.4,34.9-35.1c0.6-0.6,1.3-1,2-1.5
	c4,9.8,0.6,16.7-7.2,23.6c-12.8,11.4-24.4,24.1-36.6,36.2c-1.2,1.2-2.4,2.2-4.3,4c-1.3-7.8-2.5-14.9-3.7-22.1
	c-1.4-8.5-2.8-17-4-25.6c-0.4-2.6-1.7-3-4-3.4c-14.4-2.2-28.9-4.6-43.3-7c-1-0.2-2.2,0.1-2.7-0.9c-0.6-1.2,0.6-1.8,1.3-2.4
	C11.2,444.1,13.4,440.8,16.8,438.9z"/>
<path style="fill:#012252;" d="M108.2,415c0-6.1-3-9.1-9.1-9.1c13.6-13.7,27.2-27.4,40.8-41.1c24.5-24.5,49-49,73.4-73.5
	c1.4-1.4,2.7-2.9,4-4.4c3.2,3.2,6.5,6.5,9.7,9.7c-1.6,1.5-3.2,2.9-4.8,4.4c-36.7,36.7-73.4,73.4-110.2,110.2
	C110.9,412.5,109.5,413.7,108.2,415z M405.2,118.1c-3.1-3.2-6.1-6.4-9.2-9.6c8.8-8.8,17.6-17.7,26.3-26.5c9.5,0.3,9.5,0.3,9.8,9.6
	C423.2,100.4,414.2,109.2,405.2,118.1z M376.8,147c-1,0.9-2.1,1.7-3,2.6c-44.9,44.8-89.7,89.7-134.5,134.5c-0.9,0.9-1.8,2-2.6,3
	c-3.2-3.2-6.5-6.5-9.7-9.7c1-0.9,2.1-1.7,3-2.6c44.9-44.8,89.7-89.7,134.6-134.6c0.9-0.9,1.8-2,2.6-3
	C370.7,140,373.9,143.3,376.8,147z"/>
</svg>
