<?xml version="1.0" encoding="utf-8"?>
<!-- Generator: Adobe Illustrator 23.0.3, SVG Export Plug-In . SVG Version: 6.00 Build 0)  -->
<svg version="1.0" id="Layer_1" xmlns="http://www.w3.org/2000/svg" xmlns:xlink="http://www.w3.org/1999/xlink" x="0px" y="0px"
	 viewBox="0 0 513.1 513.1" style="enable-background:new 0 0 513.1 513.1;" xml:space="preserve">
<path style="fill:#F9BD49;" d="M32.2,115.8c-1.9,0-3.8-0.2-5.7,0c-5.5,0.8-9.4-1.4-12.4-5.8c0-14.3,0-28.6,0-43
	c4-3.4,8.8-2,13.2-1.7c2.6,0.2,3,2.8,3,5.2c0.2,8.8,0.3,8.8,9.1,8.8c0.3,0,0.6,0,1,0c8.7,0,8.8,0,9.1-8.5c0.1-4.2,1.9-6.2,6.2-5.9
	c1.1,0.1,2.2,0,3.3,0c6.2,0,6.8,0.7,6.8,6.9c0,8.4-0.4,7.3,7.5,7.3c0.6,0,1.3,0,1.9,0c9,0.1,9.1,0.1,9.3-8.8
	c0.1-3.8,1.6-5.7,5.4-5.5c1,0.1,1.9,0,2.9,0c7.4,0,8.1,0.7,8,8.2c0,6.1,0,6.1,6.2,6c0.3,0,0.6,0,1,0c3.3-0.1,7.3,1,9.8-0.5
	c2.9-1.8,0.8-6.1,1.2-9.3c0.3-2.8,1.7-4.4,4.5-4.5c0.5,0,1,0,1.4,0c10-0.2,10.4,0.2,10.4,10.3c0,10.2,0.1,20.3-0.1,30.5
	c-0.1,6.6-3.5,9.9-10.1,9.9c-7.1,0.1-7.1,0.1-7.1,7c0,1.4-0.1,2.9-0.2,4.3c-2.1-0.5-2.1-2.3-2.1-3.8c0.1-6-1.6-6-7.1-6
	c-22.3,0-44.5,0-66.8,0c-1.6,0-3.2,0-4.8,0C35.3,117.2,33.6,117,32.2,115.8z M502.9,111.9c-3,2.4-6,4.1-10.2,3.9
	c-7.7-0.3-7.7-0.1-8.1,7.4c-0.3-0.1-0.9-0.1-0.9-0.2c-1.2-6.7-6.3-5.8-11-5.8c-22,0-44.1,0-66.1,0c-2.7,0-5.4,0.4-7.8-1.5
	c-14.7,0-16-1.3-16.1-16c0-9.5,0.1-19.1-0.1-28.6c-0.1-4.5,1.9-6.5,6.3-6.2c1.6,0.1,3.2,0,4.8,0c3.5-0.1,5.1,1.5,5.3,5.2
	c0.4,9.2,0.4,9.2,9.5,9.2c0.3,0,0.6,0,1,0c9.1-0.1,7.6,0.8,7.7-7.5c0.1-5.7,1.1-6.7,6.6-6.8c1.6,0,3.2,0,4.8,0
	c3.5-0.2,4.7,1.6,4.9,4.9c0.4,9.4,0.5,9.4,9.8,9.4c0.2,0,0.3,0,0.5,0c9.9-0.1,8.5,0.8,8.4-8.3c0-4.2,1.5-6.3,5.9-6
	c1.4,0.1,2.9,0.1,4.3,0c4.3-0.3,6.1,1.6,6.2,5.8c0.2,8.4,0.3,8.4,8.6,8.5c0.2,0,0.3,0,0.5,0c8.9,0.1,9,0.1,9.1-8.8
	c0.1-3.8,1.5-5.7,5.4-5.5c3.7,0.2,7.7-1,10.9,2C502.9,82,502.9,97,502.9,111.9z M190.5,470c-24.1,0-48.2,0-72.3,0
	c-2.2-2.8-1.6-6.1-1.6-9.2c0-65,0-130.1,0-195.1c0-6.8,0-13.7,0-20.5c0-2.2-0.2-4.5,1.6-6.3c7.2,0,14.3-0.1,21.5,0.1
	c3,0.1,4.5-0.5,4.7-4c0.3-4,0.2-7.9,0.3-11.9c0-3.5,1.5-5.3,5.2-5.3c4.9,0.1,9.9,0,14.8,0c3.6,0,5.2,1.7,5.2,5.2
	c-0.1,4.3,0.1,8.6,0,12.9c-0.1,2.2,0.8,3.1,3,3.1c6.2-0.1,12.4-0.1,18.6,0c2.7,0.1,3.1-1.3,3.1-3.5c-0.1-4.1,0-8.3-0.1-12.4
	c0-3.5,1.5-5.3,5.2-5.3c5.1,0.1,10.2,0.1,15.3,0c3.5-0.1,4.8,1.7,4.7,5c0,4.1,0.2,8.3,0.3,12.4c0.1,2.6,0.9,4,4,3.8
	c5.7-0.3,11.5-0.2,17.2,0c2.6,0.1,3.3-1,3.2-3.4c-0.1-3.5,0-7,0-10.5c0-6.3,0.3-6.6,6.5-7.4c0.6-0.1,1.2-0.4,1.8-0.7
	c3.1-0.7,6.1-1.1,9.1,0.6c8.2,0.4,8.4,0.7,8.4,9c-0.1,12.3-0.1,12.3,12.3,12.3c11.8,0,11.8,0,11.8-11.9c0-1.4-0.1-2.9,0-4.3
	c0.2-3.1,1.6-5,5.1-5c5.1,0.1,10.2,0.1,15.2,0c3.9-0.1,5.4,1.9,5.3,5.6c-0.1,4,0.1,7.9,0,11.9c-0.1,2.5,0.4,3.8,3.3,3.7
	c6.3-0.2,12.7-0.1,19.1,0c2.5,0,3.4-0.8,3.3-3.3c-0.1-4.3,0-8.6,0-12.9c0-3.3,1.5-5,4.9-5c5.1,0,10.2,0,15.2,0c3.3,0,5,1.5,5,4.9
	c0,4,0.2,8-0.1,11.9c-0.2,3.3,0.9,4.5,4.3,4.4c8.1-0.2,16.2-0.1,24.3-0.1c1.8,1.8,1.6,4.1,1.6,6.3c0,72.8,0,145.6,0,218.4
	c0,2.2,0.1,4.5-1.5,6.3c-25.1,0-50.2,0-75.3,0c-1.9-2-1.4-4.5-1.4-6.8c0-22.1-0.5-44.2,0.1-66.3c0.7-26.6-17.1-50.7-39.9-60.4
	c-39-16.7-82.7,7.1-89.6,49c-1.1,6.5-1,13.2-0.9,19.9c0.1,10.5,0.1,20.9,0,31.4c-0.1,8.2-0.1,16.5,0,24.7
	C191.8,464.3,192.9,467.4,190.5,470z"/>
<path style="fill:#B55502;" d="M398.8,469.9c0-77,0-154,0-231c0-41-0.1-82.1-0.1-123.1c26.3,0,52.7,0.1,79-0.1c4.6,0,7,0.9,6.1,5.9
	c-0.1,0.5,0.4,1.1,0.7,1.7c0.1,26.4,0.2,52.8,0.2,79.2c0,87.3-0.1,174.7,0.1,262c0,4.7-1.2,5.7-5.8,5.7c-25-0.2-49.9,0-74.9,0
	C402.3,470.1,400.6,470,398.8,469.9z M118.2,238.9c0,77,0,154,0,231.1c-27.5,0-55,0-82.5,0.1c-3.9,0-3.4-2.4-3.4-4.7
	c0-20.5,0-41,0-61.5c0-96-0.1-192.1-0.1-288.1c26.6,0,53.3,0.1,79.9-0.1c4.4,0,5.5,1.5,5.2,5.5c-0.2,2-0.7,4.1,0.6,6
	c0.1,26.8,0.1,53.6,0.2,80.4C118.1,218,118.1,228.4,118.2,238.9z"/>
<path style="fill:#9F1414;" d="M277.5,183.6c0.3-7-1.4-6.8,7-6.8c8.2,0,8.3-0.1,8.3-8.2c0-9.5,0.1-19-0.1-28.5
	c-0.1-3.2,0.8-4.5,4.3-4.4c5.4,0.2,10.8,0,16.1-0.1c2.9,1.2,2.9,3.3,1.9,5.8c-2.2,5.4-4.3,10.9-6.6,16.3c-0.9,2.1-0.8,3.8,0,5.9
	c2.2,5.1,4.2,10.2,6.2,15.4c2.1,5.3,0.9,7.2-4.5,7.2c-9.2,0.1-18.4,0-27.6,0C280.5,186.2,278.5,185.9,277.5,183.6z"/>
<path style="fill:#CDDDE6;" d="M261.6,126.1c-0.4,17-0.4,33.9,0,50.9c-0.1,13.6-0.1,27.1-0.2,40.7c-3,0-6.1,0.8-9.1-0.6
	c0-30.8,0-61.5,0-92.3c0-1,0-1.9,0-2.9c0-3,1.3-5.1,4.4-5c2.8,0.1,4.8,1.6,4.6,4.9C261.4,123.2,261.6,124.6,261.6,126.1z"/>
<path style="fill:#DE3C44;" d="M261.6,126.1c8.4,0,16.8,0.1,25.3,0c4-0.1,6.6,1,6.1,5.6c-0.4,2.9,1.2,3.3,3.7,3.4
	c5.5,0.1,11.1-0.8,16.5,0.6c-1.4,1.7-3.4,1.5-5.3,1.6c-2.9,0.1-5.7,0.2-8.6,0c-3.7-0.2-5.1,1.5-5,5.1c0.1,8.9,0.1,17.8,0,26.7
	c-0.1,7.2-1.8,9.3-9,9.1c-4.4-0.1-6.2,2.2-7.8,5.4c-2-1.8,0.6-5.4-1.8-6.3c-2.5-1-5.6-0.4-8.4-0.4c-1.9,0-3.8,0-5.7,0.1
	c-2.1-1.6-1.8-3.9-1.8-6.1c-0.1-12.9-0.1-25.8,0-38.6C259.8,130,259.5,127.7,261.6,126.1z M190.5,470c0-21.1,0.2-42.2-0.1-63.3
	c-0.2-12.6,0.1-25,5.1-36.9c17.8-42.3,74.2-53.8,107-21.7c13.9,13.6,21.3,29.7,21.1,49.3c-0.2,24.2-0.1,48.3-0.1,72.5
	c-23.7,0.1-47.4,0.2-71,0.2C231.8,470.2,211.1,470,190.5,470z"/>
<path style="fill:#FCF159;" d="M75,192c-5.3,0-10.7,0.1-16,0c-5-0.1-7.5-2.2-7.6-6.6c-0.1-4.6,2.9-7.1,6.7-7.2
	c11.5-0.4,23-0.3,34.4-0.1c4,0.1,6.2,3.1,6.4,7c0.2,3.9-3.2,6.8-7.5,6.9C86,192,80.5,192,75,192z M74.8,155c-5.2,0-10.3,0-15.5,0
	c-4.6,0-8-3-8-6.9c-0.1-4,3.2-7.1,7.9-7.1c10.5-0.1,20.9-0.1,31.4,0c5.2,0,8.5,2.9,8.4,7.1c-0.1,4-3.3,6.8-8.2,6.8
	C85.5,155.1,80.2,155,74.8,155z M74.8,228.9c-5.2,0-10.3,0-15.5,0c-4.6,0-8-3-8-6.9c-0.1-4,3.2-7.1,7.9-7.1
	c10.5-0.1,20.9-0.1,31.4,0c5.2,0,8.5,2.9,8.4,7.1c-0.1,4-3.3,6.8-8.2,6.8C85.5,229,80.2,228.9,74.8,228.9z M443.6,192
	c-5.3,0-10.7,0.1-16,0c-5-0.1-7.5-2.2-7.6-6.6c-0.1-4.6,2.9-7.1,6.7-7.2c11.5-0.4,23-0.3,34.4-0.1c4,0.1,6.2,3.1,6.4,7
	c0.2,3.9-3.2,6.8-7.5,6.9C454.6,192,449.1,192,443.6,192z M443.4,155c-5.2,0-10.3,0-15.5,0c-4.6,0-8-3-8-6.9c-0.1-4,3.2-7.1,7.9-7.1
	c10.5-0.1,20.9-0.1,31.4,0c5.2,0,8.5,2.9,8.4,7.1c-0.1,4-3.3,6.8-8.2,6.8C454.1,155.1,448.8,155,443.4,155z M443.4,228.9
	c-5.2,0-10.3,0-15.5,0c-4.6,0-8-3-8-6.9c-0.1-4,3.2-7.1,7.9-7.1c10.5-0.1,20.9-0.1,31.4,0c5.2,0,8.5,2.9,8.4,7.1
	c-0.1,4-3.3,6.8-8.2,6.8C454.1,229,448.8,228.9,443.4,228.9z"/>
</svg>
