<?xml version="1.0" encoding="utf-8"?>
<!-- Generator: Adobe Illustrator 23.0.3, SVG Export Plug-In . SVG Version: 6.00 Build 0)  -->
<svg version="1.0" id="Layer_1" xmlns="http://www.w3.org/2000/svg" xmlns:xlink="http://www.w3.org/1999/xlink" x="0px" y="0px"
	 viewBox="0 0 513.1 513.1" style="enable-background:new 0 0 513.1 513.1;" xml:space="preserve">
<path style="fill:#02357E;" d="M200.9,120.9c-21.2,0-42.5,0-63.7,0C137.1,90,137.1,59,137,28.1c0-2.3,0.7-3.2,3.1-3.1
	c19.3,0.1,38.6,0.1,57.9,0c2.4,0,3.1,0.8,3.1,3.2C200.9,59.1,200.9,90,200.9,120.9z M376.9,120.9c-21.2,0-42.5,0-63.7,0
	C313.1,90,313.1,59,313,28.1c0-2.4,0.7-3.2,3.1-3.1c19.3,0.1,38.6,0.1,57.9,0c2.4,0,3.1,0.8,3.1,3.1
	C376.9,59.1,376.9,90,376.9,120.9z"/>
<path d="M289.2,395.3c0-5.8,0-11.7,0-17.5c1.1-2.1,3.1-2.9,5-4c27.2-15.4,40.6-39.2,41.3-70.1c0.5-22.1,0.1-44.3,0.1-66.5
	c0-3.8,0-7.6,0.6-11.4c5.6-5.4,11.2-10.8,16.8-16.2c0,34.4,1.3,69-0.3,103.3c-1.5,30.8-17.4,54.9-43,72.3
	C303.4,389.6,296.7,393.4,289.2,395.3z M224.9,378c0,5.7,0,11.5,0,17.2c-35.9-13.7-56.6-39.8-63-77.6c-0.9-5.5-0.9-10.9-0.9-16.4
	c0-30.5,0.1-60.9,0.1-91.4c6.1,4.5,11,10.2,16,16c1.4,2.6,1.3,5.4,1.3,8.3c0,23-0.1,46,0,69c0.2,31.7,14.4,55.4,41.7,71.4
	C221.8,375.4,223.7,376.3,224.9,378z"/>
<path style="fill:#45DB53;" d="M425.7,409c12.9,0.2,23.5,11.3,23.3,24.4c-0.2,13.2-11.3,23.8-24.7,23.6
	c-13.1-0.3-23.7-11.5-23.3-24.9C401.4,419.2,412.5,408.8,425.7,409z"/>
<path style="fill:#E90027;" d="M385,464.8c0.1,13.3-10.8,24.2-24.1,24.1c-13.1,0-23.9-10.8-23.9-23.8c-0.1-13.3,10.8-24.2,24.1-24.2
	C374.2,441,384.9,451.8,385,464.8z"/>
<path style="fill:#012252;" d="M225.1,457c21.2,0,42.5,0,63.7,0c0.1,9.5,0,19,0.2,28.5c0.1,3-1.1,3.6-3.8,3.6
	c-18.8-0.1-37.6-0.1-56.5,0c-2.7,0-3.9-0.6-3.8-3.6C225.1,476,225.1,466.5,225.1,457z M137.1,145c11.8,0,23.6,0.1,35.4-0.1
	c3.5-0.1,4.5,1.2,4.5,4.6c0,11.5,0.2,11.5-11.5,11.5c-9.5,0-19,0-28.4,0C137.2,155.7,137.2,150.3,137.1,145z M289,273
	c0,10.7-0.1,21.3-0.1,32c-1.9,1.8-4.3,1.6-6.6,1.6c-16.8,0-33.6,0-50.5,0c-2.3,0-4.7,0.2-6.6-1.6c0-10.7-0.1-21.4-0.1-32
	C246.3,273,267.7,273,289,273z M353,153.2c-0.1,8.3,1.1,7.8-6.6,7.8c-10.5-0.1-9.4,1.4-9.4-6.9c0-10.4-1.4-9,8.3-9
	C354.2,145,352.9,144,353,153.2z M288.8,337c0,10.7,0,21.4,0,32c-21.2,0-42.5,0-63.7,0c0-10.7,0-21.4,0-32c1.9-1.8,4.3-1.6,6.6-1.6
	c16.8,0,33.6,0,50.5,0C284.5,335.4,287,335.2,288.8,337z"/>
<path style="fill:#F2E46C;" d="M185,73c0,9-7.3,16.1-16.2,16C160,88.9,153,81.8,153,73c0-9,7.3-16.1,16.2-16
	C177.9,57.1,185,64.2,185,73z M345,89c-8.8,0-15.9-7.1-15.9-15.8c-0.1-9,7-16.2,16-16.2c8.9,0,16.1,7.3,16,16.3
	C360.9,82,353.7,89,345,89z"/>
<path style="fill:#1480E3;" d="M137.1,145c0-8,0-16,0-24c1.9-1.8,4.3-1.5,6.6-1.5c16.8,0,33.6,0,50.5,0c2.3,0,4.7-0.2,6.6,1.5
	c0,14.6,0.2,29.3,0.1,43.9c0,2.9,0.9,4.9,2.9,6.9c16.7,16.5,33.3,33.1,49.8,49.8c2.6,2.6,4,2.7,6.7,0c16.6-16.8,33.3-33.5,50.1-50.1
	c2-1.9,2.6-3.9,2.6-6.6c-0.1-14.6,0.1-29.3,0.1-43.9c1.9-1.8,4.3-1.5,6.6-1.5c16.8,0,33.6,0,50.5,0c2.3,0,4.7-0.2,6.6,1.5
	c0.1,20.5,0.1,41,0.2,61.5c0,2.5-1.3,4-2.8,5.5c-7.1,7.2-14.2,14.5-21.3,21.8c-4,7-10.6,11.6-16.1,17.3
	c-14.4,15.1-29.4,29.6-44.2,44.4c-1.6,1.6-3.3,2.7-5.6,2.9c-20,0.4-40.1,0.3-60.1,0c-2.2-0.2-4.1-1.3-5.6-2.9
	c-15-15-30.2-29.8-44.9-45.1c-4.2-4.2-8-8.7-12.3-12.8c-1.2-1.2-2.5-2.2-3-3.8c-7.2-7.3-14.3-14.7-21.5-21.9
	c-1.9-1.9-2.8-3.8-2.7-6.5c0.2-6.8,0.2-13.5,0.2-20.3c1.9-1.8,4.3-1.5,6.6-1.6c8.6-0.1,17.2,0,25.9-0.1c5.4-0.1,5.9-0.7,5.8-6.7
	c0-5.5-0.5-6.1-5.8-6.2c-8.6-0.1-17.2,0-25.9-0.1C141.4,146.5,139,146.8,137.1,145z M225.1,457c-0.1-20.6-0.2-41.2-0.3-61.8
	c-2.7-5.5-1-11.4-1.3-17.1c0.1-3.2-0.8-6.6,1.4-9.5c2.1-1.4,4.4-1.2,6.8-1.2c16.8,0,33.6,0,50.4,0c2.3,0,4.7-0.2,6.8,1.1
	c2.5,2.8,1.4,6.3,1.6,9.5c-0.3,5.8,1.3,11.7-1.3,17.3c-0.1,18.4-0.1,36.8-0.2,55.2c0,2.2-0.1,4.3-0.2,6.5c-1.9,1.8-4.3,1.6-6.6,1.6
	c-16.8,0-33.7,0-50.5,0C229.4,458.6,227,458.8,225.1,457z M288.8,337c-21.2,0-42.5,0-63.7,0c0-10.7,0-21.3,0-32
	c21.2,0,42.5,0,63.7,0C288.8,315.7,288.8,326.3,288.8,337z"/>
</svg>
