<?xml version="1.0" encoding="utf-8"?>
<!-- Generator: Adobe Illustrator 23.0.3, SVG Export Plug-In . SVG Version: 6.00 Build 0)  -->
<svg version="1.0" id="Layer_1" xmlns="http://www.w3.org/2000/svg" xmlns:xlink="http://www.w3.org/1999/xlink" x="0px" y="0px"
	 viewBox="0 0 504.1 513.1" style="enable-background:new 0 0 504.1 513.1;" xml:space="preserve">
<path style="fill:#CCD6DD;" d="M252.1,281c13.9-12.9,26.8-26.8,39.5-40.9c11.1-12.2,21.6-24.8,31.5-37.9
	c17-22.6,32.9-45.9,46.2-70.9c5.1-9.6,9.9-19.2,14.2-29.1c0.9-2.2,2.2-3,4.2-3.7c29.2-9.6,51.8-28.4,72.1-50.7
	c12.4-13.5,23-28.3,33.3-43.4c0.3-0.4,0.7-0.6,1.2-0.9c2.1,3.5,1.8,7.2,1.4,10.7c-1.5,11.2-0.2,22.6-1.7,33.8
	c-1.9,14.3-3.5,28.6-6.5,42.7c-3.9,18.7-9.7,36.9-16.8,54.6c-2,4.9-5.4,7.3-10.2,8.5c-9.7,2.5-19.6,3.7-29.6,3.1
	c-4.1-0.3-5.3,0.7-3.7,4.9c3,7.7,5,15.8,7.1,23.8c0.9,3.4,0.4,5.8-2.1,8.6c-15,16.6-30.9,32.3-47,47.6c-23.3,22-46.4,44.3-73.5,61.8
	c-5.3,3.4-10.9,6.4-16.3,9.6c-2.2,1.3-4.9,2.2-6.4,4.6c-9,6.5-18.6,12.2-27.6,18.8c-2.6,1.9-5,4.5-8.4,5.2
	c-7.8,3.9-14.1,9.8-20.9,15.1c-12.9,9.9-25.2,20.5-37.1,31.6c-1.3,1.2-3,2.2-3.1,4.3c-1.2,0.8-2.3,0.2-3.3-0.4
	c-9.2-5.4-16.8-12.4-22.4-21.5c-0.7-1.1-1.3-2.4-0.5-3.7c14-13.8,27.9-27.6,41.9-41.4c2.1-2.1,4.2-4.3,6.4-6.3c1-1,2-1.9,0.8-3.3
	c11-11.4,22.3-22.4,33.4-33.5C249.3,281.6,250.3,280.2,252.1,281z"/>
<path style="fill:#BF6952;" d="M339.1,367.2c4.6-6.7,7-14.3,8.8-22.1c2.2-9.8,10.8-15.5,20.5-13.4s15.3,10.8,13.4,20.6
	c-2.7,13.2-7.6,25.5-15,36.7c-0.8,1.2-1.9,2.4-1.9,4c-4.2,8.2-11.5,13.6-17.9,19.8c-1.9,1.8-3.8,3.7-6,5.2c-2.1-1.4-3.4,0.5-4.8,1.4
	c-10.7,6.5-22.1,11.5-34.5,13.9c-9.8,1.9-19.7-3.5-21.6-12.1c-2.2-10.3,3.3-18.9,13.6-21.4c7.1-1.7,14.1-3.6,20.3-7.8
	c0.4-1,1.2-1.6,2.1-2.1c8.7-5.1,15.5-12.2,21-20.7C337.5,368.4,338.2,367.7,339.1,367.2z M165.8,367.2c5.8,11.5,14.8,19.7,26.2,25.6
	c6.1,3.6,12.8,5.4,19.6,7c10,2.4,15.6,11.2,13.3,21c-2.1,9.1-11.6,14.5-21.3,12.6c-14.1-2.9-26.9-8.5-38.7-16.5
	c-0.8-0.3-1.7-0.1-2.4-0.7c-8.6-6.6-16.8-13.7-22.3-23.2c-1-4-4-6.8-5.9-10.3c-5.1-9.6-8.9-19.7-11-30.3
	c-2.1-10.1,3.6-18.5,13.8-20.7c9.2-2,17.9,3.7,20,13.4C158.9,352.9,161.3,360.5,165.8,367.2z"/>
<path style="fill:#9AAAB4;" d="M252.1,281c-11.3,9.9-21.3,21.1-32.1,31.5c-1.5,1.5-2.7,3.5-5.1,3.6c-17.8-8.8-33.9-20.2-49.2-32.9
	c-30.4-25.2-58.4-53-86.1-81.2c-2.8-2.8-5.3-6-8.1-8.8c-2.2-2.2-1.7-4.6-1-7c2.2-8,4.2-16.1,7-23.9c1.8-4.9,0.4-5.5-4-5.4
	c-9.8,0.4-19.6-0.7-29.1-3.1c-5.4-1.3-8.4-4.7-10.7-10c-10.4-24.5-16.5-50.1-20.4-76.3C11.3,53.9,9.6,40,9.9,26
	c0.1-7.4-1.7-14.9,0.6-23c4.3,6.2,8.4,12.2,12.6,18c15.3,21.1,32.6,40.3,53.5,56.1c12.1,9.2,25.2,16.8,39.9,21.1
	c2.8,0.8,4.3,2.4,5.5,5.1c9.2,21.8,21,42.2,33.9,62.1c12,18.6,25.1,36.4,39.1,53.5c9.4,11.5,19.1,22.6,29.5,33.2
	C233.8,261.7,242.9,271.4,252.1,281z M339.1,367.2c-5.6,11-13.9,19.5-25.2,24.8c-19.2-18-39.8-34.4-60.8-50.2
	c11.5-8.8,22.7-17.9,36-24c14.6,14.5,29.2,29,43.8,43.5C335,363.4,337.1,365.3,339.1,367.2z"/>
<path style="fill:#642116;" d="M140.2,393.1c3.5,3.7,6.9,7.4,10.4,11.1c4.4,4.7,9.1,8.9,14.3,12.7c-0.7,0.9-1.3,1.9-2.1,2.7
	c-18.6,18.5-37.2,37-55.7,55.5c-2.4,1.2-3-0.7-3.4-2.3c-2.6-10.1-9.2-16.2-19.1-18.9c-1.1-0.3-2.2-0.8-2.8-1.9
	c9.9-10.1,19.8-20.2,29.8-30.2C121.1,412.2,130.7,402.6,140.2,393.1z M340.9,418.1c0-1.4,0.8-2.5,1.8-3.3c7.6-6,14.3-13,20.5-20.5
	c0.4-0.5,1-0.8,1.5-1.2c18.4,18.4,36.7,36.8,55.1,55.2c1.2,1.2,2.2,2.5,3.3,3.7c-1.1,1.8-3,2-4.7,2.5c-8.4,2.8-14.2,8.2-16.8,16.9
	c-0.5,1.7-0.2,4.9-3.8,3.7C378.9,456.1,359.9,437.1,340.9,418.1z"/>
<path style="fill:#FCAB40;" d="M81.8,452c12.1,2.4,20.6,8.7,23.2,21.4c0.2,1.2,1,1.6,2.1,1.8c-1.5,1.7-1.9,3.7-2.1,5.9
	c-0.9,13.3-12.3,23.5-26.3,23.6c-12.9,0.2-24.9-11.6-25.6-25.2c-0.7-12.8,9.4-24.8,22.2-26.5C77.5,452.6,79.7,452.3,81.8,452z
	 M397.9,475c1.1-0.1,1.8-0.6,2-1.8c2.6-12.7,11.2-18.9,23.2-21.3c8.3,0.6,16,2.6,21.9,9.2c7.6,8.6,8.9,21,2.8,31
	c-5.7,9.4-17.5,14.2-28.7,11.6c-10.4-2.4-18.8-12.4-19.3-23.4C399.8,478.4,399.2,476.6,397.9,475z"/>
</svg>
