<?xml version="1.0" encoding="utf-8"?>
<!-- Generator: Adobe Illustrator 23.0.3, SVG Export Plug-In . SVG Version: 6.00 Build 0)  -->
<svg version="1.0" id="Layer_1" xmlns="http://www.w3.org/2000/svg" xmlns:xlink="http://www.w3.org/1999/xlink" x="0px" y="0px"
	 viewBox="0 0 488.2 378.7" style="enable-background:new 0 0 488.2 378.7;" xml:space="preserve">
<path style="fill:#FED502;" d="M251,84.7c16.2,13.8,22.8,31.4,20.6,52.3c-0.6,5.8,2.9,9.1,5.7,12.9c1.5,2,3.6,1.2,5.1-0.5
	c2.1-2.4,4.1-4.9,6.3-7.3c2-2.2,0.2-4-0.4-5.9c-1.7-5.3-1.1-8.4,3.7-14.1c-1,6.6-1.5,12.3,3,17c2.1-1.8,3.2-4.2,4.3-6.5
	c1.9-3.9,5.5-5.5,8.8-7.6c1.5-1,2.6-0.3,3.7,0.7c1.9,1.7,3.8,3.3,5.8,5.1c-2.6,1.7-3.7,0.4-4.6-0.4c-3.6-3.3-6.1-0.6-7.8,1.8
	c-1.6,2.4-2.3,5.6-3,8.6c-0.6,2.5,1.4,1.7,2.6,1.5c3.6-0.7,6.7-0.8,9.6,2.4c4.1,4.4,4.2,5.4-1,9.4c-1.4-8.6-1.4-8.6-9.9-5
	c-3,1.3-5.9,2.3-9.2,0.5c-2.3-1.2-4,0.1-5.4,2c-3.2,4.3-6.6,8.4-9.9,12.6c-1.8,1-3.6,0.7-5.3,0c-7.1-3.1-7.1-3.1-11.5,3.6
	c-0.8,1.1-1.6,2.2-2.4,3.3c-3.1,4.2-3.2,4.2,2.1,6.1c1.5,0.9,3.5,0.9,4.2,2.8c16.4,7.7,28.8,19.3,35.5,36.4
	c1.5,3.8,2.7,7.8,3.3,11.9c2.5,5.9,1.4,12,0.9,18c-0.8,10.9-3.8,21.3-8.3,31.2c-8.2,12.9-18.2,23.8-32.3,30.3
	c-21.6,10-43.4,11.3-64.9,0c-15.6-8.2-26.4-21-32.4-37.7c-0.9-2.6-1.8-5.2-2.6-7.8c-2.4-10.5-4.2-20.9-2.4-31.8
	c2.4-14.8,8.7-27.7,18.5-38.8c4.8-5.5,9.9-10.8,16-15.1c1.8-1.2,3.6-2.4,5.6-3.1c6.2-2.9,11.2-7.5,16.6-11.5
	c0.4-0.8,0.7-1.8,1.4-2.3c7.3-5.2,12.1-12.4,15.9-20.3c2.7-7.7,1.9-15.1-1.6-22.3c2.4-0.6,2.4-2.2,2-4.2c-0.7-3.7-1.8-7.4-2.3-11.2
	c-0.6-4.8,0.8-6.1,5.6-5.3c2.4,0.4,4.7,1.2,7.6,1.3c-1.3-3.2-3.4-5.5-4.9-8.1c-0.7-1.3-2-2.6-1.2-4.2c0.9-1.8,2.8-1.6,4.4-1.6
	C248.2,83.6,249.8,83.5,251,84.7z M318.6,242.8c8.7,13.9,13,28.9,10.9,45.4c-1.5,0.5-2.6-0.4-3.9-1c-6.1-2.8-12-2.5-17.3,1.7
	c-5.1,4.1-6.9,9.7-5.4,16c0.7,3.2,0.3,5-3.4,5.2c-5.2,0.4-8,3.7-8.8,8.5c-0.5,3.1-1.9,5.2-4.2,7.3c-6,5.2-6,11.4-0.5,17.1
	c1.4,1.5,4.3,2.6,2.2,5.5c-39,23.9-101.2,18.4-134.1-15.8c-5.4-2.8-8.5-7.8-11.6-12.7c-12.8-19.8-16.2-41.3-11.5-64.2
	c4.7-17.4,10.5-34.3,21.4-49c1.1-1.5,1.8-4.5,4.9-3.2c0.3,4.1-2,7.6-2.7,11.5c-2.4,13.6-0.4,26.8,3.4,39.9c1.8,6,3.8,12,6.6,17.6
	c0.4,10.6,2.8,20.5,9.1,29.3c7.7,10.8,17.9,18,30.4,21.8c21.5,6.5,42.9,6.9,63.3-4c14.3-7.6,24.5-18.7,27.1-35.4
	c0.2-1.1,0.5-2.1,1.3-2.9c9.1-10.3,13.1-22.6,14.1-36c0.2-2.9-0.2-5.8,0.2-8.7c0.4-2.6,1.8-3.2,3.6-1.2
	C315.8,237.8,318.2,239.6,318.6,242.8z M126.7,170.7c20.5-3.7,41.1-3.1,61.6,0.2c-0.8,1.4-2.3,1.5-3.5,1.8
	c-15.6,4.4-27.7,13.6-36.8,26.9c-0.9,1.2-1.6,2.6-3,3.4c-5.5,1.2-11.2,1.7-16.6,3.3c-24.4,6.9-34,32.9-24.3,54.5
	c3.6,8,8.7,14.7,15.7,20c2.1,1.7,3.1,4,3.6,6.7c2.7,14.2,8.1,27.1,17,38.5c0.8,1,2,2.1,1,3.6c-11.5-3.1-22.3-7.8-32.6-14
	c-1.3-0.8-2.7-1.4-4-2.1c-4.4-1.7-8-4.6-10.9-8.4c-3.8-4.2-7.8-8.2-11.3-12.6c-20.7-26.2-22.9-59.5-6-88.5c0.3-0.5,0.5-1.1,0.8-1.6
	c1.4-4.9,5.1-8.1,8.4-11.6c1.4-1.3,2.7-2.8,4.2-4.1c9.2-7.4,19.5-12.7,31-15.7C122.9,170.4,124.8,170.2,126.7,170.7z M374.6,213.9
	c20.3,1.7,39.5,7.3,58.2,15.1c0.8,0.4,1.7,0.7,2.6,1c2.2,0.8,3.4,2.2,2.6,4.6c-0.8,2.3-2.9,2-4.7,1.5c-6.2-1.7-12.3-3.5-18.4-5.4
	c-11.3-3.6-23-4.8-34.8-5.1c-1.2,0-2.5-0.3-3.5,0.6c-20.9,0.3-40.7,4.1-58,16.7c-2.2-2.5-4.3-5-7.2-8.4c0,2.8,0,4.8,0,6.8
	c0.3,14-4,26.6-11.8,38c-0.9,1.3-1.6,2.6-3.2,3.1c-1.2-1.5-0.7-2.9,0-4.4c2-7.2,5.2-13.9,6.7-21.3c1.9-9.5,2-19,1.9-28.6
	c3.7,0,6.7-1.9,9.9-3.3C333.9,216.4,353.7,212,374.6,213.9z M145.1,202c10.1-16.3,24.1-27.2,43.2-31.1c4.9,0.8,9.8,1.6,14.8,2.4
	c-6.4,5.4-13,10.5-18.7,16.7c-14.1,15.3-21.8,33-20.8,54c0.3,5.9,1.7,11.7,2.6,17.6c-0.2,4,0.9,8.2-2.3,11.6
	c-5-8.7-7.5-18.2-9.6-27.9c-3-14.2-2.9-28.4,2.6-42.1c-2.4-0.6-4.7-0.3-7.1,0C148.2,203.3,146.3,204,145.1,202z M215.8,62.7
	c1.2,3.3-2,4.5-3.4,6.5c-2.8,4-2.8,4.3,1.9,5.5c1.4,0.4,3.4,0.3,3.8,1.9c0.4,1.6-1.7,1.9-2.7,2.7c-2.7,2.1-1.8,3.2,0.8,4.4
	c1.3,0.6,3.4,0.7,3.1,2.7c-0.3,1.7-2.2,1.8-3.7,2.1c-2.8,0.6-5.6,1.2-8.4,1.8c-2.4,0.5-2.6,1.9-1.4,3.7c1.2,1.8,2.4,3.5,3.8,5.1
	c2.2,2.5,1.6,3.3-1.5,4.1c-3.9,1-8.2,0.3-11.5,3.4c-4.2,1.1-8.4,2.1-12.7,1.4c-1.2-5.2,1.2-9.9,2.1-14.8c1.8-9.3-3.6-18.1-12.8-20.2
	c-2.2-0.5-4.5-0.7-6.8-1.1c-2.1-2.2-5.6-2.5-7.4-5.3c2.9,0,5.7-0.2,8.6,0c4.1,0.4,7.4-0.8,10-3.9c1.5-3.3,4.3-3,7-2.2
	c4.4,1.3,8.5,2,12-2.2c1.2-1.4,3.3-1.3,5.2-1.3c5.3,1,5.4,1.1,4.4,5.7c-0.3,1.2-0.3,2.1,0.8,2.7c1.3,0.7,2.6,0.5,3.9-0.1
	C212.5,64.5,213.4,62.2,215.8,62.7z M166.2,74.7c9.8,0,14.9,3.7,17.3,12.6c-6.5-1-13.1-0.4-19.6-0.8c-1.8-0.1-2.3,0.8-2.5,2.4
	c-0.3,1.7-0.9,3.4-2.3,5.1c-0.5-1.6-1.2-3.3-1.4-4.9c-0.5-3.4-2.5-4.7-5.6-4.6c-3,0.1-1.7,2.9-2.4,4.5c-0.4,0.9-0.2,2.1-2,3.6
	c-0.1-6.7-6.6-11.6-2.7-18.5c0.6-0.2,1.2-0.3,1.8-0.1c3.8,1.6,7.4,1.3,10.8-1.2c1.6-1.1,3.5-1.3,4.9,0.5s0.4,3.1-1.8,4.2
	C163.8,77.9,164.1,74.9,166.2,74.7z M182.7,92.9c0.2,5.5-2.7,10.5-2,16.1c-7.5,2.4-15,4.2-22.6-0.3c-2.9-1.7-3.7-3.8-2.2-6.3
	c1-1.7,0.9-3.4,1.7-5.3c2.3,0.6,1.8,3.4,3.6,4.2c1.3-0.9-0.1-2.7,1.6-3.8c2.1,5.9,5.7,3.5,9.2,1.5C175.6,97,179.1,95,182.7,92.9z"/>
<path style="fill:#8E0D09;" d="M374.6,213.9c2.3-4.3,4.6-8.6,6.9-12.9c0.5-0.9,0.8-2.2,2.1-2c1.3,0.2,1.2,1.6,1.5,2.6
	c0.6,2.4,1.1,4.7,1.8,7.8c5.4-4,10.4-7.8,15.6-11.5c1.1-0.8,2.1-2.3,3.5-1.8c1.8,0.7,0.8,2.7,1.2,4c0.4,1.6-0.1,3.4,0.9,5.1
	c6.4-2,12.8-4,19.2-6c1.4-0.5,3-1.2,4.4,0c1.6,1.3,0.4,2.8,0.1,4.2c-0.7,2.6-1.4,5.2-2.3,8.3c7.9-1.4,15.2-1.7,22.5,0.8
	c1.5,0.5,3.8,0.5,3.5,2.8c-0.3,1.9-2.4,1.6-3.8,1.8c-9.2,1.8-9.8,3.3-4.2,10.7c4.7,6.2,10.5,11,18,13.5c1.2,0.4,3.1,0.4,2.8,2.4
	c-0.2,1.7-1.9,1.7-3.2,2.1c-8.7,2.5-17.6,3.6-26.7,3.3c0.2,2,1.6,2.8,2.4,4s2.4,2.2,1,3.9c-1.1,1.4-2.6,0.7-3.8,0.3
	c-8-2.7-15.6-6.1-22.5-11.1c-0.7-0.5-1.4-1.1-2.1-1.6c-0.4,0.3-0.8,0.4-0.9,0.6c-0.9,2.2,0,5.6-2.8,6.3c-2.7,0.7-3.8-2.6-5.4-4.3
	c-4.8-5.1-9.4-10.4-14.1-15.6c-0.4,0.2-0.8,0.3-0.8,0.5c-0.5,2,0.5,5.1-1.7,5.8c-2.6,0.9-3.4-2.5-4.9-4c-2.3-2.4-4.3-5.2-6.4-7.8
	c1.3-3.1,4.1-1.9,6.3-1.9c16.2,0.3,31.6,4.6,46.9,9.4c0.7,0.2,1.4,0.5,2.2,0.7c1.4,0.2,3.4,1.2,3.9-0.9c0.5-1.9-1.5-2.4-2.9-3
	c-17.4-7.2-35.3-12.8-54.1-14.9C377.4,215.4,375.5,215.9,374.6,213.9z M215.8,62.7c-1.3,1.2-2.6,2.5-4,3.7c-2.4,1.9-4.7,0.9-6.7-0.6
	c-2.5-1.8,0-2.9,0.7-4.4c1.8-4.1-2.6-2.1-3.6-3.3c-4.2-1.5-2.3-3.4-0.4-5.4c2.2-4.6,5-8.8,9.3-11.7c2.8-1.9,2.9-4.9,3.8-7.5
	c1.1-3.5,1.9-7.1,3-10.5c0.3-1,0.3-2.8,2.1-2.3c1.4,0.4,0.9,1.7,0.7,2.7c-0.4,3.2-0.8,6.3-1.3,10.7c4.5-3.6,8.4-6.7,12.2-9.8
	c3.1-2.5,6.2-5,9.3-7.5c0.9-0.7,1.9-2.1,3.1-0.8c1.2,1.4-0.4,2.2-1.2,2.9c-8.3,7.9-16.7,15.7-25,23.6c-2.9,2.7-5.8,5.4-7.2,9.3
	c0.6,1.2-0.3,2.2-0.5,3.8c1.8-1.6,3.2-3,5.1-3.7c4.5-4,9.6-7,15.6-8.3c2.7-0.6,4-2.6,5.7-4.4c2.5-2.5,4.8-5.2,7.3-7.6
	c1-1,2-3.3,3.4-2.2c1.7,1.4-0.7,2.8-1.4,4.1c-1.2,2.1-2.6,4-4.6,7c8.1-2.4,15.3-4.5,22.4-6.6c1.2-0.3,2.3-0.7,3.5-1
	c0.9-0.2,1.5,0.1,1.8,0.9c0.3,1-0.4,1.4-1.1,1.7c-1.3,0.6-2.5,1.1-3.8,1.6c-11.4,4.7-23.2,8.3-34.4,13.7
	C223.3,52.9,220.2,58.5,215.8,62.7z M141.3,329.6c-7-9.3-13-19.1-16.3-30.4c-1.1-3.8-2.2-7.6-2.8-11.5c-0.4-2.4-1.1-4.4-2.9-6
	c0.2-1.2,1.2-1.2,2-1.4c4.7-1.3,4.5-1.3,3.4-6.3s-3.2-8.3-8.7-9c-4.1-0.5-5.7-4.3-7.6-7.4c-0.5-0.8-0.7-1.7,0.1-2.5
	c0.9-1,1.9-0.6,2.9-0.2c2.2,1,3.7,3.3,6.2,3.8c1.6,0.3,3.5,1.5,4.7,0.1c1-1.3-0.5-2.9-1.3-4.1c-2.2-3.3-3.3-6.7-2.3-10.8
	c1.2-4.9,4.4-7.6,9.4-7.1c1,0.1,1.8,0.4,2.2,1.3c0.4,1-0.4,1.7-1,2.3c-5.1,5.3-5.2,5.9-0.2,11.7c1,1.1,1.8,2.5,3.2,3.2
	c-0.8,6.8-2.1,13.5-1.9,20.4c0.4,20.8,7.7,38.6,21.5,54c0.8,0.9,1.6,1.9,2.3,2.8C149.7,332.3,145.4,331.3,141.3,329.6z M93.9,305.2
	c3.9,2.5,7.5,5.3,10.9,8.4c-2.3,3.3-4.6,6.5-6.8,9.8c-1.7,2.5-3.7,2.9-6.2,1.4c-3.7-2.2-7.5-4.2-11.1-6.4c-2.5-1.5-4.8-1.9-6.8,0.7
	c-2.1,2.7-5.1,2.4-7.9,2.5c-9.4,0.2-9.4,0.2-7,8.7c-2.7-0.6-5-1.6-6.1-4.1c-0.7-1.7,3.3-8.2,5.1-9.1c2-1,5.6-0.6,6-2.4
	c0.4-2.4-2.7-4.1-4.4-6c-4.2-4.7-7-4.5-10.6,0.5c-0.4,0.6-0.7,1.4-2.1,1.3c-0.2-3.5,1.2-7.3,3.5-8.6c3.2-1.7,7.4-0.6,10.8,1.5
	c2.3,1.4,4.5,3.2,6.7,4.9c1.7,1.3,2.4,0.7,2.5-1.2c0.2-3.4,0.6-6.7-1.6-9.7c-0.9-1.3-2.1-2.6-1.8-5.6c3.6,3.7,7.9,5.7,7.8,11.4
	c-0.1,2-0.7,4.6,1.5,5.9c3.6,2,7,4.3,11.1,5.3c1.6,0.4,2.7-1.1,3.4-2.5C91.7,309.5,92.8,307.3,93.9,305.2z M237,139.1
	c-1.5,8.5-7.2,14.2-13.3,19.7c-1.2,1.1-2.7,2-4,3c-2.7-3.7-5.5-7.3-8.1-11c-1.3-1.8-3-2.4-4.8-1.5c-3.6,2-6.7,0.7-10-0.7
	c-8.1-3.5-8.7-3.2-8.9,5.5c-2.7-1.1-4.8-3.6-4.1-5.7c1.1-3.1,3.7-5.8,7.4-6.7c0.3-0.1,0.6,0.1,0.9,0c2.2-0.6,5.5,2.6,6.6-0.7
	c1.1-3.2-4.7-11.8-7.3-12.3c-1.2-0.2-1.9,0.7-2.9,1.1c-1.3,0.6-2.1,2.3-4.4,1.6c1.3-3.3,3.9-6.4,6.6-6.7c3.6-0.3,7,2.6,9.4,5.6
	c2.1,2.7,3.2,6.2,5.7,8.7c4.2-4.9,4.1-10.4,3-16.6c4.3,3.9,5.4,8.5,3.9,13.3c-0.6,1.8-2.5,3.6-0.9,5.5c2.7,3.3,4.9,7.1,8.6,9.3
	c1.5,0.9,2.8-0.4,4-1.4C228.6,145.8,232.8,142.5,237,139.1z M166.2,74.7c-3.1,5.5-5,5.9-8.1,1.5c0.2-0.2,0.5-0.3,0.7-0.4
	c1.2-0.5,2.5,1.8,3.6,0c0.4-0.7,0-1.4-0.7-2c-1.5-1.2-3.2-0.6-4.2,0.3c-4.2,3.9-8.4,2.4-12.6,0.1c-0.2-0.1-0.4-0.3-0.5-0.5
	c-1.4-0.5-0.9-1.6-0.8-2.5c0.3-3.9,2.6-5.2,6.2-4.9c3,0.2,6.1,0.2,9.1,0.4c2.9,1.2,6.5,1.3,7.4,5.3
	C166.3,72.8,166.3,73.7,166.2,74.7z"/>
<path style="fill:#E56820;" d="M288.2,348.6c0.5-2.1-1.1-2.9-2.4-3.9c-7.4-6-6.9-15.5,1.2-20.8c1.1-0.7,2.2-1.1,2.5-2.9
	c1.3-9.4,3.3-11.3,13-12.5c-3.1-12.5,1.8-21.8,12.8-24c5.3-1.1,9.9,0.9,14.2,3.7c1.1,1.6,2.5,1.8,4.4,2.2c5.9,1.3,10.7,0,15.9-2.8
	c4-2.2,9.3,0,11.7,3.9c2.9,4.7,4.6,9.7,2.1,15.2c-1,2.2-3.2,2.9-5.5,2.2c-1.7-0.5-2.8-1.8-2.7-3.8c0-0.8,0.2-1.6,1.1-1.8
	c1-0.2,1.4,0.4,1.4,1.3c0,1.6,0.6,2.9,2.4,2.5c2-0.5,1.8-2.3,1.6-3.8c-0.2-2.5-1.8-3.9-4-4.4c-2.7-0.5-4.8,0.5-6.1,3
	c-1.8,3.3-0.5,7.8,2.9,10.1c3.5,2.4,8.2,1.8,11.2-1.5c2.6-2.8,3.4-6.3,2.8-9.8c-0.5-3.2,0.9-3.2,3.2-2.9c7,0.8,12.9,6.2,14.3,14
	c0.5,2.6,0.7,3.6,3.8,2.7c5-1.4,9.6-0.1,13.4,3.8c3.2,3.3,6.7,6.3,10.8,8.4c4.3,2.2,8.7,2.7,13.3,0.9c0.8-0.3,1.8-0.9,2.5,0.1
	c0.6,0.9,0.1,1.8-0.4,2.5c-1.8,3-4.6,4.2-8.1,4.4c-6.1,0.3-11.7-2-17.3-4c-7.4-2.7-14.8,0.9-17.3,8.4c-2.1,6.4-6.4,9.6-13,9.2
	c-2.2-0.2-3.4,0.3-4.7,2.2c-3.2,4.8-7.6,5.4-12.7,2.1c6.1-7.5,5.6-15.5,1.4-23.5c-2.1-4.1-6.5-5.7-10.5-4.7c-3.6,1-5.7,3.4-6.2,7.1
	c-0.4,2.8,0.5,5.2,2.8,6.9c2,1.6,4.3,1.6,6.4,0.2c2-1.3,2.7-3.3,2.1-5.6c-0.4-1.3-1.1-2.8-2.7-2.6c-1.8,0.1-2.1,1.5-1.6,3.1
	c0.3,1,0.4,1.9-0.9,2c-1.1,0-1.5-1-1.7-1.9c-0.4-2,0.4-3.6,2.2-4.5c2.2-1.2,4.1-0.4,5.8,1.2c4.5,4.5,4.4,14.8-0.1,19.4
	c-5.1,5.1-11.8,6-18,2.3c-1.1-0.7-2.2-1.5-3.4-2.3c-1.4,9.6-5.9,14-13.6,13.7c-4-0.1-7-2-9.3-5.1c-0.9-1.2-1.4-1.9-3.3-1.3
	C296.8,359.7,292.1,357.3,288.2,348.6z M251,84.7c-2.7,0.3-6.8-1.2-7.7,0.8c-1.1,2.3,2.4,4.7,3.8,7.2c1.1,2.1,3.1,3.7,3.5,6.8
	c-3.8-0.8-7.2-1.1-10.5-2.2c-4.2-1.4-4.6,0.7-4,3.8c1,5.1,2.1,10.1,3.2,15.1c0.2,0.8,0.4,1.5-0.2,2.2c-1.5,0.3-2.2-1.5-3.7-1.5
	c-2.2-2.1-4.3-4.3-6.5-6.4c-2-2-3.3-2.5-4.1,1.1c-0.7,3.3-1.8,6.4-2.7,9.7c-0.6,2.1-1.7,3.3-3.1,0.9c-3.9-6.8-9.3-6.4-16-4.8
	c-8.7,1.9-17.1,0.7-22.2-8.2c-2.6-5.8-0.2-10.9,2-16.1c1.3-1.7,0.9-3.7,0.8-5.6c-3-5.2-6.1-10.1-12.8-11.2c-1.7-0.3-3.7-0.1-5-1.7
	c-0.4-1-0.4-1.9,0.3-2.8c9.1-2.4,23.3,5.5,21.3,20.9c-0.6,4.8-2.9,9.3-2.3,14.3c1.1,5.1,5.2,6.4,9.6,6.9c3.9,0.5,7.9,0.3,11.5-0.5
	c0.9,0,0.4-0.8,0.5-0.2c0.7,2.8-7.2-1.9-10.4-6.1c-0.1-2,1.4-2.5,2.9-3s3-0.8,4.5-1.1c6.2-1.2,6.2-1.3,2.6-6.4
	c-3.1-4.5-2.5-6.4,2.8-7.7c2.5-0.7,5.2-0.7,7.5-1.9c0.3-0.1,0.5-0.4,0.5-0.7c-4.7-4.5-4.7-4.5-1.3-9.1c-0.1-0.3-0.3-0.6-0.6-0.7
	c-6.8-2.5-7-3.1-2.5-9.1c1.1-1.4,2.5-2.8,2.6-4.7c2.5-4.6,6.6-7.8,10.5-11.2c1-0.9,2.3-1.5,3.8-0.7c3.6-0.2,7.1-0.4,10.7-0.6
	c0.1,0.3,0.2,0.6,0.3,0.9c-2.9,1.9-5.8,3.8-9.7,6.4c6.4,0.9,11.6,1.7,16.8,2.4c5.1,0.7,10.2,1.3,15.3,2c0,0.4,0.1,0.8,0.1,1.2
	c-6.1,1.6-12.1,3.1-19.7,5c11.3,5.4,21.5,10.3,31.6,15.1c-0.1,0.5-0.1,1.1-0.2,1.6C266.8,84.7,258.9,84.7,251,84.7z M201.7,52.6
	c-0.2,1.8-2.8,3.8,0.4,5.4c-2.4,0.2-4.9-0.1-6.4,2.4c-2,3.2-4.7,3.1-7.8,2.1c-3.4-1-6.9-2.6-10.3,0.2c0-4.7,0-9.4,0-14.4
	c3.5,1.7,3.1,6.1,6.2,8.5c4-6.6,8-13.1,12.3-20.2c1.9,4.4,1.3,8.3,1.3,12.1C197.4,51.9,198.6,53.1,201.7,52.6z M143.7,71.2
	c0.3,0.8,0.5,1.7,0.8,2.5c-2.5,0.1-4.8,0.8-7.1,1.7c-7.5,3.3-9.8,10.2-5.6,17.3c2.8,4.6,6.9,8.2,10.3,12.2c2.1,2.5,4.2,4.9,5.2,8
	c1.1,3.5,0,6.4-2.4,8.8c-2.6,2.5-5.9,3.5-9.3,2.2c-2.9-1-4.7-3.2-4.3-6.6c1.3-0.2,1.6,0.4,2,1.2c1.8,3.8,4.7,4.5,8.3,2.9
	c3.4-1.6,4.7-5.4,3.1-9c-1.3-2.8-3.4-5-5.5-7.3c-2.7-3.1-5.7-6-8.1-9.4c-7.2-9.9-3.3-20.5,8.5-23.7C141,71.7,142.3,71.5,143.7,71.2z
	"/>
<path style="fill:#FDFCFC;" d="M266.2,179.7c-1.5-0.7-3-1.4-4.5-2.1c-0.7-1.5,0.1-2.7,1-3.7c3.5-3.8,6.9-7.7,10.9-11
	c1.8,0.3,3.5,1.5,5.5,1c-2.2,4.6-6.6,7.4-9.8,11.1C268,176.4,266.2,177.5,266.2,179.7z"/>
<path style="fill:#A31B24;" d="M215,51.8c-1.9,2-3.9,4.1-6.2,6.6c-0.9-3.1,0.6-4.8,1.6-6.7C211.9,51.7,213.5,51.8,215,51.8z"/>
<path style="fill:#FDFCFC;" d="M197.9,242.3c-0.1-14.8,6.7-26.1,17.7-35.2c1.4-1.1,2.8-1.7,4.6-1.7c9.9-0.3,19.6,0.6,28.9,3.9
	c17.7,6.2,25.5,19.2,22.7,37.8c-3.7,24.5-31.5,40.8-53.3,30.8C203.6,270.9,198.3,257.8,197.9,242.3z"/>
<path style="fill:#FDFDFD;" d="M163.9,273.1c0.8-3.8,0.6-7.9,2.3-11.6c1.4,3.7,2.5,7.5,4.1,11c10.3,22.8,27.3,37.7,52.4,40.7
	c28.6,3.4,52.1-6.7,69.5-30.1c1.3-1.8,2-4.1,4.2-5.3c0,1.5,0,2.9,0,4.4c-2.3,17.7-12.6,29.8-27.6,38.2
	c-25.7,14.5-64.3,11.2-86.4-7.3C170.1,302.8,163.4,289.6,163.9,273.1z"/>
<path style="fill:#FDFDFD;" d="M273.6,162.9c-1.4,3.5-4.5,5.7-7,8.3c-1.9,2-4,3.7-5,6.4c-0.6,0-1.2,0.1-1.8-0.1
	c-5.4-1.5-5.3-1.5-2-5.9c2.2-2.9,4.5-5.8,6-9c1.5-3.3,3.2-3.2,5.8-1.7C270.9,161.7,272.3,162.2,273.6,162.9z"/>
<path style="fill:#FDFDFD;" d="M132.2,255.5c-4.3-0.7-9.6-8.6-8.4-12.5c0.7-2.1,2.9-1.9,4.4-2.9c0.7-0.5,2-0.6,1.5-1.8
	c-0.4-1.2-1.5-0.5-2.4-0.4c-7.4,1.2-10,6.2-6.7,13.4c1.1,2.4,2.3,4.6,3.5,6.9c1.4,2.4,0.4,2.9-1.9,2.6c-3.7-0.4-7.2-1.1-9.9-4
	c-0.8-0.8-1.9-1.3-3.2-1.5c1.9,3.9,3.3,8.6,8.6,9.1c4.8,0.4,6.9,3,7.6,7.3c0.2,1.2,0.8,2.3,1.1,3.5c1.4,4.8,0.5,6.1-4.4,6.4
	c-0.9,0.1-1.8,0.1-2.7,0.2c-17.2-12.1-24.5-34.1-17.6-52.8c5.8-15.6,18-22.7,33.4-25.6c3.3-0.6,6.6-0.9,10-1.4
	c3.1-0.1,6.2-0.2,9.3-0.3c1,0,2.6-0.6,2.5,1.4c-10.2,11.7-16.2,25.7-21,40.2C134.6,247.4,133.4,251.5,132.2,255.5z"/>
<path style="fill:#FCFAFA;" d="M183.8,108c4.2-1.2,8.3-2.4,12.7-1.4c3.7,3.7,7.6,7,13.7,5.8c-7.5,3.4-14.9,4-22.3,0.8
	C185.7,112.2,184.3,110.4,183.8,108z"/>
<path style="fill:#222222;" d="M190.4,69c-2.4,1.9-4.5,2.4-6.8,2c-0.9-0.1-1.9-0.6-2-1.6c-0.1-1.1,1-1.5,1.8-1.8
	C185.7,66.8,187.8,67.7,190.4,69z"/>
</svg>
