<?xml version="1.0" encoding="utf-8"?>
<!-- Generator: Adobe Illustrator 23.0.3, SVG Export Plug-In . SVG Version: 6.00 Build 0)  -->
<svg version="1.1" id="Layer_1" xmlns="http://www.w3.org/2000/svg" xmlns:xlink="http://www.w3.org/1999/xlink" x="0px" y="0px"
	 viewBox="0 0 394 394" style="enable-background:new 0 0 394 394;" xml:space="preserve">
<path style="fill:#FCB040;" d="M111.9,290.9c0.2-14.3,6.1-26.4,14.9-37.3c5.4-6.6,11.6-12.4,17.8-18.2c3.3-3.1,6.5-6.2,9.8-9.3
	c13.3-12.1,13.4-23.4,6-41.4c-4.1-10.1-14.3-14.3-25.8-12.5c-6.6,1-12,2.9-16.1,9.7c-7.3,12-19.3,16.8-33.2,14.6
	c-15.6-2.5-22.9-14.1-26.1-28.2c-2.5-11.1-0.6-22.6-0.9-33.9c-0.1-1.8,1.4-2.6,2.5-3.5c27.2-23.8,54.3-47.8,81.6-71.4
	c5.3-4.6,12.3-6.6,18.5-9.7c2.9-1.4,4.6-3.2,5.6-6.4c2.8-9,5.9-18,9.2-27.7c6.3,6.3,12.3,12.2,18.3,18.2c1.5,1.5,3,3,5.2,3.7
	c23.5,7,42.5,21,58.7,39c24,26.8,37.7,58.9,46.1,93.4c7.3,29.9,10.1,60.3,10.3,91.1c0,3.2-0.7,4.8-4.2,5.1c-5.8,0.6-11.3,3.4-17.5,1
	c-2.9-1.1-5.2,1.5-6.7,4.1c-1.9,3.6-2.6,7.5-3.1,11.5c-0.6,1.4-0.3,3-0.3,4.5c-0.1,6.9-0.3,7.2-7.4,7.2c-52.1,0-104.2,0.1-156.3-0.1
	C116.3,294.5,111.9,296.3,111.9,290.9z"/>
<path style="fill:#012252;" d="M308.1,314.9c10.6,2.7,16.9,10.4,16.9,21.1c0.1,12.8-0.1,25.6,0.1,38.5c0,3.2-1,3.8-4,3.8
	c-82.6-0.1-165.1-0.1-247.7,0c-4,0-4.6-1.4-4.5-4.8c0.2-12.5,0.1-25,0.1-37.5c0-10.6,6.4-18.5,16.9-21.1c6.3-1.7,12.8-1.6,19.3-1.6
	c61.2,0,122.4,0,183.7,0C295.3,313.3,301.8,313.1,308.1,314.9z"/>
<path style="fill:#F47A25;" d="M308.1,314.9c-58.9,0-117.8,0.1-176.8,0.1c-15.1,0-30.3-0.1-45.4-0.1c3.6-0.5,4.6-2.7,4.3-6.1
	c-0.2-2.4,0-5,0.5-7.4c1.2-5.5,5.2-8,11.2-8.5c3.3-0.3,7.3,2.1,9.9-2c0.8,3.2,3.4,2.1,5.3,2.1c44.6,0.1,89.1,0,133.7,0
	c8.6,0,17.3-0.2,25.9,0.1c3.7,0.1,5.7-0.6,5.2-4.8c-0.2-1.7-0.5-3.7,0.9-5.3c0.2,9.7,0.2,9.7,9.6,10c6.6,0.3,10.8,4.2,11.3,10.8
	c0.1,1.7,0.2,3.4,0,5C303.3,312.3,304.5,314.4,308.1,314.9z"/>
</svg>
