<?xml version="1.0" encoding="utf-8"?>
<!-- Generator: Adobe Illustrator 24.0.0, SVG Export Plug-In . SVG Version: 6.00 Build 0)  -->
<svg version="1.1" id="Layer_1" xmlns="http://www.w3.org/2000/svg" xmlns:xlink="http://www.w3.org/1999/xlink" x="0px" y="0px"
	 viewBox="0 0 512.2 512.2" style="enable-background:new 0 0 512.2 512.2;" xml:space="preserve">
<path style="fill:#F30E34;" d="M183.1,395.4c105.4,0,209.6,0,313.8,0c0,0.2,0.1,0.4,0.1,0.5c-10.9,2.4-21.8,4.8-32.7,7.1
	c-31.5,6.7-63.1,13.4-94.7,20c-3,0.6-4,2-4.8,4.7c-4.8,16.4-9.8,32.8-14.5,49.2c-1,3.7-1.8,4.8-5.8,2.9
	c-31.5-14.9-63.5-28.9-94.7-44.6c-19-9.6-36.7-21.6-54.9-32.5C191.2,400.5,187.6,398.2,183.1,395.4z M12.3,395.2
	c50.6,0,100.3,0,149.9,0c2,0,3.5,0.7,5.1,1.7c23.2,14,46.4,28.1,69.7,42c3.1,1.9,3.2,2.7,0.4,5c-14.6,11.6-29.1,23.4-43.4,35.3
	c-2.6,2.1-3.6,2.1-5.3-1c-8.4-15.9-17.1-31.6-25.4-47.5c-1.7-3.3-3.2-3.6-6.5-2.3c-24.1,9.6-48.2,19-72.4,28.5
	c-1.9,0.7-3.5,1.7-5.8-0.4c-21.4-19.8-43-39.4-64.5-59.1C13.6,396.9,13.3,396.4,12.3,395.2z"/>
<path style="fill:#69C229;" d="M65.4,67c8.7,2,16.7,3.9,24.8,5.8c5.2,1.2,7.1-0.6,6.1-5.9c-1.2-6.9-2.4-13.8-3.8-20.6
	c-0.5-2.6-0.1-3.2,2.7-2.6c8.5,1.7,17,3.1,25.5,4.6c2.6,0.5,4.7-0.2,6.9-1.9c6.9-5.2,13.9-10.2,21.4-15.7
	c1.8,10.2,3.5,19.8,5.1,29.4c0.3,1.8,0.2,3.6,2.4,4.5c2.4,1,3.3-0.9,4.5-2.1c6.1-6.3,12.2-12.7,18.8-19.7c3.6,9.8,7,19,10.4,28.3
	c1.9,5.1,6.2,6.6,10.8,3.7c7.2-4.5,14.3-9,22.1-13.9c0.9,9.7,1.9,18.7,2.7,27.8c0.4,4.2,1.9,5.8,6.5,4.9c9.1-1.8,18.3-3,28.1-4.5
	c-3.1,9.7-5.9,18.9-8.8,28c-1.8,5.8-0.1,10.3,5.2,13.3c8,4.7,16.1,9.3,24.5,14.2c-7.9,5.3-15.2,10.4-22.8,15.3
	c-4,2.5-4.2,5.6-2.1,9.3c3.3,5.6,6.5,11.2,9.9,16.7c1.6,2.6,1.1,3.4-1.9,3.4c-2.3,0-4.7,0.8-7,0.5c-11.1-1.3-18.8,3.7-25.4,12.2
	c-3.4,4.4-7.9,8.1-11.2,12.7c-4.6,6.5-6.9,13.6-5.6,21.6c1.6,10.1,7.9,15.7,18.1,15.8c13.8,0.1,27.7,0,41.5,0c1.6,0,3.2,0,5.2,0
	c-0.5,1.8-1.9,2.2-2.8,2.9c-11.9,9-19.4,20.8-22.9,35.3c-0.4,1.7,0.1,4.5-3,4.3c-2.6-0.1-5.2,1.1-7.3-2.4
	c-18-29.4-52.5-34.2-77.9-11.1c-0.2,0.2-0.6,0.3-0.9,0.5c-5.9-4.6-7.5-16.3-6.5-25.8c1.6-16.5,8.1-30.8,18.4-43.5
	c6.4-7.9,13.3-15.4,19.9-23.1c4.9-5.7,9.5-11.6,12.9-18.4c8.9-17.8,5.5-41.5-8.3-54.6c-10.9-10.4-24.4-12.7-38.8-12.1
	c-1,1.9,0.5,2.9,1,4.2c6.8,15.5,0.4,32.9-14.9,40c-2.5,1.2-4.5,2.7-6.4,4.6c-20.2,20.3-40.5,40.6-60.8,60.8
	c-6.3,6.3-13.5,6.6-20.2,0.8c21.6-21.5,43.1-43,64.8-64.6c-8.8-4.5-8.8-4.5-15.5,2.2c-21.1,21.1-42.4,42-63.2,63.4
	c-7.2,7.3-14.9,7.2-22.6,3.1c-7.6-4.1-11.4-13.1-9.2-21.3c2.2-8.5,9.5-14.9,18.2-14.1c6,0.5,9.4-1.8,13.2-5.7
	c8.4-8.8,17.1-17.3,25.8-25.8c1.8-1.8,2.2-3.1,0.9-5.5c-2.8-5.1-5.4-10.3-7.9-15.5c-4.1-8.4-4.1-16.5,2.5-23.6c4-4.3,5-8.5,3.3-14.2
	C68.9,84.5,67.4,76,65.4,67z M306.9,368.4c-8.9-8.3-16.6-15.8-24.6-23c-10-8.9-17.1-19.3-19.5-32.7c-4.8-26.8,13-53.7,39.7-59.5
	c27.5-6,54.7,10.7,61.7,37.6c2.8,10.9,0.7,21.5-0.5,32.2c-1.6,13.9-3.1,27.8-4.6,41.7c-0.2,2.1-0.7,3.6,2.5,3.9
	c5.8,0.6,8.8,4.3,8.6,9.1c-0.3,5.1-4.2,8.3-10.5,8.3c-36.1,0-72.3,0-108.4,0c-8.8,0-17.7-0.2-26.5,0.1c-4.2,0.2-5.2-1.3-4.4-5.1
	c3.4-16.5,22.9-24.6,36.8-15.1c2.8,1.9,5.5,2.6,8.8,2.6C279.1,368.3,292.2,368.4,306.9,368.4z M193.2,368.1c3.4,0.2,5.4,0.2,7.4,0.5
	c4.6,0.8,7.5,4.3,7.5,8.6c0,4.3-3.1,7.9-7.6,8.6c-1.8,0.3-3.7,0.2-5.5,0.2c-37.8,0-75.6,0-113.4,0c-5.3,0-5.7-0.5-4.4-5.7
	c3.8-16.2,22.9-23.7,36.8-14.2c2.7,1.8,5.2,2.5,8.3,2.4c5.8-0.1,11.7-0.1,17.5,0c2.5,0.1,3.8-0.5,4.7-3.2
	c5.2-16.1,10.7-32.1,16-48.2c1-2.9,0.8-6.2,1.4-9.3c4-18.7,19.3-31.5,38.2-31.8c18.7-0.3,34.9,11.8,39.6,29.6
	c4.8,18.3-3.6,36.9-20.6,45.9C210.4,356,202.7,362,193.2,368.1z"/>
<path style="fill:#4C8A20;" d="M87.3,280.5c-0.4-22.5,7.7-41.9,21.4-59.3c11.6-14.7,25.9-26.8,39.7-39.4c6.5-5.9,13-12,18.2-19.1
	c4.6-6.2,7.5-13.1,6.5-20.9c-0.7-5.6,1.8-10.4,2.4-15.6c0.2-2,0.5-4,0.5-6c0-6.9,0-7,6.8-4.6c13.5,4.7,20.5,14.5,22.3,28.5
	c1.6,12.2-2.1,22.7-9.7,32c-5.9,7.2-12.1,14.2-18.2,21.2c-10.9,12.5-20.5,25.8-24.9,42.2c-2.8,10.7-4.5,21.5-2.3,32.6
	c1.1,5.7,3.5,10.7,7.2,15.2c1.5,1.8,1.6,3.1,0.4,5.2c-3.4,5.8-4.7,12.3-5.9,18.9c-2.4,12.9-7.8,25-11.7,37.5
	c-0.8,2.6-2.6,1.2-4.1,0.7c-25.5-9.3-41.7-26.6-46.8-53.6C88.2,290.8,87.9,285.6,87.3,280.5z M451.6,355.9c-27.3,0-52.9,0-78.6,0
	c-2.3,0-3.7-0.2-3.3-3.2c1.9-15.5,3.6-31.1,5.2-46.6c0.2-1.9,1.1-2.1,2.6-2.1c9.2,0,18.3,0.1,27.5,0c2.1,0,3,1.2,3.9,2.6
	c2.6,3.9,5,7.9,7.6,11.8C425.9,332.3,436.1,345.6,451.6,355.9z M283,196.9c-3.1-7.6-3.1-7.5,4.7-11c5.3-2.4,10.9-4.1,16.5-5.4
	c2.1-0.5,3,0.1,3.6,2c4.4,14.4,8.9,28.9,13.5,43.3c0.8,2.6,0.2,3.1-2.3,3.2c-9,0.5-17.7,3-26.3,5.4c-2.8,0.8-6,1.7-8.2,3.6
	c-8.6,7.1-18.8,3.7-28.3,4.5c-2.1,0.2-2.2-1.4-2.3-3c-0.9-12.9,2.1-24.7,9.8-35.3c2.9-3.9,5.9-7,11.4-6.5
	C277.7,197.8,280.2,197.2,283,196.9z M233.3,353.8c8.4-8.1,14.1-17.6,16.2-29.2c1-5.8,1-11.6,0-17.4c-0.2-1.1-1.3-2.7,1-3.1
	c1.7-0.3,2.4,0.6,2.4,2.3c0.3,19.2,9.7,33.8,23.6,46c0.9,0.8,2.2,1.5,2.2,3.6c-8.5-0.6-17,1.4-25.4-2
	C247,351.5,240.2,352.1,233.3,353.8z M362.4,265.6c13.9,6.9,25.9,16.3,37.1,28.8c-8.4,0-15.6,0-22.9,0c-1.6,0-2.2-0.8-2.5-2.4
	C372.1,282.4,368,273.8,362.4,265.6z"/>
<path style="fill:#FDFCFC;" d="M139.7,131.1c-9,0-16.2-7.2-16.2-16.1s7.2-16.1,16.2-16c9,0,16.3,7.2,16.2,16.1
	C155.9,123.9,148.6,131.1,139.7,131.1z M88.8,133.1c-3.3-0.1-5.7-1.6-7.2-4.5c-1.5-2.9-1.5-5.9,0.6-8.4c6.5-7.9,13.2-15.8,19.8-23.6
	c1.6-1.9,3.7-2.4,5.7-0.8c2.4,1.9,1.7,4.1,0,6.1c-3.7,4.4-7.4,8.9-11.3,13.3c-1.7,1.8-2,3-0.4,5.4C99.6,126.2,95.5,133.2,88.8,133.1
	z M34.3,192.2c2.7,0.5,4.7,1.8,4.7,4.7c0,3.1-2,5-5,4.9c-2.8-0.1-4.6-2-4.5-4.9C29.6,194.1,31.5,192.6,34.3,192.2z M124.5,316.4
	c-8.4-0.1-14.7-6.5-14.7-14.9s6.5-14.8,14.8-14.9c8.5,0,15.2,6.8,15.1,15.2C139.5,310.2,132.9,316.5,124.5,316.4z M125,257.1
	c4.5,0.1,8.2,4.1,8,8.6s-4.1,8.1-8.6,8c-4.5-0.1-8.2-4.1-8-8.6S120.5,257,125,257.1z"/>
</svg>
