<?xml version="1.0" encoding="utf-8"?>
<!-- Generator: Adobe Illustrator 23.0.3, SVG Export Plug-In . SVG Version: 6.00 Build 0)  -->
<svg version="1.0" id="Layer_1" xmlns="http://www.w3.org/2000/svg" xmlns:xlink="http://www.w3.org/1999/xlink" x="0px" y="0px"
	 viewBox="0 0 372 732.6" style="enable-background:new 0 0 372 732.6;" xml:space="preserve">
<path style="fill:#F6C686;" d="M88.9,448.9c65.8,0,131.7,0,197.5,0c0.1,71.9,0.1,143.7,0.2,215.6c0,12.4,0,24.7,0,37.1
	c0,2.6-0.4,5.3,1.5,7.5c-66.9,0-133.8,0-200.7,0c2.3-2.9,1.4-6.4,1.4-9.7c0-80.4,0-160.9,0-241.3C88.7,455.1,88.8,452,88.9,448.9z"
	/>
<path style="fill:#F1B974;" d="M323.7,278.9c0-24.1-0.2-48.2,0.1-72.2c0.1-5.4-1.6-7.3-6.9-6.8c-3.5,0.3-7.2,0.9-10.4-1.3
	c-1.5-1.3-3.3-2.2-5.2-2c-11.4,1.4-22.8-0.8-34.2,0c-12.3,0.9-24.7,0.3-37,0.2c-15.4-0.2-30.9-0.2-46.3,0
	c-12.6,0.2-25.2,0.2-37.7,0.1c-22.8-0.3-45.6,0.9-68.3-0.4c-3.1-0.2-6.2-0.1-8.8,2.1c-2.1,1.4-4.5,1.4-6.9,1.4
	c-10.9,0.1-10.4-1.8-10.4,10.3c0,46.5,0,93,0,139.5c0,30.3,0.1,60.6-0.1,90.8c0,5.7,1.7,7.2,7.3,7.3c7.8,0.1,15.6,0.3,23.4-0.1
	c2.3-0.1,4.8-0.8,6.8,1.2c2.7,2.4,6.1,2.3,9.5,2.3c59.5,0,119,0,178.6,0c3.3,0,6.7,0.1,9.5-2.3c9.7-1.7,19.6-1.4,29.4-1.1
	c6.3,0.2,8-1.6,8-8C323.5,386.2,323.7,332.5,323.7,278.9z M255.2,137.3c-4.7-0.2-6.3-1.6-6-6.2c0.3-5.9,0.1-11.9,0.1-17.8
	c0-13.1,0-13.1-13-13.4c-3.3-2.3-7.1-2.3-10.9-2.3c-25.1,0-50.3,0-75.4,0c-3.8,0-7.6,0.1-10.9,2.3c-1.7,0-3.4,0.3-5,0
	c-6.8-1.1-8.6,2-8.2,8.4c0.5,7.6-0.1,15.2,0.2,22.8c0.2,4.6-1.4,6-6.1,6.2c-6.5,0.3-13.2-1.9-19.4,1.3c58.1,0,116.1,0,174.2,0
	C268.4,135.2,261.7,137.5,255.2,137.3z"/>
<path style="fill:#DDA05E;" d="M274.7,138.5c-13-1-25.9-1.6-38.9-2.3c-10.9-0.6-21.9-0.1-32.8-0.1c-33,0-66.1-0.5-99,1.6
	c-1.2,0.1-2.4,0-3.4,0.8c-10.6,20-21.1,40-31.7,60c79.2,0.6,158.4,0.6,237.6,0C295.8,178.5,285.3,158.5,274.7,138.5z M213,70.3
	c-8.2-9.5-14.9-18.9-12.9-32.7c1-7.2,1.7-15-0.9-22.4c-2.7,2.4-2.1,5.7-2.2,8.7c-0.2,6.7,0,13.3-0.1,20c0,3.2-1.1,4.5-4.7,4.4
	c-13.9-0.7-13.9-0.5-13.9-15.1c0-3.3,0.1-6.7,0-10c-0.1-2.8,0.3-5.8-2.2-8c-2.8,10.9-0.6,22.1-1.1,33.1c-0.2,3.7-0.7,6.7-3.2,9.7
	c-11.1,13.8-21.9,27.8-32.8,41.8c32.4,0,64.8,0,97.3,0C228.5,90,221.2,79.8,213,70.3z"/>
<path style="fill:#F5FE90;" d="M187.6,249.9c39.6-1.7,74.2,32.9,74.3,72.7c0.1,43.3-31.7,75.6-74.3,75.8
	c-40.9,0.2-72.2-31-74.3-71.5C111,284.3,148,247.9,187.6,249.9z"/>
<path style="fill:#DF4666;" d="M357.2,708.9c-23.1,0.4-46.1,0.2-69.2,0.2c-3.5-1.9-7.2-2.2-11.1-2.2c-59.5,0-119.1,0-178.6,0
	c-3.9,0-7.6,0.3-11.1,2.2c-24.3,0-48.6-0.1-72.9,0c-7.6,0-12.5,4.7-12.7,11.5c-0.2,6.9,5.1,12.5,12.5,12.9c1.7,0.1,3.3,0,5,0
	c112.4,0,224.9-0.1,337.3,0.1c7.7,0,13.4-2.1,17.2-8.7c0-2.9,0-5.7,0-8.6C369.6,710.8,364.2,708.8,357.2,708.9z M176.1,47.3
	c-0.1,4.3,1,5.6,5.3,3.5c4-1.9,8.5-2,12.4,0c5.4,2.7,5.3-0.3,5.3-4.2c0-10.5,0.1-20.9,0.1-31.4c-1.2-6.5-5.9-9.1-11.6-9.1
	c-5.7,0-10.4,2.6-11.6,9.1C176.1,25.9,176.2,36.6,176.1,47.3z M174.8,667.9c0,9.3,4.7,15.1,12.1,15.7c8.3,0.6,13.5-5.5,13.6-16.2
	c0.1-31.7,0-63.3,0-95c0-23.6,0.1-47.2-0.1-70.7c0-10.1-3.7-15-11-15.5c-9.9-0.7-14.7,3.9-14.7,14.6c-0.1,27.6,0,55.2,0,82.9
	C174.7,611.7,174.7,639.8,174.8,667.9z M230.7,682.2c8.7,4.8,18.4-0.9,18.4-11.2c0.1-28.9,0-57.7,0-86.6s0-57.7,0-86.6
	c0-7.3-5.1-12.5-12.4-12.8c-6.1-0.3-11.9,5.5-11.9,12.6c-0.1,57.9,0,115.9,0,173.8C224.8,676.3,226.6,679.9,230.7,682.2z
	 M130.8,681.5c4.1,2.7,8.6,3.1,12.9,1c4.6-2.3,6.7-6.3,6.7-11.6c-0.1-28.6,0-57.2,0-85.8l0,0c0-5.2,0-10.5,0-15.7
	c0-23.8,0.1-47.7-0.1-71.5c-0.1-7.9-4.7-11.9-12.7-11.8c-7.3,0.1-11.5,4.1-11.5,11.4c0,58.4,0,116.8-0.1,175.1
	C126,676.7,127.7,679.5,130.8,681.5z M199.6,336.5c-3.6,0-7.1,0-10.7,0c-8.5,0.1-14-5.2-14-13.5c0-11.7,0-23.3,0.2-35
	c0.2-8.3,5.1-13.6,12.4-13.7c7.3-0.1,12.3,5.2,12.6,13.4c0.2,5,0.4,10-0.1,15c-0.7,6.7,0.8,10.5,8.5,8.9c1.6-0.3,3.3-0.1,5,0
	c6.5,0.7,11.4,6.1,11.3,12.5c-0.1,6.2-4.6,11.2-11,12c-2.4,0.3-4.8,0.1-7.1,0.2c-2.4,0-4.8,0-7.1,0
	C199.6,336.3,199.6,336.4,199.6,336.5z"/>
</svg>
