<?xml version="1.0" encoding="utf-8"?>
<!-- Generator: Adobe Illustrator 23.0.3, SVG Export Plug-In . SVG Version: 6.00 Build 0)  -->
<svg version="1.0" id="Layer_1" xmlns="http://www.w3.org/2000/svg" xmlns:xlink="http://www.w3.org/1999/xlink" x="0px" y="0px"
	 viewBox="0 0 430 405" style="enable-background:new 0 0 430 405;" xml:space="preserve">
<path style="fill:#F8CA1B;" d="M215.4,96c0-22.5,0.1-45,0.1-67.5c4,1,4,4.9,5.1,7.7C229,58,239,78.9,253.2,97.6
	c7.4,9.8,15.8,18.5,26.4,25c5.6,3.4,5.4,5-0.7,8.3c-18.5,10-27.4,25.5-26.8,46.4c0.7,24.7,22.8,45.5,48.2,45.7
	c25.1,0.2,47.2-20,48.8-44.4c1-14.7-3.5-27.4-13.4-38.2c-4.9-5.3-4.5-6.6,2.5-8c23.2-4.5,44.1-14.3,63.3-28.1c2-1.5,4-4,6.9-2.3
	c3,1.7,1.6,4.5,1.2,7c-8.1,45.8-16.2,91.6-24.3,137.4c-0.2,0.7-0.6,0.7-1,0.2c-53.8,0-107.6-0.1-161.5,0.1c-5.6,0-7.5-1.2-7.4-7.2
	c0.3-28.1,0.1-56.2,0.1-84.3c0.1-0.3,0.1-0.6,0.2-0.9c5.1-8.3,11.7-15.6,17.9-23.1c3.4-4.1,3.3-7.2,0-11.3
	c-6.2-7.5-12.8-14.7-17.9-23.1C215.5,96.6,215.5,96.3,215.4,96z"/>
<path style="fill:#F9DF58;" d="M45.4,247.9c-2.7-16.2-5.3-32.5-8.1-48.6c-5-28.6-10.3-57.1-15.3-85.6c-0.7-3.8-4.1-8.7,0.3-11.5
	c4.7-3,7.6,2.5,11,4.7c18.2,11.6,37.3,21.2,58.9,24.9c2.4,0.4,5.7,0.3,6.5,3.4c0.8,2.8-1.9,4.1-3.5,5.8c-12.7,13.8-16.6,30-11,47.7
	c6,18.8,19.2,29.9,38.9,33.2c26.5,4.4,47.1-13.9,53.1-32.4c7.2-21.9-2.5-46.7-22.7-57.5c-8.4-4.5-8.4-5.4-0.4-10.8
	c17.4-11.8,29.1-28.5,39.1-46.5c7.2-12.9,13.1-26.4,18.4-40.2c0.9-2.3,0.8-6,4.9-6c1.1,1.9,1.9,3.9,1.9,6.1
	c0,19.7,0.6,39.4-0.3,59.1c-2.3,6.8-7.9,11.3-11.9,16.9c-1.8,2.5-3.7,4.8-5.7,7.2c-6.5,7.9-6.2,7.7-0.1,15.8
	c6,7.9,13.7,14.7,17.7,24.1c1,24,0.2,47.9,0.5,71.9c0.2,15.9-1.6,14.9,14.8,14.9c46.9,0,93.7,0,140.6,0c3.8,0,7.9-0.8,11.3,2
	c-0.1,2.8-2.3,2.8-4.2,3.2c-2.1,0.5-4.3,0.3-6.5,0.3c-105.9,0-211.7,0-317.6,0C52.4,250,48.5,250.8,45.4,247.9z M368.2,343.5
	c4.9,2.9,6.1,7.3,5.6,12.8c-0.4,4.8-0.1,9.6-0.1,14.4c0,9.7-1,10.6-11,10.6c-23.5,0-47.1,0-70.6,0c-74.5,0-149.1,0-223.6,0
	c-10.2,0-11.3-1.1-11.3-11.1c0-5.7,0.1-11.3-0.1-17c-0.1-4.2,1.3-7.2,5.4-8.7c1.9-1.7,4.3-1.9,6.7-1.9c48.7,0,97.4-0.3,146,0.1
	c49.5-0.4,99-0.1,148.5-0.2C365.3,342.6,366.8,342.7,368.2,343.5z"/>
<path style="fill:#F9EA99;" d="M380.6,272.8c-1.6-2.2-4-1.4-6-1.4c-105.9,0-211.7,0-317.6,0c-2.3,0-4.8-0.9-6.8,1.3
	c-12.3-4.6-12.4-4.9-11.3-18.7c0.3-4.1,2.1-6.5,6.5-6.2c110.2,0,220.5,0,330.7,0c2.7,0,5.7,1.1,8.1-1.2c0.3-0.1,0.7-0.2,1-0.2
	c6.1,3.4,9.5,15.5,6.2,21.9c-1.1,2.1-2.8,3.2-5.3,3.2C384.1,271.4,382.2,271.5,380.6,272.8z"/>
<path style="fill:#E9391E;" d="M368.4,269.4c-102-0.1-203.9-0.1-305.9-0.1c-2.4,0-4.8-0.1-7.2,0.2c-2.1,0.3-4.5,0.5-5.1,3.2
	c1.3,7.4,2.7,14.8,3.9,22.2c2.8,16.5,5.6,33,8.4,49.5c51,0,102,0,153,0c2.1-2.3,1.8-5.2,1.8-7.9c0-5.4,0-10.7,1.1-16
	c-0.9-2.3-3.1-2.2-4.9-2.5c-4.9-1-7.7-3.8-8-8.8c-0.3-5.2,2-8.7,6.8-10.7c2.1-0.9,4.9-0.9,5.3-4c0.2-3.2-0.1-6.5-0.1-9.8
	c0.1-9.5,0.4-9.8,9.9-9.9c1.3,0,2.6,0,3.9,0c45.8,0,91.7,0,137.5,0c3.8,0,7.9,0.8,11.2-2.1l0.4,0.1
	C377.8,267.3,372.6,269.4,368.4,269.4z M215.4,155.3l0.1-0.4c1.7-2.7,2-5.7,2-8.7c0-13.7,0-27.4,0-41c0-3.1-0.3-6.1-2-8.7l-0.1-0.4
	c-7.4,9-14.8,18.1-22.2,27.1c-1.5,1.8-1.5,3.3,0,5.2C200.6,137.2,208,146.3,215.4,155.3z"/>
<path style="fill:#DA3131;" d="M268.7,272.7c-15.9,0-31.7,0-47.6,0c-2.2,0-5.5-0.9-5.4,2.8c0.2,6.9-1.5,13.9,1.2,20.6
	c0.7,1.5,2.2,1.9,3.5,2.8c7.1,5.2,7.3,12.7,0.5,18.4c-1,0.8-2.2,1.4-2.6,2.8c-2.3,1.4-2.8,3.5-2.7,6.1c0.2,6.1,0.1,12.2,0.1,18.3
	c49.5,0.1,98.9,0.1,148.4,0.2c1.6,0,3-0.1,4.3-1.2c1.2-7,2.4-14,3.6-21c2.8-16.6,5.6-33.1,8.4-49.7
	C343,272.8,305.8,272.7,268.7,272.7z M238.3,127.4c0.9-1.1,1-2.5,0-3.6c-7.8-9-14.2-19.2-22.8-27.5c0,19.5,0,39,0,58.5
	C224.2,146.6,230.6,136.5,238.3,127.4z"/>
<path style="fill:#0BABD4;" d="M216.8,296.1c-2.5,0.3-5.1,0-7.5,1.6c-5.2,3.4-6.9,8.3-5.4,14c1.9,7.1,7.5,8.8,14.2,8.4
	c6.4-1.9,9.8-6.1,9.3-12.9C226.9,300.7,222.9,297.3,216.8,296.1z M130.2,296.2c-7,0-11.7,4.7-11.7,11.9c-0.1,7.1,4.5,11.9,11.6,12
	s12.1-4.5,12.2-11.4C142.4,301.6,137.2,296.3,130.2,296.2z M301.1,296.2c-7.2-0.1-12.4,5-12.4,12.1c0,6.7,5.1,11.8,11.9,11.8
	c7.1,0,11.9-4.7,12-11.7S307.9,296.3,301.1,296.2z"/>
</svg>
