<?xml version="1.0" encoding="utf-8"?>
<!-- Generator: Adobe Illustrator 23.0.3, SVG Export Plug-In . SVG Version: 6.00 Build 0)  -->
<svg version="1.0" id="Layer_1" xmlns="http://www.w3.org/2000/svg" xmlns:xlink="http://www.w3.org/1999/xlink" x="0px" y="0px"
	 viewBox="0 0 492.5 299" style="enable-background:new 0 0 492.5 299;" xml:space="preserve">
<rect x="2.9" y="2.2" style="fill:#EBEBEB;" width="487.6" height="293.5"/>
<path style="fill:#CD1124;" d="M492.3,120.5c0,19.1,0,38.3,0,57.4c-2.5,2.8-5.9,1.9-8.9,2c-51.5,0.1-103,0-154.4,0
	c-14.8,0-29.7,0-44.5,0c-8.4,0-8.4,0-8.4,8.2c0,31.7,0,63.3,0,95c0,1.7,0,3.3,0,5c-0.1,7.4-0.4,7.7-8,7.7c-15.7,0-31.3,0-47,0
	c-5.7,0-5.9-0.1-6.1-5.9c-0.4-8.5-0.1-17-0.1-25.5c0-26.5,0.2-52.9-0.1-79.4c0-1.6,0.4-3.4-1.1-4.7c-3-0.7-6-0.4-9-0.4
	c-64,0-128.1,0-192.1,0c-3.1,0-6.4,0.6-9.2-1.4c-0.9-6-0.3-11.9-0.4-17.9c-0.1-12.7,0.1-25.3-0.1-38c0-3.2,1.2-4.6,4.2-4.9
	c2.3-0.2,4.7-0.2,7-0.2c63.8,0,127.6,0,191.4,0c9.3,0,9.3,0,9.4-9.3c0-32.5,0-65,0-97.4c0-2.9-0.5-6.1,1.6-8.6c19.3,0,38.7,0,58,0
	c2.1,2.6,1.6,5.7,1.6,8.6c0,32.3,0,64.6,0,96.9c0,1.7,0.1,3.3,0,5c-0.1,3.3,1.3,5,4.7,4.9c1.8-0.1,3.7,0,5.5,0
	c65.6,0,131.2,0,196.7,0.1C486.3,117.6,490.2,116.3,492.3,120.5z"/>
</svg>
