<?xml version="1.0" encoding="utf-8"?>
<!-- Generator: Adobe Illustrator 23.0.3, SVG Export Plug-In . SVG Version: 6.00 Build 0)  -->
<svg version="1.0" id="Layer_1" xmlns="http://www.w3.org/2000/svg" xmlns:xlink="http://www.w3.org/1999/xlink" x="0px" y="0px"
	 viewBox="0 0 581.7 416.9" style="enable-background:new 0 0 581.7 416.9;" xml:space="preserve">
<path style="fill:#969EAF;" d="M165.5,212c-8.4-3.3-12.5-9-12.5-17.8c0-7.8,0.1-15.7,0.1-23.5c2.3-1.7,4.4-0.4,6.5,0.3
	c31.4,10.3,63.8,14.1,96.6,12.8c28-1.1,55.5-5.5,81.8-15.7c15.6-6.1,30.1-14.1,41.8-26.4c0.8-0.8,1.8-1.4,2.8-1.9
	c9.4,0,18.7-0.2,28.1-0.1c9.9,0.2,17.7,8,17.8,18c0.2,12.4,0.1,24.8,0,37.2c-0.1,8.3-4.4,14.1-12.5,17.2c-2.4,2.8-5.7,2.8-8.9,2.8
	c-7,0.1-14,0.1-21,0c-25.2,0-50.4,0.1-73.2,0c7,1.9,15.8,12.4,16,23.5c0.6,44.5,0.5,89,0,133.6c-0.1,6.5-2.5,12.8-8.5,16.7
	c-2.2,0.9-4.5,0.9-6.8,0.9c-15.3,0-30.5,0-45.8,0c-2.3,0-4.6,0-6.8-0.9c-7.1-4.9-8.8-12.3-8.9-20.1c-0.2-14.2-0.1-28.3-0.1-42.5
	c0-27.9-0.1-55.9,0-83.8c0.1-13.4,7-23.9,16.6-27.4c-23.5,0.2-48.5,0.1-73.5,0c-7.2,0.1-14.4,0.1-21.6,0
	C170.8,214.8,167.6,214.9,165.5,212z M35.7,387.6c-1.7-3.7-2.2-7.6-2.2-11.7c0.1-47,0.3-94.1-0.2-141.1
	c-0.1-11.9,7.1-23.6,24.3-21.6c28.3,3.4,49.4,26.8,49.5,55.4c0.1,36.1,0,72.3,0.1,108.4c0,3.7-0.8,7.2-2.2,10.5c-2,2.3-4.8,2-7.5,2
	c-18.1,0.1-36.2,0.1-54.2,0C40.5,389.5,37.7,389.8,35.7,387.6z M476.8,387.6c-1.8-3.7-2.2-7.6-2.2-11.7c0.1-47,0-94.1,0-141.1
	c0-15.4,8.7-23.2,24-21.5c28.2,3.2,49.5,27,49.5,55.4c0,35.8,0,71.5,0,107.3c0,4.1-0.5,8-2.2,11.7c-2,2.3-4.8,2-7.4,2
	c-18.1,0.1-36.2,0.1-54.3,0C481.6,389.5,478.8,389.8,476.8,387.6z"/>
<path style="fill:#C08D59;" d="M476.8,387.6c23.1,0,46.1,0,69.2,0c5.7,0.1,11.5,0.2,17.2,0.1c2.4,0,3.6,0.7,3.3,3.3
	c0,0.2,0,0.4,0,0.6c0.7,14.6,0.7,14.6-13.8,14.6c-177.2,0-354.5,0-531.7,0.1c-4.9,0-6-1.5-5.9-6.1c0.3-12.4,0.1-12.4,12.6-12.4
	c2.7,0,5.4-0.1,8-0.2c23.1,0,46.1,0,69.1,0c15.2,0,30.5,0,45.7,0c20,0,40,0,60,0c2.4-1.3,5-1.7,7.7-1.7c11.6,0,23.2,0,34.8,0
	c2.7,0,5.3,0.3,7.7,1.7c20.1,0,40.1,0,60.2,0c2.4-1.4,5-1.7,7.7-1.7c11.6,0,23.2,0,34.8,0c2.7,0,5.3,0.3,7.7,1.7c20,0,40,0,60,0
	C446.3,387.5,461.5,387.5,476.8,387.6z"/>
<path style="fill:#71CCF0;" d="M138.4,48c-3.6-0.7-5-1.9-6.1-5.1c-6.6-19.5-23.7-32-43.6-31.9c-20.1,0-37,12.3-43.7,31.8
	c-1.1,3.2-2.2,4.8-6,5.2c-11.8,1.4-21.2,10.9-23.6,22.6c-2,10,3.5,22.2,12.7,28.2s21.8,5.5,31.1-1.8c2.7-2.1,4.5-1.7,7-0.3
	c14.9,8.2,29.8,8.4,44.7,0.1c2.8-1.6,5.1-2.4,7.4,0.6c0.8,1,2.1,1.7,3.3,2.2c10.4,5,20.5,4.6,29.6-2.6c8.8-6.9,12.8-16.1,10.3-27.3
	C158.8,57.4,150.5,50.3,138.4,48z M566.2,70.6c-2.3-11.4-11.5-21-23.1-22.5c-4.4-0.6-5.5-2.5-6.7-6C529.8,23.3,512.6,11,493.3,11
	c-20.1,0-37.1,12.1-43.9,31.6c-1.2,3.4-2.5,4.9-6.5,5.5c-11.6,1.6-20.8,11-23.2,22.5c-2.1,10.1,3.3,21.9,12.8,28
	c9.7,6.2,21.5,5.8,31-1.5c2.4-1.9,4-2,6.5-0.6c15.2,8.8,30.5,8.6,45.7,0c2.5-1.4,4.1-1.4,6.5,0.5c9.6,7.4,21.2,7.8,31,1.6
	C562.9,92.5,568.3,80.8,566.2,70.6z"/>
<path style="fill:#ACB2C5;" d="M437.9,241.8c0-10.7-4.8-18.5-13.2-24.6c-2.8-2-6.7-1.9-8.6-5.2c-10,2.1-20.1,0.6-30.1,1.2
	c-12.6,1.7-19.2,9.8-22.6,21.3c-0.9,3-0.8,6.1-0.8,9.1c0,40.9,0,81.9,0,122.8c0,3.8,0.1,7.7,1.3,11.4c1.5,4.4,3.4,8.5,7.8,10.9
	c0.9,0.3,1.8,0.6,2.8,0.6c17.2,0.4,34.3,0.2,51.5,0.1c1.9,0,3.8-0.2,5.1-2c4.9-5.6,6.8-12.1,6.8-19.5
	C437.8,325.9,437.8,283.9,437.9,241.8z M196.6,212.3c-10.2-0.7-20.6,1.1-30.6-1.2c-0.4,1.8-2,2.1-3.5,2.7
	c-12.7,5.6-18.8,15.2-18.7,29.2c0.2,41.6,0.2,83.3,0,125c0,8.1,2,15.3,7,21.7c2.2,2.5,5.3,2,8.1,2c13.9,0.1,28,0.1,42.1,0
	c3.5,0,7,0.3,10.4-0.8c7.6-5.3,9.1-13.2,9.2-21.6c0.1-42.5,0.1-84.9,0-127.3C220.4,225.7,212.2,215.7,196.6,212.3z M387.1,137.5
	c-0.4,0-0.8-0.1-1.1-0.1c-71.8,0-143.6-0.1-215.4,0c-9.2,0-17.3,8.3-17.4,17.6c-0.1,4.7,0.1,9.4,0.1,13.9c0.9,0.2,1.8,0.5,2.7,0.8
	c28.9,9.8,58.7,14.2,89,14.4c15.5,0.1,31-1.2,46.3-3.4c24.5-3.5,48.3-9.8,70.1-21.9C371.3,153.3,380.9,147.4,387.1,137.5z"/>
<path style="fill:#F1DD53;" d="M246.1,66.1c-3.2-11.9-0.9-23,5.4-33.3c11.1-18.4,34-26.5,54.3-19.5c1.6,0.6,3.3,1,4.5,2.3
	c8,13.8,6.9,27.6-1.2,40.7c-12.3,19.8-36.2,26.2-56,15.7C250.3,70.4,247.9,68.7,246.1,66.1z"/>
<path style="fill:#EBC83F;" d="M246.1,66.1c2.6,0,3.8,2.4,5.7,3.5c14.6,8.1,29.2,8,43.1-1.1c14.5-9.5,20.5-23.4,18.7-40.6
	c-0.4-4.3-3.3-7.9-3.4-12.3c19.7,8.8,30.2,30.5,25.2,52.2c-4.8,21.1-24.6,35.8-47,35.1C268,102.2,249.3,86,246.1,66.1z"/>
</svg>
