<?xml version="1.0" encoding="utf-8"?>
<!-- Generator: Adobe Illustrator 23.0.3, SVG Export Plug-In . SVG Version: 6.00 Build 0)  -->
<svg version="1.0" id="Layer_1" xmlns="http://www.w3.org/2000/svg" xmlns:xlink="http://www.w3.org/1999/xlink" x="0px" y="0px"
	 viewBox="0 0 582 387.6" style="enable-background:new 0 0 582 387.6;" xml:space="preserve">
<path style="fill:#2B4895;" d="M337.4,389.1c0-46.5,0-93,0-140.6c10.2,7.1,19.6,13.6,29,20.1c56.6,39.2,113.2,78.5,169.7,117.7
	c1.2,0.9,2.4,1.8,3.6,2.8C472.3,389.1,404.8,389.1,337.4,389.1z M43,389.1c10.6-8.8,22.5-15.9,33.8-23.7
	C132,327.6,187.3,290,242.6,252.3c0.9-0.6,1.9-1.2,3.8-2.5c0,47,0,93.1,0,139.3C178.6,389.1,110.8,389.1,43,389.1z M0.9,41.3
	c1.7-3.6,1.6-7.8,4.1-11.6c59.2,40.8,118.4,81.6,178.1,122.7c-2.4,1.4-4.4,0.9-6.3,0.9c-56.8,0-113.5,0-170.3,0.1
	c-1.9,0-3.7,0.3-5.6,0.4C0.9,116.3,0.9,78.8,0.9,41.3z M0.9,236.8c18.7,1,37.4,0.3,56.2,0.4c40,0.1,79.9,0,119.9,0
	c1.8,0,3.6,0,5.7,0c-0.7,2.5-2.5,2.9-3.8,3.8c-56.1,38.2-112.3,76.4-168.5,114.5C4,359.9,4,359.9,2,352.3c-0.2-0.7-0.7-1.2-1-1.9
	C0.9,312.6,0.9,274.7,0.9,236.8z M44.4,1.5c1.8,0,3.7,0,5.5,0c63.6,0,127.3,0.1,190.9-0.1c4.8,0,5.9,1.2,5.8,5.9
	c-0.2,42.6-0.1,85.2-0.1,127.8c0,1.5,0,3,0,5.8C178.6,94.5,111.4,48.6,44.2,2.7C44.3,2.3,44.3,1.9,44.4,1.5z M540.4,1.8
	c-68.3,46.6-135.1,92.2-202,137.8c-2-1-1.1-2.7-1.1-4c-0.1-43.2,0-86.3-0.1-129.5c0-3.1,0.3-4.7,4.2-4.7
	c65.1,0.1,130.3,0.1,195.4,0.1C537.4,1.5,538.1,1.6,540.4,1.8z M402.8,237.2c22.5,0,44.9,0,67.4,0c35.4,0,70.8,0.1,106.2,0
	c4.9,0,6.7,0.9,6.7,6.3c-0.3,32.7-0.2,65.5-0.1,98.2c0,6.7-1.2,13.1-4.1,19.9c-58.9-41.2-117.6-82.2-176.3-123.2
	C402.6,238,402.7,237.6,402.8,237.2z M400.7,152.5c0.8-1.8,2.7-2.5,4.2-3.5c56.5-38.4,113-76.8,169.5-115.2c5.5-3.7,5.8-3.7,7.2,2.9
	c0.8,3.7,1.4,7.4,1.4,11.2c-0.1,33.3-0.1,66.7,0,100c0,3.6-0.3,5.4-4.7,5.4c-58.3-0.2-116.7-0.1-175-0.1
	C402.4,153.3,401.4,153.6,400.7,152.5z"/>
<path style="fill:#E12D3C;" d="M319.2,389.1c-18.2,0-36.4,0-54.6,0c-3.2-2.5-2.6-6.1-2.6-9.4c-0.1-21.6,0-43.1-0.1-64.7
	c0-26.9,0-53.7,0-80.6c0-9.6-1.2-10.7-10.8-10.7c-79.3,0-158.6,0-237.9-0.1c-4.2,0-8.8,1.2-12.3-2.6c0-17.1,0-34.1,0-51.2
	c1.5-2,3.7-2.5,6-2.6c3.4-0.2,6.8-0.1,10.2-0.1c77.3,0,154.6,0,231.9,0c12.3,0,12.9-0.5,12.9-12.7c0-47,0-94,0-140.9
	c0-12.4,0.1-12.4,12.5-12.4c13.4,0,26.9,0,40.3,0c5.8,0,6.6,0.8,7,6.4c0.2,3,0.1,6.1,0.1,9.1c0,45.7,0,91.3,0,137
	c0,2.3,0,4.5,0.1,6.8c0.2,4.3,2.4,6.6,6.8,6.8c2.7,0.1,5.3,0.1,8,0.1c77.5,0,154.9,0,232.4,0c14.4,0,14.4,0,14.4,14.5
	c0,11.7-0.2,23.5,0.1,35.2c0.1,4.7-1.8,6.6-6.2,6.7c-3.4,0.1-6.8,0.1-10.2,0.1c-77.3,0-154.6,0-231.9,0c-13,0-13.3,0.3-13.3,13.4
	c0,47,0,94-0.1,140.9C321.8,381.8,322.8,386,319.2,389.1z M223.8,153.2c-7.5,0-15,0.1-22.5,0c-2,0-3.5-1.4-5-2.5
	C134.8,108.9,73.3,67,11.8,25.2c-2.8-1.9-3.4-3.1-1.1-6c5.9-7.5,6-7.7,13.7-2.5C89.3,60.6,154.1,104.5,219,148.5
	c1.7,1.2,3.4,2.4,5,3.6C224,152.4,223.9,152.8,223.8,153.2z M361.6,237.2c7.1,0,14.3,0,21.4,0c2.2,0,3.9,1.2,5.6,2.4
	c60.9,42,121.7,84.1,182.7,126c3.4,2.4,3.7,4.1,0.9,6.8c-1.1,1-2.2,2.1-3.1,3.3c-2.3,3.1-4.4,2.8-7.5,0.7
	c-39.2-27.1-78.5-54.1-117.8-81.1c-26.2-18-52.4-36-78.6-54c-1.4-0.9-2.7-1.9-4.1-2.9C361.3,238,361.5,237.6,361.6,237.2z
	 M338.3,152.1c14.1-9.5,28.1-19.1,42.2-28.6C437.4,85.1,494.3,46.7,551.2,8.3c4-2.7,12.2-0.7,14.5,3.6c1.4,2.6-1.3,2.8-2.4,3.5
	c-12.6,8.7-25.3,17.2-38.1,25.8c-54,36.3-108,72.6-161.9,109.1c-8,5.4-16.4,1.9-24.6,3.2C338.6,153,338.5,152.5,338.3,152.1z
	 M245.3,237.9c-2.4,1.7-4.2,3.1-6,4.3C170.1,288.9,101,335.6,31.9,382.3c-4.8,3.3-7.9,2.2-15.2-5.2C36,364,55.2,351,74.5,338
	c45.6-30.8,91.5-61.2,136.8-92.5C221.8,238.3,232.1,235.7,245.3,237.9z"/>
</svg>
