<?xml version="1.0" encoding="utf-8"?>
<!-- Generator: Adobe Illustrator 23.0.3, SVG Export Plug-In . SVG Version: 6.00 Build 0)  -->
<svg version="1.0" id="Layer_1" xmlns="http://www.w3.org/2000/svg" xmlns:xlink="http://www.w3.org/1999/xlink" x="0px" y="0px"
	 viewBox="0 0 612.2 613.4" style="enable-background:new 0 0 612.2 613.4;" xml:space="preserve">
<path style="fill:#A80D93;" d="M306.3,594.2c-91.4,0-182.9,0-274.3,0c-9.7,0-12.7-3.1-12.7-12.9c0-93.4,0-186.8-0.1-280.3
	c0-5.2,1.7-9.1,5.4-12.6c12.7-12,25.1-24.4,37.9-36.4c3.3-3.1,4.7-6.2,4.7-10.8c-0.2-56.6-0.1-113.1-0.1-169.7
	c0-9.8,3-12.8,12.8-12.8c59.2,0,118.3-0.1,177.5,0.1c3.9,0,6.6-1.1,9.3-3.9c9.9-9.8,20-19.4,30-29.1c7.7-7.4,11.2-7.4,19.1,0.2
	c9.9,9.6,19.9,19,29.6,28.7c2.9,2.9,5.8,4.1,9.9,4.1c59-0.1,117.9-0.1,176.9-0.1c10.2,0,13.1,2.9,13.1,13.1
	c0,56.8,0.1,113.5-0.1,170.3c0,3.9,1.2,6.6,4,9.3c13,12.3,25.8,24.9,38.8,37.3c3.6,3.4,5.2,7.1,5.2,12.1
	C593,394,593,487.2,593,580.4c0,11.1-2.7,13.8-13.6,13.8C488.3,594.2,397.3,594.2,306.3,594.2z"/>
<path style="fill:#F987FA;" d="M526.1,123c0-7.9,0-15.8,0-24.9c-15.8,12.5-30.8,23.6-46.5,33.7c-3.4,2.2-3.6,3.9-1.9,7.4
	c9.4,19.9,18.6,40,27.9,59.9c1.8,3.9,2.2,7.7-0.5,11.2c-2.9,3.8-6.9,4.2-11.3,3.2c-11.3-2.5-22.6-4.6-33.8-7.4
	c-3.6-0.9-4.9,0.3-6.4,3.1c-5.2,9.9-10.6,19.6-15.7,29.4c-2.2,4.1-4.7,7.5-9.8,7.4c-5.4-0.1-7.8-3.7-9.9-8.2
	c-8.6-18.8-17.4-37.5-25.9-56.3c-1.4-3.2-2.7-3.9-6.2-2.7c-9.2,3.2-18.5,6.1-28.1,7.6c-3.7,0.6-4,2.6-4,5.8
	c0.1,21.3,0,42.6,0.1,63.9c0,4.9-0.6,9.1-5.5,11.6c-5,2.5-8.7,0-12.5-2.8c-8.6-6.5-17.3-12.7-25.7-19.5c-3.4-2.7-5.4-2.3-8.5,0.2
	c-8.6,6.8-17.5,13.1-26.2,19.8c-3.7,2.8-7.4,4.7-12,2.2c-4.6-2.4-5.3-6.5-5.2-11.1c0.1-21.3,0-42.6,0.1-63.9c0-3.7-0.7-5.7-4.8-6.3
	c-9-1.4-17.8-4-26.4-7.1c-3.9-1.4-5.6-1-7.5,3.2c-8.2,18.5-16.9,36.8-25.3,55.2c-2,4.4-4.3,8.3-9.7,8.5s-8-3.3-10.3-7.6
	c-4.9-9.3-10.2-18.4-14.9-27.8c-2-4-3.8-5.4-8.5-4.2c-10.4,2.7-21,4.4-31.5,6.8c-4.6,1.1-8.7,1.2-12-2.7s-2.4-8-0.4-12.2
	c9.1-19.6,18-39.3,27.3-58.9c1.7-3.6,1.9-5.4-1.9-7.9c-9.4-6-18.4-12.6-27.4-19.1c-6.2-4.5-12.2-9.2-18.6-14.1
	c-0.1,1.4-0.3,2-0.3,2.6c0,76.5,0,153-0.1,229.5c0,3.6,1.6,5.4,3.9,7.4c29.3,25.2,58.6,50.3,87.7,75.8c4,3.5,5.8,2.9,9.3-0.6
	c36.3-36.6,72.9-73,109.4-109.5c8.1-8.1,11.6-8.1,19.8,0.2c36.6,36.6,73.3,73.2,109.8,109.9c3.3,3.3,5.1,3.1,8.3,0.2
	c29.1-25.4,58.4-50.6,87.8-75.7c3-2.6,4.2-5.1,4.2-9.1C526,260.4,526.1,191.7,526.1,123z"/>
<path style="fill:#F987FA;" d="M370.4,163.9c39.4-11.7,74.8-31.4,108.3-54.7c13.8-9.6,27.3-19.6,40.7-30.8c-142.5,0-284.2,0-426.7,0
	c34.6,27.9,70,52.6,109.6,70.8C256.5,173.9,312.4,181,370.4,163.9z"/>
<path style="fill:#FFFFFF;" d="M183.7,215.3c-4.6-8.5-8.8-15.9-12.6-23.5c-2.9-5.7-7.3-7.4-13.3-6.1c-8.3,1.8-16.6,3.6-26,5.6
	c2.6-5.7,4.8-10.7,7.1-15.6c4.2-9,8.4-18,12.5-27.1c1.1-2.6,1.9-3.8,5.1-1.9c14.1,8.5,28.8,16.1,44,22.5c2.6,1.1,3.8,2.1,2.3,5.3
	C196.3,187.7,190.2,201.1,183.7,215.3z"/>
<path style="fill:#FFFFFF;" d="M480.6,191.3c-9.3-2-17.5-3.8-25.6-5.5c-7.4-1.6-10.4-0.1-14.1,6.6c-4,7.3-7.9,14.6-12.4,22.9
	c-1.7-3.7-3.2-6.7-4.6-9.8c-4.7-10.3-9.4-20.6-14.3-30.7c-1.3-2.8-1.1-4.1,1.9-5.3c15.3-6.5,30.1-14.1,44.4-22.6
	c1.9-1.1,3.2-1.9,4.5,1C466.9,161.9,473.6,176,480.6,191.3z"/>
<path style="fill:#FFFFFF;" d="M334.8,240.3c-7.8-5.8-14.4-10.8-21.1-15.8c-6.1-4.5-8.9-4.6-15-0.1c-6.8,5-13.6,10.1-21.3,15.9
	c0-16.3,0-31.5,0-46.7c0-3.5,2.5-2.5,4.2-2.3c10.5,1.1,21,1.4,31.5,1.1c6.1-0.2,12.3-0.7,18.4-1.2c2.2-0.2,3.3,0.3,3.3,2.8
	C334.8,209.1,334.8,224.1,334.8,240.3z"/>
<path style="fill:#FDD8E8;" d="M311.1,325.6c-4.1-4.1-6-4-10.1,0C220,407,138.7,488.3,57.5,569.5c-1.5,1.5-3,3.1-5,5.2
	c169.5,0,338,0,508.4,0c-2.9-2.4-4.6-3.7-6.1-5.2C473.5,488.2,392.2,407,311.1,325.6z M165.1,427.8C124.5,392.9,84,357.9,43.4,323
	c-1.4-1.2-2.5-3-4.9-3.1c0,80.1,0,160.1,0,240.9c1.1-0.8,1.7-1.1,2-1.4c41.8-41.8,83.6-83.6,125.5-125.3
	C169.4,430.7,167.2,429.6,165.1,427.8z M570.3,321.7c-41.2,35.5-82.3,71-123.6,106.4c-3.6,3.1-1.9,4.4,0.4,6.7
	c41,40.9,82,81.9,123,122.9c1,1,2,1.9,3.5,3.3c0-81,0-161.1,0-241.8C572.1,320.3,571.1,321,570.3,321.7z M66.6,275.4
	c-0.4-0.3-0.8-0.5-1.2-0.8c-7,7.9-13.9,15.7-21.1,23.8c6.6,5.7,14.3,12.3,22.3,19.2C66.6,302.9,66.6,289.2,66.6,275.4z M546.7,274.7
	c-0.4,0.3-0.7,0.7-1.1,1c0,13.7,0,27.5,0,42c8.2-7.1,15.8-13.7,22.1-19.1C560.6,290.5,553.6,282.6,546.7,274.7z M308.4,45.5
	c-1.5-1.7-2.9-1.8-4.4-0.1c-3.9,4.4-7.9,8.8-11.6,13c9.1,0,18.7,0,27.8,0C316.3,54.1,312.3,49.8,308.4,45.5z"/>
<path style="fill:#A80D93;" d="M306,469.8c-7.6,0.4-14-2.8-20.5-6c-2.3-1.2-2.7-2.6-1.3-4.7c0.7-1,1-2.1,1.6-3.2
	c1.8-3.3,2.8-7.8,5.6-9.6c2.9-1.8,6.3,2.2,9.6,3.4c5.9,2.2,10.9,0.2,15.8-2.6c3-1.7,5.1-1.9,6.3,1.9c0.5,1.5,1.4,2.8,2.1,4.3
	c4.8,9.7,4.9,9.7-5.4,13.9C315.3,469,310.7,470.2,306,469.8z"/>
<path style="fill:#A80D93;" d="M268.1,393.4c5.5,0.1,9.6,4.6,9.3,10.1c-0.3,5.2-4.5,9.2-9.8,9c-5.5-0.1-9.6-4.6-9.3-10.1
	C258.6,397.2,262.8,393.3,268.1,393.4z"/>
<path style="fill:#A80D93;" d="M344.3,393.4c5.3-0.1,9.5,3.9,9.7,9.1c0.2,5.5-3.9,9.9-9.4,10c-5.3,0.1-9.5-3.9-9.7-9.1
	C334.6,397.9,338.8,393.5,344.3,393.4z"/>
</svg>
