<?xml version="1.0" encoding="utf-8"?>
<!-- Generator: Adobe Illustrator 23.0.3, SVG Export Plug-In . SVG Version: 6.00 Build 0)  -->
<svg version="1.0" id="Layer_1" xmlns="http://www.w3.org/2000/svg" xmlns:xlink="http://www.w3.org/1999/xlink" x="0px" y="0px"
	 viewBox="0 0 544.1 407.1" style="enable-background:new 0 0 544.1 407.1;" xml:space="preserve">
<path style="fill:#A80D93;" d="M277,265.6c0,21.1,0,42.1,0,63.2c0,3,0.6,6.2-3,7.8c-3.6,1.6-5.7-1-7.9-3
	c-31.9-29.4-62.8-59.7-93.6-90.2c-6-6-15.2-3.7-17.3,4.6c-10.1,38.9-18.6,78.2-27.5,117.4c-0.2,0.8-0.3,1.6-0.5,2.4
	c-0.9,2.8-0.7,6.4-4.5,7.2c-4.2,0.9-5.5-2.6-7.3-5.2c-23.4-33.3-46.8-66.5-70-99.9c-2.4-3.5-4.9-4.6-9-4.1c-9.4,1-18.9,1.6-28.4,2.4
	c-3.7,0.3-7.5,0.1-7.7-4.5c-0.3-4.7,3.5-5,7.2-5.2c55.5-3.3,109.7-13.8,162.9-29.8c3.6-1.1,4.8-2.5,4.7-6.2
	c-0.2-16.8-0.1-33.6-0.1-50.4c0-2.5-0.2-4.5-2.8-6.1c-2.8-1.7-4.1,0.3-5.8,1.4c-32.8,20-65.6,40-98.4,60c-2.3,1.4-4.4,3.1-7.2,1.3
	c-3-1.9-2.5-4.7-2-7.6C65,181.6,71,142,77.4,102.5c0.7-4.2-1.6-5.9-4.1-7.9C49.5,75,26.7,54.4,4.8,32.8c-1-1-2.1-1.9-3-3
	c-2.1-2.3-2.5-4.7-0.1-7c2.3-2.2,4.9-2,7,0.1c4.6,4.3,8.9,8.8,13.5,13.1c59.5,56.5,123.5,107,196.6,145.2c10,5.2,20.3,9.9,30.8,14.3
	c3.1,1.3,5.6,1.2,8.6-0.2c67.6-31.4,128.1-73,182-124.4c21.7-20.7,42-42.7,61-65.9c0.5-0.6,1-1.2,1.6-1.9c2.1-2.6,4.6-4.4,7.7-1.8
	c3.1,2.5,2.1,5.3-0.2,7.9c-5.5,6.5-10.4,13.6-16.6,19.4c-7,6.5-7.8,12.6-4.7,21.6c12.1,35.8,23.2,71.9,34.7,107.8
	c0.9,2.7,2.1,5.4-0.6,7.8c-2.7,2.5-5.3,0.9-7.9-0.2c-36.2-15.1-72.3-30.1-108.5-45.3c-3.9-1.7-7.1-2.1-10.3,1.2
	c-3.4,3.5-8.3,4.9-7,12.3c6.6,38.8,12.4,77.8,18.4,116.8c0.4,2.7,0.7,5.3-1.9,7.1c-2.8,1.9-4.9,0.3-7.2-1.1
	c-33.2-20.9-66.6-41.5-99.6-62.7c-5.9-3.8-9.9-3.4-15.6-0.4c-4.9,2.5-6.9,5.2-6.8,10.9C277.2,224.7,277,245.2,277,265.6z M462,345
	c15.9-31.8,31.4-62.8,47.2-94.3c-11.5-1-22.4-2-33.3-3c-12.5-1.2-25-2.4-37.5-3.6c-3.5-0.3-6.1-1.7-5.8-5.4c0.4-3.8,3.3-4.6,6.8-4.3
	c18.7,1.8,37.5,3.4,56.2,5.3c13.7,1.4,27.5,1,41.2,0.6c3.5-0.1,7-0.1,7.3,4.3c0.3,4.7-3.4,5.3-7.1,5.4c-0.4,0-0.8,0.1-1.2,0
	c-12.4-2.4-18.1,3.9-23.1,14.8c-14.2,30.6-29.9,60.5-45,90.7c-1.3,2.7-2.3,6-6.1,6c-3.8,0-4.7-3.4-5.9-6.1
	c-12.1-27.5-24.2-55.1-36.4-82.6c-1.5-3.4-2.8-6.9,1.6-8.8c4.5-1.9,6,1.7,7.4,4.9c10.2,23.3,20.5,46.6,30.8,69.9
	C459.9,340.5,460.8,342.3,462,345z M323.6,326.2c10.7-12.8,20.7-24.7,30.6-36.6c5.1-6.1,10.1-12.1,15.1-18.2c2.1-2.6,4.6-4.5,7.7-2
	c3.4,2.7,2.1,5.5-0.3,8.3c-17,20.3-33.9,40.7-50.9,61.1c-1.6,1.9-3.2,3.9-6.1,3.1c-3-0.8-3.6-3.3-4.2-6
	c-7.8-37.8-15.7-75.6-23.6-113.3c-0.7-3.6-0.4-6.8,3.7-7.6c3.8-0.7,5.1,2,5.8,5.4c6.8,32.8,13.6,65.7,20.4,98.5
	C322.4,320.8,322.8,322.8,323.6,326.2z"/>
<path style="fill:#A80D93;" d="M245.7,45.5c2.5-2,4.1-3.2,5.7-4.4c13.6-10,28.3-3.5,30.4,13.3c1.4,11.2-8.7,21.2-20.8,20.5
	c-5.6-0.4-10.8-2-14.9-5.9c-2.4-2.3-3.5-2.4-5,0.9c-5.8,12.5-4.5,24.2,3.9,31.2c5.7-9.2,13.2-15.2,24.8-14
	c10.4,1.1,17.4,7.2,17.1,15.3c-0.4,9.1-9.5,17.7-19,17.9c-6,0.1-11.4-2.3-17-3.8c-2.8,8.9-1.2,17.4,1,25.9c1,3.8,2,7.7-2.9,8.9
	c-5.1,1.3-5.7-3.2-6.6-6.7c-2.5-9.7-3.6-19.4-1.7-29.4c0.4-1.9,1.3-3.8-0.9-5.5c-15-11.9-14-31.3-6.4-45.8c3-5.6,3.6-11,3.1-17.2
	c-0.9-13.3,2.2-25.7,11.5-35.9c2.3-2.5,4.8-4,7.8-1.5c3,2.6,1.9,5.4-0.5,7.9C248,24.9,246.3,34.5,245.7,45.5z M320.7,55.4
	c0-10.1,4.5-16.8,11.1-22.4c3.1-2.6,6.4-4.9,9.5-7.5c4.6-3.8,8.6-8,8.6-14.6c0-3.1,1.8-5.1,4.9-5c3.4,0.1,4.9,2.4,4.7,5.8
	c-0.4,8.5-4.6,14.9-10.8,20.2c-3.2,2.7-6.8,5.2-10,7.9c-11.4,9.4-11.3,19.9,0.2,29.4c3.6,3,7.4,5.7,10.9,8.7
	c5.6,4.8,9.1,10.8,9.7,18.2c0.3,3.4-0.5,6.4-4.3,6.7c-3.8,0.4-5.3-2.2-5.4-5.8c-0.2-6.5-4.5-10.6-9.2-14.3c-4.4-3.5-9.1-6.7-13-10.9
	C323.1,66.9,320.9,61,320.7,55.4z M81.7,44.7c-10-0.5-19-10.5-18.5-20.3c0.5-10,10.4-19,20.3-18.5c10,0.5,19.1,10.5,18.6,20.3
	C101.6,36.1,91.5,45.2,81.7,44.7z M413,54.4c-9.9-0.1-19.4-9.6-19.3-19.6s9.6-19.4,19.5-19.3c10,0.1,19.4,9.6,19.4,19.5
	C432.5,45,422.8,54.5,413,54.4z M145.8,88.2c0-3.2-0.1-6.5,0-9.7c0.2-2.8,1.9-4.5,4.7-4.6s4.7,1.7,4.8,4.4c0.2,6.7,0.2,13.4,0,20
	c-0.1,2.8-1.9,4.5-4.7,4.6c-3.1,0-4.8-1.9-4.9-5C145.7,94.7,145.8,91.4,145.8,88.2z M170.5,64.2c3,0,6.1-0.1,9.1,0
	c3.1,0.1,5,1.8,5,4.9c0,2.8-1.8,4.6-4.6,4.7c-6.7,0.1-13.4,0.2-20,0c-2.7-0.1-4.5-2-4.4-4.9c0.1-2.8,1.8-4.5,4.6-4.7
	C163.6,64,167.1,64.2,170.5,64.2z M130.5,73.9c-2.8,0-5.7,0-8.5,0c-3.1-0.1-5.1-1.6-5.2-4.7s1.8-4.9,4.9-5c6.5-0.1,12.9-0.1,19.4,0
	c2.8,0.1,4.6,1.8,4.6,4.6c0.1,3.1-1.8,4.9-4.9,5C137.3,74,133.9,73.9,130.5,73.9z M155.5,49.5c0,3.2,0.1,6.5,0,9.7
	c-0.2,3.1-2,4.9-5.1,4.8c-2.8-0.1-4.5-2-4.5-4.8c-0.1-6.5-0.1-12.9,0-19.4c0.1-3.1,2-4.9,5.1-4.8c2.8,0.1,4.4,2,4.5,4.8
	C155.6,43.1,155.5,46.3,155.5,49.5z"/>
<path style="fill:#FDD8E8;" d="M178.9,236.6c15.8-5.6,30.4-10.5,44.9-16.1c14.4-5.6,28.6-12,43.2-18.1c0,39.5,0,78.8,0,119.4
	C237.4,293.1,208.6,265.2,178.9,236.6z M511.2,153.3c-34.2-14.2-67.5-28.1-101.3-42.2c10.6-9.5,20.9-18.7,31.2-28
	c11.6-10.5,22.6-21.5,33-33c1.8-2,3.4-4.5,5,0.5c10.5,33.3,21.2,66.6,31.8,99.8C511.2,151,511.1,151.6,511.2,153.3z M86.6,105.4
	c24.2,19.1,48.5,36.8,74.5,53.6c-30.7,18.7-60.6,37-91.5,55.8C75.3,177.9,80.9,142.1,86.6,105.4z"/>
<path style="fill:#FCFDFD;" d="M60.3,407.1c-8.4,0-17.2-5.9-17.8-11.9c-0.4-4.1,8.1-10.1,15.8-11c4.9-0.6,9.7,0.4,14,2.8
	c6.7,3.7,7.5,9.4,2.2,14.8C71.1,405.4,66.5,407.1,60.3,407.1z"/>
<path style="fill:#FBFCFC;" d="M262.7,65.4c-5.9-0.1-13.3-4.2-13.5-7.5c-0.2-3,10.2-12.1,14-12.3c4.8-0.3,8.9,4.3,9.1,10.1
	C272.5,61.9,269,65.4,262.7,65.4z"/>
<path style="fill:#FAFBFB;" d="M266.8,96.6c0.4,0,1.9-0.1,3.2,0.4c2.6,1.1,7.1-0.3,7.1,4.8c0,4.4-3.9,8.6-8.4,8.8
	c-4.5,0.3-8.7-1.5-12.9-2.8c-2.5-0.8-2.2-2.3-1.1-4.2C257.1,99.3,260.5,96.4,266.8,96.6z"/>
<path style="fill:#FAFCFC;" d="M82.5,35c-6,0-9.7-3.9-9.6-10c0.1-5.7,3.8-9.4,9.5-9.5c6-0.1,9.9,3.7,9.9,9.7
	C92.4,31.2,88.5,35,82.5,35z"/>
<path style="fill:#FAFCFC;" d="M413.5,25.3c5.9,0.3,9.5,4.3,9.2,10.3c-0.3,5.9-4.5,9.4-10.5,9.1c-5.8-0.4-9.3-4.6-8.9-10.6
	C403.8,28.5,407.8,25,413.5,25.3z"/>
<path style="fill:#F987FA;" d="M118.2,357C96.6,326.2,75,295.5,53,264c27.9-3.6,54.3-8.8,80.6-15.3c12-3,11.8-3,9,9.1
	c-7.5,31.8-14.8,63.7-22.2,95.5C120.1,354.5,120,355.8,118.2,357z M395.1,242.7c-30.8-19.4-61.7-38.7-93.3-58.6
	c27.4-15.1,52.9-31.3,78.1-49.9c5.7,36.5,11.2,72,16.7,107.5C396.1,242.1,395.6,242.4,395.1,242.7z M241.4,202.6
	c-18.3,8.2-35.6,14.3-53,20.2c-2.3,0.8-3.8,1-3.8-2.3c0.1-15.3,0-30.6,0-46.8C203.2,184.3,221.2,194,241.4,202.6z M459.4,347.5
	c-12.4-32.4-24.9-64.7-37.6-97.9c29.6,1.9,58.4,1.9,88.2-0.2c-16.6,33.3-32.8,65.7-49,98C460.5,347.5,460,347.5,459.4,347.5z"/>
</svg>
