<?xml version="1.0" encoding="utf-8"?>
<!-- Generator: Adobe Illustrator 23.0.3, SVG Export Plug-In . SVG Version: 6.00 Build 0)  -->
<svg version="1.0" id="Layer_1" xmlns="http://www.w3.org/2000/svg" xmlns:xlink="http://www.w3.org/1999/xlink" x="0px" y="0px"
	 viewBox="0 0 497 506" style="enable-background:new 0 0 497 506;" xml:space="preserve">
<path style="fill:#A80D93;" d="M253.6,476.6c-74,0-148,0-222,0.1c-4.8,0-6.3-0.9-6.2-6c0.4-15.2,0.3-30.5,0-45.7
	c-0.1-3.9,1-5.2,4.9-4.9c4.3,0.3,8.7-0.3,13,0.2c5.3,0.6,6-1.6,5.9-6.3c-0.2-51.4-0.1-102.9-0.1-154.3c0-6.5-0.1-13.1,0-19.6
	c0.2-20.4,15.9-36.5,36.4-36.9c16.4-0.3,32.8-0.3,49.3,0.1c5.1,0.1,6.1-1.5,6-6.3c-0.2-27.1,0-54.2-0.2-81.3c0-4.5,0.9-6.1,5.8-5.9
	c12.1,0.4,24.1,0.4,36.2,0c5-0.2,5.7,1.7,5.6,6c-0.2,27.3,0,54.6-0.2,81.9c0,4.3,0.8,5.8,5.5,5.6c10.1-0.4,20.2-0.4,30.3,0
	c4.6,0.2,6-0.9,5.9-5.8c-0.3-27.3,0-54.6-0.2-81.9c0-4.7,1.2-5.9,5.9-5.8c12.1,0.3,24.1,0.3,36.2,0c4.6-0.1,5.5,1.4,5.5,5.7
	c-0.2,27.3,0,54.6-0.2,81.9c0,4.6,1.1,6.1,5.8,5.9c9.9-0.4,19.8-0.4,29.7,0c4.6,0.2,6-1.1,6-5.9c-0.2-27.1,0-54.2-0.2-81.3
	c0-4.7,0.9-6.5,6-6.3c12.1,0.4,24.1,0.3,36.2,0c4.3-0.1,5.2,1.3,5.2,5.3c-0.2,27.3,0,54.6-0.2,81.9c0,4.8,1.1,6.4,6.1,6.3
	c16-0.3,32.1-0.2,48.1-0.1c22.6,0.1,38.3,15.9,38.3,38.6c0.1,57.4,0.1,114.8-0.1,172.1c0,5.3,1.3,6.6,6.5,6.4
	c5.6-0.3,13.2-2.6,16.5,1c2.8,3.1,0.8,10.5,0.9,16.1c0,11.3-0.2,22.6,0.1,33.8c0.1,4.4-1,5.5-5.5,5.5
	C402,476.5,327.8,476.6,253.6,476.6z"/>
<path style="fill:#A80D93;" d="M317.8,76.7c0.7-10.3,5.7-20.1,11.9-29.3c2.2-3.3,4.5-6.5,7-9.5c3.4-4.1,8-4.5,11.2-0.5
	c8.8,10.9,16.7,22.5,19,36.8c2.2,14.2-9.9,28.3-24.3,28.4C330,102.6,317.7,90.4,317.8,76.7z M189.8,75.5c0,12.9-5.6,19-13.9,23.7
	c-10.1,5.8-18.5,2.5-26.7-3.5s-9.9-14.5-7.9-23.8c2.8-13.3,10.2-24.2,18.6-34.5c2.8-3.4,7.1-4,9.9-0.8
	C180,48.7,188.8,61.7,189.8,75.5z M278.5,75.8c-0.1,14.9-12.8,28-25.1,26.5c-12.1-1.5-25.2-9.7-24.1-25.6c0.8-12.5,7-22.8,14-32.7
	c9-12.8,11.9-12.8,20.9-0.2C271.6,54.2,277.9,65,278.5,75.8z"/>
<path style="fill:#F987FA;" d="M63.4,277.7c8.3,7.9,16,14.6,24.9,19.8c27.2,16,57.1,12.6,82.3-9.4c4.6-4,9.3-8.1,13-13
	c2.3-3,3.6-2.8,6.1,0c10.7,12.1,22.9,22.4,37.9,28.7c26.8,11.1,50.4,3.7,72.1-13.3c5.8-4.5,11.3-9.4,15.8-15.2
	c2.5-3.3,3.9-3.1,6.5-0.1c11.4,13.1,24.7,24,41.3,29.9c25.1,9,47.1,1.8,67.4-13.7c4.2-3.2,8.1-6.9,12.2-10.4
	c1.4,1.5,0.7,3.3,0.7,4.9c0.1,42.7,0,85.5,0.2,128.2c0,4.9-1.2,6.2-6.2,6.2c-122.7-0.1-245.4-0.1-368.1,0c-5,0-6.2-1.4-6.2-6.2
	C63.5,369.2,63.4,324.1,63.4,277.7z"/>
<path style="fill:#FDD8E8;" d="M253.8,216.9c54.6,0,109.2,0,163.8,0c12.9,0,22.2,5.1,24.6,16c2.7,12.5,5.1,25.6-6.8,36.1
	c-7.4,6.6-14.5,13.3-23.4,18c-18.8,9.9-37.4,9.4-55.7-1c-12-6.8-21.7-16.4-30.3-27.1c-5.7-7.1-9.4-6.9-14.7,0.2
	c-6.5,8.8-14.2,16.5-23.1,22.8c-25,17.6-52,16-76.4-4.5c-6.7-5.6-12.7-11.8-18.1-18.7c-5.2-6.8-9.3-6.6-14.4,0.2
	c-12.2,16.1-26.7,28.9-47.4,33c-13.2,2.6-25.4-0.5-36.9-6.9c-11.7-6.6-21-16-29.7-26.1c-0.5-0.6-1.3-1.3-1.3-1.9
	c-0.2-9.9-2.8-20.1,3.1-29.3c5.4-8.4,13.5-10.8,22.9-10.8C144.6,216.9,199.2,216.9,253.8,216.9z"/>
<g>
	<path style="fill:#FFFFFF;" d="M332.1,148.4c0.5,0.3,0.9,0.5,1.4,0.8c5.6-5.7,11.3-11.5,16.9-17.3c1.8-1.9,1.9-4.5,1.1-6.7
		s-3.1-1.1-4.7-1.2c-3.7-0.1-7.5,0.1-11.2-0.1c-2.5-0.1-3.6,0.6-3.5,3.3C332.2,134.3,332.1,141.3,332.1,148.4z"/>
	<path style="fill:#FFFFFF;" d="M345.3,171.4c7-5.4,7.3-12.2,5.3-20.5c-3.7,3.1-6.5,7.2-10.2,10.2c-7.2,5.7-10.1,12.5-7.3,23.4
		C337.6,179.6,340.9,174.9,345.3,171.4z"/>
	<path style="fill:#FFFFFF;" d="M155,150.7c6.3-6.5,11.4-11.8,16.6-16.9c2.2-2.1,1.9-4.6,1.4-6.8c-0.5-2.8-3.1-1.2-4.7-1.3
		c-3.4-0.2-6.8,0.1-10.2-0.1c-2.5-0.1-3.3,0.7-3.2,3.2C155.1,135.4,155,142.2,155,150.7z"/>
	<path style="fill:#FFFFFF;" d="M257,133.6c2.1-2.1,2.1-4.5,1.5-6.8c-0.7-2.5-3.2-1.2-4.9-1.2c-3.4-0.2-6.8,0-10.2-0.1
		c-2-0.1-3.2,0.3-3.2,2.7c0.1,6.9,0,13.8,0,22.3C246.6,144.1,251.7,138.7,257,133.6z"/>
	<path style="fill:#FFFFFF;" d="M256.9,171.2c7.4-5.4,6.5-12.3,5.7-21c-4.1,4.2-7,7.9-10.7,10.7c-7.5,5.6-9.8,12.7-7.5,22.6
		C248.8,179.1,252.4,174.4,256.9,171.2z"/>
	<path style="fill:#FFFFFF;" d="M167,171.4c7.4-5.2,6.7-12,5.8-20.7c-4.2,4.4-7.1,8.6-10.9,11.4c-7,5.3-8,12-6.2,20.7
		C159.6,178.7,162.8,174.4,167,171.4z"/>
	<path style="fill:#FFFFFF;" d="M262.8,186.2c-5.5,5.6-11.1,11.2-16.8,16.9c17.6,0.9,17.6,0.9,16.9-16.7
		C262.9,186.2,262.5,185.9,262.8,186.2z"/>
	<path style="fill:#FFFFFF;" d="M351.7,185.4c-4.9,3.3-14.6,13-17.8,17.8c5.2,0,9.8,0,14.3,0c2.1,0,3.5-0.4,3.5-2.9
		C351.7,195.6,351.7,190.7,351.7,185.4z"/>
	<path style="fill:#FFFFFF;" d="M173,185.3c-5.2,5.4-10.4,10.7-15.6,16c16.4,1.6,16.4,1.6,15.8-14.7
		C173.2,186.1,173,185.6,173,185.3z"/>
</g>
<path style="fill:#FFFFFF;" d="M352.1,74.5c0,7.2-5.2,13.8-9.7,13.6c-4.5-0.1-9.3-6.3-9.3-12c0-8,4.2-14.5,8.2-21
	c1-1.6,1.7-0.9,2.5,0.2C348,61.6,351.5,68.1,352.1,74.5z M165.1,53.6c4.9,6.4,8.1,12.9,9.6,20.4c0.5,2.3,0,4.3-0.7,6.3
	c-1.5,4.4-4.8,8.1-9.3,7.5c-4.5-0.5-8-4.1-8.6-9.2C155,68.9,160,61.4,165.1,53.6z M254.1,53.6c4.5,7.1,9.1,13.7,9.1,22.2
	c0,6.2-4.8,12.5-9.4,12.3c-5-0.2-10.4-7.9-9.4-13.8C245.7,66.7,248.9,59.9,254.1,53.6z"/>
<path style="fill:#A80D93;" d="M231,361c0-12.6,9.7-22.6,22.3-22.8c12.6-0.3,22.9,10.1,22.9,22.8c0,12.5-10,22.5-22.6,22.5
	C241,383.4,231,373.5,231,361z M88.4,360.9c0-12.6,9.8-22.6,22.3-22.7c12.4-0.1,23.1,10.6,23,23c-0.2,12.3-10.5,22.4-22.9,22.4
	C98.1,383.3,88.4,373.5,88.4,360.9z M418.7,360.9c0,12.7-9.8,22.5-22.4,22.5c-12.4,0-22.7-10.1-22.8-22.4
	c-0.1-12.4,10.6-23.1,23-22.9C409,338.3,418.7,348.3,418.7,360.9z"/>
<path style="fill:#FFFFFF;" d="M262.5,361c-0.1,4.8-4.5,8.9-9.3,8.7c-4.8-0.2-8.8-4.6-8.5-9.5c0.3-4.7,4.3-8.4,9-8.4
	C258.5,352,262.6,356.2,262.5,361z"/>
<path style="fill:#FFFFFF;" d="M119.5,360.7c0.1,5.1-3.7,9.1-8.7,9.1c-4.7,0-9.1-4.4-9-9.1c0.1-4.5,4.1-8.6,8.7-8.7
	C115.4,351.7,119.4,355.6,119.5,360.7z"/>
<path style="fill:#FFFFFF;" d="M396.4,369.7c-5,0-8.8-4-8.7-9.1c0.1-4.9,3.7-8.6,8.4-8.7c4.9-0.1,9.2,4,9.3,8.7
	C405.5,365.3,401.1,369.7,396.4,369.7z"/>
</svg>
