<?xml version="1.0" encoding="utf-8"?>
<!-- Generator: Adobe Illustrator 23.0.3, SVG Export Plug-In . SVG Version: 6.00 Build 0)  -->
<svg version="1.0" id="Layer_1" xmlns="http://www.w3.org/2000/svg" xmlns:xlink="http://www.w3.org/1999/xlink" x="0px" y="0px"
	 viewBox="0 0 526 594" style="enable-background:new 0 0 526 594;" xml:space="preserve">
<path style="fill:#A80D93;" d="M203,374.5c0-52.6,0.1-105.3-0.1-157.9c0-11.9,4.2-21.2,13.7-28.2c11.1-8.1,20.7-18.1,33-24.7
	c2.6-1.4,1.9-3.3,1.9-5.1c0.1-10.3,0.2-20.7-0.1-31c-0.1-4,0.7-5.6,5.2-5.5c14.4,0.2,14.4,0,14.4,14.4c0,8.1-2.4,17.3,0.7,24
	c3,6.4,11.7,10,17.9,14.9c5.9,4.6,11.7,9.3,17.6,14c8.3,6.6,12.4,15.1,12.4,25.8c0,106.5,0,213,0,319.4c0,14.5-9.3,26.4-23.4,30.1
	c-23.2,6-46.4,6.1-69.5,0c-14.4-3.8-23.6-15.5-23.6-30.5C203,480.9,203,427.7,203,374.5z M358.5,408.8c0-41.7,0.1-83.4,0-125.1
	c0-10.9,3.8-19.8,12.6-26.3c11.5-8.6,21.6-19,34.4-25.8c2.5-1.4,1.6-3.5,1.7-5.3c0.1-10.5,0.2-21.1,0-31.6c-0.1-3.2,0.6-4.5,4.2-4.6
	c15.3-0.3,15.3-0.4,15.3,14.7c0,7.5,0,15,0,22.5c0,2.1,0.4,3.4,2.6,4.7c13.6,8.2,25.5,18.6,37.3,28.9c6,5.2,8.6,12.6,8.6,20.7
	c0,84.6,0,169.2,0,253.8c0,13.4-9.7,25.6-22.5,29c-23.6,6.2-47.1,6.4-70.7,0.2c-14.1-3.7-23.3-15.5-23.3-30.2
	C358.5,492.6,358.5,450.7,358.5,408.8z M164.2,409c0,39.9-0.6,79.8,0.2,119.6c0.4,19.3-8.3,34.2-31.4,38.1
	c-21.3,3.6-42.2,3.3-63.1-2.2C57.3,561.1,47.6,549,47.6,536c-0.1-84.8-0.1-169.6,0-254.4c0-9.2,3.8-17.1,11-22.7
	c11.8-9.2,22.6-19.7,35.7-27c2.5-1.4,1.8-3.4,1.8-5.2c0.1-10.7,0.1-21.5,0-32.2c0-3.1,0.7-4.1,4-4.2c15.5-0.5,15.5-0.6,15.5,15.1
	c0,7.9-2,16.5,0.6,23.5c2.5,6.9,11.9,9.2,17.6,14.4s12,9.6,18,14.4c8.3,6.6,12.4,15.1,12.4,25.8C164.1,325.2,164.2,367.1,164.2,409z
	 M310.1,103.5c-0.3,12-2.1,22.3-7.1,31.8c-3.9,7.3-9.7,12.2-17.5,15.1c-3.4,1.3-5.2,1.3-5-3.2c0.3-7.5,0.1-14.3,5.1-21.5
	c7.3-10.2,6.3-22.8,3.2-34.6c-4.2-15.9-14.2-28.4-25-40.3c-1.4-1.6-2.6-2.4-4.4-0.4c-14.9,16.7-28.5,34-27.1,58.2
	c0.5,8.2,2.2,16,8.2,22.2c1.5,1.5,2.6,17.6,1.6,19.4c-1,1.8-2.5,0.8-3.7,0.4c-8.6-2.7-15.1-8-18.9-16c-9.1-19.4-9.1-39.1-0.6-58.7
	c8.1-18.7,20.8-34.1,35.5-47.9c4.3-4.1,9.5-4.5,13.7-0.4c19.4,18.8,36.4,39.2,41.3,66.9C309.9,98,309.9,101.4,310.1,103.5z
	 M154.6,171.3c-0.3,12.3-2,22.8-7.3,32.5c-4.1,7.4-10.2,12.4-18.3,15c-2.9,1-4,0.4-4-2.8c0.2-7.7-0.1-14.7,5-22.1
	c7.4-10.6,6.4-23.5,2.9-35.7c-4.4-15.4-14.1-27.6-24.6-39.2c-1.7-1.9-3-2.2-4.9-0.1c-11.8,13.2-23,27-26,45.1
	c-2.1,12.6-1.3,24.7,7.6,35.6c4.2,5.1,1.3,12.5,1.4,18.8c0,1.9-2.2,1-3.5,0.6c-8.1-2.5-14.5-7.3-18.3-14.9
	c-10.1-20.1-9.9-40.6-0.9-60.9c8.1-18.2,20.6-33.3,35-46.8c4.4-4.1,9.5-4.6,13.7-0.5c19.4,18.8,36.4,39.2,41.4,66.9
	C154.4,165.9,154.4,169.4,154.6,171.3z M436,208.5c-0.9-4.5,1.4-8.7,4.4-13.3c7.4-11.4,7.1-24.2,3.6-36.9
	c-4.3-15.4-14-27.6-24.5-39.2c-1.2-1.3-2.4-3.1-4.4-0.9c-14.1,15.9-27.5,32.1-27.4,55c0,9.5,1.4,18.6,8.4,25.8
	c1.4,1.5,2.4,18.1,1.3,19.5c-1.2,1.5-2.5,0.5-3.8,0.1c-8.8-2.8-15.3-8.4-19-16.7c-8.9-19.8-8.6-39.6,0.3-59.3
	c8.1-18,20.5-32.9,34.7-46.3c4.3-4.1,9.4-4.8,13.7-0.8c19.8,19,37.2,39.7,41.7,68c2.1,13.2,0.1,26.2-5.7,38.5
	c-3.6,7.6-9.5,13-17.3,16.2c-3.9,1.6-6.7,1.9-5.9-3.8C436.2,212.7,436,211.1,436,208.5z"/>
<path style="fill:#F987FA;" d="M300.2,375.1c0,52.8,0,105.7,0,158.5c0,8.8-1.4,10.4-9.8,12.6c-19.6,5.1-39.2,4.9-58.8-0.1
	c-7.6-2-9.2-3.9-9.2-11.8c0-106.3,0-212.6-0.1-318.8c0-4.7,1.4-8,5.2-10.9c8.9-6.7,17.4-13.8,26.2-20.7c5.9-4.6,9.2-4.6,15.2,0
	c8.8,6.9,17.3,14,26.2,20.7c4,3,5.2,6.6,5.2,11.5C300.2,269,300.2,322,300.2,375.1z"/>
<path style="fill:#FDD8E8;" d="M455.7,409.6c0,41.3,0,82.6,0,123.9c0,8.7-1.5,10.6-9.7,12.7c-19.6,5.1-39.2,5-58.8-0.1
	c-7.7-2-9.3-4-9.3-11.8c0-83.8,0-167.6-0.1-251.4c0-4.2,1.2-7.3,4.6-9.9c9-6.9,17.8-14.1,26.7-21.1c6-4.7,9.3-4.7,15.2-0.1
	c8.8,6.9,17.3,14,26.2,20.7c3.7,2.8,5.3,6.1,5.3,10.8C455.7,325.4,455.7,367.5,455.7,409.6z M144.7,408.8c0,41.5,0,83,0,124.5
	c0,9.2-1.3,10.7-10.1,12.9c-19.6,5.1-39.2,4.9-58.8-0.2c-7.3-1.9-8.9-3.9-8.9-11.4c0-83.8,0-167.6-0.1-251.4c0-4.5,1.3-7.6,4.9-10.4
	c9-6.9,17.8-14.1,26.7-21.1c5.7-4.5,9-4.5,14.6,0c8.7,6.9,17.3,14,26.2,20.7c4,3,5.5,6.4,5.5,11.3
	C144.7,325.4,144.7,367.1,144.7,408.8z"/>
</svg>
