<?xml version="1.0" encoding="utf-8"?>
<!-- Generator: Adobe Illustrator 23.0.3, SVG Export Plug-In . SVG Version: 6.00 Build 0)  -->
<svg version="1.0" id="Layer_1" xmlns="http://www.w3.org/2000/svg" xmlns:xlink="http://www.w3.org/1999/xlink" x="0px" y="0px"
	 viewBox="0 0 536 506" style="enable-background:new 0 0 536 506;" xml:space="preserve">
<path style="fill:#A80D93;" d="M69,363.5c0.7-17-1.2-37.9,0.9-58.6c1.9-18.8,7.9-36.4,17-52.9c7.8-14.1,15.4-28.3,23.2-42.4
	c10.1-18.2,15.2-37.7,15-58.6c-0.2-18.3-0.1-36.6,0-54.9c0-2.9-0.1-4.9-3.6-5.9c-3.9-1.1-5.7-4.5-5.7-8.6c0-12.3-0.1-24.5,0-36.8
	c0.1-6.1,3.8-9.7,10-9.7c18.3-0.1,36.6-0.1,54.9,0c6.2,0,9.7,3.7,9.8,9.9c0.1,12.1,0,24.1,0,36.2c0,4.1-1.5,7.7-5.4,8.8
	c-4.2,1.2-4,3.7-4,6.9c0.1,18.1,0.2,36.2,0,54.3c-0.2,20.7,4.8,40,14.8,58.1c7.8,14.1,15.4,28.3,23.2,42.4
	c12.3,22,18.3,45.6,18.2,70.9c-0.2,33.3,0,66.6-0.2,99.8c0,4,0.9,5.2,5.1,5.2c21.6-0.2,43.2-0.2,64.8,0c4.2,0,5.1-1.2,5.1-5.2
	c-0.2-28.2-0.2-56.4,0-84.7c0-3.5-1-4.9-4.3-6.1c-22.5-7.8-35-28.6-32.8-52.4c3-32.9,5.3-65.9,7.9-98.9c0.4-5,0.7-10.1,1.2-15.1
	c0.6-5.4,3.8-8.6,9.2-8.7c18.7-0.2,37.4-0.1,56.1,0c5.5,0,8.9,3.5,9.4,9.2c2,25.6,3.9,51.2,5.9,76.8c1,12.4,1.8,24.8,3.1,37.2
	c2.4,23.4-10.5,44.2-32.7,51.9c-3.2,1.1-4.5,2.4-4.4,6c0.2,28.2,0.2,56.4,0,84.7c0,4.6,1.4,5.3,5.6,5.3c33.9-0.2,67.7-0.2,101.6,0
	c4,0,5.2-0.9,5.2-5.1c-0.2-28.2-0.2-56.4,0-84.7c0-3.3-0.8-5-4.2-6.2c-22.2-7.6-35-28-33-51.1c3.2-37.6,6.1-75.2,9-112.8
	c0.6-8.2,3.6-11.2,11.6-11.2c17.3,0,34.6,0,52,0c7.7,0,10.7,3.1,11.3,10.8c3,37.8,5.9,75.6,9.1,113.4c1.9,22.8-11,43.3-32.7,50.8
	c-3.7,1.3-4.5,2.9-4.5,6.5c0.2,28,0.2,56.1,0,84.1c0,4.4,1.1,5.5,5.4,5.4c15.4-0.3,30.7,0,46.1-0.2c3.4,0,4.7,0.5,4.7,4.4
	c0.1,14.4,0.3,14.8-13.9,14.2c-6.3-0.2-9.8,1.3-12.3,7.4c-3.1,7.9-7.6,15.3-11.3,23c-2.4,5-5.9,7.2-11.5,7.2
	c-135.7-0.1-271.3-0.1-407,0c-5.6,0-9.1-2.2-11.5-7.1c-4.1-8.6-8.8-16.9-12.6-25.6c-1.7-3.9-4.1-5-8-4.8c-4.5,0.3-9,0-13.4,0.1
	c-2.6,0.1-3.6-0.8-3.3-3.3c0.1-0.4,0-0.8,0-1.2c-0.3-14.2-0.3-14.2,13.9-14.2c12.5,0,24.9-0.1,37.4,0.1c3.7,0.1,4.9-0.9,4.9-4.8
	C68.8,404.2,69,385.8,69,363.5z M56.3,446.4c139.4,0,278.2,0,417.8,0c-2.9,5.7-5.6,10.8-8,16.1c-1.5,3.2-4.2,2.3-6.6,2.3
	c-30.2,0-60.3,0-90.5,0c-99,0-198.1,0-297.1,0.1c-5.1,0-7.9-1.4-9.6-6.1C60.8,454.7,58.5,450.8,56.3,446.4z"/>
<path style="fill:#FDD8E8;" d="M152.9,427.4c-20,0-40.1-0.1-60.1,0.1c-4,0-5.2-1-5.2-5.1c0.2-35.6-0.1-71.2,0.2-106.8
	c0.1-18.8,5.5-36.4,14.6-52.8c7.7-14,15.2-28,23-41.9c10.5-18.6,16.6-38.5,18.1-59.7c0.3-3.8,1.4-4.8,5.1-4.8
	c13.6,0,13.4-0.1,15,13.2c2.2,18.2,8.4,35,17.1,51c9.8,18.1,20.6,35.7,29,54.5c5.8,13.1,8.7,27,8.7,41.3c0.1,35.2,0,70.4,0.2,105.6
	c0,4.5-1.3,5.4-5.6,5.4C193,427.3,172.9,427.4,152.9,427.4z M451.8,231.2c-6.4,0-12.8-0.1-19.3,0c-2.8,0.1-4.2-0.4-4-3.8
	c1.4-16.5,2.6-33,3.7-49.5c0.2-2.3,1.2-2.9,3.3-2.9c10.9,0.1,21.8,0.1,32.7,0c2.5,0,3.3,1,3.5,3.4c1.1,16.1,2.3,32.2,3.7,48.3
	c0.3,3.7-0.8,4.7-4.4,4.5C464.7,231,458.2,231.2,451.8,231.2z M321,231.2c-6.4,0-12.8-0.1-19.3,0c-2.9,0.1-4.2-0.5-3.9-3.8
	c1.4-16.5,2.6-33,3.7-49.4c0.2-2.3,1.3-2.9,3.4-2.9c10.9,0.1,21.8,0.1,32.7,0c2.6,0,3.3,1,3.5,3.4c1.1,16.1,2.3,32.2,3.7,48.3
	c0.3,3.8-1,4.6-4.4,4.5C333.8,231,327.4,231.2,321,231.2z M153.3,53.7c4.9,0,9.7,0.2,14.6-0.1c3.1-0.2,3.8,1.1,3.9,4
	c0.5,14.7,0.6,14.7-14.1,14.7c-6.4,0-12.8-0.2-19.2,0.1c-3.4,0.1-4.1-1.1-4.2-4.3c-0.3-14.5-0.4-14.4,13.8-14.4
	C149.8,53.7,151.6,53.7,153.3,53.7z"/>
<path style="fill:#A80D93;" d="M106.3,361.4c0-11.7,0-23.3,0-35c0-7.7,3.4-11.1,11-11.1c23.9,0,47.8-0.1,71.8,0
	c7.2,0,10.6,3.5,10.6,10.8c0.1,23.9,0.1,47.8,0,71.8c0,7.3-3.4,10.8-10.7,10.8c-23.9,0.1-47.8,0.1-71.8,0c-7.6,0-10.9-3.4-11-11.1
	C106.3,385.5,106.3,373.5,106.3,361.4z"/>
<path style="fill:#F987FA;" d="M293.2,287.2c0.9-12.5,1.8-23.3,2.5-34.1c0.2-2.5,1.3-3.2,3.7-3.2c14.6,0.1,29.1,0.1,43.7,0
	c2.8,0,3.7,1,3.8,3.7c0.7,10.8,2,21.7,2.3,32.5c0.7,23-21.8,36.7-42.2,25.9C296.5,306.3,293.1,296.9,293.2,287.2z M451.9,249.9
	c7.2,0,14.4,0.1,21.6-0.1c3-0.1,4,0.9,4.2,3.9c0.6,10.5,1.9,20.9,2.3,31.4c0.9,21.5-15.6,34.4-36.4,29c-11.5-3-19.6-12.8-19.4-25.3
	c0.2-12,1.6-24,2.3-36c0.2-2.7,1.7-3,3.9-3C437.5,249.9,444.7,249.9,451.9,249.9z M143.7,114.4c0-6.6,0.1-13.2-0.1-19.8
	c-0.1-2.7,0.8-3.5,3.6-3.7c15.2-0.7,15.2-0.8,15.2,14.1c0,9.5-0.1,19,0.1,28.5c0.1,3.3-0.9,4.2-4.2,4.3
	c-14.6,0.3-14.6,0.4-14.6-14.1C143.7,120.6,143.7,117.5,143.7,114.4z M152.5,390c-8,0-15.9-0.1-23.9,0.1c-2.8,0.1-3.6-0.9-3.6-3.6
	c0.1-16.3,0.1-32.6,0-48.9c0-2.8,0.9-3.6,3.6-3.6c16.3,0.1,32.6,0.1,48.9,0c2.8,0,3.6,0.9,3.6,3.6c-0.1,16.3-0.1,32.6,0,48.9
	c0,2.8-0.9,3.6-3.6,3.6C169.2,389.9,160.8,390,152.5,390z"/>
</svg>
