<?xml version="1.0" encoding="utf-8"?>
<!-- Generator: Adobe Illustrator 23.0.3, SVG Export Plug-In . SVG Version: 6.00 Build 0)  -->
<svg version="1.0" id="Layer_1" xmlns="http://www.w3.org/2000/svg" xmlns:xlink="http://www.w3.org/1999/xlink" x="0px" y="0px"
	 viewBox="0 0 613.3 613.7" style="enable-background:new 0 0 613.3 613.7;" xml:space="preserve">
<path style="fill:#A80D93;" d="M219.2,143.1c-4.9-2.8-10-5.4-14.8-8.5c-23.1-14.7-33.8-39.3-28.5-65.1c4.7-22.8,24.5-42.3,47-46.4
	c26.3-4.8,50.3,6.1,64.8,29.2c7.5,12.1,12.6,25.2,16.9,38.7c0.6,2,1.3,4,2.5,7.6c2.3-6.9,4.1-12.4,6.1-17.9
	c4.5-12.8,10-25.2,18.8-35.7c15.9-19.2,36.4-26.9,60.7-21.5c24.3,5.5,40,21.2,45.5,45.5c5.5,24.5-2.5,45.1-21.9,61.1
	c-6.4,5.3-13.8,9.1-21.1,14c3,0,6,0,9.1,0c51.4,0,102.8,0,154.2,0c22.4,0,34.5,12.5,34.5,34.9c0,24.7,0,49.4,0,74.1
	c0,10.1-3.4,13.5-13.7,13.5c-7.2,0-14.4,0.3-21.5-0.1c-4.5-0.2-5.7,1.1-5.6,5.6c0.2,35.7,0.1,71.3,0.1,107c0,60.6,0,121.1,0,181.7
	c0,19.2-13.1,32.2-32.3,32.2c-141.6,0-283.3,0-424.9,0c-19.5,0-32.5-13.2-32.5-32.7c0-96,0-192,0.1-288.1c0-4.3-0.7-6-5.5-5.7
	c-7.9,0.4-15.9,0.2-23.9,0.1c-7.5-0.1-11.4-4-11.4-11.5c-0.1-26.9-0.2-53.8,0-80.7c0.1-17.5,14.1-30.3,32.5-30.3
	c51.4,0,102.8,0,154.2,0c3.6,0,7.1,0,10.7,0C219,143.9,219.1,143.5,219.2,143.1z"/>
<path style="fill:#FDD8E8;" d="M246.1,420.2c0,48.8-0.1,97.6,0.1,146.4c0,5.7-2,6.3-6.8,6.3c-47.8-0.2-95.6-0.1-143.4-0.1
	c-9.9,0-13.4-3.5-13.4-13.9c0-68.3,0-136.6,0-204.9c0-27.1,0.1-54.2-0.1-81.2c0-4.7,1.2-5.9,5.9-5.9c50.6,0.2,101.2,0.2,151.7,0
	c4.6,0,6,1,6,5.8C246,321.8,246.1,371,246.1,420.2z M368.3,420c0-49.2,0.1-98.4-0.1-147.6c0-4.4,1-5.7,5.6-5.6
	c50.8,0.2,101.6,0.2,152.3,0c5.1,0,5.7,1.8,5.7,6.1c-0.1,90.8-0.1,181.6-0.1,272.4c0,5.2,0.1,10.4,0,15.5c-0.2,7.9-4,11.9-11.8,11.9
	c-49,0.1-98,0-147,0.1c-4.4,0-4.7-1.8-4.7-5.3C368.3,518.4,368.3,469.2,368.3,420L368.3,420z"/>
<path style="fill:#A80D93;" d="M266.5,368.5c0-65.3,0.1-130.7-0.1-196c0-5.8,1.1-7.8,7.4-7.7c22.7,0.4,45.4,0.4,68.1,0.1
	c5.2-0.1,6.1,1.7,6.1,6.4c-0.1,90-0.1,180.1-0.1,270.1c0,41.8-0.1,83.7,0.1,125.5c0,4.5-0.8,6.2-5.8,6.1c-23.1-0.3-46.2-0.3-69.3,0
	c-5.5,0.1-6.5-1.7-6.5-6.7C266.5,500.3,266.5,434.4,266.5,368.5z"/>
<path style="fill:#F987FA;" d="M143.9,246.4c-31.9,0-63.7-0.1-95.6,0.1c-5.4,0-6.6-1.6-6.5-6.7c0.3-20.5,0.1-41,0.2-61.6
	c0-10.2,3.1-13.4,13-13.4c61.8-0.1,123.5,0,185.3-0.1c4.7,0,6,1.4,5.9,6c-0.2,23.3-0.3,46.6,0,69.9c0.1,5-1.7,5.8-6.1,5.8
	C208,246.4,176,246.4,143.9,246.4z M469.9,246.4c-32,0-64.1-0.1-96.1,0.1c-4.6,0-5.6-1.3-5.6-5.7c0.2-23.5,0.2-47,0-70.5
	c0-4.5,1.3-5.6,5.7-5.6c62.1,0.1,124.2,0.1,186.3,0.1c8.7,0,12.3,3.6,12.3,12.4c0.1,21.3-0.1,42.6,0.1,63.9c0,4.2-1.1,5.4-5.3,5.3
	C534.8,246.3,502.3,246.4,469.9,246.4L469.9,246.4z M376.9,42.3c19.3,0,34.6,10.7,40.3,26.8c5.7,16.3,0.5,34.3-13.3,44.9
	c-15.8,12.2-34.6,17.5-53.5,22.4c-8.8,2.3-17.9,3.8-26.8,5.6c-2.1,0.4-4.8,1.4-4-2.6c4.9-26.2,10.2-52.3,24.1-75.7
	C351.6,50.4,363.4,43,376.9,42.3z M235.3,42.2c15.5,0.7,27.1,7.9,35.2,21.1c11.2,18.3,16.6,38.6,21.1,59.2c1.2,5.4,2,10.9,3.1,16.4
	c0.5,2.4,0.6,3.9-2.7,3.3c-26.4-4.9-52.7-10.2-76.1-24.4c-14.7-8.9-22.5-22.2-20.6-39.4c1.8-16.8,11.3-28.5,27.7-34
	C226.9,43,231,42.2,235.3,42.2z"/>
</svg>
