<?xml version="1.0" encoding="utf-8"?>
<!-- Generator: Adobe Illustrator 23.0.3, SVG Export Plug-In . SVG Version: 6.00 Build 0)  -->
<svg version="1.1" id="Layer_1" xmlns="http://www.w3.org/2000/svg" xmlns:xlink="http://www.w3.org/1999/xlink" x="0px" y="0px"
	 viewBox="0 0 512.2 512.2" style="enable-background:new 0 0 512.2 512.2;" xml:space="preserve">
<path style="fill:#1C71DA;" d="M504.5,256.5c-1,137.8-112.1,248.6-248.8,248C117.8,503.9,6.4,392,7.7,255.3
	C9,117.7,120.1,7.3,256.4,7.6C396.4,8,504.7,122.7,504.5,256.5z"/>
<path style="fill:#FFFFFF;" d="M325.9,33.5c-12.2,22.8-24.3,45.4-36.4,67.9c-12.2,22.7-24.4,45.4-36.4,68.1
	c-1.5,2.8-3.3,4.1-6.5,4.4c-37.6,3.8-68.9,35-72.6,72.4c-0.3,2.5-0.6,4.6-3.3,6.1c-45.3,24.2-90.5,48.5-135.8,72.7
	c-0.3,0.2-0.6,0.2-0.9,0.4c-20.5-57-16.7-147.9,43.1-219C142.8,28.4,243.4,7.2,325.9,33.5z"/>
<path style="fill:#D0E8FF;" d="M439.1,207.9c12.5-6.8,25-13.7,37.5-20.5c3.5-1.9,3,1.4,3.4,2.8c5.6,19.1,8.7,38.5,9.4,58.4
	c3.4,101.4-59.1,191.4-151.3,226c-48.8,18.3-98.4,19.6-148.5,5.3c-2-0.6-3.6-0.9-2-3.8c9.2-16.7,18.2-33.5,27.3-50.3
	c40.4-2.7,77.6-14.9,111.9-36.4c14.2-8.9,27.4-19.1,39.2-30.8c22.1-21.9,39.8-46.9,52.3-75.5c9-20.8,14.9-42.4,18.1-64.8
	C437,214.8,436,210.8,439.1,207.9z"/>
<path style="fill:#FFFFFF;" d="M439.1,207.9c-1.9,14.3-4,28.5-7.8,42.4c-7.8,28-19.9,53.8-37,77.3c-7.9,10.9-16.4,21.4-26,30.7
	c-26.1,25.2-56,44.4-90.6,56.2c-18.4,6.3-37.3,10-56.6,12.5c-2,0.2-4.4,1-6.1-1.1c12.2-23,24.5-46,36.7-69c2.7-5,5.5-9.9,8-15
	c1.2-2.4,2.8-3.3,5.4-3.6c37.9-4.7,66-30.8,72.5-68.4c1.2-7.2,4.4-10.3,10.1-13.4c29.9-15.9,59.7-32,89.6-48.1
	C437.7,208.1,438.4,208.1,439.1,207.9z"/>
<path style="fill:#D0E8FF;" d="M174.1,267.9c2.4,14.9,8,27.9,17,39.3c1.6,2,0.3,2.9-0.9,4.1c-5.8,5.8-11.5,11.5-17.3,17.3
	c-27.9,27.9-55.9,55.8-83.7,83.8c-2.6,2.6-3.8,2.8-6.4-0.1c-17.9-20.4-32.7-42.7-42.9-68c-1.1-2.7-1.3-4.2,1.8-5.8
	c43.5-23.2,87-46.6,130.5-69.9C172.6,268.4,173.1,268.3,174.1,267.9z"/>
<path style="fill:#FFC504;" d="M244.1,338.9c-0.6,1.2-1.1,2.1-1.6,2.9c-22.9,42.8-45.8,85.5-68.7,128.3c-1.4,2.6-2.5,3.6-5.7,2.3
	c-26-10.4-48.7-25.7-69.5-44.2c-1.6-1.4-2-2.5-0.2-3.9c0.5-0.4,0.9-0.9,1.4-1.4c33.3-33.3,66.7-66.6,99.9-100.1
	c2.4-2.4,3.8-3,6.8-0.7c9.8,7.7,21,12.6,33.3,15C241.4,337.5,243.2,337.4,244.1,338.9z"/>
<path style="fill:#FFC504;" d="M267.8,173.7c10.7-20,21.3-39.7,31.9-59.4c12.8-23.9,25.7-47.7,38.3-71.6c1.7-3.3,3.2-4.1,6.8-2.5
	c24.7,10.8,47.5,24.5,67.6,42.7c2.9,2.6,2.6,3.9,0,6.5c-33.5,33.3-66.9,66.8-100.4,100.3c-1.4,1.4-2.4,3.5-5.2,1.3
	c-10.8-8.7-23.3-14-36.9-16.5C269.3,174.3,268.8,174,267.8,173.7z"/>
<path style="fill:#FFFFFF;" d="M256.2,188.3c37,0.1,67.7,30.9,67.7,67.9c0,37.3-30.9,68-68.2,67.8c-37-0.1-67.6-31.1-67.5-68.1
	C188.4,218.8,219.2,188.2,256.2,188.3z"/>
<path style="fill:#D0E8FF;" d="M331,220.2c-3.2-5.1-5.7-10.5-9.7-15c-2.2-2.4-0.1-3.5,1.2-4.8c16.7-16.7,33.4-33.4,50.1-50.1
	c16.8-16.8,33.7-33.6,50.4-50.6c2.6-2.7,3.8-2.8,6.4,0.1c17.1,19.7,31.7,40.9,41.6,65.2c-1.1,1.2-2.7,1.3-4.2,1.3
	c-18.9-0.8-36,5.9-52.9,12.9c-26.6,11.1-52.1,24.5-77,39.1C335.1,219.4,333.4,221,331,220.2z"/>
<path style="fill:#D0E8FF;" d="M331,220.2c21.4-12.5,43.1-24.3,65.5-34.7c18.2-8.5,36.7-16.2,56.6-19.8c5.9-1.1,11.9-0.3,17.9-0.5
	c3,6.6,3,6.6-3,9.9c-41.5,22.3-83.1,44.6-124.6,66.8c-1.5,0.8-2.9,1.5-5,2.6C336.7,235.8,334.2,227.9,331,220.2z"/>
<path style="fill:#1C71DA;" d="M75.4,239.7c7.4-72.9,43.6-124.8,111.9-153c19-7.8,39-10.9,59.4-11.4c5.7-0.1,9.2,2.7,9.4,7.4
	c0.1,4.6-3.1,7.5-9,7.7c-44.2,1.1-82,17.1-112.6,49c-27.5,28.6-41.9,63-43.8,102.7c-0.1,2.3-0.1,4.7-0.3,7c-0.4,4.2-2.9,6.6-7.1,7
	c-4,0.3-7.4-2.6-7.8-6.9C75.2,246.1,75.4,242.9,75.4,239.7z"/>
<path style="fill:#A60A94;" d="M293,256.3c-0.1,20.2-16.8,36.8-37,36.7c-20.2-0.1-36.8-16.8-36.7-37c0.1-20.1,16.9-36.8,37-36.7
	C276.4,219.3,293.1,236.1,293,256.3z"/>
<path style="fill:#D0E8FF;" d="M277.9,256.1c0,11.8-9.8,21.7-21.6,21.8c-11.9,0.1-22.1-9.9-22.1-21.9c0-11.9,10.2-22,22.1-21.8
	C268.2,234.4,278,244.4,277.9,256.1z"/>
</svg>
