<?xml version="1.0" encoding="utf-8"?>
<!-- Generator: Adobe Illustrator 23.0.3, SVG Export Plug-In . SVG Version: 6.00 Build 0)  -->
<svg version="1.1" id="Layer_1" xmlns="http://www.w3.org/2000/svg" xmlns:xlink="http://www.w3.org/1999/xlink" x="0px" y="0px"
	 viewBox="0 0 513.1 513.1" style="enable-background:new 0 0 513.1 513.1;" xml:space="preserve">
<path style="fill:#1C71DA;" d="M125.2,499.7c-6-4-7.5-8.9-3.8-13.2c1.4-1.6,3.2-3.2,5.2-2.8c5.1,0.9,7.8-2.3,10.8-5.3
	c9.9-10,19.8-19.9,29.8-29.8c2.2-2.1,2.7-3.3-0.4-5.1c-6.4-3.7-12.3-8.3-17.9-13.2c-1.7-1.5-3.1-2.2-5.4-0.8c-3.3,2-6.5,1-9.1-1.6
	c-2.6-2.6-3.4-5.9-1.4-9.1c1.2-2,1-3.2-0.4-4.9c-18.9-21.7-30.6-46.8-35.3-75.2c-0.5-2.8-1.1-5.6-1.3-8.4c-0.3-4.4,0.3-8.4-5.7-10.7
	c-5.4-2.1-3.9-11,2.1-13.4c2.5-1,3.2-2.1,3.4-4.7c2.5-33.2,14.7-62.3,36.2-87.6c1.6-1.8,2.5-3.1,0.9-5.6c-2-3.2-1-6.5,1.6-9.1
	c2.6-2.7,6.1-3,9.2-1.3c2.2,1.2,3.3,0.8,4.9-0.6c12-10.5,25.3-18.9,40-24.9c3-1.2,3.9-2.8,3.9-6c-0.2-11.4-0.2-22.7,0-34.1
	c0-3.1-0.6-4.4-4.1-4.4c-37.9,0.1-75.8,0.1-113.7,0.1c-4.1,0-8.2-0.3-12.3-0.5c-3.9-0.3-6.5-2.3-7.3-6.2c-0.8-4,0.6-7.6,4.5-8.9
	c3.1-1,3.2-2.8,3.2-5.3c0-24.2,0-48.3-0.1-72.5c0-1.4,0.8-2.9-1.2-4.1c-8.6-5.1-9.1-9.7-1.7-16.1c50.6,0,101.1,0,151.7,0
	c6.9,2.9,8.5,10.9,2.4,15.3c-5.2,3.7-3.8,8.5-3.6,13.2c0.1,2,1.9,2.1,3.5,2.4c10,1.3,12.3,3.9,12.3,14.1c0,8.1,0.1,16.1,0,24.2
	c-0.1,9.3-2.6,12.1-11.8,12.8c-3,0.2-4.3,1.3-4.3,4.3c0,4.7-0.4,9.1,4.5,12.5c4.6,3.3,4.2,10-0.5,13.5c-3.3,2.4-4.1,5.1-4,8.9
	c0.2,7.6,0,15.2,0.1,22.7c0.1,4.7,0.5,5.1,4.9,4.1c6.8-1.5,13.7-2.6,20.6-3.2c2.3-0.2,3.7-1.2,5-3c5.5-7.3,11.1-7.2,16.7,0.2
	c1.2,1.7,2.6,2.5,4.7,2.7c7.2,0.8,14.4,1.8,21.5,3.5c3.1,0.7,4.4-0.2,4.4-3.4c0-8.7,0-17.4,0-26.1c0-2.4-1-4-3-5.5
	c-6.1-4.7-6.2-10.6-0.5-15.5c3.1-2.7,4.7-10.2,3.1-13.8c-0.8-1.9-2.4-1.7-4-1.8c-9.2-0.8-11.6-3.3-11.7-12.4
	c-0.1-8.8-0.1-17.7,0-26.5c0.1-8,3.3-11.6,11.3-12.1c3.8-0.2,4.8-1.9,4.8-5.3c0-4.2-0.3-7.7-4.3-10.7c-5.7-4.3-3.9-12.2,2.8-15
	c50.6,0,101.1,0,151.7,0c7.3,6.5,6.9,10.5-1.8,16.1c-1.7,1.1-1.2,2.5-1.2,3.7c0,24.6,0,49.3,0,73.9c0,1.9,0.3,3.2,2.5,3.9
	c4.3,1.5,6.2,4.8,5.2,9.3c-1,4.3-4,6-8.3,6.2c-14.1,0.8-28.1,0.4-42.2,0.4c-27.3,0.1-54.7,0.1-82-0.1c-4.1,0-5,1.3-4.9,5.1
	c0.2,11.2,0.2,22.4,0,33.6c-0.1,3.3,1.1,4.6,4,5.8c14.5,6.1,27.7,14.3,39.6,24.7c1.4,1.3,2.5,2.4,4.8,1c3-1.8,6.4-1.5,9.2,1.1
	c2.8,2.7,3.6,6.1,1.7,9.5c-1.3,2.2-0.6,3.2,0.8,4.8c19,22.3,30.7,47.9,35.5,76.7c0.4,2.5,0.9,5,0.9,7.5c-0.1,4.4,0.7,7.4,5.4,9.8
	c5.8,3,4.3,11.4-2.1,13.7c-2.5,0.9-3,2-3.1,4.3c-2.6,32.8-14.6,61.8-35.6,87c-1.9,2.3-3.6,3.8-1.4,7.2c2,3,0.5,6.2-2,8.5
	c-2.5,2.3-5.6,3.5-8.6,1.4c-2.6-1.7-4.1-0.8-6,1c-5.4,4.9-11.3,9.1-17.5,12.9c-2.5,1.5-3.1,2.4-0.7,4.7c11.3,11,22.4,22.2,33.6,33.5
	c1.3,1.3,2.7,2.1,4.6,1.9c4.6-0.4,8.2,1,9.7,5.7c1.6,5-1.5,8-5.3,10.4c-9.8,0-19.6,0-29.4,0c-6.7-2.6-8.3-7.1-4.5-13.4
	c1.4-2.4,1.2-3.9-0.7-5.7c-7.6-7.6-15.3-15.1-22.8-22.8c-2.1-2.2-4.2-2.4-6.8-1.2c-14.9,6.4-30.5,10.3-46.7,11.3
	c-1.9,0.1-3.1,1.1-4.1,2.7c-5.2,7.9-12,7.9-17.5-0.1c-1.2-1.8-2.6-2.5-4.7-2.7c-15.9-1.1-31.2-4.9-45.8-11c-3.1-1.3-5.2-1-7.5,1.4
	c-7.5,7.7-15.1,15.2-22.7,22.8c-1.6,1.6-2.6,2.6-0.6,5c4.5,5.6,2.6,11-4.1,13.7C144.8,499.7,135,499.7,125.2,499.7z"/>
<path style="fill:#D0E8FF;" d="M380.1,353.7c-4.7,18-13.8,33.8-25.6,47.9c-21.5,25.6-48.8,41.7-81.7,47.3
	c-39.6,6.8-75.7-2.1-107.8-26.5c-21.4-16.2-36.4-37.3-45.6-62.5c-0.8-2.1-1.8-4-1.7-6.3c2.5,0.1,3.2,2.3,4.1,4
	c13,24,31.3,42.9,54.8,56.6c8.3,4.9,17.1,8.8,26.2,11.9c2,0.7,3.9,1,6,0.9c10.4,2.6,20.8,5.1,31.6,6.1c14.1,1.4,27.7-1.1,41.2-4.3
	c1.5-0.4,3-1,4.6-1.1c5.6,0.6,10.5-2,15.4-4c32.9-13.5,58.1-35.6,74.9-67.1C377.3,355.3,377.8,353.4,380.1,353.7z"/>
<path style="fill:#D0E8FF;" d="M117.5,274.1c5.3-20.1,15.7-37.4,29.5-52.7c21.7-23.8,48.5-38.8,80.3-43.5
	c38.3-5.7,73.3,2.9,104.4,26.2c21.4,16,36.6,36.8,46,61.8c0.7,1.8,1.1,3.6,1.6,5.4c-0.7,2.3-1.7,0.5-2.1-0.1c-1.5-2-2.7-4.3-3.9-6.5
	c-17.4-29.4-42.3-49.7-73.9-62.2c-4-1.6-8-2.9-12.4-3.1c-1.7-0.2-3.4-0.6-5.1-1.1c-22.6-6.3-45.2-6.1-67.7,0.4
	c-2.1,0.6-4.2,1.4-6.4,1.6c-6.3-0.1-11.6,3-17,5.4c-30.6,13.4-53.5,35.2-69.6,64.3C120.5,271.7,120.3,274.1,117.5,274.1z"/>
<path style="fill:#A60A94;" d="M378.3,30.6c12.4-0.1,24.9-0.1,37.3-0.2c2.8,0,3.4,1.2,3.4,3.7c-0.1,24.4-0.1,48.9,0,73.3
	c0,3-1.1,3.8-3.9,3.7c-12.3-0.2-24.6-0.1-36.9-0.2c-1.7-1.8-1.5-4.1-1.5-6.3c0-22.6,0-45.2,0-67.7C376.8,34.7,376.6,32.4,378.3,30.6
	z"/>
<path style="fill:#FFFFFF;" d="M288,198.4c6.4,0.4,12.1,3.1,17.8,5.6c13.7,5.8,26,13.7,37.5,23.2c14.6,12.1,25.6,27,34.7,43.5
	c0.3,0.5,0.5,1.3,1.3,0.6c7.1,19,7.7,38.7,6,58.5c-0.7,8.2-2.5,16.1-5.3,23.9c-3.6,5.7-7,11.5-10.7,17.1
	c-15.8,23.2-36.3,40.7-62.3,51.8c-5.4,2.3-10.8,4.4-16.3,6.2c-1.2,0.4-2.3,1.2-3.5-0.1c0.9-1.9,2.9-2.3,4.6-3.1
	c42.8-18.1,69.2-49.6,75.7-95.9c5.4-38.8-6.2-72.6-33.7-100.9c-12-12.3-26.1-21.3-42.1-27.5C290.3,200.8,288.4,200.5,288,198.4z"/>
<path style="fill:#FFFFFF;" d="M117.5,274.1c4-6.2,7.5-12.7,11.6-18.8c17-24.8,39.6-42.3,67.5-53.2c3.3-1.3,6.5-3.3,10.4-2.9
	c-0.2,2.2-2.2,2.5-3.7,3.2c-26.8,11.5-47.4,30-61,55.8c-8.2,15.5-12.4,32.2-13.2,49.9c-0.9,21.2,3.1,41.1,12.7,59.9
	c13.3,26,33.7,44.6,60.4,56.4c2,0.9,4.3,1.2,5.4,3.5c-3.9,1-7.3-1.1-10.7-2.4c-23.3-9.3-43.3-23.2-59.6-42.6
	c-7.7-9.1-13.2-19.4-19.8-29.2c-3.6-9.8-5.2-20-5.8-30.4c-0.8-15,0-29.8,3.9-44.4C116.2,277.3,116.9,275.7,117.5,274.1z"/>
<path style="fill:#FFC504;" d="M119.5,30.6c10.7,0,21.5,0,32.2,0c1.8,1.7,1.6,4,1.6,6.2c0,22.6,0,45.2,0,67.9c0,2.2,0.2,4.4-1.5,6.2
	c-10.7,0-21.5,0-32.2,0c-1.7-1.8-1.5-4.1-1.5-6.3c0-22.6,0-45.2,0-67.8C118,34.7,117.8,32.4,119.5,30.6z"/>
<path style="fill:#FFC504;" d="M378.3,30.6c0,26.8,0,53.5,0,80.3c-10.7,0-21.5,0-32.2,0c-1.7-1.8-1.5-4.1-1.5-6.3
	c0-22.6,0-45.2,0-67.7c0-2.2-0.3-4.5,1.5-6.3C356.8,30.6,367.6,30.6,378.3,30.6z"/>
<path style="fill:#A60A94;" d="M151.8,110.9c0-26.8,0-53.5,0-80.3c12.5-0.1,24.9-0.1,37.4-0.2c2.4,0,3.6,0.7,3.3,3.2
	c-0.1,1.1,0,2.2,0,3.3c0,8.8,0,8.8-8.8,9.6c-4.6,0.4-7.8,3.7-7.9,9c-0.2,10.1-0.2,20.2,0,30.3c0.1,6.4,4.1,10,10.9,9.7
	c4.9-0.2,6.2,1.2,6,6c-0.4,9.4-0.1,9.4-9.5,9.4C172.6,111,162.2,111,151.8,110.9z"/>
<path style="fill:#D0E8FF;" d="M119.5,30.6c0,26.8,0,53.5,0,80.3c-8.2,0-16.4,0-24.6,0c-1.7-1.8-1.6-4.1-1.6-6.2
	c0-22.6,0-45.2,0-67.8c0-2.2-0.2-4.5,1.6-6.2C103.2,30.6,111.3,30.6,119.5,30.6z"/>
<path style="fill:#D0E8FF;" d="M346.1,30.6c0,26.8,0,53.5,0,80.3c-8.2,0-16.4,0-24.6,0c-2.7-6.7-2.1-13.3-0.2-20
	c1.1-13.2,0.7-26.4,0.1-39.6c-2-6.9-2.7-13.7,0.1-20.6C329.7,30.7,337.9,30.6,346.1,30.6z"/>
<path style="fill:#FFFFFF;" d="M95,30.7c0,26.7,0,53.5,0,80.2c-4.3,0.1-8.5,0-12.8,0.2c-2.4,0.1-3.4-0.7-3.4-3.2
	c0.1-24.8,0.1-49.5,0-74.3c0-2.6,1-3.3,3.4-3.2C86.5,30.6,90.7,30.6,95,30.7z"/>
<path style="fill:#FFFFFF;" d="M321.6,30.7c0,6.9-0.1,13.7-0.1,20.6c-2.8-4.5-7.1-5.2-11.9-4.7c-3.3,0.4-4.2-0.9-4.3-4.2
	c-0.1-12-0.2-12,11.6-11.9C318.5,30.5,320,30.6,321.6,30.7z"/>
<path style="fill:#00D40B;" d="M200.5,86.8c-16.1-0.3-16.1-0.3-16.1-16.7c0-15.1,0-15.1,14.9-15.3c17.2-0.3,17.2-0.3,17.3,16.4
	C216.7,87.1,216.7,87.1,200.5,86.8z"/>
<path style="fill:#00D40B;" d="M312.8,70.9c0,15.1,0,15.1-15.1,15.2c-15.8,0.1-15.8,0.1-15.8-15.3c0-15.6,0-15.6,15.8-15.4
	C312.7,55.7,312.7,55.7,312.8,70.9z"/>
<path style="fill:#FFFFFF;" d="M321.3,90.9c0.1,6.7,0.1,13.4,0.2,20c-4.3,0.1-8.5,0-12.8,0.2c-2.4,0.1-3.6-0.7-3.3-3.2
	c0.1-0.9,0-1.9,0-2.8c0.1-2.8-0.7-6.1,0.5-8.3c1.3-2.4,4.9-0.7,7.5-1C316.8,95.2,319.2,93.2,321.3,90.9z"/>
<path style="fill:#1C71DA;" d="M207.7,427.9c-29.7-11.4-52.3-30.8-66.8-59.2c-32.3-62.9-3.5-140.7,62-167.4c1.4-0.6,3-0.9,4.2-2.1
	c16.3-5.1,33-7.7,50.1-6.7c10.6,0.6,20.7,3.3,30.9,5.9c10.6,4.4,21.1,9.1,30.5,15.9c28.2,20.5,45.6,47.7,50.3,82.4
	c5.3,39.4-6.2,73.7-33.8,102.3c-13.3,13.9-29.5,23.6-47.7,29.8c-12.1,3.7-24.4,6.1-37,6.2C235.7,435.2,221.5,432.5,207.7,427.9z"/>
<path style="fill:#FFFFFF;" d="M147.7,341.5c-16.9-59.9,22.9-122.2,84.1-131.8c57.2-9,110.3,28.7,120.6,85.8c2.4,13.5,2,27-0.8,40.4
	c-0.4,1.8-1.2,3.5-1.8,5.3c-7.6,18.3-20.8,31.9-36.8,42.8c-14.6,9.9-30.6,16.6-48.1,18.6c-31,3.6-59.5-2.9-84.7-22.1
	c-11.7-8.9-21.7-19.3-29.1-32C149.8,346.3,149.4,343.6,147.7,341.5z"/>
<path style="fill:#D0E8FF;" d="M147.7,341.5c4.3,4.6,6.5,10.6,10.4,15.6c15.4,19.7,34.6,33.5,58.7,40.7c9.9,3,20.1,4.8,30.1,4.8
	c21.7,0.1,42.2-5.2,61-16.7c18.2-11.1,31.3-26.5,41.9-44.6c-2.7,13.4-9,25.2-17.3,35.8c-17.8,23-41.2,37-70.1,40.7
	c-50.5,6.4-98.3-23.4-114.2-73.6C147.9,343.4,147.9,342.5,147.7,341.5z"/>
<path style="fill:#1C71DA;" d="M321.6,354.1c-0.2,18.3-15,32.8-33.1,32.4c-17.5-0.4-31.7-15.2-31.5-33c0.2-17.9,15-32.1,33.1-31.9
	C307.4,321.9,321.7,336.7,321.6,354.1z"/>
<path style="fill:#00D40B;" d="M289.7,369.8c-9.8,0-16.5-6.5-16.6-16c0-8.4,8-16.2,16.5-16.2c8.1,0,15.6,7.9,15.7,16.4
	C305.4,363.3,298.9,369.8,289.7,369.8z"/>
</svg>
