<?xml version="1.0" encoding="utf-8"?>
<!-- Generator: Adobe Illustrator 23.0.3, SVG Export Plug-In . SVG Version: 6.00 Build 0)  -->
<svg version="1.1" id="Layer_1" xmlns="http://www.w3.org/2000/svg" xmlns:xlink="http://www.w3.org/1999/xlink" x="0px" y="0px"
	 viewBox="0 0 424.1 513.1" style="enable-background:new 0 0 424.1 513.1;" xml:space="preserve">
<path style="fill:#1C71DA;" d="M38.2,154.9c2.8-4,5.5-8,8.4-11.9c23.7-31.3,54.8-49.4,94.3-52.6c2.2,5.4,2.3,10.7,0,16
	C89,109.1,45,150.1,39,201.4c-0.8,6.4-0.9,12.9-1,19.3c-0.1,32,0.2,63.9-0.1,95.9c-0.3,36.7,9.8,69.7,32.5,98.7
	c1.9,2.4,4,4.8,6.6,7.1c-24-50-20.9-97.5,13.4-141.6c16.4-21,37.9-35.3,63.6-42.6c52.4-15,106.4,4.7,138.8,50.4
	c29.7,41.9,34.1,106.2-9.8,156.3c1.6,0.8,2.5-0.7,3.5-1.3c46.9-30.4,74.2-73.4,82.8-128.4c2.6-16.7,1.9-33.5,1.9-50.3
	c0.1-26.4,0.1-52.7,0.2-79.1c4.8-2.3,9.7-1.4,14.7-0.7c2.3,1.5,1.8,4,1.8,6.1c0.1,10.2-0.1,20.4,0.1,30.6c0.3,24,0,47.9-0.1,71.9
	c-0.1,27.6-6.7,53.7-18.3,78.6c-10.5,22.5-24.5,42.6-42.5,59.8c-30.1,28.7-65.6,47-106.7,53.9c-5.4,0.9-11,0.4-16.4,1.4
	c-9.9,0-19.8,0-29.7,0c-10.4-0.9-20.7-2.2-30.8-5.2c-22-6.5-42-16.8-59.7-31.3c-31.6-26-51.5-59.1-59.9-99.2
	c-1.2-5.7-0.7-11.6-1.8-17.3c0-84,0-168.1,0-252.1c4.3-2.5,9-1.5,13.5-1c2.7,0.3,2.2,2.7,2.2,4.6c0,20.3,0,40.6,0,60.9
	C37.9,149.6,37.4,152.3,38.2,154.9z"/>
<path style="fill:#D0E8FF;" d="M38.2,154.9c-1.6-0.8-0.6-2.3-0.6-3.3c-0.1-21.5-0.2-43.1,0-64.6c0-3.8-1.1-5-4.8-4.7
	c-3.6,0.3-7.2,0-10.8,0c0-17.6,0.1-35.2-0.1-52.8c0-2.4,0.3-3.1,2.9-3.1c9.5,0.2,19.1,0.1,28.7,0.1c-0.4,7.8-0.4,7.8,7.1,7.8
	c4.5,0,9-0.1,13.5,0c11.1,0.3,19.4,8.9,19.4,20c0,11.1-8.4,19.7-19.4,20c-5.7,0.1-11.4,0.1-17.1,0c-2.6-0.1-4.1,0.4-3.7,3.4
	c0.5,3.4-1.2,3.9-4.2,3.9c-11.1,0-11.1,0.1-11.1,11.3C38.2,113.6,38.2,134.2,38.2,154.9z"/>
<path style="fill:#D0E8FF;" d="M402.9,145.4c-2.3,0.5-4.6,0.3-6.9,0.2c-2.1,0.9-4.3,1.2-6.6,1.1c-6.9-0.1-13.8-0.1-20.7,0
	c-2.3,0-4.5-0.2-6.6-1.2c-6.9,0.4-6.9,0.4-6.9-6.5c0-14.2,0-28.4,0-42.7c0-6.1,0-6.1,6.1-6.2c11.8-1.7,23.6-1.7,35.3,0
	c2.1,0.1,4.1,0.2,6.2,0.3C402.9,108.8,402.9,127.1,402.9,145.4z"/>
<path style="fill:#D0E8FF;" d="M140.9,106.5c0-5.3,0-10.7,0-16c0-8.2,0-8.2,8.5-8.1c14.4,0.1,28.8,0.1,43.2-0.1c3.4,0,4.4,1,4.3,4.3
	c-0.2,7.3-0.4,14.7,0,22c0.2,4.5-1.3,6-5.5,5.3c-0.9-0.1-1.8,0-2.7,0c-1.4,1.3-3.2,1.4-5,1.4c-9.8,0.1-19.7,0.1-29.5,0
	c-1.8,0-3.6-0.1-5-1.4c-0.1,0-0.3,0-0.4,0C141.1,113.9,141.1,113.9,140.9,106.5z"/>
<path style="fill:#FFC504;" d="M396.7,90.1c-11.8,0.5-23.6,0.5-35.3,0c2.6-0.6,1.9-2.6,1.9-4.3c0-11.5,0-23,0-34.6
	c0-9.7,6.5-16.6,15.5-16.7c9.5,0,16.1,6.7,16.1,16.6c0,11.7,0,23.3,0,35C394.9,87.7,394.4,89.6,396.7,90.1z"/>
<path d="M149.1,113.9c13.2,0,26.4,0,39.6,0c0,6.7,0.1,13.5,0,20.2c-0.2,11.1-8.8,19.5-19.8,19.5c-10.9,0-19.7-8.5-19.8-19.5
	C148.9,127.3,149,120.6,149.1,113.9z"/>
<path style="fill:#A60A94;" d="M394.8,146.3c0,11.5-0.1,23.1,0.2,34.6c0.1,3.7-0.9,5.2-4.7,4.7c-1.1-0.2-2.4,0.2-3.6,0.3
	c-5.1,0-10.2,0-15.3,0c-8.2-0.8-8.2-0.8-8.2-9.2c0-10.1,0-20.2,0.1-30.3C373.8,145.5,384.3,145.5,394.8,146.3z"/>
<path style="fill:#5D646A;" d="M394.8,146.3c-10.5,0-21,0-31.5,0c-0.4-0.3-0.8-0.5-1.2-0.8c11.3,0,22.5,0,33.8,0
	C395.6,145.8,395.2,146,394.8,146.3z"/>
<path style="fill:#FDFDFD;" d="M188.9,471.3c-48.4,0.9-87.3-36.9-87.5-86.6c-0.3-49.5,37.7-87.8,87-87.9
	c48.7-0.2,87.1,37.9,87.6,86.1C276.5,432.7,238,471.9,188.9,471.3z"/>
<path style="fill:#FEFEFE;" d="M290.3,401.9c4.9-30.2-1.8-57.8-21.2-81.3c-27.8-33.6-63.5-46.7-106.3-36.2
	c-39.3,9.7-70.2,45-76,84.8c-1.6,10.9-1.3,21.8,0.3,32.7c0.3,0.9,0.8,2-0.9,1.9c-23.9-58.9,3.6-125,61.9-147.1
	c62.9-23.9,134.3,10.2,149.3,80c5,23.1,2.7,45.9-6.2,67.9C289.1,404.1,290.1,402.9,290.3,401.9z"/>
<path style="fill:#E2B1B0;" d="M86.1,403.7c0.3-0.6,0.6-1.2,0.9-1.9c0.2,0.2,0.4,0.5,0.5,0.7c0.4,1.8,0.7,3.7,1.2,5.9
	C86.9,407.1,86.4,405.4,86.1,403.7z"/>
<path style="fill:#D7A09D;" d="M290.3,401.9c0.4,0.8-0.2,1.9,0.8,2.6c-0.3,1.5-0.9,2.8-2.3,4.3C289.1,406.1,289.1,403.9,290.3,401.9
	z"/>
<path d="M53.8,74.7c0-13.2-0.1-26.4-0.1-39.6c6.7,0,13.5-0.2,20.2-0.1c11.1,0.1,19.5,8.7,19.6,19.7C93.5,65.7,85,74.5,74,74.7
	C67.2,74.8,60.5,74.7,53.8,74.7z"/>
</svg>
