<?xml version="1.0" encoding="utf-8"?>
<!-- Generator: Adobe Illustrator 23.0.3, SVG Export Plug-In . SVG Version: 6.00 Build 0)  -->
<svg version="1.1" id="Layer_1" xmlns="http://www.w3.org/2000/svg" xmlns:xlink="http://www.w3.org/1999/xlink" x="0px" y="0px"
	 viewBox="0 0 512.2 512.2" style="enable-background:new 0 0 512.2 512.2;" xml:space="preserve">
<path style="fill:#D0E8FF;" d="M271.1,0.1c9.5,1.3,19,2.3,28.5,4.1c40,7.4,75.6,24.5,107,50.3C418,64,425,79.2,416.2,97
	c-2.1,5.4-5.8,9.2-11.2,11.2c-15.1,7.5-28.3,3.7-40.6-6.4c-15.3-12.6-32.2-22.4-51-28.6C254.9,53.8,201,62.9,151.8,99.7
	c-12.6,9.4-25.2,13-39.6,4.6c-5.8-1.7-9.3-5.7-11.1-11.3c-1.3-4.4-3.6-8.6-3.8-13.4c-0.5-11,3.6-19.8,12.1-26.6
	c38-30.7,81.2-48.3,130-52c1-0.1,2,0,2.8-0.8C251.8,0.1,261.4,0.1,271.1,0.1z"/>
<path style="fill:#FFC504;" d="M337.2,488.3c-5.8,14.8-18.9,18.7-32.5,21.8c-3.8,0.9-7.9,0.4-11.6,2c-9.3,0-18.7,0-28,0
	c-0.7-1.3-2-0.9-3.1-1c-16.3-1.7-23.4-8.4-25.3-24.8c-1.2-10.2,1.5-19.8,7.6-28.2c3.7-5,8.8-8,15.1-8.9c19.3-2.8,38.1-0.5,56.3,6.4
	c8.6,3.3,15.7,8.5,20.4,16.7C340.1,477.3,340.6,483.2,337.2,488.3z"/>
<path style="fill:#A60A94;" d="M71.9,220.7c0.9-14.1,1.4-14.5,15.7-14.5c10.2,0,20.3-0.1,30.5,0c6.8,0.1,9.8,3,9.8,9.8
	c0,54.6,0,109.2,0,163.8c0,7.3-3,10.1-10.4,10.2c-11.7,0-23.3,0-35,0c-7.4,0-10.2-2.8-10.3-10.2c0-2.8-0.1-5.7-0.1-8.5
	c-1.7-2.1-1.6-4.7-1.6-7.2c0-45.4,0-90.8,0-136.1C70.5,225.5,70.4,222.9,71.9,220.7z"/>
<path style="fill:#A60A94;" d="M440.2,371.3c0,3.3,0,6.7-0.1,10c-0.2,5.2-3.2,8.6-8.3,8.7c-13.2,0.2-26.3,0.2-39.5,0
	c-5-0.1-7.8-3.7-7.9-9.7c-0.1-15-0.1-30-0.1-45c0-39.2,0-78.3,0-117.5c0-8.9,2.7-11.6,11.6-11.6c10.8,0,21.7,0,32.5,0
	c9.3,0,11.6,2.2,11.7,11.3c0,0.8,0,1.7,0,2.5c1.4,2.2,1.6,4.7,1.6,7.2c0,45.8,0,91.6,0,137.3C441.7,366.9,441.7,369.3,440.2,371.3z"
	/>
<path style="fill:#D0E8FF;" d="M440.2,371.3c0-50.4,0-100.8-0.1-151.2c3.1,1.4,6.6,1.2,9.9,2c5-1,9.8,0.9,13.3,3.7
	c2.7,2.1,2-0.7,2.9-0.9c0.5,2.3,1.6,3.9,3.8,5.3c42.8,25.8,50.8,81,17.2,117.9c-4.6,5.1-10,9.2-15.9,12.7c-1.6,0.9-3.1,1.8-4.2,3.4
	c-5.8,2.9-11.5,6.2-18.3,5.9C446,370.5,443.1,370.9,440.2,371.3z"/>
<path style="fill:#D0E8FF;" d="M71.9,220.7c0.1,11.8,0.2,23.6,0.2,35.4c0,38.4,0,76.8-0.1,115.1c-41.1-4-72.3-43-67.2-83.6
	c3.3-26,16.3-45.2,39-58.1c2.6-1.5,3.5-3,3.4-5.8c-0.1-2-0.3-4,0.8-5.9c0.4,0.3,0.7,0.7,1,1.1c1.2,1.6-1.1,5.3,2.6,5.4
	c4,0.1,9.4-3.4,10.3-6.3c0.4-1.2,0.2-2.8,2.1-2.9C64.1,221.5,64.1,221.5,71.9,220.7z"/>
<path style="fill:#1C71DA;" d="M448.9,370.2c6.2-1.6,11.9-5,18.3-5.9c-8.9,32.4-21,63.1-46.5,86.5c-16.8,15.4-36.8,24.7-58.3,31.3
	c-8.2,2.5-16.6,4.8-25.1,6.2c1.5-5.5,0.5-10.7-1.1-16c19.5-4,38.3-10,55.7-19.9c25.9-14.7,41-37.8,51.2-64.8
	C445.2,381.9,446.9,376,448.9,370.2z"/>
<path style="fill:#1C71DA;" d="M63.9,215.1c0.1,9.5-8.4,8.6-13.8,11.4c-1.6,0.8-2-0.4-2-1.7c-0.1-2.3-0.1-4.6-0.2-6.9
	c1.5-29.5,9.8-57.1,23.5-83.2c8-15.2,17.6-29.3,29.6-41.7c3.3,4.2,6.7,8.3,11.1,11.3C84.1,136,68.1,173,63.9,215.1z"/>
<path style="fill:#1C71DA;" d="M466.2,224.9c-0.4,1.1,0.1,3.5-2.4,2.1c-4.3-2.4-9.2-3.2-13.8-4.9c-1.6-30.2-10.1-58.4-24.9-84.8
	c-5.8-10.3-12.8-19.8-20.1-29.1c4.2-3.3,7.9-7,11.2-11.2c10.7,11.5,19.2,24.6,26.4,38.5C457.2,163.5,465.5,193.2,466.2,224.9z"/>
</svg>
