<?xml version="1.0" encoding="utf-8"?>
<!-- Generator: Adobe Illustrator 23.0.3, SVG Export Plug-In . SVG Version: 6.00 Build 0)  -->
<svg version="1.1" id="Layer_1" xmlns="http://www.w3.org/2000/svg" xmlns:xlink="http://www.w3.org/1999/xlink" x="0px" y="0px"
	 viewBox="0 0 512.2 512.2" style="enable-background:new 0 0 512.2 512.2;" xml:space="preserve">
<path style="fill:#1C71DA;" d="M69,376.5c0-28.7-0.1-57.3,0.1-86c0-4-1-5.1-4.9-5c-10.8,0.3-21.7,0.2-32.5,0.1
	c-8.5-0.1-11.8-3.5-11.8-11.9c0-31.3,0-62.7,0-94c0-9,3.3-12.4,12.4-12.4c10.8,0,21.7,0,32.5,0.1c2.4,0,4.1-0.1,5-3.1
	c1.6-5.5,6.2-6.7,11.5-6.7c21.8,0.1,43.7-0.1,65.5,0.1c5.5,0.1,10.3-1.1,15.1-3.9C225.2,117.5,288.6,81.3,352,45.1
	c3.1-1.8,5.4-4,7.3-7.1c11.4-19.7,35.9-24.2,53.1-9.4c8,7,11.1,16.7,11.1,27.4c0,21.2,0,42.3,0,63.5c0,14.8,0.1,29.7-0.1,44.5
	c0,3.2,0.6,4.3,4.1,3.9c31.1-2.9,59.8,19.7,64.4,50.7c4.4,29.2-16.5,58.9-46.2,65.5c-5.7,1.3-11.5,2.1-17.3,1.1
	c-3.9-0.6-5,0.4-5,4.5c0.2,35.3,0,70.7,0.2,106c0,9.4-2.4,17.7-8.6,24.9c-16.2,18.7-43.1,16.2-55.5-5.3c-1.9-3.4-4.3-5.6-7.6-7.4
	c-64.4-36.7-128.8-73.6-193.2-110.4c-1.1-0.7-2.3-1.3-3.6-1.7c-5.8-1.8-7.1-0.7-7.1,5.2c0,9.5,0.2,19-0.1,28.5
	c-0.1,4.2,0.7,6.3,5.4,5.5c1.8-0.3,3.7-0.1,5.5,0c5,0.5,8.5,4.3,8.7,9.3c0.2,5.3-3.2,9.3-8.4,10c-0.8,0.1-1.7,0.1-2.5,0.2
	c-8.6,0.3-8.6,0.3-8.6,8.7c0,0.2,0,0.3,0,0.5c0.1,3.3-0.9,7.4,0.7,9.7c1.6,2.3,5.9,0.6,9,0.8c5.9,0.5,9.8,4.3,9.8,9.9
	c0,5.5-3.9,9.5-9.7,9.9c-3.1,0.2-7.2-1.4-9.1,0.7c-2,2.3-0.3,6.4-0.7,9.6c-0.8,6.7,0.9,10.8,7.9,14.4c14.9,7.7,22.5,21.1,21.7,38.1
	c-0.8,17.4-18.3,34.2-36.6,35.1c-14.8,0.7-29.7,0.6-44.5,0.1c-14.2-0.5-27.2-14.9-27.3-29.6C69,433.9,69.1,405.2,69,376.5
	C69.1,376.5,69,376.5,69,376.5z"/>
<path style="fill:#D0E8FF;" d="M354.5,227.1c0,51.2,0,102.3,0,153.5c0,6.1,0,6.2-5.2,3.2c-59.2-33.9-118.5-67.7-177.7-101.5
	c-3-1.7-4.2-3.5-4.2-7c0.1-32.2,0.1-64.3,0-96.5c0-3.9,1-6.2,4.6-8.3c59.3-33.7,118.5-67.6,177.8-101.5c4.7-2.7,4.7-2.7,4.7,3
	C354.5,123.8,354.5,175.4,354.5,227.1z"/>
<path style="fill:#FFC504;" d="M374.2,226.1c0-55.6,0-111.3,0-166.9c0-1.7,0-3.3,0-5c0.4-9.5,5.7-14.9,14.5-14.8
	c8.5,0.1,15.1,6.5,15.1,15.3c0.1,21.5,0,43,0,64.5c0,18.5,0.5,37-0.1,55.5c-0.9,29-0.9,58-0.4,86.9c0.8,45.1,0.2,90.3,0.5,135.4
	c0,4.9-0.4,9.7-4.4,13.3c-5,4.5-11,3.6-16.6,2.4c-5-1-7.6-5.1-8.2-10.2c-0.3-2.3-0.5-4.6-0.5-6.9C374.2,339,374.2,282.6,374.2,226.1
	z"/>
<path style="fill:#00D40B;" d="M88.9,381.9c0-27.1,0.1-54.3-0.1-81.4c0-4.2,1.1-5.4,5.3-5.3c9.5,0.3,19,0.3,28.5,0
	c4.3-0.1,5.6,0.9,5.6,5.5c-0.2,39.8-0.1,79.6-0.1,119.4c0,9.7,2.2,12.2,12,13.2c11.5,1.2,18.2,8.6,18,19.9
	c-0.1,11.5-7.5,19.2-20.1,19.6c-13.1,0.5-26.3,0.3-39.5,0.1c-7-0.1-9.6-3-9.6-10C88.9,435.9,88.9,408.9,88.9,381.9z"/>
<path style="fill:#FFC504;" d="M147.3,227c0,14.8-0.1,29.6,0.1,44.5c0,3.4-1,4.8-4.5,4.5c-16.6-1.4-33.3-0.5-49.9-0.6
	c-3.1,0-3.9-1.1-3.9-4.1c0.1-30,0.1-60,0-89.9c0-3.2,1-4.3,4.2-4.3c16.7,0.2,33.3,0.2,50,0c3.4,0,4.2,1.2,4.2,4.4
	C147.3,196.7,147.3,211.8,147.3,227C147.3,227,147.3,227,147.3,227z"/>
<path style="fill:#A60A94;" d="M423.3,226.6c0-11.5,0.1-23-0.1-34.5c-0.1-3.3,1.3-4.5,4.2-4.8c29.3-2.9,47.6,17.1,45,44
	c-2.1,21.8-18.8,36.3-43.5,34.7c-4.2-0.3-5.9-1.9-5.7-6.4C423.6,248.5,423.3,237.5,423.3,226.6z"/>
<path style="fill:#D0E8FF;" d="M69.1,226.7c0,11.6-0.1,23.3,0.1,34.9c0.1,3.5-1,4.7-4.5,4.5c-7.1-0.2-14.3-0.2-21.5,0
	c-3,0.1-4.1-0.8-4.1-3.9c0.1-23.8,0.1-47.6,0-71.4c0-2.8,0.9-3.8,3.8-3.8c7.5,0.1,15,0.2,22.5,0c3.3-0.1,3.8,1.4,3.8,4.2
	C69,203.1,69.1,214.9,69.1,226.7z"/>
</svg>
