<?xml version="1.0" encoding="utf-8"?>
<!-- Generator: Adobe Illustrator 23.0.3, SVG Export Plug-In . SVG Version: 6.00 Build 0)  -->
<svg version="1.1" id="Layer_1" xmlns="http://www.w3.org/2000/svg" xmlns:xlink="http://www.w3.org/1999/xlink" x="0px" y="0px"
	 viewBox="0 0 512.2 512.2" style="enable-background:new 0 0 512.2 512.2;" xml:space="preserve">
<path style="fill:#1C71DA;" d="M496.1,111.6c-0.1,53.7-43.7,96.9-96.8,96.5c-2.2,0-4,0-5.8,1.8c-39.5,40.8-83.4,76.7-125.6,114.4
	C208.1,377.7,148,430.7,88,483.8c-6.8,6-9.6,6-16-0.5c-4.5-4.5-9.1-8.8-13.4-13.5c-2-2.2-3.1-1.9-5.1,0.1
	c-9.6,9.8-19.4,19.3-28.9,29.1c-2.4,2.4-3.8,2.4-5.8-0.1c-2.4-3.1-7.7-5.2-7.3-8.7c0.3-3,4.8-5.6,7.4-8.3c7.6-7.7,15.2-15.4,23-22.9
	c2.5-2.4,2.2-3.7-0.1-5.8c-4.6-4.3-9-8.9-13.5-13.4c-5.8-5.8-5.9-8.9-0.6-14.9C86.9,358.1,146,291.4,205.1,224.7
	c22.4-25.3,44.7-50.8,67.3-75.9c9.3-10.3,19.4-19.7,29.2-29.5c1.8-1.8,2.5-3.5,2.5-6.1c-0.2-55.7,45-99.1,100.8-97
	c45.2,1.7,85,38.5,90.3,83.3C495.7,103.8,496.2,108.1,496.1,111.6z"/>
<path style="fill:#D0E8FF;" d="M80.5,469c-1-0.9-1.8-1.6-2.7-2.5c-10.7-10.7-21.4-21.5-32.2-32.1c-2.2-2.1-2.1-3.2-0.1-5.5
	c46.5-52.3,92.9-104.7,139.2-157.1c30.8-34.8,61.7-69.5,92.4-104.5c2.9-3.3,4.2-2.9,7-0.1c20.3,20.5,40.6,40.9,61.1,61.2
	c2.6,2.6,2.8,3.7-0.1,6.3c-87.4,77.2-174.7,154.6-262,231.9C82.3,467.4,81.4,468.2,80.5,469z"/>
<path style="fill:#D0E8FF;" d="M480.1,111.9c-0.4,17.6-5.4,33.6-15.9,47.9c-1.8,2.4-2.7,2.4-4.8,0.3
	C423.7,124.3,387.9,88.5,352,52.8c-2.1-2.1-2-3,0.4-4.8c46.7-34.6,112.7-9.8,125.7,46.6C479.4,100.3,480.3,106,480.1,111.9z"/>
<path style="fill:#D0E8FF;" d="M400.2,192.3c-3.2,1-6.1-1.3-9.1-4.4c-22.5-22.7-45.2-45.3-67.9-67.9c-2.3-2.3-3.3-4.6-3.2-7.9
	c0.3-17.5,5.5-33.3,15.7-47.5c1.8-2.5,2.8-2.9,5.1-0.5c35.6,35.8,71.3,71.5,107.1,107.1c2.4,2.4,2,3.3-0.5,5.1
	C433.8,186.5,418.4,191.5,400.2,192.3z"/>
<path style="fill:#FFC504;" d="M380.1,199.6c0.1,1.5-0.9,2-1.6,2.6c-5.4,5.4-10.9,10.8-16.2,16.3c-2,2.1-3,1.5-4.7-0.2
	c-21.3-21.4-42.6-42.7-63.9-64c-1.5-1.5-2.2-2.5-0.3-4.4c5.6-5.4,11.2-11,16.6-16.6c1.8-1.9,2.8-1.4,4.4,0.2
	c21.4,21.5,42.8,42.9,64.3,64.3C379.2,198.6,379.7,199.2,380.1,199.6z"/>
<path style="fill:#1C71DA;" d="M256.1,288.1c-2.7,0-4.7-1.4-6.5-3.2c-7.4-7.4-14.9-14.8-22.2-22.3c-4.5-4.6-4.5-8.5,0-13
	c15.4-15.5,30.8-30.9,46.3-46.3c4.5-4.5,8.4-4.5,13,0c7.5,7.4,14.9,14.8,22.3,22.3c4.5,4.6,4.5,8.5,0,13
	c-15.4,15.5-30.9,30.9-46.3,46.3C260.8,286.7,258.8,288.1,256.1,288.1z"/>
<path style="fill:#A60A94;" d="M392.3,48.1c7.8,0,7.8,0,7.8,7.7c0,8.3,0,8.3-8.2,8.3c-7.8,0-7.8,0-7.8-7.7
	C384.1,48.1,384.1,48.1,392.3,48.1z"/>
<path style="fill:#A60A94;" d="M432.1,88.3c0,7.8,0,7.8-7.7,7.8c-8.3,0-8.3,0-8.3-8.2c0-7.8,0-7.8,7.7-7.8
	C432.1,80.1,432.1,80.1,432.1,88.3z"/>
<path style="fill:#A60A94;" d="M455.9,128.1c-7.8,0-7.8,0-7.8-7.7c0-8.3,0-8.3,8.2-8.3c7.8,0,7.8,0,7.8,7.7
	C464.1,128.1,464.1,128.1,455.9,128.1z"/>
<path style="fill:#A60A94;" d="M343.7,112.1c-7.6,0-7.6,0-7.6-7.9c0-8.1,0-8.1,7.9-8.1c8.1,0,8.1,0,8.1,7.9
	C352.1,112.1,352.1,112.1,343.7,112.1z"/>
<path style="fill:#A60A94;" d="M384.1,135.7c0,8.3,0,8.3-8.1,8.4c-7.9,0-7.9,0-7.9-7.6c0-8.4,0-8.4,8.1-8.4c0.2,0,0.3,0,0.5,0
	C384.1,128.1,384.1,128.1,384.1,135.7z"/>
<path style="fill:#A60A94;" d="M408,160.1c8.1,0,8.1,0,8.1,7.9c0,8.1,0,8.1-7.9,8.1c-8.1,0-8.1,0-8.1-7.9
	C400.1,160.1,400.1,160.1,408,160.1z"/>
<path style="fill:#00D40B;" d="M292.5,232.1c-0.8,0.9-1.4,1.6-2.1,2.3c-10.7,10.7-21.5,21.4-32.1,32.2c-1.7,1.7-2.7,1.6-4.4,0
	c-11-10-11.1-9.9-0.7-20.3c8.1-8.1,16.3-16.2,24.3-24.4c2-2,3.2-2.2,5.1,0c2.4,2.7,5.1,5.2,7.7,7.8
	C291.1,230.4,291.7,231.2,292.5,232.1z"/>
</svg>
