<?xml version="1.0" encoding="utf-8"?>
<!-- Generator: Adobe Illustrator 23.0.3, SVG Export Plug-In . SVG Version: 6.00 Build 0)  -->
<svg version="1.1" id="Layer_1" xmlns="http://www.w3.org/2000/svg" xmlns:xlink="http://www.w3.org/1999/xlink" x="0px" y="0px"
	 viewBox="0 0 512.2 512.2" style="enable-background:new 0 0 512.2 512.2;" xml:space="preserve">
<path style="fill:#1C71DA;" d="M489.1,0.1c0,48.3-0.1,96.7-0.1,145c0,70.3-0.2,140.7,0.1,211c0.1,34-15.4,58.9-44.4,74.2
	c-42,22.2-83.5,19.7-122-8.9c-40.8-30.3-41.1-88.1-1.2-119.7c39.8-31.5,96.4-31.9,136.7-0.9c2.5,1.9,4.7,4.1,7.6,6.7
	c0-58.4,0-116.3,0-174.5c-17.2,4.3-34.4,8.7-51.6,13C351,162,288,178,225,193.7c-3.8,0.9-4.6,2.4-4.6,6c0.1,74.5-0.6,149,0.3,223.5
	c0.5,39.1-24.4,67.1-54.2,79.8c-10.2,4.3-20.7,7.2-31.7,8.3c-0.6,0.1-1.1,0.5-1.6,0.8c-8,0-16,0-24,0c-7.7-2.5-15.8-3.2-23.5-5.9
	c-21.5-7.5-39.3-19.7-51.3-39.3c-18.7-30.8-13.5-67.3,12.9-92.5c21.4-20.3,47.3-29.2,76.4-28.8c27.3,0.4,51.5,9.2,71.7,28
	c0.5,0.4,1,0.7,2.3,1.6c0-2.5,0-4.4,0-6.3c0-96.8,0-193.6-0.1-290.4c0-4.3,1.5-5.5,5.3-6.5c94-23.6,188-47.3,281.9-70.9
	c0.8-0.2,1.5-0.7,2.2-1C487.8,0.1,488.4,0.1,489.1,0.1z"/>
<path style="fill:#D0E8FF;" d="M220.3,131.1c0-11.7,0.2-23.3-0.1-35c-0.1-4,1.3-5.3,5-6.3c46.1-11.5,92.2-23.1,138.2-34.7
	c32.5-8.2,65.1-16.3,97.6-24.7c4.4-1.1,5.2-0.2,5.1,4.1c-0.2,23.3-0.2,46.6,0,70c0,3.9-1.1,5.4-4.8,6.4
	c-70.6,17.7-141.1,35.4-211.7,53.2c-8.4,2.1-16.8,4-25.1,6.4c-3.6,1-4.3,0-4.3-3.4C220.4,155.1,220.3,143.1,220.3,131.1z"/>
<path style="fill:#FFC504;" d="M395.5,300.9c16.5,0.2,35.6,6.2,51.7,20.5c24.8,22,25.2,56.3,0.9,79c-30,28-84.2,28.5-114.5,0.9
	c-26.9-24.4-25.1-61.7,4-83.5C353.4,306,371.3,300.8,395.5,300.9z"/>
<path style="fill:#FFC504;" d="M118.6,489.3c-22.6-0.8-45.3-8.4-61.7-29.5c-15.8-20.3-14.4-47.5,3.4-66.2
	c18.9-19.8,42.6-26.9,69.3-24.9c18.2,1.4,34.8,7.4,48.5,19.7c27.2,24.4,25.7,61.3-3.3,83.5C159.2,484,141.3,489.2,118.6,489.3z"/>
</svg>
