<?xml version="1.0" encoding="utf-8"?>
<!-- Generator: Adobe Illustrator 23.0.3, SVG Export Plug-In . SVG Version: 6.00 Build 0)  -->
<svg version="1.0" id="Layer_1" xmlns="http://www.w3.org/2000/svg" xmlns:xlink="http://www.w3.org/1999/xlink" x="0px" y="0px"
	 viewBox="0 0 539 315" style="enable-background:new 0 0 539 315;" xml:space="preserve">
<path style="fill:#1C71DA;" d="M266.9,23c68.7,0,137.3,0,206,0c27.3,0,46.2,18.8,46.2,46.1c0,60,0,120,0,180
	c0,27-18.9,45.9-45.9,45.9c-137.3,0-274.6,0-411.9,0C33.9,295,15,276.1,15,248.9c0-60,0-120,0-180C15,41.9,34,23,60.9,23
	C129.6,23,198.2,23,266.9,23z"/>
<path style="fill:#A60A94;" d="M470.9,105c0-3.2,0-6.3,0.1-9.5c0.2-5.3,3.1-8.3,8.3-8.5c2.2-0.1,4.3-0.1,6.5,0
	c6.2,0.1,9.1,2.9,9.2,9.2c0,3.2,1,6.4-0.1,9.5C488.9,113.8,476,113.4,470.9,105z M38.8,99c0.6-11,9.1-16,19.4-11.2
	c3.2,1.5,4.8,4,4.8,7.5s-0.1,7-0.1,10.5c-3.7,5-11.5,7.2-18.2,4.9C39,108.7,38.7,103.9,38.8,99z M438.8,100c0.1-1.5,0-3,0.2-4.5
	c0.1-1.3,0.3-2.7,0.8-3.8c2.8-5.7,7-5,16.5-4.5c4.3,0.2,6.6,3.9,6.6,9.1c0,3.2-0.1,6.3-0.1,9.5c-4.9,6.6-15.4,7.6-22.5,2.1
	c-2.7-0.9-2.6-2.7-1.5-4.8C438.8,102,438.8,101,438.8,100z M343.1,105.7c-0.1-3.3-0.1-6.6-0.1-10c0-1,0-2,0.3-3
	c1.5-5.1,6.6-6.9,16.3-5.8c4.5,0.5,7.3,3.6,7.4,8.5c0.1,3.5-0.2,7-0.2,10.4C361.1,113.5,348.7,113.4,343.1,105.7z M374.8,103
	c0.1-1.2,0.1-2.3,0.2-3.5c0.1-11.4,8.5-16.6,19.2-11.8c2.6,1.2,4.5,3.2,4.6,6c0.2,4.7,1.1,9.6-1.2,14.2c-5.4,4.8-11.7,3.5-17.7,2.3
	C376.6,109.5,375.3,106.3,374.8,103z M70.9,105c0-3,0-6,0.1-8.9c0-1.3,0.1-2.7,0.6-3.9c1.8-5,7.5-6.7,16.6-5.1
	c4.3,0.7,6.7,3.9,6.8,9c0,1.3,0.1,2.6,0.2,4c0,4.9-0.9,9.4-6.5,10.8C80.3,112.9,74.5,110.9,70.9,105z M103.1,105.7
	c-0.1-3.3-0.1-6.6-0.1-10c0-1,0-2,0.3-3c1.5-5.1,6.6-6.9,16.3-5.8c4.5,0.5,7.2,3.6,7.4,8.5c0.1,3.2,0,6.3,0.1,9.5
	C122,113.4,109.1,113.8,103.1,105.7z M134.8,102c0-0.2,0.1-0.3,0.1-0.5c0.5-13.6,3-15.8,16.5-14.5c4.4,0.4,7.4,3.3,7.6,7.8
	c0.2,3.6,0,7.3-0.1,11c-3.7,5.1-14.5,7.3-19.9,4.2C136,108.1,135,105.3,134.8,102z M167.3,105.9c-0.1-3.6-0.4-7.3-0.2-10.9
	c0.2-4.9,3.3-7.8,8.2-8c1.3-0.1,2.6,0,4,0c9.6,0,11.7,2.1,11.8,11.5c0,1.5,0.1,3,0.1,4.5c-1.6,6.3-3.7,7.9-10,8
	C175.9,111,170.4,111.9,167.3,105.9z M407.1,105.7c0-3.3-0.1-6.6-0.1-10c0-0.8,0-1.7,0.2-2.5c1.2-5.3,5.8-7.1,16-6.3
	c4.7,0.4,7.6,3.3,7.9,8c0.2,2.7,0.1,5.3,0.2,8c-1.6,6.4-3.7,7.9-10.4,8C415.5,111.1,410.1,111.6,407.1,105.7z"/>
<path style="fill:#D0E8FF;" d="M206.8,54c0,3,0,6,0,8.9c-4.9-0.4-5.8-2.1-3.2-6C204.5,55.9,205.8,55,206.8,54z"/>
<path style="fill:#D0E8FF;" d="M510.8,105c0,16.8,0,33.7,0.2,50.5c0.1,4.7-2.9,3.5-5.3,3.5c-59.8,0-119.7,0-179.5,0
	c-99.2,0-198.3,0-297.5,0.1c-4.3,0-6-0.8-5.9-5.6c0.4-15.2,0.2-30.3,0.3-45.5c3.6-4.3,8.9-6.3,13.4-9.2c0.9-0.5,1.9-0.5,2.8,0.3
	c0.6,5.6,1.6,10.5,8.9,10.7c5.3,0.2,10.3,0,14.3-4.1c3,0.2,5.6-2.3,8.7-1c4.1,5.7,10,5.5,16,5c5.7-0.5,6.1-5.1,7.1-9.3
	c1.4-1.7,3.2-2.8,5.1-1.4c1.7,1.3,0.1,3-0.4,4.5c-0.3,0.9-1.3,1.9-0.4,2.7c1.5,1.3,3.1-0.5,4.7-0.4c3.3,2.5,6.7,4.2,11.2,4.2
	c5.1,0,9.1-1.2,12-5.4c2.7-1.3,5.1-3.8,8.6-2.7c4.6,9.6,13.1,11,23.2,3.9c3,1.3,6-0.1,9-0.2c3.4,3.3,7.4,4.3,12.2,4.3
	c5.4,0,9-1.7,10.7-6.9c0.3-0.4,0.6-0.9,1-1.1c2.5-1.4,5-4.7,7.9-2.9c2.8,1.8-0.9,4.7-0.5,7.3c3.2,1.7,6.4-1.7,9.6-0.1
	c4,6,9.7,7.6,16.8,7.5c28.2-0.3,56.4-0.2,84.7,0c6.7,0.1,12.1-1.7,15.7-7.5c2.8-2,5.7-3.7,9-4.9c2.3-0.8,3.4,0.1,3.4,2.5
	c0,1.5-2,3.4-0.1,4.5c2.4,1.4,3.5-1.7,5.4-2.4c3.4,1.9,6.4,4.2,10.8,4.1c4.9-0.1,9.2-0.9,12.5-4.7c2.8-1.1,5.1-4.1,8.6-2.5
	c5,8,11.5,9.4,22.1,4.7c3.8,1.4,7-0.5,10.4-1.8c3.2,2.8,6.8,4.1,11.3,4.2c5.7,0.1,9.7-1.6,11.7-7.1c2.7-1.3,4.9-3.8,8.4-3.1
	c0.8,0.8,0.8,1.7,0.6,2.8c-0.6,1.7-2.4,2.6-2.8,4.6c1.1,1.4,2.6-0.3,3.9,0.4c7.5,3.3,14.8,4,21.6-1.7c3.3,1.7,5.9-2.3,9.2-1
	c6.7,6.7,13.3,7,23.2,1c3,3.5,6.3,3.1,10,1.1C506.6,105.8,508.2,103.6,510.8,105z M23.9,60.9C25.6,44.5,41.4,31,59.1,31
	c50,0,99.9,0,149.9,0c88.4,0,176.9,0,265.3,0c18.3,0,33.2,12.5,35.7,29.8c-0.5,3.6-3.5,5.2-7.8,4.2c-5.2-1.2-1.6-4.6-1.7-7.1
	c-1.8,0.8-3.4,2.3-5.6,1.3c-1.2-1-1.4-2.6-2.1-3.9c-2.1-4.4-5.5-6.8-10.4-7.1c-6.8-0.5-13.2,0.1-17.7,6.3c-3.1,2-5.4,5.8-10,4.6
	c-1.6-1.9-1.9-4.6-3.5-6.5c-4.5-5.4-17.2-6.3-22.9-1.5c-1.3,1.1-2.4,2.3-3.6,3.5c-3.1,2-5.4,5.8-10,4.6c-1.6-1.9-1.9-4.6-3.5-6.5
	c-4.5-5.4-17.2-6.3-22.9-1.5c-1.3,1.1-2.4,2.3-3.6,3.5c-3.1,2-5.4,5.8-10,4.6c-1.6-1.9-1.9-4.6-3.5-6.5c-4.6-5.4-17.2-6.3-23-1.5
	c-1.3,1.1-2.4,2.3-3.6,3.5c-4.1,3.6-9,6-13.5,8.9c-1.6,1-3.6,2.1-5.1-0.5c-0.9-2.8-0.6-5.6-0.6-8.4c-0.2-10.2-4-14.1-14.3-14.1
	c-21-0.1-41.9,0-62.9,0c-8.5,0-17-0.1-25.4,0c-8.9,0.1-11.6,2.1-14.7,10.5c-5,4.7-10,9.4-17.3,10.1c-0.2-0.2-0.5-0.5-0.6-0.8
	c-2.5-13.7-11.7-12.7-21.1-11.7c-5.5,0.6-7.4,5.6-9.9,9.6c-2.8,1.1-5,3.9-8.5,2.9c-0.2-0.2-0.5-0.5-0.6-0.8
	c-2.5-13.6-11.6-12.7-21-11.7c-5.5,0.6-7.4,5.6-9.9,9.6c-2.8,1.1-5,3.9-8.5,2.9c-0.2-0.2-0.5-0.5-0.6-0.8
	c-2.5-13.6-11.6-12.7-21-11.7c-5.5,0.6-7.4,5.6-9.9,9.6c-2.8,1.1-5,3.9-8.5,2.9c-0.2-0.2-0.5-0.5-0.5-0.8
	c-2.5-13.5-11.5-12.7-21-11.7c-3.5,0.4-5.9,2.8-7.6,5.8c-0.8,1.4-1.3,3-2.6,4.1c-2.6,1.4-5,3.2-7.8,4C28.6,63.3,25.5,64.8,23.9,60.9
	z M415.2,59c3.5-0.6,5.9-3.2,8.7-5c1.8,3.3,0.3,6.8,0.4,10.2c0.4,9.3,4.2,13.3,13.5,13.4c2.5,0,5,0.2,7.4-0.5
	c4.7-1.3,7.8-5.3,8.3-10.6c0.3-2.5-0.7-5.4,1.6-7.5c3.5-0.6,5.9-3.2,8.7-5c1.6,1.9,0.4,3.7-0.1,5.6c-1.6,1.7-1.9,3.3,0,5
	c1.9,14,10.8,14.2,21.6,12.4c4.8-0.8,7.7-5.2,8.2-10.6c0.3-2.5-0.8-5.4,1.5-7.5c2.8-0.1,4.4-2.7,7-3.3c1.2,1-0.2,1.7-0.1,2.6
	c0.3,2-3.5,4.3-0.7,5.4c2.8,1,7,1.8,8.7-2.8c0.9,1.1,0.9,2.5,0.9,3.8c0,13.4-0.1,26.9-0.1,40.3c-2.9,1.5-5.7,3.2-8.8,4.4
	c-3.4,1.3-6.7,1.3-7.2-3.6c-1.4-3.1-0.9-6.5-1.2-9.7c-0.6-5.3-2.5-7.3-7.9-7.6c-1.5-0.1-3-0.1-4.5,0c-6.7,0.2-8.7,2.2-8.9,9.1
	c-0.1,2.6,0.7,5.3-1.4,7.5c-2,0-3,1.7-4.7,2.4c-1.9,0.8-3.1,0.6-3.4-1.6c-2-2.6-1.1-5.7-1.2-8.6c-0.3-6.4-2.4-8.5-8.8-8.7
	c-1.7,0-3.3-0.1-5,0c-4.6,0.4-6.5,2.1-7.3,6.6c-0.3,1.7,0,3.7-1.7,5c-2.8,0.5-4.5,3.5-7.7,3c-2.1-1.8-1.4-4.2-1.6-6.5
	c-0.5-5.9-2.5-7.8-8.4-8.1c-1.3-0.1-2.6,0-4,0c-6.4,0.2-8.5,2.3-8.8,8.7c-0.2,2.9,0.8,6-1.2,8.6c-2.5,3.6-5.6,4.6-9.5,2.2
	c-0.8-3.9,0.3-7.9,0-11.8c-0.5-5.2-2.5-7.3-7.8-7.7c-1.6-0.1-3.3-0.1-5,0c-5.9,0.2-7.9,2.2-8.4,8.1c-0.2,2.2,0.5,4.7-1.6,6.5
	c-3.3-0.5-5.1,2.9-8.1,2.9c-1.9-2.9-0.9-6.1-1.1-9.2c-0.4-5.9-2.4-8-8.3-8.3c-1,0-2,0-3,0c-7.8,0.1-9.7,2-10,9.7
	c-0.1,2.6,0.6,5.3-1.2,7.7c-0.2,1.6-0.9,2.9-2.2,3.6c-1.7,0.9-3.7,1.2-5.1,0.1c-1.6-1.3-0.5-2.9,0.5-4.3c0.7-1,0.8-2.1,0.5-3.4
	c-3.9,0.3-6.3,3.5-9.8,4.3c-1.5-1.4-1.5-3.3-1.5-5.1c-0.1-10.5-0.1-20.9,0-31.4c0-2,0-4,1.7-5.5c6.1-2.5,11.2-6.5,16.7-10
	c1.6,1.9,0.4,3.7-0.1,5.6c-1.6,1.7-1.9,3.3,0,5c1.9,14,10.8,14.2,21.6,12.4c4.8-0.8,7.7-5.2,8.2-10.6c0.3-2.5-0.8-5.4,1.5-7.5
	c3.5-0.6,5.9-3.2,8.7-5c1.8,3.3,0.3,6.8,0.4,10.2c0.4,9.3,4.2,13.3,13.5,13.4c2.5,0,5,0.2,7.4-0.5c4.7-1.3,7.8-5.3,8.3-10.6
	C413.8,64,412.9,61.1,415.2,59z M71.2,61c2.8-0.5,4.5-3.5,7.7-3c2.2,2,1.4,4.6,1.5,7c0.4,8.4,4.5,12.4,12.9,12.6c2,0,4,0.1,6-0.1
	c5.8-0.6,9.5-4.5,10.3-10.5c0.3-2.1-0.4-4.4,1.6-6c2.8-0.5,4.5-3.5,7.7-3c2.2,2,1.4,4.6,1.5,7c0.4,8.4,4.5,12.4,12.9,12.6
	c2,0,4,0.1,6-0.1c5.8-0.6,9.5-4.5,10.3-10.5c0.3-2.1-0.4-4.4,1.6-6c2.8-0.5,4.5-3.5,7.7-3c2.2,2,1.4,4.6,1.5,7
	c0.4,8.4,4.5,12.4,12.9,12.6c2,0,4,0.1,6-0.1c5.8-0.6,9.5-4.5,10.3-10.5c0.3-2.1-0.4-4.4,1.6-6c5.7-2.2,10.2-6.5,15.7-9
	c0.7,0.5,0.8,1.1,0.7,1.9c-0.2,0.8-0.7,1.4-1.3,2c-2.2,2.5-3.5,4.9,0.7,6.8c0.7,0.3,1,1.3,1.2,2.1c0.8,12.4,0.3,24.7,0.3,37.1
	c0,1.5-0.2,3-1.5,4.1c-3.1,2.5-6.6,2.3-10.5,1.8c1-2.9,1.9-5.5,3-8.5c-3.5,0-5.6,2.8-8.4,3.7c-2-1.6-1.4-3.9-1.6-6
	c-0.4-6.5-2.4-8.4-9-8.6c-1.2,0-2.3,0-3.5,0c-6.4,0.2-8.4,2.3-8.7,8.8c-0.1,2.9,0.7,6-1.1,8.7c-2.8,0.8-5.7,4.4-8.4-0.2
	c-2-2.6-1.1-5.7-1.2-8.6c-0.3-6.4-2.4-8.5-8.8-8.7c-1.7,0-3.3-0.1-5,0c-4.8,0.4-6.8,2.3-7.4,7.1c-0.3,2.2,0.5,4.7-1.6,6.5
	c-2.6,1-5.2,2-7.8,3c-2.2-2.4-1.3-5.4-1.5-8.1c-0.4-6.2-2.4-8.3-8.7-8.5c-1.7-0.1-3.3-0.1-5,0c-5,0.4-7,2.5-7.5,7.6
	c-0.3,3.2,0.9,6.7-1.3,9.7c-1.3,2.8-4.5,3.2-5.8,1.9c-3.3-3.1,2.8-4.9,1.7-8.3c-1.3-1-2.5,0.9-3.9,0.6c-1.9-1.4-1.4-3.6-1.7-5.5
	c-0.7-3.6-2.8-5.6-6.4-6c-1.7-0.2-3.3-0.1-5-0.1c-7.5,0.1-9.4,2-9.7,9.5c-0.1,2.4,0.6,5.1-1.4,7.1c-2.8-1-5.1,3.8-8.1,0.7
	c-2-2.7-1.1-5.7-1.2-8.6c-0.3-6.4-2.4-8.5-8.9-8.7c-1.7,0-3.3,0-5,0c-4.3,0.2-6.7,2.3-7.4,6.6c-0.2,1.4-0.2,3-1.6,4
	c-5.2,3-10.4,6-15.7,9c-0.1-14.4-0.1-28.9-0.1-43.3c0-1.3,0-2.7,0.9-3.8c3.2,2.1,6.2,1.4,9.1-0.5c1.8-1.2,3.5-2.5,5.8-2.3
	c2.2,2,1.4,4.6,1.5,7c0.4,8.4,4.5,12.4,12.9,12.6c2,0,4,0.1,6-0.1c5.8-0.6,9.5-4.5,10.3-10.5C69.8,65,69.2,62.6,71.2,61z M265,47.2
	c16.3-0.1,32.6-0.1,49-0.2c3.6,0,5.1,1.8,5,5.3c0,16.5,0,33,0,49.5c0,3.5-1.4,5.3-5,5.3c-15.7-0.1-31.3-0.1-47-0.2
	c-1.4-1.8,0.1-3.4,0.3-5.1c0.1-0.9,0.6-2-0.6-2.6c-0.8-0.4-1.6,0.2-2.2,0.7c-3.1,2.4-6.2,4.8-9.5,7c-1.7,0-3.3,0-5,0
	c-0.7-2.6,1.1-4,2.6-5.6c4.3-4.7,8.1-9.7,12-14.7c1.6-2,4.2-5.2,2.3-7c-2-1.9-4,1.8-5.9,3c-3.4,2.1-6.2,5.1-9.4,7.4
	c-1.3,0.9-2.9,2.4-4.4,0.8c-1.2-1.3,0.1-2.9,0.9-4c4.5-6,9.7-11.4,14.3-17.3c1.8-2.2,3.4-4.5,4.5-7.1c0.4-1,1.2-2.3-0.1-3.1
	c-1-0.6-1.9,0.3-2.6,0.9c-3.5,2.8-7.3,5.3-10.5,8.4c-0.6,0.6-1.3,1.1-2,1.5c-1.4,0.7-2.9,2.4-4.4,0.8c-1.2-1.3,0-2.9,0.9-4
	C253.6,60.2,258.7,53.1,265,47.2z"/>
<path style="fill:#FFFFFF;" d="M71,213.3c0,13.7-0.2,27.3,0.1,41c0.1,4.1-1.3,5-5,4.8c-5.3-0.3-10.7-0.2-16,0
	c-2.3,0.1-3.1-0.6-3.1-3.1c0.1-28.7,0.1-57.3,0-86c0-2.5,0.8-3.1,3.2-3.1c5.8,0.1,11.7,0.2,17.5,0c3.1-0.1,3.4,1.2,3.4,3.8
	C70.9,184.9,71,199.1,71,213.3z M487,213.5c0,13.8-0.1,27.6,0.1,41.4c0,3.3-0.9,4.3-4.1,4.1c-5.5-0.3-11-0.1-16.5,0
	c-2.4,0.1-3.6-0.3-3.5-3.2c0.1-28.6,0.1-57.2,0-85.8c0-2.3,0.6-3.2,3.1-3.1c5.8,0.2,11.6,0.2,17.5,0c2.9-0.1,3.6,0.9,3.6,3.7
	C486.9,184.9,487,199.2,487,213.5z M167,213c0,14-0.1,28,0.1,41.9c0,3.2-0.7,4.3-4.1,4.2c-5.6-0.3-11.3-0.2-17,0
	c-2.4,0.1-3.2-0.8-3.1-3.1c0.2-2.5,0.1-5,0-7.5c-0.1-3-0.3-5.5,3.8-6.7c3.8-1.1,4.3-5,4.3-8.7c-0.1-20.3,0.1-40.6-0.1-60.9
	c0-3.9,0.6-5.4,5-5.3C167,167.2,167,167,167,178C167,189.7,167,201.3,167,213z M79,212.5c0-13.8,0.1-27.6-0.1-41.4
	c0-3.3,0.8-4.2,4.1-4.1c12,0,12-0.1,12,11.7c0,18.1,0.1,36.3,0,54.4c0,4.7,1.3,8.2,6,9.7c1.6,0.5,1.9,1.2,2.1,2.7
	c1.3,13.6,1.3,13.6-12.1,13.6c-12,0-12,0-12-12.1C79,235.4,79,223.9,79,212.5z M271,213c0-14,0.1-27.9-0.1-41.9
	c0-3.2,0.7-4.2,4.1-4.2c12,0,12-0.1,12,11.7c0,18.1,0.1,36.3-0.1,54.4c0,4.7,1.3,8.2,6,9.7c1.5,0.5,2,1.1,2.1,2.7
	c1.3,13.6,1.4,13.6-12,13.6c-12,0-12,0-12-12C271,235.6,271,224.3,271,213z M455,213.5c0,13.8-0.1,27.6,0.1,41.4
	c0,3.3-1,4.2-4.2,4.1c-5.3-0.2-10.7-0.3-16,0c-3.5,0.2-4.3-1.1-4-4.2c0.2-1.8,0.1-3.7,0-5.5c-0.1-3.4-0.6-6.5,4.3-7.9
	c3.4-1,3.8-5,3.8-8.5c-0.1-20.5,0.1-40.9-0.1-61.4c0-3.7,0.8-4.8,4.6-4.7c11.5,0.2,11.5,0,11.5,11.7C455,190.3,455,201.9,455,213.5z
	 M367,212.5c0-13.8,0.1-27.6-0.1-41.4c0-3.3,0.9-4.1,4.1-4.1c11.9,0,11.9-0.1,11.9,11.7c0,17.8,0.1,35.6-0.1,53.4
	c0,5.1,0.9,9.3,6.5,10.8c1.2,0.3,1.6,1,1.5,2.1c0,0.2,0,0.3,0,0.5c1.3,13.5,1.3,13.5-12,13.5c-11.9,0-11.9,0-11.9-12.1
	C367,235.4,367,223.9,367,212.5z M359,213.2c0,14-0.1,28,0.1,41.9c0,3-0.6,4.1-3.8,4c-5.8-0.3-11.6-0.1-17.5,0c-2.2,0-3-0.7-2.8-2.8
	c0.2-2.5,0.1-5,0-7.5c-0.2-3.3-0.1-5.7,4-7c3.5-1.1,4.1-4.8,4.1-8.4c-0.1-20.5,0-40.9-0.1-61.4c0-3.6,0.5-5.2,4.7-5.1
	c11.3,0.3,11.3,0.1,11.3,11.4C359,189.9,359,201.5,359,213.2z M263,213c0,14-0.1,27.9,0.1,41.9c0,3.2-0.7,4.3-4.1,4.2
	c-5.6-0.3-11.3-0.2-17,0c-2.4,0.1-3.2-0.8-3.1-3.1c0.2-2.5,0.1-5,0-7.5c-0.1-3.1-0.3-5.5,3.8-6.7c3.7-1.1,4.3-5,4.3-8.7
	c-0.1-20.5,0-40.9-0.1-61.4c0-3.5,0.6-4.9,4.5-4.8c11.5,0.2,11.5,0,11.6,11.6C263,190,263,201.5,263,213z M175,212.9
	c0-14,0.1-27.9-0.1-41.9c0-3.3,1-4.1,4.2-4.1c11.9,0,11.9-0.1,11.9,11.8c0,18.1,0.1,36.3,0,54.4c0,4.7,1.4,8.2,6.1,9.7
	c1.6,0.5,1.9,1.3,2,2.8c1.2,13.5,1.2,13.5-12.1,13.5c-11.9,0-11.9,0-11.9-12.1C175,235.5,175,224.2,175,212.9z M127,202.5
	c0,10.3,0.1,20.6,0,30.9c-0.1,4.5,1.5,7.9,5.9,9.2c1.9,0.6,2,1.6,2.1,3.2c0.8,13.1,0.8,13.1-12.5,13.1c-11.6,0-11.6,0-11.6-11.5
	c0-2.6,0.1-4.4,3.3-5.4c4-1.3,4.7-5,4.7-9c-0.1-20.5,0-40.9-0.1-61.4c0-2.9-0.2-4.9,4-4.8c3.9,0,4.2,1.5,4.1,4.7
	C126.9,181.8,127,192.2,127,202.5z M415,202.6c0,10.5,0,21,0,31.4c0,3.4,0.9,6.9,4.2,7.8c4.5,1.2,3.8,4.1,3.8,7.2
	c0,10,0,10-10.1,10.1c-0.7,0-1.3,0-2,0c-12.1,0-12.1,0-12-12.1c0-2.4,0.4-3.8,3-4.6c4-1.3,5.1-4.7,5.1-8.8
	c-0.1-20.6,0-41.3-0.1-61.9c0-3.1,0.1-4.7,4.1-4.7s4.1,1.8,4,4.8C414.9,181.9,415,192.3,415,202.6z M319,202.7c0,10.3,0.1,20.6,0,31
	c0,4.3,1.5,7.6,5.7,8.9c2,0.7,2.3,1.7,2.4,3.5c0.5,12.9,0.5,12.9-12.2,12.9c-11.9,0-11.9,0-11.9-11.8c0-2.5,0.2-4.1,3.1-5.1
	c4-1.3,5-4.8,5-8.8c-0.1-20.5,0-40.9-0.1-61.4c0-3.6,0.5-5.4,4.7-5.1c3.1,0.2,3.4,1.4,3.4,3.9C318.9,181.4,319,192.1,319,202.7z
	 M223,202.8c0,10.3,0.1,20.6,0,30.9c0,4.3,1.6,7.6,5.7,8.9c2.1,0.7,2.3,1.8,2.3,3.6c0.5,12.8,0.5,12.8-12.3,12.8
	c-11.8,0-11.8,0-11.8-11.8c0-2.6,0.4-4.1,3.2-5c4-1.3,4.9-4.9,4.9-8.9c-0.1-20.6,0.1-41.3-0.1-61.9c0-4.1,1.4-4.6,4.8-4.5
	c2.6,0.1,3.4,0.8,3.3,3.4C222.9,181.1,223,192,223,202.8z M265,47.2c-3.2,5.6-7.5,10.5-11.9,15.1c-2.3,2.4-4.2,5-4.9,8.7
	c5.1-4,10.2-8,15.3-12c1.5-1.2,3-2.9,4.7-1.4c1.6,1.3,0.7,3.4-0.1,5.1c-3.5,7.5-9.6,13.1-14.7,19.3c-2.2,2.7-4.6,5.1-5.3,9
	c5-3.9,10-7.7,15-11.7c1.6-1.2,3.1-3.4,5.1-1.7c1.8,1.5,0.6,3.7-0.3,5.5c-3.3,7-9.1,12.2-13.8,18.1c-1.4,1.8-3.2,3.4-4.1,5.6
	c-10,0.1-19.9,0.1-29.9,0.2c-3.5,0-5.2-1.6-5.2-5.1c0-16.6,0-33.2,0-49.8c0-3.6,1.7-5.1,5.2-5.1C235.1,47.1,250.1,47.1,265,47.2z"/>
<path style="fill:#00D40B;" d="M63,131.5c0,9-2.3,11.5-10.9,11.5c-11,0-13.1-1.8-13.1-11.3C39,121,40.9,119,50.6,119
	C61.1,119,63,120.9,63,131.5z M95,131.2c0,9.7-2.1,11.8-12.1,11.8S71,141,71,130.5c0-9.2,2.3-11.5,11.4-11.5
	C93.1,119,95,120.8,95,131.2z M115.1,143c-9.7,0-12.1-2.1-12.1-10.7c0-11.4,1.7-13.3,12.1-13.3c9.7,0,11.9,2.1,11.9,11.5
	C127,141,125.1,143,115.1,143z M146.8,143c-9.9,0-11.8-2-11.8-12.6c0-9.4,2.2-11.4,12.5-11.4c9.7,0,11.5,2.1,11.5,13.4
	C159,140.9,156.5,143,146.8,143z M191,131c0,10.2-1.9,12-12.9,12c-8.8,0-11.1-2.4-11.1-11.3c0-10.9,1.8-12.7,12.7-12.7
	C188.9,119,191,121.3,191,131z M355.2,119c9.6,0,11.8,2.1,11.8,11.6c0,10.5-1.9,12.4-12.4,12.4c-9.3,0-11.6-2.2-11.6-11.3
	C343,120.9,344.8,119,355.2,119z M399,131c0,9.8-2.1,12-11.3,12c-10.5,0-12.7-1.9-12.7-11.2c0-10.7,1.9-12.8,11.6-12.8
	C397,119,399,120.9,399,131z M419.2,119c9.6,0,11.8,2.1,11.8,11.5c0,10.6-1.9,12.5-12.4,12.5c-9.3,0-11.6-2.2-11.6-11.3
	C407,120.9,408.8,119,419.2,119z M463,131.5c0,9.1-2.3,11.6-10.8,11.6c-11,0-13.2-1.8-13.2-11.2c0-10.7,1.9-12.8,11.6-12.8
	C461.1,119,463,120.9,463,131.5z M483,143c-10.1,0-12-2-12-12.3c0-9.5,2.2-11.7,11.7-11.7c10.5,0,12.3,1.9,12.3,13.1
	C495,140.9,492.6,143,483,143z"/>
<path style="fill:#1C71DA;" d="M234.7,147c-9.4,0-11.7-2.2-11.7-11.1c0-11,1.8-12.9,12.5-12.9c9.5,0,11.5,2.2,11.5,12.4
	C247,145,244.9,147,234.7,147z M279,135.2c0,9.4-2.2,11.8-11.1,11.8c-10.6,0-12.9-1.9-12.9-11c0-10.9,1.8-13,11.4-13
	C277.1,123,279,124.8,279,135.2z M311,135.2c0,9.7-2.1,11.8-11.5,11.9c-10.6,0-12.5-1.9-12.5-12.4c0-9.3,2.2-11.6,11.3-11.6
	C309.1,123,311,124.8,311,135.2z"/>
<path style="fill:#EDEEEE;" d="M255,106.8c2.4-4.5,7.1-6.6,11-9.5c1.9-1.5,3.4,0.6,2.9,2.8c-0.4,2.3-1.3,4.4-1.9,6.6
	C263,106.8,259,106.8,255,106.8z"/>
<path style="fill:#A60A94;" d="M486.9,98.9c0.7,3.5-1,4.1-3.9,4.2c-3,0-4-0.9-4.1-4c-0.1-3.4,1.2-4.2,4.4-4.2
	C486.5,95,487.6,96.1,486.9,98.9z M51.2,95.1c3.3-0.6,3.9,1.1,3.9,4c0,3-0.9,4-4,4.1c-3.4,0.1-4.2-1.2-4.2-4.4
	C46.9,95.4,48.3,94.6,51.2,95.1z M450.7,102.9c-3.4,0.6-3.6-1.5-3.7-4.1c-0.3-3.8,1.9-3.8,4.6-3.9c3.7-0.2,3.3,2.1,3.5,4.5
	C455.3,102.9,453.4,103.3,450.7,102.9z M358.9,99.2c0.6,3.3-1.1,3.9-4,3.9c-3,0.1-4-0.9-4.1-4c-0.1-3.4,1.2-4.2,4.4-4.2
	C358.6,94.9,359.4,96.3,358.9,99.2z M387,95.1c3.7-0.7,3.9,1.3,4.1,4c0.2,3.7-1.8,3.8-4.6,3.9c-3.6,0.2-3.4-2-3.5-4.5
	C382.8,95.3,384.4,94.5,387,95.1z M86.9,99.4c0.6,3.5-1.5,3.5-4.2,3.7c-3.8,0.3-3.7-1.9-3.8-4.7c-0.2-3.7,2.1-3.3,4.5-3.5
	C87,94.7,87.3,96.7,86.9,99.4z M115,102.9c-3.7,0.7-3.9-1.3-4.1-4c-0.1-3.2,1.2-3.8,4.1-3.9c3.6-0.1,4,1.5,4,4.5
	C119.1,102.7,117.6,103.5,115,102.9z M146.7,102.9c-3.4,0.6-3.6-1.5-3.7-4.1c-0.3-3.8,1.9-3.8,4.6-3.9c3.7-0.2,3.3,2.1,3.5,4.5
	C151.3,102.9,149.3,103.3,146.7,102.9z M179.3,95.1c3.4-0.6,3.6,1.4,3.8,4.1c0.2,3.7-1.8,3.8-4.6,3.9c-3.6,0.2-3.4-2-3.5-4.5
	C174.7,95.2,176.5,94.7,179.3,95.1z"/>
<path style="fill:#DC575E;" d="M238.9,134.8c0.8,3.8-1.1,4.3-4.1,4.3c-3.3,0.1-3.7-1.2-3.9-4.1c-0.1-3.5,1.2-4.2,4.3-4.1
	C238.3,131,239.8,131.8,238.9,134.8z M270.9,135.2c0.7,3.2-0.9,3.8-3.9,3.9c-3.3,0.1-4.1-1.1-4.2-4.3c-0.1-3.7,1.7-3.8,4.5-3.9
	C270.8,130.8,271.4,132.4,270.9,135.2z M298.7,131.1c2.7-0.4,4.6-0.1,4.4,3.4c-0.2,2.7,0,4.8-3.8,4.6c-3.1-0.1-4.5-0.7-4.3-4.1
	C295,132.2,295.4,130.3,298.7,131.1z"/>
<path style="fill:#009A0B;" d="M50.7,136.7c-4.9,0.9-5.4-1.8-5.6-5.8c-0.3-5.3,2.4-5.7,6.6-5.8c5.2-0.2,5,2.7,5.2,6.4
	C57.2,136.4,54.8,137.4,50.7,136.7z M83.2,125.2c4.8-0.9,5.6,1.6,5.7,5.8c0.1,4.4-1.3,5.9-5.8,5.9c-5,0.1-6.1-1.8-6.1-6.4
	C77,125.8,79,124.6,83.2,125.2z M120.7,131.4c0.9,4.9-2,5.3-5.9,5.5c-5.5,0.3-5.6-2.6-5.7-6.7c-0.2-5.3,2.9-4.9,6.5-5.2
	C120.6,124.8,121.3,127.4,120.7,131.4z M152.7,131.1c0.9,4.6-1.2,5.8-5.6,5.8c-4.2,0-6-1-6.1-5.6c0-4.7,1.4-6.3,6.2-6.2
	C151.8,125.1,153.5,126.8,152.7,131.1z M178.4,136.8c-5.1,0.9-5.1-2.3-5.4-6.1c-0.4-5.6,2.8-5.4,6.8-5.6c5.4-0.3,4.8,3.1,5,6.6
	C185.3,136.8,182.3,137.2,178.4,136.8z M355.3,125c5-1,5.7,1.8,5.8,6c0.1,4.6-1.5,6-6.1,6.1c-5.2,0.1-6.2-2-6.3-6.7
	C348.8,125.5,351,124.4,355.3,125z M386.7,136.9c-4.9,1-5.8-1.7-5.8-6c-0.1-4.5,1.4-6,6-6.1c5.1-0.1,6.3,1.9,6.3,6.6
	C393.1,136.4,391,137.6,386.7,136.9z M418.9,136.9c-5.7,1.1-5.8-2.2-6-6.2c-0.4-5.8,2.9-5.6,7-5.8c5.6-0.3,5,3.2,5.2,6.8
	C425.4,136.8,422.7,137.7,418.9,136.9z M457,131.5c1,5.2-2.2,5.4-6.2,5.6c-5.7,0.4-5.7-2.8-5.9-7c-0.2-5.5,3.1-5,6.8-5.3
	C456.9,124.5,457.5,127.5,457,131.5z M489,131.6c1,5.3-2.3,5.3-6.3,5.6c-5.8,0.4-5.6-2.9-5.8-7c-0.3-5.6,3.2-5,6.8-5.2
	C489,124.5,489.4,127.6,489,131.6z"/>
<path style="fill:#FFF500;" d="M71.2,61c-0.1,1.7-0.1,3.3-0.2,5c-0.1,1.2,0,2.3-0.3,3.5C69,77,62.1,80.2,50,79
	c-6.4-0.7-10.8-5.7-11-12.5c-0.1-2.8-0.1-5.6-0.2-8.4c3-9.8,7.9-12.3,21.1-11C66.7,47.7,70.6,52.6,71.2,61z M111.2,61
	c-0.1,1.7-0.1,3.3-0.2,5c-0.1,1.2,0,2.3-0.3,3.5C109,77.1,102.1,80.2,90,79c-6.4-0.7-10.8-5.7-11-12.5c-0.1-2.8-0.1-5.6-0.2-8.4
	c3-9.8,7.9-12.3,21.1-11C106.7,47.7,110.6,52.6,111.2,61z M151.2,61c-0.1,1.7-0.1,3.3-0.2,5c-0.1,1.2,0,2.3-0.3,3.5
	c-1.7,7.6-8.7,10.8-20.7,9.6c-6.4-0.7-10.8-5.7-11-12.5c-0.1-2.8-0.1-5.6-0.2-8.4c3-9.8,7.9-12.3,21.1-11
	C146.7,47.7,150.6,52.6,151.2,61z M191.2,61c-0.1,1.7-0.1,3.3-0.2,5c-0.1,1.2,0,2.3-0.3,3.5c-1.7,7.6-8.7,10.8-20.7,9.6
	c-6.4-0.7-10.8-5.7-11-12.5c-0.1-2.8-0.1-5.6-0.2-8.4c3-9.8,7.9-12.3,21.1-11C186.7,47.7,190.6,52.6,191.2,61z M415.2,59
	c-0.1,2.2-0.1,4.3-0.2,6.5c0,1.2,0.1,2.3-0.1,3.5c-1.4,7.8-8,11-20.4,10.1c-6.6-0.5-11.3-5.4-11.4-12.2c-0.1-4.3-0.5-8.6,0.8-12.8
	c5.1-6.8,17.5-9.6,24.8-5.5C412.7,50.7,414.8,54.4,415.2,59z M462.8,60c0.3-2,0.7-4,1-6c5.1-6.8,17.5-9.6,24.8-5.5
	c4,2.3,6.1,5.9,6.5,10.5c-0.1,2.3-0.1,4.6-0.2,6.9c0,1.7-0.1,3.3-0.7,4.9c-2.5,7-9.4,9.7-20.8,8.1c-6.1-0.9-10.2-5.7-10.5-12.5
	c0-0.8-0.1-1.6-0.2-2.5C461.8,62.7,462,61.3,462.8,60z M455.2,59c-0.1,2.2-0.1,4.3-0.2,6.5c0,1.2,0.1,2.3-0.1,3.5
	c-1.4,7.8-8,11-20.4,10.1c-6.6-0.5-11.3-5.4-11.4-12.2c-0.1-4.3-0.5-8.6,0.8-12.8c5.1-6.8,17.5-9.6,24.8-5.5
	C452.7,50.7,454.8,54.4,455.2,59z M375.1,59c-0.1,2.3-0.1,4.6-0.2,6.9c0,1.7-0.1,3.3-0.7,4.9c-2.5,7-9.4,9.7-20.8,8.1
	c-6.1-0.9-10.2-5.7-10.5-12.5c0-0.8-0.1-1.6-0.2-2.5c-1-1.3-0.9-2.7,0-4c0.3-2,0.7-4,1-6c5.1-6.8,17.5-9.6,24.8-5.5
	C372.7,50.7,374.7,54.4,375.1,59z"/>
<path style="fill:#FFC504;" d="M55.3,53c9.3,0,9.7,0.4,9.7,10.6c0,9-0.5,9.4-10.3,9.4c-9.3,0-9.7-0.4-9.7-10.6
	C45,53.4,45.5,53,55.3,53z M95.2,54.2c8.4,0,8.7,0.3,8.6,9.3c0,8-0.4,8.4-9,8.4c-8.3,0-8.7-0.3-8.6-9.3
	C86.2,54.5,86.6,54.1,95.2,54.2z M135.2,73.7c-10.6,0-10.9-0.4-10.9-10.8c0-10.1,0.4-10.6,10.5-10.6c10.6,0,10.9,0.4,10.9,10.8
	C145.7,73.2,145.2,73.7,135.2,73.7z M174.8,73c-9.4,0-9.7-0.4-9.7-10.5c0-9,0.5-9.4,10.2-9.4c9.4,0,9.8,0.4,9.7,10.5
	C184.9,72.5,184.5,73,174.8,73z M369.1,62.6c0,10.3-0.3,10.6-10.1,10.6c-10.1,0-10.3-0.2-10.3-11c0-8.7,0.6-9.3,9.4-9.3
	C368.7,52.8,369.1,53.2,369.1,62.6z M409.2,62.8c0,10-0.3,10.3-10.3,10.3c-9.7,0-10-0.3-10-10.7c0-9.1,0.6-9.7,9.7-9.7
	C408.8,52.8,409.2,53.1,409.2,62.8z M478.6,73.2c-9.4,0-9.8-0.4-9.8-10.9c0-9,0.5-9.5,10.6-9.5c9.5,0,9.8,0.3,9.8,10.9
	C489.2,72.8,488.7,73.2,478.6,73.2z M438.8,73.2c-9.6,0-9.9-0.3-9.9-10.7c0-9.2,0.5-9.6,10.4-9.6c9.6,0,10,0.4,9.9,10.7
	C449.2,72.8,448.7,73.2,438.8,73.2z"/>
<path style="fill:#DC0094;" d="M50.7,104.7c-4.9,0.9-5.4-1.8-5.6-5.8c-0.3-5.3,2.4-5.7,6.6-5.8c5.2-0.2,5,2.7,5.2,6.4
	C57.2,104.4,54.8,105.4,50.7,104.7z M83.2,93.2c4.8-0.9,5.6,1.6,5.7,5.8c0.1,4.4-1.3,5.9-5.8,5.9c-5,0.1-6.1-1.8-6.1-6.4
	C77,93.8,79,92.6,83.2,93.2z M120.7,99.4c0.9,4.9-2,5.3-5.9,5.5c-5.5,0.3-5.6-2.6-5.7-6.7c-0.2-5.3,2.9-4.9,6.5-5.2
	C120.6,92.8,121.3,95.4,120.7,99.4z M152.7,99.1c0.9,4.6-1.2,5.8-5.6,5.8c-4.2,0-6-1-6.1-5.6c0-4.7,1.4-6.3,6.2-6.2
	C151.8,93.1,153.5,94.8,152.7,99.1z M178.4,104.8c-5.1,0.9-5.1-2.3-5.4-6.1c-0.4-5.6,2.8-5.4,6.8-5.6c5.4-0.3,4.8,3.1,5,6.6
	C185.3,104.8,182.3,105.2,178.4,104.8z M355.3,93c5-1,5.7,1.8,5.8,6c0.1,4.6-1.5,6-6.1,6.1c-5.2,0.1-6.2-2-6.3-6.7
	C348.8,93.5,351,92.4,355.3,93z M386.7,104.9c-4.9,1-5.8-1.7-5.8-6c-0.1-4.5,1.4-6,6-6.1c5.1-0.1,6.3,1.9,6.3,6.6
	C393.1,104.4,391,105.6,386.7,104.9z M418.9,104.9c-5.7,1.1-5.8-2.2-6-6.2c-0.4-5.8,2.9-5.6,7-5.8c5.6-0.3,5,3.2,5.2,6.8
	C425.4,104.8,422.7,105.7,418.9,104.9z M457,99.5c1,5.2-2.2,5.4-6.2,5.6c-5.7,0.4-5.7-2.8-5.9-7c-0.2-5.5,3.1-5,6.8-5.3
	C456.9,92.5,457.5,95.5,457,99.5z M489,99.6c1,5.3-2.3,5.3-6.3,5.6c-5.8,0.4-5.6-2.9-5.8-7c-0.3-5.6,3.2-5,6.8-5.2
	C489,92.5,489.4,95.6,489,99.6z"/>
</svg>
