<?xml version="1.0" encoding="utf-8"?>
<!-- Generator: Adobe Illustrator 23.0.3, SVG Export Plug-In . SVG Version: 6.00 Build 0)  -->
<svg version="1.1" id="Layer_1" xmlns="http://www.w3.org/2000/svg" xmlns:xlink="http://www.w3.org/1999/xlink" x="0px" y="0px"
	 viewBox="0 0 578.3 558.5" style="enable-background:new 0 0 578.3 558.5;" xml:space="preserve">
<path style="fill:#1C71DA;" d="M414.5,468.8c-1.2-4.4-3.3-3.1-6-1.2c-27.3,19.7-57.6,32.5-90.4,39.7c-29.4,6.4-58.9,6.9-88.6,2.8
	c-44.5-6.3-84.2-23.8-118.9-51.9C69.6,425,40.9,382.9,27.5,331.7c-21.3-81.2-6.3-155.9,45.9-221.9c35.2-44.6,81.6-73.6,137.2-85.7
	C282.2,8.4,349,21,409.3,63.6c49.8,35.3,81.8,82.9,97,141.9c0.8,3.2,2.6,6.2,3.9,9.3c5.6,21.3,5.1,43.1,4.9,64.8
	c0,5-0.6,10-0.6,14.9c0.3,2.2,0.4,4.5-0.4,6.7c-3.9,6.5-2.8,14.2-5.2,21.1c-2.5,8.7-4.7,17.4-7.7,25.9c-0.8,2.4-1.8,4.7,0,7.1
	c-5.4,6-8.7,13.1-11.1,20.7c-13.1,24.2-28.6,46.7-48.3,66.1c-6.1,6.3-12.7,12.1-19.8,17.3C418.5,462,417.3,465.9,414.5,468.8z"/>
<path style="fill:#1C71DA;" d="M488.5,376c0.9-6.3,5-11.4,6.9-17.3c0.9-2.8,4.1-1.4,5.5-3.1c8.5-4.7,8.7-4.7,7.2-15.3
	c-0.8-6-1.2-11.8-0.4-17.8c0.9-6.5,1.9-13.1,2.8-19.6c0.3-1.9,1.4-1.1,2.4-0.7c2.1,1.5,1.7,4,2.2,6.1c0.8,3.8,3.4,4.3,6.6,3.7
	c3.3-0.6,4.2-2.4,3.9-5.8c-0.9-8.4-0.7-8.4-9.4-9.5c-1.2-0.1-2.1-0.6-3-1.4c-3-2.6-0.2-5.5-0.2-8.2c0.2-22.3,1.4-44.7-3.7-66.8
	c-0.4-1.8-1.3-4,0.9-5.6c15.7,29.1,23.1,60.4,26.2,93.1c3,31.2,6.9,62.3,10.3,93.4c3.4,30.5,6.7,60.9,10,91.4c1,9.5,1.7,19,3.2,28.4
	c0.6,4.2-0.7,4.9-4.3,5.3c-26.9,2.9-53.7,6-80.6,9c-15.1,1.7-30.3,3.2-45.4,5.2c-5.3,0.7-7.6,0-8.2-6.1c-2-21.9-4.6-43.8-6.9-65.8
	c0.1-3.2,0.6-5.9,3.4-8.2c7.6-6.2,15-12.7,22.5-19.1c16.5-3.4,33.3-4.1,50-6.3c7.2-1,14.4-1.6,21.6-2.5c4.2-0.5,6.1-2.2,5.5-6.6
	c-2-14.8-3.4-29.8-5.1-44.6c-0.5-4.1-2.2-5.5-6.2-5.2c-3.2,0.3-6.3,0.6-9.5,1C494,377.7,491,378.3,488.5,376z"/>
<path style="fill:#FFFFFF;" d="M496.7,265.4C496.5,392.2,396.5,491.3,276,495.8c-137.1,5.1-236.5-102-240.6-221.1
	c-4.7-136,101.7-235.1,219.9-240C391.8,29,497.2,138.2,496.7,265.4z"/>
<path style="fill:#FFFFFF;" d="M488.5,376c6.8-0.7,13.6-1.1,20.3-2.1c3.4-0.5,5-0.1,5.4,3.7c1.7,17,3.6,33.9,5.6,50.8
	c0.5,4.3-0.7,5.8-5.2,6.2c-22.8,2.3-45.6,5.1-68.4,7.6c-1.9,0.2-4,1.4-5.7-0.7C459.5,421.9,475,399.7,488.5,376z"/>
<path style="fill:#FFFFFF;" d="M513.2,295.4c12.6-0.9,12.1-0.8,14.5,11.3c1.3,6.8-2.6,6.6-6.8,7.4c-5,1-7.8-0.3-7.6-5.8
	c0.1-2-0.2-4-0.3-6.1C513,300,513.1,297.7,513.2,295.4z"/>
<path style="fill:#FFFFFF;" d="M507.7,322.5c1.2,9.4,2.2,18.8,3.6,28.2c0.4,3.1-0.9,4.1-3.6,4.3c-2.3,0.2-4.5,0.3-6.8,0.5
	c-1.6-0.6-4.4,0.5-3.1-3.2C501.3,342.4,504.4,332.4,507.7,322.5z"/>
<path style="fill:#FFFFFF;" d="M443.3,466.4c-1.1-3.3,0.5-5,4.7-5.4c23.1-2.4,46.1-4.9,69.1-7.5c4-0.5,5.5,0.4,5.9,4.7
	c1.7,17.2,3.7,34.3,5.8,51.5c0.4,3.1-0.5,3.8-3.4,4.2c-23.7,2.6-47.4,5.3-71.1,7.9c-2.4,0.3-4.9,0.9-5.3-3.1
	C447.2,501.5,445.2,484.3,443.3,466.4z"/>
<path style="fill:#FFFFFF;" d="M535.3,473.5c-7.3-3.8-4.6-11.2-5.1-16.4c-0.6-6.6,7.1-4.6,9.6-4.2c9.2,1.6,4.3,10.2,5.2,15.4
	C546.1,474.4,538.8,470.5,535.3,473.5z"/>
<path style="fill:#FFFFFF;" d="M525.6,331.5c9.2,2.1,5.2,10.2,6.1,15.2c1.6,8.3-6.9,5.1-9.4,4.7c-8.5-1.4-4.4-9.4-5.4-14.5
	C515.5,329.6,522.6,334,525.6,331.5z"/>
<path style="fill:#FFFFFF;" d="M536.7,389c1.2,3.9-2.4,4.3-6.4,4.5c-3.9,0.2-8.6,1.9-7.9-5.1c0.1-1.3-0.4-2.7-0.6-4
	c-1.3-8.9,2.3-12.2,11.2-10.6c1.9,0.3,2,1.5,2.1,2.8C535.5,380.1,536,383.7,536.7,389z"/>
<path style="fill:#FFFFFF;" d="M540.5,424.8c1.3,9.1-6.1,5.3-9.5,6.6c-4.6,1.7-4.1-2.3-4.4-5.1c-0.2-2.5-0.6-4.9-1.1-7.4
	c-0.9-4.2,0-6.4,5.1-6.9C539.8,411,539.8,410.6,540.5,424.8z"/>
<path style="fill:#FFFFFF;" d="M543.3,489.9c9,2.4,5.1,10.5,5.9,15.5c1.1,7.3-6.5,4.7-9.3,4.3c-9.9-1.3-4.2-10.1-5.4-15.1
	C533.1,488.6,540.1,492.2,543.3,489.9z"/>
<path style="fill:#FFFFFF;" d="M442.5,515.2c2,4.8-1.1,6.1-6.3,6.6c-5.1,0.5-8.5,0-7.8-6.3c0.1-1.1-0.2-2.2-0.3-3.4
	c-1.2-8.5,2.5-11.9,11-10.4c1.8,0.3,2,1.5,2.2,2.8C441.6,507.8,442,510.9,442.5,515.2z"/>
<path style="fill:#FFFFFF;" d="M438.2,476.4c-0.4,2.4,1.9,5.7-1.2,6.8c-3.5,1.2-7.6,1-11.4,1.1c-0.3,0-1-1.9-1.1-2.9
	c-0.4-2.5-0.4-5-0.8-7.4c-1.1-8.5-1.1-8.3,7.4-9.3c4.3-0.5,6.3,0.6,6.4,5.1C437.5,471.9,437.9,474.2,438.2,476.4z"/>
<path style="fill:#1C71DA;" d="M201.8,264.1c0.3-33.6,27.3-61.2,60.2-63c38.9-2.1,67.9,28.6,68.1,63.2c0.2,36.1-28.1,64.9-63.7,65.1
	C230,329.6,202,301.3,201.8,264.1z"/>
<path style="fill:#D0E8FF;" d="M83.2,189.8c-0.1-28,23.9-52.2,52.1-52.5c29.4-0.3,54.1,23.9,53.9,52.8c-0.2,29.5-24,53.1-53.5,53.2
	C107,243.3,83.3,219.1,83.2,189.8z"/>
<path style="fill:#D0E8FF;" d="M83.2,340.5c0-29.6,23.8-53.4,53.3-53.2c28.6,0.1,52.3,23.8,52.6,52.7c0.3,28.8-23.8,53.2-52.7,53.3
	C107.4,393.3,83.2,369.4,83.2,340.5z"/>
<path style="fill:#D0E8FF;" d="M266.2,362.3c29.2,0.3,53.2,24.5,52.8,53.1c-0.4,29.4-24.9,53.4-53.9,52.8
	c-29.1-0.6-52.2-24.6-52.1-53.9C213.1,386.1,237.7,362,266.2,362.3z"/>
<path style="fill:#D0E8FF;" d="M395.8,243.2c-29,0-53.2-24.3-52.9-53c0.3-29.6,24.2-53.2,53.7-53c28.6,0.3,52.2,24.2,52.2,53
	C448.8,219.3,424.8,243.3,395.8,243.2z"/>
<path style="fill:#D0E8FF;" d="M448.8,340.4c-0.3,29.5-24.4,53.1-53.8,52.9c-28.7-0.3-52.3-24.7-52.1-53.9
	c0.2-28.3,24.8-52.4,53.2-52.1C425.2,287.6,449.1,311.7,448.8,340.4z"/>
<path style="fill:#D0E8FF;" d="M213,114.6c0.1-28,24.3-52.2,52.3-52.2c29.3,0,53.6,23.6,53.7,52.3c0.1,29.8-23.8,53.6-53.7,53.6
	C236.7,168.2,213,143.9,213,114.6z"/>
<path style="fill:#FFC504;" d="M267.3,220.6c25.7,0.3,43.7,19.5,43.4,46.5c-0.3,24.9-19.9,43.2-45.9,42.9
	c-25.4-0.3-43.6-19.3-43.4-45.4C221.5,238.6,240.5,220.3,267.3,220.6z"/>
</svg>
