<?xml version="1.0" encoding="utf-8"?>
<!-- Generator: Adobe Illustrator 23.0.3, SVG Export Plug-In . SVG Version: 6.00 Build 0)  -->
<svg version="1.0" id="Layer_1" xmlns="http://www.w3.org/2000/svg" xmlns:xlink="http://www.w3.org/1999/xlink" x="0px" y="0px"
	 viewBox="0 0 612.2 400" style="enable-background:new 0 0 612.2 400;" xml:space="preserve">
<path style="fill:#0E0E0E;" d="M536.2,140.2c15.4-15.3,22.2-34.3,25.9-55.1c3.2-18,7.7-35.7,11.8-53.6c1.5-6.7,6.3-10.2,11.8-8.9
	c5.6,1.4,8.3,6.5,6.8,13.2c-6,27.2-12.2,54.3-18.1,81.5c-0.7,3.4-2.1,6.3-4.1,9.1c-7.8,11.1-15.5,22.2-23.2,33.3
	c-1.2,1.8-2.7,3.4-2.4,5.9c3,27-7.7,49.8-22.5,71.1c-5.4,7.7-11.8,14.6-19.8,19.7c-12.9,8.3-22,6.5-30.2-6.5
	c-2.6-4.2-4.6-5.3-8.1-1.4c-2.8,3.1-8.8,4.4-8.9,8c-0.1,3.4,4.2,6.9,6.3,10.4c2.6,4.4,6.1,7.6,10.6,10.2
	c12.7,7.4,25.2,15.1,37.9,22.6c3.4,2,5.6,4.7,6.9,8.6c4.7,14.6,9.7,29,14.4,43.6c1.2,3.7,2.7,5.9,7,5.2c2.5-0.4,5.2-0.2,7.8,0
	c5.2,0.5,8.9,4.6,8.8,9.5c0,5-3.7,9.2-8.9,9.4c-6.8,0.3-13.5,0.3-20.3,0c-5-0.2-7.6-3.6-9.1-8.1c-5.1-15.7-10.5-31.3-15.5-47
	c-1.2-3.9-3.3-6.4-6.9-8.4c-8.5-4.8-16.5-10.5-25.1-14.9c-11.7-6-21.1-14-27.2-25.7c-2.4-4.6-4.8-5.1-9.6-2.5
	c-26.7,14.9-55.3,25.1-84.9,32.5c-3.9,1-6,2.6-7.5,6.4c-7.7,19.8-15.9,39.4-23.5,59.3c-2.4,6.1-6,8.9-12.6,8.6
	c-5.4-0.3-10.8,0.1-16.1-0.1c-6-0.2-10-4.3-9.9-9.7c0.1-5.2,4.2-10.1,9.6-9.1c11.3,2,14.9-4.2,18-13.3c3.9-11.8,9.1-23.2,13.9-35.5
	c-17.8,2.8-34.8,5.7-52,7.2c-38.8,3.3-77.5,4.9-116.2-0.2c-13.8-1.8-27.6-3.9-41-7.4c-4.5-1.1-6.2,0.2-7.9,4.1
	c-7.9,18.2-16.3,36.2-24.2,54.5c-2.9,6.7-6.9,10.3-14.5,9.5c-4.9-0.5-10,0-14.9-0.1c-6-0.2-10-4.3-9.8-9.8c0.1-5.2,4.2-10,9.7-9.1
	c10.9,1.8,15.2-3.7,18.7-12.8c5.1-13.2,11.2-25.9,17.2-38.7c1.6-3.5,0.9-4.6-2.6-5.8c-17.9-6.4-35-14.3-48.7-28.1
	c-5.8-5.9-10.2-12.6-12.3-20.8c-3.8-12.6,0-23,10.4-31c14.6-11.2,32-15.6,49.5-19.4c16.1-3.5,32.5-5.8,48.9-7.3
	c3.6-0.3,5.5-1.7,7-5.1c12-27.3,24.1-54.5,36.6-81.6c8.4-18.3,27.4-21.7,42.2-8.2c23.7,21.6,47.6,43,71.2,64.6
	c2.4,2.1,4.4,2.5,7.4,1.9c33.5-6.8,67-13.9,100.6-19.9c22.1-3.9,44.3-7.6,66.8-9.1c2.9-0.2,5.1-0.9,7.1-3.4
	c9.3-11.4,21.2-16.4,35.9-13.6c2.7,0.5,3.9-0.1,5-2.6c4.8-11.6,9.8-23,14.8-34.5c1.4-3.1,0.8-6.3,0.3-9.4
	c-2.5-15.3-5.1-30.6-7.7-45.9c-1.2-7.2,1.5-12.3,7.3-13.5c5.8-1.1,10.2,2.7,11.5,10c3,17.8,6,35.7,9.1,53.5c0.6,3.3,0,6.3-1.3,9.3
	c-5.5,12.6-10.8,25.2-16.4,37.7c-1.4,3.1-1.5,5.3,1.3,7.8C531.4,133.9,533.7,137.2,536.2,140.2z"/>
<path style="fill:#7DC475;" d="M335.2,232.7c1.4,0.1,2.8,0.2,4.2,0.3c4.3,0.3,7.2-1.8,8.9-5.6c1.9-4.2,0.7-7.8-2.5-10.8
	c-10.2-9.4-20.6-18.8-30.8-28.2c-2-1.9-4-3.8-6.6-6.2c6.7-2.8,13.4-3.4,19.8-4.7c18.7-3.8,37.4-7.3,56.1-11.1c3.1-0.6,4.1,0,4.6,3.3
	c2,13.2,5,26.1,9.8,38.6c6.7,17.5,16.3,32.2,36.9,37.1c-14.4,9.5-29,16.4-44.1,22.5c-11.4,4.6-23.1,8.7-35,11.9
	c-1.5,0.4-3.1,1.8-4.4,0.2c-1-1.2,0.3-2.6,0.8-3.9c4.9-12.2,9.9-24.3,14.5-36.6c1.5-3.9,3.3-4,6.6-2.8c4.8,1.8,9.8,3.4,14.7,4.9
	c6,1.8,11.3-0.7,13-6.1c1.6-5.1-1.1-10.1-6.9-12.1c-9-3.2-18-6.2-27.1-9.2c-6.2-2-10.7,0.5-13.5,7.3c-7.9,19.7-16,39.4-23.7,59.3
	c-1.7,4.3-3.7,6.8-8.6,7.6c-17.4,3.2-34.8,6.1-52.4,7.9c-5.1,0.5-5.3-1.1-3.3-5.1c3.9-8.1,6.3-16.7,7-25.7c0.3-2.9,0.9-5.7,2.8-8.3
	c2.7-3.5,2.4-7.6-0.4-11.1c-2.7-3.5-6.5-4.8-10.7-3.2c-21.6,8.5-44.2,12.6-67.2,15.4c-17.6,2.1-35.2,3.1-52.9,3.2
	c-6.5,0-10.6,3.9-10.6,9.6c0,5.3,3.8,9.2,9.4,9.5c4.1,0.2,8.2,0,12.5,0c-4.1,10.3-11.4,14.7-21.2,13.2c-5.7-0.9-11.3-2.6-17-3.1
	c-5.8-0.6-5-3-3.2-7c9.2-20.1,19.1-39.9,26.8-60.5c4.2-11.2,11-13.6,21.4-14.5c22.9-2,46-3.6,68.4-9.5c4.1-1.1,6.1,0.1,8.5,2.9
	c12.1,14.2,24.7,28.1,38.1,41.2c7.7,7.5,15.6,14.8,24.4,21.1c1.9,1.4,3.9,2.8,5.9,4c6.3,3.8,11,3.6,14.6-0.4s3.2-8.5-1.2-14.4
	c0-6.8,5.3-11,8.3-16.3C330.9,235.1,331.8,232.2,335.2,232.7z M125.5,212.7c-3,6.8-5.6,12.8-8.3,18.7c-7.2,16.2-14.4,32.3-21.7,48.4
	c-0.8,1.7-0.9,4.7-4.3,3.5c-17-5.8-33.9-11.7-46.6-25.4c-0.8-0.9-1.5-1.8-2.2-2.8c-7.2-10.9-5.1-19.6,6.5-25.6
	c13.6-7.1,28.6-9.4,43.5-12C103,215.5,113.9,214.3,125.5,212.7z"/>
<path style="fill:#FDFEFE;" d="M156.7,190.1c8.8-19.6,17-38.1,25.5-56.9c12.9,15.7,25.4,30.9,37.9,46.1c2.5,3.1,0,3-2,3.4
	c-15.1,2.8-30.3,4.4-45.5,5.9C167.6,189.1,162.7,189.5,156.7,190.1z"/>
<path style="fill:#C4DB75;" d="M335.2,232.7c-5.6,6.2-9.5,13.6-13.6,20.8c-10.4-4.6-18.5-12.4-26.4-20.2
	c-37-36.4-69.5-76.7-101.7-117.3c-1.2-1.5-3.1-3.1-0.9-5.1c2.5-2.2,5.4-2.5,8.1-0.2c4.5,3.9,8.9,8,13.3,12
	C254.3,159.4,294.7,196,335.2,232.7z M474.7,180.7c0.4-11.4,1.5-22.4,6.6-32.7c4.8-9.7,12.8-13.3,23.1-9.7
	c9.9,3.4,16.3,10.2,19.2,20.4c3.3,11.4,3.2,22.8,0,34.2c-4.4,16-11.4,30.6-23.2,42.4c-9.8,9.9-12.1,9.3-16.6-3.4
	C477.9,215.2,475.2,198.1,474.7,180.7z M438.7,226.9c-6.4-0.2-10.4-3.3-13.3-7.8c-10.7-16.3-15.1-34.7-18-53.7
	c-0.4-2.5,0.5-3.1,2.7-3.4c15.1-2.2,30.2-4.4,45.3-6.6c2.9-0.4,2.8,1.5,2.5,3.4c-3,18.2-2.1,36.4,1.1,54.5c0.2,1.2,0.2,2.4-0.8,3.3
	C452.4,221.8,446.3,226.4,438.7,226.9z M216.8,299.3c4.6-8,8.8-15.7,11-24.2c0.4-1.7,1.5-2.5,3.4-2.9c6.2-1.3,12.4-2.6,18.5-4.3
	c3.7-1,4.2,0.4,3.5,3.5c-2,9.4-6.4,17.5-12.6,24.7c-1.2,1.4-2.5,2.5-4.5,2.4C229.9,298.5,223.9,300.3,216.8,299.3z M168.5,298.4
	c2.9-6.1,6.5-11.3,8.5-17.4c0.4-1.1,1.2-1.5,2.2-1.6c9-0.9,18-1.7,27.6-2.6c-2.9,9-7.7,15.9-14.4,20.8
	C185.2,303,176.7,296.6,168.5,298.4z"/>
<path style="fill:#0E0E0E;" d="M497.2,189.8c-7.8-0.1-14.4-6.9-14.2-14.6c0.2-7.5,6.7-14,14.2-14c7.8-0.1,14.5,6.6,14.5,14.3
	S504.9,189.9,497.2,189.8z"/>
</svg>
