<?xml version="1.0" encoding="utf-8"?>
<!-- Generator: Adobe Illustrator 23.0.3, SVG Export Plug-In . SVG Version: 6.00 Build 0)  -->
<svg version="1.0" id="Layer_1" xmlns="http://www.w3.org/2000/svg" xmlns:xlink="http://www.w3.org/1999/xlink" x="0px" y="0px"
	 viewBox="0 0 601.4 601.4" style="enable-background:new 0 0 601.4 601.4;" xml:space="preserve">
<path style="fill:#0E0E0E;" d="M407.9,0.1c9.8,8.2,16.9,18.7,25,28.4c31,36.9,61.8,74,92.7,111.1c7.4,8.9,7.3,13.3-0.9,21.6
	C490.8,195,457,228.8,423.1,262.6c-2.7,2.6-3.1,4.5-1.4,7.9c3,6.1,5.5,12.5,7.5,19c1.5,4.7,2.8,4.6,6.5,1.9
	c33.1-23.8,66.3-47.5,99.5-71.2c12.1-8.6,24-17.4,36.3-25.8c3.6-2.5,4.6-5.1,4-9.3c-4.5-30.9-9-61.7-13.4-92.6
	c-2.7-18.7-5.5-37.4-7.8-56.2c-1-8.2,4.8-13.8,12.5-13c5.4,0.6,9.1,4.1,10.1,10.4c3.1,20.8,6.1,41.7,9.1,62.5
	c4.5,31.7,8.9,63.3,13.6,95c1.1,7.1-0.8,11.9-6.6,16c-50.4,35.9-100.7,71.9-151.1,107.8c-3.8,2.7-5.6,5.3-4.7,10
	c1.4,7.3,1.5,14.8,1.2,22.2c-0.1,3.5,1,5.7,3.7,7.8c34.5,27.5,68.8,55.2,103.5,82.5c6.6,5.2,9.2,10.5,7.7,19
	c-7.7,44.2-14.9,88.4-22.3,132.7c-1.2,7.3-7,11.8-13.6,10.6c-6.6-1.2-10.4-7.2-9.2-14.6c7.1-42.3,14.1-84.6,21.2-126.9
	c0.4-2.4,0-4-1.9-5.6c-30.2-24.1-60.4-48.2-90.6-72.3c-0.3-0.2-0.7-0.1-1.5-0.2c-2.1,10.4-5,20.7-8.9,30.6c-1.2,2.9,0.4,4.4,1.8,6.2
	c17.4,23.3,34.8,46.6,52.4,69.8c4.3,5.7,4.9,10.8,1.6,17.2c-14.8,29-29.3,58.2-43.7,87.4c-2.4,4.9-5.6,8.5-11.4,8.6
	c-8.8,0.2-14.1-8.6-10.1-17.1c6.1-12.8,12.6-25.5,19-38.2c7.2-14.5,14.5-29,21.7-43.4c1.1-2.1,2-3.8,0.2-6.3
	c-14.5-19.1-28.9-38.3-43.6-57.9c-27.3,41.4-62.5,70.5-114.4,70.4c-51.7-0.1-86.8-28.9-114-70.4c-14.7,19.6-29.2,39-43.8,58.3
	c-1.9,2.6-0.5,4.3,0.5,6.3c13.2,26.3,26.3,52.7,39.5,79c1.3,2.6,2.7,5.2,2.6,8.3c-0.1,5.1-4,10-9,10.9c-5.6,1.1-10.1-1-12.7-6.1
	c-5.7-11.1-11.2-22.3-16.8-33.5c-9.4-18.8-18.7-37.7-28.3-56.5c-3.2-6.2-2.6-11.2,1.6-16.7c17.5-23,34.6-46.2,52.1-69.2
	c2.4-3.2,2.8-5.8,1.3-9.4c-3.6-9-6.1-18.4-7.9-27.9c-2.1-0.4-3,1.2-4.1,2.1c-28.7,22.9-57.3,45.9-86.1,68.7
	c-3.3,2.6-4.3,4.9-3.5,9.3c7.2,41.9,14.1,83.8,21.1,125.7c1.1,6.6-3.3,12.8-9.7,13.7c-6.4,1-12-3.4-13.2-10.4
	c-2.7-15.6-5.3-31.1-7.8-46.7c-4.9-29.4-9.6-58.9-14.7-88.3c-1.2-7,1-11.5,6.3-15.6c35-27.8,69.8-55.8,104.8-83.6
	c2.9-2.3,4.1-4.7,3.9-8.4c-0.4-7.8,0-15.6,1.3-23.4c0.6-3.6-0.7-5.6-3.6-7.7C109.7,280.5,60,245,10.3,209.5
	c-4-2.8-8.2-5.4-10.2-10.2c0-2.7,0-5.5,0-8.2c1.8-23.3,5.8-46.3,9-69.5c3.9-28.2,8.1-56.4,12-84.6c0.2-1.7,0.7-3.5,1.2-5.1
	c2.3-7,8-10.8,14.7-9.6c6.4,1.1,10.5,6.3,10.3,13.5c-0.3,10-2.4,19.8-3.8,29.6c-5.7,39.2-11,78.5-16.9,117.6
	c-0.8,5.1,0.8,8.4,5,11.4c40.1,28.5,80.1,57.1,120.1,85.7c4.3,3.1,8.6,6,12.8,9.2c2.8,2.1,4.4,1.8,5.5-1.7
	c1.7-5.4,3.5-10.8,6.1-15.8c2-3.8,1.2-6.4-1.7-9.3c-10.7-10.5-21.3-21.2-31.9-31.9c-21.7-21.7-43.4-43.4-65-65
	c-1.5-1.5-3.1-3-4.5-4.6c-6.4-7.3-6.7-13.3-0.6-20.9c6.2-7.8,12.7-15.3,19.1-23C122.2,80.2,153,43.4,183.7,6.4
	c2.4-2.9,5.1-5.4,8.8-6.4c2.3,0,4.7,0,7,0c10.1,2.6,13,12,6,20.8c-10.1,12.7-20.8,24.8-31.1,37.4c-23.7,29-48,57.5-72.1,86.3
	c-3,3.6-2.7,6.3,0.6,9.5c28.5,28.4,57,56.8,85.4,85.3c3,3.1,5.1,3.4,7.8-0.4c10.9-15.1,24.5-27.3,40.2-37c3.2-2,3.5-3.6,1.8-7
	c-14.4-27.5-10.5-57.5,10.6-80.2c3.4-3.6,3.2-5.9-0.2-9.2c-5-4.7-10-9.4-14.4-14.6c-7-8.2-5.2-18.1,3.6-22c5.3-2.3,9.9-1,13.9,2.9
	c6.6,6.4,13.1,12.9,19.5,19.5c2.9,3.1,5.7,3.8,9.8,2.5c12.8-4.1,25.8-4.1,38.6,0c4.2,1.3,6.9,0.5,9.8-2.5
	c6.1-6.4,12.3-12.5,18.6-18.7c6.1-5.9,12.6-6.4,18.3-1.6c5.5,4.7,6,12.5,0.8,19c-4.5,5.7-9.9,10.5-15.2,15.5
	c-3.4,3.3-3.5,5.6-0.1,9.2c21.1,22.7,25,52.7,10.6,80.2c-1.8,3.4-1.4,5,1.8,7c15.8,9.7,29.2,22,40.3,37c3.2,4.3,3.9,4.3,8.1,0
	c24.6-24.6,49.2-49.2,73.8-73.7c3.9-3.9,7.6-7.8,11.6-11.6c3-2.8,3.2-5.5,0.5-8.6c-14.8-17.2-29-34.8-43.6-52.1
	c-20.1-23.9-40.3-47.7-60-72c-4.3-5.2-4.6-11.5-1.7-16.3c1.8-3.1,4.8-3.6,7.8-4.5C403.2,0.1,405.6,0.1,407.9,0.1z"/>
<path style="fill:#9A1D17;" d="M412.6,348.2c1.6,2.9,0.5,6.4,2.3,9.2c-0.5,19.5-5.3,38-13.1,55.8c-6.1,14-14.3,26.9-24.9,37.8
	c-19.1,19.6-42,31.5-69.9,33.3c-26.5,1.7-49.9-5.6-70.6-21.7c-19.9-15.4-33.2-35.8-41.8-59.3c-5.3-14.5-8.6-29.4-9.1-44.8
	c2.2-3.1-0.1-7.2,2.3-10.3c3.5,0.7,2.7,3.8,3.3,6c5.3,22.1,13.8,42.6,27.5,60.9c21,27.9,48,44.9,83.7,45.1
	c16.1,0.1,31.2-4.9,44.9-13.2c23.5-14.2,39.5-35,51-59.5c5.1-11,8.6-22.6,11.5-34.3C410,351.3,409.4,348.5,412.6,348.2z
	 M345.7,166.4c-3.8-11.3-9-21.4-18.9-29.2c-25.7-20-54.4-6.5-66.6,15.5c-2.2,4-3.9,8.4-5.8,12.6c-2.4-24.9,12.6-44.9,36.1-49
	C323.4,110.7,349.1,133.2,345.7,166.4z"/>
<path style="fill:#E31D17;" d="M185.4,358.5c-2.3-35.6,4.2-69.1,24.1-99.2c17.3-26.1,40.7-44,72.1-49.6c40-7,73.1,6.5,99.2,36.7
	c27.4,31.8,36.4,69.8,34.1,111.1c-4.2-1.7-2.1-5.9-3.7-8.7c-4.3-25-12.9-48.2-27.7-68.9c-13.9-19.5-31.5-34.6-54.5-42.4
	c-31.7-10.8-60.7-4.3-86.5,15.6c-29,22.3-44.5,53.1-52.1,88.3c-0.5,2.5-1,5-1.6,7.4c-0.7,2-0.6,4.1-1,6.1
	C187.6,356.4,188,358.5,185.4,358.5z M345.7,168.8L345.7,168.8c0-0.8,0-1.6,0-2.4c-1.5-13.7-8.6-24.1-19.8-31.5
	c-8.7-5.8-18.2-10.4-29-8.9c-22.3,3.1-37.4,17.3-42.4,39.4c0,1.2,0,2.3,0.1,3.5c1.5,6.2,2.8,12.5,6.4,18c1.8,2.8,3.6,3.5,6.8,2.5
	c6.7-2,13.5-3.8,20.5-4c15.2-0.5,30.4-0.9,45.1,4.2c2.6,0.9,4.3,0.2,5.9-2.2C342.9,181.7,344.3,175.2,345.7,168.8L345.7,168.8z
	 M412.6,348.2c-2.8,8.8-4.8,17.9-7.8,26.7c-7.7,22.3-19.8,42-36.8,58.1c-19.4,18.4-42.5,29.6-69.9,28.7
	c-22.4-0.7-42.3-8.8-59.6-23.4c-27.8-23.4-42.7-53.8-49.8-88.7c-0.1-0.5-0.6-0.9-1-1.4c5.9-35.7,20.5-67,47.5-91.4
	c20.3-18.3,44.5-28,72.2-25.7c22.1,1.8,41.3,11,57.6,25.7C392.1,281.3,406.5,312.6,412.6,348.2z"/>
<path style="fill:#FFFFFF;" d="M311.8,376.7c0,8.6,0.1,17.2,0,25.8c-0.1,8-4.3,12.5-11.4,12.6c-7.5,0.1-11.8-4.4-11.9-12.7
	c-0.1-17-0.2-34,0.1-50.9c0.1-4.5-1.4-5.8-5.7-5.5c-5.6,0.3-11.3,0.1-17,0.1c-7.4-0.1-11.6-4.4-11.5-11.6
	c0.1-6.6,4.5-10.8,11.7-10.8c5.9-0.1,11.7-0.2,17.6,0c3.9,0.2,5-1.3,4.9-5.1c-0.2-9.2-0.1-18.3-0.1-27.5c0.1-8.1,5.1-14.1,11.7-14.1
	s11.6,5.9,11.6,14.1c0.1,9.4,0.1,18.7,0,28.1c-0.1,3.3,1,4.5,4.3,4.4c6-0.2,12.1-0.1,18.1,0c7.4,0.1,11.8,4.5,11.7,11.6
	c-0.1,6.6-4.5,10.8-11.7,10.9c-5.9,0.1-11.7,0.2-17.6-0.1c-3.9-0.2-5,1.3-4.9,5.1C312,359.5,311.8,368.1,311.8,376.7z"/>
</svg>
