<?xml version="1.0" encoding="utf-8"?>
<!-- Generator: Adobe Illustrator 23.0.3, SVG Export Plug-In . SVG Version: 6.00 Build 0)  -->
<svg version="1.0" id="Layer_1" xmlns="http://www.w3.org/2000/svg" xmlns:xlink="http://www.w3.org/1999/xlink" x="0px" y="0px"
	 viewBox="0 0 566 566" style="enable-background:new 0 0 566 566;" xml:space="preserve">
<path style="fill:#B10613;" d="M195.6,264.5c2.6,9.1,4.9,17.8,8.5,26c7.9,18.1,18.5,34.2,34.3,46.2c25.9,19.6,67.4,24.1,99.6-6.9
	c17.2-16.6,27.6-37,33.4-59.9c0.4-1.5,0.4-3.1,1.9-4.9c1.4,5,2.9,9.5,4.1,14.2s2.3,9.4,3.2,14.2c0.9,4.9,1.8,9.9,2.4,14.9
	c4.6,36.7,2.6,73-8.3,108.4c-8.3,27-20.4,51.9-41.9,71c-30.8,27.4-69.8,26.5-99.4-2.2c-20.1-19.5-31.8-43.7-39.8-70
	C179.3,368.8,180.1,307.4,195.6,264.5z"/>
<path style="fill:#0E0E0E;" d="M550.5,390.4c-2.2,4.1-5.2,7.1-10.2,6.1c-4.7-0.9-6.6-4.4-7.2-9c-4.5-35.2-22.4-58.7-57.7-68.1
	c-22.6-6-45.6-9.8-68.6-13.2c-8.7-1.3-8.8-1.1-10.1-9.7c-0.5-3-2.8-6.9-0.9-8.7c1.9-1.9,5.8,0.2,8.9,0.6
	c27.8,4.1,55.8,7.7,82.6,16.8c10.5,3.6,20.5,8.3,29.4,14.9c8.9,6.6,15.8,14.8,20.7,24.8c5.7,11.6,10.2,23.5,13.2,36.1
	C550.5,384.1,550.5,387.2,550.5,390.4z M360.3,233.8c-0.5,28.6-7.4,55.1-26,77.5c-10.8,13-24.1,22.3-41.2,25
	c-20.8,3.3-38.1-4.2-52.7-18.4c-18.1-17.6-27.1-39.8-30.6-64.3c-3.8-26.4-0.7-52.1,10.9-76.4c7.8-16.5,18.7-30.4,34.9-39.3
	c24.5-13.5,52-9.1,72.4,11c18.8,18.5,27.8,41.6,31.3,67.3C359.9,222,360.4,227.8,360.3,233.8z M317.8,123.3
	c-22.7-11.2-44.6-10.7-66.8-0.1c1.8-11,4.9-21.3,8.9-31.1c3.6-8.7,5.2-17.4,4.6-26.7c-0.4-6-0.1-12.1,0-18.2c0.1-7,3.4-11,10.2-12.2
	c6.4-1.1,12.8-1.1,19.1,0c6.5,1.2,10.6,5.2,10.1,11.2c-2.2,22.8,2.9,44.2,10.9,65.2C316.1,114.9,316.7,118.7,317.8,123.3z
	 M168.1,350.4c0.4,6.7,0.7,12.6,1.3,18.4c0.3,2.7-1.7,3.6-3.2,4.8c-17.2,13.8-33.3,28.8-46.5,46.5C102.4,443.4,92,469,93.2,498.6
	c0.3,8,1.6,15.8,3.3,23.6c1.3,6.2-1.1,10.7-6.2,11.7c-5.4,1-9.2-1.9-10.7-8c-10-42.2,0-80.1,25.2-114.6
	C122,387.6,143.7,368.4,168.1,350.4z M400.3,350.5c9.3,6.4,17.4,13.1,25.2,20c21.8,19,40.9,40.2,53.8,66.5
	c14,28.6,16.9,58.5,9.7,89.4c-1.4,6-5.7,8.9-10.9,7.6c-4.7-1.1-7.4-5.7-6.1-10.9c10.2-41.4-1.9-77-27.9-109.1
	c-12.2-15-26.2-28-41.4-39.9c-2.6-2-3.7-4-3.3-7.4C400,361.5,400,356.4,400.3,350.5z M18.2,386.5c5.3-36.7,21-66.8,60.5-80.4
	c22.9-7.9,46.5-11.7,70.3-15.5c7.2-1.1,14.4-2.1,21.6-3.2c2.6-0.4,4-0.3,2.9,3c-1.5,4.7,0.1,11.4-3.6,14.1
	c-3.6,2.6-9.6,1.9-14.6,2.7c-23.2,3.6-46.5,6.8-68.9,14.6c-10,3.5-19.7,7.8-27.5,15.1c-13.8,12.8-19.6,29.7-23.1,47.6
	c-0.2,1.2-0.1,2.4-0.3,3.6c-0.9,5.4-4.8,8.8-9.5,8.3C21.2,395.9,18,391.9,18.2,386.5z M511,166.2c-0.1,10.9-5.4,19.8-13.2,27.4
	c-13.4,13.2-29.9,21.6-46.7,29.4c-20.5,9.5-41.6,17.6-62.5,26.3c-3,1.3-4.3,1.1-5.6-2.2c-4.7-12.5-4.8-12.4,7.7-17.5
	c24.1-9.9,48.6-18.9,71.5-31.5c8.7-4.8,17-10,23.9-17.2c4.7-4.8,8.2-10.2,7.3-17.5c-0.8-6.6,2.1-10.5,7.3-11.1
	c5.4-0.6,9.2,2.9,10.1,9.4C511,163,510.9,164.4,511,166.2z M75.2,162.7c-1.1,8.4,2.8,13.8,7.8,18.6c12.8,12.3,28.5,20.1,44.4,27.1
	c19.1,8.3,38.5,16.2,57.8,24c3.5,1.4,4.4,2.9,2.7,6.3c-1.8,3.7-1.3,9.4-4.7,10.9c-3,1.4-7.2-2.2-10.9-3.7
	c-25.4-10.4-51.1-19.9-75.2-33.3c-11.4-6.3-22.3-13.4-30.6-23.6c-7.2-8.9-11-18.8-8.2-30.3c1.2-4.8,5.1-7.2,9.7-6.5
	c4.3,0.6,7.1,4.1,7.1,8.8C75.3,161.8,75.2,162.7,75.2,162.7z M195.3,205.4c-19.9-16.7-39.3-32.8-52.1-55.3
	c-15.9-27.9-6.8-51.9,19.4-67.9c4.3-2.6,9.3-1.3,11.9,2.6c2.6,3.9,1.8,8.3-2.2,11.5c-2.6,2.1-5.4,3.7-8,5.8
	c-12,9.5-14.6,20.1-8.4,34c5.6,12.6,14.4,22.8,24,32.3c5.8,5.7,11.9,11.1,18,16.5c1.8,1.6,2.3,2.9,1.5,5.3
	C197.8,194.9,196.8,199.8,195.3,205.4z M373.2,205.3c-0.8-3.5-1-6.6-2.2-9.1c-3.5-7.2-0.8-11.4,5-16.2
	c14.4-11.9,27.6-25.2,35.9-42.4c7.4-15.4,4.5-26.4-9.2-36.7c-2.1-1.6-4.4-2.8-6.4-4.4c-3.9-3.1-4.8-7.6-2.4-11.5
	c2.5-3.9,7.5-5.3,11.8-2.7c25.3,15.3,35.4,38.7,20.1,66.9c-10.8,19.8-27.4,34.6-44.1,49.1C379.1,200.5,376.3,202.7,373.2,205.3z"/>
</svg>
