<?xml version="1.0" encoding="utf-8"?>
<!-- Generator: Adobe Illustrator 23.0.3, SVG Export Plug-In . SVG Version: 6.00 Build 0)  -->
<svg version="1.0" id="Layer_1" xmlns="http://www.w3.org/2000/svg" xmlns:xlink="http://www.w3.org/1999/xlink" x="0px" y="0px"
	 viewBox="0 0 591.4 234" style="enable-background:new 0 0 591.4 234;" xml:space="preserve">
<path style="fill:#0E0E0E;" d="M70.7,74c47,0.2,92.6,9,137.8,21.2c11.3,3,22.8,5.2,34.3,7.3c14.5,2.7,28.1-1,41.6-6.1
	c14.2-5.4,28-11.5,41.5-18.3c45.6-23.2,93-28.5,142.5-15.4c18.7,5,37.7,8.9,55.8,15.7c11.1,4.2,21.2,9.9,29.5,18.5
	c14,14.4,18.4,34.1,11.1,49.6c-7.2,15.4-25.6,24.4-45.6,22.6c-15.3-1.4-29.1-7.9-43.8-11.6c-17.5-4.4-35.1-8.1-52.9-10.7
	c-13.3-1.9-25.9,0.5-38.3,5c-20,7.2-39.1,16.8-58.4,25.6c-37.7,17-76.8,20-117.1,12.5C155.6,180,105,162.3,54.9,143
	c-11.7-4.5-21.7-11.5-27.3-23.4c-6.7-14-2.8-28.6,9.8-37.7C46.1,75.7,55.7,73.3,70.7,74z"/>
<path style="fill:#E35E2D;" d="M176.6,106.6c16.6,3.9,32.4,7.4,48.1,11.5c25.6,6.7,50.1,3.5,74-7.2c1.7-0.8,3.6-1.4,5.3-2.3
	c3-1.6,4.4-0.8,5.2,2.6c1.7,7.7,3.8,15.2,5.4,22.9c1.4,6.6,5.1,10,10.8,9.2c5.5-0.8,8.6-5.7,7.5-12.2c-1.6-9.6-4-19.1-6.9-28.5
	c-0.8-2.4-0.8-3.8,1.8-4.9c19.5-8.9,39.1-17.5,60.5-21.4c22.9-4.2,45.4-1.5,67.9,3c6.8,1.3,13.4,3.1,20.2,4.5c3,0.6,4.5,1.9,4.3,5.4
	c-0.3,8.1-0.8,16.1-2.1,24c-0.2,1.5-0.4,3-0.5,4.6c-0.2,5.6,2.8,9.5,7.9,10.3c4.3,0.7,8.7-2.4,10-7.7c2-8,2.6-16.3,2.7-24.5
	c0.1-5.5,1.8-5.8,6.3-4.3c13.3,4.5,26.7,8.8,36.5,19.7c4.4,4.8,7.4,10.3,8.1,16.8c1.3,13.2-8.3,22.6-23.4,23.2
	c-7.4,0.3-14.4-1.8-21.3-4c-26.5-8.5-53.4-15.1-81.1-18.7c-3.6-0.5-4.3-1.7-4.4-5c-0.1-9.2-1.2-18.3-3.4-27.3
	c-1.6-6.4-6.2-9.5-11.7-8c-5.1,1.4-7.5,6.2-6.2,12.4c1.7,7.7,2.1,15.6,2.9,23.4c0.3,2.6-0.1,4.4-3.2,5
	c-23.4,4.5-44.3,15.7-65.8,25.4c-18.5,8.4-37.3,16.2-57.6,19.4c-6.4,1-12.9,1.7-19.4,1.9c-3.8,0.1-5.3-1.1-4.7-4.9
	c1.2-8.2,0.6-16.4-0.1-24.7c-0.6-8.4-3.7-12.3-9.9-12c-5.9,0.3-8.7,4.5-8.6,12.5c0.1,7.7-0.1,15.3,0.2,23c0.1,4.2-1.3,5.1-5.4,4.6
	c-36-4.9-70.7-15.2-105.1-26.5c-7.3-2.4-14.4-5.1-21.8-7.4c-2.9-0.9-3.5-2-2.5-4.9c2-5.4,3.7-10.9,5.1-16.5
	c1.5-6.2-1.7-11.4-7.1-12.5c-5.4-1-9.4,2.1-11.1,8.3c-1.3,4.8-3,9.5-4.4,14.3c-0.7,2.2-1.9,3.4-4.2,2.4c-8.3-3.5-17.2-5.6-24.5-11.2
	c-5.5-4.2-9.4-9.3-7.9-16.6c1.3-6,7.9-10.3,16-10.9c11.9-0.9,23.8,0.6,35.6,1.3c18.8,1.1,37.4,3,55.9,6.6c5.8,1.1,8,3.1,7.6,9.2
	c-0.6,7.6-0.2,15.3-0.3,23c-0.1,6.6,3,10.4,8.6,10.7c6,0.3,9.5-3.2,9.9-10C177,124.7,178.2,116.1,176.6,106.6z"/>
</svg>
