<?xml version="1.0" encoding="utf-8"?>
<!-- Generator: Adobe Illustrator 23.0.3, SVG Export Plug-In . SVG Version: 6.00 Build 0)  -->
<svg version="1.0" id="Layer_1" xmlns="http://www.w3.org/2000/svg" xmlns:xlink="http://www.w3.org/1999/xlink" x="0px" y="0px"
	 viewBox="0 0 592.8 593" style="enable-background:new 0 0 592.8 593;" xml:space="preserve">
<path style="display:none;fill:#F4E7D0;" d="M325,11.2c19.3,2.6,38.4,6,57,11.9c-0.6,8.7,5.7,10.3,12.2,12.7
	c40,14.6,74.8,37.3,104,68.2c41.9,44.4,67,96.9,74.7,157.7c7,54.9-1.9,107.2-25.7,156.9c-12.2,25.5-28.3,48.4-47.8,69
	c-22.3,23.5-47.6,43-76.4,57.7c-12.8,6.5-25.9,12.4-39.7,16.5c-6.2,1.9-7.6,1-9.4-5.4c-1.2-4.2-2.3-8.5-3.2-12.8
	c-0.9-4.1-3.1-6.3-7.4-6c-1.8,0.1-3.6,0-5.4-0.1c-3.9-0.1-5.8-2.1-6-6c-0.1-2.4-0.1-4.8-0.1-7.2c0-64.5,0.1-129.1-0.1-193.6
	c0-8.8,0.9-17.3,3.6-25.8c7.2-22.6,13.7-45.4,20.6-68.1c2.4-7.8,3.3-8.5,11.3-8.6c13.6-0.1,12.4,1.1,12.4-12.7
	c0-11.6-0.1-23.1,0.1-34.7c0.1-4.9-1.7-6.6-6.6-6.7c-12.6-0.1-12.6-0.3-12.6-13.2c0-6.2-0.1-12.4,0-18.5c0.1-4.5-1.5-6.4-6.2-6.5
	c-10.3-0.2-10.5-0.7-8-10.8c0.5-1.9,1-3.9,1.5-5.8c1-3.8,3.3-5.8,7.3-5.8c1,0,2-0.1,3-0.1c12.9,0,12,0.9,12-11.9
	c0-11.8,0-23.5,0-35.3c0-6.3-0.5-6.7-6.9-6.8c-4-0.1-8,0-12,0c-8.9-0.1-9.7-1-9.8-10.1c0-4.2-0.1-8.4,0-12.5c0.1-4.3-1.6-6-6-6.1
	c-9.3-0.2-9.8,0.1-9.8,9.5c0,4.4,0.1,8.8-0.1,13.1c-0.2,3.8-2.1,5.6-5.9,6.1c-14.9,1.7-16.5,0.4-16.5-14.7c0-8.8-0.1-17.5,0-26.3
	C323.2,15.9,322.7,13.2,325,11.2z"/>
<path style="display:none;fill:#F4E7D0;" d="M210.3,23.1c6.3-1.5,12.2-4.1,18.7-4.8c2.2,1.7,1.8,4.3,1.9,6.6
	c0.1,8.8,0.1,17.5,0,26.3c-0.1,7.1-1.3,8.2-8.5,8.3c-4.8,0.1-9.6,0.1-14.3,0c-3.9-0.1-5.9,1.3-5.8,5.5c0.1,14.3,0,28.7,0,43
	c0,3.7,1.5,5.6,5.3,5.5c0.6,0,1.2,0,1.8,0c14.5,0.3,15.6,1.4,17.8,16.1c0.6,4.1-0.6,5.9-4.8,6.3c-10.5,1.1-10.5,1.2-10.5,11.7
	c0,6.6,0,13.1,0,19.7c0,4.7-2.2,6.7-6.9,6.9c-12.2,0.7-12.2,0.8-12.2,12.9c0,11.4,0,22.7,0,34.1c0,6.4,0.6,6.9,6.7,7.1
	c13.4,0.3,13.8-2.7,18.8,14.7c6.3,21.8,12.9,43.5,19.6,65.2c1.8,5.8,2.7,11.6,2.7,17.6c-0.1,66.7,0,133.4,0,200.2c0,1.4,0,2.8,0,4.2
	c-0.3,6.1-1.3,7.4-7.5,7.4c-10.4,0-9.8,0-12.4,10.3c-0.9,3.7-1.7,7.4-2.9,11c-1.1,3.2-3.2,4.4-6.5,3.5c-1.5-0.4-3.1-0.8-4.6-1.4
	c-39.1-13.6-73.7-34.6-103.6-63.4c-22.2-21.3-40.5-45.5-54.6-72.8c-14.9-28.7-24.5-59.2-28.7-91.3C14.2,291.6,18,250.4,31,210.2
	c11.6-36.1,30.1-68.4,55-97c25.1-28.9,55-51.1,89.2-67.9c8.8-4.3,17.8-8,27.1-11.1c5-1.6,9-3.3,7.4-9.7
	C209.2,24,209.8,23.5,210.3,23.1z"/>
<path style="fill:#1D1631;" d="M210.3,23.1c2.4,9.2,2.2,8.9-6.5,12.3C105.3,73.1,43.1,142.9,23.9,246.8
	c-18.3,99.5,12.2,184.8,85.3,254.4c28.9,27.6,63.2,46.8,101.1,59.3c3.4,1.1,5.3,1.3,6-3.2c0.9-5.7,3-11.1,4.1-16.8
	c0.7-3.6,2.1-4.8,5.9-4.8c12.4,0,12.4-0.1,12.4-12.8c0-64.5-0.1-129.1,0.1-193.6c0-8.1-1.1-15.7-3.5-23.4
	c-7.1-22.8-13.9-45.6-20.4-68.6c-1.6-5.6-3.7-8.8-10-7.5c-2.3,0.4-4.8-0.2-7.2,0.1c-5.2,0.7-7.2-0.8-7-6.6c0.5-15.3,0.3-30.7,0.1-46
	c-0.1-4,1.2-5,5-5c4.7,0,10.9,2.4,13.6-1.1c2.2-2.9,0.6-8.8,0.6-13.4c0-6.2,0.3-12.4-0.1-18.5c-0.3-4.4,1.4-5.5,5.4-5.1
	c3.3,0.3,6.7,0.1,10.7,0.1c-0.5-6.2-2.6-11.7-3.9-17.4c-0.5-2.3-2.4-1.7-3.8-1.7c-4.8-0.1-9.6-0.1-14.3,0c-2.5,0.1-3.5-0.7-3.5-3.4
	c0.1-16.9,0.1-33.9,0-50.8c0-2.8,1.2-3.3,3.6-3.3c7,0.1,13.9-0.1,20.9,0.1c2.8,0.1,4.4-0.3,4.3-3.8C229,42.1,229,30.2,229,18.2
	c0.1-4.8,0.3-9.5,0.2-14.3c-0.1-3,1-3.9,3.7-3.5c0.6,0.1,1.2,0,1.8,0c4.3,0.1,9.9-1.4,12.7,0.7c3,2.3,0.4,8.2,1.2,12.4
	c1.9,2.4,1.7,5.2,1.7,8c0.1,9.3,0.1,18.7,0,28c-0.1,4.5,1.7,6.4,6.3,6.4c13.7-0.1,27.4-0.1,41.1,0c4.7,0.1,6.3-2,6.2-6.4
	c-0.1-10.3-0.1-20.7,0-31c0-2.9-0.3-6,1.7-8.6c0.5-9.5,0.5-9.5,10.4-9.5c8.7,0,8.7,0,9.1,10.8c-0.1,14.1,0,28.3-0.2,42.4
	c-0.1,3.5,1.2,4.2,4.4,4.3c14.7,0.3,14.7,0.4,14.8-14.2c0-15.6,0-15.5,15.5-14.7c2.9,0.2,3.7,1,3.7,3.8c-0.2,6.8,0.1,13.5-0.1,20.3
	c-0.1,3.6,0.8,4.9,4.6,4.7c6.6-0.3,13.1,0,19.7-0.1c3.2-0.1,4.6,0.5,4.5,4.2c-0.2,16.5-0.1,33.1,0,49.6c0,2.9-0.9,3.9-3.7,3.7
	c-4.6-0.2-9.2,0.1-13.7-0.1c-3-0.2-4.2,0.9-4.8,3.8c-1,5-2.3,10-3.7,15.4c4.3,0,8.1,0.3,11.9-0.1c3.9-0.4,4.6,1.3,4.5,4.8
	c-0.2,9.8,0.1,19.5-0.1,29.3c-0.1,3.4,1,4.4,4.4,4.4c4.9,0.1,11.4-2.3,14.2,1.2c2.3,3,0.7,9.2,0.7,13.9c0,12.3-0.1,24.7,0.1,37
	c0,3.6-0.5,5.3-4.7,5.2c-5.6-0.1-12.7-2.6-16.6,1.2c-3.5,3.5-3.7,10.2-5.3,15.5c-6,20-11.8,40-18.1,59.9c-2.2,7.1-3.3,14.2-3.2,21.6
	c0.1,66.9,0.1,133.8,0,200.8c0,5.2,1,7.2,6.7,6.9c10.4-0.5,10.4-0.1,12.9,9.9c0.9,3.7,2.3,7.3,2.8,11c0.6,4.4,2.2,4.9,6.3,3.6
	c23.5-7.9,45.8-18.3,66.4-32.2c66.1-44.8,107.8-106.2,120.9-185c14.4-86.4-7.7-163.8-65.2-230.3C472.8,77,433.9,51.6,389,35.5
	c-9.4-3.4-9.4-3.3-7.1-12.4c3.5-9,3.6-9.3,12.8-5.8C500.5,57.8,566.6,133,587.3,244.4c17.5,94.4-7.7,178.8-71.4,250.7
	c-44.9,50.6-101.4,82.5-168.3,93.4c-105.8,17.2-196.4-13.9-269.9-91.6C34.3,450.8,9.2,395.3,2,332.3C-12.8,201.9,54.2,82.1,172,27.6
	c9.4-4.3,19.1-7.8,28.7-11.6c5-1.9,7.8-1.5,8.4,4.3C209.2,21.2,209.9,22.1,210.3,23.1z"/>
<path style="display:none;fill:#F4E7D0;" d="M305.5,9.9c0.1,14.7,0.1,29.4,0.2,44.1c0,2.8-0.8,3.8-3.7,3.8
	c-16.7-0.1-33.4-0.1-50.1,0c-3.5,0-3.7-1.6-3.7-4.4c0.1-13.3,0.1-26.6,0.2-39.9C267.4,11.2,286.4,9.4,305.5,9.9z"/>
<path style="fill:#58A0E8;" d="M295.6,210.8c-26.9,0-53.8-0.1-80.6,0.1c-3.7,0-5-0.7-5-4.8c0.1-14.4-0.1-14.4,14.4-14.4
	c50.8,0,101.5,0.1,152.3-0.1c4.3,0,5.7,0.7,5.6,5.4c-0.3,13.8-0.1,13.8-13.9,13.8C344.2,210.8,319.9,210.8,295.6,210.8z M296.6,76.9
	c23.7,0,47.4,0.1,71.1-0.1c3.7,0,5.1,0.6,5.1,4.8c-0.2,14.4,0,14.4-14.5,14.4c-44.4,0-88.8-0.1-133.2,0.1c-4.2,0-5.8-0.7-5.7-5.4
	c0.3-13.8,0-13.8,13.8-13.8C254.4,76.9,275.5,76.9,296.6,76.9z M296.1,555c18.3,0,36.6,0.3,54.9-0.1c8.1-0.2,5.7,6.4,6.8,10
	c1,3.4-3.3,2.8-5.4,3.2c-37.5,8-75,8-112.5,0c-2.1-0.5-6.9,1-5.5-3.8c1.1-3.8-0.4-9.7,7.3-9.5C259.8,555.4,278,555,296.1,555z"/>
<path style="fill:#FFE24F;" d="M257.9,430.1c0-33,0.1-66.1-0.1-99.1c0-4.5,1.1-5.6,5.6-5.6c21.9,0.3,43.8,0.2,65.7,0
	c3.8,0,5.5,0.4,5.5,5c-0.2,66.9-0.1,133.7,0,200.6c0,3.9-1,5-4.9,5c-22.3-0.2-44.6-0.2-66.9,0c-4,0-4.9-1.2-4.9-5
	C257.9,497.3,257.9,463.7,257.9,430.1z M350.2,115.4c0,0.5,0.1,0.7,0.1,0.9c-2.9,18-2.9,18-20.8,18c-25.9,0-51.7-0.2-77.6,0.1
	c-4.8,0.1-6.7-1.4-7.3-5.9c-0.6-4.3-2-8.5-3-13C277.9,115.4,313.8,115.4,350.2,115.4z"/>
<path style="fill:#EA6060;" d="M295.8,172.5c-20.3,0-40.6-0.1-60.9,0.1c-4.1,0-5.9-0.4-5.8-5.3c0.3-13.9,0-13.9,13.9-13.9
	c38,0,76.1,0.1,114.1-0.1c5.1,0,6.2,1.4,6.1,6.3c-0.3,13-0.1,13-13,13C332,172.5,313.9,172.5,295.8,172.5z M297.3,229.9
	c4.5,0.7,12-2.6,14.8,1.4c2.2,3.1-1.2,10.1-2.3,15.3c-2.5,12-2.5,12-15.1,12c-10,0-10,0-11.7-9.6c-0.9-4.7-1.4-9.5-2.9-14
	c-1.5-4.8,0.4-5.4,4.4-5.1C288.4,230.1,292.4,229.9,297.3,229.9z M246.4,229.9c13,0,13,0,15.7,12.7c0.7,3.1,0.8,6.4,1.9,9.3
	c2.4,6.4-0.5,7.3-5.9,6.8c-5.5-0.5-12.3,1.6-16.3-0.9c-4.1-2.6-3.9-9.9-5.5-15.2c-3.9-12.7-3.8-12.7,9.5-12.7
	C246,229.9,246.2,229.9,246.4,229.9z M346.6,229.9c3.7,0.5,9.7-2,12.1,1.1c1.6,2.1-1.5,8-2.9,12.1c-1.7,5-1.4,12-5.4,14.6
	c-3.7,2.4-10,0.7-15.1,0.8c-1.6,0-3.2-0.1-4.8,0c-3.2,0.3-3.6-1.1-3-3.9c1.5-6.6,3.2-13.1,4-19.8c0.5-4.6,2.5-5.6,6.6-5.1
	C340.6,230.1,343.2,229.9,346.6,229.9z M246.9,277.7c6.9,0,13.2,0,19.4,0c1.8,0,3,0.4,3.4,2.5c1.5,7.8,3.1,15.5,4.6,23.3
	c0.4,1.9,0.1,3.1-2.2,3c-0.4,0-0.8,0-1.2,0c-15.4,0.8-15.4,0.8-19.8-14C249.8,287.7,248.4,283,246.9,277.7z M345.4,277.7
	c-2.7,9.1-5.2,17.3-7.5,25.5c-0.6,2.2-1.6,3.6-4.1,3.2c-0.2,0-0.4,0-0.6,0c-16,0.7-16,0.7-12.9-14.8c2.8-13.9,2.8-13.9,17.3-13.9
	C339.9,277.7,342.3,277.7,345.4,277.7z M297.3,277.7c5-1.2,6.9,0.6,5,6.8c-1.8,6.1-2.6,12.4-3.8,18.7c-0.3,1.6-0.4,3.3-2.7,3.2
	c-1.9-0.1-1.9-1.7-2.2-3.1c-1.2-6-2.4-12.1-3.6-18.1C288.7,277.7,288.7,277.7,297.3,277.7z"/>
<path style="fill:#1D1631;" d="M305.7,373.5c0,5-0.2,9.9,0.1,14.9c0.2,3.5-1.2,4.2-4.4,4.2c-14.8,0.2-14.8,0.3-14.8-14.6
	c0-6.5,0.2-13.1-0.1-19.6c-0.1-3.5,1.2-4.2,4.4-4.2c14.8-0.2,14.8-0.3,14.8,14.6C305.7,370.3,305.7,371.9,305.7,373.5z M286.5,430.3
	c0-5,0.2-9.9-0.1-14.9c-0.2-3.2,1-3.9,4.1-4c15.1-0.4,15.1-0.5,15.1,14.8c0,6.5-0.2,13.1,0.1,19.6c0.1,3.2-1,3.9-4.1,4
	c-15.2,0.4-15.2,0.5-15.1-14.8C286.5,433.5,286.5,431.9,286.5,430.3z M305.7,488.4c0,5.2-0.1,10.3,0,15.5c0.1,2.6-0.7,3.7-3.4,3.4
	c-0.2,0-0.4,0-0.6,0c-15.2,0.6-15.2,0.6-15.2-14.7c0-6.7,0.1-13.5,0-20.2c-0.1-2.6,0.7-3.7,3.4-3.4c0.2,0,0.4,0,0.6,0
	c15.2-0.6,15.2-0.6,15.2,14.7C305.7,485.2,305.7,486.8,305.7,488.4z"/>
</svg>
