<?xml version="1.0" encoding="utf-8"?>
<!-- Generator: Adobe Illustrator 23.0.3, SVG Export Plug-In . SVG Version: 6.00 Build 0)  -->
<svg version="1.0" id="Layer_1" xmlns="http://www.w3.org/2000/svg" xmlns:xlink="http://www.w3.org/1999/xlink" x="0px" y="0px"
	 viewBox="0 0 581.6 581.6" style="enable-background:new 0 0 581.6 581.6;" xml:space="preserve">
<path style="fill:#1A1330;" d="M564.7,302.7c-1.9,3.4-4.8,5.5-8.4,7.1c-21.7,9.5-43.3,19.1-64.9,28.7c-9.4,4.2-19.3,7.8-29.6,7
	c-18.5-1.3-35.2,4.1-52.1,10.4c-22.3,8.3-44.2,18-67.5,23.4c-9,2.1-15.5,5.8-21,12.9c-7.1,9-14.9,17.4-22.9,26.5
	c5.8,1.3,11.1,0.4,16.3,0.6c4.1,0.2,8.3-0.1,12.4,0.4c4.9,0.6,7.8,4,7.8,8.8s-2.6,8.4-7.6,9c-4.6,0.5-9.3,0.4-14,0.4
	c-9.2,0-18.3,0-27.5,0c-1.9,0-4-0.3-5.5,1.4c-10,11.5-20,22.9-31,35.4c11.1,0,20.8-0.1,30.6,0c5.1,0.1,8.6,3.6,9,8.2
	c0.4,4.8-2.9,9-8,9.9c-1.6,0.3-3.2,0.2-4.8,0.2c-12.6,0-25.1,0.1-37.7-0.1c-3.5,0-6,0.8-8.3,3.6c-4.6,5.7-9.7,11.1-14.5,16.7
	c-12.3,14.3-28.4,18.2-46.2,16.2c-11.6-1.3-17.9-12.2-14.8-24.6c8.7-34.8,17.4-69.5,26.1-104.3c1.1-4.3,2-8.7,3.3-13
	c1.3-4.2,0-5.2-4.2-5.2c-4.9-0.1-8.9,1.1-12.9,4.1c-30.1,22.1-60.4,43.9-90.5,66c-5.1,3.8-9.7,4.7-15.3,1.3c-4.5-2.6-9.3-4.6-13.9-7
	c-6.9-3.5-8.4-8.3-4.6-15c8.2-14.5,16.5-29,24.8-43.5c0.9-1.6,2.4-3.1,2.3-5.8c-11.9,0-23.6,0-35.4,0c-2.3,0-4.7,0.3-6.9-0.8
	c-4.2-2.2-5.9-5.8-4.9-10.3c1.1-5.2,4.9-7.3,9.9-7.3c15.3,0,30.5,0,45.8,0c8.2,0,8.2,0,8.2-8.3c-0.1-10.1-0.1-10-10.2-10.1
	c-5.5,0-11.1,0.5-16.6-0.9C44.4,340.6,34.8,331,32,315.6c-1.9-10.4-1.8-21.2,0-31.6c3.2-18,17.6-29.8,36-30.1
	c4.8-0.1,9.7-0.2,14.5,0c2.8,0.1,4-0.7,3.7-3.6c-0.2-2.1-0.1-4.3-0.1-6.5c0-8.4,0-8.3-8.6-8.3c-15.1,0-30.2,0-45.3,0
	c-4.6,0-8.2-1.8-9.7-6.2c-1.4-4.1-0.4-7.8,3.2-10.6c2.1-1.7,4.7-1.6,7.2-1.6c12.1,0,24.3,0,37.4,0c-2.4-4.4-4.4-7.9-6.4-11.5
	C57,193.4,49.8,181,42.8,168.5c-4.1-7.3-2.7-11.9,4.8-15.7c4.6-2.4,9.4-4.4,13.9-7c5.2-3,9.6-2.2,14.4,1.3c30,22,60.1,43.7,90,65.7
	c4.5,3.3,8.8,4.9,14.3,4.6c3.7-0.1,4.6-1,3.7-4.7c-5.9-23.1-11.6-46.2-17.4-69.3c-4.1-16.5-8.4-33-12.4-49.5
	c-3.2-13.1,5.2-23.3,18.7-24c19.2-1,35.2,5.3,46.2,21.2c8.5,12.4,18.9,18.2,34.2,15.9c8.1-1.2,16.5-0.3,24.8-0.2
	c6.7,0.1,10.8,3.8,10.7,9.4c-0.1,5.5-4,8.8-10.6,8.9c-9.1,0.1-18.3,0-27.5,0c-0.5,2.5,1.4,3.3,2.5,4.5c8.5,9.8,17.1,19.4,25.5,29.2
	c2.1,2.5,4.3,3.3,7.4,3.3c12.6-0.1,25.1-0.1,37.7,0c6.9,0,11.1,3.6,11,9.1s-4.3,9.1-11,9.3c-8.2,0.1-16.4,0-24.7,0
	c-0.3,2.1,1.2,2.9,2,3.9c8.9,10.3,18,20.5,26.9,30.8c1.7,2,3.6,3.1,6.3,3.5c15.8,2.3,30.2,8.8,45.1,14.1
	c18.2,6.4,36.4,13.2,54.5,19.9c2.6,0.9,5.1,1.5,7.9,1.3c22.4-1.8,43.3,3.3,63.4,13.3c16.7,8.3,34,15.3,51.1,22.8
	c3.6,1.6,6.5,3.7,8.4,7.1C564.7,299.1,564.7,300.9,564.7,302.7z"/>
<path style="fill:#FFE24F;" d="M533.2,300.2c-23.2,8.5-43.2,21.9-66.7,26.6c-9.2,1.9-18.6,0.6-28,0.7c-2.7,0-5.3,0.4-7.9,1.3
	c-25.9,9.5-51.8,18.9-77.7,28.4c-12.9,4.8-26.2,7.1-40,7.1c-67.2-0.1-134.3-0.1-201.5,0.1c-5.2,0-7.1-0.9-6.9-6.7
	c0.6-11.8,0.2-11.8,11.8-11.8c32,0,63.9,0,95.9,0c9.4,0,12-2.6,12-12.2c0-22.3,0-44.5,0-66.8c0-10.3-2.5-12.8-12.6-12.8
	c-33.8,0-67.5-0.1-101.3,0.1c-5,0-5.9-1.4-5.8-6c0.4-12.4,0.2-12.4,12.7-12.4c66.1,0,132.2,0,198.3-0.1c12.9,0,25.2,2.6,37.3,7.1
	c24.9,9.1,49.9,18.1,74.7,27.4c5.9,2.2,11.9,2.7,18,2.3c17.3-1.3,33.3,2.6,48.8,10.4C506.6,289,519.5,294.1,533.2,300.2z"/>
<path style="fill:#E96060;" d="M305.3,382.6c-6.9,8-12.9,15-19,22c-27.8,31.7-55.6,63.4-83.2,95.2c-7.3,8.4-16,12.3-27,11.9
	c-3.1-0.1-4.2-0.7-3.4-4c10.2-40.3,20.3-80.6,30.2-120.9c0.8-3.3,2.4-4.2,5.6-4.2C240.3,382.7,272.1,382.6,305.3,382.6z
	 M304.8,217.4c-33,0-64.9,0-96.9,0c-2.8,0-4-0.7-4.8-3.6c-10-40.5-20.2-81-30.4-121.5c-0.7-2.7-0.4-3.9,2.8-4
	c10.3-0.4,19.1,2.4,26,10.3c31,35.6,62.1,71.1,93.1,106.6C297.9,209,301.7,212.3,304.8,217.4z M139,217.2c-14.7,0-29.4-0.1-44,0.1
	c-3.3,0-4.3-2-5.5-4.1c-8.2-14.3-16.4-28.6-24.5-43c-0.8-1.4-3.3-2.9-1.1-5c2-1.8,4-1.2,6.2,0.4c12.5,9.3,25.2,18.4,37.8,27.6
	c10.5,7.7,21.1,15.3,31.6,23C139.4,216.6,139.2,216.9,139,217.2z M140.7,382.8c-12.5,9.1-23.7,17.4-35,25.6
	C94,416.9,82.2,425.5,70.5,434c-1.5,1.1-2.7,2.9-5.2,1.6c-2-1-2.8-1.8-1.5-4c9-15.5,17.8-31.1,26.8-46.6c0.7-1.3,1.5-2.2,3.3-2.2
	C108.9,382.9,123.9,382.8,140.7,382.8z"/>
<path style="fill:#1A1330;" d="M318.9,291c-6.6-1.5-10-5.2-9.5-10.3c0.6-5.2,4.7-8.2,11.3-8.2c22.8,0,45.6,0,68.4,0
	c16.2,0,28.3,11.8,28.3,27.5c0,15.6-12.1,27.5-28.3,27.6c-22.8,0.1-45.6,0-68.4,0c-6.7,0-10.8-3-11.3-8.2c-0.5-5.1,2.7-8.7,9.5-10.3
	c2.5-1.9,5.5-1.5,8.3-1.5c19,0,38,0,57.1,0c2.5,0,5,0.2,7.5-0.6c3.3-1.1,5-3.4,5-6.8s-1.7-5.8-5-6.9c-2.4-0.8-5-0.6-7.5-0.6
	c-19,0-38,0-57.1,0C324.4,292.5,321.4,292.9,318.9,291z"/>
<path style="fill:#58A0E8;" d="M127.1,290.8c-24.2,0-48.5-0.1-72.7,0.1c-5,0-5.3-1.6-3.9-5.6c2.5-7.4,9-12.8,16.9-12.8
	c44.9-0.1,89.7,0,134.6-0.1c3.6,0,4,1.4,4,4.4c0.2,14,0.3,14-13.7,14C170.5,290.8,148.8,290.8,127.1,290.8L127.1,290.8z
	 M128.2,309.1c24.2,0,48.5,0.1,72.7-0.1c4,0,5.2,0.9,5.1,5c-0.2,13.4,0,13.5-13.2,13.5c-41.3,0-82.6,0-123.9,0
	c-9.2,0-15.8-4.9-18.5-12.8c-1.3-4-1-5.6,4-5.6C79,309.3,103.6,309.1,128.2,309.1z M318.9,291c23.7-0.1,47.4-0.2,71.1-0.2
	c5.6,0,9,4,8.9,9.4c-0.1,5.1-3.6,8.8-8.9,8.8c-23.7,0-47.4-0.1-71.1-0.1C318.9,303,318.9,297,318.9,291z"/>
</svg>
