<?xml version="1.0" encoding="utf-8"?>
<!-- Generator: Adobe Illustrator 23.0.3, SVG Export Plug-In . SVG Version: 6.00 Build 0)  -->
<svg version="1.0" id="Layer_1" xmlns="http://www.w3.org/2000/svg" xmlns:xlink="http://www.w3.org/1999/xlink" x="0px" y="0px"
	 viewBox="0 0 582.4 526.4" style="enable-background:new 0 0 582.4 526.4;" xml:space="preserve">
<path style="fill:#1D1631;" d="M290.9,415.9c-31.8,0-59.7-0.9-87.6-3.5c-45.1-4.3-89.7-11.2-131.2-30.7
	c-24.7-11.6-46.3-27.2-59.6-51.9c-16.9-31.6-15.6-64.1-3-96.5c12-30.7,33.6-52.9,63.4-66.9c5-2.3,4.8-5.9,5.2-9.9
	c3.2-29.4,17.2-52.2,42.7-67.2c26.7-15.7,54.6-16.4,82.6-3.4c4.2,1.9,5.8,2.1,8.3-2.4c31.8-57.1,80.8-85.2,146-83.4
	c61.8,1.7,119.5,46.4,138.6,105.3c5.8,17.9,9,36,7.9,54.8c-0.2,3.7,2.1,4.5,4.6,5.7c22.8,10.6,41.4,26.3,54.1,47.9
	c21.6,36.6,26.7,74.9,7.7,114.2c-12.7,26.2-35.1,42.7-60.7,54.9c-28.8,13.8-59.6,21.2-91,25.9C375.3,415.5,331.3,416.4,290.9,415.9z
	 M261.6,526.3c-8.8-0.1-13.1-8.7-8.5-16.2c11.2-18.1,22.5-36.2,33.8-54.2c5-8,9.9-16,14.9-23.9c3.8-5.9,10-7.6,15-4.3
	c4.9,3.3,5.8,8.8,2,14.9c-16.1,25.9-32.3,51.7-48.5,77.6C268.1,523.8,265.3,526.1,261.6,526.3z M260.9,436.8
	c0.1,1.6-0.7,3.6-1.9,5.5c-16.4,26.2-32.6,52.4-49.1,78.5c-3.5,5.6-8.4,6.9-13.5,4.3c-4.6-2.3-6.7-7.6-4.9-12.5
	c0.5-1.3,1.3-2.4,2-3.6c16-25.7,32.1-51.4,48.1-77c3.3-5.3,7.9-7.3,12.8-5.4C258.8,428.2,260.9,431.5,260.9,436.8z M322.5,526.3
	c-8.7,0.2-13.8-8.1-9.9-15c4-7.2,8.6-14,13-20.9c12.1-19.4,24.3-38.8,36.3-58.2c2.8-4.5,6.4-6.8,11.7-5.9c4.4,0.7,6.7,3.9,7.7,7.9
	c1,3.8-1.1,6.8-3,9.8c-11.9,19.1-23.8,38.1-35.8,57.2c-4,6.5-8.1,12.9-12.1,19.4C328.3,523.9,325.5,526,322.5,526.3z"/>
<path style="fill:#58A0E8;" d="M38.3,331.4c-10.4-11.7-16-25.6-17.3-40.9c-5-57.2,33.7-106.4,90-115.2c5-0.8,10.1-0.9,15.2-1.2
	c6.5-0.4,10-3.8,10.1-9.8c0-6-4.1-10.2-10.5-10.1c-7.8,0-15.7,0.7-23.3,2.4c-3.7,0.8-4.4,0.1-3.9-3.5c3.9-25.5,26.1-49,51.5-54.3
	c29.9-6.2,58.1,6.2,73.8,32.5c0.5,0.8,1,1.7,1.5,2.5c3.4,4.8,8.7,6.2,13.3,3.5c4.9-2.8,6.5-8.4,3.8-13.7
	c-3.6-6.8-7.9-13.1-13.4-18.5c-3-3-3.5-5.6-1.4-9.6c20.7-39.6,52.8-64.5,96.7-73c75-14.7,146.9,36.7,158.5,112.5
	c0.9,5.8,1,11.7,1.3,17.5c0.2,3.3-0.1,4.8-4.4,4c-7.3-1.4-14.7-2.1-22.1-2.4c-7.4-0.4-11.7,3.7-11.8,10.1c-0.1,6.2,3.7,9.6,11.2,9.9
	c27.9,1.1,52.2,10.8,72.5,30.1c1.8,1.7,3.3,3.8,5,5.7c10.8,35.7,4.3,67.8-20.8,95.5c-20.1,22.2-46.7,33.9-74.6,42.6
	c-31.2,9.8-63.3,14.2-95.8,16.9c-44.8,3.7-89.6,2.7-134.4,1.9c-37.8-0.7-75.3-4.9-112.2-13.7c-17.2-4.1-33.9-9.6-50.2-16.4
	C43.6,335.4,41.1,333.2,38.3,331.4z"/>
<path style="fill:#4278AE;" d="M38.3,331.4c12.5,4.9,24.8,10.3,37.7,14.2c19.6,5.9,39.5,10,59.8,12.9c21.6,3.1,43.2,4.8,65,6
	c37,1.9,73.9,1.3,110.9,0.6c28.3-0.5,56.5-3.6,84.6-8.7c25.7-4.6,50.7-11.1,74.2-22.2c23.3-10.9,43.6-26.1,56.4-49.3
	c5.6-10.1,8.1-21.3,10.1-32.8c2.5-14.4-1-28.2-2.3-42.3c13.3,13.5,21.1,30,24.9,48.3c5,24,3,47.1-10.9,68.2
	c-11.5,17.3-27.9,28.9-46.2,37.9c-25.1,12.4-52.1,18.8-79.5,23.5c-52.1,8.8-104.8,9-157.4,7.9c-40.1-0.8-80-3.3-119.4-11.4
	c-28.1-5.7-55.5-13.4-80.1-28.7C55.5,349,45.4,341.8,38.3,331.4z"/>
<path style="fill:#FDFDFD;" d="M368.8,40.2c1.2,0.4,3.9,1.4,6.6,2.6c1.5,0.7,1.6,2.1,0.4,3.4c-0.9,1-1.9,2-2.9,2.9
	C348,74,323.1,99,298.2,123.9c-3.4,3.4-11.9,4.2-15.8,1.4c-1.3-0.9-1.5-1.7-0.4-2.8c0.8-0.9,1.6-1.7,2.5-2.5
	c25.5-25.5,50.9-51,76.4-76.4C362.6,41.8,364.1,39.4,368.8,40.2z M359.3,38.8c-1.2,1.4-1.9,2.4-2.7,3.2
	c-26.2,26.2-52.3,52.3-78.5,78.5c-4.8,4.8-7.9-0.1-11-2.1c-4-2.6,0.2-4.6,1.8-6.3c23.9-24,47.9-47.9,71.8-71.9
	c2.3-2.3,14.1-3.9,16.7-2.3C358,38.2,358.5,38.4,359.3,38.8z M309.8,127.9c-2.4-0.6-6.2,1.7-7.3-1.2c-0.8-2.1,2.7-3.9,4.5-5.7
	c23.5-23.5,47-47,70.4-70.6c3.3-3.4,5.8-3.8,9.2-0.5c3.6,3.5,3.3,6-0.3,9.6c-21.2,20.8-42.2,41.9-63,63
	C319.3,126.4,315.6,129.3,309.8,127.9z M335.2,39.6c-0.9,0.9-1.9,2.1-3,3.2c-22.1,22.1-44.2,44.3-66.4,66.3
	c-1.5,1.5-3.2,5.3-5.9,2.1c-2.5-2.9-5.9-6.3-2.7-10.8c1.3-1.9,3.2-3.4,4.9-5c17.1-17.2,34.4-34.2,51.4-51.5c5.8-5.9,13.3-4.4,20-6.2
	C334.4,37.3,335.4,37.8,335.2,39.6z M117.9,195.1c2.5,0.8,5.2,1.9,7.3,3.9c1.9,1.7,0.7,3.1-0.6,4.4c-17.3,17.3-34.5,34.7-51.9,51.8
	c-4.5,4.4-8-0.7-11.1-2.8c-3.8-2.6,0.7-4.2,2.1-5.6c15.9-16.2,32-32.2,48.1-48.2C113.4,197,114.7,194.8,117.9,195.1z M328.1,125.3
	c-0.1-2.8,1.7-3.7,2.9-4.8c19.1-19.1,38.2-38.3,57.3-57.3c1.2-1.2,2.1-3.4,4.1-2.7c1.7,0.7,1.8,2.9,2,4.6c0.7,5.4,0.1,10-4.4,14.2
	c-11.7,11-23,22.4-34.1,34C348.2,121.4,338.2,122.8,328.1,125.3z M408.2,246.4c-2.2-1.1-5.3-2.2-7.6-4.1c-2.7-2.3,0.5-3.7,1.8-5.1
	c13.1-13.2,26.3-26.3,39.4-39.5c2.5-2.5,5-5,7.5-7.5c4.6-4.6,10.1-4.4,14.3,0.5c2.3,2.6-0.7,3.4-1.8,4.5
	c-13.6,13.8-27.4,27.5-41.1,41.2c-2.6,2.6-5.2,5.3-7.9,7.9C411.7,245.4,410.7,246.7,408.2,246.4z M102.1,192.7
	c2.4,0.3,6.1-1.4,7.1,0.8c1.3,2.9-2.5,4.3-4.3,6.1C90.5,214.2,76,228.7,61.4,243c-1.6,1.6-2.7,5.7-6.2,3.2
	c-3.8-2.7-4.8-9.4-1.9-12.5c3.3-3.6,6.9-6.9,10.3-10.4c8.6-8.6,17.3-17,25.6-25.8C92.8,193.7,96.7,191.6,102.1,192.7z M447.3,185.9
	c-0.8,1-1.5,1.9-2.3,2.7c-15.5,15.5-31,31-46.5,46.6c-2.7,2.7-4.4,1.8-5.9-0.8c-2.4-4.3-3.5-8,1.1-12.3
	c11.9-11.1,23.1-22.9,34.6-34.3c2.7-2.7,14.6-4.8,17.6-3.1C446.4,184.8,446.7,185.3,447.3,185.9z M83.7,258.4
	c-1.8-0.3-4.7,1-5.5-1.5c-0.6-1.9,2-3.1,3.3-4.4c14.9-15,29.8-29.9,44.8-44.8c4-4,4.9-3.7,6.9,1.7c1.7,4.5,1.5,8.1-2.5,11.8
	c-10.6,9.9-20.6,20.3-30.8,30.6C94.2,257.4,91.8,258.4,83.7,258.4z M423.9,247.9c-1.2,0-2.3,0-3.5,0c-1.1,0-2.6,0.3-2.9-1.2
	c-0.1-0.7,0.7-1.8,1.3-2.4c4-4.1,8-8,12-12.1c10.4-10.4,20.6-20.8,31.2-31c1.9-1.8,3.3-7.1,7.6-3.3c3.3,2.9,3.4,9.5,0.4,12.7
	c-3.4,3.5-6.9,6.9-10.3,10.4c-6.9,6.9-14.1,13.6-20.6,20.8C434.8,246.4,429.8,248,423.9,247.9z M145.9,153.8
	c-3.3,0.3-7.6,0.5-8.8-1.9c-1.4-2.8,2.8-4.6,4.7-6.5c10.1-10.3,20.4-20.5,30.6-30.7c4.1-4.1,7.6-3.9,11.2,0.5c1.6,2,2.1,3.8-0.1,6.1
	c-10.3,10.1-20.5,20.3-30.7,30.6C150.6,154,148.2,153.9,145.9,153.8z M163.4,108c2.1,0,4.8,0.3,5.8,1.9c1.3,2-1.4,3.2-2.7,4.5
	c-10.8,11-22,21.7-32.6,32.9c-3.7,3.9-6.1,2.1-8.6-0.4s-4.3-5-0.4-8.6c8.3-7.7,16.5-15.6,24-24.1C153,109.6,158.1,109.1,163.4,108z
	 M305.2,46.4c-11.2,11.1-22.3,22.3-33.5,33.4c-4.3,4.3-8.5,8.6-12.9,12.8c-0.9,0.9-1.8,2.6-3.3,1.7c-1.4-0.8-0.6-2.4-0.3-3.7
	c2.7-12.5,10.8-21.5,20.1-29.4C283.9,54,293.5,48.3,305.2,46.4z M53.4,226.2c-0.2-9.1,14.3-24,27.6-28.3
	C80,201.6,58.8,223.4,53.4,226.2z M139.9,114.7c-5.2,5.2-11.5,11.5-17,17C123.8,124.7,132.1,116.5,139.9,114.7z M369.8,106.1
	c5.4-5.5,10.8-11.1,16.1-16.6C382.5,97,376.8,102.2,369.8,106.1z"/>
</svg>
