<?xml version="1.0" encoding="utf-8"?>
<!-- Generator: Adobe Illustrator 23.0.3, SVG Export Plug-In . SVG Version: 6.00 Build 0)  -->
<svg version="1.0" id="Layer_1" xmlns="http://www.w3.org/2000/svg" xmlns:xlink="http://www.w3.org/1999/xlink" x="0px" y="0px"
	 viewBox="0 0 600 600" style="enable-background:new 0 0 600 600;" xml:space="preserve">
<path style="fill:#050035;" d="M599.9,39.9c0,7.8,0,15.6,0,23.4c-1.3,15.3-5.6,29.7-13,43.2c-4.4,8.1-9.6,15.6-16.2,22.1
	c-25.6,25.4-51,51.1-76.7,76.5c-4.3,4.2-5.5,8.2-3.8,14c7.7,26.4,14.8,53,22.2,79.5c1.1,4.1,2.6,5.6,7.3,4.9
	c23.4-3.6,43.1,3.8,57.4,22.6c13.8,18.2,15.7,38.7,6.8,59.8c-3.2,7.6-8.4,14.1-14.1,20c-5.4,5.6-10.9,11.2-16.6,16.5
	c-3.8,3.5-4.6,7.1-3.1,12c5.9,20.2,11.3,40.6,17.1,60.9c1.6,5.8,0.8,10-3.6,14.2c-12.3,12-24.3,24.3-36.5,36.4
	c-6.3,6.2-8.6,5.9-13.3-1.8c-13.1-21.7-26.4-43.3-39.5-65c-3.7-6.1-4-6.1-9.2-1c-4.6,4.5-9,9.2-13.7,13.6c-6.3,5.8-13.8,6-19.4,0.7
	c-5.2-5-5.2-13.4,0.3-19.5c6-6.7,12.5-12.9,19-19.1c3.6-3.4,4.1-6.4,1.3-10.6c-7.8-11.7-5.8-11-15.2-1.9c-1.5,1.5-3.1,3-5,4.1
	c-6.2,3.7-13.2,2.8-17.6-2.1c-4-4.5-4-12.1,0.1-17.3c3.6-4.6,8-8.6,12.2-12.6c3.3-3.1,3.5-5.9,1.2-9.7c-15.4-25.3-30.8-50.7-46.3-76
	c-3.3-5.3-3.7-5.3-8-0.9c-25.4,25.4-50.8,50.8-76.2,76.1c-3.4,3.4-4.4,7-3.8,11.6c4.9,38.1,9.6,76.3,14.5,114.4
	c0.7,5.4-0.6,9.4-4.4,13.2c-17.9,17.7-35.7,35.6-53.4,53.4c-2.3,2.3-5.1,3.5-8,4.6c-2.7,0-5.5,0-8.2,0c-9.6-3.5-12.1-13.4-5-21.5
	c6.1-6.9,12.9-13.1,19.3-19.6c5.4-5.5,5.6-5.6,1.8-12.6c-13.7-25.4-27-51-40.6-76.5c-1.9-3.6-4.1-4.8-8-3.2
	c-7.4,3.1-14.9,5.8-22.7,7.7c-3.6,0.9-6,3.6-8.4,6.1c-12.7,12.7-25.1,25.7-40.2,35.7c-11.1,7.3-22.2,14.6-34.8,19.2
	c-4.8,1.8-9.7,3.1-14.8,3.1c-10.9,0.2-18-6.8-18.5-17.5c-0.4-7.3,1.7-14,4.6-20.4c10-21.8,22.8-41.8,39.8-58.8
	c3.7-3.7,7.2-7.8,11.2-11.1c10.1-8.2,16-18.8,19.4-31.2c1-3.5,0.6-5.4-2.7-7c-20.9-10.6-41.4-21.9-62.2-32.7
	c-6.4-3.3-12.7-6.9-19.1-10.2c-7.1-3.6-7.1-3.6-12.6,1.8c-5.4,5.4-10.8,10.8-16.2,16.1c-1.5,1.5-3,3.1-4.8,4.3
	c-7.9,5.6-16.9,2.9-20.2-6.1c0-2.3,0-4.7,0-7c0.8-4.1,2.8-7.4,5.8-10.4c17.4-17,34.4-34,51.3-51.1c4.3-4.4,8.7-6.2,15.1-5.4
	c37,4.8,74,9.1,110.9,14.1c7.4,1,12.7-0.4,18.1-6c23.5-24.2,47.6-47.9,71.5-71.8c6.2-6.2,6.3-6.4-0.9-10.8
	c-24.8-15.1-49.7-30.2-74.5-45.4c-4.2-2.6-7.3-2.5-10.7,1.3s-7,7.4-10.8,10.7c-5.8,5.1-13.8,5.5-18.7,1.2c-5.5-4.8-5.9-12.2-1-19
	c2.3-3.2,5.2-5.8,7.9-8.6c2.3-2.3,2.3-3.9-0.5-6c-11.1-8.2-11.3-8.3-21.1,1.5c-5.1,5.1-10,10.5-15.5,15.2c-6.9,5.9-15,5.2-20.1-1.4
	c-4-5.2-3.8-11.8,0.9-17.1c4.8-5.4,10.2-10.3,15.2-15.5c4.2-4.3,4.1-4.9-1.1-8.1c-21.2-12.8-42.3-25.8-63.6-38.6
	c-1.5-0.9-3.1-1.8-4.5-2.8c-4.7-3.4-5.2-5.9-1.2-10C65.6,61.2,79,47.9,92.5,34.5c3.2-3.2,6.8-3.1,10.8-2c20.5,5.6,41,11.3,61.5,17.2
	c5.4,1.6,9.1,0.8,13.1-3.3c7.7-8,15.3-16.1,24.2-23c35.5-27.5,87.2-7.5,94.7,36.9c1.1,6.6,1.1,13.3-0.2,19.8c-0.9,4.1,0,6,4.2,7.2
	c26.9,7.5,53.8,14.8,80.7,22.5c5.3,1.5,9.1,0.5,13-3.5c25.3-25.5,50.6-51,76.2-76.2c17.7-17.5,39.1-27.4,64-29.5
	c0.8-0.1,1.6,0,2.2-0.6c7.4,0,14.8,0,22.3,0c5.6,1.2,11.6,0.7,17,3.4c13.3,6.7,21.8,16.7,23.3,31.9
	C599.3,36.9,598.8,38.6,599.9,39.9z"/>
<path style="fill:#FDFDFD;" d="M599.9,39.9c-2.2-3.2-2.1-7.2-3.4-10.7c-6-16.7-18.3-25.3-35.2-28c-0.9-0.1-2,0.1-2.3-1.1
	c12.7,0,25.4,0.1,38.1-0.1c2.5,0,3,0.5,3,3C599.8,15.3,599.9,27.6,599.9,39.9z"/>
<path style="fill:#58A0E8;" d="M541.3,495.1c-0.2,0.5-0.3,1.3-0.8,1.8c-4.9,5-9.7,10.2-14.9,14.9c-2.6,2.3-3.1-1.2-3.9-2.5
	c-8.3-13.4-16.5-27-24.7-40.5c-32.3-53.2-64.7-106.3-97-159.5c-5.6-9.2-5.4-6.7,1.6-13.8c20.5-20.6,41.2-41.1,61.6-61.8
	c3.3-3.4,4.4-3.8,5.8,1.5c23.6,85.4,47.4,170.8,71.1,256.2C540.5,492.5,540.8,493.6,541.3,495.1z M370.1,132.7
	c-23.5,23.6-46.5,46.4-69.2,69.4c-2.9,2.9-4.7,1.2-7-0.2c-53.1-32.3-106.2-64.6-159.4-96.9c-13.8-8.4-27.6-16.8-41.5-25.2
	c-2-1.2-3.9-2.5-6.6-4.2c5.5-5.3,10.7-9.9,15.6-15c2.4-2.5,4.6-1.3,6.9-0.7c34.7,9.6,69.4,19.3,104.1,29
	c50.8,14.1,101.7,28.2,152.5,42.3C366.8,131.6,368,132,370.1,132.7z"/>
<path style="fill:#FFE24F;" d="M291.7,308.3c-7.8-4.8-11.7-4.4-18.1,1.9c-6.2,6.2-12.9,12-18.5,18.7c-9.3,10.9-20.4,18.4-34.5,21.3
	c-1.3,0.3-2.6,0.8-3.9,1.2c-14.7,4.5-29.9,8-38.7,23c-1.8-2.6-0.1-3.7,0.4-4.9c8.4-17,19.1-32.2,32.8-45.8
	c91.9-91.3,183.3-183.1,275-274.6c17.9-17.8,40.4-25.1,65.2-25.8c7.2-0.2,14.5,0.9,19.5,7.3c-0.9,3.9-4.2,5.8-6.7,8.4
	c-4.1,4.3-8.3,8.5-12.6,12.6c-1.6,1.6-3.3,3.3-5.9,3.1c-3-0.6-4.9-3-7.4-4.5c-6.4-3.9-13.1-6.8-20.7-7.1c-6.7-0.3-10.9,2.8-11.4,8.2
	c-0.5,5.1,2.8,8.6,9,10.2c5.7,1.5,12.2,1.6,15.2,8.1c0.1,4.3-3.4,6.4-6,8.9C469.3,133.9,414.1,189,359,244.2c-20,20-40,40-60,60
	C297,306.1,295.4,309.1,291.7,308.3z M200.5,61.3c5.7-6.2,10.9-13.2,17.4-18.6c10.9-9.1,26.9-9.4,38.8-1.8
	c12.1,7.7,18.2,21.8,15.4,35.8c-0.4,2.2-0.1,4.8-4.1,3.7c-22.4-6.4-44.9-12.6-67.3-18.9C200.3,61.3,200,61,200.5,61.3z M92.5,505.9
	c8.4-16.1,17.4-31.8,30.3-44.8c26-26.1,52-52.3,78.3-78.1c7-6.9,17-7.8,26-10.2c0.1,0.3,0.1,0.7,0.2,1c-2.3,4.1-5.4,7.5-8.7,10.9
	c-38.9,38.8-77.7,77.6-116.5,116.4c-2.2,2.2-4.4,4.5-7.1,6C93.8,507.7,92.3,508.4,92.5,505.9z"/>
<path style="fill:#F0B94A;" d="M291.7,308.3c1.6-1.4,3.3-2.7,4.8-4.2c76.3-76.3,152.7-152.6,229-229c1.5-1.5,2.8-3.2,4.2-4.8
	c4-0.2,5,3,6.4,5.7c1.6,3.2,1.9,6.7,2.7,10.1c1.3,5.3,5.3,8.3,10.1,7.6c4.6-0.6,7.8-4.1,7.9-9.4c0.2-9.1-3.2-17.1-8.3-24.4
	c-1.2-1.8-3.6-3.2-2.2-6c8.6-7.4,15.6-16.5,24.6-23.5c3.9,3.5,5.3,8.2,5.5,13.1c1.3,25.9-5.5,49.8-23.7,68.2
	c-96,96.8-192.5,193-289,289.2c-12.9,12.9-29.1,21.3-45.7,29.2c6.3-6.2,12.6-12.4,18.9-18.4c2.3-2.2,3.9-4.7,4.8-7.8
	c2.1-6.9,5.1-13.6,6.7-20.5c3.9-16.7,12.2-30.4,25.5-41.3c5.7-4.7,10.6-10.4,15.8-15.7C296.2,319.9,296.6,316,291.7,308.3z
	 M538.8,400.3c-2.3-8.4-4.7-17-7.1-25.5c-3.9-13.8-7.6-27.7-11.7-41.5c-1.1-3.6-0.3-4.7,3.3-5.3c14.4-2.6,28.6,3.5,36.1,15.9
	s6.8,28.2-2.7,39.2C551.4,389.2,545,394.4,538.8,400.3z M92.5,505.9c3.1,1.3,3.9-1.8,5.3-3.2c41.7-41.5,83.2-83.1,124.8-124.6
	c1.5-1.5,3.2-2.9,4.7-4.3c-3.1,12.8-8,24-18.1,33.6c-25.5,24.2-49.8,49.6-74.8,74.2c-12.6,12.4-28,20.8-43.8,29.3
	C90.2,508.4,91.4,507.2,92.5,505.9z"/>
<path style="fill:#EA6060;" d="M63.8,326.7c4.8-9.5,12.3-9.5,21.3-8.3c29.5,4.2,59.1,7.5,88.7,11.2c0.4,2.4-1.3,3.8-2.3,5.4
	c-6.7,11-12.8,22.3-18.4,33.9c-0.8,1.6-0.8,4.7-4.3,2.8C120.4,356.7,92,341.7,63.8,326.7z M273.3,536.4
	c-14.3-27.1-28.5-54.1-42.8-80.9c-1.2-2.3-1.3-3.9,1.2-5.3c13.1-7,25.4-15.1,38.4-24.2c1.4,10.7,2.8,20.6,4,30.6
	c2.5,20.1,4.3,40.3,7.7,60.3C283.4,525.7,281.1,531.4,273.3,536.4z M546.3,53.9c7.4,8.4,12.2,17.9,12.7,29.3
	c0.3,7.2-4.1,12.4-10.6,12.8c-6.2,0.4-10.9-3.9-12-10.9c-0.9-5.6-2-11.1-6.8-14.9c-3.9-4.8-9.4-5.8-15-6.7c-7-1.1-11.3-6-10.7-12.2
	c0.5-6.5,5.7-10.7,13.1-10.4C528.4,41.5,538,46.4,546.3,53.9z"/>
</svg>
