<?xml version="1.0" encoding="utf-8"?>
<!-- Generator: Adobe Illustrator 23.0.3, SVG Export Plug-In . SVG Version: 6.00 Build 0)  -->
<svg version="1.0" id="Layer_1" xmlns="http://www.w3.org/2000/svg" xmlns:xlink="http://www.w3.org/1999/xlink" x="0px" y="0px"
	 viewBox="0 0 512.2 383" style="enable-background:new 0 0 512.2 383;" xml:space="preserve">
<path style="fill:#E6DBE2;" d="M354.1,225.1c-1.6,0-2.9,0.6-4.1,1.6c-3.1,3.4-6.9,2.7-10.6,1.8c-6.3-1.5-11.6-5-16.9-8.5
	c-13.6-9-27.1-18.1-40.7-27.1c-13.8-8.6-27.1-17.8-41-26.2c-1.9-1.1-4.8-1.8-4.5-5.1c4.8-0.6,9.8,0.4,14.3-2.5
	c1.6-1.1,3.8,0.1,5.4,1.5s3,3,4.7,4.4c4,3.4,7,3.4,11,0.1c1.7-1.4,3.3-2.8,5.2-3.7c2.6-1,4.7-0.1,6.6,1.7c1.3,1.2,2.5,2.6,4.5,2.5
	c2.6,0.5,4.8-0.7,7.1-1.6c6.9,7.1,14.2,13.9,20.8,21.3c11.2,12.5,23.4,23.9,35.1,36C352,222.5,353.5,223.4,354.1,225.1z"/>
<path style="fill:#92644F;" d="M211.1,284c3.7,0.3,7.4,0.8,11,2.1c1.5,2,0.5,4.2,0.1,6.2c-1.9,10-4.8,19.7-6.5,29.7
	c-0.9,5.2-0.2,5.9,5,5.5c1.7-0.1,3.3-0.7,4.9-0.7c3-0.1,4.4-1.7,5.1-4.5c2.7-10.7,5.2-21.4,0.6-32.3c-0.4-0.9-0.5-1.9,0.1-2.9
	c4.6,1,9.4,0.3,13.8,2c0.5,12.3-3.3,23.9-5.6,35.8c-0.7,3.6-1.7,7.1-2.3,10.7c-0.6,3.7,0.5,6.1,5,5.5c3.4-0.5,6.9-0.9,10.4-1.2
	c2.3-0.2,4.5-0.4,5.6,2.7c0.8,2.3,2.1,4.1,0.2,6.6c-2,2.6-4.4,2-6.7,1.4c-17.9-4.2-34.1,0.6-49.5,9.5c-2.6,1.5-4.2,5-8.1,3.8
	c-0.9-1-0.7-2-0.1-3c0-3.5,2.3-5.3,5-6.8c4-2,8-4,12-6.1c1.1-0.5,2.2-1.3,1.9-2.6c-0.4-1.4-1.9-1.2-3-1.2
	c-5.3,0.2-10.5,1.6-15.7,2.5c-1.5,0.3-3.6,2.7-4.7,0c-0.7-1.7,1.2-3.2,2.4-4.5c0.6-0.6,1.4-0.9,2.1-1.4c3.5-2.8,8-2.3,11.5-3.8
	c-3.6,0.8-7.5,2-11.5,2.6c-8.9,2-15.6,7.7-22.5,13.2c-1.1-1.5,0.7-2.7,0.2-4.3c-1.2-3.5,0.8-5.6,3.9-6.9c3.7-1.6,7.3-3.3,10.8-5.1
	c1.7-0.8,4.6-1.5,3.8-3.8c-0.7-2-3.6-1-5.4-0.7c-4,0.5-7.9,1.4-11.8,2.2c-1.6,0.3-3.2,1-5.5,0c5.2-7.6,13.7-6.6,21.1-9
	c-1.1-0.5-2-0.8-2.8-1.3c-1.1-0.8-3.4-0.8-2.7-2.8c0.8-2.3,3-1.8,4.7-1.4c3.4,0.7,5.3,3.8,8.1,5.6c8.3,5.2,9.2,4.8,11.2-4.7
	c1.3-6.4,2.6-12.7,3.9-19C212.5,295.8,212.4,289.9,211.1,284z"/>
<path style="fill:#B0AD6E;" d="M69,69.2c2.6,7,1.9,14.5,2.9,21.7c0.4,2.9-1.8,4.5-4.5,5.1c-2.4,0.5-4.9,0.7-7.4,1
	c-11.7,0.5-21.3-6.6-32.1-9.3c-4.8-1.2-9.5-2.9-14.2-4.4c-2-0.7-4.6-1.2-2.6-4.3c7.5-6.8,16.5-9.6,26.4-10.3c1.7-0.1,3.3,0,5,0
	c1.6-0.1,3.7,0.5,4.7-0.9c1.3-1.8-0.8-2.9-1.7-4.2c-1.5-2.1-1.4-4.3-1-6.7c0.4-2.3,0.4-4.6,0.4-7c0.7-2.3,2.4-3.8,4.4-4.9
	c4.5-0.9,8.2,1.4,9,5.8c0.3,1.3,0.2,2.6,0,3.9c-1,6.8-1,6.8,5.8,9.5C66.3,65.2,68.4,66.4,69,69.2z M44.8,49.9c2.4,2,1.7,4.8,1,6.9
	c-1.2,3.5-0.2,5.7,2.3,7.8c1.1,1,2.4,2.1,1.6,3.8c-0.6,1.4-2,1.7-3.4,1.6c-12.9-1.3-24.4,2.7-35.3,9c2.9-7.6,9.5-11.6,15.5-16.3
	C32.5,58.1,40,55.9,44.8,49.9z"/>
<path style="fill:#F4BB3A;" d="M367.1,286.3c14.3,7.9,28.7,15.8,43,23.8c0.9,0.5,2.3,0.9,2,2.4c-17.7-7.4-36.2-12.1-55-15.6
	c-0.8-5.3,4.1-5.9,6.9-8.3C365.1,287.9,365.9,286.9,367.1,286.3z"/>
<path style="fill:#F4BB3A;" d="M365.1,289c-2.8,2.5-7.1,3.5-8,7.9c-2.8,0.6-5.3-0.8-8-1.1c-2.5-1.5-0.9-3.2-0.1-4.6
	c1.1-2,2.1-3.8,0.8-6.1c0.1-2.9,2.2-4.3,4.3-5.8c1.4,0.8,2.9,1.7,4.3,2.5c-0.1,0.7-0.4,1.2-0.8,1.8c-2.3,3.4-2.1,3.7,1.9,4.2
	C361.5,287.9,363.6,287.3,365.1,289z"/>
<path style="fill:#F4BB3A;" d="M350.1,285c3.6,1.4,1.6,3.6,0.6,5.5c-0.8,1.7-2.9,2.9-1.7,5.3c-3.8-0.4-7.7-0.4-11.3-1.7
	c3.4-1.6,5.5-4.9,8.4-7.1C347.1,285.6,348.2,284.4,350.1,285z"/>
<path style="fill:#E2D7D2;" d="M194.1,339.8c5.4-2.3,10.8-4.1,16.9-2.8c-5.6,1.3-11.3,2.6-16.9,3.9
	C194.1,340.6,194.1,340.2,194.1,339.8z"/>
<path style="fill:#212120;" d="M194.1,360.9c0,1,0.1,2,0.1,3c-0.8,0.8-1.3,2-2.9,1.7C191.4,363.6,192.1,361.8,194.1,360.9z"/>
<path style="fill:#FDFDFD;" d="M231.4,287.1c5.1,9.6,4.3,19.6,1.9,29.7c-2.8,11.7-2.8,11.7-14.8,12.3c-5.5,0.3-5.7,0.1-4.5-5.4
	c2.7-12.5,5.4-25,8.1-37.5C225.2,286.4,228.3,286.7,231.4,287.1z"/>
<path style="fill:#EFB01D;" d="M110,175c0-0.6,0.1-1.2,0.1-1.9c8.4-7.5,14.4-16.8,20.7-25.9c5.2-7.5,10.5-14.8,16.4-21.8
	c2-2.4,2.1-2.4,3.9-1.3c-2.5,7.2-2.6,14.5-1,21.9c-2.2,0.9-3.9,2.4-5.6,4c-8.2,8.2-16.4,16.4-24.5,24.6
	C114.9,179.7,114.9,179.7,110,175z"/>
<path style="fill:#F4BB3A;" d="M337.7,294.1c-13.3-0.8-26.7-1.7-40-2.5c-10.4-0.6-20.8-1.4-31.2-1.5c-7.1-0.1-14.1-1.8-21.3-1.1
	c-4.7,1.3-9.4-0.3-14-0.6c-3.1-0.1-6-1-9-1.3c-3.7-1.1-7.8-0.5-11-3.2c-19.3-4.5-37.3-12.7-55.4-20.5c-21.7-9.4-37.8-24.7-49.1-45.3
	c-4.9-9-9.7-18-14.5-27c-0.2-0.5-0.4-1.1,0-1.4c5.8-5.3,11.3-11,17.9-15.3c5.7,2.9,5.7,2.9,10.5-1.9c7.8-7.8,15.5-15.6,23.3-23.3
	c1.9-1.8,3.6-4,6.7-3.7c1.3,0.6,1.5,1.8,1.3,3.1c-1.6,3.2-4.5,5.3-6.9,7.8c-7.4,7.5-14.8,14.9-22.2,22.3c-0.8,0.8-1.6,1.7-2.4,2.5
	c-2.1,2.2-1.3,4.2,0.5,6.1c2.1,2.3,3.7,1.2,5.4-0.5c8.3-8.4,16.7-16.7,25.1-25.1c1.5-1.5,2.8-3.3,5-4c2.2,0.6,3.1,2.1,3.2,4.3
	c-9.8,9.7-19.5,19.4-29.2,29.2c-1.3,1.3-3.3,2.5-2.4,5c1.3,4.1,4.2,4.8,7.4,1.6c7.8-7.7,15.5-15.5,23.3-23.2
	c2.1-2.1,4.2-4.3,6.8-5.9c2.1,0,3.1,1.2,3.3,3.1c-0.6,2-2.3,3.2-3.7,4.6c-8.5,8.5-16.9,17-25.4,25.4c-2.2,2.2-3.2,4.1-0.5,6.7
	c2.6,2.5,4.4,1.1,6.3-0.8c10-10,20-20,30-30.1c2.2-0.1,3.8,0.7,4.3,3c-0.5,2.1-2.2,3.3-3.6,4.7c-8.8,8.8-17.6,17.6-26.4,26.5
	c-3.1,3.1-2.9,5.2,0.2,7.2c2.8,1.8,4.3-0.1,5.9-1.8c9-8.9,17.9-17.9,26.8-26.8c1.5-1.5,2.8-3.3,4.9-4.1c1.7-0.2,2.8,0.6,3.3,2.2
	c0,2.7-2.1,4-3.7,5.7c-8.7,8.7-17.4,17.4-26.1,26.2c-1.8,1.8-4.5,3.6-1.3,6.5c2.7,2.5,4.9,1.7,7.2-0.8c9.2-9.4,18.5-18.6,27.9-27.9
	c1.4-1.4,2.6-3,4.6-3.7c2.2,0.1,3.9,0.8,4.2,3.3c-9.8,9.9-19.8,19.6-29.4,29.6c-1.7,1.8-6.2,3.1-3.2,6.9c2.5,3.3,5,2.8,9.4-1.6
	c8.8-8.8,17.6-17.6,26.4-26.4c1.4-1.4,2.6-3,4.6-3.8c1.6-0.1,2.9,0.4,3.4,2.1c-0.3,2.7-2.3,4.3-4,6.1c-8.4,8.5-17,16.9-25.3,25.4
	c-1.4,1.4-4.4,2.8-1.8,5.6c2.4,2.5,5.1,2.6,7.8-0.1c10.7-10.7,21.4-21.3,32.1-32.1c2.2-0.1,3.8,0.7,4.3,3c-0.5,2.1-2.2,3.3-3.6,4.7
	c-8.7,8.7-17.4,17.4-26,26.1c-1.3,1.3-3.8,2.7-1.5,4.8c2,1.9,4.5,3.1,7.2,0.9c1.8-1.4,3.3-3.2,5-4.8c9.4-8.9,17.8-18.8,27.8-27
	c1.9-0.2,3.4,0.3,4.1,2.3c-1.4,2.9-3.8,5-6,7.2c-7.5,7.5-15,15-22.5,22.6c-1.2,1.3-4,2.6-1.9,4.8c2,2,4.7,3.3,7.6,1
	c1-0.8,1.9-1.8,2.9-2.7c8.1-8.1,16.2-16.2,24.3-24.3c1.4-1.4,2.6-3,4.6-3.8c1.9-0.2,3.4,0.3,4.1,2.3c-3,5.3-7.9,8.9-12,13.2
	c-4.8,5-9.9,9.8-14.7,14.9c-1.3,1.3-4.6,2.6-2.3,5c1.9,2,5,2.7,7.8,0.8c1.2-0.8,2.2-2,3.3-3c8.9-8.9,17.9-17.8,26.7-26.8
	c1.7-0.2,2.8,0.5,3.6,2c0.6,2.8-1.4,4.3-3,5.9c-7,7.1-14.1,14.1-21.1,21.2c-1.3,1.3-4.1,2.7-2.5,4.6c1.8,2.2,4.9,2.7,7.8,1.3
	c1.3-0.6,2.3-1.9,3.3-3c8.3-8.3,16.7-16.7,25-25c2.4,0,4.4,0.6,5.2,3.1c-7.5,7.9-15.5,15.4-23.1,23.3c-1.3,1.4-4.6,2.6-2.7,4.9
	c1.6,2,4.8,2.2,7.5,1.2c1.6-0.6,2.7-1.9,3.8-3.1c6.2-6.2,12.4-12.5,18.7-18.7c1.4-1.4,2.6-3,4.6-3.8c1.6,0,2.9,0.4,3.3,2.2
	c-0.8,3-3.1,5.1-5.1,7.2c-5.3,5.3-10.5,10.6-15.9,15.9c-2.4,2.3-1.9,3.4,1.2,4.2c3.4,0.8,6,0.4,8.6-2.2c5.4-5.6,11-11.1,16.5-16.6
	c1.4-1.4,2.6-3,4.6-3.7c1.7-0.2,2.8,0.6,3.3,2.2c0,2.5-1.9,3.8-3.3,5.3c-4.5,4.6-9.2,9.2-13.7,13.8c-0.9,0.9-2.4,1.8-1.7,3.3
	c0.6,1.4,2.2,1.3,3.5,1.6c3.3,0.6,5.7-0.8,8-3.1c5.6-5.4,10.5-11.6,16.9-16.2c1.9-0.2,3.4,0.3,4.1,2.3c-3.6,5.9-9.2,10-13.8,15
	c-0.9,1.1-2.8,1.9-2,3.6c0.7,1.5,2.6,1.2,4.1,1.4c3.1,0.3,5.4-0.9,7.6-3c4.3-4.1,8-9,13-12.3c1.9-0.2,3.4,0.2,4.1,2.2
	c-2.5,4.6-6.7,7.7-10.2,11.4c-2.2,2.3-2.1,3.3,1.3,4c3.6,0.7,6.4,0.3,8.9-2.5c2.8-3,5.6-6,8.7-8.8c2.3-0.1,3.8,0.7,4.4,3
	c-1.1,3.1-3.9,4.8-6,7c-1.8,1.9-1.7,2.9,1,3.6c2,0.5,4.4-0.1,5.9,1.8C344.3,290.5,342.6,294.2,337.7,294.1z M96.2,123.9
	c-3.8,4.3-3,10.8,1.9,13c2.6,1.1,1,2,0.5,3.3c-2.5,5.8,0.3,11.7,6.3,12.7c-2.2,3.4-2.1,6.8-0.3,10.3c0.4,0.7,0.9,2,1.3,2
	c6.2,0.2,3.8,4.8,4.1,8c0.5,0.7,0.6,1.3-0.1,1.9c-6,5.4-12,10.8-18,16.2c-3,0.9-3.1-1.8-3.9-3.3c-7.9-14.5-10.7-30.5-12.9-46.6
	c-1.7-12-3.8-23.8-8.4-35.1c4.3,1.2,7.5,4.2,10.7,6.9C83.2,117.7,89.1,121.8,96.2,123.9z M171.2,135.8c-4.7-1.4-8.6-4.5-13.1-6.6
	c-1.3-1.1-2.6-2.3-3.9-3.4c5.2-10.4,18.3-19,28.2-17.6c6.9,0.9,14,0.4,20.7,2.9c8.5,2.3,15.4,7.7,22.6,12.3
	c8.7,5.5,17.2,11.2,26.7,15.5c3.8,1.7,8.1,2,11.7,4.1c1,0.3,2,0.7,3,1c7,7.7,14,15.4,21,23.1c-2.4,0.3-4.1-1.1-5.4-2.8
	c-1.5-1.9-3.2-2.7-5.6-2.1c-5.8-2.8-10.9-7-16.4-10.3c-19.6-11.5-40.1-20.7-62.4-25.8c-4.9-1.1-9.9-1-14.9-0.6
	c-4.6,0.4-8.2,2.6-10.1,7C172.8,133.7,172.4,135,171.2,135.8z"/>
<path style="fill:#34312F;" d="M159.1,162c-1-1.3-2-2.6-3-3.9c-3-2.3-4.4-5.5-4.8-9.2c0-1.1-0.1-2.2-1-3c-4.1-7.1-3.1-14.3,0-21.4
	c1.6-1.7,3-0.4,4.4,0.3c1.7,1.1,3.3,2.4,4.3,4.3c0.4,1.1,0.6,2.3,0.3,3.4c-2.1,9.4,2,16.9,7.7,23.7c5,6,11.4,10.7,16.1,16.9
	c0,0,0.1,0.6,0.4,0c1.5-3.7,3.4-0.8,4.8-0.1c12.9,5.9,26.3,10,39.9,13.9c3.6,1,6.5,3.1,9.5,5.1c2,1.6,4.4,2.7,6.3,4.4
	c38.3,23.8,76.6,47.6,115,71.3c1.5,1.2,3.4,1.8,4.8,3.2c-1.3-1.4-3.2-1.9-4.6-3c-37.2-23.1-74.4-46.2-111.7-69.3
	c-1.3-0.8-2.7-1.3-3.4-2.8c2.4-3.2,4.9-0.7,7,0.3c11.2,5.1,21.8,11.5,32.2,18c13,8.1,25.8,16.5,40.2,22c3.1,1.2,6.2,2.4,9.5,2.8
	c6.3,2.2,10.6,7.3,15.8,11.1c13.1,9.6,25.8,19.7,38.6,29.6c-14.2-11-28.3-22.1-42.7-32.9c-1.2-0.9-3.2-1.5-2.4-3.8
	c4.4-2,8.7-2.2,12.7,0.8c31.5,26.3,65.2,49.6,101.6,68.7c-36-19.1-69.5-42-100.7-68.1c-0.8-0.6-1.5-1.6-1.2-2.5
	c1.7-5.2-0.6-9-4-12.4c-0.7-0.7-1.1-1.7-0.8-2.8c1.1-1.7,2.3-2.8,4.4-1.5c16.2,16.1,34.3,29.9,53,42.9c29.3,20.4,60,38.7,90.8,56.8
	c1.3,0.8,3.8,1.2,3.6,2.9c-0.3,2.2-2.6,3.5-4.8,3.9c-5.1,1-9.9-0.6-14.6-2.2c-19.9-7-39.1-15.9-58.6-23.9c-1.5-0.6-3-1.2-5.9-2.3
	c5.7,7.1,10.6,13.2,16.3,20.4c-8.3-3.8-14.5-8.6-21.9-11c-9.3-5.7-19.1-10.3-28.5-15.9c-5.6-3.3-11.4-6-16.9-9.4
	c-2.8-1.7-5.8-3-8.6-4.5c-1.5-1-3-2.1-4.6-2.8c-2.6-1.8-6.2-2.1-8-5.2c-1.5-0.8-2.9-1.7-4.4-2.5c-3.5-0.2-6.5-1.7-8.7-4.4
	c-1.4-0.7-2.7-1.5-4.1-2.2c-3.8-0.1-6.5-2.3-9-4.7c-1.1-1.1-2.5-1.8-4-2.1c-4-0.5-7.6-1.7-9.9-5.2c-0.9-0.8-1.9-1.5-3.2-1.5
	c-3.8-0.7-7.2-2.3-9.9-5.1c-1.1-0.6-2.1-1.2-3.2-1.7c-3.5-0.2-6.4-1.5-8.6-4.4c-1.6-1.3-3.4-2.2-5.3-2.8c-4-0.3-7.1-2.6-10-5.1
	c-1-0.6-2-1.1-3-1.7c-3.6-0.1-6.4-1.6-8.7-4.4c-1.4-0.7-2.7-1.5-4.1-2.2c-3.8-0.1-6.4-2.3-9-4.8c-1.3-0.8-2.7-1.5-4-2.3
	c-3.5-0.6-6.6-1.9-8.8-4.8c-1.5-0.9-2.9-1.8-4.4-2.7c-3.7-0.5-6.6-2.3-8.8-5.2c-0.8-1-1.9-1.6-3.2-1.9c-3.3-0.6-5.9-2.3-7.7-5.1
	c-1.2-1.3-2.6-2.2-4.3-2.8c-3.7-0.9-6.8-2.9-9-6.1c-0.7-1.1-1.7-1.8-2.9-2.2c-3.5-0.7-6.1-2.8-8-5.8c-1.1-1.4-2.5-2.3-4.1-3
	c-2.9-1.2-5.8-2.6-7-5.9c-1-1-2-2-3.1-3C162,167.6,159.7,165.5,159.1,162z M66.9,106.1c-3.8-1.9-4.5-6.1-6.9-9.1
	c1.6-1.7,3.9-1.6,5.9-2.2c3.4-1,4.7-3,4.4-6.6c-0.5-6.4-1.7-12.7-1.9-19.2c3.8-3.5,8-1.6,11.5-0.1c4.2,1.9,8,2.3,12.5,1.8
	c5.1-0.6,10.3,0,15.4-0.2c14-0.5,25.5-5.5,33.1-17.9c2.7-5,4.8-10.2,6.4-15.7c0.4-1.5,0.2-3.9,2.8-4c8.3,4.8,15,11.5,21,18.8
	c0.9,1.2,0.9,2.4,0.5,3.8c-7.4,24.9-19.4,46.8-41.8,61.4c-10,6.5-21.1,9.7-33.3,7.9c-6-1.3-11.2-4.2-15.9-8
	C76.1,113.2,71.2,110,66.9,106.1z M150.1,33c-2.6,6.7-4,13.9-7.9,20c-3.1-1.7-6.1-3.3-8.9-5.4c-3.4-2.5-6.1-6.9-10.8-6.1
	c-5.9,1.1-11.5-1.5-17.6,0c-4.7,1.2-10.8,0.3-15.2-3.7c-1.8-1.7-4.1-1.1-6.2-1.5c-2-0.4-5,0.6-5.5-2.1c-0.5-2.6,3-2,4.1-3.6
	c-3.1-2.1-6-1-9.1,0.4c-4.4,1.9-7.8,5.8-12.7,6.6c-0.8-0.2-1.3-0.6-1.1-1.5c12.5-9.9,26.7-15,42.5-16C119.2,19,135.4,22.9,150.1,33z
	 M59.1,36c0.4,0.3,0.8,0.7,1.1,1c0.3,0.8-0.3,1.9,0.4,2.4c3.2,2.3,2.6,5.3,2.2,8.5C62,54.1,65.6,58.6,71,58.5c2.3,0,4.1-1.1,5.7-2.6
	c3.8-3.5,8.3-5.5,13.2-6.7c2.9-0.7,6-1.2,8.7,0.6c6.9,4.4,14.5,4.1,22.2,3.5c1.2-0.1,2.3-0.4,3.4-0.6c4-0.6,8.4-0.7,9.6-6
	c2.4,2.5,6.7,2.5,8.1,6.2c-7,12.8-18.6,17.8-32.3,18.9c-7.6,0.6-15.3-0.8-22.9,1c-1.8,0.4-3.4-0.3-5-1.5c-3.9-2.8-8.4-3.1-13-2.2
	c-2.2-2.6-5-4.2-8.4-4.7c-4.6-0.7-5.9-3.1-4.3-7.7c2.5-7.1,0.2-10.5-7.1-11.9C51.9,41.3,55.3,38.4,59.1,36z M282,192
	c13.4,8.7,26.7,17.4,40.1,26.1c3.2,2.1,6.4,4.1,9.8,6c5.7,3.3,11.7,4.8,18.1,2.6c1.2,1.4,2.3,2.8,3.5,4.1c2.4,2.7,3.8,5.8,2.4,9.4
	c-0.5,1.4-0.6,2.5,0.3,3.7c0,0.7-0.6,0.8-1,1.1c-4.1-2.8-8.5-2.5-13-1.1c-3.5,0.1-5.3-3-7.7-4.7c-7.8-5.8-15.7-11.4-24.5-17.9
	c7.8,5.9,15,10.6,21.7,16c0.9,0.7,2.1,1.3,1.5,2.7c-10.8-1.4-20-6.8-29.3-11.9c-17.7-9.8-34-21.8-52.4-30.4
	c-2.3-1.1-4.4-2.8-7.3-1.8c0,0.7-0.6,0.8-1,1.1c-2-1.3-4-2.6-6.1-3.9c-3.1-3.8-8-5-11.5-8.1c0.4,1.3,2.9,1,2.5,3
	c-3.6,0.3-6.8-1.4-10.1-2.6c-11.5-4-23.5-6.8-35-13.8c1.3,1.9,1.9,2.8,2.5,3.7c-0.4,0.1-0.8,0.4-0.9,0.3c-6.7-6.6-13.8-13-20.1-20
	c-6.7-7.5-8.8-16.5-6.5-26.4c5.4,0.1,9.1,3.7,13.3,6.3c0.3,0.4,0.5,0.9,0.6,1.4c-2.6,17.2,11,24.7,24.6,27.1
	c9.9,1.8,19.5,4.4,28.5,8.7c10.5,5,21.1,9.8,31.7,14.7c5.7,2.7,12.3,2.1,18.5,3.2C277.5,191,279.9,191,282,192z M235.2,208
	c4.8,0.6,8.5,3.6,12.6,5.6c40.8,19.9,81.4,40.2,120.2,63.9c1.9,1.2,3.8,2.4,5.1,4.6c-6.7-3.9-13.3-7.7-20-11.6
	c-32.1-18.6-65.3-35.1-98.5-51.7c-6.6-3.3-13.7-5.9-19.6-10.7L235.2,208z M355.2,245c0.3-0.4,0.7-0.7,1-1.1
	c32.3,25.8,66.1,49.4,102.3,69.6C420.9,295.3,386.8,271.9,355.2,245z M243.2,197c0.3-0.4,0.7-0.7,1-1.1
	c36.8,22.8,73.6,45.6,110.4,68.5c1.6,1,3.7,1.7,4.6,3.6l-0.1,0.1c-7.9-3.2-14.7-8.3-21.9-12.7c-30.6-18.8-61.1-37.7-91.6-56.6
	C244.8,198.1,244,197.5,243.2,197z M333.1,240c-7.4-7.4-16.8-12.3-24.3-19.6c11.6,7.1,22.6,15.1,33.4,23.5
	c16.2,11.9,32,24.4,47.7,37c-0.3,0.3-0.5,0.7-0.8,1c-9.2-7-18.3-14-27.5-20.9C352.1,253.9,343.1,246.3,333.1,240z M441.3,296.6
	c-23.9-12.4-46-27.6-66.5-44.9C396.7,267,418.9,282,441.3,296.6z M228.1,188c-1.8-1.4-3.6-2.8-5.6-4.3c4.6,0.8,13.2,6.4,14.6,9.4
	C234.1,191.4,231.1,189.7,228.1,188z M211.7,194.1c-4.4-1-7.8-3.5-10.5-7C204.6,189.4,208.2,191.8,211.7,194.1z M235.1,208.1
	c-3.1-0.9-5.8-2.3-8.1-4.6C229.8,204.7,233.1,205.2,235.1,208.1C235.2,208,235.1,208.1,235.1,208.1z M379.9,285.5
	c2.7,0.5,4.7,2.1,6.5,4C383.6,289,381.6,287.5,379.9,285.5z M359.2,267.9c3,0.5,5.1,2.7,7.3,4.5c-3.1-0.4-5.4-2.1-7.4-4.3
	L359.2,267.9z M171.1,136.1c21.2,9.7,43.2,17.2,64.8,25.8c14.3,9.3,28.7,18.5,43,27.8c1.1,0.7,2.1,1.5,3.2,2.3
	c-7.7,0.9-15.1-1.4-22.6-2.2c-4.8-0.5-9.4-4-14-6.2c-9.9-4.7-19.7-9.7-30-13.5c-6.8-2.5-13.9-3.6-21-4.9c-5.3-1-11.1-3.2-15.6-7.1
	c-4.6-4-7.9-8.6-8.5-14.7C170.1,141.1,170.8,138.6,171.1,136.1z"/>
<path style="fill:#F4F1EF;" d="M216.5,336.2c4-0.7,6.8,0.1,9.7,0.8c1.5,0.3,3.2,0.6,2.4,2.8c-0.7,2-2.3,2.4-4,1.5
	C222.1,339.8,219.7,338.2,216.5,336.2z"/>
<path style="fill:#2A1E19;" d="M205.4,331.4c1.3-0.1,1.6,0.5,1.5,1.5c-0.1,1.1-0.7,1.8-1.9,1.8c-0.8,0-1.7-0.5-1.8-1.3
	C203.1,331.7,204.6,331.9,205.4,331.4z"/>
<path style="fill:#EFB01D;" d="M96.2,123.9c24.9,2,41.7-11.5,55.8-29.8c9.2-12,14.4-26.1,19.1-40.3c0.2-0.6,0-1.3,0-2
	c4.4,5.6,9.1,11,13.2,16.9c12.4,18.1,29.2,31.2,47.4,42.8c14.4,9.2,28.1,19.6,40.5,31.4c-0.3,3.1-2.8,2.1-4.6,2.4
	c-1.4-0.1-2.7-0.6-3.8-1.4c-14.9-14.2-31.5-25.6-51.8-30.6c-2.9-0.7-5.9-1.1-8.9-1c-6.9-2.4-14.2-1.7-21.4-2.7
	c-5.8-0.8-11.3,1.1-15.9,5.5c-3.8,3.7-7.4,7.6-11.6,10.8c-1-0.6-2-1.1-3-1.7c-4.6,3.1-7.7,7.6-10.9,11.9
	c-7.9,10.8-15.1,22.1-23.8,32.4c-1.7,2-2.9,5.5-6.8,4.3c-0.7-2.8-0.7-6-4.4-7c-0.4-0.1-0.6-0.8-1-1.1c-3.7-3.2,0.1-8.8-3.9-12
	c-3.9-3.2-4.2-7.6-3.2-12.3c0.4-1.9-1.1-2.6-2-3.7c-2.8-3.2-2.7-7-1.8-10.8C93.7,124.6,94.5,123.4,96.2,123.9z M295,164
	c-1.5,2.9-4,3.4-6.9,3.1c-8.1-5.7-13.6-14-20.6-20.8c-0.6-0.6-0.9-1.4-0.4-2.3c1.7-0.3,3.7,0.7,5.1-1.1
	C280.4,149.3,287.4,157,295,164z M203.4,197.9c2.8,1.3,5.4,3.1,7.7,5.1c-11.2,11.4-22.3,22.8-33.7,34.1c-3.5,3.4-6-0.7-8.4-2.2
	c-2.9-1.9-0.6-3.6,0.9-5.1c9.8-9.8,19.5-19.5,29.3-29.3C200.4,199.2,201.5,197.9,203.4,197.9z M190.1,188.9c3,2,6,4.1,9,6.1
	c-11.2,11.3-22.3,22.7-33.6,34c-3.3,3.3-5.3-0.3-7.5-1.8c-2.5-1.7-2.1-3.7,0-5.7c9.6-9.5,19.1-19,28.6-28.5
	C187.8,191.7,189,190.3,190.1,188.9z M214.3,204.9c3.2,1.3,6,3.2,8.8,5.2c0,1.7-1.3,2.6-2.3,3.7c-9.9,9.9-19.7,19.7-29.6,29.6
	c-2.6,2.6-9.3,1.3-10.7-2.1c-0.9-2,0.9-3,2-4.1c9-9.1,18.1-18.1,27.1-27.1C211.2,208.4,212.7,206.6,214.3,204.9z M179.3,180.9
	c2.9,1.6,5.5,3.6,8,5.8c-10.4,11.9-22.1,22.5-33.2,33.7c-2.9,2.9-4.7-0.1-6.6-1.7c-1.9-1.6-3.4-3.3-0.9-5.8
	C157.6,202.4,167.8,191.1,179.3,180.9z M227.5,212.8c2.9,1.6,5.9,3.2,8.8,4.8c-7.7,9.2-16.7,17-25,25.6c-2.2,2.3-4.5,4.4-6.7,6.7
	c-1.8,2-3.7,2.4-6.2,1.2c-5.9-2.7-6.3-3.9-1.6-8.5C207.1,232.8,216.7,222.1,227.5,212.8z M151.2,149c1.6,3.1,3.2,6.1,4.8,9.2
	c-10.3,10.4-20.6,20.8-30.8,31.3c-2.5,2.6-3.8,0.5-5.2-1c-2-2.2-4.5-4.4-1.2-7.6c5.8-5.7,11.5-11.6,17.3-17.3
	C141.2,158.6,145.7,153.2,151.2,149z M240.3,219.9c3.2,1.1,6.1,2.9,9,4.8c-9.9,11.4-21.1,21.5-31.7,32.3c-1.7,1.7-8.4,0-9.8-2.4
	c-1.7-2.8,1.2-3.8,2.5-5.2c9.3-9.7,18.8-19.2,28.2-28.8C238.9,220.2,239.7,220.1,240.3,219.9z M168.2,172c2.3,2,4.6,4,7,5.9
	c0,1.9-1.4,2.9-2.5,4.1c-9.2,9.2-18.5,18.3-27.5,27.6c-2.9,3-4.7,2.2-7.3-0.3c-2.6-2.6-3.3-4.4-0.3-7.3
	C147.9,192.2,157.5,181.5,168.2,172z M159.1,162c2,2.3,4.1,4.6,6.1,6.9c-1.7,3.6-5.1,5.5-7.7,8.2c-7.4,7.6-15,15.1-22.5,22.6
	c-1.7,1.8-3.9,3.7-5.6,0.7c-1.4-2.4-6.4-4.1-1.9-8.4c9.5-9,18.6-18.5,27.9-27.8C156.4,163.2,157.4,162,159.1,162z M253.4,226.9
	c2.9,1.5,5.8,2.9,8.7,4.4c-0.1,2.1-1.8,3.1-3.1,4.3c-8,8-16.2,15.9-23.9,24.1c-3.2,3.4-6.2,3.9-10.2,2.2c-4.2-1.8-4.4-2.7-1-6.2
	c8.1-8.1,16.2-16.3,24.4-24.3C249.9,229.8,250.7,227.2,253.4,226.9z M265.1,233c3.6,1.2,6.8,3,10,5.1c0,1-0.5,1.9-1.2,2.6
	c-8.6,8.6-17.1,17.2-25.7,25.7c-2,1.9-9.9,0.9-11.3-1.3c-1.3-2.1,0.7-3,1.8-4c7.8-7.9,15.7-15.8,23.6-23.6
	C263.5,236.1,265.1,235.1,265.1,233z M280.5,240.8c2.9,1.5,5.7,2.9,8.6,4.4c-8.3,8.4-16.6,16.9-24.9,25.2c-2.3,2.3-9.2,1.8-11.6-0.5
	c-1.1-1.1-1-1.9,0-2.9c8.5-8.4,17-16.9,25.5-25.3C278.7,241.1,279.7,241.1,280.5,240.8z M292.2,246.9c3.5,1.2,6.8,3,9.9,5.1
	c-7.3,7.5-14.6,15-22,22.4c-2.1,2.1-9.4,1.6-11.5-0.5c-1.8-1.7-0.3-2.6,0.7-3.6c4.1-4.1,8.2-8.2,12.3-12.3
	C285.2,254.3,288.7,250.6,292.2,246.9z M305.3,253.6c3.3,1.7,6.6,3.5,9.9,5.2c-5.5,6.9-12.2,12.6-18.4,18.9
	c-2.2,2.2-9.7,1.7-11.7-0.4c-1.7-1.7-0.1-2.7,0.9-3.7c5.2-5.3,10.6-10.6,15.8-15.9C303.1,256.5,304.6,255.4,305.3,253.6z
	 M319.2,260.9c3.3,1.1,6.2,2.9,9,4.7c-4.1,5.7-9.6,10.1-14.4,15c-2,2-9.8,1.8-11.8,0.1c-1.2-1-1-2.1-0.1-3
	C307.8,272.2,312.8,265.9,319.2,260.9z M332.4,267.9c2.9,1.5,5.8,3,8.7,4.4c-2.5,5-6.8,8.5-11,11.8c-3.2,2.5-7.2-0.3-10.8-0.9
	c-1-0.1-1.1-1.6-0.3-2.5C323.4,276.5,327.3,271.5,332.4,267.9z M350.1,285c-1.4,0.6-2.3,2.1-4,2c-3.6,0-8.5,0.6-9.9-2.3
	c-1.1-2.4,3.8-4.6,5.8-7.1c0.9-1.1,2.2-1.9,3.4-2.8c2.9,1.5,5.8,3,8.6,4.5C353.9,282,351,282.8,350.1,285z M365.1,289
	c-1.5,0-2.9,0-4.4,0c-2.6,0-6.1,0.3-6.9-2.1c-0.6-2,2.6-3.7,4.6-5.1c2.9,1.5,5.8,3,8.7,4.5C367,287.6,366.3,288.5,365.1,289z
	 M264.1,143c-8.7,0.1-15.8-4.4-22.9-8.4c-10.1-5.8-19.9-12.3-29.7-18.7c-2.7-1.8-6.4-1.9-8.4-4.8c13.7,0.3,25.7,5.9,37.1,12.8
	C248.9,129.2,257.6,134.8,264.1,143z M171.2,135.8c1.3-7.2,5.2-11.1,12.1-11.7c7.7-0.7,15.2,0.4,22.6,2.4
	c17.1,4.8,33.4,11.8,48.9,20.5c7.9,4.4,16.2,8.4,22.4,15.2c-0.5,0.5-0.9,1-1.4,1.4c-10,7.8-10.1,7.9-19.4-1.1
	c-2.8-2.8-5.4-3.4-8.6-0.7c-3.8,3.2-7.9,0.3-11.9,0.2c-1.3,1.1-2.5,0.4-3.7-0.1c-18.8-7.5-38-13.8-56.3-22.4
	c-1.8-0.9-3.6-1.6-4.7-3.4L171.2,135.8z M134,46.8c-0.1,0.1-0.4,0.3-0.3,0.3c4,5.1-0.8,5.2-3.6,5.9c-8.6,2.3-17.4,2.5-26.2,0.8
	c-1-0.2-2-0.4-2.9-0.8c-8.5-4-16.8-2.9-23.1,3.9c-3.7,4-7.4,3.9-11.6,2c-4.1-1.9-6.1-6.7-4.8-11.4c1-3.8,1.7-7-3.9-6.8
	c-0.1-2.1,2.1-2.2,2.6-3.6c3.6-2.1,7.3-3.9,10.6-6.5c4-3.1,8.4-2,12.7-2.3c2.4-0.1,1.4,1.5,0.7,2.7c-1.3,2.1-4,1.8-6.5,3.3
	c2.2,1.3,4,0.9,5.7,1.1c3.1,0.3,7.3-1.8,8.3,3.5c0,0.1,0.3,0.3,0.4,0.3c5.2-2.2,9.7,4.1,15,1c2.7-1.6,5.6-2,8.3,0.4
	c1,0.9,2.1,0.5,3.3,0.3c4.3-0.7,9-2.6,11.5,3.2C130.9,45.7,134.3,43.6,134,46.8z"/>
<path style="fill:#030303;" d="M89.5,69c-6.2,0-9.7-2.9-9.4-7.6c0.3-4.5,6.9-8.9,12.3-8.3c4.5,0.5,7.4,4.6,6.7,9.2
	C98.4,66.6,95,69,89.5,69z"/>
<path style="fill:#EEEEEE;" d="M89.7,58.7c-0.7,2-1.8,2.7-3.5,2.6c-1.2-0.1-2.2-0.7-2.1-2.2c0.2-1.5,1.2-2.2,2.7-2.2
	C88.2,57,89.1,57.7,89.7,58.7z"/>
</svg>
