<?xml version="1.0" encoding="utf-8"?>
<!-- Generator: Adobe Illustrator 23.0.3, SVG Export Plug-In . SVG Version: 6.00 Build 0)  -->
<svg version="1.0" id="Layer_1" xmlns="http://www.w3.org/2000/svg" xmlns:xlink="http://www.w3.org/1999/xlink" x="0px" y="0px"
	 viewBox="0 0 536.2 450.4" style="enable-background:new 0 0 536.2 450.4;" xml:space="preserve">
<path style="fill:#F1E6A4;" d="M196.9,316.3c15.6-7.9,30.9-16.3,44.8-27.1c23.5-18.5,42.6-40.6,57.5-66.6
	c10.9-19,18.4-39.2,24.1-60.2c3.4-12.4,6.1-25,9.3-37.4c0.5-2,1.6-3.9,2.4-5.8c2.7,2,1.3,4.7,1.1,7.1c-1,12.3,0.5,24.3,4.9,35.9
	c5.2,13.8,15,22.9,28.4,28.5c-6.9,22.1-17,42.6-31.9,60.5c-14.8,17.9-32.1,32.6-53.5,42.6c-16.2,7.5-32.7,13.4-50.2,17.2
	c-9.4,2-18.6,3.9-28.2,3.8C202.6,314.8,200.2,318,196.9,316.3z"/>
<path style="fill:#F33B65;" d="M369.3,190.7c-11.3-0.6-18.3-7.8-24.1-16.3c-10.4-15.2-12.2-32.5-10.6-50.3c0.1-1.6,0.2-3.3,0.3-4.9
	c1.3-7.8,5.2-14.6,7.8-21.9c0.6-1.6,2.1-1.8,3.4-2.1c10.4-2.4,14.2-7.4,13.5-17.8c-0.1-1.7-0.3-3.3,0.6-4.8
	c9-8.6,19.8-13.8,31.4-17.6c3.3-1.1,6.4-0.5,9.6,0.3c6.5,6.3,7.2,13.6,2,21.8c-9.6,17.8-14.5,37.3-19.3,56.7
	C379,152.8,375.1,172,369.3,190.7z"/>
<path style="fill:#93C701;" d="M179.4,230.2c8.9,3.4,18.4,3.4,27.5,2.3c26.2-3.1,50.8-10.5,65.7-34.5c13.1-21.1,12.2-35.8-1.8-56.2
	c-7-10.3-17.6-16.2-27.2-23.3c5.1-6,6.1-14,9.6-20.8c5.1-10.2,10.4-20.3,17.1-29.5c0.8-0.3,1.6-0.3,2.3,0
	c12.5,5.9,26.2,5.1,39.4,6.8c1.4,0.2,2.8,0,4.2,0c13.3,0,13.3,0,16.6,11.8c2,4.8,7.3,6.3,10.2,10.3c0.8,8.3-5.3,14.6-6.4,22.4
	c-5.1,12.2-7.7,25.2-10.5,38.1c-3.1,14.1-7.6,27.6-12.9,41c-10.7,27.1-26.8,50.9-47.1,71.4c-19.8,20-41.6,37.5-69.1,46.3
	c-0.6,1.3-1.4,2.4-2.8,2.8c-9.6,0.7-19.1,1-28.3-3c-11.8-5.2-18.7-13.7-19.7-26.7c10.6-18.3,21.2-36.6,32-54.7
	C179.1,233.1,179.3,231.8,179.4,230.2z M400.2,54.6l0.2,0.4c-14.8,2.3-27.4,9.4-39.2,18.3c-2.8,0.5-4.1-1.8-6-3.1
	c-5.8-3.9-11.5-4.6-17.3,0.1c-2.1,1.7-4.2,3.8-7.5,3.2c-2.5-1-3.8-3-3.8-5.4c-0.1-9.8-1.9-19.5-1.7-29.3c0-1.6,0.4-3.2,1.4-4.6
	c5.8-3,12.2-2.1,18.4-2.3c3.9-0.1,7.9,0.3,11.8,1.2C372.8,36.8,388.1,42.6,400.2,54.6z"/>
<path style="fill:#60A802;" d="M179.4,230.2c-11-0.5-21.3-3.2-30.6-9.2s-11.5-16.9-5.2-26.2c0.9-1.4,2.1-2.5,1.5-4.7
	c-10.5,0.5-21.2,1.3-31.7,0c-11.3-1.3-22.7-3.3-32-10.8c-11.9-9.6-10.9-23.9,2.4-31.5c2-1.1,3-3.9,6.1-3.4
	c-12.3-4.5-25.1-6.4-36.4-12.5c-11.5-6.3-22.9-12.8-27.3-26.5c-3.7-11.4,0-19.5,11.4-24.1c1.2-0.5,3-0.2,3.3-2
	c0.3-1.9-1.5-2-2.6-2.8C23.6,65.4,9.5,53.9,3.1,35.8C0.5,28.2-1,20.4,0.8,12.3C3.2,2.1,14.1-3.2,23.1,2.1
	c16,9.5,31.4,19.8,47.4,29.3c26,15.4,52.6,29.7,80.3,41.8c27.1,11.8,54.6,22.8,80.3,37.7c4.2,2.4,8.3,5.1,12.4,7.7
	c1.6-0.1,3.3-0.2,4.8,0.8c15.9,10.2,28.8,22.9,34.1,41.7c3.4,12.2,0,23.7-5.8,34c-12.1,21.6-31.5,32.6-55.6,37
	c-9.6,1.8-19,2.6-28.7,2.7C187.4,234.7,183,233.6,179.4,230.2z M146.1,289.4c2.8,3.4,2.6,8.1,4.6,11.5c6,10.4,16.1,14.9,27.6,16.7
	c5.2,0.8,10.8-1.7,15.7,1.6c-6.8,17.2-17,32.4-27.3,47.6c-14.8,21.9-31.3,42.6-51.7,59.7c-13.3,11.2-28.3,19.6-45.5,23.4
	c-3.2,0.7-6.7,1.3-9-1.8c-2.3-3.1-0.5-6.6,0.8-9.4c15.8-32.2,34.2-63,52.2-94C124.4,326.2,135.3,307.8,146.1,289.4z M270.1,68
	c4.1-6,12.6-16.7,27.1-24.7c11.9-6.6,22.9-8.7,29.7-9.5c-0.1,7.3-0.4,13.1-0.7,17c-0.4,5.5,0.7,11,0.7,16.5c0,0.9,0,3,1.4,4.3
	c1.3,1.2,3.2,1.1,4.2,1c0.2,2.4,0.2,5.3-0.2,8.7c-0.3,2.7-0.9,5-1.5,6.9c-4.3-1.5-2.2-5.2-2.4-7.9c-0.2-2.8-0.4-3.9-3.9-3.7
	c-15.9,0.8-31.7-1-47.4-3.9C273.7,72.3,271.5,71.1,270.1,68z"/>
<path style="fill:#4A1D0C;" d="M403.1,77.1c1.5-7.6,2.4-15.2-2.7-22l-0.2-0.4c25.6-12.5,52.8-18.5,80.9-22.1
	c12.9-1.7,25.8-1.8,38.7-1.9c1.9,0,3.8-0.1,5.6,0.3c4.9,1.1,11,1.4,10.8,8.5c-0.2,6.7-5.6,7.2-10.7,7.4C503.1,48,480.8,51,459,56.2
	C439.6,60.8,420.7,67.2,403.1,77.1z M332.2,88.4c-1.8-5.3-0.9-10.4,0.3-15.6c9-9.4,17.1-11.7,28.7,0.5c0.3,4.6,2,9.2-0.2,13.8
	c-3.6,7.9-9.9,10.7-18.1,10.1C338.2,95.6,334,93.4,332.2,88.4z"/>
</svg>
