<?xml version="1.0" encoding="utf-8"?>
<!-- Generator: Adobe Illustrator 23.0.3, SVG Export Plug-In . SVG Version: 6.00 Build 0)  -->
<svg version="1.0" id="Layer_1" xmlns="http://www.w3.org/2000/svg" xmlns:xlink="http://www.w3.org/1999/xlink" x="0px" y="0px"
	 viewBox="0 0 513.1 513.1" style="enable-background:new 0 0 513.1 513.1;" xml:space="preserve">
<path style="fill:#482000;" d="M251.7,460c-14.5-5.4-28.9-10.8-42.6-17.9c-29.4-15.3-54.3-35.6-69.3-66c-14.4-29.2-15.8-59.7-8.4-91
	c1.1-4.8,4.1-9.9,3.3-14.4c-0.8-4.6-6.9-6.6-10.5-10c-24.3-22.4-40.3-49.7-45.9-82.2C67.5,117,98,55.7,153.2,26.1
	c24.7-13.3,51-19.2,78.7-16.8c65.5,5.5,116.6,53.9,130,113.1c7.1,31.4,3.9,61.9-9.8,91.1c-1.5,3.2-0.6,4.9,1.5,7.2
	c40.9,43.3,67.4,94.1,78.7,152.7c6.6,34,7.1,68.1,1.7,102.4c-0.9,5.9-4.1,8.4-10,7.8c-9.8-1-19.4-2.7-29-5c-3.2-0.8-6.5-1.1-9.9-1.2
	c-25.2-0.5-50.3-1.7-75.5-1.4c-3.9,0.1-5.1,1-4.9,4.9c0.3,5.1,0.2,10.3,0.1,15.5c-0.1,5.3-3.6,8.8-8.2,8.7c-4.5-0.1-7.6-3.5-7.7-8.7
	c-0.1-5.7-0.1-11.3,0-17c0.1-2.6-0.6-3.5-3.3-3.4c-5.3,0.2-10.7,0.2-16,0c-3-0.1-3.7,1-3.6,3.7c0.2,5.5,0.1,11,0.1,16.5
	c-0.1,5.4-3.3,8.9-8,8.8c-4.5,0-7.8-3.4-7.9-8.5c-0.2-5.5-0.2-11,0-16.5c0.1-2.8-0.3-4.2-3.7-4c-5,0.3-10,0.2-15,0
	c-3-0.2-4.1,0.6-3.9,3.8c0.3,5.3,0.2,10.7,0.1,16c-0.1,5.8-3.4,9.3-8.3,9.3c-4.7-0.1-7.6-3.5-7.7-9.1c-0.2-9-0.3-18-0.4-27
	c-0.1-5.5,3.3-8.9,9-8.9C230.8,459.9,241.3,460,251.7,460z"/>
<path style="fill:#9C4307;" d="M421.8,427.2c0,13.1-1.1,24.2-1.9,35.4c-0.3,3.3-1.5,4.1-4.8,3.5c-29.3-4.5-56.7-14.5-81.6-30.6
	c-49-31.7-79.9-76.2-93-133.1c-1.1-4.8,0.8-5.6,4.5-6.2c24.4-4,46.1-14.3,65.4-29.5c11.3-8.9,21.1-19.4,29.2-31.3
	c2.4-3.5,3.4-3.9,6.4-0.6c35.7,39.2,59.1,84.5,69.9,136.5C419.9,390.3,421.6,409.7,421.8,427.2z M345.9,126.1
	c-35.9-41.2-94.1-37.3-125.2,5.3c-32.3-43.5-90.2-45.9-125.1-5c8.9-51.5,57-102.3,127.5-101.1C291.8,26.4,336.8,76.3,345.9,126.1z"
	/>
<path style="fill:#F2BA89;" d="M220.8,282c-61.3,0-112.5-41.2-125.6-101.1c-5-23.1,9.9-50.8,33.4-61.8c32.4-15.2,69.2-1.6,83.8,30.9
	c1.7,3.9,3.8,7.1,8.6,7c4.6-0.1,6.4-3.2,8.1-7c11.2-25.4,36.6-40.1,63.2-36.6c29.3,3.8,49.7,23.1,54.4,51.6
	c1.7,10.4-1,20.2-4.2,29.8C324.9,247.6,276.9,282,220.8,282z M238,346c6.8,14,14.1,27.8,23,40.6c10.4,14.9,22.7,28.1,35.9,40.6
	c3.2,8.1,1.7,16.3,0,24.4c-0.4,2-2.2,2.3-4,1.6c-42.8-7.5-83.4-20.3-116.3-50.5c-14.8-13.6-25.8-29.9-30.7-49.8
	c-0.8-3.6,2.2-4.4,4.4-5.6c20.1-10.8,41.4-13.9,63.8-10.2c5.9,1,11.7,2.6,17.4,4.5C234.1,342.4,236.5,343.6,238,346z"/>
<path style="fill:#E49E60;" d="M238,346c-30.4-13.4-60.2-11.9-89.3,3.7c-1.4,0.7-2.6,1.5-2.7,3.2c-5.6-18.1-5.3-36.5-1.8-54.9
	c0.9-3.8,3.2-1.9,4.9-1c5.4,3,10.7,6.1,16.3,8.7c16.6,7.7,34,11.4,52.2,11.9c3.6,0.1,7.4-0.9,10.7,1.2
	C231.5,327.9,234.8,336.9,238,346z"/>
<path style="fill:#E49E60;" d="M228.3,318.9c-22.8,1.1-44.5-2.8-65.2-12.7c-5.4-2.6-10.4-5.8-15.7-8.6c-1.5-0.8-2.3-0.7-3.2,0.5
	c0.6-5.6,2.5-11,3.8-16.5c0.5-2.3,1.5-2.5,3.4-1.4c14.5,8.3,30.1,13.6,46.5,16.5c7.2,1.3,14.5,1.6,21.8,1.6c2.8,0,4.1,0.8,4.7,3.7
	C225.5,307.6,227,313.2,228.3,318.9z"/>
<path style="fill:#E49E60;" d="M293,453.2c2.2,0,2.8-1.2,3.1-3.4c1.2-7.5,0.9-15.1,0.8-22.6c14.4,12,29.5,23.1,46.2,32.1
	C326.2,458.2,309.4,456.7,293,453.2z"/>
<path style="fill:#482000;" d="M244.3,237.1c-0.3,13.2-6.2,26-17.3,36.4c-4.1,3.8-8.1,3.7-12.4-0.1c-22.9-19.9-22.8-57.2,0.2-76.8
	c4.2-3.5,8.6-3.6,12.5,0.2C237.8,207.4,244.2,219.8,244.3,237.1z M157.9,188.1c-9,0-18,0.1-26.9,0c-5.7,0-8.9-2.9-9.1-7.7
	c-0.1-4.9,3.4-8.3,9.1-8.3c18-0.1,35.9,0,53.9,0c5.7,0,9.2,3.4,9.1,8.3c-0.1,4.7-3.5,7.6-9.1,7.6
	C175.9,188.2,166.9,188.1,157.9,188.1L157.9,188.1z"/>
<path style="fill:#FFBE0E;" d="M283.5,216.2c-19.2-0.2-36-17.2-35.8-36.3c0.1-18.9,17.6-36.1,36.5-35.8c18.8,0.3,36,17.9,35.7,36.7
	C319.6,199.4,302.1,216.4,283.5,216.2z M228.2,235.1c0.3,7-1.5,13.1-5.1,18.8c-1.5,2.5-2.6,3-4.5,0.2c-7.1-10.2-7-27.5,0-37.8
	c2-2.9,3-2.1,4.4,0.2C226.7,222.3,228.5,228.5,228.2,235.1z"/>
<path d="M283.6,200.1c-12.4,0-19.9-7.5-19.9-19.9c0-12.6,7.8-20.3,20.2-20.2c11.9,0.1,19.9,8.3,19.8,20.3
	C303.8,192.5,296,200.2,283.6,200.1z"/>
</svg>
