<?xml version="1.0" encoding="utf-8"?>
<!-- Generator: Adobe Illustrator 24.0.0, SVG Export Plug-In . SVG Version: 6.00 Build 0)  -->
<svg version="1.0" id="Layer_1" xmlns="http://www.w3.org/2000/svg" xmlns:xlink="http://www.w3.org/1999/xlink" x="0px" y="0px"
	 viewBox="0 0 586 380" style="enable-background:new 0 0 586 380;" xml:space="preserve">
<path style="fill:#790000;" d="M518.7,75.9c8.1-0.9,14-5.4,19-11.2c2.8-3.2,4.9-6.8,6.7-10.6c1.7-3.6,4.5-5.4,8.3-4.1
	c3.4,1.2,4.4,4.2,4,7.9c-1.6,14.4-5.8,27.5-16.9,37.6c-2.5,2.2-1.1,3.3,0.3,5c7.9,9.8,15.7,19.5,23.5,29.4
	c7.6,9.6,5.9,18.8-4.7,24.6c-8.7,4.7-17.7,5.4-26.7,0.8c-4-2.1-7.1-1.8-11,0.7c-12.2,7.8-25.5,10.6-39.6,6.1c-3.4-1.1-4.9-0.1-6.6,3
	c-13.7,24.9-27.1,50-41.6,74.5c-4.5,7.6-5.6,14.4-4.4,22.8c1.4,9.9,1.1,20.1,1.7,30.2c0.2,3.8,0.7,7.6,1.1,11.3
	c0.5,3.7,2.4,6.2,6,7.6c5.2,2.1,9.7,5.1,13.6,9.2c2.8,3,5,6.4,5.5,10.4c1,8.3,0.4,11.6-9.1,11.2c-9.5-0.4-19-0.4-28.5,0
	c-4.8,0.2-7.2-1.6-9-5.9c-7.6-18.6-15.5-37.1-23.1-55.7c-1.4-3.4-2.5-4.9-6.8-3.9c-9.4,2.2-19.1,3.1-28.9,2.1
	c-2.4-0.2-4,0.5-5.6,2.1c-10.9,10.9-21.2,22.3-30.1,35c-2.2,3.1-1.9,4.2,1.7,5.9c7.8,3.7,10.7,10.9,11.6,19c0.4,3.7-1.4,5.8-5.3,5.8
	c-8.6,0-17.1,0-25.7,0c-2.9,0-4.6-1.2-5.5-3.9c-2.9-8.6-5.8-17.3-8.7-25.9c-0.8-2.2-0.3-4,1.2-5.8c9.2-11,14.1-24.2,19.2-37.3
	c1.1-2.9,0.9-4.2-2.4-5.3c-32-10.9-61.2-27.2-89.3-45.8c-2.8-1.9-4.4-2.1-7.1,0.5c-9.7,9.5-20.4,17.7-31.7,25.1
	c-3.2,2.1-4.5,4.5-4.7,8.4c-1,17.7-0.6,35.3,3.3,52.8c0.8,3.6,2.5,5.4,6,6.6c11,3.8,16.3,12.5,18.1,23.6c0.8,4.7-1.1,7.2-6.2,7.1
	c-7.6-0.1-15.2-0.3-22.8,0.1c-4.3,0.2-6.5-1.6-8.3-5.3c-9.9-21.3-20.2-42.5-30-63.9c-2-4.4-3.8-5.1-8.3-3.2
	c-20.5,8.7-34.5,23.7-44.2,43.3c-1.1,2.3-1,3.5,1.1,5.2c5,3.9,7.6,9.4,8.8,15.5c1,5-0.6,7.4-5.6,7.5c-8.4,0.2-16.7,0-25.1,0.1
	c-4.1,0.1-5.8-2.1-6.3-5.8c-1.3-9.6-2.5-19.2-3.9-28.7c-0.3-2.3-0.3-4.2,1.5-5.7c9.9-8.6,15.2-20.2,20.8-31.6
	c3.2-6.4,6-13.1,8.9-19.7c1.2-2.8,2.7-4.8,6.2-4.9c2.4-0.1,4.8-1.1,7.1-1.8c18.9-6.2,27.1-20.5,22.6-39.8
	c-1.7-7.2-3.9-14.2-6.1-21.3c-6.7-22.1-0.8-41.9,10.8-60.7c6.7-10.9,14.8-20.6,25.3-28.2c-21.6-17.3-54-10.7-68.2,13.5
	c-6.7,11.4-9.5,23.9-10.2,36.9c-0.4,7.8-0.4,15.6-0.1,23.4c0.7,19.7-7.3,35.3-22.2,47.7c-2.2,1.8-3.2,2.9-1.1,5.7
	c2.7,3.6,2.9,8.1,2.2,12.6c-1.1,7-3.1,13.8-6.9,19.8c-3.9,6.3-7.2,12.9-8.5,20.3c-0.5,3-1.7,5.3-5,5.1c-3.6-0.3-4.6-3-4.3-6.2
	c0.6-6.5-1.5-12.4-3.8-18.2c-6.4-16-3-30.3,11.1-39.5c9.9-6.4,12.8-17.1,14.2-28c0.9-6.7,1-13.6,0.7-20.5
	c-1-23.4,0.2-46.6,12.4-67.3c15.6-26.4,38.4-41,69.9-39.4c8.4,0.4,16.6,2.5,23.9,6.5c18.5,10,38.5,14.2,59,17.3
	c23,3.4,45.5,9.8,68.3,14.5c16.7,3.4,33.5,6.5,50.7,6.3c16.2-0.2,31-4.2,44.5-13.3c12-8.1,24.1-15.9,37.1-22.2
	c19.7-9.5,39.9-11.1,60.6-3.5c3.2,1.2,4.7,1.2,6.1-2.6c3-8.4,10.2-11.9,18.4-11.9c16-0.1,26.3-8.2,33.6-21.5c0.3-0.5,0.5-1,0.8-1.5
	c1.6-3.6,4.3-5.7,8.1-4.5c3.8,1.2,4.7,4.3,4.2,8.2C536.5,51.2,531.3,65.3,518.7,75.9z"/>
<path style="fill:#FFD3B7;" d="M555,146c-5.9,3.9-12,4.5-18.3,1.1c-7.4-3.9-14.3-3.4-21.4,1.2c-11,7.2-22.9,8.5-35.2,3.3
	c-5.3-2.3-8.5-0.9-11.1,4.1c-3.5,6.7-7.4,13.2-11.2,19.8c-6.2,7.3-13.4,13.4-21.2,18.8c-1.5,1.1-2.9,2.5-5.1,1.9
	c-4.2-0.6-6.6,1-6.7,5.4c-0.4,9.8-2.1,19.4-6.6,28c-3.9,7.4-1.1,14.1,0,21c2.2,13.9,1.9,28,3.1,41.9c0.5,5.3,1,10.6,2.5,15.7
	c1.5,5.1,4.2,9.2,9.5,11.3c5,2,9.6,4.7,12.8,9.2c1.7,2.4,2.2,4.5-2.1,4.4c-7-0.2-14.1-0.2-21.1,0c-3.3,0.1-4.7-1.2-5.8-4
	c-9.5-23.4-19.3-46.6-28.7-70c-4.2-10.6-10.2-20.4-12.7-31.6c-2-9.3-2-18.5,2.1-27.3c1.5-3.2,2.6-6.5-1.5-8.2
	c-4.2-1.8-5.6,1.7-7,4.7c-4.7,9.6-4.1,19.9-3.9,30.2c-2.8,2.3-6.4,2.3-9.7,2.8c-37.9,6.1-70.7-5.2-99.7-29.5
	c-5.9-5-11.9-10-16.5-16.4c-1.6-2.2-3.3-4.2-2.1-7.2c0-1.1,0.2-2.3,0.1-3.4c-0.3-2.6-1.8-4.2-4.4-4.4c-2.4-0.1-4.1,1.4-4.5,3.6
	c-3.6,18.4-15.4,31.1-29.1,42.8c-16.5,14.1-33.4,27.4-52.5,37.9c-7.6,4.1-15.8,6.4-23.9,9.1c-29.4,9.7-47.6,30.7-59.1,58.4
	c-1.5,3.6,0.1,5.8,2.9,7.6c1.1,0.7,2.5,0.9,3.6,1.5c2.3,1.2,4.8,3.2,4.3,5.5c-0.5,2.8-3.8,1.3-5.8,1.4c-10.7,0.2-9.9-0.1-12.2-11
	c-2-9.5-0.2-16.5,6-24.1c9.1-11,14.3-24.5,20.1-37.5c1.6-3.5,3.5-5.2,7.1-6.2c15.2-4.5,27.1-12.8,31.7-28.9
	c3.2-11.1,0.7-21.8-2.3-32.4c-3.1-10.7-7.1-21.2-6.4-32.7c0.1-1.9-0.4-3.8,0.9-5.5c0,0,0,0,0,0c4.7-21.7,16.2-39,33.8-52.4
	c0.9-0.7,1.9-1.2,2.9-1.9c6.3-4.3,6.3-6.7,0.3-11.7c-24.8-20.6-73.5-20.7-90.5,27.1c-5.5,15.3-6.3,31.2-5.8,47.2
	c0.2,7.6-0.1,15.2-2.2,22.6c-0.6,2.1-0.9,4.5-3.7,6.6c3.7-23.8-2.1-47.5,5-70.2c8.4-27.1,25-46.3,53.9-52.1
	c11.3-2.3,22.8-0.8,32.8,4.4c21.7,11.1,44.8,15.9,68.5,19.7c27,4.3,53.2,12.1,80.2,16.8c21,3.6,41.8,5,62.7-0.5
	c20-6.1,35.3-20.4,53.3-30c20.5-10.8,41.1-13.5,62.8-4.3c1.7,0.7,4.3,1.1,4.1,3.3c-0.2,2.1-2.8,1-4.4,1.5
	c-5.9,1.6-11.5,3.9-16.8,6.9c-2.8,1.6-4.6,4.1-2.2,7c6.4,7.5,13.4,14.1,24.4,13.5c3-0.2,5.6-1.1,8-2.6c2.3-1.4,4-3.3,2.6-6.1
	c-1.4-2.8-3.8-3.6-6.7-2c-4.9,2.8-9.5,1.5-13.9-1.3c-2.4-1.5-3.6-3,0.1-4.6c4.8-2.1,8.6-3.9,14.7-0.7c4.7,2.5,12,2.4,18,0.1
	c4.7-1.8,6.9-5.7,8.6-10c1.9-4.7,3.9-5.2,7.8-1.4c10.6,10.4,19.4,22.4,28.8,33.7c5.3,6.4,10.3,13.1,15.5,19.6
	C559.8,140.5,559,143.4,555,146z"/>
<path style="fill:#B75529;" d="M237.5,176.6c2.2,6.9,7.4,11.7,12.5,16.3c11.3,10.3,23.5,19.5,37.6,26c13,5.9,26.5,9.4,40.8,10.6
	c12.6,1,24.7-1.4,37-2.6c3.2,12.4,9.3,23.6,14.2,35.2c1.6,3.7,1.6,5.2-3.3,6.2c-21.9,4.2-43,0.5-63.8-5.7
	c-33.9-10.2-64.4-27.4-93.9-46.7c-2.5-1.6-3.1-2.7-0.9-5.2C226.8,200.8,233.7,189.6,237.5,176.6z M139.8,267.7
	c-4,1.2-4.5,2.5-2.7,6.2c8.4,17.2,16.5,34.5,24.8,51.8c6.2,12.9,6.2,12.9,20.6,12.1c0.2,0,0.4,0,0.6,0c3,0,3.8-1.1,2.2-3.8
	c-2.4-4-5.3-7.6-9.9-9c-6-1.8-9-6.1-10.7-11.5c-2.8-8.7-4.3-17.6-4.7-26.7c-0.4-9.2-1.5-18.4,0.8-29.3
	C152.8,261.8,146.7,265.6,139.8,267.7z M319,273.7c-3.8-1.2-5.4,0.1-6.6,3.6c-3,9.2-6,18.8-11.9,26.4c-7.9,10.2-6.6,19.6-1.7,29.8
	c0.1,0.2,0.2,0.3,0.2,0.5c0.4,2.7,2,3.8,4.8,3.7c3.8-0.1,7.6-0.1,11.4,0c4.2,0.1,3.3-2.1,1.8-4.1c-2.2-3.1-5.5-4.5-9.2-5
	c-6.3-0.8-7.6-3-4.8-8.7c1.5-3,3.4-5.9,5.2-8.8c7.5-12.2,18.1-21.9,27.5-33.4C329.6,276.3,324.2,275.3,319,273.7z M433.5,208.6
	c-0.8,5-1.8,9.9-2.8,14.9c9.6-15.8,19.2-31.5,27.3-47.9c-1.7,1.2-3.7,2-5,3.5c-6.3,6.7-13.9,12-21.3,17.3
	C435.3,199.9,434.2,204.3,433.5,208.6z"/>
<path style="fill:#B95529;" d="M525.8,48.8c-3.4,12.1-10.5,20.5-22.8,23.8c-4.3,1.2-7,3.8-7.3,8.3c-0.1,2.4,0,5-3,5.3
	c-3.3,0.4-7,1.3-9.5-2c-3.4-4.3-3.4-9.2-1.7-14c1.5-4.4,5.2-6.6,9.8-6.5C505.1,64,516.4,58.7,525.8,48.8z M529.7,82.3
	c-1.3,0.6-4.7,1.1-1.9,3.6c1.7,1.5,2.5,6.1,6.4,2.6c5.1-4.7,8.4-10.4,10.4-17.9C539.6,75.5,535.3,79.7,529.7,82.3z"/>
<path style="fill:#790000;" d="M507,113.9c-4.3-0.1-9.2-5.3-9-9.5c0.2-4.1,5.2-8.8,9.2-8.7c4.3,0.1,9.2,5.3,9,9.5
	C516,109.2,511,113.9,507,113.9z"/>
</svg>
