<?xml version="1.0" encoding="utf-8"?>
<!-- Generator: Adobe Illustrator 24.0.0, SVG Export Plug-In . SVG Version: 6.00 Build 0)  -->
<svg version="1.0" id="Layer_1" xmlns="http://www.w3.org/2000/svg" xmlns:xlink="http://www.w3.org/1999/xlink" x="0px" y="0px"
	 viewBox="0 0 476 467" style="enable-background:new 0 0 476 467;" xml:space="preserve">
<path style="fill:#780101;" d="M354.1,268.2c-4.9,12.3-6.3,24.5-1.7,37.2c3.8,10.7,2.9,21.2-3.1,31.3c-7.5,12.5-8.8,26.8-9.4,40.9
	c-0.3,7.5-1.9,14.1-6.4,20c-2.5,3.3-3.3,6.9-3.6,10.9c-0.6,7.4-2.7,9.9-10.1,10.7c-6.5,0.7-13.1,0.6-19.7,0.7c-3,0-4.2-1.7-2.9-4.4
	c3.5-7.1,6.2-15,14.9-17.6c2.9-0.9,3.1-2.8,2.8-5.3c-0.5-3.3-0.2-6.5,1.5-9.5c8.9-16.3,9.1-34.1,9.5-51.9
	c0.3-11.2-1.6-21.6-6.3-31.8c-2.8-6-3.1-13.1-4.6-19.7c-0.5-2.4-1.4-4.7-2.1-7c-1.4-5-3.7-5.7-8.1-2.6c-15.6,11-33.2,10.2-50.9,7.7
	c-6.5-0.9-12.8-2.7-19.2-4.1c-4.7-1-6.9-0.1-7.2,5.5c-0.8,13.3-3.1,26.5-3.8,39.8c-0.5,9.7,1.4,19.7-2.3,29.1
	c-5.1,13.1-6.4,26.7-5.9,40.5c0.2,6.3,1.7,12.6,1.2,19c-0.4,4.3-1.1,8.7-3.5,12.3c-1.8,2.7-1.2,4.9-0.3,7.5
	c4.3,11.8-1.3,20.5-13.8,21c-4.7,0.2-10.1,1.4-13.9-1c-6-3.9-12.7-3.4-18.9-5.3c-4.3-1.3-5.9-3.6-3.5-8.2c2.4-4.5,4.1-9.3,9.2-11.8
	c3.1-1.5,4.1-4.8,4.4-8.3c0.5-4.9,0.9-9.8,2.1-14.6c4.3-17.7,1.8-34.5-6.2-50.6c-2.1-4.1-2.6-8.6-2.4-13.2
	c0.4-6.8-1.3-13.2-5.4-18.5c-10-13.2-13.8-28.7-16.7-44.4c-1.4-7.6-4-14.2-9.3-19.6c-7.6-7.7-11.1-17.2-9.5-27.5
	c2.8-17.9-4-32.8-12.6-47.4c-4-6.8-9.7-12.2-15.3-17.6c-1.4-1.3-2.7-1.6-4.4-1.1c-3.3,1-6.7,1.7-10.1,2.7c-1.1,0.3-2.8,0.9-3.1,1.7
	c-2.8,7.9-9.2,14-12,21.7c-3.3,9.1-13.6,16.7-23.3,15.2c-6-0.9-12.3,0.1-16.7-6.7c-6.3-10.1-6.3-20.6-1.2-29.8
	c6.7-11.9,8.2-24.7,10.9-37.4c0.6-2.8,0.9-5.8-0.2-8.5c-4.7-10.9,0.1-19,7.5-26.4c2-2,4.2-3.8,4.6-7c0.3-2.5,0.2-4.3-2.4-5.5
	c-6.3-3.1-9.6-8.7-12-15c-2.7-7.4-3.9-15-4.5-22.8c-0.2-3.1,0.2-6.2,1.8-8.9c0.9-1.7,2.2-3.1,4.4-2.6c1.9,0.4,2.4,2,2.6,3.7
	c1.1,7.5,4.2,13.4,11.6,16.8c4.2,1.9,7,6,8.4,10.3c1.9,5.8,5.4,3.7,8.1,1.8c2.1-1.4,3.2-4.6,6-1.1c6.8-5.2,17.5,2,23.3-7.6
	c2.1-3.4,6.5-5.5,10.3-7.6c7.2-3.9,13.4-8.6,16.9-16.3c1.5-3.3,4.3-6,8.3-4.7c4.4,1.4,3.7,5.4,3.1,8.9c-2.4,13.2-7.1,25.5-17.5,34.4
	c-4.8,4.1-1.6,6.2,0.5,8.6c1.7,2,4.4,3.2,6.7,4.6c7.1,4.6,11.4,12,17.6,17.6c9.4,8.5,19.1,16.7,28.7,24.9c1.2,1,2.7,1.8,4.4,1.8
	c14.8,0.4,28.4,5.4,40.2,13.6c16.5,11.6,34.3,12,53,9.2c7.7-1.2,15.1-3.5,22.4-6.4c21.4-8.4,43.3-10,65.6-3.1
	c17,5.3,28.6,16.1,33.4,33.1c4.1,14.6,11.1,28.2,12.8,43.5c0.5,4.9,0.3,9.9,1.1,14.7c1.6,10.7,6.3,20,12.8,28.8
	c12.9,17.3,20,36.6,16.6,58.6c-0.3,2.2-0.3,5.1-3.2,5.3c-3,0.2-2.8-2.9-3.4-5c-2.3-8.3-6.5-15.2-14.3-19.9
	c-8.8-5.5-11.5-15-14.3-24.3c-0.7-2.5,0.5-7-5.2-5.9c-1.8,0.3-1.8-2.8-1.8-4.6c0-5,0-10.1-0.9-15.1c-4.7,11.9-6.6,24.2-7.7,36.6
	c-0.9,10.6-2.4,21-0.2,31.8c1.4,7.2,0,14.8-1.8,21.9c-3.6,14.7-4.4,29.5-1.5,44.4c0.5,2.8,0.7,5.7,0.4,8.6
	c-0.9,8.5-2.9,16.7-0.6,25.4c1.3,5,0.1,10.7-5.8,13.6c-7.2,3.5-14.3,3-21.3-0.2c-1.9-0.9-2.2-3-2-4.8c0.3-2,0.6-4.1,1.5-5.9
	c3.2-6.6,5.9-13,5.2-21c-0.5-6.5,3.7-12.9,4.5-19.6c1.7-14.5,3.3-28.9-2.2-43.1c-1.8-4.6-2.1-9.7-1.3-14.6
	C364.4,302.8,358.2,285.7,354.1,268.2z"/>
<path style="fill:#FBD0B5;" d="M390.2,236.3c-6.9,11.3-18.9,12.3-26.1,1.1c-9.5-14.7-16.3-30.6-17.8-48.3c-2.9-2-3.4,1.5-5.1,2.3
	c-13,18.1-29.9,31.5-49.9,40.8c-18.2,8.5-36.8,8.4-55.8,2.8c-10.6-3.1-12.1-2.3-15.5,8.4c-2.8,8.8-4.7,17.8-5.4,27.1
	c-0.2,2.5-0.7,4.9-1.6,7.2c-1.3,3.2-3.2,5.9-6.9,6.2c-3.8,0.3-5.9-2.3-7.5-5.4c-2.4-4.6-3.6-9.6-5.3-14.4
	c-3.4-9.9-4.7-10.8-15.2-9.3c-3.1,0.4-6.1,0.7-9.2,0c-5.2-1.1-7.7-4.6-7.5-9.9c3-1,5.1-2.5,2-5.4c-2-1.9-0.5-6.7-5.3-6
	c-2.3,2.8-3.9,1.3-5-1.1c-1.8-3.7-3.4-7.7-3.6-11.7c-0.8-15.5-7.2-28.9-15.1-41.8c-1.2-2-3.1-4.1-1.3-6.7c4.6-0.6,4.8-1.4,1.9-5.6
	c-1.6-2.3-3.3-3.3-6-2.3c-5.3-2.6-6.5-5.1-4.5-9.1c3.2-1.3,2.3-3.2,0.7-5.3c-4.3-6-6.9-12.9-10.4-19.3c-1.7-3.1-1.2-6.3-1.4-9.5
	c-0.2-2.1-0.3-4.4-3.1-4.2c-2.7,0.2-2.2,2.5-2,4.3c0.8,5.4-0.4,10.4-2.3,15.4c-3.8,8.8-10.9,14.3-19.3,17.8
	c-7.7,3.3-13.7,7.8-17.4,15.5c-0.8,1.7-1.3,4.1-4.1,3.8c-1.8-0.4-3.4-0.3-4.7,1.2c-2,2.1-3,4.8-4.1,7.4c-3.2,7.5-8.6,11.6-17,11
	c-3.3-0.1-3.7-2.9-4.7-5c0,0,0,0,0,0c0,0,0,0,0,0c-3.6-9.8-0.9-18.6,3.1-27.7c6.8-15.6,11.8-31.6,7-49c-1.7-6.1,2-11,6-14.6
	c4.8-4.3,8.2-8.9,8.2-15.8c7,6.5,6.8,6.4,12.3-1.2c2.6-3.6,5.3-8.5,11.3-5c5.6-1.1,9.2-5,12.7-9c5.3-6.1,11-11.8,19.9-16
	c-3.6,5.7-6.8,9.4-11.3,12c-5,2.8-8.7,6.8-10.9,12c-0.7,1.7-1.5,3.5,0.3,5c1.9,1.6,3.3-0.2,4.9-1.1c0.1,2.9-0.1,5.8,1.3,8.3
	c0.8,1.5,1.8,3,3.8,2.4c2.1-0.6,1.9-2.4,1.3-4c-0.8-1.9-1.7-3.8,0.2-5.7c0,0,0,0,0,0c0,0,0,0,0,0c3.5-0.9,5.2,2.1,7.4,3.7
	c15.1,11,28.1,24.5,42.7,36.2c8.4,6.8,16.8,12,28.5,12.5c14.2,0.6,26.5,7.6,38.5,15c11.8,7.3,23.7,14.7,37,19.1
	c3.5,1.2,7.1,2.2,10.8,1.8c1.8-0.2,3.9-0.6,3.8-3.1c-0.1-2.5-1.9-2.5-4-2.3c-7.2,0.5-13.3-2.7-21.2-6.5c16.4,0.1,30.8-1.1,44.4-6.6
	c8.6-3.5,17.3-6.4,26.4-7.7c15.5-2.2,30.7-1.1,45.3,4.9c5.7,2.3,10.9,5.6,14.9,10.5c7.7,8,10.6,18.1,12.7,28.6
	C395.5,202.3,395.9,219.4,390.2,236.3z M55.3,75C55.3,75,55.3,75,55.3,75C55.3,75,55.3,75,55.3,75c1.2-3.2,6.8-4.1,4.8-9
	c-1.6-3.8-3.6-7.3-6.5-10.2c-2.2-2.2-5.1-3.3-7.9-4.5c-1.9-2.5-3.7-5-6-8c0.9,7.4,1.8,14.1,4.6,20.3C46.5,68.7,49.3,73.4,55.3,75z"
	/>
<path style="fill:#FCB392;" d="M347.2,187.1c1,12.1,5,23.3,9.9,34.3c2.5,5.4,4.6,10.9,8.4,15.7c6.5,8.3,13.5,9.1,21.4,2.1
	c1.1-0.9,2.2-1.9,3.2-2.8c-1.8,8.2-3.6,16.3-5.4,24.5c-3.3,14.6-3.9,29.5-5.5,44.4c-0.5,4.8,2.4,9,2.3,13.9
	c-0.1,8.9-2.4,17.4-3.7,26c-1.8,12.3-2.6,24.7-0.3,37.1c1.1,6.1,1.3,12.7-1,18.8c-0.9,2.4-1.4,4.7-0.6,7.2c0.6,1.8,1.3,3.7-1,4.8
	c-2.8,1.2-5.6,0.5-8.4-0.4c-2.5-0.8-1-2.5-1.1-4c-1.2-13,5-24.7,5.7-37.4c0.6-11.7,1.6-23.3-2.8-34.5c-2.1-5.4-2.1-11-1.4-16.4
	c2.7-21-4.6-40.3-9.1-60.1c-0.7-3.1-4-5.6-5.7-8.6c-3.7-6.7-5.9-13.9-7.5-21.3c-0.4-1.7-0.9-3.4-3-3.1c-1.7,0.2-2.3,1.8-2,3.3
	c0.8,3.6-1.6,5.1-4,6.8c-5.5,3.7-9.8,8.7-14.3,13.4c-10.1,10.5-21.6,19.3-36.1,22.1c-11.9,2.3-24.1,1.3-36-1
	c-6.2-1.2-12.2-3.5-18.6-3.4c-1.2,0-2.6-0.1-2.7-1.8c-0.1-1.5,0.9-2.3,2.2-2.5c3-0.5,6-0.3,9.1,0.3c13.9,2.5,27.9,4.5,42.1,1.8
	c1.2-0.2,2.4-0.5,3.5-0.9c1.5-0.6,2.4-1.7,1.7-3.4c-0.5-1.3-1.6-1.8-3-1.5c-18,3.9-35.7-0.5-53.8-2.1c2.2-4.9,5.1-9.6,4.4-15.2
	c-0.3-2.2,0.3-5.1-3-5.1c-3.2,0-2.1,3-2,4.8c0.1,5.2-2.1,9.6-5.1,13.5c-1.9,2.4-3,4.9-2.3,7.9c3.2,13.8-0.7,27.2-1.7,40.8
	c-0.6,7.7-2.7,15.2-1.1,23.1c1.1,5.6,0,11.5-2.1,16.9c-5.5,14.4-6.8,29.4-6.2,44.7c0.2,5.1,1.6,10.1,1.2,15.3
	c-0.3,4.3-0.7,8.7-3.2,12.3c-1.8,2.7-2.4,5.4-1.6,8.1c1.4,4.4-0.6,4.9-4.1,4.6c-1.6-0.1-3.3-0.1-4.9-0.2c-2.9,0-3.9-0.9-1.9-3.6
	c1.2-1.7,2.3-3.5,2.1-5.7c-0.8-10.1,2.9-19.2,5.6-28.6c4.1-14.2,1.4-28.5-2.9-42.3c-1.8-5.7-2.9-11.7-1.1-16.9
	c4.1-11.8,0.9-23.2-1.1-34.5c-1.9-10.4-5.4-20.5-8.1-30.8c-1.5-5.7-6-8-10.9-9.9c-1.2-0.4-2.6-0.5-3.3,0.8c-0.8,1.5,0,2.8,1.2,3.7
	c0.7,0.5,1.3,1,2.1,1.3c2.8,1.3,6.7,3.1,5.3,6.3c-1.2,2.8-5.6,1.4-8.4,0.7c-3.3-0.9-6.4-2.6-9.6-3.9c-1.4-0.6-3-1-3.9,0.4
	c-1.2,1.7,0,3.2,1.4,4.1c4,2.6,8.2,4.9,13.1,4.8c4.6,0,5.6,2,6.1,6.2c1.7,15.2,3.9,30.2,8.8,45c2.9,8.8,3.7,19.2,0.4,29.1
	c-2.6,8-1.3,16.7,1.1,24.2c4.3,13.5-1,26.2-1,39.2c0,6.7-7.1,8.5-15.1,4.6c6.3-8,4.3-18,6.5-27.1c4.1-16.8,1.2-33.4-6.1-49
	c-2.3-4.8-3-9.8-3.1-14.9c-0.1-7-1.7-13.6-5.8-19.1c-9.8-13.1-13.5-28.4-16.5-43.8c-1.3-6.8-3-13.3-8-18.2
	c-9.3-9.1-12-20.1-10.8-32.6c0.3-2.6,0-5.3,0-9.1c3.2,3,5.6,5.4,8.1,7.6c1.5,1.3,3.5,2,4.9,0.3c1.3-1.6-0.2-3-1.5-4.1
	c-8.9-8.2-14.6-18.7-19.7-29.5c-4.6-9.8-10.4-18.6-18.5-25.8c-2.5-2.2-3.3-4-1.3-7.2c2.4-4,3.8-8.5,5.7-13.2
	c5,5.3,5.2,13.7,12.4,16.9c-0.4,3.9,1.2,6.6,4.7,8.3c2.7,2.3,5.6,4.6,4.9,8.8c-1.7,2.6,0.7,4,1.7,5.8c7.3,12.6,14.3,25.1,14.8,40.3
	c0.2,5.3,2.9,10.5,4.6,16.4c0.9-1.6,1.5-2.6,2.1-3.6c2.6,4.2,4.4,8.8,5.4,13.6c-0.5,4.5,2.4,8.2,7.2,8.7c3.5,0.3,6.9-0.2,10.3-0.8
	c8.1-1.5,11.1,0.5,13.8,8.2c2,5.6,3.8,11.2,5.9,16.8c1.1,2.8,2.9,5.3,6.3,4.9c3.1-0.4,5-2.8,5.6-5.8c1.9-9.2,2.2-18.6,5-27.6
	c1.2-3.9,2.4-7.8,3.6-11.7c1.8-5.6,5.6-7.1,11-5.4c6.2,1.9,12.5,3.4,19,4.5c23.1,3.7,42.6-4.5,60.7-17.6c10.8-7.8,21-16.3,28.3-27.8
	c0.4-0.6,1.3-0.9,2-1.3c1.9,2.8,0.1,5.5-0.2,8.2c-0.4,3-1.3,5.9,0.2,9.8C342.8,200.2,342.9,193,347.2,187.1z M325.4,402.2
	c4.1-8.9,9.9-16.9,9.8-27.9c-0.1-14.7,2.7-29.1,10.6-42.3c4.5-7.5,4.7-16.1,1.9-24.3c-5.1-15.1-4.5-29.7,2.4-44
	c1.1-2.3,1.4-3.9-0.3-6c-3.1-4.1-5.2-8.8-6.5-13.8c-1.1-4.2-3.3-4.1-6-1.6c-3.7,3.5-7.2,7.3-11.1,10.7c-3.1,2.7-3.5,5.1-1.6,9
	c3.2,6.8,6.6,13.7,7.8,21.2c0.3,1.8,0.3,4-2.2,4.3c-2.1,0.3-2.4-1.7-2.8-3.3c-1.7-6.8-4.5-13.1-7.2-19.5c-0.6-1.3-0.6-3.7-3-2.5
	c-1.9,1-2.4,2.6-1.1,4.6c2.7,4.4,3.9,9.4,4.8,14.5c1.8,10.1,3.7,20.1,9.1,29.1c0.9,1.5,1.2,3.5,1.2,5.3c0.1,9.6,0.8,19.3-0.1,28.9
	c-1.3,14-1.8,28.3-9.6,40.8c-1.3,2-1.5,4.3-1.2,6.5c0.4,3.8,0.1,7.3-3.5,10.4C320.1,402.7,323.6,406.1,325.4,402.2z M397.9,229.4
	c1.2,8.7,2.4,17.4,2.3,26.2c0,1.2,0.2,3.2,0.8,3.4c5.4,1.5,4.4,6.4,5.3,10c3.1,12.4,7.3,23.8,21.1,29.4c-2.5-5.2-4.1-10.1-7.9-14
	c-1.5-1.5-3.2-3.2-0.9-5.2c2.4-2.1,3.7,0.5,4.9,1.9c2.1,2.2,3.8,4.8,5.6,7.2c-2.1-9.7-6-18.4-12.2-25.9c-6.4-7.7-10.6-16.3-13.1-26
	c-2-7.8-0.4-15.9-3.2-24.3C399.7,218.4,397.1,223.8,397.9,229.4z M64.7,179.4c-1.1,3.4-3.1,6.7-2.7,10.8c2.3-1,3.5-2.7,3.7-4.4
	c0.4-5.4,3.8-8.8,7-12.5c1.5-1.8,2.5-3.8,3.1-5.9c2.1-7,6.6-10.5,13.8-12c11.9-2.5,15.1-6.6,16.3-18.7c-4.9,5.7-9.7,11.9-16.8,14.9
	c-10.7,4.6-19.4,11.1-24,22.1C66.5,175.7,65.3,177.5,64.7,179.4z M133.2,30.8c-10.1,15.2-17,32.3-33.9,41.3
	C120.2,65.9,134.9,47.8,133.2,30.8z M205.1,441.6c1.8-0.7,2.9-2.3,2.7-4.3c-0.1-1.3-1.3-1.5-2.3-1.4c-4.5,0.3-8.8-1-13.2-1.8
	c-1.4-0.3-2.4,0-2.9,1.3c-0.8,2-2.8,4.2-1.7,6.2c1.5,2.8,4.8,1.3,7.3,1.6C198.5,443.7,201.8,442.9,205.1,441.6z M375.7,424.9
	c1.4-1.3,2.4-3,1.9-4.9c-0.6-2.2-2.7-1.2-4.2-1.3c-2.8-0.2-5.7,0.2-8.5-0.9c-1.8-0.8-3.2,0.1-4,1.8c-0.9,1.8-2.3,3.8-1.1,5.8
	c1.6,2.9,4.7,1.7,7.2,2C370.2,427.6,373.3,427.1,375.7,424.9z M311.8,414.8c1.4,0,3,0.3,4.3-0.1c2.6-0.7,6.8,0.3,7.3-3
	c0.6-3.9-3.9-2.3-5.9-3.7c-1-0.7-2.2-1-3.3-1.6c-2-0.9-4.2-2.5-5.9,0.3c-1.4,2.2-4.4,4.4-3.6,6.8c0.9,2.7,4.3,0.9,6.6,1.3
	c0.2,0,0.4,0,0.6,0C311.8,414.9,311.8,414.8,311.8,414.8z M178.4,438.3c3.6,0.4,5.6-1.8,5.8-4.8c0.3-3.6-3.1-2-4.9-2.6
	c-1.5-0.5-3.2-0.8-4.6-1.4c-5.3-2.3-5.2,2.6-6.3,5c-1.6,3.7,2.4,2.7,4,3.5c1.2,0.6,2.8,0.3,3.2,0.4
	C177.2,438.3,177.8,438.3,178.4,438.3z M48,194.6c4.6,1,7.3-0.8,8.3-5.6c1-4.8,2.7-9.4,4-14.1c-6.6,6.6-9.3,17.8-21.1,18.4
	C41.9,195.7,45.1,194,48,194.6z"/>
<path style="fill:#E1E7F0;" d="M196.7,320.3c-4.2-7.2-7.2-22.6-6.9-34.8c2.6,6.1,3.7,11.4,4.7,16.8
	C195.4,307.9,195.9,313.6,196.7,320.3z"/>
<path style="fill:#D3DFEF;" d="M197.2,357.7c2.3,7.1,2.9,13,1.6,19.1C198.3,370.9,196.4,365.1,197.2,357.7z"/>
<path style="fill:#790000;" d="M51.3,137.2c1.5-8.2,4.5-16.4,7.4-24.7c0.5-1.3,1.7-1.9,3-1.5c1.6,0.5,2.2,1.7,1.8,3.4
	c-2.3,8.5-5.8,16.6-7.3,25.3c-0.2,1.3-1.4,2.1-2.8,1.9C51.1,141.2,51.4,139.3,51.3,137.2z M341.2,189.8c-1.3,5.8-3.3,11.4-2.7,17.5
	c0.2,1.5,0.2,3,2.1,3.2c1.7,0.2,2.9-0.7,2.8-2.4c-0.6-7.3,3-13.9,3.8-21C343.5,184.1,342.9,188.3,341.2,189.8z M167,243.5
	c-1.2-4.6-4.2-8.8-6.8-13c-0.5-0.8-2.3-0.4-3.1,0.8c-0.1,5.3,2.2,9.6,5.4,13.6C164.7,246.4,167.8,246.4,167,243.5z M45.3,174.8
	c-0.3,3.8-0.5,7.6-0.7,11.4c0,0.3,0.9,0.8,1.5,0.9c1.9,0.1,2.9-1.2,3.8-2.6c1.8-2.6,1.6-5.4,0.1-8.1c-0.7-1.3-1.6-2.3-3.5-2.4
	C46.2,174.1,45.3,174.4,45.3,174.8z M138.3,174.2c1.8-1.3,1-3.2-0.1-4.9c-1.4-2-2.7-4.1-4.1-6c-1.7-2.2-3.5-2.8-5.1,0.2
	c0.7,3.5,3.9,5.6,4.9,8.8C135,174,136.4,175.7,138.3,174.2z M84.4,113.5c0-2-3-3.8-5.5-4c-3.1-0.3-4.5,2.2-4.9,4.5
	c-0.4,2.9,2.4,2.6,4.6,3.2C81,116.7,84.4,116.5,84.4,113.5z M214.4,342.6c1.1-1.4,1.6-3.1,0.3-4.4c-1.3-1.4-3-1.1-4.1,0.5
	c-1,1.5-2.3,2.4-4.1,2c-2.2-0.6-4.4-0.8-4.5,2.1c-0.1,3.1,2.6,3,5,3.2C209.9,346,212.5,345,214.4,342.6z M189.9,342.2
	c0.6-1,0.5-2-0.4-2.7c-2.5-2.2-3.9,0.6-5.8,1.3c-0.6,0.2-1.2,0.2-1.8,0.2c-2,0-3.9,0.3-3.4,2.9c0.4,2.5,2.7,2,5.2,2.2
	C186.2,346.4,188.4,344.9,189.9,342.2z M371.1,324.4c-1.1-0.9-3,0.8-2.5,2.3c0.8,2.7,2.9,4.4,5.9,4.5c2.3,0.1,4.1-0.5,4.6-3.4
	C378.1,323.4,373.5,326.4,371.1,324.4z M332.5,324.4c0.8,3.7,4,5,7.2,5.3c2.2,0.2,5.2-0.8,4.7-3.4c-1-5.1-7.4-0.4-8.9-4.6
	C333.4,321.9,332.2,322.9,332.5,324.4z M412.6,261.5c-1.5-0.6-2.8,1.1-2.5,2.7c0.5,3.2,1.1,6.6,4.7,7.8c1.6,0.5,2.6-0.7,2.5-2.9
	C416.1,266.6,416.1,262.8,412.6,261.5z"/>
</svg>
