<?xml version="1.0" encoding="utf-8"?>
<!-- Generator: Adobe Illustrator 24.0.0, SVG Export Plug-In . SVG Version: 6.00 Build 0)  -->
<svg version="1.0" id="Layer_1" xmlns="http://www.w3.org/2000/svg" xmlns:xlink="http://www.w3.org/1999/xlink" x="0px" y="0px"
	 viewBox="0 0 586 586" style="enable-background:new 0 0 586 586;" xml:space="preserve">
<path style="fill:#790000;" d="M315.5,392.9c6.7,15.8,13,31,19.8,46c2.6,5.7,2.9,10.8,0.8,16.9c-11.5,33.6-22.5,67.3-33.7,100.9
	c-2.8,8.4-4.8,9.8-13.6,9.8c-28.2,0-56.3,0-84.5,0c-9.2,0-11.9-2.7-12.4-11.7c-2.9-55.3-5.9-110.6-8.8-165.9
	c-0.1-2.4-0.7-4.5-1.7-6.5c-25.1-55.9-50.3-111.7-75.3-167.6c-1.5-3.3-3-5-7-4.7c-7.2,0.5-14.5,0.3-21.7,0.1c-3-0.1-4,0.6-4.3,3.9
	c-2.2,22-17.9,38.2-39.7,41.5c-10.7,1.6-14.9-1.9-14.9-12.7c0-25.1,0.1-50.2-0.1-75.4c0-4.8,1.5-8.3,4.8-11.6
	c18.4-18.2,36.6-36.6,55-54.8c2.8-2.8,4.4-5.7,5-9.7c4.9-36.8,29.3-63.3,65.6-71.3c44.6-9.9,91.2,22.9,97,68.3
	c0.5,3.6,0.8,7.2,1,10.8c0.3,4.7-1.6,8.2-6.1,9.9c-4.6,1.7-8.1-0.3-10.9-3.9c-4.2-5.4-8.1-11-12.4-16.4c-16.8-21-49.2-20.9-64.6,0.2
	c-0.4,0.6-0.8,1.2-1.6,2.5c7.6,0,14.4-0.1,21.1,0c7.1,0.1,10.5,3.4,10.6,10.4c0.3,12.8-4.3,23.4-14.5,31.3c-2.5,1.9-2.3,3-0.6,5.2
	c15,19.9,30,39.8,44.8,59.8c2.1,2.8,4.4,3,7.3,2.9c69.5,0,138.9,0.2,208.4-0.1c30-0.2,47.8,2.1,73.8,22.9
	c9.5-15.3,22.9-25.6,40.5-30c4.8-1.2,9.7-2,14.7-1.8c5.1,0.2,8.9,2.9,9,7.8c0.4,13.1,1.5,26.2-2.7,39c-5.3,16.1-15.2,28.4-30,36.5
	c-3.2,1.7-4,3.5-3.8,7c1.6,26.4-0.8,52-15.7,75.1c-6.4,9.8-13.8,18.7-23.1,25.8c-3.1,2.4-3.4,3.8-1,7c12.3,16.4,24.2,33.1,36.5,49.6
	c3.1,4.1,3.9,8.1,2.6,13.2c-8.7,34.2-17.2,68.5-25.7,102.7c-2.3,9.1-4.5,10.8-13.8,10.8c-13.1,0-26.3,0-39.4,0
	c-9.4,0-13.1-5-10.3-14c7.6-25.5,15.1-50.9,23-76.3c1.4-4.6,0.7-6.7-3.6-8.8c-7.2-3.5-7.1-3.8-9.6,4c-9.4,28.3-18.8,56.5-28.2,84.8
	c-3,9-4.8,10.3-14.4,10.3c-12.7,0-25.5,0-38.2,0c-10.8,0-14.3-5.2-10.5-15.4c10.4-28.5,20.7-57,31.3-85.5c1.5-4,0.9-5.9-2.7-8.1
	c-16.2-10.1-31.6-21.2-42.2-37.6c-4.6-7-8.7-14.3-11.3-22.2c-1.2-3.7-2.9-5.2-6.9-4.7C322.9,393.2,319.5,392.9,315.5,392.9z"/>
<path style="fill:#FCD0B5;" d="M460,548.2c6.1-20.3,12-40.1,17.9-59.9c1.8-6,3.6-12,5.3-18c1.9-6.5,0.6-9.8-5.4-13.2
	c-13.7-7.7-27.5-15.5-41.3-22.9c-22.9-12.3-41.2-29.4-52.7-52.8c-6.6-13.6-11.7-28-17.2-42.1c-1.4-3.7-2.7-4.3-6.4-2.8
	c-12.3,5.2-12.4,5-7.4,17.6c2.6,6.7,5.3,13.3,8.2,20.6c-3.9,0-7.2,0-10.6,0c-29.5,0-59-0.2-88.5,0.2c-5.5,0.1-6.4-1.7-6.3-6.6
	c0.3-14.6,0-29.3,0.2-44c0-3.4-0.6-4.5-4.3-4.5c-14,0-14-0.2-14,13.5c0,69.6-0.1,139.3,0.1,208.9c0,5-1.1,6.6-6.2,6.1
	c-5.5-0.5-11-0.4-16.5,0c-4.1,0.3-5.6-0.9-5.7-5.2c-0.6-16.7-1.6-33.4-2.5-50.2c-1.9-36.3-3.8-72.6-5.7-108.9
	c-0.1-2.4-1-4.4-1.9-6.5c-26.6-59.2-53.3-118.3-79.8-177.5c-2.6-5.8-6.3-8.3-12.7-8.3c-21.7,0.2-43.4,0-65.1,0.2
	c-3.9,0-4.6-1-5.1-4.9c-1.7-13.4,2.8-23.1,13-32.1c14.8-13,28.3-27.7,42.1-41.8c2.6-2.7,5.3-3.6,9-3.6c20.7,0.1,41.5,0.1,62.7,0.1
	c-1.9,6.7-6.4,10.2-12.5,12.1c-9.8,3.1-11.6,8.8-5.4,17.1c18.7,25,37.4,49.9,56,74.9c3.2,4.3,7.1,5.6,12.3,5.6
	c75.7-0.1,151.4,0,227.2-0.1c22.2,0,40.6,8.2,55.1,25.2c7.1,8.4,14.4,7.1,18.2-3.3c5.9-15.7,17-25.7,33.3-29.9
	c4.3,19.9-7.6,41.8-27,50c-10.7,4.5-10.9,5.8-9.6,17.7c2.8,25.1,1,49.4-13.9,71.1c-6.8,9.8-15.2,18-25.3,24.4
	c-7.9,5-8.7,9.3-3.2,16.9c13.2,18.1,26.4,36.3,39.7,54.3c2,2.7,2.6,4.9,1.7,8.3c-7.6,29.8-15,59.6-22.3,89.5c-0.8,3.5-2.2,4.9-6,4.7
	C474.6,547.9,467.6,548.2,460,548.2z M281.7,548.3c3.4,0.1,4.5-1.2,5.5-4.2c10.1-30.8,20.4-61.6,30.7-92.3c0.8-2.3,1-4.2,0-6.6
	c-7.1-16.4-14.1-32.8-21.1-49.2c-0.6-1.5-0.9-3.2-3.3-3.2c-10.7,0.1-21.5,0-32.8,0c0.8,1.9,1.3,3.1,1.8,4.3
	c6.2,14.7,12.4,29.4,18.8,44c1.7,3.8,2.2,7.4,1,11.5c-3.5,13.2-6.7,26.5-10,39.8c-4.6,18.4-9.2,36.8-13.9,55.7
	C266.6,548.2,274.2,548,281.7,548.3z M351.3,392.9c5.2,0,10.3,0.1,15.4-0.1c2.4-0.1,3.3,1.3,4.3,3c14.2,24.6,34.4,42.8,59.5,55.7
	c4.1,2.1,5.2,4,3.6,8.7c-9.5,27.6-18.6,55.4-27.7,83.1c-1.2,3.5-2.5,5.4-6.7,5c-5.3-0.5-10.7-0.4-16,0c-4.5,0.3-5-0.9-3.5-5
	c9.8-26.5,19.4-53.1,29-79.7c0.7-2,1.6-3.9,1.8-6c0.5-4.3-2-7.1-5.3-9.3c-8.7-5.8-17.4-11.5-25.9-17.6
	C366.6,421.3,355,405.7,351.3,392.9z"/>
<path style="fill:#B95529;" d="M216.5,63.6c-11.2-6.2-21.7-9.1-32.9-8.6c-23,0.8-40.2,11.3-50.8,31.8c-2,3.9-4,5.1-8.1,4.9
	c-6.4-0.3-12.9-0.2-19.4,0c-2.9,0.1-4-0.5-3.5-3.7c4.8-31,39.7-55.8,70.8-50.7C190.2,40,204.6,47.9,216.5,63.6z M54.6,214.9
	c0.8-3.8-0.2-5.1-4.1-4.8c-3.6,0.3-7.2,0.2-10.8,0c-2.1-0.1-3.1,0.5-3,2.8c0.1,7.4,0,14.7,0,22.2C45.6,233.1,52.5,225,54.6,214.9z"
	/>
<path style="fill:#FCFCFC;" d="M256.2,431.1c13.9,15.8,3.7,32.1,0,48.4C256.2,463.2,256.2,446.9,256.2,431.1z"/>
<path style="fill:#790000;" d="M91.8,137.1c8.8,0,8.8,0,8.8,8.9c0,9.4,0,9.4-9.5,9.4c-8.8,0-8.8,0-8.8-8.9
	C82.3,137.1,82.3,137.1,91.8,137.1z"/>
</svg>
