<?xml version="1.0" encoding="utf-8"?>
<!-- Generator: Adobe Illustrator 24.0.0, SVG Export Plug-In . SVG Version: 6.00 Build 0)  -->
<svg version="1.0" id="Layer_1" xmlns="http://www.w3.org/2000/svg" xmlns:xlink="http://www.w3.org/1999/xlink" x="0px" y="0px"
	 viewBox="0 0 628 628" style="enable-background:new 0 0 628 628;" xml:space="preserve">
<path style="fill:#790000;" d="M374.6,548c4.8,1,9.5-0.1,14.2,1.2c13.4,3.6,22.3,14.6,22.5,28.4c0.1,6.3,0.1,12.6,0,19
	c-0.1,6.8-3.9,10.6-10.7,10.6c-64.6,0.1-129.3,0.1-193.9,0c-6.8,0-10.6-3.8-10.7-10.6c-0.1-6.3-0.1-12.6,0-19
	c0.2-16.3,12.9-28.9,29.2-29.2c11.8-0.2,11.8-0.2,14.3-11.6c2.8-12.7,5.2-25.5,8.2-38.2c0.9-3.9-0.3-4.7-3.5-5.8
	c-46.7-16.9-75.2-49.7-85.3-98.4c-1.7-8.4-2.1-16.9-2.1-25.5c0-84.8,0-169.7,0.1-254.5c0-5-0.7-6.9-6.4-6.7
	c-21.4,0.4-42.8,0.2-64.2,0.2c-15.1,0-26.5-10-27.3-24C58,70,67.6,58.7,82.2,56.4c10.5-1.6,20.9-3.5,31.3-5.1
	c3.3-0.5,5.2-1.6,6.4-5.2c5.7-16.4,19.9-26.4,37.1-26.5c16.1-0.1,32.2-0.1,48.3,0c27.6,0.1,49.2,21.7,49.3,49.3
	c0.1,79.3,0.1,158.6-0.1,238c0,5.3,1.2,6.6,6.5,6.6c53.2-0.2,106.4-0.2,159.7,0c4.5,0,7.5-1.3,10.6-4.5c15.1-15.5,33.6-24.1,55.3-25
	c9.1-0.4,12.9,3.2,12.7,12.2c-0.4,25.9,1.8,51.9-1.2,77.6c-6.6,55.7-37.1,102.4-92.4,119.8c-5.6,1.8-11.4,2.9-17.2,4.1
	c-2.3,0.5-3.5,1.1-4.1,3.6C381.2,516.9,377.9,532.4,374.6,548z"/>
<path style="fill:#FCB392;" d="M417.3,401.5c-53.8,0-106.6,0.2-159.4-0.1c-17.9-0.1-32.5-15.8-32.6-33.9
	c-0.1-18.2,14.1-34.1,32.1-34.4c35.1-0.5,70.1-0.3,105.2,0c13.5,0.1,26.5,7.7,34.9,18.7c-1.6,1.4-3.5,0.7-5.1,0.7
	c-27.7,0.1-55.5,0.2-83.2-0.1c-4.6,0-5.7,1.1-5.6,5.7c0.3,14.1,0,14.1,14.2,14.1c28.3,0,56.7,0.1,85-0.1c3.7,0,5.3,1,6.3,4.6
	C411.4,384.8,414.4,392.8,417.3,401.5z"/>
<path style="fill:#F6A100;" d="M391.7,585.7c-0.9,2.8-2.9,1.7-4.4,1.7c-14.9,0.1-29.8,0.1-44.6,0.1c-14.5,0-29-0.2-43.4,0.1
	c-4.1,0.1-5.6-0.7-5.5-5.2c0.2-11.6,2.8-14.4,14.4-14.4c23.6,0,47.3,0,70.9,0C389.3,567.9,394.7,575.7,391.7,585.7z M156.8,43.1
	c0.1-4.2-1.7-4.2-4.8-3.3c-8.4,2.2-14,9-14.9,18c-0.7,7.1-2.9,9.7-9.9,10.9c-13.8,2.4-27.6,4.8-41.5,7c-4.1,0.6-7.4,2-7.2,6.6
	c0.2,5,3.9,6,8.3,5.9c10.8-0.1,21.6,0,32.4,0c11,0,22-0.1,33,0.1c3.2,0,4.7-0.5,4.6-4.2C156.6,70.4,156.6,56.8,156.8,43.1z
	 M224.5,568.1c-7.4,0.2-12.5,11.5-8.9,18.3c0.8,1.4,2,1.1,3.1,1.1c17.3,0,34.7,0,52,0.1c2.6,0,3.7-0.7,3.5-3.4
	c-0.3-5.3-0.1-10.5,1.4-16.1C258.3,568,241.4,567.7,224.5,568.1z M351.3,548.4c2.1,0,3.3-0.4,3.7-2.8c2.3-12.1,4.9-24.2,7.3-36.3
	c3.3-9.8,3.3-9.8-6.8-9.8c-0.4,0-0.8,0-1.2,0c-9.4,0-9.4,0-10.3,9.8l0,0c-2.9,12.9-5.9,25.8-8.9,39.2
	C341.2,548.3,346.3,548.3,351.3,548.4z M276.5,499.2c-9.4-0.6-9.4-0.6-10.9,8.8c-0.1,0.4,0,0.8,0.1,1.2h0c-2.7,12-5.4,24.1-8.1,36.1
	c-0.3,1.3-1,3,1.4,3c5.1,0,10.2,0,15.2,0c1.9,0,2.2-1.3,2.5-2.8c2.4-12.1,4.9-24.2,7.4-36.3c1.6-2.9,1.6-6.2,2.4-10
	C283,499.2,279.7,499.4,276.5,499.2z"/>
<path style="fill:#FED3B7;" d="M479.9,309.5c0.2-4.9-1.4-5.1-5.5-4.1c-14,3.5-24.8,11.9-34.2,22.4c-3.4,3.8-7.3,5.5-12.4,5.2
	c-6.5-0.3-13.1-0.1-20.7-0.1c8.8,8.9,14.1,18.1,17.6,28.5c5,14.8,9.7,29.7,14.9,44.5c2,5.8,1.1,10.3-3.7,14.1
	c-2.7,1-5.5,1.1-8.4,1.1c-48.8,0-97.7-0.1-146.5,0c-17.8,0-35.8,1.2-51.9-8.6c-11.8-9.7-19.9-21.7-23-36.9h0
	c-0.2-3.2-0.3-6.4-0.5-9.7c0.8-4.9,1.6-9.8,2.4-14.7c4.8-13.1,12.6-23.6,24.9-30.5c2.3-1.3,2.2-3.1,2.2-5.1
	c0-82.5,0-165.1-0.1-247.6c0-15.9-13-28.5-28.9-28.8c-7.7-0.1-15.5,0.3-23.2-0.1c-5.2-0.3-6.7,1-6.7,6.5
	c0.2,95.8,0.1,191.6,0.2,287.4c0,12.6,0.1,25.3,0.2,37.9c-0.5,14.5,2.2,28.4,8.2,41.7c0,1.4,0.5,2.6,1.5,3.6
	c1.8,5.5,4.8,10.5,8.3,15c-0.1,0.4,0,0.7,0.4,0.9c2.2,3.6,4.4,7.3,7.8,10c0.6,2.3,2.3,3.6,4.1,4.8c11.3,12,24.6,20.9,40.3,26
	c2.1,1.7,4.8,2.1,7.3,2.5c5.3,1.5,10.4,3.6,16.1,3.1c1.6,0.5,3.1,1.7,4.9,1c4.1,0,8.2,0,12.3,0c3.7,0,7.3,0,11,0c4.5,0,9,0,13.5,0
	c3.7,0,7.3,0,11,0c4.5,0,9,0,13.5,0c3.7,0,7.3,0,11,0c4.5,0,9,0,13.5,0c2,0,4.1,0,6.1,0c10.5,0.5,20.9-0.6,30.7-4.6
	c2.7,0,5.2-0.6,7.3-2.4c18.9-6.7,34.1-18.3,46.8-33.9c15.9-19.4,23.3-42,26.5-66.2C481.3,351.5,479.2,330.5,479.9,309.5z"/>
<path style="fill:#E2E2E0;" d="M275,446.2c-0.8,0.4-1.6,0.8-2.5,1.3C273.3,447,274.1,446.5,275,446.2z"/>
<path style="fill:#E2E2E0;" d="M309.5,499.4c-1.7,0-3,0.1-3.5,2.4c-3.2,15.6-6.6,31.2-9.9,46.6c5.5,0,10.5,0,15.4,0
	c2.1,0,3.7,0.2,4.3-2.8c3.1-15.3,6.5-30.5,9.8-46.2C320,499.4,314.8,499.4,309.5,499.4z"/>
<path style="fill:#790000;" d="M206.2,58.9c9.3,0,9.3,0,9.3,9.1c0,10.5,0,10.5-10.3,10.5c-9.3,0-9.3,0-9.3-9.1
	C195.9,58.9,195.9,58.9,206.2,58.9z"/>
</svg>
