<?xml version="1.0" encoding="utf-8"?>
<!-- Generator: Adobe Illustrator 24.0.0, SVG Export Plug-In . SVG Version: 6.00 Build 0)  -->
<svg version="1.0" id="Layer_1" xmlns="http://www.w3.org/2000/svg" xmlns:xlink="http://www.w3.org/1999/xlink" x="0px" y="0px"
	 viewBox="0 0 592 592" style="enable-background:new 0 0 592 592;" xml:space="preserve">
<path style="fill:#790000;" d="M498.1,102.8c2.1,4.3,4,8,5.8,11.7c8.6,17.3,17,34.7,25.8,51.9c3.9,7.5,5.1,14.8-0.6,21.4
	c-6.5,7.6-14.8,12.4-25.4,10.4c-9.4-1.8-15.9-7.9-17.5-16.9c-1.1-6.1-3.9-9-8.6-11.6c-3.3-1.9-6.5-4-11.4-7
	c23.3,53.8,25.7,105.1-8.7,154.5c13.2,4,26.2,7.8,39.1,11.7c3.1,0.9,6.2,2,9.4,2.6c15.6,3.2,23.4,20.8,17,35.6
	c-12.7,29.5-24.2,59.5-36.1,89.3c-1.3,3.2-3,5.7-5.5,7.9c-9.7,8.6-19.8,16.3-32.1,20.9c-5.7,2.1-11.5,2.9-17.5,1.7
	c-4.2-0.9-6.5-3-6.3-8c0.4-12.5,0.2-25,0.1-37.5c-0.1-4.8,1.9-6.5,6.5-6.4c7.5,0.2,15,0,22.5,0.1c3,0.1,4.1-0.6,4.8-3.9
	c3.5-18.6,7.4-37.1,11.2-55.9c-16.1-0.7-32-1.8-47.8-3.7c-3-0.4-4.3,0.5-5.6,3.4c-16.2,36.3-28.1,74.2-39.7,112.1
	c-1,3.2,0.1,4.2,2.9,5.3c12,4.7,19.4,13.4,21.9,26.1c1.3,6.8-0.6,8.9-7.3,8.9c-13.6,0-27.3-0.1-40.9,0.1c-4.9,0.1-7-1.8-7-6.8
	c0-8.1-2.6-15.5-7-22.2c-1.9-2.8-2.2-5.3-1.4-8.6c5.8-23.7,12-47.2,16.8-71.1c3-15.2,3.7-30.8,5.6-46.3c0.3-2.5-0.6-3.3-3.1-3.3
	c-23.9-0.5-47.1-4.9-69.8-12.3c-3.2-1-4.9-0.4-6.7,2.7c-7.8,13.9-17.7,26-31.3,34.8c-5.2,3.4-10.9,5.6-16.8,7.4
	c-0.2,2.2,1.6,3.1,2.6,4.2c9.3,10.3,18.4,20.7,28,30.7c7,7.2,9.9,15.8,10.6,25.5c1.1,15.9-1.4,31.4-5.7,46.7
	c-1.5,5.3-4.6,6.3-8.8,2.6C247,499.7,234,488,220.9,476.5c-3.6-3.1-3.5-6-0.1-9.2c3.5-3.3,6.6-7,10.3-10.1c3.4-2.8,2.5-4.3-0.5-6.8
	c-16.9-13.9-33.8-27.9-50.5-42.1c-2.7-2.3-5.2-2.7-8.7-2.5c-7.7,0.5-12.3,3.8-16.2,10.7c-14.3,24.9-29.4,49.4-44.3,74.3
	c11.6,4.6,20,12,23.5,24.3c0.6,2.3,0.7,4.5,0.8,6.8c0.1,3.6-1.6,5.3-5.2,5.3c-15,0-30,0-45,0c-3.6,0-5.1-1.8-5.2-5.3
	c-0.3-8.6-2.6-16.6-7.4-23.8c-1.9-2.8-2-5.4-0.7-8.6c14.9-35,29.6-70.1,44.3-105.2c0.9-2.2,2.2-3.9,4.3-5.1
	c13.2-7.4,18.1-19.7,19.5-33.9c1.7-16.8-3.4-32.6-7-48.6c-1.5-6.6-2.7-13.1-2.1-20.8c-7,4.8-9.8,11.4-11.6,18.3
	c-4.1,15.7-7.8,31.5-11.7,47.3c-7,28.4-31.1,47.3-60.2,47.2c-11.7,0-23.5,0-35.2,0c-3.1,0-5.9-0.1-6.1-4.2c-0.2-3.8,1.8-4.7,5.2-5.2
	c17.2-2.2,24.9-9.5,28.4-26.6c4.5-22.3,8.7-44.6,13.8-66.8c5.8-25.3,30-44.3,56.1-44.8c9.8-0.2,19.6-0.1,29.4,0
	c2.8,0,4.4-0.9,6.2-3.1c20-24.7,45.7-33.6,76.7-27.7c30.7,5.9,61.6,10.4,92.8,11.8c15.6,0.7,26.4-12.4,24.3-27.8
	c-8.6-60.3,21.4-111.3,81.1-127.8c32.1-8.9,60.4,1.6,85.6,21.9c2.1,1.7,4,3.5,6.1,5.3c2.1,1.7,2.3,4,1.6,6.3
	c-0.7,2.5-2.9,2.7-5.1,2.7C505,102.7,502,102.8,498.1,102.8z"/>
<path style="fill:#FBD0B5;" d="M521.1,171c-10.9-22.2-21.9-44.3-32.9-66.5c-1.2-2.5-3.3-4.9-2.1-8.1c1.1-3.1,4.4-2.6,7.3-3.4
	C468,77.3,443.7,77.9,421,94.9c-11.9,8.9-20,21.1-26.1,34.5c-9.9,21.6-13.9,44.4-14,68c0,5.3-0.6,10.3-2.9,15.1
	c-7,14.1-18.6,20.3-34.1,19.6c-1,0-1.9-0.1-2.9-0.1c-35.1,0.7-69.7-2.9-104.2-9c-14.4-2.6-28.7-6.3-43.9-3.9
	c-36.6,6-58,40.1-52.1,69.6c1.6,8.1,3.6,16.1,5.4,24.1c4.5,20.5,5.3,40.7-5.2,59.9c0,0,0,0,0,0c0,0,0,0,0,0
	c-3.8,5.5-8.1,10.7-14.2,13.9c-1.7,0.9-2.4,2.5-3.1,4c-13.9,32.8-27.7,65.6-41.5,98.5c-0.8,1.8-2,3.7-0.5,6
	c3.8,5.9,5.7,12.5,6.9,19.3c0.5,2.9,1.7,3.7,4.5,3.7c9.2-0.1,18.4-0.2,27.7,0c4.3,0.1,4.3-1.7,2.9-4.9c-3.5-8.4-10.3-11.9-18.7-13.4
	c-7.6-1.4-8.6-3.5-4.5-10.3c17.3-29,34.7-57.9,52-86.8c1.7-2.8,3.8-4.4,7.2-4.9c9.3-1.3,18.5-3.1,27.3-6.4
	c37.8-14,63.2-38.4,68.1-80.2c0.3-2.8,1.4-5,4.3-5.2c3.6-0.2,4.9,2.3,5.1,5.6c0.9,2.3,3.1,2.6,5.1,3.4c6.5,2.4,13.3,3.9,20,5.4
	c28.8,6.5,57.7,11.6,87.4,7.9c17.8-2.2,34.6-7.1,49.2-18c15.6-11.6,23.9-27.7,29.1-45.9c6.2-22,6.1-44.4,5.6-66.9
	c-0.2-10.2-0.7-20.3-3.8-30.2c-1.5-5-4.4-9.3-6.7-14c-1.3-2.7-2.7-5.4,0.2-7.8c2.8-2.4,5.3-0.8,7.8,0.8
	c10.5,6.6,21.1,13.3,31.7,19.8c3.5,2.1,5.5,4.5,4.9,8.8c-0.9,6.5,2.6,10.5,8,13.2c5.7,2.9,11.4,0.8,18.3-5.7
	C525.8,178.1,522.9,174.6,521.1,171z"/>
<path style="fill:#FFB594;" d="M264.4,311.6c20.3,6.6,41.2,11.1,62.4,14c12.6,1.7,25.1,2.8,37.7,2.1c20.2-1.1,39.9-4.7,57.2-16.2
	c18.4-12.2,27.9-30.4,32.9-51.3c5.7-24.5,5.8-49.2,3.6-74.1c-0.5-6.3-0.8-12.6-1.1-18.8c7.6,13.3,11.9,27.8,14.8,42.6
	c5.8,30.8,2.1,60.2-13.1,87.9c-3.3,6.1-7.5,11.6-11.6,17.1c-4.3,5.6-3.8,7.9,3.2,10c18.5,5.6,37,11.1,55.6,16.6
	c9.1,2.7,13.2,9.9,9.7,18.6c-12.1,30.4-24.4,60.8-36.7,91.2c-3.6,8.9-12,13.2-19.2,18.3c-5.7,4.1-11.8,7.9-19.3,8.3
	c-3.8,0.2-5.6-0.8-5.4-5c0.3-7.9,0.3-15.8,0-23.6c-0.2-4.3,1.6-5.1,5.4-5c6.9,0.2,13.8,0,20.7,0.1c3.6,0,5.6-1.4,6.3-5.1
	c4.5-22.3,9.1-44.5,13.6-66.8c0.8-4.2-1.3-6.6-5.8-6.6c-12.3,0-24.5-1.2-36.7-2.2c-13.2-1-26.3-2.7-39-6c-5.4-1.4-10.3-0.4-15.3,0.3
	c-40.1,5.8-77.9-3.7-115-17.4c-9.9-3.7-9.7-3.9-7.4-14.3C262.9,321.4,263.6,316.5,264.4,311.6z"/>
<path style="fill:#FFB594;" d="M388.6,518.1c3.7,0.1,4.4-1.5,3.1-4.6c-3.7-8.6-10.4-12.9-19.6-13.8c-5.7-0.6-7.1-2.4-5.4-7.8
	c6.8-22,13.4-44,20.5-65.8c5.7-17.7,13.7-34.6,20.6-51.8c1.4-3.4,1-4.3-2.8-5.7c-10.7-3.9-21.2-0.1-31.7-0.1c-1.8,0-2.7,1.4-2.8,3.1
	c-0.4,4.6-0.6,9.2-1.3,13.7c-1.7,12.3-1.7,24.8-4.6,37c-4.8,20.5-9.7,40.9-14.9,61.3c-1.5,5.9-1.6,11.1,1.7,16.5
	c2.3,3.7,3.6,8.1,4,12.5c0.4,4,1.9,6.3,6.6,5.7c4-0.5,8.1-0.1,12.1-0.1C379,518.1,383.8,518,388.6,518.1z"/>
<path style="fill:#FFB594;" d="M204.8,417.3c12.5,10.4,25.1,20.7,37.6,31.1c3.9,3.2,4.6,6.2,0.5,9.9c-3.7,3.3-7,7.1-10.7,10.5
	c-1.8,1.7-2.6,3-0.3,5c9,8,17.9,16.2,26.9,24.3c1.9,1.7,2.9,1.4,3.4-1.1c0.9-4.7,2.2-9.3,2.7-14c1.8-17.3,1.4-33.6-13.5-46.8
	c-11.5-10.3-21-22.8-31.4-34.3c-1.4-1.5-2.5-3.1-1.6-5.1c0.9-2.1,2.6-3.2,5-3.2c2.1,0,4.2-0.1,6.3-0.6c21.2-5,33.5-20.3,44-37.8
	c1-1.7,0.9-2.6-1.3-3.3c-4.4-1.4-8.7-2.9-12.9-4.7c-2.8-1.2-4.1-0.4-5.4,2.1c-3.7,6.7-7.9,13.1-13.1,18.8
	c-14.8,15.9-32.5,27.2-53.9,34.4C193.4,407.7,199.1,412.5,204.8,417.3z"/>
<path style="fill:#B95529;" d="M52.4,379.6c1.8,0,3.6-0.5,4.9-1.6c6-4.9,11.6-10.2,13.2-18.2c4.3-20.5,8.7-41,12.6-61.7
	c2.7-14.7,7.3-28.2,18.9-38.2c3.6-3.1,7.7-5.8,12.5-9.4c-2.7,0-4-0.1-5.3,0c-1.5,0.2-3,0.7-4.5,0.9c-20.8,2.3-34.9,13.3-41.1,33.1
	C58,302.3,56,320.8,52,338.9c-3.1,14-3.3,29.2-15,40.7C42.1,379.6,47.3,379.6,52.4,379.6z"/>
<path style="fill:#B95529;" d="M421.3,75.6c-19.6,5.7-36.1,16.4-50,31.3c-15.2,16.4-23,35.9-23.9,58.1c-0.4,9.9-0.6,19.9,0.9,29.8
	c1.5,10.4-3,19.3-9.8,27.4c7.1,1.3,12.9,0.6,17.3-5.3c5.2-7,7.4-14.7,6.3-23.2c-1.6-12.8-1.7-25.6,0.1-38.3
	c3-20.9,11.9-39,26.5-54.3c10.3-10.8,22.6-18.8,35.8-26.1C423.5,75.3,422.4,75.3,421.3,75.6z"/>
<path style="fill:#790000;" d="M485.7,125.8c0,4.3-5.2,9.4-9.4,9.2c-4.1-0.1-8.9-5-8.9-9.1c0-4.3,5.2-9.4,9.4-9.2
	C480.9,116.8,485.7,121.7,485.7,125.8z"/>
</svg>
