<?xml version="1.0" encoding="utf-8"?>
<!-- Generator: Adobe Illustrator 24.0.0, SVG Export Plug-In . SVG Version: 6.00 Build 0)  -->
<svg version="1.0" id="Layer_1" xmlns="http://www.w3.org/2000/svg" xmlns:xlink="http://www.w3.org/1999/xlink" x="0px" y="0px"
	 viewBox="0 0 610 610" style="enable-background:new 0 0 610 610;" xml:space="preserve">
<path style="fill:#790000;" d="M351,453.6c-3.1,1.5-5.2,2.5-7.3,3.6c-1.8,0.9-3.9,1.6-5.5-0.1c-1.6-1.8-0.7-3.7,0.5-5.4
	c4.9-7.5,7.6-16,10.9-24.3c-2.7-1.1-5.1,0.7-7.6,0.5c-2-0.1-4.1-0.1-5.2-2.1c-1.1-1.9,0.3-3.4,1.4-4.8c6.3-8,10.1-17.4,14.8-26.2
	c1.8-3.4,1.1-4.4-2.5-5.4c-19-5.4-38.2-10-56.7-17.1c-4.6-1.8-8.9-4-15.1-6.7c4.1,5.2,7.2,9,10.3,12.9c-10.7,0-22.6-5.2-29.4-12.6
	c-0.7-0.7-1.3-1.5-2-2.2c-3.5-3.7-7.9-7.7-12.4-7.3c-5,0.4-4.8,7-6.3,11c-2.2,5.7-4.2,11.5-5.6,17.5c-4.5,18.4-12.9,35.1-22.1,51.5
	c-9.7,17.5-10.3,36.2-5,55.2c1.8,6.4,5.7,11.2,11.3,14.6c4.7,2.9,9.6,5.5,14.4,8.2c3.3,1.9,6.1,4.5,7.9,7.9
	c2.9,5.6,1.2,11.1-4.9,12.8c-9.7,2.8-19.7,4.4-29.8,4.1c-6.6-0.2-11.8-3.3-15.1-9c-5.2-9.1-10.1-18.3-15.1-27.5
	c-3-5.4-6.3-10.5-10.7-14.9c-10.6-10.7-13.2-23.4-8.7-37.7c6-19.1,9.3-38.4,6.5-58.5c-0.9-6.4-3.5-12.1-6.8-17.5
	c-11-18.3-21.7-36.7-27-57.7c-1.6-6.5-2.6-13-3.9-19.6c-2.7,18.8-0.1,37,6.2,54.8c2.5,6.9,4.9,13.8,8.3,20.3
	c10.1,19.3,10.8,39.4,5.7,60c-4.5,18.4-9.5,36.7-14.2,55.1c-1.1,4.4-1.1,9-0.1,13.5c2.2,9.6-1.6,15.4-11.4,16.7
	c-4.7,0.6-9.5,0.2-14.2,0c-3.8-0.1-5.7-3.1-7.5-6c-4.2-6.9-6.5-14.6-9.6-22.4c-10,7.4-20,14.2-23.2,27.4c-5.3-12-3.2-23.1,8.8-47
	c-16.6,4.6-19.7,18.2-23.8,32.7c-9.1-22.7-6.4-42.7,7.5-61.3c-14.3,6.5-22,20.7-24.9,46.4c-11.2-16.3-14.4-32.8-8.1-51.1
	c-4.9,2.3-7.8,5.4-10.5,10.5c-2.4,4.6-2.2,9.9-3.9,15.2c-7.2-21.1-4.6-51.5,20.7-62.5c3.6-1.6,7.1-3.5,10.8-4.7
	c26-8.5,39.7-27.9,47.1-53c5.8-19.7,9-40.1,14.2-60c5.3-20.3,16.4-37.4,29.2-53.7c16.4-20.9,40.7-27.5,63.6-37.1
	c19.5-8.1,39.3-5.5,59.1-4.1c37.6,2.6,75.2,3.6,112.2-5.3c18.8-4.5,37.5-9.7,55-18.1c11.8-5.7,21.1-13.8,25.4-26.7
	c1.9-5.8,6.6-10.8,8-16.3c1.3-5.5-6.7-9-8.6-14.8c-1.4-4.4-2.9-8.6-2.7-13.3c0.1-3.3,1.4-6.6,0.5-10c-0.8-3-1.5-6-2.3-9.2
	c15.9,4.5,28.5,13.4,37.4,27.2c2.6,4.1,5.8,5.5,10.8,5.3c11.1-0.4,22.2,0.4,33,3.3c3.3,0.9,6.6,1.9,8.8,4.6
	c6.2,7.6,14.7,9.4,23.9,9.8c14,0.6,28.1,0.5,42,3.1c5.8,1.1,7.4,4.3,7.5,9.4c0.3,14.8-7.5,25.3-21.7,29.4c-9.7,2.8-19.7,4.2-29.1,8
	c-3.6,1.5-8.7,3-8,7.4c0.7,4,6.1,3.9,9.7,4c11.5,0.3,23,0.2,34.5,0.3c5.9,0.1,7.3,2.3,5.2,7.9c-3.3,8.7-9.2,12.6-18.7,12.3
	c-6.2-0.2-12.3-0.1-18.3,1.2c-11,2.5-12.7,5.3-9.6,16.1c2,6.8,4.5,13.5,5.6,20.6c2.2,14.3,0.5,28-5.4,41.2
	c-8.5,18.9-16.9,37.9-25.3,56.8c-1,2.3-1.6,5.5-4.9,5.1c-3.9-0.4-2.7-4.1-3.4-6.6c-0.4,0.2-1,0.3-1.1,0.5c-5,15.5-15.2,28-23.5,41.6
	c-1.8,2.9-2,5.5-1.1,8.9c6.1,23.5,11.6,47.2,18.2,70.6c4.7,16.8,13.3,31.6,27.1,43c3.7,3.1,6.9,6.5,8.8,11
	c3.1,7.6,0.5,13.3-7.2,15.9c-5.5,1.8-11.1,2.9-16.9,3.1c-9.3,0.3-16.9-2.7-21.9-11.4c-5.2-9.1-10.6-18.2-16.9-26.5
	c-11.3-15-15.4-33.2-23.1-49.8c-9.4-20-19.7-39.5-27.8-60.3c-0.9,10.6-0.8,21.4-5.7,32.3c-3.7-9.1-6.8-17.2-13-24.6
	c-4.3,9.7-5.4,19.6-7.9,29c-4.2,15.3-8.9,30.2-17.7,43.7c-6.5,10-8.1,21.3-5.1,33.1c0.6,2.3,1.2,4.6,1.5,6.9
	c1.3,8.3-2.9,13.9-11.3,14.8c-6.6,0.7-13.1,0-19.3-2.4c-7.9-3-9.5-10.2-10.1-17.4c-0.8-10.1,3.1-19.4,5.1-29.1
	C347.7,466.1,349.3,460.4,351,453.6z"/>
<path style="fill:#790000;" d="M471.4,82.8c13.6,1.8,21.2,11.9,32,19.7c-8.5,1-15.2,1.7-20.2-5.9C479.9,91.6,475.3,87.4,471.4,82.8z
	"/>
<path style="fill:#790000;" d="M551.6,179.8c4.7-9.2,17-6.5,32.2,1.1C572.5,180.5,562.1,181.2,551.6,179.8z"/>
<path style="fill:#FFD3B7;" d="M501.3,240.8c0.6-3.8,1.2-7.3,1.9-11.8c4.5,6.9,8.4,13,12.8,19.8c6.5-14,8.9-29.9,24.7-37.3
	c0.7,12.9,7.2,24.1,7.9,36.6c0.6,10.1-0.2,19.8-4.1,29.1c-7.1,16.6-14.5,33.2-21.9,50c-2.1-3.3,0.4-8.9-4.6-9.1
	c-4.5-0.2-4.4,5-5.5,8.1c-6.2,17.3-13.3,34.1-26,48.3c-3.5-15.5-6.5-30.9-8.6-46.5c-2.3-16.8-8.2-31.9-20.2-44.5
	c-9.9-10.4-17.4-22.9-26.4-34.4c1.6,6,3.2,12,5.3,19.6c-7.1-7.8-13.4-14.2-19.2-21c-11.4-13.5-24.4-25.3-38.2-36.4
	c-5.8-4.6-9.6-10.4-10.7-17.8c-0.6-4.1,0.6-5.8,4.8-6.8c18.1-4.3,36.3-8.7,52.4-18.1c8.8-5.1,15-2.6,21.9,1.9c7,4.5,12,10.9,16,18.1
	c5.2,9.4,11.6,17.9,18.7,25.9c6.3,7.2,9.3,16.5,15.7,23.7C498.9,239,499.2,240.6,501.3,240.8z M469.4,368.2c2.1,9.2,3,18.8,2.4,28.3
	c-0.7,11.1-1.7,22.1-15.1,25.9c-2.7,0.8-1.4,2.6-0.6,4.2c3.4,7.3,6.8,14.7,10.3,22c6,12.6,8.6,26.6,17,38.2
	c6.7,9.3,12.4,19.3,18.5,28.9c6.8,10.8,11.7,13,24.3,10.4c4.2-0.9,10.5-0.1,11.8-5c1.5-5.4-3.4-9.3-7.4-12.5
	c-8.6-7-14.7-15.9-20.3-25.3c-9.6-16.1-11.8-34.7-16.8-52.2c-7.7-27.1-14.2-54.5-20-82.2C470.3,355.1,467.7,360.9,469.4,368.2z
	 M358.3,453.7c-3.2,13-6.9,26-9.1,39.2c-2.6,15.9,1.2,20.2,15.3,21.3c10,0.8,12.7-2.1,10.1-11.8c-3.7-14-2.4-27.7,5.5-39.8
	c9.2-14,13.5-29.6,17.5-45.6c0.4-1.8,1-3.4-1.1-4.6c-10.5-6.2-21-12.6-31.5-18.7c-1.8-1.1-3.7-1.7-5,1.4
	c-3.6,8.2-7.5,16.3-12.7,24.5c2.9-0.4,4.4-1.5,5.7-3c1.5-1.7,3-3.4,5.5-1.9c2.5,1.5,1.4,3.6,0.8,5.8c-2.5,8.4-5.8,16.6-9.2,24.9
	C360.3,442.9,360.8,443.6,358.3,453.7z M113,445.8c-3.7,13.1-6.9,26.5-17.8,36.1c-1.4,1.2-1.6,2.6-1,4.2c2.8,6.9,5.4,14,8.6,20.8
	c2.4,5.2,17.9,5.5,21.1,0.7c1-1.5,0.9-2.9,0.4-4.5c-2-6.9-1.4-13.7,0.4-20.5c3.8-14.5,7.9-28.9,11.6-43.5c2.3-9,4.9-18.1,3.8-29.2
	c-5.7,10-10.6,18.7-16.3,28.7c-0.4-11.7,1.2-21.7-2.6-31.5C118.8,420.1,116.5,433.1,113,445.8z M187.2,485.9
	c-7.1,7.9-6.1,14.4-1.1,23.2c14.4,25.5,10.7,25.4,41,20.9c1.4-0.2,2.7-0.6,4.1-0.9c4.4-0.7,4-2.9,1.8-5.7c-2.8-3.5-6.7-5.5-10.7-7.3
	c-14.2-6.3-22.4-17-24.4-32.4c-0.7-5.5-1.1-11-1.7-16.5C194,474.1,191.8,480.9,187.2,485.9z M557.9,147.9c0.8,4,2,8,3,12
	c0.3,1.2-0.1,3.1,2.3,2.4c8.7-2.5,18-3.1,26-7.6c4.8-2.7,7.5-7.2,7.4-12.6c-0.1-3.8-9.7-10.9-13.5-11.3c-12.8-1.4-25.7-0.5-38.6-1.9
	C551.5,133.7,556.2,139.7,557.9,147.9z"/>
<path style="fill:#F7F7F7;" d="M515.5,142.7c-1.2-0.1-3.2,0.5-3-2.1c0.1-1.6,7.8-10.1,9.1-9.7c3.4,0.9,4.5,4.2,5.8,6.9
	C528,139.4,520.4,142.6,515.5,142.7z"/>
</svg>
