<?xml version="1.0" encoding="utf-8"?>
<!-- Generator: Adobe Illustrator 23.0.3, SVG Export Plug-In . SVG Version: 6.00 Build 0)  -->
<svg version="1.0" id="Layer_1" xmlns="http://www.w3.org/2000/svg" xmlns:xlink="http://www.w3.org/1999/xlink" x="0px" y="0px"
	 viewBox="0 0 398.2 490.1" style="enable-background:new 0 0 398.2 490.1;" xml:space="preserve">
<path style="fill:#C26A42;" d="M29.8,391.6c0.4-3.2-0.7-4.3-4-3.4c-4.2,1.2-8.6,2-13.6,3.2c1.2-11,3.8-21.1,6.3-31.2
	c13-52.9,32.9-102.8,65.4-147c19.6-26.7,43-49.5,71-67.4c10.9-7,23-10.8,35.8-12.4c3.5-0.4,7.4,0.2,10.4-2.5c11.4,0.5,22.7,2,33,7.2
	c21.5,10.9,31.3,30.5,24.5,56.6c-4.8,18.8-14.8,34.9-26.9,50c-15.8,19.7-33.2,37.9-51.6,54.9c-41.6,38.5-87.6,70.3-142.6,86.9
	C34.2,387.5,32.7,390.4,29.8,391.6z"/>
<path style="fill:#7E3B13;" d="M29.8,391.6c0.9-4.4,4-5.5,8-6.7c26.2-7.7,50.4-19.8,73.6-34c37.4-23,69.6-52,99.3-84
	c15.2-16.4,30.2-33.2,39.8-53.9c5-10.8,8.5-21.9,9.1-33.7c0.8-16.4-12.1-34.6-27.6-40.8c-8.9-3.6-18.3-4.8-27.6-6.2
	c-1.2-0.2-2.4-0.3-3.1-1.5c6.2-9.8,16.7-14.8,24.6-22.6c4.3-2.9,9.7-2.1,14.3-4.4c2-1,3.4,0.7,3.6,2.8c0.2,1.2-0.1,2.4-0.3,3.6
	c-1,7.1-0.7,7.5,5.7,4.6c3.6-1.6,5.9-1.2,6.9,2.7c0.8,2.9,2.4,3.2,5,2.6c4.7-1.1,7.8,1,9.8,5.2c1.1,2.4,2.6,4.6,4,6.8
	c1.2,1.7,2.7,2.7,4.6,1.2c3.4-2.6,4.6-0.3,5.7,2.4c0.6,1.3,1.1,2.6,1.6,3.9c2.1,5.1,2.2,5.1,6.4,1.1c3.8-3.6,4.8-3.4,6.3,1.6
	c0.4,1.4,0.6,2.8,0.9,4.2s0.3,2.8,0.9,4.2c-0.2-1.1-0.5-2.2-0.2-3.3c0.7-2.4,0.2-6.1,3.3-6.4c2.2-0.2,2.5,3.2,3.3,5.2
	c1.7,4.2,4,7.8,8,10.4c1.7-2.3,0.9-4.6,1-6.7c0.4-6.4,2.5-7.6,8-4.5c1.3,0.7,2.2,1.7,3.3,2.7c11,17.6,15.5,36.3,9.9,56.8
	c-3,11.1-9.1,20.3-18.1,27.4c-7.6,6-13.9,13.1-18.4,21.6c-23,43.1-50.8,82.9-83.7,119c-3.2,3.6-5.5,7.7-6,12.4
	c-1.4,11.5-7.5,19.4-17.5,24.6c-2.8,2.8-5.9,3.5-9.5,1.7c-12.6-2.4-22.8-12.7-24.5-25.3c-0.8-5.9-2.7-10.7-8.7-12.6
	c-5.7-1.8-10.1,0.4-14.1,4.7c-6.4,6.9-14.9,10.4-23.6,13.1c-7.4,2.3-12.2,6.4-15.1,14.1c-7.5,19.9-34.3,57.8-48,69.5
	c-9.9-14.4-5.9-30-4.1-45.8c-6.2,3.6-12.2,6.7-19.1,7.3c-2.8,0.3-4-0.3-3.6-3.6C25.6,419.2,26.8,405.3,29.8,391.6z"/>
<path style="fill:#E4E5E6;" d="M327.8,148.1c-3-1.1-6-2.2-9.5-3.5c0,5.3,0,10.2,0,15.8c-8.9-3.7-11.3-11.3-14.2-19.7
	c-1.1,4.9-2,8.6-3.3,14.2c-1.6-6.2-2.7-10.7-3.8-15.2c-0.4,0.1-0.9,0.1-1.1,0.4c-2.2,2.6-4,7-7.4,6.5c-3-0.5-2.5-5.4-4-8.2
	c-0.9-1.6-1.3-3.4-2-5.1c-5.7,5.1-6.3,5-10.2-1.9c-1.3-2.3-2.6-4.6-3.9-6.9c-1.6-2.9-4.4-4.4-7.1-3c-5.3,2.6-6.6,0-7.2-4.4
	c-0.1-0.8-0.6-1.5-1-2.2c-3.9,2-8.3,5.5-11.7,3.1c-2.9-2,0.6-6.9,0.9-10.6c0.1-0.8,0.1-1.6,0.2-3c-5.7,2.2-10.9,4.9-16.8,3.9
	c1.3-3.8,4.6-6.2,7.2-8.8c9.5-9.4,10.9-22.1,14.4-33.9c4.3-14.5,10.6-28.1,22-38.5c14.6-13.3,31.9-14.4,50-9
	c10.9,3.3,20.9,8.6,30.1,15.4c1.4,1,2.5,2,2.8,3.7c-0.6,1.4-1.9,2.1-3.3,2.4c-10.5,2.5-19,8.7-27.3,15.7c8.5,2.4,16.2,6.6,24.8,8.3
	c1.3,0.3,2.8,0.6,3.5,2.1c-4.9,8.8-12.5,15.2-20.3,21.2c-13,9.9-15.4,16.2-11.9,32.6C319.8,129.4,323.3,139,327.8,148.1z"/>
<path style="fill:#DB8B0B;" d="M349.9,65.6c-11-0.5-19.9-7.7-31.5-9.1c9.8-10,20.8-16.6,33.9-19.5c11.7-0.7,20.8,4.3,28.1,12.9
	c7.4,8.7,7.4,19.1,0.4,28.2c-3.9-10.3-11.1-15.8-22.6-11.9C355.7,67.2,352.6,67,349.9,65.6z M184.4,411.7c3.2-0.6,6.4-1.2,9.5-1.7
	c-0.1,3.4-0.4,6.9-0.1,10.2c0.7,8.7,5.3,12.9,13.9,13.2c12.1,0.5,24.1,0.9,36.2,1.4c2.6,5,8.1,4.1,12.1,6.1c0.3,5.1-3.7,5.9-7.1,6.6
	c-4.6,1-9.2,0.4-13.8-0.9c-17.7-5.3-35.6-7.1-53.7-1.8c-4.1,1.2-8.2,1.9-12.6,1.7c-3.6-0.1-5.7-1.7-6.2-5.3
	c-0.6-3.4,1.1-5.1,4.2-6.3c6-2.2,11.2-5.6,14.8-11C184.2,420.1,184.8,416,184.4,411.7z"/>
<path d="M243.9,434.8c1,8.1,7,6.2,12.1,6.1c4.9-1.2,9.1,2,13.9,2.7C266.7,434.9,252.2,430.2,243.9,434.8z M298.9,35
	c-4.5-0.1-7.2,2.8-7.2,7.1c0,4.1,2.6,6.9,6.7,7.1c4.5,0.2,7-2.5,7.7-7.1C305.6,38,303.4,35.1,298.9,35z"/>
</svg>
