<?xml version="1.0" encoding="utf-8"?>
<!-- Generator: Adobe Illustrator 23.0.3, SVG Export Plug-In . SVG Version: 6.00 Build 0)  -->
<svg version="1.0" id="Layer_1" xmlns="http://www.w3.org/2000/svg" xmlns:xlink="http://www.w3.org/1999/xlink" x="0px" y="0px"
	 viewBox="0 0 469 699.7" style="enable-background:new 0 0 469 699.7;" xml:space="preserve">
<path style="fill:#DA0001;" d="M403.2,305.6c-2.8,33.4-18.8,60-43,82.4c-10.1,9.3-22,15.8-33.1,23.7c-2.4,2.8-5.7,2.5-8.8,2.5
	c-53.4,0.1-106.9,0.1-160.3,0c-3.1,0-6.4,0.4-8.8-2.5c-2.6-3-6.3-4.3-9.5-6.4c-32.4-20.3-55.6-47.5-64.4-85.6
	c-1.1-4.6-1.4-9.4-2.1-14.1c2.6-2.5,5.9-2.2,9-2.2c104-0.1,208-0.1,312,0C397.3,303.3,400.6,303,403.2,305.6z"/>
<path style="fill:#9B9B9B;" d="M290.9,432.4c10.2,31.7,20.4,63.4,30.7,95c16.2,49.5,32.5,99,48.7,148.4c3.3,10,0.5,17.4-7.7,20.2
	c-8,2.8-14.9-1.5-18.2-11.5c-10.1-31-20.3-62-30.3-93c-1.5-4.7-3.4-6.7-8.8-6.7c-45,0.3-90,0.2-134.9,0c-4.3,0-6.2,1.1-7.5,5.4
	c-10.2,31.9-20.7,63.7-31.2,95.6c-2.5,7.5-7.9,11.6-14.5,10.9c-6.6-0.7-10.6-4.7-12.3-11c-1-3.7,0.5-7.1,1.7-10.6
	c18.2-55.5,36.3-111,54.5-166.6c8.3-25.4,16.6-50.8,24.9-76.2c9.1-4.2,18.5-2.2,27.8-1.3c3.6,3,1.1,6.3,0.2,9.3
	c-8.3,26.2-16.7,52.3-25.6,78.3c-3.2,9.4-5.9,19.1-9,28.6c-2.7,8.2-2.5,8.5,5.9,8.5c31.8,0,63.5,0,95.3,0c3.9,0,7.7,0,11.6,0
	c7.2-0.1,7.6-0.7,5.5-7.5c-8-25.5-16.4-51-25-76.3c-3.6-10.5-7-21.1-10.1-31.8c-0.8-2.9-2.5-6.1,0.6-8.8
	C272.5,429.9,281.8,428.4,290.9,432.4z"/>
<path style="fill:#B74414;" d="M172.5,283.8c-25.4-9.1-47.7-23.3-65.8-43.2c-13.2-14.4-6.4-34.5,12.4-40.1c11-3.3,21.1-2.2,29.8,5.8
	c47.3,43.3,108.2,44.7,162.6,16.9c7.9-4,15.3-8.8,22.4-14.2c12.8-9.8,29.3-8.1,38.9,3.8c9.5,11.9,7.7,28.7-4.9,38.7
	c-18.1,14.3-38.1,25.2-60.1,32.2c-2.3,3.2-5.7,3.4-9.1,3.4c-39.2,0.2-78.4,0.1-117.7,0C177.7,287.2,174.4,287.1,172.5,283.8z"/>
<path style="fill:#921414;" d="M172.5,283.8c2.5,1.2,5.2,1.3,8,1.3c39.3,0,78.6-0.1,117.8,0c3.2,0,6.2-0.8,9.3-1.4
	c1.7,3.3,4.8,1.7,7.2,1.7c33.6,0.1,67.2,0.1,100.8,0.1c0.9,0,1.8,0,2.7,0c8.2,0.1,12.1,3.2,12.2,9.6c0.1,6.6-3.9,9.8-12.5,10
	c-5,0.1-10,0.3-14.9,0.5c-110,0-220,0-330,0c-4.5-0.1-9-0.3-13.5-0.4c-9.6-0.1-14-3.2-13.8-10.1c0.1-6.5,4.4-9.5,13.6-9.5
	c35.5,0,71.1,0,106.6-0.1C168.2,285.4,171,287,172.5,283.8z M290.9,432.4c-9.6,0-19.2,0.1-28.8,0.1c-15.8,3.2-31.6,3.4-47.3-0.1
	c-9.6,0-19.1,0-28.7,0c-16.9-0.1-33.9-0.2-50.8-0.3c-4.9,0-8.7-1.9-10.7-6.7c-1.7-4-0.7-7.5,2-10.7c2-2.4,4.7-3.3,7.8-3.3
	c5,0,9.9,0.1,14.9,0.1c26.3,0.1,52.5,0.2,78.8,0.2c33.1,0,66.1-0.1,99.2-0.2c5-0.1,10-0.3,15-0.1c6.5,0.2,10.5,4.2,10.6,10
	c0.1,6.3-4.2,10.6-11.4,10.7c-15.4,0.1-30.9,0-46.3,0C293.6,432.2,292.2,432.3,290.9,432.4z"/>
<path style="fill:#E2B31F;" d="M345.8,76.4c-0.3-26.7-14.1-46.2-33.8-62.3c-3.7-3-7.8-5.7-14.1-6.8c2.3,1.9,3.5,2.9,4.7,4
	c17.2,15.9,27.8,34.5,24.4,58.9c-1.8,13.2-8.2,24.3-15.4,35.2c-20.6,31.5-14.7,69.9,14.8,94.5c0.7-2.1,0-3.6-0.3-5.1
	c-6.4-33-5.8-64.9,13.2-94.4C343.8,93.2,345.9,85,345.8,76.4z M81.9,8c0.5,1.1,0.5,1.4,0.7,1.5c1.5,1,3,2,4.5,3.1
	c15.9,12.3,26.7,27.1,24.3,48.6c-1,9.2-4.9,17.4-9,25.5c-6.2,12.3-10.6,25.2-9.5,39.1c1.7,20.9,13.5,35.9,29.8,48.3
	c-5.5-15-9-30.4-9.6-46.3c-0.8-20.1,3.9-39,12.7-57.1c5.5-11.3,7.3-23.1,0.4-34.5C116.3,19.6,99.9,13.2,81.9,8z M64.9,104.5
	c-2-12-6.3-23-14.3-32.3c1.8,6.3,2,12.5,2.1,18.9c0.3,17.1-4.6,32.8-12.7,47.4c-17.8,32,0.9,63.6,24.9,81.4
	c-4.5-8.6-7-16.5-9.2-24.5c-5.1-18.5-6.9-36.7,3.5-54.6C65.6,129.8,67,117.2,64.9,104.5z M264.7,113.5c-2.3,4.4-4.6,8.8-5,13.9
	c-1,13.8,6.5,35.1,16.4,45.7c-0.2-0.8-0.2-1.5-0.5-2.1c-7.7-18.8-7.1-37,3.1-54.8c3.8-6.7,6.7-13.9,8-21.6c2-12.1,1.3-23.9-8.8-34.3
	C277.9,82.5,275.1,93.7,264.7,113.5z"/>
</svg>
