<?xml version="1.0" encoding="utf-8"?>
<!-- Generator: Adobe Illustrator 23.0.3, SVG Export Plug-In . SVG Version: 6.00 Build 0)  -->
<svg version="1.0" id="Layer_1" xmlns="http://www.w3.org/2000/svg" xmlns:xlink="http://www.w3.org/1999/xlink" x="0px" y="0px"
	 viewBox="0 0 612.2 612.2" style="enable-background:new 0 0 612.2 612.2;" xml:space="preserve">
<path style="fill:#E21F2D;" d="M122.3,404c5.8,3.7,10.8,6.8,15.7,10.2c2,1.4,3.8,1.5,6,0.5c5.4-2.4,10.9-4.6,17.2-7.2
	c-1.6,6.2-2.9,11.8-4.5,17.2c-0.9,2.9-0.5,4.9,1.6,7.2c3.9,4.1,7.5,8.6,11.7,13.4c-6.9,0.5-13.1,1-19.4,1.3
	c-1.9,0.1-2.9,0.7-3.9,2.4c-3.1,5.4-6.4,10.6-10,16.5c-2.4-6.1-4.7-11.5-6.6-17.1c-0.9-2.6-2.5-3.8-5.1-4.3
	c-5.7-1.2-11.4-2.6-17.8-4.1c5.2-4.2,9.7-8.1,14.4-11.7c1.9-1.5,2.7-3,2.4-5.5C123.3,416.8,122.9,410.8,122.3,404z M249.6,480.4
	c2,5.9,3.8,11,5.4,16.1c0.7,2.3,1.8,3.5,4.3,4.1c5.3,1.3,10.5,3,16.4,4.8c-4.5,3.3-8.4,6.4-12.6,9.2c-2.8,1.9-4,4-3.7,7.5
	c0.4,4.9,0.1,9.9,0.1,15.3c-3.8-2.7-7.8-5-11.2-8c-3.5-3-6.6-3.2-10.7-1.4c-4.1,1.9-8.4,3.1-13.4,4.9c1.8-5.7,3.2-10.7,4.9-15.5
	c0.9-2.6,0.9-4.6-1.1-6.9c-3.4-4-6.5-8.3-10.3-13.3c6.4,0,12-0.1,17.5,0c2.1,0.1,3.5-0.6,4.6-2.4C242.8,490.2,246,485.7,249.6,480.4
	z M380.5,227.8c-3.1-5.3-5.9-10-8.4-14.8c-0.9-1.8-2-2.6-4.1-2.7c-5.4-0.3-10.9-0.9-17-1.5c3.9-4.4,7.2-8.5,11-12.1
	c2-1.9,2.2-3.6,1.5-6c-1.3-5-2.4-10.1-3.7-15.8c5.1,2.3,9.7,4.1,14,6.4c3,1.6,5.3,1.3,8-0.5c4-2.7,8.2-5,12.8-7.8
	c0.2,5.6-1,10.6-1.5,15.7c-0.3,3,0.5,5,2.8,6.8c3.8,3,7.5,6.4,11.8,10.1c-5.9,1.2-11.1,2.4-16.2,3.3c-2.3,0.4-3.7,1.5-4.6,3.8
	C385.1,217.5,382.9,222.3,380.5,227.8z M246.5,284.4c-2.9-2.1-5.3-1.2-7.7,1.1c-3.1,2.8-6.4,5.4-9.6,8c-0.5,0.4-1.1,1.2-2,0.8
	c-0.9-0.4-0.6-1.3-0.6-2c-0.1-4.7-0.2-9.4-0.2-14.1c0-1.6-0.4-2.9-1.9-3.8c-3.5-2.1-6.9-4.3-10.3-6.4c-1.2-0.9-2.4-1.8-4.2-3.1
	c5.2-1.9,9.9-3.8,14.8-5.4c2.6-0.8,3.9-2.3,4.5-4.9c1.1-4.9,2.5-9.8,4-15.3c3.7,4.7,7,8.8,10.1,13.1c1.3,1.8,2.8,2.5,5.1,2.3
	c5.2-0.5,10.4-0.6,16.5-1c-2.8,4.1-4.9,7.9-7.7,11.1c-3.6,4.2-3.3,8.1-0.4,12.2c2.9,2.4,2.7,6.2,3.6,9.3c0.6,2.1-1.5,2.5-3.3,1.2
	l0,0c-2.5-0.9-5.5-0.3-7.7-2.2C248.5,285.1,247.5,284.8,246.5,284.4z M304.5,64.8c-5.2,0.4-9.5,1.1-13.8,1c-3.8,0-6.1,1.1-7.7,4.7
	c-1.9,4.1-4.5,7.9-7.1,12.3c-2.2-5.2-4.3-9.8-6-14.5c-0.9-2.4-2.3-3.3-4.6-3.8c-4.9-0.9-9.7-2-15.4-3.2c4.3-3.7,8-7.1,11.9-10.2
	c1.9-1.5,2.6-3.1,2.3-5.5c-0.7-4.9-1-9.9-1.6-15.6c4.7,2.8,9,5.1,12.9,7.9c2.4,1.7,4.4,1.7,6.9,0.4c4.3-2.1,8.8-4,13.8-6.2
	c-1.2,5.1-2.1,9.7-3.4,14.2c-0.8,2.9-0.7,5.2,1.7,7.5C297.8,56.9,300.7,60.5,304.5,64.8z M498.2,125c-3.9-4.4-7.4-8.1-10.7-12
	c-1.5-1.8-3.1-2.1-5.4-1.8c-4.9,0.8-9.9,1.3-15.5,2c2.8-4.9,5-9.3,7.8-13.3c1.7-2.5,1.5-4.5,0.1-7c-2.2-4.1-4.1-8.4-6.3-13.1
	c4.6,0.1,8.6,1.5,12.6,2.5c4.1,1,7.4,1,10.3-2.8c2.1-2.7,5-4.7,7.5-7c0.5-0.5,1-1.3,1.9-0.9c0.8,0.4,0.5,1.4,0.6,2.1
	c0.3,3.8,0.6,7.6,0.9,11.4c0.2,2.8,1.1,4.9,4,6.3c4.2,2,8.2,4.5,12.7,7.1c-3.6,2.8-7.7,4.1-11.6,5.6c-3.6,1.4-5.7,3.2-6.2,7.2
	C500.3,115.5,499.2,119.8,498.2,125z M8.2,375.7c5.2-2.9,9.5-5.4,13.9-7.7c1.9-0.9,2.5-2.1,2.6-4.1c0.4-4.9,1-9.8,1.6-15.6
	c3.9,3.7,7.5,6.8,10.8,10.2c1.8,1.8,3.4,2.5,6,1.7c4.6-1.3,9.4-2.1,14.7-3.2c-1.9,4-3.1,7.7-5.1,10.9c-2.6,4.1-2.3,7.6,0.5,11.4
	c2.2,3,3.8,6.5,6,10.4c-5.3-0.7-10-1.1-14.6-1.9c-2.5-0.4-4.3,0.1-6,2.2c-3,3.6-6.2,7-10,11.2c-0.9-4.9-2-9-2.5-13.3
	c-0.4-3.6-2-5.6-5.4-6.9C16.7,379.7,12.9,377.8,8.2,375.7z M534.9,606.7c-0.7-5.5-1.3-10-1.8-14.6c-0.2-2.3-1.1-3.8-3.5-4.9
	c-4.2-1.8-8.1-4.2-12.8-6.6c4.9-2.3,9.2-4.4,13.5-6.3c2-0.9,2.9-2.1,3.2-4.2c0.6-4.6,1.5-9.2,2.5-14.7c3.6,3.8,6.7,7,9.7,10.4
	c1.7,1.9,3.2,2.7,5.9,2.2c4.5-0.9,9-1.3,14.2-2c-2.5,4.5-4.6,8.6-7,12.5c-1.4,2.2-1.3,4.1-0.1,6.3c2.2,4,4,8.1,6.3,12.8
	c-5.2-1-9.7-1.6-14.1-2.7c-2.7-0.7-4.3,0.1-6,1.9C541.9,600,538.6,603.1,534.9,606.7z M40.2,64.4c-1.8-4.1-3.5-7.6-4.8-11.3
	c-1.2-3.6-3.2-5.3-7-5.7s-7.5-1.5-11.9-2.4c3.3-2.9,6-5.7,9.2-7.9c3.1-2.2,4.1-4.8,3.4-8.4c-0.7-3.8-0.9-7.7-1.5-12.3
	c4.3,2.6,8.2,4.6,11.7,7c2.5,1.7,4.5,1.6,7,0.3c3.7-1.9,7.6-3.5,12-5.5c-1.1,5.1-2.1,9.6-3.2,14.1c-0.5,2.1-0.2,3.5,1.4,5.1
	c3.2,3.2,6.1,6.7,9.7,10.7c-5.3,0.4-9.8,0.9-14.3,1.1c-2.2,0.1-3.4,0.8-4.5,2.7C45.2,55.9,42.8,59.9,40.2,64.4z M304,388.4
	c-4.7,0.9-8.5,1.8-12.4,2.3c-2.1,0.3-3.1,1.4-3.8,3.1c-1.5,3.6-3.1,7.1-5,11.3c-2.2-3.9-4.1-7.2-5.8-10.6c-0.9-1.8-2-2.9-4.3-3
	c-3.8-0.2-7.6-0.9-11.6-1.4c1.3-3.1,3.8-4.9,5.9-7c2.8-2.7,4.2-5.3,2.7-9.3c-1.1-2.8-1.3-5.9-2-9.6c3.3,1.5,6.2,2.6,8.8,4.1
	c3.3,2,6.2,2.1,9.4-0.3c2.4-1.8,5.2-3.1,8.5-4.9c-0.4,3.8-0.4,7-1.1,10.1c-0.8,3.6,0,6,3,8.2C298.9,383.3,301,385.7,304,388.4z
	 M252,189.9c-3.7-1.3-6.9-2.2-9.8-3.5c-2.1-1-3.5-0.6-5.2,0.7c-2.5,1.9-5.1,3.6-8.2,5.8c0-3.7-0.2-6.8,0.1-9.8
	c0.2-2.5-0.5-4.1-2.6-5.4c-2.5-1.7-4.9-3.6-7.6-5.7c3.1-1.9,6.2-2.4,9.2-3.1c2.7-0.6,3.8-2.1,4.4-4.5c0.8-2.8,1.8-5.5,2.9-8.6
	c2.5,1.9,3.7,4.2,5,6.5c1.7,3,3.7,4.4,7.3,4.1c2.6-0.2,5.2,0.2,8.6,0.4c-2.2,2.9-3.9,5.4-5.9,7.6c-1.6,1.8-2.1,3.5-1.1,5.8
	C250.2,183.1,250.9,186.2,252,189.9z M277.9,579.9c1.1-3.6,1.9-6.4,3-9.1c0.8-2.1,0.8-3.8-0.8-5.6c-2.1-2.3-3.9-4.9-6.3-8.1
	c4,0,7.1-0.1,10.3,0c2.2,0.1,3.5-0.7,4.6-2.5c1.5-2.6,3.4-5,5.5-8.1c1.1,3.1,2.2,5.6,2.8,8.3c0.7,3.2,2.6,4.6,5.7,5.2
	c2.5,0.5,4.9,1.3,7.7,2.2c-2.4,2.8-5.2,4.4-7.8,6.2c-1.6,1.2-2.3,2.4-2.1,4.4c0.2,3.1,0.1,6.3,0.1,9.9c-2.7-1.9-5.3-3.7-7.8-5.6
	c-1.7-1.3-3.2-1.5-5.2-0.6C284.6,577.7,281.7,578.6,277.9,579.9z M74.2,448.9c-2.6-1.9-4.8-3.2-6.8-4.9c-2.3-1.9-4.5-2.4-7.3-1
	c-2.4,1.2-5,1.9-7.8,2.9c0.1-3.2,1.2-5.9,2.3-8.5c1-2.6,0.7-4.6-1.1-6.6c-1.9-2.1-3.4-4.4-5.4-6.9c3.5-0.9,6.6-0.5,9.7-0.5
	c2.2,0,3.5-0.6,4.6-2.5c1.5-2.6,3.4-5,5.5-8.2c1.1,3.3,2.1,5.9,2.9,8.6c0.7,2.5,1.9,4.1,4.7,4.7c2.8,0.6,5.7,1.1,8.6,2.8
	c-2.7,2-5,3.9-7.5,5.5c-1.9,1.3-2.7,2.7-2.5,5.1C74.4,442.2,74.2,445.1,74.2,448.9z M483.6,391.2c0.6-2.5,0.8-4.3,1.4-5.9
	c1.9-5,0.2-8.8-3.6-12c-0.8-0.7-1.4-1.5-2.1-2.2c-1.3-1.3-1.3-2.4,0.8-2.2c8.2,0.7,13-3.3,15.4-10.7c0.1-0.3,0.4-0.6,0.7-1.2
	c2,2.3,2.8,5.1,3.9,7.7c1.1,2.9,2.9,4.1,6,4.4c2.5,0.2,5,1,7.7,1.6c-1.3,2.5-3.5,4.1-5.5,5.6c-2.6,2-3.7,4-2.9,7.4
	c0.6,2.4,1.7,5.1,0.6,8.3c-2.6-1.6-5.1-3-7.5-4.5c-2.1-1.3-3.9-1.8-6.3-0.3C489.8,388.6,487,389.6,483.6,391.2z M45.4,150.4
	c-0.1,3.2,0.1,5.6-0.4,7.9c-1,3.9,0.6,6.2,3.7,8.2c2,1.3,3.8,3,5.8,4.6c-3,1.7-6.1,2-9,2.7c-2.4,0.6-3.7,1.6-4.3,4.1
	c-0.7,2.8-2,5.4-3.3,8.8c-1.9-2.9-3.6-5.2-5-7.7c-1.2-2.2-2.7-3.3-5.4-3.2c-2.9,0.1-5.7-0.3-9.3-0.6c2.3-2.8,4.1-5.2,6.1-7.4
	c1.5-1.7,1.9-3.3,1.1-5.5c-1-2.8-1.6-5.8-2.6-9.3c3.5,1.3,6.4,2.2,9,3.5c2.2,1.1,3.7,0.8,5.5-0.6C39.7,154.1,42.2,152.5,45.4,150.4z
	 M119.1,253.3c-2.2,2-4.3,4.2-6.7,6.1c-2,1.6-2.4,3.3-2,5.6c0.5,2.9,0.9,5.7,1.5,9.4c-2.4-1.3-4.4-2.2-6.1-3.4
	c-3.5-2.6-6.9-3.1-10.7-0.3c-1.6,1.2-3.6,1.7-5.8,2.8c-0.2-3.4,0.8-6.2,1.5-9.1c0.5-2.4,0.3-4.1-1.6-5.7c-2.2-2-4.2-4.3-6.5-6.9
	c4.5-0.7,9.3-0.1,12.3-2.1s4.3-6.7,6.5-10.4c0.3,0.5,0.6,0.7,0.7,1c2.2,8.5,7.4,13.1,17,11.9C119.2,252.5,119.1,252.9,119.1,253.3z
	 M436.2,313.7c-0.2,1-0.5,1.7-1.7,0.8c-2.2-1.7-4.5-3.3-6.7-4.9c-1.5-1-3-2.2-4.7-0.5c-3,1-6,2-9.3,3.1c0.1-2.8,1.2-5.2,2.1-7.6
	c1.1-3,1.2-5.5-1.3-7.9c-1.8-1.7-3.1-3.9-5.3-6.8c3.3,0,5.8-0.2,8.2,0.1c3.7,0.5,6-0.9,7.6-4.2c0.7-1.4,1.5-2.6,2.3-3.9
	c0.6-0.7,1.3-1.4,2.2-2.3c1.3,3.4,2.5,6.6,3.6,9.8c-0.1,2.7,2.3,2.3,3.8,2.9c2.8,1.2,6.2,0.9,8.6,3.2c-0.1,0.2-0.1,0.4-0.2,0.5
	c-1.9,2.1-4.1,3.7-6.4,5.3c-1.8,1.2-2.5,2.6-2.1,4.8c0.4,2.2,0.4,4.5,0,6.8C436.7,313.2,436.5,313.5,436.2,313.7z M445.5,446.7
	c-1.8,1.4-2.9,2.5-4.2,3.1c-5.3,2.6-7,6.8-5.9,12.4c0.3,1.3,0,2.8,0,4.5c-3-1.3-5.4-3.2-7.7-5.1c-1.9-1.6-3.7-1.7-5.9-0.7
	c-2.7,1.1-5.4,2-8.9,3.3c1-3.1,1.5-5.7,2.5-8.1c1.2-2.9,1.1-5.3-1.2-7.6c-1.8-1.9-3.3-4.1-5.5-7c3.8,0,6.8-0.2,9.7,0.1
	c2.5,0.2,4-0.8,5.2-2.8c1.5-2.5,3.2-4.8,5.3-7.9c1,3.1,2,5.5,2.6,8c0.8,2.9,2,4.9,5.4,5.4C439.7,444.5,442.2,445.6,445.5,446.7z
	 M209.8,40.3c-1.1,0.9-1.7,1.7-2.4,2c-6.7,3.1-8.9,8.4-7.3,15.4c0.2,0.7,0,1.5,0,2.7c-2.3-0.7-3.9-2-5.3-3.4
	c-3.8-3.8-7.7-3.3-12-1.2c-1.6,0.8-3.2,1.5-5.5,0.4c6-7.8,3.1-14.5-3.9-20.3c0.2-0.2,0.5-0.4,0.7-0.7c2.7,0,5.5-0.2,8.2,0
	c2.8,0.2,4.8-0.5,6.2-3.2c1.4-2.5,3.2-4.8,5.1-7.6c0.8,2.1,1.7,3.7,1.9,5.4c0.8,5.6,4.1,8.2,9.5,8.9
	C206.4,38.9,207.8,39.6,209.8,40.3z M529.8,246.7c-2.8,2.1-4.8,4-7.2,5.4c-2.6,1.5-3.3,3.4-3.1,6.3c0.3,2.7,0.1,5.5,0.1,8.8
	c-2.8-2-5.3-3.5-7.5-5.3c-2-1.7-3.9-1.9-6.2-0.8c-2.5,1.2-5.2,2-8.2,3c0-3.1,1.1-5.6,2.1-8.1c1.1-2.8,1-5-1.2-7.3
	c-1.8-1.9-3.3-4.1-5.6-7c3.5,0,6.2-0.2,8.9,0c2.9,0.2,4.8-0.7,6.2-3.3c1.3-2.4,3.1-4.6,5.1-7.5c1.2,3.3,2.4,6.1,3.1,8.9
	c0.6,2.4,1.9,3.6,4.3,4.1C523.5,244.7,526.2,245.6,529.8,246.7z M50.8,564.8c-6.7,5.1-9,10.9-5.1,19c-7-5-13.3-5.5-19.8,0.8
	c2.7-8.2,0.5-14.2-6.8-18.6c8.5-0.2,13.9-3.3,15.3-12.3C37.3,561.5,41.9,565.9,50.8,564.8z M599.3,351.6c-3.2-0.6-6.7-2.3-9.5-1.5
	c-2.9,0.7-5.1,3.9-8.5,6.7c1.4-8.5-2-13.5-9.9-16c8-1.6,11.8-6.2,12-14.4c4.2,6.6,9.6,9.3,17.4,6.6c-5.2,6.1-6,12.1-0.5,18.3
	C600,351.4,599.6,351.5,599.3,351.6z M149.7,496.7c6-5.2,7.4-10.7,3.2-17.8c6.8,3.9,12.7,3.7,18.1-2.8c0,4.3-0.7,7.7,0.2,10.5
	c1,2.9,4.9,3.7,7.5,7c-7.7,0.4-12.3,3.9-13.1,12.1C162.6,498.3,157.6,495.4,149.7,496.7z M331.4,420.9c-7,3.7-10,8.6-7.2,17
	c-3.9-2.6-6.5-5.4-9.3-5.8c-2.7-0.4-5.9,1.7-10.2,3.2c4.6-7.3,3.5-12.9-2.5-18.1c7.7,1.3,13-1.2,15.9-8.7
	C319.6,415.7,322.7,420.9,331.4,420.9z M160,316.8c-0.1,2.3,1.2,3.3,3.3,3.9c2.1,0.7,4.5,0.6,6.3,2.1c0,1.1-0.9,1.4-1.5,1.7
	c-4.4,2.4-6.9,5.7-5.6,11c0.5,1.9-0.4,2.9-2.5,2.6c-2.4-4.5-4.7-5.4-9.4-3.7c-1.6,0.6-3.4,1-5.1,1.5c0.3-1.1,0.4-2.3,0.9-3.3
	c2.2-4.5,1.4-8.2-2.6-11.2c-0.9-0.3-1.6-0.8-1.5-1.8c0.1-1.1,1.2-1.1,2-1.3c0.5-0.1,1-0.2,1.5-0.1c4.2,0.6,6.8-1.3,8.9-4.8
	c2-3.3,3.3-3,5.1,0.6C160.1,314.8,160.5,315.8,160,316.8z M422.2,140c1.3,7,4.9,10.9,12.4,11c-6.2,3.4-8.7,8.1-6.7,15.1
	c-5.1-4.4-10.3-6-16.4-1.5c3.1-6.4,2.2-11.5-3.4-16.1C415.1,149.3,419.7,146.8,422.2,140z M342.5,556.7c5-3.9,6.1-8.4,3.6-14.2
	c5.2,3.1,10,4.1,14.7-1.1c-1.1,6-0.6,10.8,5.4,13.8c-5.8,0.9-10.2,2.9-11.2,9.5C352.5,559.2,349.1,555.8,342.5,556.7z M491.2,420.8
	c8-1.9,8-1.9,12.3-8c1.5,5.5,4.2,9.2,10.8,8.8c-4.7,3.4-7.2,7.4-4.5,13.6c-3.2-1.6-5.3-3.4-7.6-3.7c-2.2-0.3-4.2,2.1-7.2,2.3
	C497.2,428.5,496.1,424.1,491.2,420.8z M71.3,150.8c1.2-3.6,2.7-5.9,2.5-8.1c-0.2-2.1-2.1-4.1-3.7-6.9c5.9,1.5,10,0,12.7-5.5
	c0.8,5.7,3.4,9.4,9.6,10.2c-5.1,2.7-8.2,6.1-6.6,12.4C81.5,148.8,77.2,146.9,71.3,150.8z M578.7,515.7c-4.5,2.4-6.2,5.6-4.9,10.6
	c-3.6-3-7.2-4.3-11.6-1.5c2-4.4,1.6-8.1-2.2-11.4c4.8,0.5,8.2-1,10.2-5.6C571.4,512.3,573.3,515.6,578.7,515.7z M116.8,98
	c0.9,4.7,3.6,7.1,8.4,7.6c-4.2,2.4-5.4,5.6-4.4,10.2c-3.6-2.8-7.1-3.7-11-0.6c0.7-6.6,0.7-6.6-2.9-11.6
	C111.8,104.3,115,102.5,116.8,98z M302.4,525.8c5,0.8,7.6-1.7,9.5-6.6c1.2,5.1,3.4,8.1,8.5,8.1c-3.9,2.5-5.7,5.7-4.5,10.4
	c-3.6-3.2-7.2-3.4-11.3-1C306.7,532.5,306,529,302.4,525.8z M292.3,269c-3.4-3-6.7-3.2-10.6-1c1.7-4.1,1.3-7.4-2.3-10.4
	c4.4,0.2,7.7-1,9.3-5.5c1.1,4.3,3.2,6.9,7.9,7.1C293.3,261.7,291.1,264.4,292.3,269z M398,407.2c4.5,0.6,7.3-1,9-6.3
	c1.5,4.8,2.9,8.3,8,7.8c-2.8,2.8-6,5.1-3.9,9.9c-3.7-2.3-7-3.5-10.9-0.9C402.1,413.5,401.3,410.3,398,407.2z M319,45.5
	c4.9,1.4,7.2-1,9.2-5.7c1.1,4.9,2.9,7.9,7.9,7.8c-3.3,2.6-5.7,5.2-4.1,9.8c-3.5-2.3-6.8-3.8-10.4-0.7
	C321.8,50.6,321.8,50.6,319,45.5z M201.3,215.9c4.8,0.8,7.2-1.4,9-6.2c1.3,4.8,3,8,8,7.8c-3.8,2.4-5.2,5.5-3.7,10.5
	c-3.9-2.9-7.1-4.6-11.1-1.5C204.9,222.5,205,218.9,201.3,215.9z"/>
<path style="fill:#26397C;" d="M519.8,449c-1.1,8.4-2,15.9-3.1,23.5c-0.3,2.2,0,3.7,1.9,5.3c5.8,5,11.3,10.2,17.6,15.9
	c-6.8,1.3-13,2.9-19.2,3.5c-5.2,0.6-8.4,2.6-10.2,7.7c-2.1,6-5,11.6-8,18.1c-3.8-6.9-7.5-13.1-10.5-19.5c-1.6-3.4-3.8-4.5-7.3-4.7
	c-7-0.5-13.9-1.4-21.6-2.2c5.5-5.9,10.5-11.3,15.7-16.4c2.2-2.2,2.7-4.2,2-7.1c-1.7-7-3.1-14.1-4.7-21.6c3.2,0.4,5.3,2.1,7.7,3.1
	c3.4,1.5,7,2.7,9.9,4.9c4.7,3.4,8.6,2.3,13.1-0.6C508.3,455.3,513.8,452.5,519.8,449z M407.1,333.6c5,1.1,9.2,4.1,13.5,6.7
	s7.8,2.9,12,0.1c3-2,6.4-3.5,9.7-5.3c0.8-1.1,1.8-2.2,3.4-1.7c0.9,0.2,1,1,0.5,1.8c-1.2,6.1-2.3,12.2-3.6,18.3
	c-0.3,1.6,0.6,2.3,1.5,3.2c4.5,4.5,8.9,9,13.8,13.9c-6.7,1-13,1.9-19.2,2.7c-1.9,0.2-2.9,1-3.7,2.6c-2.7,5.6-5.6,11.1-8.8,17.5
	c-2.3-4.8-4.7-8.9-6.4-13.3c-1.8-4.9-4.6-7.6-10.1-7.7c-4.7-0.1-9.5-1.4-15-2.3c4.7-4.5,8.9-8.7,13.3-12.6c2.1-1.8,2.6-3.6,2.1-6.3
	C408.9,345.3,408.1,339.4,407.1,333.6z M135.9,92.3c-4.6-5.2-8.8-9.7-12.8-14.4c-1.2-1.4-2.3-1.9-4.2-1.6
	c-6.1,0.9-12.3,1.6-19.1,2.4c3.4-5.8,6.3-11.1,9.5-16.2c1.1-1.9,1.2-3.4,0.2-5.3c-2.7-5.3-5.1-10.8-8-16.9
	c6.2,1.3,11.9,2.3,17.5,3.8c2.7,0.7,4.5,0.3,6.5-1.7c4.1-4.1,8.5-8,13.2-12.4c0.7,6.7,1.5,12.6,1.9,18.5c0.2,2.6,1.3,3.8,3.4,4.9
	c5.1,2.7,10.2,5.6,16,8.7c-6.1,2.7-11.4,5.2-16.9,7.4c-2.3,0.9-3.3,2.3-3.7,4.7C138.3,80,137.1,85.7,135.9,92.3z M549,193.3
	c-6.4,0.7-12.1,1.4-17.7,1.7c-2.2,0.2-3.4,0.9-4.4,2.8c-2.6,5-5.5,10-8.8,15.7c-2.4-5.5-4.7-10.2-6.5-15.2c-1.1-2.9-2.8-4.4-5.9-4.8
	c-5.2-0.8-10.4-2-16.3-3.2c4.8-4.3,9-8.2,13.4-12c1.7-1.4,2.1-2.7,1.8-4.9c-0.9-5.6-1.4-11.2-2.1-17.7c5.6,3.3,10.5,6.1,15.4,9.1
	c1.8,1.1,3.3,1.2,5.3,0.3c5.1-2.5,10.4-4.8,16.3-7.5c-1.4,6.2-2.5,11.9-3.9,17.4c-0.6,2.1-0.2,3.5,1.3,5.1
	C540.8,184.2,544.6,188.5,549,193.3z M310.7,72.3c6.8,3.1,13.1,5.8,19.2,8.7c2.1,1,3.6,0.9,5.5-0.3c5.8-3.7,11.7-7.1,18.1-11
	c-0.7,6.3-0.9,12.1-2,17.8c-0.9,4.6,0.3,7.6,4,10.3c4.6,3.5,8.8,7.5,13.7,11.7c-7.2,1.5-13.7,3.1-20.3,4.2c-2.7,0.4-3.8,1.7-4.8,4.1
	c-2.4,6.1-5.1,12.2-8,19.1c-2.7-4.7-5.5-8.7-7.4-13.1c-2.6-5.9-6.2-9.2-13.1-8.7c-4.9,0.3-9.8-0.7-15.3-1.2c2.6-3.9,5.5-7.1,8.6-9.8
	c6.1-5.2,8.1-10.9,4.9-18.6C312.3,81.6,311.9,77.2,310.7,72.3z M257.9,461.3c3.1-2.8,6-5.8,9.3-8.3c2.4-1.9,2.6-3.9,2-6.6
	c-0.9-4.1-1.5-8.2-2.4-12.8c4.5,2.3,8.5,4.2,12.3,6.4c2,1.1,3.5,1.2,5.5,0c3.8-2.3,7.8-4.2,12.3-6.7c-0.8,5-1.4,9.3-2.3,13.6
	c-0.4,2.2,0,3.8,1.7,5.4c3.3,2.9,6.4,6.1,10.1,9.6c-5.3,0.9-9.8,1.7-14.4,2.3c-1.9,0.3-2.9,1.1-3.6,2.8c-1.9,4.1-3.9,8.2-6.2,13
	c-2.3-4.5-4.4-8.4-6.2-12.4c-0.9-2-2.1-3.1-4.5-3.3c-4.4-0.4-8.7-1.2-13.1-1.8C258.3,462,258.1,461.7,257.9,461.3z M419.9,20
	c2.5,4.3,4.8,7.8,6.8,11.4c1,1.9,2.3,2.7,4.5,2.8c4.2,0.2,8.3,0.5,13.3,0.9c-3.2,3.7-5.9,7-8.8,10.1c-1.5,1.6-1.8,3-1.2,5.1
	c1.2,4,2.1,8.1,3.2,12.9c-3.4-1.5-6.3-2.4-9-4c-4.1-2.4-7.6-2.4-11.3,0.7c-2.4,2-5.3,3.3-8.5,5.3c0.4-4.8,0.7-9.1,1.2-13.3
	c0.3-2.2-0.4-3.5-2.1-4.8c-3.3-2.5-6.4-5.3-10.2-8.5c4.9-1.1,9.1-2.2,13.4-3c1.8-0.4,2.8-1.2,3.4-3C416.3,28.6,418,24.7,419.9,20z
	 M309.9,240c3.5-0.6,6-1.2,8.5-1.3c5.6-0.2,9.1-2.7,10.6-8.3c0.7-2.5,2.1-4.9,3.5-7.8c2.3,4.2,4.5,7.8,6.3,11.7c1,2.2,2.5,2.8,4.7,3
	c4,0.5,8.1,0.4,12.9,2.8c-3.1,2.7-6.1,5.4-9.2,8c-1.7,1.5-2.3,3-1.7,5.3c1.1,4,1.7,8.2,2.6,12.8c-4.2-2-8-3.6-11.6-5.6
	c-2-1.1-3.6-1.2-5.6,0.1c-3.4,2.2-7,4-10.9,6.1c-0.5-3.8,0.4-7.1,1-10.2c0.7-3.7,0.3-6.5-3-8.9C315.3,245.5,313,242.9,309.9,240z
	 M468.8,50.6c7-9,5.6-16.9-3.2-24.4c4.7,0,8.2-0.2,11.6,0.1c2.6,0.2,4.2-0.6,5.6-2.8c1.9-2.8,4.1-5.4,6.5-8.6c1,3.8,2,6.9,2.7,10.1
	c0.6,2.8,1.8,4.4,4.7,5.1c3.2,0.8,6.2,2.1,10,3.5c-2.6,1.7-4.6,3.3-6.9,4.5c-3.9,2-5.9,4.7-5.2,9.3c0.4,2.6,0.1,5.3,0.1,8.8
	c-3.7-2.9-6.6-5.1-9.4-7.5c-1.5-1.3-2.9-1.6-4.8-1c-3.4,1.2-7,2.2-10.5,3.2C469.7,50.9,469.2,50.8,468.8,50.6z M120.2,365.4
	c-3.8,2.6-6.9,4.8-10.1,6.9c-1.5,0.9-2,2-2,3.7c0.1,3.8,0,7.5,0,12.1c-3.5-2.7-6.5-4.8-9.2-7.2c-1.5-1.3-2.9-1.6-4.8-0.9
	c-3.4,1.3-7,2.2-11.2,3.5c1.4-4,2.6-7.5,4-11c0.8-1.9,0.6-3.3-0.7-4.9c-2.2-2.9-4.3-5.9-6.6-9.2c4.1,0,7.7-0.1,11.3,0.1
	c2.1,0.1,3.5-0.5,4.8-2.3c2-3,4.3-5.9,6.8-9.2c1.1,3.7,2.2,6.9,2.9,10.1c0.6,2.8,1.8,4.4,4.7,5.1
	C113.3,362.8,116.3,364.1,120.2,365.4z M347.3,297.7c4.1,1,8.3,0.5,12.4,0.7c1.9,0.1,2.3-1.6,3.1-2.8c2-2.7,4-5.3,6-8
	c2.4,2.1,2.4,5.2,2.9,7.9c0.8,4.3,2.9,6.8,7.2,7.5c1,0.2,1.9,0.5,2.9,0.8c1.2-0.6,2.2,0,3.2,0.5c2.1,1,2.3,2.3,0.4,3.6
	c-1.3,0.9-2.6,2.1-4.4,2.1c-4.8,1.8-7.1,5.1-6.3,10.4c0.4,2.3,0.1,4.7,0.1,7.9c-2.5-1.8-4.3-3.1-6.1-4.3c-3.1-3.9-6.7-5.3-11.5-2.9
	c-2.2,1.1-4.8,1.5-7.8,2.4c1.5-4,2.6-7.5,4-10.7c0.9-2,0.6-3.5-0.7-5.2c-1.9-2.4-3.5-5-5.2-7.5C347.1,299.3,346.1,298.7,347.3,297.7
	z M549.1,226.7c2.8,0,5.1-0.4,7.1,0.1c5.5,1.3,9.2-0.7,11.7-5.6c1-1.9,2.5-3.4,4.2-5.6c1.2,4.2,2.3,7.7,3.2,11.4
	c0.4,1.8,1.3,2.8,3.1,3.4c3.5,1.1,7,2.3,11.2,3.8c-3.4,2.3-6.2,4.5-9.3,6.3c-2.2,1.3-2.9,2.8-2.8,5.2c0.2,3.4,0,6.9,0,11.2
	c-3.5-2.7-6.5-4.9-9.3-7.3c-1.5-1.3-2.9-1.7-4.8-0.9c-3.4,1.3-7,2.2-11.3,3.4c1.4-3.7,2.4-7,3.8-10.2c1-2.4,0.9-4.2-0.8-6.3
	C553.2,232.8,551.4,229.9,549.1,226.7z M226.6,335.2c2.6-1.9,5-4,7.7-5.6c3.1-1.8,3.9-4.2,3.6-7.6c-0.3-2.9-0.1-5.7-0.1-9
	c2.7,1.9,5.5,3.5,7.8,5.5c2.4,2.1,4.8,2.5,7.6,1.1c1.5-0.7,3.1-1.1,4.6-1.7c0.7-0.3,1.4-0.6,2.1-0.8c1.7-0.4,2.9-0.4,1.9,2
	c-0.9,2.4-1.4,4.9-2.4,7.2c-1.1,2.6-0.8,4.7,1.1,6.9c2.1,2.5,4.4,4.9,6,8.3c-3.9,0-7.4,0.1-10.9,0c-2.1-0.1-3.5,0.5-4.7,2.4
	c-1.9,3.1-4.1,6-6.6,9.6c-1.4-4.2-2.5-7.7-3.6-11.1c-0.6-1.8-1.6-2.9-3.6-3.4C233.7,337.7,229.9,337.1,226.6,335.2z M93.6,214
	c-3.7-2.9-6.6-5.1-9.4-7.5c-1.5-1.3-2.9-1.6-4.8-0.9c-3.4,1.2-7,2.1-11.1,3.3c1.3-3.6,2.3-6.9,3.7-9.9c1.1-2.4,1.1-4.4-0.7-6.5
	c-2.1-2.6-3.9-5.5-6.3-8.9c4.3,0.2,7.8,0.2,11.2,0.6c2.4,0.3,3.8-0.5,5.1-2.3c2-2.9,4.2-5.7,6.9-9.1c1.1,4,2.2,7.4,3,10.9
	c0.5,2.2,1.5,3.5,3.8,4.1c3.4,0.9,6.7,2.3,10.7,3.7c-3.6,2.4-6.6,4.5-9.8,6.4c-1.7,1-2.5,2.3-2.4,4.3
	C93.7,205.8,93.6,209.4,93.6,214z M477.3,250.9c-8.4,5.2-9,12.2-4.6,20.1c-1,0.1-1.2,0.2-1.4,0.1c-7.3-4.6-14.1-4.1-20.5,3.5
	c0-2.3-0.2-3.2,0-4c2.2-7.2-0.9-11.8-7-15.1c-0.4-0.2-0.8-0.6-1.2-0.9c-0.1-0.1-0.1-0.2-0.3-0.6c2.4-1.3,5.2-1.7,7.8-2.2
	c2.7-0.5,4.2-1.7,5-4.4c0.7-2.6,1.8-5,2.8-7.7c1.8,1.2,2.7,3,3.4,4.6c1.9,4.5,5.1,6.2,9.8,5.7c1.7-0.2,3.5,0.2,5.2,0.3
	C476.6,250.5,477,250.7,477.3,250.9z M371.3,580.3c8.5,1.6,13.9-1.2,16.9-9.3c1.7,7.8,5.1,13.3,14.5,13.1c-7.1,4-11,9.1-8.3,17.8
	c-6.1-5.6-12.1-7.6-19.4-2C379,592.2,378,585.9,371.3,580.3z M578.2,28.8c2.9-3.5,3.5-6.5,0.2-10.4c4.4,1.7,7.6,1.5,10.2-2.9
	c0,4.7,1,7.7,5.2,8.8c-3.6,1.3-6.2,3.2-6.1,7.5C585.4,28.6,582.6,27.6,578.2,28.8z"/>
<path style="fill:#E02030;" d="M578.8,200.4c-2.5-5.2-4.8-9.8-6.8-14.4c-0.9-2.1-2.2-3.1-4.5-3.4c-5-0.6-10-1.5-15.1-2.3
	c3.6-3.7,6.8-7.3,10.3-10.7c1.8-1.7,2.7-3.3,2.2-5.9c-1-4.8-1.6-9.8-2.4-15.5c4.6,2.4,8.8,4.3,12.7,6.8c3,1.9,5.3,1.8,8.3,0
	c3.9-2.4,8.1-4.2,12.8-6.6c-1,5.6-1.7,10.8-2.8,15.8c-0.5,2.4,0.1,3.8,1.8,5.3c3.7,3.5,7.2,7.1,11,10.9c-5.4,1.6-10.6,1.8-15.6,2.4
	c-2.5,0.3-3.7,1.4-4.7,3.6C583.8,190.8,581.4,195.2,578.8,200.4z M53.7,227.3c-4.8,2.5-8.7,4.7-12.7,6.4c-2.8,1.2-3.7,3-4,5.8
	c-0.4,4.4-1.1,8.8-1.7,13.2c-0.4,0.3-0.8,0.6-1.2,0.9c-3.1-3.5-6.3-6.9-9.2-10.5c-1.7-2-3.5-2.5-6-1.9c-4.5,1-9.2,1.7-14.4,2.6
	c2.4-4.8,4.4-9,6.7-13c1.2-2.1,1.3-3.8,0.1-6c-2.4-4-4.5-8.2-7.1-13.1c5,0.8,9.2,1.4,13.4,2.2c3.1,0.6,5.5,0.1,7.7-2.5
	c2.7-3.3,6.1-6,9.5-9.2c0.7,4.3,1.5,8.6,2,13c0.3,2.7,1,4.6,3.9,5.8C44.9,222.7,48.8,224.9,53.7,227.3z M413,122.4
	c0-5.3,0.8-9.8,1.5-14.3c0.4-2.3-0.1-4-2.1-5.6c-3.5-2.9-6.8-6-10.9-9.7c4.7-0.9,8.8-1.8,13-2.5c3.1-0.5,5.3-1.5,6.4-4.9
	c1.3-4.1,3.4-7.9,5.4-12.4c2.7,4.8,5.2,9.1,7.4,13.4c0.9,1.7,1.9,2.3,3.8,2.5c4.8,0.3,9.5,1,15.1,1.7c-3.7,4-6.8,7.5-10.2,10.9
	c-1.5,1.5-1.9,2.9-1.4,5.1c1.2,4.5,2,9.2,3.1,14.5c-4.9-2.3-9.3-4.2-13.5-6.4c-1.9-1-3.4-1.1-5.2,0.1
	C421.7,117.4,417.6,119.7,413,122.4z M191,272.3c-1.4,2.2-2.8,4.5-4.2,6.7c-0.9,1.4-0.2,2.7,0.4,3.9c1.3,2.9,2.7,5.7,4.1,8.9
	c-3.3,0.5-6.1-1.4-9-1.2l-0.1,0.1c-2-0.8-3.9-0.6-5.6,0.8c-1.7,1.3-3.4,2.7-4.4,4.6c-3.5,1.8-3.7,1.7-3.8-2.3
	c-0.1-2.1,0.4-4.2-0.7-6.2c0.1-0.2,0.1-0.4,0-0.6c-0.8-1.8-3-2.1-3.9-3.8c-2.2-1.4-4.5-2.8-6.9-4.3c2.6-2,5.4-2.8,8.1-3.7
	c2.5-0.9,3.9-2.4,4.2-5.2c0.3-2.8,1.1-5.6,1.8-8.8c2.6,1.9,4.3,4.1,5.9,6.3c1.8,2.5,4,3.3,6.9,2.7c1.7-0.4,3.5-0.4,5.3-0.7
	C191.9,269,192.5,269.9,191,272.3z M388.7,445.6c-4.6,0.9-8.8,1.7-13,2.4c-2.2,0.4-3.5,1.2-4.4,3.5c-1.6,4.1-3.6,8-5.8,12.6
	c-2.4-4.4-4.7-8-6.5-11.9c-1.3-2.8-3.3-3.6-6-3.8c-3.2-0.2-6.3-0.6-9.5-0.8c-2.3-0.2-2.8-0.8-1.1-2.6c2.5-2.7,5-5.4,7.6-8.1
	c1.5-1.5,2.1-2.9,1.5-5.1c-1-3.4-1.5-6.9-2.3-10.4c-0.2-0.9-0.7-1.9,0-2.5c0.8-0.8,1.6,0.2,2.4,0.5c2,0.8,4.1,1.6,5.8,2.9
	c5.2,4,9.8,1.9,14.4-1.2c2-1.3,4.3-3.9,6.2-2.9c2.1,1.1,0.4,4.3-0.2,6.2c-2.2,7.6,0.9,12.5,6.8,16.6
	C386.2,442.1,387.7,443.3,388.7,445.6z M318.1,297c3.9,2.7,7.8,5.3,12.1,8.3c-4.1,1.8-7.8,3-11.5,4.1c-2.5,0.7-5.2,1.6-5,5.1
	c-1.3,4-2.8,7.9-3.3,12c-4.1-2.4-5.6-6.9-8.6-10.2c-1.2-1.3-2.1-2.9-4.3-2.5c-3.9,2.2-8.2,0.4-12.3,1.4c-1,0.2-2.2-0.6-1.6-2.2
	c0.3-0.3,0.6-0.7,0.8-1c0.6-1,1-2.2,2.1-2.9c0.8-1.2,1.5-2.7,2.6-3.7c4.8-4.6,1.4-9.1-0.2-13.4c-0.7-2-1.3-4-1.7-6.5
	c4.4,0.3,8.3,2.2,12.4,3.3c2.4,0.6,4.1,0.3,5.9-1.2c3.1-2.6,6.3-5,10.2-8.1c0.2,4.8,0.4,9,0.7,13.2
	C316.7,294.3,315.9,296.2,318.1,297z M322.9,148c1.1,3.9,2.2,7.1,2.9,10.5c0.5,2.6,1.8,3.9,4.3,4.6c3.2,0.9,6.4,2.2,10.3,3.6
	c-3.2,2.1-5.7,4-8.4,5.5c-2.7,1.5-4.1,3.4-3.7,6.7c0.3,3.1,0.1,6.3,0.1,9.9c-3.8-2-6.3-4.4-9-6.7c-1.9-1.7-3.6-1.8-5.9-1
	c-3.2,1.1-6.5,2-10.5,3.2c1.5-4.1,2.6-7.6,4.1-10.9c0.8-1.9,0.6-3.3-0.6-4.9c-2.2-2.9-4.2-6-6.4-9.2c4,0,7.5-0.1,11,0.1
	c2.3,0.1,3.8-0.5,5.1-2.4C318.1,154.1,320.3,151.3,322.9,148z M529.5,52.6c-0.1-3.8,1.2-6.9,2.1-9.9c0.8-2.6,0.3-4.3-1.4-6.1
	c-2.2-2.4-4.3-4.9-6.9-7.9c4-0.4,7.5-0.8,10.9-0.9c2.1-0.1,3.4-0.6,4.6-2.6c1.7-3,3.1-6.1,5.6-8.9c2.3,2.8,2.9,6.2,4.2,9.3
	c0.9,2.2,2,3.5,4.6,3.8c3.2,0.4,6.4,1.4,9.9,2.3c-1.4,2.1-3.1,3.6-4.9,4.6c-4.8,2.8-5.8,7-4.8,12c0.4,1.9,1.5,4.6-0.2,5.6
	c-1.4,0.9-3.5-1.3-4.8-2.5c-4.3-3.9-8.6-4-13.4-1C533.5,51.3,531.6,51.8,529.5,52.6z M556.6,71.3c3.8-2,6.8-3.8,10-5.3
	c1.8-0.9,2.6-2,2.8-4c0.4-3.5,0.3-7.1,1.6-10.7c3,1.9,5.2,4.4,7.4,6.7c1.8,2,3.7,2.2,6.1,1.7c3.2-0.7,6.3-1.7,10.1-1.7
	c-1.4,3.1-2.5,6-4.1,8.7c-1.7,2.7-1.3,4.9,0.3,7.4c1.7,2.6,3.1,5.4,4.9,8.7c-3.9-0.6-7.2-0.9-10.4-1.6c-2.7-0.5-4.6,0.2-6.3,2.4
	c-1.9,2.4-4.2,4.6-6.9,7.5c-0.8-4.2-1.5-7.6-2-11c-0.3-2-1.1-3.1-3-3.9C563.7,74.8,560.6,73.2,556.6,71.3z M229,455.6
	c-4.1,0.8-7.4,1.5-10.7,1.9c-2.2,0.3-3.6,1.2-4.5,3.4c-1.2,3.2-2.8,6.3-4.3,9.7c-2.6-3-3.9-6.2-5.5-9.3c-1.1-2.1-2.4-2.9-4.7-3
	c-3.3-0.2-6.5-0.7-10.2-1.1c1.7-3.2,4.4-5.4,6.7-7.7c1.8-1.8,2.5-3.5,1.8-6.1c-0.8-3.2-1.8-6.3-1.8-10.2c3.1,1.4,6,2.6,8.6,4.1
	s4.7,1.6,7.2-0.2c2.5-1.8,5.4-3.2,8.8-5.1c-0.6,4.1-0.9,7.6-1.5,11.1c-0.4,2.3,0.3,3.8,2.1,5.3C223.5,450.5,226,452.9,229,455.6z
	 M344.4,29.8c2.8-3,4.8-5.5,7.2-7.5c2.2-1.9,2.6-4,1.9-6.7c-0.8-3-1.8-6.1-1.7-9.8c3.1,1.5,6.1,2.7,8.8,4.2c2.5,1.4,4.5,1.4,7-0.2
	c2.7-1.8,5.4-3.7,8.9-4.8c-0.5,3.7-0.9,7.1-1.5,10.4c-0.4,2.4,0.3,4.1,2.2,5.6c2.6,2,4.9,4.4,7.7,7.1c-4.2,0.9-7.8,1.8-11.5,2.3
	c-1.8,0.3-2.6,1-3.2,2.6c-1.4,3.4-3,6.7-4.8,10.6c-1.9-3.4-3.7-6.3-5.1-9.4c-1.1-2.4-2.9-3.3-5.3-3.5
	C351.7,30.6,348.5,30.2,344.4,29.8z M68.8,309.2c2.6,2,5.8,1,8.6,1.8c1.4,0.4,2.9,0.6,5.1,1c-3.3,3.4-6.2,6.4-9,9.3
	c-1.2,3.2,0.5,6.1,0.7,9.1c0.1,1.5,0.4,3,0.7,4.7c-3.3-0.6-5.8-2.4-8.3-4c-2.9-1.9-5.4-1.8-8.2,0c-2.4,1.5-5.1,2.7-8,4.3
	c-0.1-3.6,0.6-6.7,1.3-9.7c0.7-2.7,0.4-4.8-2-6.7c-2.5-1.9-4.5-4.4-7-6.9c2.9-1.3,5.6-1.6,8.3-1.7c3.6-0.2,6.2-1.3,7.4-5
	c0.9-2.7,2.5-5.2,4-8.3C64.6,301.6,66.7,305.4,68.8,309.2z M540.8,355.7c2.6,1.2,4.6,1.7,6.2,2.9c4.6,3.5,8.7,2.7,13-0.5
	c1.6-1.2,3.2-2.4,5.7-2.9c-0.4,3.8-0.7,7.5-1.3,11c-0.3,1.9,0.1,3.1,1.5,4.3c2.8,2.3,5.4,4.8,8.6,7.8c-4.2,0.7-7.5,1.4-10.8,1.9
	c-2.3,0.3-3.6,1.4-4.4,3.5c-1.3,3.2-2.8,6.2-4.5,10c-2.1-3.8-3.9-6.9-5.5-10.1c-0.9-1.8-2.1-2.6-4.1-2.7c-3.5-0.2-7-0.7-11.2-1.2
	c2.5-2.7,4.4-4.9,6.5-6.8c2.5-2.3,3.5-4.6,2.3-8C541.7,362.2,541.5,359.3,540.8,355.7z M75.2,70.9c-0.2,4-0.2,7.3-0.6,10.5
	c-0.3,2.6,0.3,4.3,2.5,5.8c2.7,1.8,5.2,4,8.4,6.5c-3.9,1-7,2.1-10.2,2.6c-2.8,0.5-4.1,1.9-4.9,4.5c-0.9,3.1-2.2,6.1-3.5,9.7
	c-2.3-3.5-4.3-6.5-6.2-9.7c-0.9-1.6-2-2.3-4-2.3c-3.6,0-7.1-0.3-11.1-0.5c1.7-3.4,4.3-5.9,6.5-8.5c1.6-1.8,1.7-3.4,1-5.5
	c-1.1-3.2-1.9-6.5-3-10.4c3.3,1.2,6.1,1.9,8.6,3.3c3.4,1.9,6.1,1.4,8.9-1.1C69.7,74.1,72.2,72.8,75.2,70.9z M257.6,573.2
	c-3.9,0.7-6.9,1.7-10,1.8s-4.4,1.7-5.4,4.3c-1.2,2.9-2.5,5.8-4.2,9.4c-1.9-3.4-3.7-6.1-4.9-9c-1.1-2.8-3-3.7-5.8-3.9
	c-3.1-0.3-6.4,0-9.9-1.3c2-2.1,3.6-4.1,5.6-5.8c3.1-2.7,4.3-5.6,2.8-9.7c-0.9-2.4-1.1-5.1-1.8-8.3c3.2,1.5,5.9,2.5,8.4,4
	c3,1.8,5.5,1.8,8.4-0.2c2.3-1.6,4.8-3.3,8.1-4.3c-0.5,3.9-0.8,7.6-1.4,11.1c-0.3,1.7,0.1,2.8,1.5,4
	C251.7,567.6,254.3,570.2,257.6,573.2z M326,341c3.8,2.9,7.5,3.6,11.5,0.3c1.9-1.6,4.3-2.5,6.7-3.9c0.3,3.9-0.5,7.2-1.1,10.6
	c-0.4,2.3,0.2,3.8,1.9,5.3c2.6,2.2,5.1,4.6,8.2,7.4c-4.1,0.8-7.5,1.6-10.9,2c-2.2,0.3-3.4,1.2-4.2,3.2c-1.3,3.3-2.9,6.4-4.6,10.2
	c-2.1-3.8-4-6.9-5.6-10.2c-0.8-1.7-2-2.4-3.8-2.5c-3.5-0.3-7-0.7-11.4-1.1c2.9-3.1,5.2-5.8,7.8-8.3c1.5-1.4,1.9-2.8,1.3-4.7
	c-1-3.2-0.9-6.8-2.6-9.9c-0.5-0.9,0.5-0.9,1.1-1.1C322.7,338.3,324.3,339.8,326,341z M67.3,570c3.7,1.8,6.8,3.2,9.8,4.8
	c2,1,3.7,1.1,5.6-0.2c2.7-1.8,5.7-3.2,9-5.1c0.4,3.4,0,6.2-0.6,9c-0.7,3.1-0.3,5.6,2.6,7.6c2.5,1.7,4.5,4,7.3,6.5
	c-3.7,0.7-6.7,1.4-9.7,1.8c-2.9,0.4-4.8,1.5-5.8,4.5c-1,2.9-2.6,5.7-4.2,9.1c-1.8-3.2-3.4-5.8-4.6-8.5c-1.3-3-3.2-4.5-6.7-4.4
	c-2.8,0.1-5.7-0.5-9-0.9c2-3.4,4.7-5.6,7-7.9c1.7-1.8,2.1-3.4,1.5-5.7C68.8,577.4,68.2,574.1,67.3,570z M144.2,576.4
	c-1.9-3.4-3.6-6.2-4.9-9.2c-1.2-2.7-3-3.6-5.8-3.9c-3.1-0.3-6.3,0.1-9.7-1.3c2.5-2.7,4.7-5.4,7.2-7.7c1.9-1.7,2.2-3.3,1.5-5.7
	c-0.9-3.1-1.4-6.4-2.2-10.1c3.6,0.9,6.5,2.7,9.4,4.2c2.2,1.1,4.1,1.2,6.3-0.2c2.7-1.8,5.7-3.3,9.2-5.2c-0.5,4.3-0.9,7.9-1.5,11.5
	c-0.3,1.8,0.2,3.1,1.6,4.3c2.7,2.3,5.3,4.7,8.4,7.6c-4.1,0.8-7.4,1.8-10.9,2.1c-2.3,0.2-3.3,1.3-4.1,3.2
	C147.4,569.4,145.9,572.6,144.2,576.4z M565.1,438.5c1.9-3.6,3.3-6.7,5-9.6c1.1-1.8,1.3-3.3,0.1-5.3c-1.8-3-3.3-6.2-5.3-9.9
	c3.7,0.5,6.9,0.5,9.8,1.4c2.9,0.8,4.8,0.1,6.7-2.1c1.5-1.7,3.2-3.3,4.8-4.9c0.6-0.6,1.1-1.6,2.1-1.5c1.2,0.2,0.7,1.5,0.8,2.3
	c0.4,2.5,1,5,1.2,7.5c0.2,2.6,1.6,4.1,3.9,5c2.9,1.2,5.9,2.3,8.8,4.6c-3.4,1.8-6.5,3.4-9.7,4.9c-1.8,0.8-2.7,1.9-2.9,4
	c-0.3,3.5-1,7-1.6,10.9c-3.2-2.3-5.5-5.1-8.1-7.7c-1.4-1.4-2.6-2-4.7-1.4C572.8,437.5,569.3,437.8,565.1,438.5z M451.1,227.4
	c-1.3-3.8-2.6-7-3.4-10.3c-0.6-2.6-2.2-3.7-4.6-4.3c-3.1-0.8-6.1-1.7-9.5-2.7c2.4-2.8,5.1-4.6,7.8-6.2c2.5-1.6,3.3-3.5,3.1-6.3
	c-0.2-3.1-0.1-6.3-0.1-10c2.9,2.1,5.6,3.8,8,5.8c2.1,1.7,4,2.3,6.6,1.1c3-1.3,6.2-2.2,9.6-3.4c-0.5,3.7-1.7,6.7-2.9,9.7
	c-1,2.6-0.7,4.5,1.1,6.6c2.1,2.5,4,5.1,6.5,8.3c-4.4,0-8,0.1-11.7,0c-1.9-0.1-3.1,0.6-4.1,2.1C455.6,220.9,453.5,223.9,451.1,227.4z
	 M200.5,103.1c2.6-2.7,4.7-5.4,7.2-7.6c2-1.8,2.2-3.7,1.6-6.1c-0.8-3-1.3-6.2-2.1-10c3.5,1.7,6.5,2.9,9.3,4.4
	c2.4,1.3,4.3,1.3,6.6-0.2c2.7-1.8,5.4-3.7,8.9-4.8c-0.4,3.7-0.6,7.1-1.3,10.5c-0.5,2.3,0.2,3.8,2,5.2c2.6,2.2,5,4.6,8,7.3
	c-4.2,0.8-7.7,1.7-11.3,2.1c-1.9,0.3-2.9,1.1-3.6,2.8c-1.4,3.4-3,6.7-4.8,10.6c-2-3.6-3.8-6.6-5.3-9.8c-1-2.1-2.4-3-4.7-3.2
	C207.7,104.1,204.3,104.2,200.5,103.1z M152.2,380.3c0.6-1,1-1.7,1.5-2.2c5.7-5.6,7.2-11.8,2.7-18.9c-0.5-0.7-0.5-1.7-0.8-2.9
	c3.4,0.2,6.4,1.6,9.4,2.7c2.8,1,4.8,0.6,6.9-1.3c2.3-2,4.8-3.8,7.6-6c0.8,3.7,0.5,7.1,0.4,10.4c0,2.4,0.6,4,2.8,5.3
	c2.9,1.6,5.5,3.7,8.4,5.7c-2.5,2-5.4,2.5-8.1,3.3c-3.2,0.9-5.4,2.2-6,5.9c-0.4,2.9-1.7,5.7-2.8,9.3c-2.5-3.4-4.7-6.2-6.7-9.1
	c-1.1-1.7-2.4-2.3-4.4-2.2C159.7,380.4,156.1,380.3,152.2,380.3z M400.7,272.3c-2.5-9.3-7.8-13.4-16.9-11.9c0-0.3,0.1-0.7,0.1-1
	c1.9-2,3.6-4.1,5.6-6c1.7-1.6,2.2-3.1,1.5-5.3c-0.8-2.6-1.1-5.4-2-9.6c7.6,6.8,14.3,6.3,21-0.2c0,2.1,0.3,3.3,0,4.3
	c-2.1,6.2,0.4,10.4,5.4,13.8c0.5,0.4,0.9,0.9,1.4,1.3c0.1,0.2,0.1,0.5,0.2,0.8c-3.4,1.6-7.9,0.4-10.5,2.8
	C403.9,263.6,403,267.6,400.7,272.3z M205,155.3c-7.5-4.5-14.2-4.9-20,2.4c-1-2.5-0.8-4.1-0.4-5.5c1.3-4.9-0.4-8.2-4.7-10.6
	c-1.3-0.7-2.3-1.9-3.5-2.9c0.1-0.1,15.3-13.6,15.8-14c2.5,8.3,7.9,12,17.2,10.3C202.5,140.9,200.6,147.2,205,155.3z M470.4,560.3
	c8.6,0.7,13.9-2.7,15.9-10.8c0.5,0.4,15.8,12.5,16.3,12.9c-7.6,3.7-9.8,9.7-6.9,18.1c-6.6-5.4-13-6.4-20.1-1
	C478.9,571.5,477.6,565.3,470.4,560.3z M175.3,579.8c3.6,3,7,3,10.9,0.6c-1.4,4.3-1.2,7.9,2.8,10.7c-4.5,0.1-7.9,1.5-9.3,7.2
	c-1.7-5.1-3.4-8.5-8.7-8C174.4,587.5,176.6,584.5,175.3,579.8z M389.1,79.5c-4.2-0.2-6.9-0.9-9.2-0.4c-2.4,0.6-3.1,3.9-5.7,5.3
	c-0.7-2.5-0.7-5.4-2.1-7.1c-1.5-1.8-4.3-2.3-7.3-3.8c5.8-2.1,8.7-5.9,7.8-12.2c3.9,4.4,8.1,6.6,13.9,3.5
	C383.9,70.1,383.1,74.9,389.1,79.5z M575.7,289.9c-5.9-1.2-9.6,1-12.2,6.1c-1-5.5-3.5-9.2-9.6-9.8c5-2.6,7.6-6.1,6.1-12.2
	c4.2,3.6,8.3,5.6,13.7,2.1C571.3,281.2,571.5,285.7,575.7,289.9z M13.6,418.7c3.8,5,7.9,5.8,12.9,2.6c0.4,3.1-2.2,5.3-1.6,7.6
	c0.6,2.2,2.5,4,3.8,6.1c-7.3,1.1-7.3,1.1-12.6,6.4c-0.4-5.9-3.5-9.1-9.4-9.7C12.5,426.8,12.5,426.8,13.6,418.7z M79.4,541.5
	c5.5-2.6,7.8-6.3,6.5-12.3c4.1,3.8,8.3,5.3,12.9,2.2c1,1.1,0.4,1.8,0.1,2.4c-1.7,3.3-1.8,6.2,1.1,8.9c0.7,0.6,2.1,2.8-0.2,2.3
	c-5.4-1.1-7.9,1.9-10.7,7C88.3,545.6,85.8,541.8,79.4,541.5z M56.1,266.3c-2.1,7.1-2.1,7.1,1.6,14.3c-5.4-1-9.9-0.2-11.9,6
	c-1.3-5.7-3.6-9.6-10-9.9c5.3-2.6,7.6-6.4,6.5-12.3C46.4,268.7,50.7,269.6,56.1,266.3z M461.6,146.6c4,4.4,8.2,4.9,14,1.3
	c-2.6,5.7-3.7,10.3,1.5,14.2c-5.5-0.4-10.2,0.3-11.6,6c-1.5-0.1-1.6-0.9-1.6-1.4c-0.5-4.1-2.5-6.7-6.8-7.3c-1-0.2-2.9-0.8-0.7-1.8
	C461,155.4,462,151.7,461.6,146.6z M259,111.5c-1-4.1-2.7-6.9-7.1-7.2c3.3-2.2,5.6-4.5,4.5-8.8c3.1,2.6,6.1,3.6,9.9,1.5
	c-2.1,3.8-1.5,7,2.2,10C264.1,107,260.4,106.5,259,111.5z"/>
<path style="fill:#26397C;" d="M453.7,564.6c-7-3.6-13.4-6.9-19.8-10.3c-1.9-1-3.3-1.1-5.2-0.1c-6.3,3.5-12.7,6.8-19.8,10.6
	c1.1-6.8,1.8-13,3.2-19.1c0.9-4.2,0.1-7-3.1-9.9c-4.7-4.3-8.7-9.2-12.9-13.8c6.4-1,13.5-2.2,20.6-3.1c2.4-0.3,3.5-1.3,4.5-3.3
	c3-6.5,6.3-12.9,9.7-19.9c3.5,7.1,6.8,13.5,10,20c1,2.1,2.3,2.9,4.6,3.2c7.1,0.8,14.1,1.9,21.6,3c-5.3,5.3-10.2,10.5-15.3,15.3
	c-1.9,1.8-2.4,3.4-1.9,6C451.2,549.9,452.3,556.8,453.7,564.6z M150.9,188.8c3.4,5.7,6.5,10.7,9.4,15.9c1.1,2,2.5,2.8,4.8,2.9
	c5.9,0.3,11.8,0.8,18.4,1.4c-4.4,5.1-8.3,9.7-12.4,14.1c-1.4,1.5-1.7,2.8-1.2,4.7c1.6,5.8,3,11.7,4.7,18.4
	c-5.9-2.6-11.3-4.7-16.5-7.2c-2.5-1.2-4.4-0.9-6.6,0.6c-4.7,3.2-9.6,6.1-15,9.5c0.6-6.6,0.9-12.6,1.7-18.5c0.3-2.2-0.2-3.5-1.9-4.9
	c-4.7-3.7-9.2-7.6-14.4-12c6.3-1.4,11.8-2.9,17.4-3.9c2.7-0.5,4.1-1.7,5.1-4.3C146.2,200,148.5,194.7,150.9,188.8z M518.8,296.9
	c2.5,1.7,4.7,1.1,7.2-0.5c4.4-2.8,8.9-5.2,14-8.2c-0.8,6-1.4,11.5-2.2,16.9c-0.4,2.5,0.4,4.3,2.4,6c3.5,3,6.8,6.1,10.2,9.2
	c0.5,0.5,1.4,0.9,1.1,1.8c-0.3,0.9-1.3,0.6-2,0.8c-4,0.7-7.9,1.8-12,2.1c-4,0.3-6.2,2.1-7.3,5.8c-0.5,1.5-1.5,2.9-2.2,4.3
	c-6.4-6.9-11.9-14.5-17.5-22c-1.5-2.1-0.9-4,0.7-5.9C514,304.1,516.7,300.7,518.8,296.9z M321.7,481.7c4,1.2,7.4,2,10.5,3.2
	s5.4,1,7.9-1.4s5.4-4.5,9-7.3c0,4.6,0.1,8.4,0,12.1c-0.1,2.5,0.6,4.2,3,5.5c3.3,1.8,6.4,4.1,10.2,6.6c-4.4,1.6-8.1,3.1-12,4.3
	c-2,0.6-2.9,1.7-3.4,3.6c-1,3.9-2.1,7.8-3.3,12.5c-2.9-3.8-5.5-7-7.9-10.3c-1.1-1.5-2.2-2-4.1-1.9c-4.1,0.2-8.1,0.1-12.6,0.1
	c2.3-3.4,4.6-6.8,7-10.2c1.1-1.5,1.3-2.8,0.6-4.5C324.9,490.1,323.5,486.3,321.7,481.7z M97.2,512c-2.2-4.1-4.2-7.4-5.8-10.8
	c-0.9-1.9-2.1-2.6-4-2.8c-3.9-0.3-7.7-0.8-12.3-1.3c2.8-3,5.1-5.8,7.7-8.1c2.4-2.1,2.7-4.2,1.9-7.1c-0.9-3.3-1.4-6.6-2.2-10.6
	c4.1,1.9,7.7,3.5,11.1,5.3c1.8,0.9,3.2,0.9,4.9-0.2c3.3-2.1,6.8-3.9,10.7-6.1c-0.6,4.4-1,8.2-1.6,11.9c-0.4,2.1,0,3.6,1.7,5
	c3,2.5,5.8,5.2,9.1,8.2c-4.2,0.8-7.8,1.5-11.4,2c-2.4,0.4-4.1,1.3-5,3.8C100.7,504.7,99,508,97.2,512z M192.4,553.4
	c-1.8-3.5-3.6-6.2-4.7-9.1c-1.2-3-3.3-4-6.2-4s-5.8-0.1-8.9-1.1c1.7-3.1,4.1-5.4,6.6-7.7c1.8-1.6,2.5-3.2,1.6-5.7s-1.2-5.2-1.7-7.8
	c-0.3-1.6,0.1-2.6,2-1.6c2,1.1,4.2,1.9,6.1,3.1c3,2,5.7,1.5,8.4-0.4c2.3-1.6,4.5-3.2,7.5-4.1c-0.1,1.8,0.1,3.6-0.5,5
	c-2.8,7.7,1.9,11.8,7.2,15.7c0.6,0.4,1.1,1,1.9,1.8c-3.8,1.6-7.7,1.7-11.3,2.5c-1.7,0.4-2.6,0.9-3.3,2.6
	C195.9,546,194.2,549.3,192.4,553.4z M535.3,134.4c-0.2-0.5-0.3-0.7-0.2-0.7c4-8,4-15.2-4.9-21.1c3.9-1,6.7-0.7,9.5-0.6
	s4.8-0.5,6.2-3.2c1.3-2.5,3.1-4.6,5.1-7.5c1.2,3.4,2.3,6.3,3.1,9.3c0.6,2.2,1.8,3.4,4.1,3.8c2.9,0.6,5.8,1.7,9.4,2.7
	c-1.9,1.4-3.1,2.6-4.6,3.4c-5,2.5-6.7,6.4-5.6,11.8c0.3,1.5,0,3,0,4.9c-3-1.2-5.3-3.3-7.8-5.1c-1.8-1.4-3.4-1.7-5.5-0.8
	C541.2,132.4,538.3,133.3,535.3,134.4z M293.2,222.7c-9.5-2.8-16-0.1-19.7,9.2c-1.9-3.6-2.2-6.6-2.8-9.4c-0.5-2.2-1.6-3.5-3.7-4.2
	c-2.7-0.8-5.4-2-8.1-3c0.1-0.5,0.1-0.8,0.3-0.9c8.3-3.2,11.8-9.1,9.6-19.1c3.4,2.8,5.7,4.6,7.8,6.6c1.7,1.6,3.2,2,5.5,1.2
	c2.7-1,5.6-1.5,8.3-2.3c0.2,0.4,0.4,0.7,0.3,0.8C286,209.1,286,216,293.2,222.7z M518.8,296.9c0.7,1.2,0.2,2.2-0.5,3.1
	c-2.1,2.7-4.1,5.4-6.4,7.9c-1.7,1.8-1.8,3.3-0.3,5.3c5.1,6.5,10.2,13.1,15.3,19.7c0.6,0.7,1.1,1.4,1.1,2.3l0,0c-3,0.5-6,0.4-9.1-0.1
	c-0.7-0.9-1.6-1.8-1.9-2.8c-1.6-5.7-6.3-5.9-10.9-6.4c-3.9-0.4-7.7-0.8-12.3-1.3c4.4-4.6,8.1-8.7,12-12.7c1.5-1.5,2-2.8,1.5-5
	c-1.3-5.4-2.2-10.9-3.5-17.1C509.3,292.4,514,294.6,518.8,296.9z M377.8,373.4c0.9,0.9,0.6,1.4,0.4,1.9c-2.9,6.3-2.4,11.9,3.6,16.3
	c0.5,0.4,1.4,1,0.8,1.8c-0.3,0.4-1.2,0.6-1.7,0.5c-8-1.7-11.8,2.9-14.6,9.4c-0.1,0.2-0.4,0.2-1.4,0.7c-0.8-8.9-6.2-13-15.5-12.9
	c3.5-3.1,7-5.1,8.8-8c1.9-3.1-1-7.1,0.3-11.7C364.6,378.4,371.3,378.1,377.8,373.4z M24.6,484.8c-2.4-9.1-7.4-13.5-16.8-11.6
	c1.5-3.2,3.6-4.8,5.4-6.6c1.8-1.8,2.6-3.4,1.7-6c-0.8-2.3-1-4.9-1.5-7.4c0.5-0.1,0.8-0.3,0.9-0.3c6.5,4.7,12.9,5.1,19.2-1.6
	c0.6,3.1,0.1,5.1-0.4,7.1c-0.8,3.3-0.2,5.9,2.8,7.9c1.8,1.2,3.2,2.9,4.9,4.5c-1.8,1.2-3.7,1.4-5.5,1.4c-4.4,0.1-6.9,2.3-8.1,6.5
	C26.8,480.4,25.8,482,24.6,484.8z M153.9,139.3c-3.6,8.9-1.5,15.2,6.7,19.3c-2.3,1.3-4,1.5-5.7,1.6c-4.7,0.1-7.4,2.5-8.6,6.9
	c-0.4,1.5-1.3,3-2.5,5.7c-2.4-9.2-7.5-13.4-16.8-11.6c1.4-3.2,3.5-4.8,5.3-6.6s2.7-3.4,1.8-6c-0.8-2.3-1-4.9-1.6-8.2
	c2.7,1.3,5,2.2,7,3.5c2.5,1.6,4.5,1.4,6.9-0.3C148.4,142.1,150.6,141.1,153.9,139.3z M217.3,409.1c3.3-8.4,1-14-6.5-17.9
	c8.4-0.3,13.4-4,14.4-12.6c2.9,7.6,7.7,11.6,16.4,10.1c-6.5,5.2-8.2,11-3.7,19c-4.3-1.8-7.5-4.2-10.4-4
	C224.4,403.9,221.6,406.7,217.3,409.1z M531.1,520.9c-2.6,7.4-0.6,12.4,6,16c-7.4,0.4-11.9,3.7-13.1,11.3c-2.6-6.9-6.9-10.3-14.7-9
	c5.8-4.6,7.6-9.9,3.3-17.2c4,1.6,6.8,3.8,9.5,3.6C524.8,525.5,527.3,523,531.1,520.9z M567.8,471.7c-7.7,0-12,3.3-13.5,10.8
	c-2.3-7.1-6.6-10.5-14.2-9.6c5.4-4.5,8.4-9.4,4.4-16.6c6.1,4.2,11.6,4.7,17.2-0.6C559.5,462.8,561,468.1,567.8,471.7z M448.5,416.6
	c6.7-1.7,10.3-5.3,9.5-12.5c3.1,1.7,4.2,5.3,6.7,6s5.5-0.3,9.1-0.6c-4.5,5.2-5.6,10.3-0.7,16c-6.6-3-11.5-1.3-15.6,4.3
	C458,423,455.6,418.4,448.5,416.6z M283.3,126.3c-2.4,6.3-1,10.8,4.7,14.1c-6.3,0.2-10.3,2.9-11.7,9.3c-2.2-5.7-5.6-9.1-12.3-8.1
	c4.8-4,6.7-8.6,3.5-14.6C275.6,130,275.6,130,283.3,126.3z M386.7,475c2.7,5.7,6.6,8.2,13,6.9c-4.5,4.2-5.8,8.7-2.5,14.4
	c-5.5-2.8-10.3-2.8-14.8,3.1c0-4.1,0.8-7-0.2-9.2c-1-2-3.8-3.2-6.4-5.3C382.2,484.3,386.1,481.7,386.7,475z M547.6,406.2
	c-1.9,5.8-0.2,9.7,4.7,12.8c-5.5,0.3-9.3,2.4-10.4,8.3c-2-5.2-5.3-8.1-11.3-7.5c4.4-3.5,6-7.5,3.5-12.9
	C538.8,409.8,543.2,411.1,547.6,406.2z M118.5,314.7c-1.3,0.4-1.4,1.6-1.6,2.7c-0.2-0.1-0.5-0.2-0.6-0.4c-2.2-3.6-5-6-10.1-4.6
	c3.3-3.7,4.2-7.4,1.3-11.9c4.9,3.1,8.4,0.9,11.7-2c1,2.5-1.8,6.1,2.3,7.6c1.3,0.7,3.4,0.6,3.3,2.5c-0.1,1.7-2,2.2-3.4,2.5
	C119.4,311.7,118.2,312.5,118.5,314.7z M369.6,143.4c-4.6-1.4-8.1-1-11,3.3c0.2-5-1.7-8.1-6.5-9.6c4.7-1.3,7.2-4.1,7-9.2
	c2.8,4,6.1,5.8,11,3.9C367.3,135.7,366.5,139.4,369.6,143.4z M591.4,492.7c-1.6-4.6-4.4-6.5-9.2-6.2c3.9-2.8,4.7-6.3,3-10.7
	c3.8,2.7,7.3,2.9,10.9-0.3c-0.9,4.4-0.2,7.8,3.9,10.2C595.5,486,592.5,487.9,591.4,492.7z M55,530c-1.7-4.3-4.2-6.7-9.1-6.1
	c3.6-2.9,4.9-6.1,3-10.6c3.8,2.3,7.2,3,10.8-0.5c-0.6,4.3-0.3,8,4.1,10.3C58.9,523.2,56.2,525.5,55,530z M189.8,334.4
	c0-0.9,0.2-1.2,1.4-1.1c1.4,0.2,2.7,1.4,4.2,0.4c1.1-0.9,2.1-1.8,3.8-3.1c0.1,3.8,0.8,7.2,5.3,8.1c-3.9,1.2-6.2,3.4-5.8,8.6
	c-2.7-4.1-5.2-5.8-9.5-4.1C190.6,340,192.9,337.2,189.8,334.4z M195.9,187c-4,1.1-6,3.4-6,7.6c-2.3-3.6-5-4.7-9-3.5
	c2.3-3.2,3-6.2,0.4-9.7c3.7,1.2,6.8,1,9.4-2.6C190.7,182.8,191.9,185.7,195.9,187z M172.6,105.9c-3.9-4-3.9-4-9.1-4.1
	c2.1-4.6,2.1-4.6,0.5-9c1.7-0.7,3.3,1,4.7,0.4c1.5-0.6,2.6-1.9,4.6-3.3c-0.3,4.1,1.2,6.8,5,8.1C174.5,99.3,172.2,101.2,172.6,105.9z
	 M73.6,14.7c3.9,1.2,7,1.2,9.3-2.6c0.3,4,1.1,7.2,5.6,8c-3.8,1.4-6.3,3.3-6.1,7.7c-2.4-3-5-5-9.1-3.3C75.6,21.1,76.4,18.1,73.6,14.7
	z M583.9,378.9c4,1.4,6.9,0.6,9.8-3.3c-0.4,4.8,1.3,7.4,6.1,9c-5.1,0.9-7,3.2-7.1,7.4c-2.2-3.3-5-4.9-9.5-3
	C585.4,385.3,587.5,382.4,583.9,378.9z M43.4,111.4c0.1,4.1,1.4,6.9,6.3,8.2c-4.6,1.3-6.9,3.4-6.6,8.2c-2.8-3.4-5.1-6.1-9.4-3.8
	c2.2-3.4,3.3-6.3,0.5-9.9C37.9,115.4,41.1,115.3,43.4,111.4z M457.5,323.8c-0.9-0.2-1.9-0.3-2.8-0.5c1.8-1.9,4.2-3.5,4.9-5.6
	c0.7-2-0.3-4.6-0.6-7c3.3-0.2,5.9,4.7,9.3,0.8c1.1-0.5,2.2-1,3.5-1.6c0.8,2.5-1.2,5.1-0.2,7c1,2,3.3,3.3,6,5.8
	c-6.3,0-10.4,1.8-10.8,8.6C463.7,327.7,463.4,321.9,457.5,323.8z"/>
<path style="fill:#FDFEFE;" d="M512.2,460.4c-0.6,5-1,9.2-1.8,13.3c-0.6,3.1,0,5.2,2.6,7.2c3.3,2.5,6.2,5.6,9.7,8.7
	c-4.9,1.7-9.7,2.1-14.3,3c-2,0.4-3.1,1.1-3.8,3c-1.8,4.4-3.9,8.7-6.2,13.6c-2.6-4.7-4.9-8.8-7.1-13.1c-0.9-1.7-2-2.6-4.1-2.7
	c-4.7-0.3-9.3-1-14.8-1.5c3.7-3.9,6.8-7.5,10.2-10.8c1.4-1.4,1.9-2.7,1.4-4.7c-1.1-4.5-1.9-9.2-3-14.6c4.7,2.2,8.8,4,12.7,6
	c2.3,1.2,4.1,1.2,6.3-0.2C503.6,465.1,507.6,463.1,512.2,460.4z M417.1,347c6.6,5.6,12.6,5.1,18.8-0.4c-0.5,4.3-2,7.9-1.1,10.9
	c0.9,2.8,4.2,4.8,7.1,7.9c-8.2-0.7-13.5,2.2-15.4,10.6c-2.3-7.6-6.6-11.9-15.2-11.1C417.7,360.3,420.8,354.9,417.1,347z M114,69.3
	c5.8-6.1,5.4-12,0.8-18.5c7.3,3.1,13.2,2.1,17.7-5.7c0.6,4.5,0.1,8.3,1.7,10.7c1.6,2.5,5.3,3.6,9,5.9c-8.3,1.4-12.1,5.9-11.8,14.1
	C127.2,69,121.8,66.5,114,69.3z M529,170.5c-3.2,7-1.4,12.3,4.4,16.8c-7.2-0.2-12.2,2.2-14.4,9.7c-2-6.9-5.6-11.4-13.8-10.8
	c6.6-4.1,8.4-9.4,6.2-16.6C517.2,174.5,522.8,175.3,529,170.5z M346.9,80.2c-0.5,4.7-0.7,8.7-1.4,12.7c-0.4,2.3,0.2,3.8,2,5.2
	c3.2,2.5,6.1,5.3,9.7,8.4c-4.7,1-8.9,2.1-13.1,2.8c-1.9,0.3-2.9,1.2-3.5,2.9c-1.5,3.9-3.2,7.7-4.9,11.9c-2.4-2.4-3.8-5.3-5-8
	c-1.9-4.5-4.9-6.2-9.7-6c-2.8,0.2-5.7-0.5-9.4-0.8c3.2-3.6,6-6.8,8.9-9.9c1.3-1.3,1.7-2.5,1.1-4.4c-1.2-4.1-2-8.4-3-13.1
	c4.3,1.9,8.1,3.5,11.8,5.4c1.9,1,3.4,0.9,5.3-0.3C339.2,84.6,342.8,82.6,346.9,80.2z M420.9,32.9c2,5.6,5.7,7.7,11.5,7
	c-4.1,3.7-6.3,7.7-2.9,13.2c-5.2-3.5-9.6-2.8-13.8,1.4c0.3-7.8,0.3-7.8-5.1-13.1C416.1,41.1,420,39,420.9,32.9z M344.3,243.1
	c-4.7,3.4-6.4,7.3-4.1,12.7c-4.7-3.3-9-3.1-13.3,0.6c1.6-5.4,0.5-9.5-4.6-12.6c5.6-0.2,9.3-2.5,10.3-8.7c1.8,2.7,2.7,5.3,4.4,6.5
	C338.6,242.7,341.2,242.6,344.3,243.1z M476.4,31.5c5.1,0.9,8.6-0.5,10.4-5.5c3.1,7,3.1,7,8.8,9.1c-4.4,2.1-7.1,4.9-5.9,10.3
	c-3.4-3.2-7-4.8-11.6-2.1C480.1,38.9,480.2,35,476.4,31.5z M100.4,358.3c0.3,5.5,3.5,7.7,9.2,8.5c-5.3,2.3-7.7,5.3-6.4,10.6
	c-3.7-3-7.3-5.2-12-1.8c2.3-4.6,2.6-8.4-1.6-11.9C94.3,364.1,98.2,363.2,100.4,358.3z M357.3,315.7c3.1-4.6,2.6-8.3-1.8-12.4
	c5.9,1.4,9.4-0.1,11.7-4.8c0.7,4.9,2.9,8.2,8.1,8.4c-1.4,2.2-4.2,2.5-5.1,4.3c-0.8,1.7-0.5,3.9-0.8,6.2c-2.2-0.5-3.2-3.1-5.2-3.3
	C362.4,313.9,360.4,314.9,357.3,315.7z M572.6,245.9c-3.6-3.2-7.1-4.6-11.7-1.8c2.1-4.4,2.3-8.4-1.7-12c4.8,0.6,8.5-0.3,10.8-5.2
	c0.8,4.9,2.8,8.2,8.3,8.5C573.9,237.7,571.6,240.7,572.6,245.9z M242.9,322.9c3.7,3.3,7.3,5,11.9,1.3c-2.1,4.7-2.1,8.7,2.9,12.2
	c-3.4,0.2-5.7-0.2-7.4,0.7c-1.6,0.8-2.6,3-4.4,5.2c-0.5-5.1-3-8-8-8.8C242.8,331.4,243.7,327.7,242.9,322.9z M75,189.1
	c5.2,0.9,8.8-0.3,10.9-5.3c0.6,5.2,3,8.2,8.3,8.5c-5.4,5.1-5.4,5.1-5.7,11.3c-3.4-3.7-7-5.3-11.8-2.5C79,196.7,79.4,192.7,75,189.1z
	 M455.6,265.2c1.5-4.5-0.5-7-4.5-9.2c4.4-0.8,7.6-2,7.7-6.9c2.1,3.7,4.5,6.1,9.1,4.9c-2.6,3-4.7,5.9-1.8,10
	C462.2,262.4,458.8,261.9,455.6,265.2z M378.6,583.8c4.6,0.9,7-0.6,8.8-4.3c1,3.7,2.2,6.5,6.5,6.3c-3,2.3-4.7,4.7-3.2,9.2
	c-3.3-3-6.1-3.9-10.1-1.1C382.6,589.7,382.2,586.8,378.6,583.8z"/>
<path style="fill:#FBFBFC;" d="M579,190.2c-3.1-8.4-7.5-14.3-17.8-12.3c0.1-0.4,0.2-0.8,0.2-1.2c2.1-2,4-4,6.2-5.9
	c1.8-1.6,2.5-3.2,1.9-5.6c-0.7-2.7-0.8-5.5-1.3-8.6c3.1,0.6,5.3,2.3,7.6,3.7c2.4,1.4,4.4,1.5,6.7,0.1s4.7-2.4,7.9-3.6
	c-3.7,8.8-1.7,15.6,7.5,20.6c-3.8,0.6-6.1,1.3-8.4,1.3c-3.9,0-6,1.9-7.2,5.3C581.4,185.9,580.2,187.7,579,190.2z M31.9,245.2
	c-5-8.2-11.2-10.6-19.8-6.9c5.9-7.3,5.5-14-0.2-21.2c8.7,3.6,14.8,1.1,19.8-6.5c-0.1,8.9,3.1,14.8,12,15.8c-0.3,1-0.3,1.3-0.5,1.4
	c-3,2.1-7.5,2.5-9.2,5.7C32.4,236.4,32.7,240.3,31.9,245.2z M410.8,95.3c8.8-0.2,14.2-3.8,15.3-12.9c2.4,1.9,3.3,4,4.1,6.1
	c1.2,3.1,3.3,4.6,6.6,4.6c2.1,0,4.3,0.3,6.7,0.5c-0.6,2.2-2.3,3.5-3.7,4.7c-3,2.6-4.2,5.4-2.6,9.3c0.7,1.7,0.7,3.7,1.3,7
	c-7.5-6.4-14.1-6-20.9,0.2C420.9,106.2,418.6,100,410.8,95.3z M365.2,455c-1.9-3.2-3.1-6.9-5.6-8.9s-6.5-1.4-10-1.7
	c-0.1-1.7,1.3-2.5,2.3-3.3c4.2-3.3,4.6-7.5,3.2-12.3c-0.3-0.9-1.4-2.3-0.1-3.1c0.9-0.5,1.8,0.6,2.8,0.9c0.2,0.1,0.5,0.2,0.7,0.3
	c4.1,3.2,8.1,2.6,11.9-0.6c0.9-0.8,2-1.6,3.4-1.4c0.1,0.3,0.3,0.5,0.2,0.7c-1.6,6.2-1.4,11.7,4.9,15.4c1.1,0.7,2,2.6-0.3,2.4
	c-7.7-0.4-10.7,4.3-12.7,10.5C365.8,454.3,365.6,454.5,365.2,455z M293.8,291.3c3.7,0.2,6.9,3.3,10.1,2.3c2.9-1,5.3-3.7,8.8-6.3
	c-1.6,8.4,1.3,13.8,8.9,16.9c-7.9,1.6-12.7,5.6-13,14.2c-3.8-7.4-9.1-10.6-17.4-7.3c0.5-3,2-4.6,3.4-6.1c2.2-2.5,2.5-4.9,1-8
	C294.7,295.4,293.7,293.6,293.8,291.3z M311.5,176.2c2.8-4.4,1.8-8-2.4-12.1c5.7,1.3,9.3,0.3,11.6-4.6c0.8,4.9,3.1,8,9.3,8.2
	c-4.8,2.7-8.2,5.2-6.6,10.8C319.6,174.9,316,174,311.5,176.2z M530.1,31.8c6.5-0.4,11.8-1.5,13.1-8.2c1.7,0.1,1.6,1.2,1.8,2
	c1.3,3.9,3.1,7.1,8,7.1c0.7,0,3.9,0.5,1.5,2.2c-4.8,3.3-6.4,7.2-4.3,13.3c-5.3-4-10.4-5.3-16-0.9C535.9,41.2,536.8,35.7,530.1,31.8z
	 M589.7,77.8c-3.8,0.8-6.8-1.3-9.1-0.1c-2.3,1.1-3.8,3.8-6.7,6.9c0-7.4-2.5-12-9.6-13.4c6.3-2.3,9.7-6.1,8.9-13.1
	c4.4,4.2,8.6,7.8,15.4,3.9C585.4,67.7,584.1,72.9,589.7,77.8z M195.7,454.4c5.7-4,6.8-9,4.2-15.3c5.5,3.3,10.6,4.7,15.8-0.8
	c-1.4,6.6-0.3,11.7,5.8,15.2c-6.9,0.1-10.9,3.2-12.5,9.9C206.7,457,202.7,453.9,195.7,454.4z M365.1,36c-2.2-6.5-6.2-9.7-13.5-8.7
	c5.4-4.3,7.5-9.1,4.3-15.7c5.9,4.3,11.1,4,16.3-1.3c-0.3,3.9-1.4,7.1-0.5,9.5c0.8,2.3,3.8,3.8,5.9,6.3
	C370.8,26.3,366.6,29.1,365.1,36z M75.3,314.3c-5.9,4-7,8.9-4.2,15.5c-3.6-1.6-6.2-3.7-8.9-3.7c-2.5,0-5,2.2-8.6,3.9
	c3.4-7,1.5-11.8-4.3-15.7c6.8,0.1,11.3-2.4,12.9-9.5C64.5,311.2,68.2,314.8,75.3,314.3z M554.5,386.2c-2.3-6.8-6.6-9.5-13.6-9
	c5.5-4.1,7.2-9,4.4-15.5c5.7,3.7,10.9,4.4,16.1-0.9c-1.7,6.6-0.8,11.7,5.6,15.2C560.5,376.6,555.6,378.8,554.5,386.2z M54.6,78.9
	c1.9,0.7,2.7,0.8,3.4,1.2c3.8,2.1,7.3,2.5,10.6-0.9c0.6-0.6,1.4-1.4,2.3-0.9c1,0.5,0.6,1.7,0.4,2.4c-1.7,5.9,2.6,8.3,7.3,11.6
	c-6.9,0.8-11.9,3-12.1,10.8c-3.3-5.8-7-9.8-14.4-7.9C57.3,90.5,58.6,85.5,54.6,78.9z M237.4,580.7c-1.4-2.4-2.3-5.5-4.4-6.9
	c-2.1-1.4-5.3-1.2-8.8-1.8c4.6-4,8-8.5,4.2-15.3c5.9,4.1,11.1,3.8,16.4-1.4c-0.3,4-1.2,6.9-0.6,9.4c0.6,2.7,3.9,3.8,6.2,6.7
	C243.8,571.5,239,573.7,237.4,580.7z M319.8,359.5c5.8-4,7.3-8.9,4.3-15.5c5.9,3.8,11,4.6,16.3-0.8c-2.3,6.9-0.5,11.8,5.6,15.4
	c-7,0-11.1,3-12.7,10C331.2,362,326.8,359.1,319.8,359.5z M67.7,591.7c5.6-4.4,7.2-9.3,4.2-15.9c5.7,4.5,10.9,4.2,16.2-0.6
	c-1.8,6.5-0.9,11.6,5.5,15.1c-6.7,0.5-11.1,3.2-12.5,10.2C78.8,594.2,75.1,590.6,67.7,591.7z M134.8,543.6
	c5.6,4.8,10.8,4.7,16.2,0.1c-2.2,6.7-0.4,11.4,5.6,14.6c-3,2-6.6,0.7-8.5,2.6c-1.9,1.9-2.8,4.9-4.6,8.4c-1.7-7.3-5.9-10-12.8-9
	c1.4-3.3,5-4.5,5.4-7.2C136.5,550.4,135.4,547.5,134.8,543.6z M571.1,417.7c6.6,3,11.2,0.7,15.1-4.8c0.2,6.7,2.7,11.2,9.7,12.8
	c-6.9,1.9-9.7,6.3-9,12.9c-1.6-0.1-2.1-0.9-2.6-1.6c-2.7-3.4-5.8-5.1-10.2-3.4c-0.8,0.3-3.5,0.7-2-1.4
	C575.7,427.2,574.4,422.8,571.1,417.7z M466.2,212.4c-7.1-1.6-11.2,1.5-14.1,7.4c-0.9-6.9-4.4-10.7-11.6-11.1
	c5.9-3.2,9-7.4,7.1-14.5c4.9,4.5,9.9,6.2,16,2.1C460.5,202.5,461.1,207.6,466.2,212.4z M228,84.6c-2.6,6.8-0.3,11.4,5.5,15.2
	c-7,0.2-11.5,2.7-12.5,10.1c-2.7-6-5.9-10.3-13.4-8.5c1.2-3.5,4.8-4.7,5.3-7.3c0.5-2.7-0.6-5.6-1.2-9.6
	C217.5,89.5,222.6,89.1,228,84.6z M160.7,361.1c6.2,3.6,11.3,2.3,15.9-2.8c-1.2,6.9,1.1,11.4,7.7,14.2c-7.2,0.7-10.5,4.8-10.8,12.1
	c-2.5-3.1-3.8-6-6-7.1c-2.3-1.1-5.5-0.2-9.5-0.2C163.1,372.3,164.6,367.3,160.7,361.1z M412.1,256.7c-7.1,1.6-7.1,1.6-11.6,8.5
	c-1.7-5.2-4.8-8.1-10.8-7.4c4-3.7,6.1-7.6,3.5-13c4.8,2.6,9.2,3.7,13.6-1C405.1,249.6,406.6,253.7,412.1,256.7z M200.9,150.7
	c-4.9-2.9-9-2.8-13.2,1.1c0.9-5.4-0.5-9.4-5.5-12.1c5.7-0.4,8.9-3.2,9.9-8.9c2.2,5.4,5.9,7.4,12.4,6.5
	C199.6,141.5,197.7,145.4,200.9,150.7z M479.6,575.2c0.5-7.8,0.5-7.8-3.6-13.1c5.2,0.2,9.1-1.4,10.7-6.9c1.3,5.4,4.5,7.8,10.9,7.8
	c-5.2,3.3-7.6,6.9-5.1,12.4C488.1,572.1,484,571,479.6,575.2z M383.8,76.9c-3.8-1.1-6.2,0.3-8.4,3.8c-0.6-3.9-1.8-6.7-5.8-7.2
	c3.2-1.8,5.1-3.9,4.5-8.5c2.9,3.3,5.6,4.3,9.6,2.3C381.5,71.1,381.4,74,383.8,76.9z M570.6,279.6c-1.6,3-1,5.5,1.5,8.2
	c-3.7-0.2-6.3,0.6-7.8,5c-0.7-4.5-2.4-6.5-6.3-7c2.8-2.1,5.1-4,4-8.1C564.9,280,567.4,281,570.6,279.6z M24,424.2
	c-1.3,3.4-1.8,6.1,1.2,8.7c-3.5,0.2-6.4,0.6-7.6,5.1c-1.1-4.3-2.4-6.7-6.5-6.9c2.5-2.2,5.2-3.7,3.7-8.2
	C17.9,425.1,20.5,426.5,24,424.2z M96.3,534.6c-1,3.2-1.3,5.9,2.1,8.7c-4.1-0.5-6.8,0.4-8.4,4.2c-0.8-3.8-2.1-6.2-6.2-6.5
	c2.7-2.2,5-4,3.8-8.1C90.6,535,93.1,536.6,96.3,534.6z M40.4,276.3c2.4-2.3,4.9-3.9,3.3-8.5c3.3,2.8,5.8,3.8,9.7,1.2
	c-2.2,4-1.7,6.7,1,9.5c-3.8-0.4-6.6-0.1-7.8,4.4C45.3,279.2,44.6,276.1,40.4,276.3z M473.5,160.6c-3.9-0.4-6.5,0.3-8,4.1
	c-1-3.7-2.3-6.3-7.2-6.2c3.9-2.2,5.7-4.3,4.6-8.2c3,1.6,5.4,4.3,8.8,1.2C470.6,154.9,470.4,157.8,473.5,160.6z M264.8,105.5
	c-2.3-0.2-4.2,0-5.2,2.7c-1.2-2.1-1.6-4.5-4.6-4.3c2-1.4,3.2-2.8,2.8-5.1C262,100.3,262,100.3,264.8,105.5z"/>
</svg>
