<?xml version="1.0" encoding="utf-8"?>
<!-- Generator: Adobe Illustrator 23.0.3, SVG Export Plug-In . SVG Version: 6.00 Build 0)  -->
<svg version="1.0" id="Layer_1" xmlns="http://www.w3.org/2000/svg" xmlns:xlink="http://www.w3.org/1999/xlink" x="0px" y="0px"
	 viewBox="0 0 572.9 793.1" style="enable-background:new 0 0 572.9 793.1;" xml:space="preserve">
<path style="fill:#214160;" d="M120.1,793c0.1-1.8,0.4-3.5,0.4-5.3c0-260.5,0-520.9,0-781.4c0-1.8-0.2-3.5-0.4-5.3c0.3,0,0.7,0,1,0
	c0,1.8,0.1,3.6,0.1,5.4c0,260.4,0,520.9,0,781.3c0,1.8-0.1,3.6-0.1,5.4C120.7,793,120.4,793,120.1,793z"/>
<path style="fill:#FEFEFE;" d="M124.3,1c10.1,0,20.2,0,30.2,0c0.9,1.7,0.5,3.5,0.5,5.3c0,260.5,0,521,0,781.5c0,1.8,0.4,3.6-0.5,5.3
	c-10.1,0-20.2,0-30.2,0c-0.9-1.7-0.5-3.5-0.5-5.3c0-260.5,0-521,0-781.5C123.8,4.5,123.4,2.7,124.3,1z M254.4,1
	c0.1,1.8,0.3,3.5,0.3,5.3c0,260.5,0,520.9,0,781.4c0,1.8-0.2,3.5-0.3,5.3c-10.1,0-20.2,0-30.2,0c-1.2-1.3-1.3-2.9-1.4-4.6
	c0-1.6,0-3.2,0-4.9c0-257.7,0-515.4,0-773.1c0-3.2-0.9-6.5,1.3-9.4C234.2,1,244.3,1,254.4,1z M350.2,793c-10.1,0-20.2,0-30.2,0
	c-1.2-1.3-1.3-2.9-1.4-4.6c0-1.6,0-3.2,0-4.9c0-257.7,0-515.4,0-773.1c0-3.2-0.9-6.5,1.3-9.4c10.1,0,20.2,0,30.2,0
	c1.2,1.3,1.3,2.9,1.4,4.6c0,1.6,0,3.2,0,4.9c0,257.7,0,515.4,0,773.1C351.5,786.7,352.4,790.1,350.2,793z M57.7,1
	c0,1.5,0.1,2.9,0.1,4.4c0,261.1,0,522.2,0,783.2c0,1.5-0.1,2.9-0.1,4.4c-9.8,0-19.5,0-29.3,0c-1.3-1.4-1.5-3.2-1.6-5s0-3.6,0-5.4
	c0-257.1,0-514.2,0-771.3c0-3.5-0.9-7.2,1.6-10.4C38.2,1,47.9,1,57.7,1z M444.4,1c0.1,1.8,0.3,3.5,0.3,5.3c0,260.5,0,520.9,0,781.4
	c0,1.8-0.2,3.5-0.3,5.3c-10.1,0-20.2,0-30.2,0c-1.2-1.3-1.3-2.9-1.4-4.6c0-1.6,0-3.2,0-4.9c0-257.7,0-515.4,0-773.1
	c0-3.2-0.9-6.5,1.3-9.4C424.2,1,434.3,1,444.4,1z M540.2,793c-10.1,0-20.2,0-30.2,0c-1.2-1.3-1.3-2.9-1.4-4.6c0-1.6,0-3.2,0-4.9
	c0-257.7,0-515.4,0-773.1c0-3.2-0.9-6.5,1.3-9.4c10.1,0,20.2,0,30.2,0c1.2,1.3,1.3,2.9,1.4,4.6c0,1.6,0,3.2,0,4.9
	c0,257.7,0,515.4,0,773.1C541.5,786.7,542.4,790.1,540.2,793z"/>
<path style="fill:#CC0001;" d="M57.7,1c10.7,0,21.5,0,32.2,0c1.2,1.3,1.3,2.9,1.4,4.6c0,1.6,0,3.2,0,4.9c0,257.7,0,515.4,0,773.1
	c0,3.2,0.9,6.5-1.3,9.4c-10.7,0-21.5,0-32.2,0c-1.3-1.4-1.5-3.2-1.6-5s0-3.6,0-5.4c0-257.1,0-514.2,0-771.3
	C56.1,7.9,55.2,4.2,57.7,1z M159.4,1c10.7,0,21.5,0,32.2,0c1.3,1.4,1.5,3.2,1.6,5s0,3.6,0,5.4c0,257.1,0,514.2,0,771.3
	c0,3.5,0.9,7.2-1.6,10.4c-10.7,0-21.5,0-32.2,0c-1.2-1.3-1.3-2.9-1.4-4.6c0-1.6,0-3.2,0-4.9c0-257.7,0-515.4,0-773.1
	C158.1,7.3,157.2,3.9,159.4,1z M254.4,1c10.7,0,21.5,0,32.2,0c1.3,1.4,1.5,3.2,1.6,5s0,3.6,0,5.4c0,257.1,0,514.2,0,771.3
	c0,3.5,0.9,7.2-1.6,10.4c-10.7,0-21.5,0-32.2,0c-1.3-1.4-1.5-3.2-1.6-5s0-3.6,0-5.4c0-257.1,0-514.2,0-771.3
	C252.8,7.9,251.9,4.2,254.4,1z M352.1,1c9.8,0,19.5,0,29.3,0c1.2,1.3,1.3,2.9,1.4,4.6c0,1.6,0,3.2,0,4.9c0,257.7,0,515.4,0,773.1
	c0,3.2,0.9,6.5-1.3,9.4c-9.8,0-19.5,0-29.3,0c-1.7-2.5-0.9-5.4-0.9-8.1c0-220.1,0-440.2,0-660.3c0-39,0-78,0-117
	C351.2,5.4,350.6,3,352.1,1z M444.4,1c10.7,0,21.5,0,32.2,0c1.3,1.4,1.5,3.2,1.6,5s0,3.6,0,5.4c0,257.1,0,514.2,0,771.3
	c0,3.5,0.9,7.2-1.6,10.4c-10.7,0-21.5,0-32.2,0c-1.3-1.4-1.5-3.2-1.6-5s0-3.6,0-5.4c0-257.1,0-514.2,0-771.3
	C442.8,7.9,441.9,4.2,444.4,1z M542.1,1c9.8,0,19.5,0,29.3,0c1.2,1.3,1.3,2.9,1.4,4.6c0,1.6,0,3.2,0,4.9c0,257.7,0,515.4,0,773.1
	c0,3.2,0.9,6.5-1.3,9.4c-9.8,0-19.5,0-29.3,0c-1.7-2.5-0.9-5.4-0.9-8.1c0-220.1,0-440.2,0-660.3c0-39,0-78,0-117
	C541.2,5.4,540.6,3,542.1,1z"/>
<path style="fill:#003366;" d="M93.1,1c10.1,0,20.2,0,30.2,0c1.2,1.3,1.3,2.9,1.4,4.6c0,1.6,0,3.2,0,4.9c0,257.7,0,515.4,0,773.1
	c0,3.2,0.9,6.5-1.3,9.4c-10.1,0-20.2,0-30.2,0c-1.2-1.3-1.3-2.9-1.4-4.6c0-1.6,0-3.2,0-4.9c0-257.7,0-515.4,0-773.1
	C91.7,7.3,90.8,3.9,93.1,1z M289.7,1c9.8,0,19.5,0,29.3,0c0.9,1.7,0.5,3.5,0.5,5.3c0,260.5,0,521,0,781.5c0,1.8,0.4,3.6-0.5,5.3
	c-9.8,0-19.5,0-29.3,0c-1.7-2.5-0.9-5.4-0.9-8.1c0-220.1,0-440.2,0-660.3c0-39,0-78,0-117C288.8,5.4,288.2,3,289.7,1z M28.4,1
	c-0.1,1.8-0.2,3.6-0.2,5.3c0,260.4,0,520.9,0,781.3c0,1.8,0.1,3.6,0.2,5.3c-8.6,0-17.2-0.1-25.8,0.1c-2.1,0-2.9-0.4-2.5-2.5
	c0.1-0.6,0-1.3,0-1.9c0-261.1,0-522.1-0.1-783.2c0-3.7,0.8-4.6,4.5-4.5C12.5,1.2,20.4,1,28.4,1z M223.2,793c-9.4,0-18.9,0-28.3,0
	c-1.2-1.3-1.3-2.9-1.4-4.6c0-1.6,0-3.2,0-4.9c0-257.7,0-515.4,0-773.1c0-3.2-0.9-6.5,1.3-9.4c9.4,0,18.9,0,28.3,0
	c0.9,1.7,0.5,3.5,0.5,5.3c0,260.5,0,521,0,781.5C223.6,789.5,224.1,791.3,223.2,793z M479.7,1c9.8,0,19.5,0,29.3,0
	c0.9,1.7,0.5,3.5,0.5,5.3c0,260.5,0,521,0,781.5c0,1.8,0.4,3.6-0.5,5.3c-9.8,0-19.5,0-29.3,0c-1.7-2.5-0.9-5.4-0.9-8.1
	c0-220.1,0-440.2,0-660.3c0-39,0-78,0-117C478.8,5.4,478.2,3,479.7,1z M413.2,793c-9.4,0-18.9,0-28.3,0c-1.2-1.3-1.3-2.9-1.4-4.6
	c0-1.6,0-3.2,0-4.9c0-257.7,0-515.4,0-773.1c0-3.2-0.9-6.5,1.3-9.4c9.4,0,18.9,0,28.3,0c0.9,1.7,0.5,3.5,0.5,5.3
	c0,260.5,0,521,0,781.5C413.6,789.5,414.1,791.3,413.2,793z"/>
</svg>
