<?xml version="1.0" encoding="utf-8"?>
<!-- Generator: Adobe Illustrator 23.0.3, SVG Export Plug-In . SVG Version: 6.00 Build 0)  -->
<svg version="1.0" id="Layer_1" xmlns="http://www.w3.org/2000/svg" xmlns:xlink="http://www.w3.org/1999/xlink" x="0px" y="0px"
	 viewBox="0 0 600.1 574.3" style="enable-background:new 0 0 600.1 574.3;" xml:space="preserve">
<path style="fill:#E14C75;" d="M329.6,0.6c-5.8,0-11.6,0.1-17.4,0c-0.4,0-0.9-0.3-1.3-0.5c6.2,0,12.4,0,18.6,0
	c0.2,0.1,0.2,0.2,0.2,0.3C329.6,0.5,329.6,0.6,329.6,0.6z"/>
<path style="fill:#ED9AB1;" d="M276.7,0.1c-5.8,1-11.6,0.6-17.4,0.5c0-0.2,0.1-0.3,0-0.5C265.1,0.1,270.9,0.1,276.7,0.1z"/>
<path style="fill:#EFB3C3;" d="M329.6,0.6c-0.1-0.2-0.1-0.3-0.1-0.5c3.8,0,7.6,0,11.4,0c0,0.2,0,0.3,0,0.5
	C337.1,0.6,333.3,0.6,329.6,0.6z"/>
<path style="fill:#BD0B2F;" d="M443.5,516.8c3.3-1.3,6.8-2,10.3-2.4c6.5-0.8,12.9-2.1,19.3-3.3c9-1.7,18.1-3.5,27-5.9
	c10.1-2.7,20.2-5.5,30.2-8.8c9.3-3.1,18.4-6.7,27.3-10.8c7-3.3,13.6-7.2,19.9-11.8c4.7-3.4,8.7-7.4,11.8-12.1
	c4.8-7.2,5.6-15,1.7-23.1c-3.5-7.2-9.3-12-15.6-16.5c-4.1-3-8.3-5.8-12.9-8c-8.4-4-16.9-7.8-25.7-10.9c-8.9-3.1-17.8-6.1-26.8-8.5
	c-9.6-2.6-19.1-5.2-29-6.8c-4.5-0.8-8.8-2.5-13.4-2.5c-1.1,0-2.3-0.7-3.2-1.6c15.4,2.3,30.6,5.6,45.7,9.5
	c19.3,4.9,38.2,10.8,56.1,19.8c9.2,4.6,17.9,9.8,24.9,17.4c11.1,11.9,11.2,24.8,0,36.7c-8.1,8.6-18.2,14.3-28.7,19.2
	c-20.6,9.7-42.4,15.8-64.5,20.9c-16.9,3.9-34,6.9-51.2,9.5C445.7,516.7,444.6,516.7,443.5,516.8z"/>
<path style="fill:#C8657B;" d="M326.6,526.2c3.8-0.8,7.6-0.6,11.4-0.4c0,0.1-0.1,0.3,0,0.4C334.1,526.2,330.4,526.2,326.6,526.2z"/>
<path style="fill:#2D4B90;" d="M419.3,374.2c14-2.5,27.8-5.6,41.6-9c0.7-0.2,1.4-0.2,2-0.4c-1,5.9-2.1,11.9-3.1,17.8
	c-2.4,12.7-4.9,25.4-7.3,38.2c-2,10.6-4.1,21.1-6,31.7c-0.3,1.5-1,2-2.3,2.2c-15.5,3.2-31.1,5.8-46.8,8c-16.5,2.3-33.1,3.9-49.7,5.2
	c-10.2,0.8-20.5,1.1-30.8,1.5c-11.6,0.4-23.2,0.6-34.8,0.3c-20-0.5-40.1-1.6-60-3.9c-11.9-1.4-23.7-3.1-35.5-5
	c-0.5-0.1-0.9-0.3-1.4-0.5c0.3-1.4,1.5-2,2.7-2.5c14.4-5.8,28.1-12.7,41.6-20.3c4.2-2.3,8.3-4.8,12.3-7.3c0.7-0.5,1.5-1,2.5-0.5
	c0.9,1.3,0.5,2.7,0.3,4.1c-0.6,4.2-1.5,8.4-2.3,13.1c2.4-0.7,4.2-1.8,6-2.8c1.7-1,3.6-1.8,5.2-2.9c3.5-2.4,6.7-1.8,10,0.3
	c3.2,2,6.5,3.8,10.4,5.2c-0.6-4.4-1.3-8.5-2.1-12.4c-0.7-3.2-0.1-5.7,2.5-8c3.3-2.9,6.3-6.1,9.4-9.3c-4.7-1-9.5-1.1-14-2.4
	c-1.9-0.8-1.8-1.8-0.3-3c7.7-5.7,15.1-11.7,22.4-17.9c3.2-2.7,6-5.7,9.1-8.5c4.7-0.2,9.5-0.7,14.2-0.8c15.1-0.2,30.2-1.4,45.2-2.8
	c18.3-1.5,36.4-4.3,54.5-7.4C416.4,373.9,417.9,373.3,419.3,374.2z M128.9,361.5c1-1.3,2-0.2,2.9,0.1c16,5.3,32.3,9.5,48.9,12.5
	c1.2-0.6,2.3-0.2,3.5,0c17.3,3.2,34.7,6,52.2,7.4c1.1,0.1,2.2,0.4,3.3,0.5c11.5,1.1,23,1.5,34.6,2.4c6.8,0.5,13.7-0.4,20.5,0
	c1.9,0.1,3.8-0.1,5.3,1.4c0.3,0.7,0.4,1.3-0.3,1.9c-5.1,4.4-10.1,8.9-15.3,13.2c-4.9,4-10,7.9-15.1,11.7c-1,0.8-0.3,1,0.1,1.4
	c-2.5,1.4-3.4-0.5-4.3-2.1c-2.3-4.3-4.4-8.8-6.8-13.5c-1.3,1.7-2,3.4-2.7,5.1c-1.1,2.7-2.5,5.2-3.7,7.9c-1,2.2-2.6,3.3-5,3.6
	c-4.5,0.6-9.1,1.1-13.9,2.1c1,2.1,2.7,3.3,4.2,4.6c2.1,1.7,4,3.6,5.9,5.6c0.6,0.7,1.6,1.3,1.1,2.5c-8.5,5.9-17.7,10.6-26.8,15.5
	c-9.5,5.1-19.2,9.6-29.3,13.4c-1,0.4-1.8,1.2-2.7,1.8c-11.2-1.6-22-4.6-33.1-6.7c-4.8-0.9-6.3-3.3-7-7.7c-2.6-15-5.6-30-8.5-44.9
	c-0.1-0.3-0.3-0.5-0.4-0.8c-0.7-5.7-1.9-11.2-3.2-16.8C131.8,376.1,130.3,368.8,128.9,361.5z"/>
<path style="fill:#C37D8C;" d="M259.2,525.7c3.8-0.1,7.6-0.4,11.4,0.4c-3.8,0-7.5,0-11.3,0C259.3,526,259.3,525.9,259.2,525.7z"/>
<path style="fill:#D70F47;" d="M46.8,45.2c-0.6-0.9-1.1-1.9-1.7-2.8c-2.2-3.8-1.9-6.6,1.2-9.7c3.2-3.2,7.1-5.2,11.2-6.9
	c14.5-6,29.7-9.2,45.1-11.9c30.1-5.4,60.5-8.3,91.1-10.4c21.8-1.5,43.7-2.4,65.6-3c4.7-0.5,9.5-0.1,14.2-0.2c1.1,0,2.2,0.3,3.2-0.3
	c11.4,0,22.8,0,34.2,0c6.2,0.7,12.4,0.1,18.6,0.3c3.8,0.1,7.6-0.2,11.4,0.2c22.7,0.6,45.3,1.5,67.9,3.2c7,0.5,13.9,1.2,20.9,1.8
	c0.9,0.7,1.3,1.7,1.4,2.8c2.2,13.9,3.3,27.8,4.4,41.8c0.4,5.9,0.2,11.7,0.6,17.6c0.1,0.9,0.1,1.8-0.4,2.6c-0.2,0.3-0.4,0.6-0.8,0.8
	c-5.7,1.3-11.5,1.1-17.2,1.8c-7.4,0.8-14.9,0.9-22.4,1.7c-10.8,0.2-21.7,1.1-32.5,1.5c-9,0.4-18.1,0-27.1,1c-2.3,0.2-4.6,0.1-6.9,0
	c-22.7-0.1-45.5,0.5-68.2-0.3c-1.3-0.1-2.6-0.3-3.9-0.3c-13.1,0-26.2-0.8-39.4-1.3c-4.3-0.2-8.5-0.7-12.8-0.6
	c-7.3-1-14.7-1.1-22-1.7c-12.1-0.9-24.2-2.1-36.3-3.4c-6.5-0.7-13.1-1.6-19.6-2.4c-1.1-0.1-2.2-0.1-3.3,0.1
	c-7-2.5-14.4-2.7-21.6-4.1c-6.7-1.4-13.3-2.7-19.9-4.3c-7.1-1.7-14.1-3.7-21-6.2C55.8,51.1,51,48.7,46.8,45.2z M0.1,445.3
	c3-11.6,11.3-19,20.8-25.2c14.6-9.5,30.7-15.6,47.2-20.9c20.6-6.6,41.7-11.1,62.9-15c0.8-0.1,1.6-0.1,2.2-0.8c0.5,0.2,0.9,0.6,1,1.1
	c1.2,5.2,2.7,10.3,2.7,15.7c-1.8,2.6-4.7,2.9-7.3,3.6c-12.1,3.5-23.5,8.6-34,15.3c-4.9,3.1-9,7.1-11.5,12.4
	c-2.7,5.6-2.4,11.2,1.3,16.4c3.9,5.4,9,9.3,14.7,12.6c9.7,5.6,20.1,9.7,30.8,13.2c1.3,0.4,3.5,0.4,3.5,2.1c0,1.9-2.2,2-3.7,2.4
	c-14.3,3.4-28.7,5.9-43.3,7.7c-15.3,1.8-30.6,2.4-46,2.5c-1.1,0.1-2.1-0.5-3.1-0.9c-9.4-4.3-18.5-9.2-26.2-16.1
	c-5.9-5.2-11-11-11.8-19.4C0.1,449.7,0.1,447.5,0.1,445.3z M46.8,45.2c1.5-0.7,2,0.9,2.9,1.4c7.7,4.9,16.3,7.4,24.9,9.8
	c13.3,3.8,26.9,6,40.4,8.4c1.7,0.3,3.5,0.2,5.3,0.5c1.4,0.3,2.1,0.8,2.6,1.9c1.7,1,1.7,2.9,2.1,4.4c5.7,22.6,10.9,45.3,15.9,68
	c9.7,43.7,18.2,87.6,25.7,131.8c5.6,33,10.4,66.1,14.7,99.3c0.2,1.2,0.3,2.4-0.3,3.5c-1.4,1.1-2.9,0.4-4.3,0.1
	c-16.2-3.4-32.2-7.5-47.8-12.8c-2.3-11.4-4.7-22.9-7-34.3c-14.6-70.9-29.5-141.6-49.8-211.1C65.5,93.3,58.2,70.7,48.4,49
	C47.8,47.7,47.3,46.4,46.8,45.2z M315.8,371.5c0.6-13.3,1.1-26.5,1.7-39.8c2.5-55.1,4.9-110.2,7.4-165.2c1.3-28.9,2.7-57.9,4-86.8
	c0-1.1,0-2.2,0-3.3c8.6-0.2,17.1-0.5,25.7-0.8c9.5-0.2,19.1-0.6,28.6-1.2c4.2-0.3,8.3-0.3,12.5-0.5c1.1,1.2,0.6,2.7,0.4,4
	c-2.8,18.8-5.6,37.5-8.2,56.3c-3.8,28-7.4,56-10.7,84.1c-2.5,21.1-4.7,42.3-6.9,63.4c-0.8,7.3-1.3,14.7-2.2,22.1
	c-0.6,1.7-0.3,3.5-0.7,5.3c-2,4.2-4.8,7.8-7.4,11.5c-5.9,8.4-12.1,16.6-18.7,24.5c-5.3,6.3-10.3,13-16.4,18.6
	c-2.1,1.9-3.5,4.4-5.6,6.2C318.1,370.8,317.3,371.9,315.8,371.5z M260.9,85.2c0.9,19,1.7,37.9,2.5,56.9c1.8,41.3,3.6,82.7,5.4,124
	c1.7,38.7,3.3,77.5,5,116.2c0,0.9,0.2,1.8,0.4,2.7c-11.6-0.4-23.3-1-34.8-2.3c-1.3-16.1-2.4-32.3-3.8-48.4
	c-1.6-18.4-3.3-36.8-5.2-55.2c-2.5-24.3-5.2-48.7-8.1-73c-2.9-24.1-6.1-48.2-9.3-72.2c-2.5-18.6-5.4-37.2-8.1-55.7
	c-0.2-1.2-0.3-2.4-0.4-3.6c0.2-0.6,0.4-0.9,1.2-0.9c11.9,0.3,23.7,1.3,35.5,1.5c5.5,0.1,11,0.2,16.4,0.4c1,0,2-0.3,2.8,0.7
	c0,0.7,0,1.4,0,2.1C261.1,80.7,260.4,83,260.9,85.2z"/>
<path style="fill:#ECECEC;" d="M239.4,382.7c-19.7-1.7-39.3-4.4-58.7-8.6c-1.8-16.2-4.2-32.3-6.5-48.4
	c-4.9-33.9-10.6-67.7-16.9-101.4c-9.4-50.6-20.4-100.8-32.7-150.7c-0.5-2.1-1.1-4.2-1.7-6.4c0.1-2.2,1.7-1.2,2.6-1.1
	c8.4,0.9,16.8,2,25.2,3c16.7,1.9,33.5,3.2,50.3,4.2c1.2,0.1,2.7-0.3,3.4,1.2c1.2,1,1.2,2.5,1.4,3.9c6,39.4,11.5,78.9,16.3,118.5
	c2.3,19,4.5,38.1,6.5,57.2c2,19.2,3.9,38.3,5.7,57.5c1.4,14.9,2.6,29.8,3.9,44.7c0.7,7.9,1.1,15.7,1.8,23.6
	C240.3,380.9,240.2,381.9,239.4,382.7z M300.1,385.8c-6.9-0.3-13.8-1-20.6,0c-1.8,0.3-3.4-1-5.2-0.7c-1.5-0.7-1.5-2.1-1.5-3.3
	c0.3-7-0.5-14-0.7-21c-0.5-11.3-0.8-22.6-1.6-33.8c-0.4-5.1-0.5-10.2-0.6-15.3c-0.3-12-0.9-24-1.5-35.9c-0.8-15.8-1.3-31.5-2.1-47.3
	c-0.4-6.6-0.6-13.2-0.9-19.8c-0.5-11.4-0.9-22.7-1.5-34.1c-0.3-6.6-0.7-13.2-0.8-19.8c-0.3-11.1-0.9-22.1-1.4-33.2
	c-0.5-12-1-23.9-1.6-35.9c0.1-2.3,0.3-4.6-0.2-6.9c-0.1-0.9-0.2-1.8,0.6-2.5c1.8-0.9,3.7-0.2,5.6-0.2c20.9,0,41.8,0.1,62.7,0.1
	c1.7,2.2,1.1,4.8,0.9,7.2c-0.6,6.6-0.6,13.2-1,19.7c-0.7,12.2-0.9,24.3-1.7,36.5c-0.3,4.8-0.5,9.6-0.6,14.4
	c-0.3,11.3-0.9,22.6-1.5,33.8c-0.7,14.9-1.2,29.7-2.1,44.6c-0.4,5.9-0.5,11.8-0.8,17.7c-0.5,11.6-0.9,23.1-1.7,34.7
	c-0.4,5.2-0.4,10.4-0.6,15.6c-0.4,11.4-1,22.7-1.5,34.1c-0.5,12.3-1,24.5-1.8,36.8c0.3,3.9-0.8,7.8-0.6,11.8c0,0.8-0.3,1.5-0.9,2.1
	C310.1,385.9,305.1,385.5,300.1,385.8z M435,70.8c1.1,1,0.7,2.2,0.7,3.4c-0.4,11.3-0.4,22.7-1.3,34c-1.1,13.6-2.8,27.2-5.1,40.7
	c-3.2,19.2-7.8,38.1-13.6,56.7c-2.9,9.4-6.2,18.7-9.9,27.8c-4.3,10.5-8.7,21-13.7,31.1c-4.9,9.9-10.1,19.7-15.8,29.2
	c-2.7,4.5-5.5,8.9-8.3,13.4c-1.1-1.1-0.4-2.2-0.8-3c1.5-15.6,2.9-31.2,4.6-46.8c2.4-21.6,4.8-43.3,7.5-64.9
	c2.9-23.6,6.1-47.1,9.3-70.7c2.2-16,4.6-32,7-48c3.3-1,6.7-0.6,10-0.9C415.4,72.2,425.2,71.5,435,70.8z"/>
<path style="fill:#D8D8D8;" d="M40.9,487.7c14.2,6.5,29.1,11.1,44.1,15.2c25.6,6.9,51.6,11.5,77.9,15c0.8,0.1,1.6,0,2.3,0.6
	c-5.8,0.3-11.5-1.1-17.2-1.9c-11.8-1.5-23.5-3.5-35.2-5.9c-12.9-2.7-25.8-5.5-38.5-9.1c-10.9-3.1-21.7-6.6-32.3-10.7
	c-2.6-1-5.1-2.2-7.8-3.3c1.4-0.8,3,0.3,4.2-0.8C39.2,487.1,40,487.4,40.9,487.7z"/>
<path style="fill:#A20E2C;" d="M259.2,525.7c-30.3-1-60.4-3.2-90.5-7c-1.2-0.2-2.4-0.2-3.6-0.3c-13.3-1.6-26.6-3.5-39.7-6
	c-27-5-53.6-11.1-79.1-21.5c-1.9-0.8-4.3-1-5.4-3.3c0.9-0.7,1.9-0.4,2.9-0.4c8.8,0.1,17.6,0.1,26.3-0.7c12-1.1,24.1-2,36-4.5
	c8.4-1.7,16.8-2.8,25.1-5c1.1-0.3,2.1-0.4,3-1.6c-9.8-3-19.3-6.4-28.3-11c-8.1-4.1-15.9-8.7-21.4-16.2c-3.6-4.9-3.8-13-0.7-18.3
	c4.7-8,12.1-12.5,19.8-16.7c7.2-3.9,14.7-7,22.5-9.4c3.5-1.1,7.1-1.8,10.3-3.7c1.9,0.8,1.6,2.6,1.9,4.1c2.6,14.2,5.6,28.4,8.1,42.6
	c0.6,3.4,2.1,4.9,5.4,5.7c11.3,2.6,22.5,5.2,34,7.2c18.2,3.1,36.5,5.5,55,7c11.6,0.9,23.1,1.3,34.7,1.8c9.7,0.4,19.4,0.6,29.1,0.4
	c15.5-0.4,30.9-0.9,46.4-2.2c17.3-1.4,34.6-3.1,51.9-5.6c13-1.9,25.9-4,38.7-6.6c3-0.6,4.3-2.1,4.8-5.1c3.8-21,7.8-41.9,11.8-62.8
	c0.3-1.4,0.2-3.1,1.8-3.9c1.6,0.3,3.1,0.6,4.7,0.9c6.4,1.8,13,2.7,19.5,4.1c9.3,2,18.6,4.2,27.8,6.7c6.6,1.8,13.3,3.7,19.8,5.9
	c13.7,4.7,27.3,9.8,39.5,17.7c6.9,4.4,13.7,9.1,18.3,16.2c6.1,9.3,7.1,19.5-1.4,30.5c-5.6,7.3-13.1,12.2-20.9,16.8
	c-9,5.3-18.5,9.5-28.3,13c-9.5,3.4-19.1,6.5-28.9,8.9c-11,2.7-22,5.4-33.1,7.6c-9.2,1.8-18.4,3.3-27.7,4.8c-1.9,0.3-3.9,0.4-5.7,1
	c-8.1,1.6-16.4,2.4-24.6,3.3c-26.4,2.9-52.9,4.9-79.4,5.7c-0.5,0-1,0-1.5,0c-3.8,0.6-7.6-0.2-11.4,0.4c-18.7,0-37.3,0-56,0
	C266.8,525.5,263,526.4,259.2,525.7z M552.6,46.1c-22.5,50.6-37.2,103.8-51.5,157c-14.3,53.1-26.6,106.8-37.9,160.6
	c-0.1,0.4-0.2,0.8-0.4,1.1c-1.2,1.1-2.8,1.4-4.4,1.8c-11.6,2.9-23.3,5.2-34.9,7.7c-1.4,0.3-2.9,0.8-4.4,0c-0.8-1.3-0.6-2.7-0.5-4.1
	c6-46.4,13.2-92.6,21.7-138.6c8.2-44.7,17.6-89.3,28.1-133.5c2.5-10.5,5-21,7.9-31.4c0.9-2.1,2.9-2.3,4.8-2.5
	c7.4-1.1,14.8-2.4,22.2-3.8c12.6-2.4,25-5.3,37-10c3.4-1.3,6.5-3.2,9.6-4.8C550.8,45.2,552.1,43.9,552.6,46.1z M552.6,46.1
	c-0.3-1.4-1.2-0.5-1.6-0.2c-12,7.5-25.6,10.5-39.2,13.7c-10.7,2.6-21.7,3.9-32.5,5.8c-1,0.2-1.7,0.5-2.2,1.2
	c-10.8,1.5-21.6,2.8-32.4,3.9c-1.8,0.2-3.6,0.5-5.4,0.6c-1.5,0-3,0.3-4.3-0.7c0-5.6,0.3-11.2-0.3-16.7c-0.5-4.3-0.3-8.5-0.9-12.8
	c-1.3-10-1.5-20.2-3.6-30.1c-0.4-1.7,0-3.6-0.7-5.3c10.4,0.5,20.7,1.8,31,3c20.8,2.5,41.5,5.6,61.8,10.8c8.1,2.1,16.1,4.5,23.6,8.3
	c2.4,1.2,4.7,2.6,6.7,4.5c3.5,3.4,4,5.7,2,10.1C554.1,43.6,553.8,45,552.6,46.1z M366.4,309.7c-1.4,16.8-2.8,33.5-4.2,50.3
	c-0.6,7.4-1.1,14.9-1.7,22.3c-5.2,1.1-10.5,1.2-15.7,1.5c-9.9,0.7-19.8,1.5-29.8,1.3c0.2-4.6,0.5-9.2,0.7-13.7
	c4.4-2.3,6.8-6.7,10.1-10c7.9-7.9,14.7-16.6,21.6-25.4C354.1,327.5,360.5,318.8,366.4,309.7z"/>
<path style="fill:#C9C6C7;" d="M366.4,309.7c0.5-1.8-0.1-3.8,0.7-5.5c1,1.1,1.4,0.3,2-0.5c5.4-8.1,10.2-16.5,14.8-25
	c7.2-13.5,13.8-27.3,19.6-41.4c7.7-19.1,14-38.7,18.9-58.7c4.1-16.8,7.3-33.8,9.2-51c0.9-8.2,1.8-16.5,2.2-24.7
	c0.5-10.7,1-21.3,1.2-32c0-0.1,0.1-0.3,0.2-0.4c9.5-0.3,18.8-1.8,28.2-2.8c3.8-0.4,7.5-1,11.2-1.4c0.9-0.1,2-0.7,2.7,0.5
	c-8,30.9-15,62.1-21.7,93.3c-9.3,43.6-17.5,87.5-24.5,131.6c-4.2,26.4-8,52.9-11.4,79.4c-0.1,1.1-0.2,2.2-0.3,3.3
	c-18,3.5-36.1,5.9-54.3,7.9c-1.5,0.2-3,0.1-4.5,0.2c-1-1.1-0.9-2.4-0.8-3.7c1-11.2,1.7-22.5,2.7-33.7c0.9-9.9,1.7-19.9,2.6-29.8
	C365.2,313.2,366,311.6,366.4,309.7z M393,408.9c4.8-0.7,9.8-1.5,14.7-2c2.4-0.3,3.9-1.2,4.9-3.5c2-4.6,4.4-9.1,6.9-14.2
	c2.6,5.2,5,9.8,7.1,14.6c0.9,2,2.1,2.8,4.2,3.1c5.1,0.6,10.2,1.4,15.7,2.2c-3.5,3.5-6.5,7.1-10,10c-2.7,2.3-3.4,4.6-2.6,8
	c1.1,4.4,1.6,9,2.5,14.2c-4.8-2.5-9.3-4.7-13.5-7.1c-2.4-1.4-4.4-1.5-6.8,0c-4.2,2.5-8.7,4.7-13.5,7.2c1-5.6,1.7-10.7,2.8-15.8
	c0.5-2.3-0.1-3.7-1.7-5.2C400,416.6,396.6,412.7,393,408.9z M244.2,429.7c-4.3-4.2-8.6-8.5-13.5-13.2c5.9-0.9,11.1-1.7,16.3-2.4
	c2-0.2,3.2-1,4-2.9c2.2-4.8,4.6-9.5,7.2-14.7c2.6,5.3,5.1,10.1,7.4,14.9c0.8,1.7,1.8,2.8,3.8,2.5c5.2,0.8,10.4,1.6,15.3,2.4
	c-3.8,4-7.4,7.9-11.2,11.8c-1.2,1.2-1.6,2.2-1.3,3.9c1,5.3,1.8,10.6,2.8,16.5c-5.2-2.7-10-5.1-14.6-7.7c-1.7-1-3-0.9-4.7,0.1
	c-4.6,2.6-9.3,4.9-14.5,7.7c0.9-5.4,1.7-10.2,2.5-15.1C244.1,432.2,244.6,431,244.2,429.7z M346,396.5c2.5,5,4.8,9.6,7,14.2
	c1,2.1,2.2,3.2,4.6,3.4c5.1,0.5,10.1,1.4,15,2.1c-3.1,3.3-6,6.8-9.3,9.9c-2.7,2.5-3.8,4.8-2.8,8.6c1.2,4.3,1.6,8.8,2.4,13.9
	c-3.9-2-7.6-3.5-10.8-5.8c-4.4-3.1-8.1-2.8-12.4,0.1c-3.1,2.1-6.6,3.6-10.6,5.7c0.8-5,1.3-9.6,2.4-14.1c0.8-3.3,0.3-5.7-2.5-8
	c-3.5-3-6.5-6.7-9.7-10.1c4.9-0.7,10-1.6,15.1-2.2c2.3-0.2,3.5-1.2,4.4-3.2C341.1,406.2,343.5,401.6,346,396.5z M159.9,441.2
	c1-6,1.8-11.3,2.9-16.6c0.4-1.8-0.2-2.7-1.3-3.9c-3.7-3.9-7.3-7.8-11-11.8c4.5-0.7,9.4-1.5,14.3-2c2.7-0.3,4.2-1.3,5.3-3.8
	c2-4.6,4.4-9,6.8-13.9c2.6,5.2,5.1,9.9,7.3,14.8c0.8,1.8,1.9,2.5,3.8,2.8c5.2,0.7,10.4,1.5,15.7,2.2c-3.3,3.5-6.3,7-9.8,10.1
	c-2.6,2.3-3.5,4.6-2.6,8c1.1,4.4,1.6,9,2.5,14.1c-4.8-2.5-9.3-4.7-13.7-7.2c-2.2-1.3-4-1.5-6.3-0.1
	C169.5,436.4,165,438.5,159.9,441.2z"/>
<path style="fill:#D70F47;" d="M260.9,85.2c-0.9-2.2-0.4-4.5-0.4-6.8C261.2,80.7,261,83,260.9,85.2z"/>
</svg>
