<?xml version="1.0" encoding="utf-8"?>
<!-- Generator: Adobe Illustrator 23.0.3, SVG Export Plug-In . SVG Version: 6.00 Build 0)  -->
<svg version="1.0" id="Layer_1" xmlns="http://www.w3.org/2000/svg" xmlns:xlink="http://www.w3.org/1999/xlink" x="0px" y="0px"
	 viewBox="0 0 544.2 545.3" style="enable-background:new 0 0 544.2 545.3;" xml:space="preserve">
<path style="fill:#BC4184;" d="M256,435.9c-26.6,0.4-51.8-4.3-73.9-20.1c-6.4-1.2-10.3-6.4-15.4-9.7c-2.6-1.7-4.7-4.2-8-6
	c-0.2,4.3,0.2,8.2,0.2,12.1c0,7.7-1.2,15.1-3.9,22.3c-1.8,4.8-2.6,9.8-2.6,15c0.1,12.5,0.1,25.1,0,37.6c0,2.4,0.4,5-1.5,7
	c-11,0.1-21.9,0.1-32.9,0.4c-3.2,0.1-3.4-1.7-3.2-4.1c1.2-11.2,2.5-22.5,3.7-33.7c2.3-21.1,2.7-42.3,2.1-63.6
	c-0.3-9-2.5-17.2-5.2-25.6c-3.9-12.1-7.6-23.7-15.2-34.4c-8.4-11.8-10-26.6-12-40.8c-4.5-32.5-3.8-65.3-3.8-98
	c0-16.1-0.2-32.2-0.6-48.3c-0.2-10.6-1.8-21.1-4.7-31.4c-4.8-16.8-16.2-24.9-33.2-26.4c-9.3-0.8-18.6-2.5-26.8-7.6
	c-3.4-2.1-6.6-4.3-5.4-9.2c1.1-4.6,3.8-7.7,8.4-8.5c4.7-0.8,7.3-3.7,9.5-7.6c7.1-12.5,16.3-14.5,28.4-6.4c3.6,2.4,7.4,3.8,11.7,4.7
	C84.3,56.3,92.6,64.6,99,75c10.2,16.5,15.1,34.9,19,53.7c5.3,25.5,6.8,51.5,8.5,77.4c0.8,12.2,3.3,24.2,7.6,35.7
	c8.3,22.2,27,35,51,35.5c13.6,0.3,27.3-0.9,40.8,1.8c19,3.8,35.8,13.1,51.8,23.5c27.9,18.1,53.6,38.9,76.3,63.2
	c21.6,23.1,48.1,38,76.9,49.7c30.3,12.2,61.8,19.9,94.1,24.6c2.3,0.3,5,0.4,5.1,3.5c0.1,3.5-3,3.4-5.3,3.8
	c-22.8,3.8-45.4,2.2-68.2-0.4c-32.9-3.7-64.2-13.7-95.9-22.4c-12.4-3.4-24-2.7-35.4,3.2c-0.8,0.4-2,0.8-2.1,1.4
	c-2.1,9-8.9,16.8-4.7,27.3c4.7,11.9,6.3,24.6,4.7,37.5c-0.5,4.5-1.6,6.8-7,6.6c-10.8-0.5-21.6-0.1-32.5-0.1
	c-0.5-2.7,1.7-3.7,2.9-5.3c3.4-4.8,6.2-9.6,5.3-16c-0.4-3-0.7-5.9-1.9-8.7c-4-9.5-8.7-18.6-11.2-28.6c-0.9-3.6-3.2-4.6-6.6-4.7
	C266.8,437,261.2,438.2,256,435.9z"/>
<path style="fill:#A33176;" d="M151,494.1c0-15.5,0.1-31.1,0-46.6c0-4.5,0.8-8.8,2.4-12.9c4.4-11.1,5-22.5,3.2-34.2
	c-0.2-1,0-2,0-4.1c9,6.8,17.3,13.2,25.6,19.5c-0.3,10.7,0,21.5,0.3,32.2c0.5,13.9-0.5,27.8-0.8,41.7c-0.1,2.6-1.5,3.2-3.8,3.3
	C168.9,493.3,159.9,493.7,151,494.1z M257.3,441.4c0.4,8.3,0.3,16.6,1.4,24.7c0.9,6.9,0.7,12.9-3.2,19.1c-5.6,8.8-5.1,8.9,5.1,9.2
	c8.7,0.3,17.5-1.1,26.2,0.7c1.9-2.5,6.2-3.3,6.4-6.6c0.3-5.9,1.4-11.9-1.2-17.7c-4.6-10.4-9.8-20.7-12.3-32
	c-0.6-2.8-2.2-3.2-4.6-3.2c-6.4,0.1-12.7,0.2-19.1,0.2C257.4,437.5,257.2,439.5,257.3,441.4z"/>
<path style="fill:#050505;" d="M53,60.3c-0.6,2.6-1.7,4.7-4.8,4.7c-3.3,0.1-5-2-5-4.9c-0.1-2.7,1.6-4.7,4.6-4.7
	C50.9,55.4,52.4,57.4,53,60.3z"/>
</svg>
