<?xml version="1.0" encoding="utf-8"?>
<!-- Generator: Adobe Illustrator 23.0.3, SVG Export Plug-In . SVG Version: 6.00 Build 0)  -->
<svg version="1.0" id="Layer_1" xmlns="http://www.w3.org/2000/svg" xmlns:xlink="http://www.w3.org/1999/xlink" x="0px" y="0px"
	 viewBox="0 0 551.3 551.3" style="enable-background:new 0 0 551.3 551.3;" xml:space="preserve">
<path style="fill:#A86AB5;" d="M256,368.8c0.6,17.8,2.5,35.6,4.7,53.2c0.8,6.6,1,12.7-2.8,18.6c-2.6,4.1-3.1,9.1-4.4,13.7
	c-4.2,15.7-12.4,28.3-29.7,30.6c-10.4,1.4-21.1,0.4-31.6,0.5c-1.3,0-2.5-0.5-3.1-1.8c-0.8-1.8,0.2-3.1,1.4-4.2
	c5-5,10.6-9.1,17.4-11.3c14.9-4.8,22.3-15.2,23.4-30.6c0.4-5,0.8-9.9,0.2-15c-1.1-8.8-4.5-16.4-10.7-22.8
	c-19.3-19.8-34.8-42.2-45.6-67.6c-4.7-6-5-13.2-5.5-20.3c-1.2-15.2,1.2-29.6,12.6-42.1c-6.3-1.7-11.8-3.1-17.1-5.1
	c-21-8-35.9-23-47.2-41.9c-11.3-18.9-17.2-39.5-20.1-61.2c-0.7-5.1,0-10.3-1.1-15.5c-2.4-10.4-7.5-14.9-18.2-15.5
	c-7.2-0.4-14.2,1.6-21.3,2.5c-5.9,0.8-11.7,1.1-17.5-0.7c-5.1-1.5-9.8-0.3-14.6,1.7c-3.1,1.3-6.1,4-10,2.4
	c7.9-19.2,21.6-33.5,39.1-44.1c27.8-16.9,57.4-28.1,90.5-27.7c7.1,0.1,14.4,0.5,20.8,4.1c6.1,3.4,8.3,7.6,6.3,11.3
	c-2.7,5-8.3,7-13.9,3.6c-14.1-8.5-25.8-1.6-37.4,5.2c-5.2,3.1-5.2,5.1-1.5,9.8c5,6.2,6.4,13.3,6.8,21c0.8,15.9,1.9,31.8,6.4,47.2
	c1,3.4,2.2,6.8,4.1,9.9c3.6,5.9,6.3,7.2,13.3,6.3c23.1-3,46.3-4.1,69.5-0.1c27.6,4.7,51.6,16.9,71.4,36.5
	c20.7,20.4,38.9,42.9,52.6,68.8c2.2,4.1,4.1,8.3,5.7,12.7c5.2,14.2,13.2,26.6,23.5,37.4c17.4,18.2,33.9,37.5,55.2,51.5
	c27,17.8,57,28.6,87.8,37.8c6,1.8,12.1,3.3,18.1,5c1.6,0.5,4.1,0.3,3.6,2.9c-0.3,2.1-2.5,1.6-4,1.8c-24.9,2.5-49.7,0.9-74.3-2.6
	c-3.9-0.6-7.8-1.2-11.6-1.8c-23-4.9-43.9-14.7-63.7-27.1c-20.3-12.6-38.6-27.8-55.1-45c-8.4-8.8-17-17.4-26.8-24.7
	c-9.8-7.4-15-7.2-25.2-0.3c-9.4,6.4-14.6,15.5-17.9,26C257.6,364.1,257.4,366.6,256,368.8z"/>
<path style="fill:#E9C3CE;" d="M15.2,136.5c1.2-0.4,2.4-0.6,3.5-1.2c8.3-4.3,16.4-6.3,26.1-3.6c8.1,2.3,16.6-0.9,24.8-2.2
	c4.1-0.7,8.2-1,12.3-0.3c11.3,2,16.7,9,17,21.8c0.6,26.5,8,51.1,21.8,73.5c13.9,22.6,33.5,38.3,60.4,43c3.5,0.6,3.5,1.7,1.2,4.3
	c-7.5,8.1-10.8,17.8-11.4,28.7c-0.6,10.8,0.7,21.3,4.2,31.6c-18.1-11.1-35.3-23.6-52-36.7c-0.1-0.1-0.3-0.2-0.4-0.3
	c-9-7.6-10-7.9-18.1,1.1C95,306.7,91.2,307,103,321.7c-3.3,1.5-6.3,0.5-9.3-0.5c-1.1-0.3-2.4-1.7-3.2,0c-0.7,1.4-0.1,2.9,1.2,3.8
	c1.4,1,3,1.7,5.1,2.8c-4.6,3.4-9.3,4.7-14.6,4.4c-3.2-0.2-4.9-2.3-5.6-5C74,316,73,299.3,86.3,289.6c1.3-0.9,2.4-2.2,3.7-3.1
	c7.8-5.3,7.5-13.1,4.5-20c-9.8-23-9.5-46.9-7.9-71.1c0.6-9.4,0.6-19,0.3-28.4c-0.3-8.2-2.9-10.6-11.1-9.9c-15.5,1.4-30.6-1.4-45.8-3
	C20,153,15.6,147,15.2,136.5z M323.8,385.7c27,17.1,54.3,33.5,86.2,40.1c12.3,2.6,24.5,5.9,37,7c-1.6-0.6-3.2-1.4-4.9-1.9
	c-19.9-6-38.7-14.5-56.5-25.3c-25.9-15.7-47.6-36.4-68.6-57.9c-5-5.1-10.5-9.7-16.2-14c-4.4-3.3-9.2-6.2-15.3-4.3
	c-15.2,4.7-29.2,23.3-29.4,39.3C280.5,366.8,303.1,372.6,323.8,385.7z"/>
<path style="fill:#FBFAFA;" d="M68.8,105.6c-0.2-4.9,4.2-9.8,8.9-9.5c5.2,0.3,8.6,3.3,9.2,8.6c0.6,4.7-3.9,9.6-8.7,9.9
	C73.6,114.9,68.9,110.5,68.8,105.6z"/>
<path style="fill:#050505;" d="M68.8,106.6c-0.1-3.8,3.2-7.5,6.9-7.3c4,0.3,6.6,2.5,7.1,6.6c0.4,3.6-3,7.4-6.7,7.6
	C72.5,113.8,68.9,110.3,68.8,106.6z"/>
</svg>
