<?xml version="1.0" encoding="utf-8"?>
<!-- Generator: Adobe Illustrator 23.0.3, SVG Export Plug-In . SVG Version: 6.00 Build 0)  -->
<svg version="1.0" id="Layer_1" xmlns="http://www.w3.org/2000/svg" xmlns:xlink="http://www.w3.org/1999/xlink" x="0px" y="0px"
	 viewBox="0 0 562.9 562.9" style="enable-background:new 0 0 562.9 562.9;" xml:space="preserve">
<path style="fill:#F07D05;" d="M355,422.2c-5.9,0-11.7,0-17.6-0.1c-2.8-0.1-3.6,1.1-2.9,3.7c4,14.2,5.2,29,8.2,43.5
	c0.7,3.3,0.5,6.9,0.2,10.4c-0.4,5.7-3.7,7.7-9.1,5.4c-7.5-3.2-13.4-8.8-19.4-14.2c-19.6-17.3-34.8-37.8-45.2-61.9
	c-26.4-25.4-37.6-57-39-93.2c-0.8-20.5-1.5-40.9-2.8-61.4c-1-15.5-1.5-31.1-2.6-46.6c-1.1-15.9-2.2-31.8-4.8-47.5
	c-2.7-16.6-12.3-27.8-27.8-33.2c-22.5-7.9-45.3-7.1-67.7,1.1c-4.5,1.6-8.3,4.6-12.9,6.1c-4.2,1.3-7.9,1.1-11.3-1.7
	c-1.1-0.9-2.4-1.7-3.5-2.6c-8.5-7.7-18.1-7.9-28.2-4.2c-15.2,5.5-30,11.7-45.3,16.9c-2.8,0.9-5.5,3.2-8.8,1.2
	c-2.1-10.7,3-17.2,12.2-22c10.9-5.7,22.4-9.9,33.5-15c4.5-2.1,8.8-4.4,12.6-7.6c4.3-3.5,9.1-6,14.5-7.5
	c25.2-7.1,50.7-12.8,76.7-14.6c24-1.6,47.6,1.1,68.1,15.6c13,9.2,21.3,22,27,36.5c6.7,16.9,9.9,34.6,12.4,52.6
	c4,29.5,4.5,59.3,9.6,88.7c4.4,25.3,19.3,41.9,43.2,50c18.7,6.3,37.5,12.1,56,19c34,12.7,65.5,29.6,93.4,53.1
	c17.5,14.7,35,29.5,50.5,46.3c8.7,9.4,17.2,19,22.7,30.7c1.5,3.2,4,7.1,0.8,10.1c-3.2,3.1-7.7,2-11.3,0.1
	c-8.3-4.1-14.4-11.1-21-17.4c-16.7-15.9-36.8-26.3-58-34.6c-1.4-0.5-3-1.3-4.1,0c-0.8,1.1,0.4,2.4,1,3.5c4.1,7.8,8.3,15.5,12.4,23.3
	c2,3.9,4.2,7.8,4.9,12.2c0.9,5.8-1.2,7.7-6.7,5.8c-8.7-2.9-16.6-7.6-24.4-12.4c-14.9-9.2-27.8-20.8-39.2-34
	c-11.8-9.2-25.2-2.7-37.8-3.4C360.6,423,357.6,424.2,355,422.2z"/>
<path style="fill:#FBC800;" d="M14.5,144c17.7-5.2,34.6-12.5,51.9-19c11.7-4.3,22.5-5,31.9,4.4c5.7,5.7,11.7,5.4,17.8,1.6
	c11.2-7,23.6-9,36.4-10.2c14.8-1.3,29.2,0.1,42.8,5.8c15.7,6.6,24.8,18.8,26.9,35.8c2.8,23.5,4.8,47,5.7,70.7
	c0.6,14.6,1.4,29.1,2.2,43.7c0.8,16.4,0.5,32.9,2.3,49.2c3.2,28.5,11.5,55.3,33,76.2c2,1.9,3.9,3.9,4,6.9
	c-9.7,14.9-21.2,28.3-34.3,40.4c-0.7,0.6-1.2,1.4-2,1.9c-3,1.8-5.4,5.9-9.4,4.3c-4.3-1.8-4.6-6.5-4.7-10.4
	c-0.1-12.1,2.2-23.9,6.1-35.4c3-9,6.4-17.9,10.8-26.3c2.1-3.9,1.6-7.5-0.8-11.3c-9.4-15.2-14.2-31.5-14.4-49.7
	c-0.2-21.2-1.4-42.3-2.1-63.5c-0.6-20.4-1.5-40.9-2.2-61.3c-0.5-15-0.8-30.3-6.2-44.7c-2.3-6.2-6.3-10.8-12.3-14
	c-10.4-5.5-21.5-9-33-8.9c-14.5,0.1-27.8,5.2-39.4,14.4c-7.7,6.2-15.1,12.7-22,19.8c-1.9,1.9-4,3.9-6.3,5.2
	c-13.2,7.5-25.1,16.9-38.1,24.8c-4.3,2.6-8.7,4.6-14,3.8c-4.5-0.7-7.1-3.8-5.2-7.6c1.9-3.7,1.8-7.3,1.8-11.1c0-2.7,1-4,3.6-2.6
	c5.6,2.9,8.1,0.8,8.2-5c0.1-3.6,1.4-4.4,4.6-3c3.8,1.6,6.1,0.8,5.6-3.9c-0.3-3.3,0.7-5.1,4.4-3.6c3.5,1.4,5.6,0.4,5.9-3.6
	c0.3-3.9,2.4-4.9,6.2-4.8c6.7,0.2,8.9-3.3,6.7-9.7c-0.5-1.5-1.1-3.1-1.8-4.6c-0.8-1.7-0.7-4.4-3.6-4.1c-2.3,0.2-3.5,2.2-3.9,4.1
	c-1.3,5.1-2.9,6.1-7.4,2.4c-5.8-4.7-6.2-4.3-8.7,2.7c-2.5,7-2.5,7-8.1,1.8c-4.5-4.2-4.8-4.1-6.5,1.6c-0.4,1.2-0.5,2.5-0.9,3.7
	c-0.8,2.5-1.6,3.8-4.6,1.7c-2.9-2.1-6-6.2-9.2-5c-3.1,1.2-2.1,6.5-3.4,9.8c-0.7,1.6-0.4,4.4-3.2,2.3C20.4,155.6,14.3,152,14.5,144z
	 M354,458.3c-0.1,3.6,0.1,7.6,4.3,9.2c3.9,1.6,6.7-1.2,9.1-3.5c9.6-9.2,19.1-18.5,26.8-29.6c2-2.8,3-6.8,7-7.9
	c-3.9-5.5-9-7.5-15.8-6.8c-10.1,1.1-20.3,1.6-30.4,2.4C353,434.2,354.3,446.3,354,458.3z"/>
<path style="fill:#FFFFFF;" d="M100.6,105.4c0,4.3-5.2,9.5-9,8.9c-4.8-0.7-8-3.5-7.9-8.5c0.2-5.2,3.5-8.4,8.7-8.3
	C97.4,97.7,99.9,101.1,100.6,105.4z"/>
<path style="fill:#050505;" d="M97.1,106.5c0,3.4-4.2,7.5-7.1,7.1c-3.8-0.5-6.4-2.8-6.3-6.8c0.1-4.1,2.8-6.7,6.9-6.6
	C94.6,100.3,96.6,103.1,97.1,106.5z"/>
</svg>
