<?xml version="1.0" encoding="utf-8"?>
<!-- Generator: Adobe Illustrator 23.0.3, SVG Export Plug-In . SVG Version: 6.00 Build 0)  -->
<svg version="1.0" id="Layer_1" xmlns="http://www.w3.org/2000/svg" xmlns:xlink="http://www.w3.org/1999/xlink" x="0px" y="0px"
	 viewBox="0 0 612.2 428" style="enable-background:new 0 0 612.2 428;" xml:space="preserve">
<path style="fill:#F5C400;" d="M374.3,260.8c4.3,18.2,8.4,36.4,12.7,54.5c3.2,13.6-0.5,23.2-10.5,32c-10.6,9.2-13.8,8.6,0.5,20.6
	c6.8,5.7,12.2,12.5,15.9,20.6c0.6,1.4,1.5,3.1,0.1,4.4c-1.3,1.2-2.6-0.1-3.8-0.6c-5.5-2.3-11-4.6-16.4-7.1c-1.2-0.5-2.6-1.3-3.3-2.3
	c-5.7-7.7-11.7-15.1-15.5-24c-3.3-7.7-2.7-9.4,4.9-12.8c1.1-0.5,2.2-0.9,3.2-1.5c8.4-4.7,8.8-8.9,1.4-14.5
	c-7.3-5.4-14.8-10.7-23.5-13.9c-6.3-2.3-11.6-1.4-16.3,3.6c-6.2,6.5-10,14.3-12.5,22.8c-1.6,5.3,1.9,11.1,8.1,14.5
	c11.7,6.5,11.9,7.3,5.2,19.3c-3.6,6.5-7.5,12.9-12.6,18c-6,6.2-14.8,8.3-22.8,10.8c-3.1,1-1.8-2.5-1.1-4.2
	c3.3-7.9,8.5-14.3,14.8-19.9c12.3-10.9,11.9-10.6,0.9-22.7c-16.9-18.6-29.8-39.8-35-64.8c-2.8-13.5-2.5-27.3-0.4-41
	c0.7-4.3-0.1-8.6,0.4-12.9c1.8-16.1-10-21.4-20.2-22.5c-3.1-0.3-6.3,0-9.2-1.6c-2.3-0.7-3.7,0.7-5.1,2.2
	c-12.9,12.7-25.2,26-40.3,36.4c-2.2,1.5-3.7,4.1-5.5,6.3c-14.1,17.5-28.2,35-42.4,52.4c-2.4,3-5.1,8-9.3,5
	c-3.6-2.6-1.2-7.5,0.9-10.9c5.6-9.2,11.6-18.1,16.3-27.7c4.8-9.8,9.6-19.6,14.2-29.5c1.4-3,2.8-6.1,3.2-10c-2.5-0.3-4.2,1.1-5.8,2.2
	c-20.8,14.5-39.8,31.1-55.9,50.8c-0.6,0.8-1.2,1.6-1.8,2.4c-1.8,2-4.1,2.7-6.4,1.6c-2.6-1.3-1.8-3.7-0.9-5.8
	c4.6-11,10.6-21.4,17.6-31.1c15.1-21,32.6-40.2,49.2-60c1.7-2,3.2-3.9,3.4-6.7c1-13.5,6.9-24.3,18.5-31.7c3-4.4,8-5.8,12.5-7.6
	c7.2-2.9,13.1-7.5,18.9-12.3c4.4-3.6,4.2-4.6-0.9-7.6c-16.6-9.9-33.2-19.7-48.9-31c-9.1-6.5-16.8-14.6-26-20.9
	c-20.2-13.9-43.3-20.7-66.8-26.4c-16.1-3.9-32.4-6.2-48.7-8.8c-3.7-0.6-7.2-2.1-11-2.2c-1.2-0.3-2.4-0.7-2.2-2.3
	c0.4-2.4,2.4-1.7,3.8-1.6c12.3,0.9,24.6,1.4,36.9,2.9c25.3,2.9,50.5,6.3,74.8,14.6c3.2,1.1,3.9,0,3.7-2.9c-0.3-3.2-1.1-6.2-1.8-9.4
	c6.6,3.7,10.3,9.5,12.4,17c3.4-4.3,3.4-9.8,5.7-14.9c2.7,6.4,5.1,12.2,3.4,18.7c-0.8,2.9,1.3,4,2.8,5.4
	c15.4,13.8,33.7,23.2,51.4,33.4c9.5,5.4,19.7,9.5,28.5,16.1c2.5,1.9,3.7,0.9,5.2-1.1c3.9-5.3,7.4-10.9,9.7-17c1.5-4.1,4.5-4.6,8.1-4
	c3.8,0.7,5.1,3,5.3,6.8c0.4,8.6-2.3,16.1-7.9,22.5c-3.3,3.7-2.1,5.6,1.5,8c15.2,10.2,30.3,20.6,45.3,31.1c3.1,2.2,5.9,2.4,9.4,1.3
	c18.1-5.4,34.4-14.5,50.5-24c29.3-17.3,57-37.2,85.2-56.1c7.6-5.1,15.3-10,22.8-15c-2.1-4.5-6.9-4.5-10.9-7.5
	c8-1.3,14.9-0.7,22.2,2.1c-1.1-5.4-4.3-8.7-6.7-13.1c4.7,0.5,8.6,2.4,11.5,5.2c3.4,3.2,6.1,2.3,9.5,0.8c27.6-11.8,55.5-22.6,84.1-32
	c2.3-0.7,4.6-1.2,6.9-2c3.2-1.2,6.2-1,7.4,2.5c1.4,3.8-1.3,5.4-4.5,6.2C537.3,55.5,486.6,82.6,439.6,116
	c-28.5,20.3-56.2,41.7-85.5,61c-5.4,3.6-6.2,6.5-4,12.8c6.5,18.6,13.4,37,20,55.6C371.7,250.4,373.9,255.3,374.3,260.8z"/>
<path style="fill:#BB9500;" d="M374.3,260.8c-5.5-12.1-9-24.9-13.7-37.2c-4.4-11.5-8.3-23.2-12.6-34.7c-2-5.3-0.5-9.7,4-12.4
	c37-22.4,69.2-51.4,105.6-74.6c39.7-25.3,80.9-48.1,125.6-63.8c2.8-1,5.5-2.3,8.6-1.8c-11.7,8.2-23.6,16-34.7,25
	c-37.4,30.1-69.8,64.4-90.1,108.6c-2,4.4-5.9,6.2-9.5,8.6c-21.7,13.7-43,27.9-61.2,46.3C386,235,377.6,246.3,374.3,260.8z M84,69.8
	c17,7.8,34.5,15.5,46.3,30.7c9.9,12.8,21.3,24.1,32.5,35.6c8.4,8.7,18.3,15.9,26.1,25.3c12.1-5.9,24.7-10.9,34.6-20.5
	c3.3-3.2,3.5-4.4-0.8-6.9c-20.4-11.9-41-23.6-59.3-38.7c-10.8-8.8-21.2-18-33.9-24C107.4,61,84,54.9,60.2,50.4
	c-14-2.7-28-5-42.3-5.8C40.4,51.8,62.6,59.9,84,69.8z M256,235.5c4.2,5.6,11.1,9.2,12.1,17.1c1.6-5.5,2.1-11.1,2.3-16.8
	c0.3-7.4-3.2-12.6-9-16.2c-6.8-4.2-14.5-4.8-22.3-4C244.8,222.1,250.8,228.5,256,235.5z M284.7,302.1c0.7,9.3,6.8,16.5,15.3,18.2
	c6,1.2,11.3-0.7,16.4-3.8c9.9-6.1,20.5-9,32.3-8.4c7.3,0.4,13.5-3,17.2-9.8c3.5-6.5,3.9-13.5-0.6-19.2c-14-17.5-31.4-28.7-54.9-26.5
	c-11.7,1.1-20,7-23.6,18.8c-2,6.6-2.5,13.2-2.1,20C284.7,294.9,284.5,298.5,284.7,302.1z M246.5,148.5c-1.4-0.8-2.5-0.7-3.5,0.7
	c-4.1,5.2-8.3,10.3-13.1,16.2c15.7-0.6,30.6,0,47,2.2C266.4,159.8,256.2,154.5,246.5,148.5z"/>
<path style="fill:#F8F7F7;" d="M206.1,202c-0.9,6-4.3,9.8-10.3,9.5c-5.5-0.3-9.1-4-9.1-9.8c0-5.9,3.6-9.3,9.2-9.4
	C202,192.2,205.5,195.8,206.1,202z"/>
<path style="fill:#050505;" d="M203,204c-0.7,4.7-3.4,7.8-8.1,7.5c-4.3-0.2-7.2-3.2-7.2-7.7c0-4.6,2.8-7.3,7.3-7.4
	C199.7,196.3,202.5,199.1,203,204z"/>
</svg>
