<?xml version="1.0" encoding="utf-8"?>
<!-- Generator: Adobe Illustrator 23.0.3, SVG Export Plug-In . SVG Version: 6.00 Build 0)  -->
<svg version="1.0" id="Layer_1" xmlns="http://www.w3.org/2000/svg" xmlns:xlink="http://www.w3.org/1999/xlink" x="0px" y="0px"
	 viewBox="0 0 576.2 352.9" style="enable-background:new 0 0 576.2 352.9;" xml:space="preserve">
<path style="fill:#785743;" d="M166.7,209.1c-2.5,7.7-5.2,15.2-10.2,21.8c-2.8,3.7-0.6,6.7,1.3,9.7c1.9,3,5.9,6.3,1.8,9.6
	c-3.7,3-7.4-0.2-10.3-2.8c-4.4-4-5.7-9.3-4.5-14.8c0.9-4.3,2.7-8.6,4.5-12.7c1.7-3.9,2-7.3-0.2-11.2c-6.3-11.3-8-23.2-4.3-35.7
	c0.7-2.3,0.2-3.9-1.6-5.5c-3.2-2.9-6.3-5.9-9.4-8.9c-7.6-6.6-13.3-15-21.3-21.4c-17.5-14.1-36.1-17.6-57-8.8
	c-11.4,4.8-23.4,7.6-35.5,10.3c-1.8,0.4-3.7,1.1-5.3-0.4c-1.2-7,2-11.8,7.8-15.4c9.3-5.7,19.5-9.6,29.4-13.9
	c5.6-2.4,10.7-5.2,14.7-10c3.4-4,7.9-5.7,12.9-5.8c3-0.1,5.2-1,7.3-3.2c8.5-8.6,19.7-10.7,31-5.9c10.2,4.3,19.2,10.9,28.5,16.8
	c11,6.8,23.1,10.4,35.7,12.7c7,0.1,13.7,2.8,20.7,3.3c6.6,0.8,13.1,1.5,19.7,2.1c7.1,1,14.2,2,21.3,3.2c8,1.5,15.9,3.5,23.7,5.6
	c7.4,2.4,14.8,4.7,21.9,7.8c7.1,3,13.9,6.7,21,9.6c7.2,4.2,14.4,8.3,21.6,12.4c5.7,4.7,13.2,7,17.8,13.2
	c17.3,15.5,38.8,22.1,60.5,28c14.5,3.9,28.8,9.8,44.3,8.9c21.7-1.3,43.5-1.7,63.8-10.7c10.2-4.5,19.9-10.4,31.2-12.2
	c2.8-0.5,5.6-0.7,8.4-0.1c1.4,0.3,3.2,0.7,3.6,2.3c0.4,1.8-1.3,2.6-2.5,3.3c-8.5,5.2-16.9,10.4-25.5,15.4
	c-15.2,8.8-30.4,17.7-46.6,24.7c-13.4,6-27.7,7.7-42.1,8.4c-5.6,0.2-11.1,1.2-16.8,1.2c-33.6,0.1-67-2.6-100.2-7.4
	c-9.7-1.4-17.8,0.2-24.5,7.6c-3.4,3.8-7.9,6.2-11.9,9.4c-1.5,25.7-12.4,48.3-23.7,70.7c-0.9,1.7-2,2.5-3.9,2.5
	c-10.1,0-20.2,0-30.4,0c-1,0-2.6,0.4-2.7-1.1c-0.1-0.9,0.6-2.1,1.3-2.9c3.6-4.4,8.6-6.7,13.7-8.5c8.7-3.1,12.8-9.6,13.1-18.4
	c0.4-14.2,0.4-28.5-1.6-42.6c-0.1-0.7-0.6-1.3-0.9-2c-1.5-0.6-2.4-1.8-2.8-3.3c-4.3-14.2-8.7-28.4-2.3-43.2c1.3-2.9,1.1-4.8-2.9-4
	c-23.2,4.6-44.9-1.5-66.2-9.9c-9.4-3.7-9.1-3.7-11.2,6.1C170,198.5,169.9,204.2,166.7,209.1z"/>
<path style="fill:#8F6A5B;" d="M293.6,249.6c4.9-2.5,10.2-1.1,15.1-0.9c6.5,0.3,13.2-0.1,19.6,2c8.2,22.5,3.7,45.9,4.9,68.9
	c0.1,2.8-1.1,3.5-3.6,3.5c-9.1-0.1-18.3,0-28.6,0c2.6-5.1,6.1-8.5,10.4-10.9c3-1.7,3.6-3.9,4-7.2c2.2-17.1-2.1-31.8-14.3-44.3
	C298.1,257.6,296.1,253.3,293.6,249.6z M162.9,228.3c-0.9,7.9,2.6,14.2,9.7,17.2c2.3,1,4.3,1.2,6.2-0.7c2-2.2,0.7-4.2-0.5-6.1
	c-0.6-1-1.3-1.8-2-2.7c-2.9-4-4-7.8-0.2-12.1c1.9-2.2,2.9-5.2,4.3-7.8c-3.1-3.2-6.8-5-11.2-5.6C167.2,216.4,163.6,221.8,162.9,228.3
	z"/>
<path style="fill:#DDAD80;" d="M166.7,209.1c1.5-8.4,2.8-16.9,4.5-25.3c0.6-3.1,3.2-1.6,5-0.9c9.4,3.6,18.8,7.2,28.6,9.9
	c15,4.2,30,5.5,45.4,2.1c1.8-0.4,6.3-2,4.1,2.5c-8.4,17.2-3.3,33.5,2.3,49.9c-3.4,1.5-6.6-0.1-9.8-1c-12.5-3.5-24.1-8.9-35.3-15.5
	c-10-5.8-20.3-11-31.2-15c-4-1.3-7.7-3.3-11.2-5.6C168.5,209.4,167.7,209.1,166.7,209.1z M16,145.9c2.1,4.1,5.4,8.2,9.7,8.6
	c2.9,0.2,2.7-5.1,3.3-7.9c1.4-6.2,4.3-1.6,5.8-0.8c7,4.1,6.8,3.3,8.6-3.1c0.8-2.7,1.6-3.9,4.3-1.4c5.2,4.6,5.5,4.6,8.7-2.1
	c1.5-3.2,3.2-4.1,5.9-1.8c4.3,3.7,6.9,2.7,8.8-2.4c0.6-1.6,2.2-4.4,3.9-2.5c2.5,2.9,4.5,7,4,10.7c-0.3,2.6-3.9,4.3-7.2,3.9
	c-2.8-0.3-4,0.8-4.4,3.7c-0.4,2.8-1.5,5-5.2,3.5c-2.7-1.1-3.5,0.7-3.7,3.2c-0.2,2.9-1.2,5.2-5,3.6c-2.6-1.1-3.6,0.3-3.9,3
	c-0.3,3.2-0.8,6.5-5.6,4.7c-2.6-0.9-3.8,1-4.1,3.3c-0.3,2.2-0.6,4.4-1.7,6.4c-1.3,2.6-1.8,5.5,0.6,7.8c2.6,2.6,5.7,3.3,9.2,1.7
	c5.3-2.4,10.5-5,15.1-8.5c12.1-9.2,25.1-17,38.6-23.8c10.2-5.1,20.3-6.5,29.8,1.9c0.7,0.6,1.7,0.8,2.5,1.1
	c-5.5-8.6-12.4-15.8-20.2-22.3c-17.5-14.6-36.6-18.5-57.9-9.6c-13.2,5.5-27,8.6-40.9,11.5C14.3,140.9,14.8,143.6,16,145.9z
	 M293.6,249.6c9.7,0.9,19.6,0.6,29.3,1.7c1.8,0.2,3.7,0.3,5.4-0.6c1.3-1.5,3.1-1,4.8-1.1c26.2-0.2,52.5,0.3,78.7-1.1
	c13.1-0.7,26.1-1.9,38.9-4.8c12.7-2.9,25.5-5.7,36.6-13.3c-25.1,6.6-50.7,8.5-76.6,7.8c-11.7-0.3-23.5-1.5-35.2-2.1
	c-15.8-0.8-31.6-2.8-47.2-5c-12.9-1.8-30.3,6.3-36.6,18c-0.1,0.1,0,0.4,0.1,0.5C292.4,249.7,293,249.6,293.6,249.6z M269.7,124.2
	c4.4-18.2,7.6-36.6,11.8-54.8c-9-4.2-18.4-6.2-28.4-5.2c-1.7,1.4-2.3,3.3-2.6,5.4c-2.2,16.1-4.8,32.2-7.3,48.2
	c-0.3,2.1-0.5,4.1,1,5.9c7.8,1.8,15.6,3.7,23.4,5.5C269.4,128,269.3,125.9,269.7,124.2z M310.4,146.1c2.1-0.9,2.7-3,3.6-4.8
	c5.3-12,11-23.7,16.8-35.5c-6.5-9.4-14.9-16.6-24.5-22.7c-6.2,17.8-11.9,35.8-17,54C296.4,139.7,302.8,144.3,310.4,146.1z
	 M201.5,97.7c-0.5,6.8-1.7,13.6,0.8,20.3c6.7,1.8,13.6,2.4,20.5,2.3c0.1-2.2,0-4.5,0.3-6.7c1.6-13.4,3.6-26.8,4.5-40.3
	C217.6,80,209.6,88.9,201.5,97.7z M350,170.9c-1.1-13.3-3.2-26.5-6.7-39.4c0.1,2.5-0.8,4.7-1.9,6.9c-3.3,6.7-6.4,13.4-9.6,20.1
	C337.2,163.6,344,166.7,350,170.9z"/>
<path style="fill:#EE4411;" d="M267.5,129.1c3.9-19.2,7.8-38.5,11.7-57.7c0.3-1.3,1.2-1.8,2.3-2.1c8.5,4.1,17.4,7.4,24.7,13.7
	c0.9,4.7-1.7,8.7-3,12.9c-3.5,12-7.4,23.9-11.2,35.8c-0.6,1.9-1.1,4-2.8,5.4C282,134.4,274.8,131.7,267.5,129.1z M227.6,73.2
	c-1.1,1.1-1.6,2.5-1.8,4c-1.6,12.4-2.9,24.8-4.4,37.2c-0.2,2.1-0.1,4.1,1.4,5.8c7,1.6,14.2,2.6,21.4,3.3c3-19.8,6-39.7,9-59.5
	C244,65.4,235.4,68.2,227.6,73.2z M331.8,158.5c5.6-6.9,9-14.9,11.8-23.2c0.4-1.2,0.4-2.6-0.3-3.8c-2.3-9.5-7.4-17.6-12.6-25.7
	c-1.7-0.3-2.3,1.1-2.8,2.2c-5.9,12.7-11.7,25.4-17.5,38.2C317,151.1,324.3,155,331.8,158.5z M182.3,113.6c6.3,3,13.1,4.1,20,4.4
	c-0.3-6.8,1.3-13.6-0.8-20.3C195.2,103.2,189.1,108.8,182.3,113.6z"/>
<path style="fill:#FBF8F7;" d="M90.6,105c-0.1,4.8-2.3,8-6.9,8.2c-4.4,0.2-6.8-3.1-6.8-7.2c0-3.9,2.1-7.1,6.6-7.4
	C88,98.3,90.2,100.9,90.6,105z"/>
<path style="fill:#050505;" d="M87.7,105.3c0,3.6-1.8,6-5.5,6.2c-3.4,0.1-5.3-2.4-5.3-5.4c0-3,1.6-5.4,5.2-5.6
	C85.7,100.3,87.3,102.2,87.7,105.3z"/>
</svg>
