<?xml version="1.0" encoding="utf-8"?>
<!-- Generator: Adobe Illustrator 23.0.3, SVG Export Plug-In . SVG Version: 6.00 Build 0)  -->
<svg version="1.0" id="Layer_1" xmlns="http://www.w3.org/2000/svg" xmlns:xlink="http://www.w3.org/1999/xlink" x="0px" y="0px"
	 viewBox="0 0 557.3 557.3" style="enable-background:new 0 0 557.3 557.3;" xml:space="preserve">
<path style="fill:#A86AB5;" d="M476,356.5c2.3,2.5,5,4.3,8.3,5.2c4.4,1.5,8.6,3.4,12.1,6.5c0.8,1,2,1.2,3.2,1.2
	c3.8,0.3,7.2,1.9,10.6,3.3c0.5,0.3,1,0.5,1.4,0.8c5.8-0.1,11.4,1.6,17.1,2.5c2.2,1.9,5-0.2,7.7,1.2c-5.6,8.7-14.1,11.8-23.7,12.7
	c-17.9,1.6-34.7-3.5-51.2-9.5c-24.2-8.9-46.4-21.9-68.8-34.3c-13.2-7.4-27.3-8.7-42-6c-3.3,0.6-4.4,2-4.1,5.4
	c0.7,6.3,0.4,12.5-2.7,18.5c-2,3.8-1,8.2-0.1,12.3c3.1,14.7,4.2,29.3-0.2,43.9c-1.2,3.8-0.3,7.8,0.5,11.8c2.9,15.3,1,17.6-14.2,17.5
	c-7.1-0.1-14.1-0.1-21.2,0c-4.5,0.1-5.3-1.8-3.9-5.7c1.4-3.8,3-7.4,5.7-10.4c8-8.8,11-19.9,13.2-31.1c2-10.2-3.5-19.4-13.2-23.2
	c-4.6-1.8-7.6-4.8-9.1-9.4c-2.2-6.9-4-13.8-6-20.7c-6.7,2.6-13.5,4.8-20.4,7c-6.6,2.1-13.1,0.4-19.7,1.2c-6.9,0-13.7,0-20.6,0
	c-10,1-19.6-0.7-29.1-3.9c-5-1.7-9.9-3.3-14.6-5.5c-10.4,3.2-14.3,11.1-14.5,21c-0.2,7.4-3.6,12.6-8.6,17.4
	c-6.5,6.3-13.9,11.6-21,17.2c-4.5,3.6-7.4,7.6-8,13.9c-1.7,18.3-2.1,18.3-20.5,18.3c-5.2,0-10.4,0-15.7,0c0.2-3.1,1.5-5.4,3.1-7.2
	c11.3-12.9,18.2-28.6,27.3-42.9c2-3.2,3.7-6.6,5.8-9.8c8.3-12.5,6.7-25.3,1.5-38.3c-0.6-1.5-1.6-2.3-2.8-3.1
	c-11.6-7-23.4-13.7-34.7-21.2c-8.5-5.6-17.2-4.3-26.5-3.3c-15.4,1.6-31,1.7-46.5,2.3c-1.4,0.1-2.9-0.2-4.2-0.7
	c-3.5-1.4-8.3-2.5-8.7-6.4c-0.2-2.5,5-2.5,7.6-3.9c2-1.1,4.2-1.8,6.1-3.5c-5.4,0.5-10.8,1.1-16.9,1.7c3.3-9.1,6.4-17.4,14.5-22.8
	c7.5-5,15.3-9.6,23-14.3c7.1-4.3,14.4-5.4,22.4-3.5c5.8,1.4,11.6,2.7,17.4,4c1.1-0.7,2.2-1.4,3.5-1.2c6.8,0.6,13.1-2.1,19.6-2.9
	c1.2,0.1,2.3-0.1,3.2-1.1c2.9-3.1,6.9-4.5,10.4-6.5c7.8-4.3,15-9.1,20.1-16.5c0.5-0.8,1.3-1.2,2.1-1.6c3.2-1.2,4.7-3.9,6.3-6.6
	c4.1-6.3,9.1-11.9,14.6-17c6.9-6.3,13.8-12.5,21.5-17.8c1.6-1.1,3.1-2.5,5.3-2.3c1.6-0.3,3-1.1,4.2-2.2c3.6-4.5,9.1-5.8,14-7.8
	c17.4-7.2,35.6-8,54.1-6.1c2,1.6,4.4,1.5,6.7,1.8c1.7-1.2,3.5-0.4,5.2-0.2c21.2,3.1,39.9,12,57.1,24.5c0.7,0.5,1.4,1.2,1.7,2
	c0.6,2.2,2.6,2.9,4.3,3.9c4.3,1,6.7,4.7,9.9,7.3c13.4,10.9,24.1,24.3,34.5,37.9c0.7,0.9,1.3,1.8,1.3,2.9c0.2,1.5,1,2.6,2.3,3.4
	c3.3,1.9,4.7,5.4,6.6,8.4c6.5,10.1,12.7,20.4,19.5,30.3c1,1.5,2.2,2.9,2.3,4.8c0.3,2.2,2.1,3.5,3.2,5.2c1.2,0.5,2.3,1.1,3.1,2.2
	c6.5,9.3,14.6,17.4,21.6,26.3c0.4,1.9,1.9,2.9,3.3,3.9C461.1,343.2,468.5,349.9,476,356.5z"/>
<path style="fill:#814F8E;" d="M255.3,357.2c4.2-2.3,8.8-0.4,13.1-1.4c8.2-1.9,16.3-3.9,24-7.2c1-0.4,2.3-1.8,2.9,0.5
	c-2.8,11.5-4.3,23.3-5.2,35.1c-0.8,10.8-0.6,21.6-0.2,32.4c0.3,8.7-4.8,13.7-13.3,13.7c-7.9,0-15.9-0.1-23.8,0.1
	c-4.6,0.1-4.9-2-3.4-5.3c1.2-2.7,3.1-4.9,5.4-6.7c6.1-4.7,9.2-11.1,9.9-18.5c1.1-11.8,2.3-23.6-0.7-35.5
	C262.8,359.2,261,356.2,255.3,357.2z M202.9,378.6c4.4,12,13.2,18.4,25.2,21.4c15.3,3.8,19.6,0.5,19.8-15.3c0-0.4,0-0.7,0-1.1
	c0.1-3.6-1.8-5.4-5.2-5.6c-2-0.1-4,0-5.9,0.2c-5.3,0.6-7.4-1.3-7.2-6.6c0.1-3.4,0.8-6.8,0.7-10.2c-0.2-3.6,1.6-4.4,4.5-4.2
	c-0.8-0.3-1.6-0.9-2.5-0.9c-8.5,0.2-16.6-2-24.8-4.1c-5.5-1.4-10.4-5.3-16.4-4.5C195,358.1,199.1,368.3,202.9,378.6z"/>
<path style="fill:#5F3769;" d="M340.9,201.1c-7-2.7-12.4-7.8-18.8-11.4c-12.2-6.9-25.3-10.9-38.9-13.6c-2.1-0.4-4.2-0.9-6.3-1.3
	c0.3-8.5,1.1-16.9,3.3-25.1c1.9-7.2,6.2-11.9,12.9-14.9c15-6.6,30.9-9.7,46.9-12.5c1.6-0.3,2.7-0.2,3.6,1.4
	c9,16.1,15.1,32.8,11.8,51.6C353.6,185.6,348.8,194.2,340.9,201.1z M262,135.3c-9.1-12.2-21.3-20.3-34.8-27
	c-2.1-1.1-3.3-0.4-4.6,1.1c-10.9,11.9-21.5,23.9-29.3,38.1c-3.4,6.3-4.1,12.5-1.6,19.2c2.6,7.2,6,13.9,10.4,20.1
	c20-10.7,41.4-14.7,63.9-13.1c1.5,0.1,2.9-0.1,4.2-0.8C274,159,270.4,146.5,262,135.3z M405.8,241.4c8.8-8,12.3-17.9,11.8-29.6
	c-0.4-9-1-18-2.5-27c-1.3-8.2-1.1-8.4-9.1-9.3c-23.4-2.7-48.9,6.2-60.9,29.6c0.5,0.6,0.8,1.2,1.4,1.7c10.3,8.3,20,17.1,28.4,27.4
	c5.2,6.4,10.7,12.7,16,19C396.4,249.9,401.1,245.7,405.8,241.4z M174.3,168.5c-9-3.4-18.3-3.8-27.8-3.5c-3.2,0.1-4.5,1.3-5,4.2
	c-1.1,6-2,12.1-3.4,18.1c-3.8,16.9,1.2,29.8,16.8,38.2c0.5,0.3,1,0.4,1.5,0.6c4.4-2.9,7.1-7.5,10.7-11.2
	c9.4-9.7,19.8-18.1,30.7-25.9C192.5,179.3,184.7,172.5,174.3,168.5z M441.7,275.4c0.9-6.4,1.8-12.9,2.8-19.3c0.3-2,0.1-3.4-2.2-4.2
	c-17.1-5.6-33.6-6.6-49.1,4.5c3.2,5.2,6.2,10.4,9.5,15.5c6.1,9.4,11.4,19.4,18.9,28C433.1,295.7,440,287.7,441.7,275.4z
	 M120.6,222.4c-2,0-3.7-0.1-4.4,2.7c-2.5,10.9-4,21.7,1.2,32.3c8.6-3.2,16.4-7.9,23.6-13.5c3.7-2.9,7.3-6.4,9-11.1
	C141.6,225.6,131.7,222.3,120.6,222.4z M459.5,310c-0.1-1.6-0.1-3.2-0.1-4.9c-0.2-6.6-0.7-7-7.5-7.5c-10-0.7-18.7,2.7-27.1,7.6
	c4,5.2,7.5,10.9,12,15.6c4.2,4.3,6.8,10.1,12.6,12.8C457.5,327.7,460.3,319.7,459.5,310z M479.2,336.1c-0.1-4.3-2.4-5.6-6.1-5.7
	c-7.6,0-14.5,2.1-20.4,7.1c7,7.3,14.4,14,23.3,19C479.7,350.1,479.4,343.2,479.2,336.1z M506,329.5c0.3-1.4,1.4-3.5-0.7-4.2
	c-1.7-0.6-2.1,1.6-2.7,2.8c-6.1,11.2-12.2,22.4-18.3,33.6c3.3,3.5,7.7,5,12.1,6.5C499.6,355.3,502.8,342.4,506,329.5z M98.1,238.8
	c-3.5,7.9-6,15.7-7,23.9c8,0.4,16,0.6,23.2-4.2C110.7,250.7,104.9,244.7,98.1,238.8z M541.7,353c0.6-1.2,2.3-2.6,1-3.8
	c-1.6-1.6-2.8,0.6-3.9,1.5c-9.1,7.6-18.2,15.2-27.2,22.9c5.6,1.9,11,4.3,17.1,2.5C533.1,368.4,537.4,360.7,541.7,353z M524.4,344.8
	c0.7-1.3,2.5-3.1,0.8-4.3c-1.8-1.3-2.7,1.2-3.6,2.2c-7.4,8.8-14.7,17.8-22.1,26.7c3.2,2.2,6.6,3.7,10.6,3.3
	C514.9,363.4,519.7,354.2,524.4,344.8z"/>
<path style="fill:#FDF9F6;" d="M65.8,279.4c-1.2,5.7-4.4,9.8-10.3,9.8c-5.9-0.1-9.8-4.3-9.7-10c0.1-5.8,4.2-9.8,10.1-9.8
	C61.7,269.3,64.9,273.5,65.8,279.4z"/>
<path style="fill:#050505;" d="M59.5,279.3c-0.8,3.9-3,6.7-7,6.7c-4.1,0-6.7-2.9-6.7-6.9c0.1-4,2.9-6.7,6.9-6.7
	C56.7,272.5,58.9,275.3,59.5,279.3z"/>
</svg>
