<?xml version="1.0" encoding="utf-8"?>
<!-- Generator: Adobe Illustrator 23.0.3, SVG Export Plug-In . SVG Version: 6.00 Build 0)  -->
<svg version="1.0" id="Layer_1" xmlns="http://www.w3.org/2000/svg" xmlns:xlink="http://www.w3.org/1999/xlink" x="0px" y="0px"
	 viewBox="0 0 579.4 319.8" style="enable-background:new 0 0 579.4 319.8;" xml:space="preserve">
<path style="fill:#78BA24;" d="M241.8,232.4c-11.3,15.9-21.7,32.5-29,50.7c-0.8,2-2.1,2.3-3.9,2.3c-14.5,0-29,0-43.4,0
	c-2.1,0-3.4-0.2-3.7-2.9c-1.2-9.6,1.4-15.7,10.4-19.7c9.1-4.1,15.2-10.7,19.6-19.3c3.5-6.9,6.7-13.8,9.7-20.9
	c1.2-2.8,1.3-4.1-2.3-5.1c-10.4-3-21.4-4.5-30.6-10.9c-1.8-1.2-3.7-0.3-5.5,0.1c-6.6,1.4-13.1,3.1-19.7,4.5
	c-7.8,1.6-14.4,5-19.1,11.8c-1.9,2.8-4.4,5.1-6.7,7.6c-10,10.2-21.6,16.2-36.7,12.6c2.8-3.3,6.1-6.6,8.7-10.3
	c2.5-3.6,6.7-8.7,3.4-12c-3-3.1-7,2.3-10.3,4.4c-4.8,3-9.3,6.5-10.5,12.6c-19.6-11.5-24.9-26.7-16.7-47.2
	c5.2-6.8,10.8-13.2,17.2-18.9c14.2-4.2,23.1-13.9,28.1-27.4c0.8-10.2,2.8-19.8,12.3-25.9c5.3-3.8,11-6.4,17.7-6
	c2.5,0.2,3.7-0.8,4.5-3.1c7.8-21.6,15.8-43.2,16.4-66.6c1.8-2.6,2.8-0.7,3.7,0.7c1.3,1.9,1.8,4.1,2.5,6.3
	c10.9,30.4,19.4,61.4,21.9,93.7c1.4,18,0.9,36.1-5.2,53.5c-0.4,1.2-1.3,2.4-0.4,3.7c9.6-3,13.6-9.8,10.5-18.7
	c-1.3-3.9-1-6.5,2.2-9.4c7.3-6.8,7.7-12.6,1.2-20.1c-3.5-4-3.5-7-0.7-11.4c5-7.9,4.1-13.4-2.2-20.3c-1.7-1.9-3.5-3.8-2.3-6.5
	c2.4-5.6,3.2-11.6,3.7-17.6c0.1-0.8,0.5-1.4,1.1-1.9c24.8-21.3,54.7-31.4,85.6-39.5c20.1-5.2,40.3-7.3,60.7-1.8
	c24,6.5,43.1,20.6,57.6,40.3c16.5,22.4,35.6,41.2,61,53c6.3,3,12.9,5.2,19.8,6.3c9.8,1.5,18.1-2.1,25.6-8
	c5.9-4.7,11.5-9.7,17.2-14.6c9.7-8.3,20.5-14.5,33.2-17.1c3.7-0.8,7.5-1,11.1,0.2c2.2,0.8,4,2,4.3,4.6c0.2,2.4-1.1,4.3-3.1,4.9
	c-13,4-18.2,15.6-25.3,25.4c-10.9,14.9-22.2,29.5-37.5,40.2c-19.4,13.7-41.3,16-64.1,13.9c-8.5-0.8-16.5-3.3-24.3-6.9
	c-6.1-2.9-12.4-4-19.1-1.8c-3.9,1.3-5.4,2.2-2,6c6.6,7.2,12.6,14.9,19,22.3c7.4,8.6,11.7,18.3,11.5,29.8c0,2.4,0.1,4.9,0.6,7.3
	c2.4,13.4-3.6,24.7-16.2,30c-1.2,0.5-2.5,0.8-3.8,0.8c-11.5,0.1-22.9,0-34.4,0.1c-2.8,0-3.5-0.6-2.7-3.5c1.6-6.5,4.6-12.3,10.1-15.8
	c9.8-6.4,8.5-17.7,3.6-25.4c-1.1-1.7-2.3-3.4-3.4-5.2c-2.1-0.6-3.6-2-5-3.5c-5.3-6-11.9-8.7-19.9-8.6c-4,0-8.3-0.2-11.4-3.5
	c-2.2-0.3-4.1-1.4-6.5-0.6c-17.2,5.3-34.9,7-52.8,7.4c-4.5,2.7-9.5,1.6-14.2,1c-4.8-0.6-9.7-0.6-14.5-1.2
	C246.1,231,243.8,231.1,241.8,232.4z"/>
<path style="fill:#539615;" d="M187.4,94.7c0.2,6.8,0,13.6-3.6,19.6c-1.2,2.1-0.3,3.1,1.1,4.2c9.5,7,8.4,16.4,2.6,24.8
	c-2.2,3.2-1.5,4.6,0.8,6.9c8.3,8.7,7.8,16.8-1.7,24.4c-2.4,1.9-2.2,3.1-1.1,5.5c4.5,9.8-1.9,21.7-12.5,23.8c-3.4,0.7-2-1.5-1.5-3
	c3.1-8.5,5.1-17.2,6.2-26.2c2-17.1,0.8-34.1-1.8-51c-4.1-26.5-11.7-52.2-21-77.4c-0.5-1.5,0.3-4.8-3.3-3.6c0.2-0.9,0.3-1.8,0.5-2.7
	c1.2-3.8,3.2-7.3,7.5-7.1c4.9,0.2,8.9,4.1,8.3,8.3c-1.3,8.6,1.7,13.8,7.9,19.4c5.5,5.1,4.9,13,2.8,20.1c-0.9,3-1.8,5.1,2.3,6.3
	C184.5,88.3,185.4,92.1,187.4,94.7z"/>
<path style="fill:#539615;" d="M336.3,224.7c3.5,0.7,7,2.2,10.4,2c11.6-0.8,19.4,5,25.9,13.6c-2.6,0.8-2.9,3.3-3.9,5.2
	c-4.8,9.9-9.6,19.9-13.2,30.4c-1,2.8-2.3,4.1-5.6,4.1c-11.6-0.2-23.3-0.2-34.9,0c-3.7,0.1-4.9-1-4.7-4.7c0.2-3.7,1.7-6.5,4.4-8.7
	c1.7-1.4,3.7-2.6,5.8-3.4c9.2-3.6,14-10.2,14.6-20C335.5,237,335.9,230.9,336.3,224.7z M243.4,232.6c5.3,9.1,10.5,18.2,13.7,28.3
	c0.8,2.6-0.5,3.8-2.5,4.9c-4.4,2.5-8.4,5.7-11.4,9.9c-2.1,2.9-1.6,4.2,2.2,4.1c9.4-0.1,18.8,0,28.2-0.1c14.8-0.1,14.7-0.1,12.5-15.2
	c-1.6-11.4-6.5-21.9-9.2-33c-9.8-0.1-19.6-0.7-29.3-2.3c-2.8-0.5-4.6,0.8-5.8,3.2C242.3,232.5,243.2,232.3,243.4,232.6z"/>
<path style="fill:#FDEEB5;" d="M113,118.5c-7.6,7-9.2,16.8-12.3,25.9c-6.9-2.8-13.7-0.2-20.3,0.8c-19.1,3.1-37.2,9.8-55.1,17.2
	c-0.7,0.3-1.4,0.8-2.1,0.8c-2.8,0.2-6.3,3.8-7.8,1.1c-1.4-2.5,2.7-4.9,4.9-6.7c20.9-17.1,43.6-31.3,70.3-37.5
	C98,118.5,105.5,118,113,118.5z"/>
<path style="fill:#FDEEB5;" d="M72.6,171.8c-4.7,7.2-10.6,13.3-17.2,18.9c-4-5-8.6-9.3-13.4-13.5c-1.1-1-2.4-1.9-3.2-3.1
	c-0.9-1.3-3-2.5-1.7-4.3c0.8-1.1,2.8-0.4,4.3-0.2C51.7,171.2,62.2,171.4,72.6,171.8z"/>
<path style="fill:#F7F6F6;" d="M116.7,177.1c-7.8-0.2-12.1-4.9-12.2-11.9c-0.1-6.6,4.3-11.4,11.4-11.5c7.5-0.1,12.1,4.5,12.1,11.8
	C128.1,172.4,123.8,176.5,116.7,177.1z"/>
<path style="fill:#050505;" d="M112.4,172.6c-4.9-0.1-7.6-3.1-7.6-7.4c-0.1-4.1,2.7-7.1,7.1-7.2c4.7-0.1,7.6,2.8,7.6,7.4
	C119.5,169.7,116.8,172.2,112.4,172.6z"/>
</svg>
