<?xml version="1.0" encoding="utf-8"?>
<!-- Generator: Adobe Illustrator 23.0.3, SVG Export Plug-In . SVG Version: 6.00 Build 0)  -->
<svg version="1.0" id="Layer_1" xmlns="http://www.w3.org/2000/svg" xmlns:xlink="http://www.w3.org/1999/xlink" x="0px" y="0px"
	 viewBox="0 0 581.4 337.4" style="enable-background:new 0 0 581.4 337.4;" xml:space="preserve">
<path style="fill:#8C644D;" d="M15,104.6c0.6-10.8,3.5-21,9.9-29.5c6.4-8.6,16.9-9.8,26.6-12.2c1.3-0.3,2.6-0.5,3.9-0.6
	c7.2-0.5,13.1-1.8,17.2-9.5c4-7.6,12.6-8.9,20.9-8.3c2.4,0.2,4.7,0.6,7-1c28.6-19.3,52.8-4.8,66.1,18.9c3.5,6.3,5.6,13.2,8,19.9
	c5.5,15.4,11.9,19.9,28.3,19.6c18.9-0.4,37.4-4.1,56.1-6.5c25.7-3.3,51.4-4.1,77.2-1.1c30.9,3.6,62.1,3.9,93.2,3.8
	c29.1-0.1,58.1-0.3,87.1,2.3c13,1.1,25.9,2.9,38.1,7.6c2.8,1.1,5.4,2.6,8,4.1c1.9,1.1,2.9,2.8,2.7,5.2c-0.3,2.6-2.4,2.7-4.1,3.1
	c-23,5.1-46.2,9-69.6,11.8c-51-0.8-100.5,7.4-148.4,25c-6.9,2.5-13.8,5-20.6,7.8c-4.5,1.8-6.4,4.5-6.2,9.4
	c0.3,8.7-0.4,17.3-2.6,25.7c10.4,9.5,19.7,20.1,29,30.7c5.1,5.9,12.5,8.2,19.8,10.2c17.2,4.8,19.6,9.9,11.9,25.9
	c-6.7,13.9-14.6,27.3-16.7,42.9c-0.3,2.5-2.4,3.6-5,3.6c-11.5,0-23,0-34.5,0c-3.3,0-4.7-1.6-3.4-4.6c2.9-7,6-13.9,14.5-16
	c4.6-1.2,6.9-5.2,9-8.9c3.3-5.9,5.3-12.4,6.6-19.1c1.5-8.2,0.6-10.1-7.1-13.5c-8.6-3.9-17.2-7.6-25.7-11.6
	c-17.8-8.4-34.1-19.3-49.3-31.7c-3.8-0.7-6.2-3.4-8.7-6c-10.9-11.2-19.4-23.5-17.4-41c-9.6,4.9-17.3,11.2-20.5,20.7
	c-5.3,15.5-16.8,21-31.5,21.9c-6.4,0.4-13.1,1.6-19.5-1.2c-6.9,5.1-11.2,12.4-16.5,18.9c-2.5,3.1-3.9,7.5-9,4.7
	c-5-2.8-7.3-9.8-4.5-14c2-2.9,4.6-5.4,7-8.1c2.1-2.4,4.5-4.6,6.4-7.1c2.5-3.4,5.6-7.2,3.3-11.7c-2.3-4.4-9.5-6.7-14.5-6
	c-11.7,1.6-21.3,6.8-28.7,16.2c-2.7,3.5-6.5,7.9-11.3,4.9c-4.8-2.9-2.2-8.2-0.8-12.4c3-8.8,9.9-14,17.8-18c5-2.6,10.2-4.8,15.7-6.3
	c2.8-2.4,5.7-4.9,8.3-7.5c5.8-5.7,6.8-14.5,2.3-21.9c-6.9-11.3-14-22.4-21.9-33c-8.2-10.9-19.5-14.4-32.6-12.4
	c-8.2,1.3-16.2,3.6-24,6.5C47.1,101,31.5,104.8,15,104.6z M223.1,218.8c-2.4,0.5-4.8,0.9-7.2,1.1c-15.3,1.2-28.8-3.7-41.2-12.2
	c-2.5-1.7-4.7-4.5-8.5-3.3c6.3,13.4,15.8,23.7,29,30.7c13,7,24.9,15.7,35.9,25.5c2.6,2.3,3.5,4.4,2.2,7.8c-2.3,6.2-4.2,12.5-6,18.8
	c-0.9,3-2.3,4.7-5.3,5.8c-7.2,2.7-13,7.5-18,13.3c-1.3,1.5-3.1,3.2-2,5.5c1,2.2,3.3,1.5,5,1.5c9.2,0,18.5-0.2,27.7,0.1
	c4.3,0.1,6.4-1.7,8.3-5.2c5.6-10.4,9-21.5,11.8-32.9c3.1-12.7-0.3-24.1-9.3-33.4c-6.7-6.8-11.4-14.9-16.6-22.7
	C227.1,217.5,225,218.3,223.1,218.8z"/>
<path style="fill:#F4CCA8;" d="M15,104.6c1.1-1.4,2.3-2.3,4.3-2.1c15.1,1.2,28.8-3.9,42.7-8.6c7.1-2.4,14.3-4.6,21.6-6.1
	c17.1-3.6,30.2,2.1,39.7,16.6c6.3,9.6,12.6,19.1,18.7,28.9c5.6,8.9,3.7,19.7-4.8,26.1c-2.1,1.6-3.9,4.2-7,4.3
	c2.3-5.3,1.6-10.8-0.1-15.9c-1.1-3.3-5.3-3.2-7.8-5c-5.5-3.9-11-3.8-17.3-1.1c-11.4,4.9-23.2,8.7-34.8,13.2c-4.2,1.7-7.9,1.4-10.7-2
	c-2.7-3.3-2.3-7,0.1-10.4c0.4-0.6,1.2-1.2,1.2-1.8c0-6.2,1.3-9.3,8-4.6c1.6,1.2,2.4-1.9,2.8-3.3c1.6-4.7,4-6.9,8.9-3.9
	c2.9,1.8,4.1-0.1,5-2.4c1.9-4.8,4.8-7.5,10.7-6.9c4.2,0.4,8-5,6.7-9c-1.6-4.9-5.1-8.5-10.1-9.8c-4-1-7.9-0.9-8,5.3
	c0,4.4-2.7,5.9-6.7,3.4c-4.4-2.8-5.9-1.1-6.7,3.6c-1.3,6.9-1.7,6.8-7.8,3.3c-1.1-0.7-2.3-1.3-3.3-2.1c-2.8-2-4.5-1.3-5.1,2
	c-1,5.1-3.6,5.5-7.6,3c-0.6-0.4-1.5-0.4-2.1-0.8c-3.7-2.5-5.6-1.3-6.7,2.7c-0.5,1.7-0.7,4.4-2.5,4.7c-2.2,0.4-3.3-2.1-4.3-3.8
	c-2.1-3.6-5-5.6-9.1-6.8C17.9,113.5,15,110,15,104.6z M263,207.7c-0.5-0.6-0.9-1.2-1.4-1.7c-14.9-12.3-26.3-26.2-22.8-47.8
	c-11.8,5.2-20.5,12.8-24.6,24.7c-3.9,11.1-12,16.1-22.9,18.2c-8.6,1.7-17.3,0.5-25.9,1.1c0.2,0.7,0.5,1.4,0.7,2.1
	c6.9,3.1,12.5,8.3,19.3,11.5c14.1,6.5,28.6,7.2,43.5,3.3C240.3,215.3,251.6,211.5,263,207.7z M331.8,186.1
	c11.3-8.6,21.7-18.5,34.8-24.8c28.6-13.7,59.4-18.9,90.3-23.8c11.6-1.8,23.3-2.8,34.8-5.6c-1.4-1.8-3.5-1.2-5.3-1.2
	c-11.1,0.2-22.1,0-33.2,0.7c-18.2,1.2-36.1,3.9-53.9,7.6c-27.6,5.7-54.4,14.5-80.4,25.4c-2.9,1.2-4.1,2.6-4,5.7
	c0.2,6.4,0,12.7-0.8,19.1c-0.4,3.3-2.2,6.9-0.2,10.4C319.9,195.3,325.8,190.7,331.8,186.1z"/>
<path style="fill:#F9F8F8;" d="M96.5,76c-7.3-0.1-11-4.2-11.4-10.2c-0.3-5.9,3.7-9.9,9.5-10.3c6.3-0.4,10.7,3.2,11.2,9.6
	C106.4,71.7,102.2,75,96.5,76z"/>
<path style="fill:#050505;" d="M94.3,75c-5.9-0.1-8.9-3.4-9.1-8.2c-0.3-4.7,2.9-7.9,7.6-8.3c5.1-0.4,8.6,2.6,9,7.7
	C102.3,71.6,98.8,74.2,94.3,75z"/>
</svg>
