<?xml version="1.0" encoding="utf-8"?>
<!-- Generator: Adobe Illustrator 23.0.3, SVG Export Plug-In . SVG Version: 6.00 Build 0)  -->
<svg version="1.0" id="Layer_1" xmlns="http://www.w3.org/2000/svg" xmlns:xlink="http://www.w3.org/1999/xlink" x="0px" y="0px"
	 viewBox="0 0 591.4 591.4" style="enable-background:new 0 0 591.4 591.4;" xml:space="preserve">
<path style="fill:#F49902;" d="M236.6,349.2c-0.1-6.1-0.3-12.2-0.4-18.4c0.1-0.3,0.2-0.5,0.3-0.8c8-10.6,19.6-14.2,31.9-16.4
	c5.1-0.9,10.2-1,15.9,1.9c-9-12.1-26.7-15.6-38.1-8.4c-3.9,2.5-8.1,4.4-12,6.9c-9.9-1.3-18.9-5.8-28.2-9c-3.2-1.1-6.4-2.4-9.7-3.6
	c-6.2-2.3-11.2-0.6-14.9,4.9c-1.5,2.2-2.7,4.6-4.7,6.4c-0.4,5.5-2.9,9.3-8.2,11.8c-6.2,2.8-10.9,7.8-14.8,13.4
	c-5.6,8.2-5.1,14.5,1.7,21.7c1.1,1.2,2.4,2.2,4.2,3.8c-6.9,2-11.9-1.3-17.1-3.5c-2.6,7.9,3.4,9.6,8.2,12c-1.1,1.8-2.9,2.2-4.4,2.8
	c-15,6.3-22.7,1.5-22.3-14.8c0.1-5.3-1.2-7.7-6.3-8.2c-1.3-0.1-2.5-1-3.8-1.2c-1.6-0.3-3.1-3.5-4.8-0.8c-1.2,1.8-0.4,4,0.9,5.9
	c1.8,2.7,5.1,3,7.8,5c-5.5,3.6-11.2,5.4-17.5,5c-4.2-0.3-7-2.9-7.7-6.6c-3.1-15.9-3.4-31.3,9.2-44c2.3-2.3,4.5-4.9,7.2-6.6
	c8.7-5.6,11.8-13.4,10.2-23.4c-0.3-1.9,0-3.8,0.1-5.7c1.2-0.5,2.3,0.1,3.1,0.9c6.1,6.1,13.3,10.5,20.7,14.8c1,0.6,1.8,1.4,2.2,2.5
	c0.6,8-4.3,12.7-10.1,16.8c-6,4.2-11.4,9.1-15,15.6c-3.4,6-2.5,10.5,3.3,16.2c1.6-12.8,10-20.8,19-28.4c2.8-2.3,5.4-4.9,7.6-7.8
	c2.1-8.9-0.8-17.4-2.1-26c-0.3-2-2.4-2.9-4.1-3.8c-3.5-2-7.1-3.8-11-5c-8.8-2.9-13.5-9.7-17.1-17.5c-1.4-3-1.1-6.3-0.4-9.5
	c0.9-5.1,0.9-10.5,2.8-15.2c4.8-11.7,2-23.4,1.4-35.1c-0.4-7-1.5-14.1-3.2-21c-1-4.3-3.3-6.9-8.1-6.2c-24.8,3.8-49.8-0.3-74.5,2.4
	c-7.2,0.8-8.5-5.1-11.6-9.1c2.2-1.6,5.1-1.1,8.6-2.8c-2.2-1.3-3.3-3.7-5.4-0.4c-0.8,1.3-1.9,2.3-3.1,3.2c-5.2-4-6.9-8.7-3.3-14.8
	c0.9-1.5,1.3-3.2,1.9-4.8c4.1-11.4,10.6-20,22.9-24.5c17.7-6.6,34.7-15.3,53.3-19.7c10.8-2.6,21.7-2.4,32.4,0.6
	c16,4.5,26.5,18.6,27.6,36.4c0.7,11.1,1.1,22.3,3.5,33.1c2.2,9.9,5,19.5,16.1,23.4c-0.4,9.1,3,18,2.5,27.2c2.7-2.1,3.8-5,4.4-8.4
	c1-6.5,4.2-11.7,9.2-16c5.4,1,10.8,2,16.2,3c-0.3,9.8,4.4,19.4,1.2,29.3c-0.5,1.5-1.2,3.3,0.7,5.8c3.4-6.4,6.4-12.4,8.4-18.9
	c1.5-4.9,2.9-10,6.9-13.6c16.8,2.8,33.5,5.8,50.3,8.3c7.3,1.1,14.8,1.2,22.3,1.8c7.1,7.8,13.9,15.7,14.6,27.1
	c0.2,4.1,1.2,8.3,3.2,13.2c2.5-6.7,3.1-13.1,5.5-18.9c2.8-6.7,0.8-12.7-2.2-18.7c-0.6-1.2-1.1-2.5-0.3-3.8
	c8.8-1.7,17.8-2.9,26.5-5.5c7.4,7.2,9.6,16.1,8.4,26.2c-0.2,2-1.9,5.4,1,5.9c2.6,0.5,3.7-2.8,4.5-5.1c2.8-7.6,1.5-15.5,1.8-23.3
	c0.1-3.4-0.5-7,2.7-9.5c9-3.9,18.2-7,27.8-9.1c0.8,6.4,1.2,12.8,4.4,18.6c0.5,1,0.7,2.1,2.6,3.1c2.9-8.5,4.7-17,6.6-25.5
	c9.9-2.5,20-3.7,30-5.2c1.9,4.7,2.8,9.8,4.5,15.5c2.6-3.2,2.9-6.4,3.8-9.4c0.7-2.3,0.8-5,3.3-6.4c8.1-1,16.2-1.6,24.3,0.1
	c2.5,2.6,0.4,6.3,2.1,9.2c4.3-1.7,5.1-7.2,9.5-8.5c7.8,0.4,15.3,1.9,22.9,3.8c1.6,2-2.4,4.6,0.3,6.1c2.8,1.5,4.8-1.2,6.8-2.8
	c0.7-0.6,1.6-1,2.4-1.4c20.7,4.3,41.8,7.5,61.1,16.6c-0.1,0.7-0.3,1.3-0.4,2c-6.3-0.5-12.7-0.9-19-1.4c-33.9-2.6-67.8-3.1-101.4,3.9
	c-20.3,4.2-38,14.1-55,25.4c-30.3,20.2-57.8,43.8-84.5,68.3c-1.6,1.5-2.8,3.1-3.7,5.1c-6.1,13.2-12.1,26.5-18.3,39.7
	c-4,8.4-3.5,15.6,3.1,22.7c6.1,6.5,10.6,14.4,18.8,19c5,2.8,6.2,8.6,5.4,14.3c-2.5,17.6-4.6,35.4-8,52.8
	c-4,20.9-23.5,36.1-44.6,36.2c-9.2,0-18.4,0-27.6-0.1c-1.2,0-2.9,0.7-3.6-0.9c-0.6-1.4,0.7-2.5,1.4-3.5c2.7-3.7,6.5-5.9,10.5-7.7
	c2.1-0.9,4.3-1.6,6.4-2.5c8.7-3.8,9.2-5.5,3.3-12.6c-2.2-2.7-4-5.6-5.6-8.7c-2.3-4.7-5.9-6.1-11-4.4c-5.1,1.6-9.3,5.1-14.1,7.7
	c2-18.1,14.4-25.3,30.5-18.2c6.8,3,12.4,7.7,17.9,12.4c2.2,1.9,3.6,1.9,5.6-0.4c3.6-3.9,6.7-7.8,5.6-13.7c-0.5-2.6-0.5-5.4,0-8
	c1.9-10.8-2.7-17.6-11.4-23.7c-11.4-8.1-21.8-17.5-32.6-26.5c-5.9-5-8.9-11.4-8-19.3c2.4-5.9,7.8-7.6,13.2-9
	c6.9-1.8,13.6-3.9,19.9-7.4c-0.1-1.1-1.1-1-1.7-0.9c-9.8,2.2-20.4-0.4-29.7,4.7C237.7,349.5,237.1,349.4,236.6,349.2z"/>
<path style="fill:#EE7102;" d="M176.7,312.7c1.1-2.4,2-5,3.4-7.3c3.4-5.9,10-8,16.3-5.7c12.5,4.7,25.1,9.2,37.7,13.8
	c2.9,5.4,4.1,11.1,2.7,17.2c0,0-0.5,0.1-0.5,0.1c-18.2-4.6-36.3-9.3-53.6-16.6C180.7,313.4,178.9,312,176.7,312.7z M119,279.1
	c7.4,7.7,16.6,12.8,25.4,18.5c3.6,2.1,5.8,5.1,5.3,9.5c-0.2,1.5,0.2,3,1.4,4.1c1.8-1.2,1.2-3.1,1.2-4.8c0.1-6.3-2.1-12.5-1.9-18.7
	c0.2-6.3-3.5-8.3-7.7-10.5c-2.7-1.4-5.5-2.7-8.4-3.7c-12.2-4.3-18-13.3-19-25.8C112.7,258.7,113.9,269.1,119,279.1z"/>
<path style="fill:#EE522D;" d="M319.3,210.9c5.1,8.6,7.5,17.2,2.6,27c-2.1,4.1-2.5,9.1-3.6,13.7c-0.3,1.4,0.1,3.6-2,3.5
	c-1.9-0.1-1.7-2.3-2.1-3.7c-1-3.6-2.6-7.4-2.5-11.1c0.3-10.1-6.2-16.8-11.2-24.4c-0.8-1.3-2.1-2.3-2.1-3.9
	C305.4,210.8,312.4,211,319.3,210.9z M345.8,205.4c5.6,9.6,9.3,19.5,6,30.9c-0.5,1.6,0.4,3.5,2.2,4.3c1.8,0.7,2.8-0.8,3.9-1.8
	c4.5-4.3,4.9-10.1,5.3-15.8c0.5-7.8-0.9-15.7,1.1-23.4C357.8,200.6,351.8,203.1,345.8,205.4z M208.8,199.3
	c-0.3,3.4-2.3,6.9-1.1,10.1c2.8,7.6,2.4,14.9,0,22.4c-0.5,1.7-0.7,4.3,1.5,5.1c2.6,1,3-1.8,3.8-3.3c5.5-10.1,8.3-21.2,13-31.6
	C220.4,199.8,214.7,199,208.8,199.3z M236.6,361.8c3.6-3.2,7.3-6.1,12.2-7.3c6.9-1.6,13.8-3.3,19.9-7c1.6-1,5.2,0.5,4.7-2.7
	c-0.3-2.2-3.7-1.2-5.5-2.1c-0.8-0.4-2.2,0.2-3.3,0.4c-4.5,0.7-9,2-13.6,1.5c-5.5-0.7-10.2,1.2-14.3,4.6
	C236.2,353.4,235.8,357.6,236.6,361.8z M176.5,193.5c-2,4-1.8,8.3-0.7,12.4c1.6,6,2.7,11.9,0.3,18.9c3.8-2.5,7.6-4.8,7.8-7.7
	c0.6-8.1,5.2-14.1,8.7-20.8C187.5,193.4,182,193.7,176.5,193.5z M392,190.4c-3,7.9,1.5,14.4,3.8,21.3c0.4,1.2,0.7,3,2.2,3.1
	c2,0.2,2.3-1.9,2.7-3.2c2.1-7.5,4-15.1,6-22.6c0.3-1-0.3-1.8-1.1-2.4C400.7,186.8,396.3,188.5,392,190.4z M435.6,181.3
	c-1.4,5.3,2.5,9.7,2.5,14.8c0,1.4,0.5,2.8,2.2,2.9c1.7,0.1,2.1-1.4,2.4-2.7c1.5-5.1,3-10.2,4.5-15.3
	C443.3,181.1,439.5,181.2,435.6,181.3z M471.5,181.1c0,2.5-0.1,4.9,0,7.4c0.1,1.6-0.9,3.9,1.1,4.5c1.8,0.6,2.9-1.5,3.9-2.8
	c2.3-2.7,4.4-5.6,6.6-8.5C479.4,179.7,475.3,181.4,471.5,181.1z M506,185.6c-0.4,0.9-0.9,1.7-1.3,2.6c-0.6,1.4-3,2.6-1.2,4.4
	c1.6,1.8,4.1,1.5,5.9,0.8c2.7-1,4.6-3.4,6-5.9C512.5,186,509.4,185,506,185.6z M286.3,274.3c1.9,0,3.8,0.1,5.8,0
	c1.3-0.1,3-0.3,3.3-1.8c0.3-1.5-1.3-2.2-2.5-2.8c-2.9-1.5-5.8-3.1-8.7-4.4c-9.9-4.3-19.6-5.5-29.8-0.1c-7.4,3.9-14,8.7-19.9,14.3
	c-4.3,4.1-8.7,8.8-8.4,15.7c0.1,2,0.3,4,2.1,5.1c1.9,1.2,3.2-0.7,4.5-1.7c8.4-6.2,17-12.4,23.2-21.1c3.4-4.8,8-6.5,14.1-5.1
	c5.4,1.2,10.9,1.5,16.4,2.1C286.3,274.5,286.3,274.4,286.3,274.3z M241.7,327.1c9.6-10.5,22.5-11.5,35.5-12.4
	c3.4-0.2,5.9,3.2,9.6,2.9c-8.3-17.7-35.5-22.2-52.8-4c0.9,5.7,1.8,11.5,2.7,17.2C238.4,329.5,240.4,328.6,241.7,327.1z"/>
<path style="fill:#FFFFFF;" d="M107.9,120.8c0.1,6.3-5.6,12.3-11.9,12.4c-5.7,0.1-12.1-5.9-12.2-11.3c-0.1-5.4,6.8-12.5,12.3-12.8
	C101.5,108.9,107.8,115.1,107.9,120.8z"/>
<path style="fill:#F4EFED;" d="M22.1,163.8c1.2-2.6,2.4-5.1,3.7-7.8c2.9,1.6,5.3,3.3,7.3,6.1c-3.8,1.1-7.4,2-11.1,1.6
	C22,163.7,22.1,163.8,22.1,163.8z M44.5,160.3c-5-6.9-5.3-6.8-10.1,2.5C38.3,161.1,41.7,162.1,44.5,160.3z M46.5,160.5
	c3-0.6,5.6-1.1,8.5-1.7C50.3,153.1,49.6,153.3,46.5,160.5z M63.1,156.5c0.1-0.2-0.8-1.8-1.5-2c-3-1-3.3,1.9-6,3.9
	C59.3,158.1,61.5,158.4,63.1,156.5z"/>
<path style="fill:#050505;" d="M100.8,120.9c0.1,4.4-3.9,8.6-8.4,8.7c-4,0.1-8.6-4.1-8.6-7.9c-0.1-3.8,4.8-8.8,8.7-9
	C96.3,112.6,100.7,116.9,100.8,120.9z"/>
</svg>
