<?xml version="1.0" encoding="utf-8"?>
<!-- Generator: Adobe Illustrator 24.0.0, SVG Export Plug-In . SVG Version: 6.00 Build 0)  -->
<svg version="1.1" id="Layer_1" xmlns="http://www.w3.org/2000/svg" xmlns:xlink="http://www.w3.org/1999/xlink" x="0px" y="0px"
	 viewBox="0 0 612 612" style="enable-background:new 0 0 612 612;" xml:space="preserve">
<path style="fill:#050505;" d="M491.7,287.5c23,0,45.9,0,68.7,0c10.5,0,13.3,2.8,13.3,13.4c0,48.5,0,97,0,145.5
	c0,9.8-3,12.8-12.7,12.8c-33.8,0-67.6,0.1-101.3-0.1c-4,0-5.4,1.2-6.2,4.9c-3.2,15.9-6.4,31.9-10.1,47.7c-1,4.1-0.3,4.9,3.8,4.9
	c25-0.2,50.1-0.1,75.1-0.1c10.5,0,13.3,2.8,13.2,13.5c-0.1,7.9,0.7,15.9-0.8,23.8c-4.6,23.2-23.6,39-47.3,39
	c-94.2,0.1-188.4,0-282.6,0c-26.2,0-52.5,0-78.7,0c-27.5,0-48.6-21.1-48.6-48.7c0-5.6,0-11.1,0-16.7c0.1-7.4,3.6-10.9,11-10.9
	c25,0,50.1,0,75.1,0c2.2,0,4.3,0,7,0c-4.7-21.9-9.3-43.3-13.9-64.8c-13.6-63.2-28.6-126.1-40.2-189.7c-8.1-44.8,23.2-80.8,62.4-87.9
	c11.1-2,22.2-1.1,33.3-1.1c69.2-0.1,138.3-0.1,207.5,0c43.6,0,77.2,33.8,77.6,77.3C497.6,263.1,493.4,274.8,491.7,287.5z"/>
<path style="fill:#D3843D;" d="M475.9,268.8c-6.1,28.6-12.1,57.1-18.2,85.5c-11,51.4-22.1,102.7-33,154.1c-1.2,5.8-2.8,8.2-9.6,8.2
	c-73.1-0.3-146.2-0.2-219.4-0.2c-3.3,0-5.6,0.2-6.5-4.4c-17.1-80.9-34.5-161.7-51.8-242.6c0-0.2,0-0.4,0.1-1.2c1.9,0,3.8,0,5.7,0
	c52.5,0,104.9,0.1,157.4-0.1c5.1,0,6.2,1.3,6.1,6.2c-0.3,16.9-0.2,33.8-0.1,50.7c0.1,21.8,16.9,38.7,38.4,38.7
	c21.1-0.1,37.8-17,37.9-38.5c0.1-17.5,0.1-35,0-52.5c0-3.1,0.4-4.5,4.1-4.5c29,0.2,58,0.1,87,0.1
	C474.5,268.5,475.1,268.7,475.9,268.8z"/>
<path style="fill:#FFD782;" d="M287.5,211.1c1,0,2,0.1,3,0.1c5.1-0.1,11.6,1.6,15-0.9c3.4-2.4,0.9-9.3,1-14.1c0.1-3,0.8-4.1,4-4.1
	c38.2,0.1,76.3-0.5,114.5,0.3c27.5,0.6,51,24.6,53.3,52c0.4,4.6-1.4,5.1-5.3,5.1c-32-0.1-64-0.1-96-0.1c-10.2,0-13.2,2.9-13.2,13
	c0,20.5,0,40.9,0,61.4c0,12.4-8.1,21.2-19.4,21c-11-0.2-18.8-8.8-18.8-21c0-20.7,0-41.3,0-62c0-9.3-3.1-12.4-12.5-12.4
	c-57.2,0-114.5,0-171.7,0c-7.2,0-7.3-0.1-6.1-7.3c4.9-30,27.9-49.8,58.3-49.9c10.7,0,21.5,0.2,32.2-0.1c3.7-0.1,5.1,1.1,4.6,4.7
	c-0.1,0.4,0,0.8,0,1.2c0.4,4.3-1.9,10.9,1,12.4c4.3,2.2,10.4,0.8,15.7,0.9c2.4,0.1,2.4-1.5,2.4-3.2c0-4.2,0.1-8.4,0-12.5
	c-0.1-2.6,0.9-3.4,3.4-3.4c10.3,0.1,20.7,0.2,31,0c3.4-0.1,3.9,1.5,3.8,4.3C287.4,201.3,287.5,206.3,287.5,211.1
	c-3,2.6-6.7,1.7-10.3,1.8c-6.4,0.2-6.9,0.6-7,6.7c-0.2,8.2,5.2,11.7,13,8.5c2.7-1.1,2.3-3.4,2.5-5.5
	C286.1,218.8,284.8,214.7,287.5,211.1z"/>
<path style="fill:#FDBD40;" d="M307.2,535.6c67.8,0,135.5,0.1,203.3-0.1c5,0,6.2,1.3,6.1,6.2c-0.2,20.6-11.5,32.1-32.1,32.1
	c-118.4,0-236.8,0-355.3,0c-21.4,0-32.5-11.3-32.6-32.8c0-4.6,1.2-5.5,5.6-5.5c44.9,0.2,89.8,0.1,134.7,0.1
	C260.3,535.6,283.8,535.6,307.2,535.6z M524,325.7c8.1,0,11.5,3.4,11.5,11.7c0,24,0,48.1,0,72.1c0,8.2-3.4,11.6-11.6,11.6
	c-15.5,0-31,0-46.5,0c-14.7,0-14.5,0-17.7,14.1c-0.9,3.9-0.3,5.1,3.9,5c28.8-0.2,57.6-0.2,86.4,0c3.7,0,4.6-0.9,4.6-4.6
	c-0.1-41.5-0.2-83.1,0-124.6c0-3.8-1.2-4.6-4.7-4.5c-14.9,0.2-29.8,0-44.7,0.1c-5.9,0.1-13.6-2.6-17.2,1.1c-3.7,3.8-3.3,11.4-4.9,18
	C497.4,325.7,510.7,325.6,524,325.7z"/>
<path style="fill:#FDFDFD;" d="M467,402c3.9-18.5,7.7-36.5,11.5-54.5c0.5-2.2,1.7-2.8,3.8-2.7c10.3,0.1,20.6,0.1,30.9,0
	c2.7,0,3.3,0.9,3.3,3.4c-0.1,16.9-0.1,33.7,0,50.6c0,1.9,0,3.4-2.7,3.3C498.4,401.9,482.9,402,467,402z"/>
<path style="fill:#050505;" d="M296.7,154c-10.6,0-10.6-0.1-8-10.3c1.8-7.1,5.5-13,10.6-18.3c9.8-10.2,9.7-21.8-0.1-32.1
	c-15.8-16.4-15.8-40.4,0-56.7c3.6-3.7,6.3-7.7,7-12.8c0.4-2.7,1.1-3.7,3.9-3.5c4,0.3,8,0.3,11.9,0c3.7-0.3,3.8,1.5,3.5,4.2
	c-1.2,9.1-4.7,17.1-11.1,23.8c-10.7,11.2-10.6,22,0.1,33.4c15.1,16.1,15,39.9-0.3,55.9c-2.9,3.1-6,6.2-6.5,10.4
	c-0.6,5.9-3.8,6.8-8.6,6.1C298.4,153.9,297.5,154,296.7,154z M256.2,497.4c8.1,0,12.3-3.4,12.2-9.7c-0.1-6.2-4.2-9.4-12.5-9.4
	c-9.9,0-19.9-0.1-29.8,0.1c-3.3,0.1-4.9-0.6-5.6-4.3c-2.5-12.6-5.5-25.2-8.2-37.7c-10.3-46.8-20.6-93.6-30.9-140.5
	c-1.4-6.2-6.2-9.5-11.6-8.3c-5.4,1.2-8.5,6.4-7.1,12.5c13.8,62.9,27.7,125.8,41.5,188.6c1.3,6.1,4.5,8.6,11,8.6
	c7.2,0.1,14.3,0,21.5,0C243.1,497.4,249.7,497.4,256.2,497.4z M301.5,497.4c1.6,0,3.2,0.1,4.7,0c6-0.2,9.9-4,9.9-9.5
	c0-5.5-3.9-9.3-9.9-9.5c-3.4-0.1-6.7-0.2-10.1,0c-5.1,0.4-8.7,4.4-8.7,9.5c0,5,3.6,9,8.7,9.5C298,497.5,299.7,497.4,301.5,497.4
	C301.5,497.4,301.5,497.4,301.5,497.4z M287.6,211.2c-2.4,0-4.7,0-7.1,0c-12,0-11.7,0-12.2,11.9c-0.3,6,1.3,7.7,7.4,7.4
	c11.8-0.6,11.8-0.2,11.9-12.2C287.5,215.9,287.5,213.5,287.6,211.2C287.5,211.1,287.6,211.2,287.6,211.2z M335.3,230.3
	c0.2,0,0.4,0,0.6,0c8.9,0,8.9,0,8.9-9.1c0-9.9,0-9.9-9.9-9.9c-9.2,0-9.2,0-9.2,9.4C325.7,230.3,325.7,230.3,335.3,230.3z
	 M370.5,211.1c-5.3-0.2-7.1,1.1-6.9,6.7c0.5,12.5,0.2,12,12.8,12.7c8.8,0.5,6-5.2,6.4-9.4C382.9,211.2,382.9,211.5,370.5,211.1z"/>
</svg>
