<?xml version="1.0" encoding="utf-8"?>
<!-- Generator: Adobe Illustrator 24.0.0, SVG Export Plug-In . SVG Version: 6.00 Build 0)  -->
<svg version="1.1" id="Layer_1" xmlns="http://www.w3.org/2000/svg" xmlns:xlink="http://www.w3.org/1999/xlink" x="0px" y="0px"
	 viewBox="0 0 612 792" style="enable-background:new 0 0 612 792;" xml:space="preserve">
<path style="fill:#0C0C0C;" d="M14.3,488.6c0-3.4,0-6.8,0-10.2c0.6-9.5,5.8-16.1,13.5-21c2.8-1.8,4-4.3,4-7.6c0-35.9,0-71.8,0-107.7
	c0-3.3-1.2-5.8-4-7.6c-7.7-4.9-12.8-11.5-13.5-21c0-3.4,0-6.8,0-10.2c0.9-8.3,5.2-14.6,11.8-19.2c4.4-3.1,5.7-6.9,5.7-12
	c-0.1-34.5-0.1-68.9-0.1-103.4c0-5.8,0.7-11.3,4.1-16.2c4.1-6,9.5-9,16.7-8.9c29.4,0,58.7,0,88.1,0c6.9,0,9,2,10.7,9.2
	c-0.7,9.1-4.3,12.4-14,12.5c-24.1,0.1-48.2,0-72.2,0.1c-1.9,0-3.8,0-5.7,0.1c-3,0-4.5,1.5-4.5,4.5c0,1.3,0,2.7,0,4
	c0,31.6,0,63.3,0,94.9c0,2.7-1.2,6.4,1.7,7.9c3.6,1.8,7.8,1.4,11.7,0.3c2.8-0.8,2.2-3.7,2.2-5.9c0.1-15.2,0.2-30.3,0-45.5
	c-0.1-13.7,4.7-25.1,15.1-34.1c12-10.4,25.3-13.6,40.1-7.2c15.3,6.6,25,17.9,25.8,35c0.7,16.6,0.1,33.3,0.2,50
	c0,2.7-1.3,6.4,2.1,7.6c4.1,1.4,8.7,1.4,12.8-0.2c2.5-1,1.7-4,1.7-6.2c0.1-15.7,0.5-31.5-0.1-47.2c-0.7-18.9,12.3-35.1,30.2-40.8
	c21.9-7,42,9.7,48,25.6c2,5.4,3.1,10.9,3.1,16.7c-0.1,15.2-0.1,30.3,0,45.5c0,2.5-1,5.9,2.6,6.7c3.8,0.8,8.1,1.5,11.6-0.7
	c2-1.3,1.3-4.2,1.3-6.4c0.1-15.9,0-31.8,0-47.8c0-13.5,5.9-24.2,16.3-32.3c12.6-9.8,26.5-12.1,41-4.7c14.7,7.5,23.1,19.6,23.6,36.2
	c0.5,16.3,0.1,32.6,0.1,48.9c0,6.7,0.5,7.2,7,7.2c8.9,0.1,17.8,0.1,26.7,0c5.5-0.1,5.9-0.6,4.2-5.5c-12-33.7-24.3-67.4-36-101.2
	c-1.8-5.2-5.4-5.6-9.8-5.5c-37.2,0-74.3,0-111.5,0c-2.5,0-4.9,0.1-7.4-0.1c-8-0.5-11.4-3.8-12.2-12c1.4-7.4,3.6-9.6,10.8-9.6
	c43.2,0,86.5,0,129.7,0c10.9,0,17.1,6,20.6,15.6c4.6,12.7,9.1,25.3,13.6,38c8.7,24.4,17.5,48.9,26.1,73.4c1.9,5.4,4.9,7.2,10.5,7.1
	c47.8-0.2,95.6-0.1,143.3-0.1c10.5,0,19.4,2.9,27.4,10.2c10.9,9.9,12,34.7-3.1,44.6c-5.5,3.6-7,8-6.9,14.2
	c0.2,33.4,0.2,66.7,0,100.1c0,5.4,1.3,9.2,6.2,12.3c15.9,10.1,16.2,36.6,1.9,46.6c-6.9,4.8-8.2,10.7-8.1,18.4
	c0.3,31.1,0.1,62.2,0.1,93.2c0,8.4,0,8.4,8.2,9.7c8.2,1.4,12.1,8.4,9,16.1c-1.2,3.1-4.1,3.6-6.6,4.8c-189.6,0-379.2,0-568.8,0
	c-3.7-0.8-6-3.1-6.8-6.8c0-1.9,0-3.8,0-5.7c1.1-6.1,5.4-8.5,10.9-8.5c5.4,0,6.6-2.6,6.6-7.4c-0.1-33.8-0.1-67.6,0-101.5
	c0-4.1-1.2-7.2-4.7-9.6C20.2,503.6,15.3,497.3,14.3,488.6z"/>
<path style="fill:#ECECEC;" d="M14.3,641c1.7,2.9,4,5.1,6.8,6.8C15.3,649.1,13.1,646.8,14.3,641z"/>
<path style="fill:#FFB74D;" d="M305.8,338.2c81.9,0,163.8,0,245.7-0.1c4.9,0,6.8,0.9,6.7,6.4c-0.3,34.5-0.2,69-0.1,103.4
	c0,4.4-1,5.8-5.6,5.8c-13.9-0.2-13.9,0-13.9-13.9c0-14.2,0.1-28.4,0-42.6c-0.1-21.3-18.6-40.3-39.2-40.1
	c-20.5,0.2-38.3,18.6-38.4,40.1c-0.1,17.1-0.2,34.1,0.1,51.2c0.1,4.3-1.2,5.4-5.5,5.4c-14.3-0.1-14.3,0.1-14.3-14.1
	c0-14.2,0.1-28.4,0-42.6c-0.2-21.5-18.1-39.9-38.5-39.9c-20.6,0-38.9,18.9-39,40.2c-0.1,17.1-0.1,34.1,0.1,51.2c0,3.8-0.8,5.3-5,5.3
	c-14.5,0-14.5,0.2-14.5-14.4c0-14.4,0.1-28.8,0-43.2c-0.2-20.6-18.9-39.3-39-39c-20.1,0.2-38.3,18.6-38.5,38.9
	c-0.1,17.4-0.2,34.9,0.1,52.3c0.1,4.2-1.1,5.5-5.4,5.4c-14.1-0.1-14.1,0.1-14.1-14.2c0-14,0.1-28,0-42.1
	c-0.1-21.4-18.4-40.3-38.9-40.4c-20.5,0-38.5,18.5-38.6,39.8c-0.1,17.1-0.1,34.1,0,51.2c0,3.9-0.6,5.7-5.2,5.7
	c-14.6-0.1-14.6,0.1-14.6-14.4c0-14.2,0.1-28.4,0-42.6c-0.2-21.3-18.5-39.9-38.9-39.6c-20.5,0.3-38.6,18.9-38.7,40
	c-0.1,17.2-0.1,34.5,0,51.7c0,3.6-0.9,4.9-4.7,4.9c-14.7,0.2-14.7,0.3-14.7-14.2c0-31.6,0.1-63.3-0.1-94.9c0-5.3,1.4-6.6,6.6-6.5
	C141.6,338.3,223.7,338.2,305.8,338.2z M59.4,512.3c-5.3,0-6.5,1.6-6.5,6.6c0.2,31.6,0.1,63.3,0.1,94.9c0,14.9,0,14.7,14.8,14.7
	c3.8,0,4.7-1.3,4.7-4.9c-0.2-17.2-0.1-34.5-0.1-51.7c0.1-21.7,17.9-40.2,38.8-40.2c20.8,0,38.5,18,38.8,39.5c0.1,14.2,0,28.4,0,42.6
	c0,14.9,0,14.7,14.8,14.7c4.1,0,5-1.4,5-5.2c-0.2-17.1-0.1-34.1-0.1-51.2c0-3.6,0.1-7.2,1-10.7c5.2-18.8,23.8-31.9,42.5-29.6
	c18.4,2.3,34,20.3,34.1,39.7c0.1,14.2,0,28.4,0,42.6c0,14.5,0,14.3,14.5,14.4c4.1,0,5-1.3,5-5.2c-0.2-17.4-0.2-34.9-0.1-52.3
	c0.1-21.4,18.1-39.4,38.9-39.4c20.4,0,38.4,18.2,38.5,39.2c0.1,14.4,0,28.8,0,43.2c0,14.5,0,14.4,14.4,14.4c4,0,5.1-1,5.1-5.1
	c-0.2-17.2-0.1-34.5-0.1-51.7c0.1-21.4,17.9-39.9,38.4-40.1c21.1-0.1,39,17.9,39.1,39.7c0.1,14.2,0,28.4,0,42.6
	c0,14.5,0,14.4,14.4,14.5c4.3,0,5.5-1.1,5.4-5.4c-0.2-17-0.1-34.1-0.1-51.2c0-3.8,0.1-7.5,1.2-11.2c5.6-18.6,24.2-31.3,42.4-28.9
	c18.5,2.5,33.8,20.4,33.9,39.8c0.1,14.4,0,28.8,0,43.2c0,13.6,0,13.4,13.5,13.6c4.7,0.1,6-1.1,6-5.9c-0.2-34.5-0.2-69,0-103.4
	c0-5.5-1.3-6.8-6.8-6.8c-81.9,0.2-163.8,0.1-245.7,0.1C223.6,512.5,141.5,512.5,59.4,512.3z M189.5,153.8c6.3-0.1,12.6-0.1,18.8-0.2
	c1.8,7.6,4.5,9.8,12.2,9.8c40.4,0,80.7,0.1,121.1-0.1c4.3,0,6.1,1.1,7.6,5.3c12.5,35.5,25.3,70.9,38,106.3c0.4,1.2,0.8,2.5,1.3,4.5
	c-14.1,0-27.8,0-41.5,0c-4,0-2.7-3-2.7-4.9c-0.1-17.4,0-34.9-0.1-52.3c-0.1-17.6-13.1-34-30.1-38.3c-22.2-5.6-46.9,13.1-47.3,36.1
	c-0.3,18-0.2,36,0,54c0,4-0.7,5.6-5.2,5.5c-14.3-0.1-14.3,0.1-14.3-14c0-14.2,0.1-28.4,0-42.6c-0.1-21.4-18.5-40.2-39.1-40.2
	c-20.4,0-38.4,18.6-38.5,39.9c-0.1,17.2-0.1,34.5,0.1,51.7c0,4-1.1,5.1-5.1,5.1c-14.7,0-14.7,0.1-14.7-14.8c0-14,0.1-28,0-42.1
	c-0.2-21.4-18.2-39.9-38.6-39.9c-20.6,0-38.9,18.8-39,40.2c-0.1,17.2-0.1,34.5,0.1,51.7c0,3.6-0.9,4.8-4.7,4.8
	c-14.8,0-14.8,0.2-14.8-14.6c0-31.8,0.1-63.7-0.1-95.5c0-5.2,1.5-6.2,6.3-6.1c26.2,0.2,52.3,0.1,78.5,0.1c8.2,0,10.7-2,12.7-9.8
	c6.5,0.2,12.9,0.8,19.3-0.7c1.9,0.4,1.7,2.2,2.3,3.5c3,6.3,9.6,7.1,13.9,1.6C187.1,156.6,187.6,154.6,189.5,153.8z"/>
<path style="fill:#664B33;" d="M304.9,318.1c-87,0-174,0-260.9,0c-7.5,0-10.6-3.1-10.2-10.2c0.3-6.2,3.2-8.7,10.1-8.6
	c30.7,0.1,61.4,0.2,92.1,0.2c63.3,0,126.6,0.1,189.9,0c79.8-0.1,159.5-0.4,239.3-0.5c9.2,0,12.5,2.8,12.2,10.2
	c-0.2,6.2-2.9,8.9-9.2,8.9c-16.9,0.1-33.7,0-50.6,0C446.7,318.1,375.8,318.1,304.9,318.1z M566.6,492.5c8.3,0,11.8-3.7,10.7-11.4
	c-0.8-5.6-3.4-7.3-11.3-7.3c-149.4,0-298.8,0.1-448.2,0.1c-24.8,0-49.7,0-74.5-0.1c-5.1,0-8.4,1.7-9.4,6.9
	c-1.5,7.8,2.2,11.9,10.6,11.9c87,0,174,0,261.1,0S479.6,492.5,566.6,492.5z M324.9,570c-0.1-12-7.2-18.9-19.2-19
	c-12-0.1-19.4,6.8-19.5,18.7c-0.1,18.1,0.1,36.3-0.1,54.4c0,3.7,1.2,4.4,4.5,4.3c9.8-0.2,19.7-0.3,29.5,0c4.2,0.1,5-1.4,4.9-5.2
	c-0.3-8.9-0.1-17.8-0.1-26.7C324.9,587.8,325,578.9,324.9,570z M189.2,624.4c0,2.3,0.1,4,3.2,4c10.8-0.1,21.6-0.1,32.4,0
	c2.5,0,3.3-0.9,3.3-3.3c-0.1-18.7,0.3-37.5-0.2-56.2c-0.3-11.9-8.1-18.1-20.4-17.8c-11.2,0.3-17.9,7.1-18.2,18.9
	c-0.2,8.7,0,17.4,0,26.1C189.2,605.5,189.2,615,189.2,624.4z M130.7,596.1c0-9.1,0.1-18.2,0-27.3c-0.1-7.2-3.1-12.9-9.8-16
	c-14.3-6.7-28.6,1.9-28.9,17.6c-0.3,17.8,0,35.6-0.1,53.4c0,3.3,0.7,4.7,4.4,4.6c10-0.3,20.1-0.2,30.1,0c3.5,0.1,4.5-1,4.5-4.5
	C130.6,614.7,130.7,605.4,130.7,596.1C130.7,596.1,130.7,596.1,130.7,596.1z M383.1,597.2c0,8.9,0.1,17.8-0.1,26.7
	c-0.1,3.4,0.8,4.6,4.4,4.6c10-0.2,20.1-0.3,30.1,0c3.6,0.1,4.4-1.2,4.4-4.5c-0.1-17.8,0-35.6-0.1-53.4c-0.1-12.4-6.9-19.3-18.7-19.4
	c-12.7-0.1-19.7,6.7-20,19.5C383,579.4,383.2,588.3,383.1,597.2C383.1,597.2,383.1,597.2,383.1,597.2z M519.2,596.8
	c0-9.1,0.2-18.2-0.1-27.3c-0.4-12-7.7-18.6-19.8-18.5c-11.7,0.1-18.7,6.8-18.8,18.8c-0.2,18.2,0,36.4-0.1,54.5
	c0,3.3,1.1,4.2,4.3,4.1c10-0.2,20.1-0.3,30.1,0c4,0.1,4.6-1.5,4.6-5C519.1,614.6,519.2,605.7,519.2,596.8
	C519.2,596.8,519.2,596.8,519.2,596.8z M189.2,247.4c0,9.3,0.1,18.5-0.1,27.8c-0.1,3,0.5,4.4,3.9,4.3c10.4-0.2,20.8-0.2,31.2,0
	c3.1,0,3.8-1,3.8-3.9c-0.1-18.2,0.1-36.3-0.1-54.5c-0.2-11.9-7.8-19-19.5-18.9c-11.9,0.1-18.9,6.9-19.1,19.1
	C189,230,189.2,238.7,189.2,247.4C189.2,247.4,189.2,247.4,189.2,247.4z M324.9,248c0-9.3,0.2-18.5,0-27.8c-0.2-11-7.8-17.9-19.2-18
	c-11.4,0-19.3,6.9-19.4,17.7c-0.2,18.5,0,37.1-0.1,55.6c0,2.8,0.5,4,3.7,3.9c10.4-0.2,20.8-0.2,31.2,0c3.5,0.1,4-1.3,3.9-4.3
	C324.8,266.1,324.9,257,324.9,248C324.9,248,324.9,248,324.9,248z M130.7,247.7c0-8.9,0.2-17.8,0-26.7c-0.3-12-7.4-18.9-19.4-18.9
	c-11.5,0-19.1,6.9-19.3,18.5c-0.3,18.3,0,36.7-0.2,55c0,3.1,1.1,3.8,4,3.7c10.4-0.1,20.8-0.2,31.2,0c3.1,0.1,3.8-1.1,3.8-3.9
	C130.6,266.3,130.7,257,130.7,247.7C130.7,247.7,130.7,247.7,130.7,247.7z M286.2,422.1c0,8.7,0.2,17.4-0.1,26.1
	c-0.1,4,0.5,5.7,5.1,5.5c9.6-0.4,19.3-0.3,29-0.1c3.5,0.1,4.9-0.6,4.8-4.6c-0.2-17.8,0-35.6-0.1-53.4c-0.1-11.9-7.4-19-19.2-19.1
	c-12,0-19.3,6.9-19.4,18.8C286.1,404.3,286.2,413.2,286.2,422.1C286.2,422.1,286.2,422.1,286.2,422.1z M130.7,421.7
	c0-8.7,0.2-17.4,0-26.1c-0.3-12.2-7.3-19-19.2-19.1c-11.8-0.1-19.3,6.9-19.5,18.9c-0.3,18,0,35.9-0.1,53.9c0,3.1,0.8,4.3,4.1,4.3
	c10.2-0.2,20.4-0.2,30.6,0c3.9,0.1,4.2-1.5,4.2-4.7C130.6,439.9,130.7,430.8,130.7,421.7C130.7,421.7,130.7,421.7,130.7,421.7z
	 M421.9,422.1c0-8.5,0.1-17,0-25.5c-0.2-12.9-7.1-20-19.4-20c-12.1,0.1-19.3,7.4-19.3,20.3c-0.1,17.2,0.1,34.4-0.2,51.6
	c-0.1,4.5,1.5,5.3,5.5,5.2c9.5-0.3,18.9-0.4,28.4,0c4.6,0.2,5.3-1.5,5.1-5.5C421.7,439.5,421.9,430.8,421.9,422.1
	C421.9,422.1,421.9,422.1,421.9,422.1z M189.1,449c-0.1,3.2,0.4,4.7,4.2,4.6c10.2-0.3,20.4-0.2,30.6,0c2.7,0,4.1-0.5,4.1-3.7
	c-0.1-18.3,0.2-36.7-0.2-55c-0.3-11.8-8.3-18.6-20.1-18.3c-11.6,0.4-18.4,7.2-18.6,19.1c-0.2,8.7,0,17.4,0,26.1
	C189.2,430.8,189.3,439.9,189.1,449z M480.4,449.5c0,2.6,0.3,4.2,3.6,4.1c10.6-0.2,21.2-0.1,31.8,0c2.8,0,3.5-1,3.5-3.7
	c-0.1-18.3,0.2-36.7-0.2-55c-0.3-11.9-8.2-18.7-20-18.3c-11.6,0.3-18.4,7.1-18.6,19c-0.2,8.7,0,17.4,0,26.1
	C480.4,430.9,480.4,440.2,480.4,449.5z"/>
<path style="fill:#0E0D0D;" d="M189.5,153.8c-1.2,4.3-3,8.1-7.8,9.4c-5.6,1.5-12.6-2.8-12-10.3c0.8-5.3,3.9-8.5,9.3-8.7
	C185.5,143.9,188.1,148.3,189.5,153.8z"/>
</svg>
