<?xml version="1.0" encoding="utf-8"?>
<!-- Generator: Adobe Illustrator 24.0.0, SVG Export Plug-In . SVG Version: 6.00 Build 0)  -->
<svg version="1.1" id="Layer_1" xmlns="http://www.w3.org/2000/svg" xmlns:xlink="http://www.w3.org/1999/xlink" x="0px" y="0px"
	 viewBox="0 0 612 612" style="enable-background:new 0 0 612 612;" xml:space="preserve">
<path style="fill:#050505;" d="M421.2,178.9c12.3-12.4,24.2-24.4,36.2-36.2c2.4-2.3,2-3.6-0.2-5.6c-3.5-3.2-6.9-6.6-10.2-10.1
	c-5.2-5.4-5.3-9.8-0.2-15c14.3-14.4,28.5-28.9,43.1-43c14.7-14.2,39.9-13.5,54.1,1c14.8,15.1,14.6,38.4-0.4,53.5
	c-14.7,14.8-29.5,29.6-44.2,44.4c-4,4-7.9,3.1-11.6-0.3c-4-3.6-7.8-7.4-11.4-11.4c-2.4-2.6-3.9-3.3-6.9-0.3
	c-12.9,13.3-26,26.3-39.3,39.2c-2.5,2.5-2.8,4.5-1.8,7.8c11.6,39,16.6,78.9,14.6,119.4c-3.4,68.1-24.1,130.6-62.5,187.2
	c-19.2,28.3-43.3,52.3-67.5,76.2c-5,4.9-9.4,4.9-14.1,0.4c-32.6-31.4-63.2-64.5-84.9-104.7c-8.3-15.4-15.7-31.1-21.9-47.5
	c-2.1-0.1-2.7,1.6-3.8,2.6c-11.3,11.2-22.5,22.5-33.9,33.6c-2.5,2.4-2.5,3.8,0,6c4,3.6,7.7,7.5,11.4,11.4c5.1,5.3,5.1,9.7-0.2,15
	c-13.7,13.8-27.4,27.7-41.4,41.3c-13.9,13.5-36.9,15.2-51.6,4.1c-15.6-11.7-20.6-32.5-12-48.9c1.8-3.4,4.1-6.3,6.8-9
	c14-13.9,27.9-27.8,41.8-41.7c6.6-6.6,10.6-6.6,17.2-0.1c3.2,3.2,6.5,6.4,9.7,9.7c1.7,1.8,2.9,1.8,4.7,0c13.9-14,27.7-28,41.9-41.7
	c3.3-3.2,1.3-5.9,0.5-8.7c-10.3-35.6-14.8-71.9-14-108.8c1.6-73.7,23.8-140.7,66.1-201c18.5-26.4,41-49.1,63.9-71.5
	c4.4-4.3,9.5-4,14.2,0.5c45.8,42.6,83.8,90.7,105.8,150C420,177.4,420.5,177.8,421.2,178.9z"/>
<path style="fill:#B1BF00;" d="M425.2,318.5c-3.1,72.2-25.9,137.5-69.4,195.5c-14,18.7-30.4,35.1-46.9,51.6
	c-2.1,2.1-3.4,2.3-5.7,0.1c-37.9-35.6-69.6-75.7-89.8-124.1c-2.4-5.7-4.4-11.5-6.8-17.1c-1.3-3-0.9-5,1.5-7.3
	c10.7-10.4,21.2-21,31.7-31.6c1.5-1.5,2.8-3.6,4.7,0c5.3,10.1,13.4,17.6,22.2,24.6c0,0,0,0,0,0c13.8,8.2,28.6,12.2,44.9,11.3
	c30.8-1.8,58.6-26.1,63.8-56.5c0.8-4.7,1.2-9.4,1.2-14.2c-0.1-30.8,0.3-61.5-0.2-92.3c-0.1-7.9,2.3-13.2,8.6-17.4
	c9.2-8.7,18.4-17.5,27.7-26.3c3.2,8.4,4.9,17.9,6.6,27.3C424,267.4,426.3,292.8,425.2,318.5z M226.9,372.8
	c6.3-5.8,9.1-11.6,8.9-20.8c-0.9-34.2-0.4-68.4-0.3-102.5c0.1-41.6,41-75.2,82.1-67.7c19.6,3.6,34.8,14,46.8,29.4
	c2.5,2.7,4.6,5.7,7,8.6c1.3,1.5,2.2,3.9,5,3.2c8.6-8.5,17.1-17.2,26-25.4c3.3-3.1,3.5-5.6,2-9.7c-20-55-53.4-100.8-95.7-140.6
	c-2.5-2.4-3.8-1.6-5.7,0.4c-5,5.2-10.1,10.1-15.2,15.2c-33.8,33.9-60,72.9-77.6,117.5c-24,60.6-29.7,123.1-18.8,187.1
	c1.8,10.8,3.8,21.6,7.9,32.6C208.9,390.7,217.6,381.4,226.9,372.8z"/>
<path style="fill:#E1314C;" d="M516,75.1c9,0.2,15.6,4.5,19.1,12.7c3.4,7.7,2.4,15.4-3.5,21.6c-11.8,12.3-24.1,24.2-36.1,36.4
	c-2.2,2.3-3.4,1.5-5.2-0.3c-7.9-8.1-15.9-16.1-24.1-24c-2.3-2.2-2-3.5,0.1-5.6c11.8-11.5,23.4-23.2,35.1-34.9
	C505.5,77.1,510.3,75,516,75.1z M108.8,532.6c12-11.9,23.9-23.8,35.9-35.7c1.7-1.7,2.3-2.7,0.2-4.7c-8.4-8.2-16.7-16.5-24.9-24.8
	c-1.8-1.9-2.9-1.8-4.7,0c-12,12.1-24.3,24-36.1,36.3c-5.9,6.1-6.9,13.8-3.6,21.6c3.5,8.2,10,12.5,19.1,12.8
	C100.2,538.2,105,536.4,108.8,532.6z"/>
<path style="fill:#6EE5D9;" d="M358.7,352.7c0.2,27.1-20.7,51.8-52.6,52.7c-20.8,0.6-41.1-13.3-49-32.8c-0.8-2-1.2-3.5,0.6-5.3
	c33.3-33,66.5-66.2,100.6-100.2c0.1,2.5,0.2,3.8,0.2,5.1C358.7,299.1,358.5,325.9,358.7,352.7z M267.5,331.6
	C267.5,331.6,267.5,331.6,267.5,331.6C267.5,331.6,267.5,331.6,267.5,331.6c0.9-0.7,2-1.3,2.8-2.2c28.4-28.3,56.7-56.6,85.1-84.8
	c1.8-1.7,2.4-3.7,1.7-5.9c-2.5-7.5-5.4-14.9-11.5-20.4c-12.2-14.7-27.8-19.8-46.5-17.9c-24.6,2.6-45.5,24.6-45.7,49.2
	c-0.2,30.8-0.1,61.6,0,92.4c0,1-0.6,2.4,1.3,3.3C258.8,340.6,264,336.9,267.5,331.6z"/>
<path style="fill:#FDFDFD;" d="M239.9,187.3c-6.8-0.2-10.4-6.3-7.8-12.5c8-19.1,18.5-36.8,30-53.9c1.8-2.6,3.6-5.2,5.3-7.9
	c3.1-4.6,9.1-6.2,12.8-3.5c3.7,2.7,4.5,8.3,1.2,12.8c-7.1,9.6-13.6,19.5-19.6,29.8c-5.5,9.6-10.7,19.4-15,29.7
	C245.6,185.4,243.1,187.2,239.9,187.3z M293.2,100.5c3.3,1.8,6.2,0.8,8.7-1.4c4-3.5,8-7,11.9-10.7c3.9-3.8,4.1-9,0.6-12.7
	c-3.5-3.7-8.8-4.1-12.7-0.5c-3.8,3.5-7.3,7.2-11,10.9c-1.7,1.8-2.7,3.9-2.6,7.1C288.4,96,289.9,98.8,293.2,100.5z"/>
</svg>
