<?xml version="1.0" encoding="utf-8"?>
<!-- Generator: Adobe Illustrator 24.0.0, SVG Export Plug-In . SVG Version: 6.00 Build 0)  -->
<svg version="1.1" id="Layer_1" xmlns="http://www.w3.org/2000/svg" xmlns:xlink="http://www.w3.org/1999/xlink" x="0px" y="0px"
	 viewBox="0 0 604.7 604.7" style="enable-background:new 0 0 604.7 604.7;" xml:space="preserve">
<path d="M53.2,604.6c-5.4-3-6.8-7.7-6.8-13.7c0.1-177.5,0.1-355,0.2-532.5c0-4.7-1-7.6-5.3-10.3c-9.4-6-13-18.1-9.6-28.6
	C35.1,8.5,45,1.3,56.4,1.3c11.1,0.1,21,7.3,24.4,17.9c3.5,10.8-0.2,23-9.9,29c-4.2,2.6-5.5,5.3-5,9.8c0.5,4.6-2,11.3,1,13.4
	c2.6,1.9,8.8-1.1,13.4-2.2C121,59.8,162.1,54.3,204,55.5c35.9,1,70.8,8.1,105.4,17.1c28.8,7.5,57.6,15.1,87.3,18.7
	c31.2,3.8,62.3,3.1,93.4-1c23-3,45.5-7.9,68-13.7c10.4-2.7,15,0.8,15,11.3c0,63.8,0,127.6,0,191.5c0,46.7,0,93.5,0,140.2
	c0,9.9-1.4,11.6-11.1,14.2c-43.8,11.5-88.2,18.8-133.7,17.6c-37.3-0.9-73.5-8.8-109.4-18.2c-31.1-8.1-62.3-15.8-94.4-18.7
	c-34.4-3-68.6-1-102.6,4.5c-17,2.8-33.8,6.5-50.6,10.4c-4,0.9-5.2,2.5-5.2,6.6c0.2,51.8,0.1,103.7,0.2,155.5c0,5.9-1.7,10.3-7.1,13
	C57.1,604.6,55.1,604.6,53.2,604.6z"/>
<path style="fill:#009146;" d="M215.8,235.2c0,50.7-0.1,101.3,0.1,152c0,5.5-1.4,6.9-6.8,6.7c-46.6-2-92.2,4.6-137.3,15.5
	c-4.7,1.1-5.7,0.3-5.7-4.4c0.1-102.3,0.1-204.6,0-306.9c0-4.1,1.1-5.8,5.1-6.7c28.6-6.7,57.4-12.4,86.7-14.8
	c17.4-1.4,34.8-1.5,52.3-1.1c4.8,0.1,5.8,1.6,5.8,6.1C215.7,132.7,215.8,183.9,215.8,235.2z"/>
<path style="fill:#CD2B37;" d="M553.7,257c0,50.8-0.1,101.7,0.1,152.5c0,5.2-1.6,6.8-6.5,8c-42.5,10.5-85.4,16.1-129.3,14
	C404,430.8,404,431,404,417c0-99.3,0-198.6,0-297.9c0-7.3,0-7.5,7.4-6.9c45.8,3.7,90.7-2.2,135.2-12.7c8.5-2,7.1-2.6,7.1,5.5
	C553.8,155.7,553.7,206.3,553.7,257z"/>
<path style="fill:#FDFDFD;" d="M384.3,427.7c-27.6-4.2-54-11.7-80.6-18.4c-20.9-5.3-41.9-10-63.4-12.6c-4.2-0.5-5.3-1.7-5.3-6
	c0.2-80.7,0.1-161.4,0.1-242.1c0-21.6,0.2-43.2-0.2-64.8c-0.1-5.7,1.7-6.3,6.6-5.6c30.7,4.5,60.5,12.7,90.5,20.3
	c15.4,3.9,30.8,7.6,46.5,9.9c4.4,0.6,5.8,1.9,5.7,6.4c-0.2,44.4-0.1,88.7-0.1,133.1c0,57.9,0,115.8,0,173.7
	C384.3,423.6,384.3,425.5,384.3,427.7z"/>
</svg>
