<?xml version="1.0" encoding="utf-8"?>
<!-- Generator: Adobe Illustrator 24.0.0, SVG Export Plug-In . SVG Version: 6.00 Build 0)  -->
<svg version="1.1" id="Layer_1" xmlns="http://www.w3.org/2000/svg" xmlns:xlink="http://www.w3.org/1999/xlink" x="0px" y="0px"
	 viewBox="0 0 600 600" style="enable-background:new 0 0 600 600;" xml:space="preserve">
<path style="fill:#050505;" d="M175.8,568.4c-2.5,2.6-4.7,5.1-7.1,7.4c-17,16.1-40.1,16-56.9-0.4c-12.1-11.8-18.2-26.6-21.2-42.8
	c-4.3-23.5-2.3-46.2,8.6-67.7c6.6-13.1,15.9-23.4,30.4-28.1c1.6-0.5,3.6-0.8,3.3-3.4c-1.1-10,0-20,0.1-31.4
	c-12.6,16.5-25.5,30.8-41.1,42.5c-7.1,5.3-14.4,10-22.6,13.4c-7.7,3.1-13.3-1-12-9.2c3-19.1,11.5-35.9,22-51.7
	c17-25.6,37.2-48.1,64.9-62.6c1.4-0.8,2.6-1.7,3.1-3.3c2.4-7.2,4.8-14.4,7.7-22.7c-18,13.9-36.1,25.1-56.3,32.6
	c-8.7,3.2-17.6,5.5-26.7,6.9c-4.1,0.6-7.7,0.2-10.2-3.4c-2.4-3.4-1.3-6.8,0.5-10.1c12.9-23.3,32.5-40,54-54.9c2-1.4,4-2.7,7.2-4.9
	c-10-1.2-18.6-2.9-26.6-6.8c-22.9-11-30.8-34-19.1-56.6c9-17.4,23.8-28.5,41.3-36.3c18.2-8.1,37.1-12.3,57.2-9.4
	c19.9,2.9,36.1,11,44,32c7.4-8.1,14.6-15.8,22.4-22.7c2.4-2.1,4.7-4.2,7.2-6.2c8.6-7.1,8.3-6.9,15,1.7c3,3.9,2.4,5.6-1.3,8.4
	c-11.8,8.8-21.9,19.4-31.7,30.3c-1.3,1.5-3.7,2.8-1,5.4c16.2,15.8,27.3,35,36.9,56.1c6.5-11.1,8.3-22.7,8.4-34.6
	c0.2-34,0-68,0.2-102.1c0-4.3-1-6-5.6-5.8c-21.2,1.2-18.9-3-18.8-19c0-6.8,0-13.5,0-20.3c0-6.1,3.4-9.1,9.2-9.3
	c5.9-0.2,11.7-0.2,17.6,0c3.6,0.1,4.4-0.9,3.7-4.6c-3.1-17.3-5.9-34.6-8.6-51.9c-1.4-8.7,1.3-11.7,9.9-11.8c38.1,0,76.2-0.1,114.3,0
	c8.4,0,11.1,3,9.8,11.3C405,39.7,402.2,57,399,74.3c-0.9,4.8,0.7,5.2,4.6,5.1c5.6-0.2,11.3-0.2,16.9,0c6.4,0.2,9.5,3.2,9.6,9.7
	c0.2,9.7,0.2,19.4,0,29.1c-0.1,7-2.9,9.7-9.9,9.9c-14.4,0.4-14.4,0.4-14.4,15c0,7.4,0.2,14.9-0.1,22.3c-0.2,4.1,1.2,5.4,5.3,5.3
	c18.9-0.2,37.9-0.2,56.8-0.1c37.5,0.3,67.7,24.6,73,60.2c4.5,30.1-5.1,56.4-25.3,78.9c-7.5,8.4-15,16.8-22.8,24.9
	c-2.8,2.9-2.5,4.4,0.6,6.5c4.6,3.2,8.9,6.9,13.3,10.4c20.1,15.9,25.4,37.1,22,61.4c-3.5,25.3-6.9,50.7-10.3,76.1
	c-3.2,23.4-6,46.8-9.7,70c-2.8,17.6-17.9,29-37.5,29.1c-51.8,0.1-103.7,0.1-155.5,0.1c-34,0-68.1-0.2-102.1,0.1
	C197.3,588.4,184.1,583.3,175.8,568.4z"/>
<path style="fill:#FEFEFE;" d="M436.8,238.2c8.6,0,17.1,0,25.7,0c6.3,0,10.9,2.8,13.4,8.5c2.4,5.6,1.5,11.1-2.7,15.7
	c-10.2,11.4-20.5,22.7-30.8,34c-1.2,1.4-2.2,3.2-4.8,1.3c-18.4-13.8-29.5-31.7-31.4-54.9c-0.3-3.6,0.8-4.7,4.4-4.6
	C419.2,238.3,428,238.2,436.8,238.2L436.8,238.2z"/>
<path style="fill:#FEEB4C;" d="M512.9,407.3c-6.5,48.6-13.2,97.1-19.9,145.6c-1.8,12.9-8.3,18.5-21.3,18.5
	c-26.8,0-53.6-0.2-80.4-0.3l0,0l0,0c-33.7,0.5-67.5,0.6-101.2-0.1l0,0l0,0c-28.1,0.1-56.2,0.3-84.3,0.2c-6.1,0-10.8-3.3-13.9-8.3
	c-3.9-6.3-5.1-13.6-3.6-20.7c5.5-25.9,5.6-36.1-0.5-63.3c4.3,3.8,8.1,7.3,12.1,10.7c2.7,2.3,5.6,3.8,9.3,2.1
	c3.7-1.7,4.9-4.8,5.2-8.7c1.5-22.5-3.9-43.7-11.7-64.5c-0.6-1.7-1.2-3.4-1.8-5c-0.1-0.2,0.1-0.4,0.2-0.9c4.3,1.6,8.4,3.6,12.8,4.9
	c19,5.7,36.9-1.6,46.5-18.9c3.5-6.4,6.1-13.2,6.5-20.4c0.3-5.4,2.4-7.1,7.4-6.5c3.1,0.4,6.2,0.5,9.4,0.7l0,0l0,0
	c15-1.4,30.1-0.6,45.1-0.6c23.2,0.1,46.4-0.8,69.5,0.5l0,0c34.2-0.1,68.4-0.2,102.6-0.4c3.3,0,4.8,1.8,6.2,4.2
	C512.8,385.7,514.3,396.3,512.9,407.3z M408,111.7c6.3,0.1,6.4-3.1,6.1-7.5c-0.3-4.2,1.6-9.4-6.1-9c-11.4,0.6-22.9,1-34.4,1
	c-33.1,0-66.1,0.7-99.2-1c-7.4-0.4-6.4,4-6.4,8.5c-0.1,4.5-0.5,8.1,6.3,8c22.3-0.4,44.6-0.2,66.9-0.2
	C363.5,111.6,385.8,111.4,408,111.7z"/>
<path style="fill:#C94311;" d="M446.2,187.1c10.7,0.9,23.8-1.5,36.7,1.4c25.1,5.6,42.7,30.3,42.6,53.3c-0.1,23.2-8.2,42.4-23.8,59
	c-7.1,7.5-13.9,15.3-20.6,23.2c-2.7,3.2-4.8,4.6-8.6,0.9c-4.5-4.3-9.9-7.7-15-11.5c-3.4-2.5-4.8-4.5-1-8.4
	c9.2-9.5,17.9-19.6,26.9-29.4c17.1-18.7,10.6-46.1-12.5-52.6c-3.1-0.9-6.3-0.7-9.4-0.7c-16.5-0.1-32.9-0.2-49.4,0.1
	c-4.8,0.1-6.3-1.5-6.1-6.2c0.3-7.9,0.3-15.8,0-23.7c-0.1-4.1,1.2-5.6,5.4-5.5C422.3,187.2,433.1,187.1,446.2,187.1z M385.8,27.3
	c-8.5,0.3-17,0.2-25.5,0.3l0,0l0,0c-12.6,0-25.2,0-37.8,0l0,0l0,0c-8.5-0.1-17.1,0-25.6-0.4c-5-0.2-6.1,1.4-5.2,6.2
	c2.4,12.8,4.7,25.6,6.4,38.5c0.8,5.8,3,8.1,9,7.4c6-0.6,12.1-0.3,18.2-0.4l0,0l0,0c10.8,0,21.6,0,32.4,0c6.5,0.1,13,0,19.5,0.3
	c3.8,0.2,5.1-1.5,5.6-4.8c2.3-14.1,4.7-28.2,7.2-42.4C390.4,28.8,389.6,27.2,385.8,27.3z"/>
<path style="fill:#63C214;" d="M88.8,229.2L88.8,229.2L88.8,229.2c0.8-7.4,4.1-13.9,9-19.1c23.3-24.4,51.6-33.8,84.8-26.7
	c6.5,1.4,12.8,4.3,16.7,10.3c7.5,7.6,6.5,16.2,2.5,24.9c-7.9,16.8-22.5,26-38.8,32.5c-18.8,7.5-38.2,9.7-57.8,2.2
	C93.6,248.8,88.1,240.5,88.8,229.2z M198,289.9L198,289.9c-7-0.5-13.4,0.4-17.8,6.7c-4.8,4.2-6.9,9.9-7.9,15.9
	c-4.9,28.7,4.6,53.1,23.4,74.3c7.1,8,15.6,14.2,26.7,15.8l0,0l0,0c8.2,1.6,14.8-1.1,20.1-7.4c5.6-5.6,7.4-12.8,8.1-20.2
	c2.4-24.3-4.9-45.9-19.9-64.7C222.4,299.9,212.7,290.6,198,289.9z M150.7,455L150.7,455c-6-4.9-12.4-4.9-19-1.4
	c-9.9,4-15.3,12.3-19.3,21.5c-10.2,23.4-10.3,47.2-0.8,70.8c3.8,9.5,9.3,18,18.9,22.9l0,0l0,0c6.8,3.4,13.5,3.8,20.2-0.5
	c5.5-2.1,9.4-6.3,12.3-11.1c17.4-28.2,17.4-57.3,3.3-86.7C163.1,463.9,158.9,457.1,150.7,455z M226.1,235
	c5.4,33,17.9,62.3,39.3,89.8C263.5,293.8,239.8,245.2,226.1,235z M79.8,433.2c26.2-20.2,45.9-44.8,58.5-75
	C115.2,371,81.7,416.5,79.8,433.2z M197.7,463.2c-5.2-32.6-17.6-61.8-38.7-89.2C158.6,398.4,182.2,451,197.7,463.2z M166.9,272.7
	c-31.4,10.7-57.9,28.6-79.2,54C119.2,316.2,145.6,298.1,166.9,272.7z"/>
<path style="fill:#FCFCFD;" d="M210,237.3c2.4,15.3,6.1,28.6,11.2,42.6c-10.8-5.2-20.9-8.5-32.4-6.3
	C194.7,261.1,201.6,249.9,210,237.3z"/>
<path style="fill:#FAFAFB;" d="M149.5,410.7c4.4,9,6.2,17.7,6.6,26.9c-6.8-1.1-6.8-1.1-7.2-7.6C148.6,423.8,148,417.6,149.5,410.7z"
	/>
<path style="fill:#FFFFCD;" d="M481.1,352c-16.8-13.1-33.6-26.2-50.6-39.2c-12.6-9.7-23.5-20.7-31.2-34.9
	c-9.1-16.9-10.2-35.3-10.4-53.7c-0.3-29.5,0.4-58.9,1-88.4c0.1-5.7-1.7-7.5-7.2-7.1c-7.4,0.4-14.9,0-22.3,0
	c-0.5,0.3-0.9,0.8-1.2,1.3c-0.1-0.3-0.2-0.6-0.3-0.8c-12.1,0-24.2,0-36.3,0c-0.2-0.2-0.5-0.5-0.8-0.7c-9.8,0.1-19.5-0.9-29.3,0.5
	c-0.1,2.5-0.3,4.9-0.3,7.4c0,32.9,0.1,65.7,0,98.6c-0.1,18.4-4.6,35.6-14.9,51c-2,3-2.2,5.4-1.3,8.7c4.4,14.7,7.2,29.7,6.7,45.1
	c-0.1,4.3,0,8.9-4.3,11.5c-4.4,2.7-8.4,0.4-12.7-2.7c0.5,2.6,0.8,4.4,1.1,6.1l0,0l0,0c1.8,2.6,4.6,1.4,6.8,1.4
	c52.7,0,105.3,0.2,157.9-0.3c9.2-0.1,18.3,0.4,27.5,0.2c7.7-0.2,15.4-0.7,23.9-1.1C482.1,353.4,481.7,352.5,481.1,352z"/>
</svg>
