<?xml version="1.0" encoding="utf-8"?>
<!-- Generator: Adobe Illustrator 24.0.0, SVG Export Plug-In . SVG Version: 6.00 Build 0)  -->
<svg version="1.1" id="Layer_1" xmlns="http://www.w3.org/2000/svg" xmlns:xlink="http://www.w3.org/1999/xlink" x="0px" y="0px"
	 viewBox="0 0 612 792" style="enable-background:new 0 0 612 792;" xml:space="preserve">
<path style="fill:#050505;" d="M305.2,685.4c-94.7,0-189.4,0-284.1,0.1c-4.3,0-5.9-0.8-5.8-5.6c0.3-13.2,0.1-13.3,13.2-13.2
	c6.6,0,13.3-0.2,19.9,0.1c3.5,0.2,4.8-0.6,4.5-4.4c-1.1-13.7,3.9-24.4,16.7-30.5c2.3-1.1,1.9-2.6,1.9-4.3c0-30,0-60,0-90
	c0-2,0-3.4-2.4-4.6c-11.7-5.8-17.2-15.5-16.3-28.4c0.3-5-0.9-6.5-6.2-6.3c-12.6,0.5-12.6,0.1-12.6-12.4c0-12.9,0.2-25.7-0.1-38.6
	c-0.1-4,0.8-5.8,5-5c3.5,0.7,4.7-0.6,4.5-4.3c-0.3-9.7-0.2-19.5,0-29.2c0.1-3-0.6-4.1-3.8-3.9c-7,0.2-14,0-21,0.1
	c-2.5,0.1-3.4-0.6-3.3-3.2c0.2-6,0.1-12.1,0-18.1c0-2,0.4-3.4,2.3-4.2c0.4-0.1,0.7-0.4,1-0.5c13.9-4.3,16.7-13.9,15.7-27.5
	c-1.3-18-0.4-36.2-0.2-54.3c0-3.5-0.8-4.6-4.4-4.6c-4.7,0-11.1,2.4-13.8-1.1c-2.3-2.9-0.5-9-0.5-13.7c0-12.3,0.1-24.6-0.1-36.8
	c-0.1-3.6,0.8-4.6,4.5-4.5c12.9,0.3,25.7-0.1,38.6,0.2c3.6,0.1,5.5-1.2,7.5-4c29.1-42.8,66.8-75.7,113.4-98.1
	c46.7-22.5,96-31.9,147.8-27.9c59.1,4.5,111.8,25.2,158.3,61.8c23.1,18.2,42.8,39.6,59.3,64c2.1,3.1,4.1,4.4,8,4.3
	c12.9-0.3,25.7,0,38.6-0.2c3.4-0.1,4.2,1,4.1,4.2c-0.2,16-0.2,32,0,47.9c0,3.4-1,4.2-4.2,4.2c-4.8,0-11.1-2.3-13.9,1
	c-2.3,2.8-0.7,8.9-0.7,13.6c0,19.3,0.1,38.6-0.1,57.9c0,3.5,0.6,6,4.1,7.2c12.6,4.1,16.6,12.6,15,25.6c-0.7,5.8-1.8,7.5-7.5,7
	c-5.4-0.5-10.9,0.1-16.4-0.2c-3.3-0.1-4.8,0.3-4.7,4.3c0.3,9.7,0.3,19.5,0,29.2c-0.1,3.5,1.2,4.6,4.3,4c4.6-0.9,5.3,1.3,5.2,5.4
	c-0.2,15.2-0.2,30.4,0,45.6c0.1,3.8-0.5,5.7-4.9,5.2c-4.2-0.4-9.5-1.6-12.6,0.4c-3.4,2.2-0.8,7.9-1.4,12
	c-1.5,9.4-6.1,16.8-14.6,21.3c-3,1.5-4.1,3.1-4.1,6.5c0.1,29.2,0.1,58.4,0,87.7c0,3.2,0.8,5,3.9,6.6c10.9,5.8,15.6,15.4,14.8,27.5
	c-0.3,5,0.8,6.7,6.2,6.4c9.1-0.5,18.3,0,27.5-0.2c3-0.1,3.9,0.7,4,3.8c0.4,15,0.5,15-14.4,15C489.1,685.4,397.2,685.4,305.2,685.4z"
	/>
<g>
	<path style="fill:#FA9E54;" d="M246.9,130.5c-17.9,3.9-35.2,9.5-51.9,17c-40,18-74,43.8-101.2,78.5c-2.8,3.1-5.5,6.2-7.5,10.4
		c23.9,0,47.2,0,70.5,0c9.2,0,9.2,0,10.5-9.4l0,0c13.8-44.3,47.1-71.8,83.7-96.6C249.5,129.7,248.2,130.2,246.9,130.5z"/>
	<path style="fill:#FA9E54;" d="M163.1,292.5c-33.8,0-67.7,0-101.5,0c-9.1,0-9.1,0-8.5,9.4c0,15.6,0,31.1,0,46.7l0,0c0,0,0,0,0,0
		c0,3.4,0,6.7,0,10.7c39.1-22.2,77.6-44,116.1-65.8c-0.1-0.3-0.2-0.6-0.4-1C166.9,292.5,165,292.5,163.1,292.5z"/>
	<path style="fill:#FA9E54;" d="M549.1,292.5c-34.1,0-68.2,0-102.3,0c-1.6,0-3.3,0-4.9,0c-0.1,0.3-0.1,0.7-0.2,1
		c38.6,21.8,77.1,43.7,116,65.7c0-4.1,0-7.4,0-10.7c0-15.6,0-31.1,0-46.7C558.2,292.6,558.2,292.5,549.1,292.5z"/>
	<path style="fill:#FA9E54;" d="M454,236.4c21.2,0,42.3,0,63.5,0c2.2,0,4.4,0,7.8,0c-3.3-4.1-5.8-7.3-8.3-10.4l0,0
		c-33-41.7-74.9-70.6-125.1-87.8c-10.4-3.6-20.9-6.6-33.3-8.6c37.7,25.5,71,53.1,84.8,97.4C444.9,236.4,444.9,236.4,454,236.4z"/>
</g>
<path style="fill:#ED7E2F;" d="M293.4,129.4c0.7-0.3,1.4-0.4,2.4-0.6c0,27.9,0,55.5,0,83.1c-2.9,3.7-7.6,4.3-11.3,6.7
	c-5.3,3.5-10.8,6.5-16.3,9.7c-1,0.3-1.9,0.5-2.9,0.5c-1.1,2.9-4.7,3.1-6.8,5c-1.6,1.5-3.9,1.5-5.8,2.5c-22.5,0-44.9,0-67.6,0
	c0.7-3.7,1.3-7.3,3.3-10.4c6.1-17.4,16.9-31.8,29.3-45.1C239.1,158,264.7,141.3,293.4,129.4z M209.5,255.1c-53.7,0-107.5,0-161.2,0
	c-15,0-14.9,0-14.2,15.2c0.1,2.9,1,3.5,3.7,3.5c49.5-0.1,98.9-0.2,148.4-0.2c6.2,0.1,13,1.9,18.5-0.6c10.6-4.9,20.5-11.3,31.9-17.7
	c-7.7,0-13.9,0-20,0C214.2,255.3,211.8,255.1,209.5,255.1z M571.9,255c-21.8,0.2-43.6,0.1-65.4,0.1c-37.4,0-74.8,0.1-112.1,0.2
	c-6.2,0-12.4,0-20,0c7.4,4.2,13.8,7.2,19.5,11.3c9.4,6.8,19.7,8.5,30.8,7c46.1,0.1,92.3,0.1,138.4,0.2c13.8,0,13.6,0,13.7-14
	C576.8,256,575.7,255,571.9,255z M422.4,225.8c-1-4.4-3.2-8.3-5.3-12.2c-14.5-26.6-35.7-46.9-60.6-63.5
	c-12.9-8.6-26.5-15.9-41.5-21.5c0,27.8,0,55,0,82.2c0,0,0,0,0,0c-0.1,1.7,0,3.5-0.2,5.2c-0.6,4.1,0.6,7,4.8,8.5
	c2,0.7,3.8,1.8,5.6,2.8c9.7,7.7,20.5,11.2,32.9,9.1c22.5,0,45,0,68.1,0C424.5,232.3,424.5,228.7,422.4,225.8z"/>
<path style="fill:#FFFFC4;" d="M258.7,582.5c0-14.4,0.1-28.8-0.1-43.2c0-3.4,0.7-5.4,4-7.2c10.3-5.6,15.3-14.8,14.6-26.5
	c-0.4-5.7,1-7.6,7.2-7.4c14.6,0.5,29.2,0.3,43.8,0.1c3.8-0.1,5.7,0.6,5.3,5c-1,13.6,4.2,23.9,16.7,30c2.2,1.1,2,2.6,2,4.3
	c0,30,0,60,0,90c0,2-0.2,3.5-2.5,4.6c-11.7,5.8-17,15.6-16.2,28.5c0.3,4.7-0.9,6.3-5.9,6.2c-15-0.4-30-0.2-45-0.1
	c-3.8,0-5.7-0.5-5.4-4.9c1-13.6-4.2-23.9-16.7-30c-2.8-1.4-1.9-3.6-1.9-5.5C258.6,611.7,258.7,597.1,258.7,582.5z M562.5,383.5
	c-84.4-47.9-168.9-95.7-253.3-143.7c-3-1.7-5.1-1.4-7.9,0.2c-83.9,47.6-167.9,95.2-251.8,142.8c-1.3,0.7-3.2,1.1-3.7,3.2
	c12.6,0,24.8-0.1,37.1,0.1c3.5,0,6.4-0.9,9.3-2.6c69.2-40.4,138.5-80.7,207.7-121.2c4-2.3,6.9-2.5,11-0.1
	c69.2,40.5,138.4,80.8,207.7,121.2c1.8,1.1,3.5,2.6,5.8,2.6c13.5,0,27.1,0,40.8,0C564.7,384.2,563.4,384.1,562.5,383.5z
	 M483.1,538.6c0-1.9,0.8-4.1-2-5.5c-12.8-6.2-17.7-16.9-16.7-30.6c0.2-3.3-0.8-4.4-4.2-4.3c-9.1,0.2-18.3,0.4-27.5-0.1
	c-5.1-0.3-6.2,1.5-5.9,6.2c0.8,12.9-4.5,22.7-16.2,28.5c-2.2,1.1-2.5,2.6-2.5,4.6c0,30,0,60,0,90c0,1.7-0.2,3.3,2,4.3
	c12.8,6.2,17.7,16.9,16.7,30.6c-0.2,3.3,0.8,4.4,4.2,4.3c9-0.2,17.9-0.5,26.9,0.1c5.7,0.3,6.8-1.7,6.5-6.8
	c-0.7-12.4,4.4-21.9,15.7-27.6c2.7-1.4,2.9-3.1,2.9-5.5c-0.1-14.8,0-29.6,0-44.4C483.1,567.8,483.2,553.2,483.1,538.6z M202.5,538.7
	c0-1.9,0.9-4.2-1.9-5.5c-12.8-6.2-17.8-16.8-16.7-30.6c0.3-3.9-1.4-4.5-4.7-4.4c-9,0.2-17.9,0.4-26.9-0.1c-5-0.2-6.3,1.3-6,6.1
	c0.9,12.9-4.4,22.7-16.1,28.6c-2.2,1.1-2.6,2.5-2.5,4.6c0,30,0,60,0,90c0,1.7-0.3,3.3,1.9,4.4c12.8,6.2,17.8,16.8,16.7,30.5
	c-0.3,3.9,1.4,4.5,4.7,4.4c8.8-0.2,17.5-0.4,26.3,0.1c5.5,0.3,6.9-1.4,6.6-6.7c-0.8-11.9,4-21.3,14.6-27.1c3.3-1.8,4.1-3.7,4.1-7.2
	c-0.2-14.4-0.1-28.8-0.1-43.2C202.5,567.9,202.6,553.3,202.5,538.7z M64.7,460.9c-11.8,0-11.5,0-12,11.6c-0.3,5.9,1.4,7.2,7.2,7.2
	c161.7-0.2,323.3-0.1,485-0.1c13.1,0,12.8,0,13.2-12.8c0.1-4.9-1.1-6-6-6c-82,0.2-164,0.1-246,0.1
	C225.6,460.9,145.2,460.9,64.7,460.9z M277.4,357.7c-0.1,15.6,12.4,28.2,27.9,28.3c15.5,0.1,28.2-12.6,28.2-28
	c-0.1-15.6-12.6-28.1-28.2-28.1C290.1,330,277.4,342.5,277.4,357.7z M226.6,404.7c-9.7,0.1-19.5,0.2-29.2,0
	c-3.2-0.1-4.5,0.8-4.3,4.2c0.3,4.7,0.1,9.3,0.1,14c0,5.1,0.2,10.1-0.1,15.2c-0.2,3.4,1.1,4.2,4.3,4.2c9.7-0.2,19.5-0.2,29.2,0
	c3,0,4.1-0.7,4-3.9c-0.2-9.9-0.2-19.8,0-29.8C230.7,405.4,229.6,404.7,226.6,404.7z M324.2,408.5c0-2.7-0.7-3.8-3.6-3.7
	c-10.1,0.1-20.2,0.1-30.4,0c-2.9,0-3.6,1-3.6,3.7c0.1,9.9,0.1,19.8,0,29.8c0,3,0.7,4.2,3.9,4c4.9-0.2,9.7-0.1,14.6-0.1
	c5.1,0,10.1-0.2,15.2,0.1c3.2,0.2,3.9-1.1,3.9-4C324,428.3,324,418.4,324.2,408.5z M413.5,404.7c-9.7,0.2-19.5,0.2-29.2,0
	c-3.4-0.1-4.2,1.1-4.2,4.3c0.2,9.5,0.2,19.1,0,28.6c-0.1,3.5,0.7,4.9,4.5,4.6c4.6-0.3,9.3-0.1,14-0.1c5.1,0,10.1-0.2,15.2,0.1
	c3.2,0.2,3.9-1.1,3.9-4c-0.2-9.7-0.2-19.5,0-29.2C417.8,405.8,417,404.6,413.5,404.7z M511.2,424.9c0-6.1-0.2-11.2,0.1-16.2
	c0.1-3.1-0.8-4-3.9-4c-9.9,0.2-19.8,0.1-29.8,0c-2.6,0-3.9,0.5-3.8,3.5c0.2,10.1,0.1,20.2,0,30.4c0,2.8,0.8,3.8,3.6,3.7
	c5.2-0.2,10.5,0,15.8-0.1c5.8-0.1,13.6,1.9,16.9-1C513.8,437.8,510.7,429.8,511.2,424.9z M137.1,408.4c0-2.7-0.7-3.8-3.6-3.7
	c-10.1,0.1-20.2,0.1-30.4,0c-2.9,0-3.6,1.1-3.6,3.7c0.1,9.9,0.1,19.8,0,29.8c0,3,0.7,4.2,3.9,4c4.9-0.2,9.7-0.1,14.6-0.1
	c4.9,0,9.7-0.2,14.6,0c3,0.1,4.6-0.4,4.5-4C136.9,428.3,137,418.4,137.1,408.4z M361.4,414.2c0.5-9.4,0.5-9.4-8.6-9.4
	c-0.4,0-0.8,0-1.2,0c-9.1,0-9.1,0-8.6,9.4c0,6.2,0,12.4,0,18.7c-0.5,9.4-0.5,9.4,8.6,9.4c0.4,0,0.8,0,1.2,0c9.1,0,9.1,0,8.6-9.4
	C361.3,426.6,361.3,420.4,361.4,414.2z M267.8,414.2c0.5-9.4,0.5-9.4-8.6-9.4c-0.4,0-0.8,0-1.2,0c-9.1,0-9.1,0-8.6,9.4
	c0,6.2,0,12.4,0,18.7c-0.5,9.4-0.5,9.4,8.6,9.4c0.4,0,0.8,0,1.2,0c9.1,0,9.1,0,8.6-9.4C267.8,426.6,267.8,420.4,267.8,414.2z
	 M174.3,414.2c0.5-9.4,0.5-9.4-8.6-9.4c-0.4,0-0.8,0-1.2,0c-9.1,0-9.1,0-8.6,9.4c0,6.2,0,12.4,0,18.7c-0.5,9.4-0.5,9.4,8.6,9.4
	c0.4,0,0.8,0,1.2,0c9.1,0,9.1,0,8.6-9.4C174.3,426.6,174.3,420.4,174.3,414.2z M80.8,414.2c0.5-9.4,0.5-9.4-8.6-9.4
	c-0.4,0-0.8,0-1.2,0c-9.1,0-9.1,0-8.6,9.4c0,6.2,0,12.4,0,18.7c-0.5,9.4-0.5,9.4,8.6,9.4c0.4,0,0.8,0,1.2,0c9.1,0,9.1,0,8.6-9.4
	C80.8,426.6,80.8,420.4,80.8,414.2z M454.9,414.2c0.5-9.4,0.5-9.4-8.6-9.4c-0.4,0-0.8,0-1.2,0c-9.1,0-9.1,0-8.6,9.4
	c0,6.2,0,12.4,0,18.7c-0.5,9.4-0.5,9.4,8.6,9.4c0.4,0,0.8,0,1.2,0c9.1,0,9.1,0,8.6-9.4C454.9,426.6,454.9,420.4,454.9,414.2z
	 M548.4,432.8c0-6.2,0-12.4,0-18.7c0.5-9.4,0.5-9.4-8.6-9.4c-0.4,0-0.8,0-1.2,0c-9.1,0-9.1,0-8.6,9.4c0,6.2,0,12.4,0,18.7
	c-0.5,9.4-0.5,9.4,8.6,9.4c0.4,0,0.8,0,1.2,0C548.9,442.2,548.9,442.2,548.4,432.8z"/>
<path style="fill:#C25202;" d="M343,385.8c8.8-13.1,11.8-27,6.9-42.1c-3.3-10.2-9.4-18.3-18.2-24.3c-17.8-12.2-41.8-10.6-57.7,4
	c-17.4,16-19.8,37.8-6.4,62.3c-47.1,0-94,0-142,0c14.8-8.6,28.6-16.7,42.5-24.8c44.3-25.8,88.7-51.7,133-77.5
	c2.5-1.5,4.5-2.6,7.8-0.6c57.8,33.9,115.8,67.6,173.8,101.3c0.6,0.3,1.1,0.8,2.6,1.7C437.3,385.8,390.5,385.8,343,385.8z M396.6,648
	c-10.1,0-20.2,0-30.3,0c-11.9,0-14.4,2.8-14.2,14.9c0,3.1,0.8,4,3.9,3.9c8-0.2,15.9-0.1,23.9-0.1c8.2,0,16.3,0,24.5,0
	c1.3,0,3.1,0.9,3.9-1.3C411.8,656.8,406,648,396.6,648z M528.1,648c-10.3-0.1-20.7,0-31,0c-11.7,0-14.2,2.8-14.1,14.6
	c0,3.3,0.8,4.3,4.2,4.2c8-0.2,16-0.1,24-0.1c8,0,16,0,24,0c1.4,0,3.1,0.9,4-1.2C542.8,657.2,537.1,648,528.1,648z M116.8,648
	c-10.3-0.1-20.6,0.4-30.9-0.1c-12.3-0.5-15,4.4-14.5,15.4c0.1,2.9,1.1,3.5,3.7,3.5c8.1-0.1,16.3-0.1,24.5-0.1c8,0,15.9,0,23.9,0
	c1.4,0,3.1,0.8,4.1-1.1C131.5,657.9,125.5,648,116.8,648z M248.5,648c-10.5-0.1-21,0-31.6-0.1c-12.1,0-14.6,2.8-14.5,14.8
	c0,3.6,1.4,4,4.4,4c7.8-0.2,15.6-0.1,23.4-0.1c8.2,0,16.4,0,24.5,0c1.3,0,2.8,0.6,3.7-0.9C262.7,659,256.6,648.1,248.5,648z
	 M483.3,507.7c1,6.6,3.8,9.3,10.1,9.3c11.8,0.1,23.6,0.1,35.4,0c6.4,0,9.1-2.7,10.2-9.3c0.1-1,0-2,0.2-2.9c0.9-5.3-1.2-6.8-6.5-6.6
	c-13.6,0.4-27.3,0.1-40.9,0.1C482.8,498.3,482.8,498.3,483.3,507.7z M258.5,507.7c0.1-1,0-2,0.2-2.9c0.9-5.3-1.2-6.8-6.5-6.6
	c-13.6,0.4-27.3,0.1-40.9,0.1c-9.1,0-9.1,0-8.5,9.4c1,6.6,3.8,9.3,10.1,9.3c11.8,0.1,23.6,0.1,35.4,0
	C254.7,516.9,257.4,514.3,258.5,507.7z M408.1,507.7c0.5-9.4,0.5-9.4-8.6-9.4c-12.9,0-25.7,0-38.6,0c-9.1,0-9.1,0-8.6,9.4
	c1,6.6,3.7,9.2,10.2,9.3c11.8,0.1,23.6,0.1,35.4,0C404.3,517,407.1,514.3,408.1,507.7z M81.9,517c11.8,0.1,23.6,0.1,35.4,0
	c6.3,0,9.1-2.7,10.2-9.3c0.5-9.4,0.5-9.4-8.6-9.4c-12.9,0-25.7,0-38.6,0c-9.1,0-9.1,0-8.6,9.4C72.8,514.3,75.5,516.9,81.9,517z
	 M108.8,545.1c0.5-9.4,0.5-9.4-8.9-9.4c-0.2,0-0.4,0-0.6,0c-9.4,0-9.4,0-8.9,9.4c0,24.9,0,49.8,0,74.8c-0.5,9.4-0.5,9.4,8.5,9.4
	c0.4,0,0.8,0,1.2,0c9.1,0,9.1,0,8.6-9.4C108.8,595,108.8,570,108.8,545.1z M380.5,535.7c-0.2,0-0.4,0-0.6,0c-9.4,0-9.4,0-8.9,9.4
	c0,24.9,0,49.8,0,74.8c-0.5,9.4-0.5,9.4,8.5,9.4c0.4,0,0.8,0,1.2,0c9.1,0,9.1,0,8.6-9.4c0-24.9,0-49.8,0-74.8
	C389.9,535.7,389.9,535.7,380.5,535.7z M230,629.3c0.4,0,0.8,0,1.2,0c9,0,9,0,8.6-9.4c0-24.9,0-49.8,0-74.8c0.5-9.4,0.5-9.4-8.6-9.4
	c-0.4,0-0.8,0-1.2,0c-9.1,0-9.1,0-8.6,9.4c0,24.9,0,49.8,0,74.8C221,629.2,221,629.2,230,629.3z M510.6,629.3c0.4,0,0.8,0,1.2,0
	c9,0,9,0,8.6-9.4c0-24.9,0-49.8,0-74.8c0.5-9.4,0.5-9.4-8.6-9.4c-0.4,0-0.8,0-1.2,0c-9.1,0-9.1,0-8.6,9.4c0,24.9,0,49.8,0,74.8
	C501.5,629.2,501.5,629.2,510.6,629.3z"/>
</svg>
