<?xml version="1.0" encoding="utf-8"?>
<!-- Generator: Adobe Illustrator 24.0.0, SVG Export Plug-In . SVG Version: 6.00 Build 0)  -->
<svg version="1.1" id="Layer_1" xmlns="http://www.w3.org/2000/svg" xmlns:xlink="http://www.w3.org/1999/xlink" x="0px" y="0px"
	 viewBox="0 0 598 598" style="enable-background:new 0 0 598 598;" xml:space="preserve">
<path style="fill:#050505;" d="M349.2,359.1c3.2-55.3,18.3-106.1,58.6-146.5c26-26,58.3-38.9,94.6-42.5c20.1-2,39.9-0.9,59.6,3.3
	c14.4,3.1,22.4,11.8,22.9,26.6c1,25.4-6.5,48.6-21.1,69.3c-6.7,9.5-15.8,13.1-27.9,10.4c-37.6-8.2-67,11.4-77.5,51.2
	c-9.7,36.5,3.7,65.8,37.7,82.3c8.7,4.2,12,11.8,13.2,20.6c2.4,17.8-2,34.7-7.8,51.3c-3.3,9.6-7.9,18.6-15.3,25.7
	c-7.1,6.8-15.6,10.3-25,6.1c-48.9-21.7-85.9-55.1-103.8-106.9C351.7,393.7,349.3,376.7,349.2,359.1z M316.7,386.3
	c-18.8-28.7-44.5-49.9-74-66.9c-26.1-15-54-25-84.3-25.3C101.1,293.4,56,319.2,18.9,361c-4.6,5.2-5.7,11.7-4.2,18.6
	c1.3,6,4,11.4,8.1,15.9c16.4,18.2,36.3,30.9,60.2,36.3c10,2.3,18.8-0.1,26.3-8.2c11-11.8,24.5-19.6,40.8-21.6
	c24.1-2.9,43.5,7.3,60.6,22.7c23.7,21.3,28.3,51.1,12.1,78.5c-6.4,10.8-5.4,20.6,1.4,29.8c15.2,20.3,35.2,34.3,59.8,41
	c14.7,4,25.3-1,32.7-14.3c15.6-28.1,24.1-58.2,24.7-88.5C341.2,439.2,333.2,411.4,316.7,386.3z M388,37.6
	c-4.4-14.8-12.9-21.4-28.4-20C332.7,20.1,310,32,291.4,51.4c-6.7,7-8.3,15.5-5.8,25.3c8.4,32.2-2.4,58.7-30.5,75.8
	c-15.7,9.5-32.8,15.4-51.5,12.7c-21.4-3.1-36.1-16.1-46.1-34.6c-4.7-8.7-11.7-12.6-21.1-12.9c-21-0.5-39.1,8.3-56.7,18.4
	c-6.3,3.6-11.8,8.2-16.3,13.9c-8.3,10.5-9.1,20-2.6,31.7c8.7,15.5,19.3,29.5,31.8,42.2c30.2,30.6,66.4,48.1,109.8,48.7
	c38.5,0.6,73.7-11.4,106.7-30.3c56.9-32.6,86.7-81.4,87.5-142.7C396.3,75.5,393.6,56.3,388,37.6z"/>
<path style="fill:#FEEB4C;" d="M361,358.8c2.2-46.6,14.7-89.7,44.5-126.5c22.7-28.1,52.7-43.7,88.3-49.3c22.1-3.4,44-2.8,65.9,2
	c9,2,13.3,6.3,13.7,15.4c0.9,22.6-5.8,43.2-18.5,61.8c-3.9,5.7-9,7.8-16.5,6.2c-43-9.1-77.6,13-90.3,57.3
	c-7.7,26.8-5.8,52.2,12.6,74.7c7.7,9.4,17.1,17.1,28.2,22.1c5.7,2.6,8.1,6.7,9.2,12.3c2,10.4-0.2,20.5-2.5,30.5
	c-2.6,11.6-6,22.9-13.3,32.6c-6.6,8.8-11.9,11.1-22.3,5.9c-39.5-19.6-70.8-47.2-88.1-88.7C364.8,398.7,361.1,378.9,361,358.8z
	 M304.6,389.2c-23.2-32.7-54.5-55.4-91-71.1c-25.9-11-52.8-15.4-80.8-10.8C92.7,313.9,60,334,32.6,363.2c-8.8,9.4-9.3,14.9-0.8,24.7
	C45.6,403.9,63,414.4,83.4,420c7,1.9,12.7,0.4,18.3-5.3c17.8-18,39.2-27.5,65.1-24.3c19,2.3,35,11.2,49.3,23.2
	c29.9,25.3,36.5,61.9,16.8,95.8c-3.5,6-3.2,11.2,0.5,16.2c13.6,18.1,31.3,30.6,53,36.9c10.3,3,15.6,0.1,20.6-9.2
	c14.3-26.3,22.3-54.4,22.8-81.9C329.6,439.7,321.5,413,304.6,389.2z M382,63.8c-1.2-8.2-3.1-16.4-5.7-24.3
	c-2.3-7.3-5.9-10-13.6-10.3c-9.2-0.4-17.7,2.2-25.9,5.8c-13.7,6-27.2,12.4-37,24.4c-3.4,4.1-4.5,8.4-3.1,14
	c4.5,17.3,4.9,34.8-2.4,51.4c-15.2,34.5-44.3,49.6-79.8,52.2c-29.8,2.2-51.4-13.4-66-38.6c-3.9-6.7-8.6-9.7-15.9-8.9
	c-22.2,2.4-41.7,11.1-58.5,26c-0.9,0.8-1.5,1.8-2.2,2.7c-4.4,5.8-5.1,11.6-1.2,18.3c10.8,18.4,23.8,34.9,39.9,49
	c27.9,24.4,60.3,36.8,97.5,35.8c34.1-0.9,65.4-11.9,94.7-28.7c52.5-30.1,80.7-75,81.7-136.1C384.9,85.3,383.6,74.5,382,63.8z"/>
<path style="fill:#FEAC4C;" d="M408.3,285.6c-5.8-0.1-9.7-5.7-8.2-12c3.4-14.2,10.7-26.5,19.7-37.7c21.6-26.7,51.4-36.1,83.9-40.2
	c5.3-0.7,10.4-0.5,15.4,0.4c3.5,0.6,7.5,1.3,7.6,6.4c0,4.7-2.2,7.8-6.5,9.2c-2.7,0.9-5.6,1.4-8.5,1.5c-29,1.2-54.5,10.4-74.7,32.1
	c-9.1,9.8-15.4,21.3-19.8,33.8C415.8,283.7,413,285.9,408.3,285.6z M561.7,205.9c-0.1-3.1-1.3-5.9-4.1-7.2c-3.1-1.4-5.6,0.7-7.7,2.7
	c-1.2,1.2-2.3,2.6-3.3,4c-5.3,7.4-8.5,15.7-10.1,24.5c-1,5.6-2.2,11.3-0.4,17.2c1.7,5.3,5.5,7.5,9.9,4.4c2-1.4,3.8-3.3,5.2-5.4
	c6.8-10.2,10.5-21.4,10.6-33.8C561.8,210.1,561.8,208,561.7,205.9z M488.4,446.3c0.1-3.7-0.8-7.3-4.4-8.8c-3.6-1.5-6.5,1.5-8.4,3.9
	c-10.3,12.8-14.2,27.7-12.7,44c0.6,6.5,5.8,8.3,10.8,4.1c1.5-1.2,2.9-2.7,3.9-4.3c6.8-10.2,11-21.3,10.7-33.7
	C488.4,449.8,488.3,448,488.4,446.3z M399.4,296.1c-5.1-0.1-9.1,4.2-9,9.8c0.1,4.8,4.2,8.8,8.9,8.8c4.9-0.1,8.7-4.2,8.7-9.5
	C407.9,300.2,404.1,296.2,399.4,296.1z M130.6,320.1c-9.1,3-18.9,4.8-25.7,12.6c-3.6,4.2-3.2,9.3,1.1,12.6c3.6,2.8,7,2.1,10.8,0.2
	c15.5-8,32.2-11.2,49.4-9.6c23,2.1,43,11.9,60.1,27.4c2.6,2.3,5.3,4.5,8.3,6.3c5.2,3,10.8,2.2,13.5-1.8c3.1-4.7-0.5-8.2-3.1-11.2
	c-7.9-9.2-17.6-16.3-28-22.3c-18-10.3-36.7-18.2-61.2-18C149.6,317.1,139.8,317.1,130.6,320.1z M84.7,394.4c-8-11.7-18.6-20-31.8-25
	c-3.5-1.3-7.1-1.8-9.7,1.1c-2.5,2.9-1.3,6.6,0.3,9.3c8.4,14.4,20.4,24.6,36.7,28.9c4.6,1.2,7.4-1.4,7.3-6.4
	C87.9,399.4,86.3,396.8,84.7,394.4z M290.1,542.8c-7.3-14.3-18.6-24-33.8-29.1c-3.2-1.1-6.7-2.2-9.1,1c-2.4,3.3-1.7,7,0.4,10.4
	c3.4,5.7,7.4,11,12.6,15.1c7.1,5.7,14.3,11.3,22.2,12.2C290.9,552.5,293.3,549.1,290.1,542.8z M263.3,396.3c5.2,0.1,9.4-3.8,9.4-8.8
	c0-5.6-3.5-9.7-8.5-9.9c-4.9-0.2-9,4-9,9.2C255.2,392.2,258.7,396.2,263.3,396.3z M354.4,89.9c-1.6-4.4-4.2-7.4-9.3-7
	c-4.9,0.4-8.2,4.2-8.2,9.4c-0.1,5.8,0.7,11.8-0.2,17.4c-5.8,37.8-27.6,63.3-61.7,78.9c-3.9,1.8-6.8,4.3-9.7,7.2
	c-2.7,2.8-2.6,6.3-1,9.1c1.6,3,4.8,4.4,8.5,3.2c2.6-0.8,5.3-1.2,7.8-2.2c14-5.6,25.7-14.6,37.4-24c25.1-20.2,36.4-46.7,37.8-78.2
	C355.4,99.1,356,94.4,354.4,89.9z M338.5,44.5c-9.2,3.9-18.8,7.5-24.6,16.5c-2.9,4.5-1.7,7.4,3.3,9.3c2.1,0.8,4.1,1.2,6.3,0.9
	c13.9-1.7,26.5-6.5,37.1-16c3.2-2.9,5.7-6.6,3.9-10.7c-1.6-3.8-6-3.5-11-3.6C349.1,41.3,343.6,42.3,338.5,44.5z M88.9,158.9
	c-2.6,2.6-4.9,5.5-3.4,9.2c1.6,4,5.8,4.8,9.4,4.3c14.2-1.9,27.6-6,38-16.7c2.5-2.6,6-5.3,4.1-9.4c-1.7-3.8-5.7-4.3-9.6-4.2
	C112.8,143.6,99.7,148.5,88.9,158.9z M251.6,210.3c-0.1-5.1-4.1-8.7-9.5-8.6c-5.4,0.1-9.1,3.7-9,8.9c0.1,5.2,3.8,8.6,9.3,8.6
	C247.8,219.2,251.8,215.3,251.6,210.3z"/>
</svg>
