<?xml version="1.0" encoding="utf-8"?>
<!-- Generator: Adobe Illustrator 24.0.0, SVG Export Plug-In . SVG Version: 6.00 Build 0)  -->
<svg version="1.1" id="Layer_1" xmlns="http://www.w3.org/2000/svg" xmlns:xlink="http://www.w3.org/1999/xlink" x="0px" y="0px"
	 viewBox="0 0 612 612" style="enable-background:new 0 0 612 612;" xml:space="preserve">
<path style="fill:#050505;" d="M306,592.8c-91.2,0-182.4,0-273.6,0c-10.2,0-13.2-2.9-13.2-13c0-10.9,0-21.9,0-32.8
	c0-8.1,3.5-11.4,11.7-11.5c4.4,0,8.8-0.2,13.1,0.1c3.3,0.2,3.9-1,3.9-4c-0.1-13.7-0.1-27.4,0-41.1c0-2.8-0.7-4-3.5-5.1
	C28,478.8,19.3,465.8,19.3,448c0-18.3,0-36.6,0-54.9c0.1-21.9,16.8-38.9,38.2-38.9c21.4,0,38.1,17,38.2,38.9c0.1,18.5,0,37,0,55.4
	c0,16.8-9.1,30.5-24.7,36.5c-2.8,1.1-4.1,2.1-4.1,5.3c0.2,13.7,0.2,27.4,0,41.1c0,3,0.6,4.1,3.9,4c22.9-0.1,45.8-0.1,68.7,0
	c3,0,4.5-0.6,4-3.9c-0.2-1.2-0.2-2.4,0-3.6c1.2-8.2-0.5-13.4-9.6-17.5c-12.8-5.8-18.8-17.9-19-32.1c-0.3-19.3-0.2-38.6,0-57.8
	c0.1-21,17.2-37.8,38.1-37.8c21,0,38.1,16.6,38.3,37.6c0.2,19.1,0.1,38.2,0,57.2c-0.1,16.4-9.3,30.1-24.6,36
	c-3.1,1.2-4.4,2.4-4.2,5.8c0.4,5.1-1.6,11.8,0.9,15c2.7,3.3,9.7,0.9,14.8,1c9.2,0.2,18.3-0.2,27.5,0.2c4.3,0.2,5.3-1.5,5.6-5.3
	c2.3-25.7,4.9-51.4,7.3-77.1c1.2-12.5,2.4-24.9,3.6-37.4c0.7-7.3,4.6-10.3,12.1-9.6c7.7,0.7,7.8,0.8,8.5-7
	c5.2-53.4,10.3-106.8,15.4-160.1c2.8-29.1,5.6-58.1,8.4-87.2c0.8-7.8,5.2-11.2,13.9-9.6c5.5,1,6.6-0.7,7.1-5.6
	c1.9-22.2,4.2-44.3,6.3-66.4c0.9-9.6,4.2-13,13.8-11.5c5.7,0.9,7.3-0.8,7-6c-0.1-1.8,0.3-3.6,0.7-5.3c0.9-4.7,0.4-8.2-5.7-7.8
	c-2.7,0.2-3.2-1.1-2.9-3.7c0.7-4.9-0.7-11.3,2-14.4c2.9-3.5,9.3-0.2,14.1,0.2c31.9,2.9,63.8,6.2,95.7,9.1c3.2,0.3,4.1,1.2,3.6,4.3
	c-0.5,2.5-0.5,5.1-0.6,7.7c-0.1,5.1-1.2,9-7.7,6.9c-2.2-0.7-2.8,0.5-2.8,2.4c-0.1,1.8-0.4,3.6-0.6,5.3c-1.3,10-1.3,10,8.7,11.8
	c6,1.1,8.9,5.5,8.2,12.3c-2.2,22.9-4.3,45.9-6.7,68.8c-0.5,4.5,0.8,5.8,5.3,6c10.4,0.5,13.1,4.2,12.1,14.5
	c-3.8,39.3-7.5,78.7-11.3,118c-3.8,39.1-7.6,78.3-11.4,117.4c-0.2,1.8-0.3,3.6-0.4,5.3c-0.3,3.7-1.9,8.3-0.4,10.9
	c1.2,2,6.6,1.2,10,2.1c5.4,1.4,7.7,5.3,7.2,10.8c-1.4,14.8-2.8,29.7-4.2,44.5c-1.7,17.4-3.3,34.8-5.2,52.2c-0.4,3.3,0.9,3.5,3.5,3.5
	c9.8-0.1,19.5-0.1,29.3,0c2.9,0,3.9-0.6,4.2-3.8c2.4-31.1,23-55,53.1-61.6c3.2-0.7,4.3-1.7,4.1-4.9c-0.3-5.8-0.2-11.5,1.5-17.1
	c5.3-17.7,23.3-29.4,41.4-27c19,2.6,33.4,18.4,33.5,37.5c0.1,40.5,0,81.1,0,121.6c0,9.3-3.1,12.4-12.6,12.4
	C488.8,592.8,397.4,592.8,306,592.8z"/>
<path style="fill:#FFD699;" d="M409.7,462.7c-20.8-5.8-38.1,3.8-40.3,22c-1.4,12-2.6,24.1-3.6,36.2c-1.2,14.9-1,14.7-15.8,14.8
	c-4.1,0-5-1.3-4.5-5c1.6-14.4,2.9-28.8,4.5-43.3c2.2-20.1-10.8-34.9-30.1-34.1c-13.7,0.5-25.5,11.7-26.9,25.7
	c-1.7,17.2-3.4,34.4-4.8,51.6c-0.3,4.2-1.8,5.6-5.8,5c-1.6-0.2-3.2,0-4.8,0c-9.3,0-9.3,0-8.4-9.6c1.6-16,3.4-32,4.6-48
	c1.4-19.7-11.2-32.5-31-31.8c-3.1,0.1-4-0.4-3.9-3.7c0.6-16.8,0.8-16.7,17.2-15c35.4,3.7,70.9,6.9,106.3,10.3
	c14.8,1.4,29.7,2.9,44.6,4.2c3.5,0.3,4.9,1.2,4.3,5C410.5,452.1,410.2,457.2,409.7,462.7z M401.5,221c2.1-0.2,4.4,0.3,6.5,0.8
	c4,0.8,6.1-0.1,6.4-4.8c0.9-12.9,2.3-25.7,3.7-38.5c0.4-3.9-1.6-4-4.4-4.3c-14.9-1.3-29.7-2.8-44.5-4.2c-26.3-2.5-52.6-5-78.9-7.7
	c-4-0.4-5.5,0.6-5.8,4.8c-0.8,11.3-2,22.5-3.2,33.8c-0.9,8.5-1,8.5,7.7,9.2c1.8,0.1,3.6,0.3,5.3,0.7c3.9,0.9,5.7,0,5.8-4.5
	c0.1-6.3,0.9-12.7,1.8-18.9c0.9-6,5.4-9.1,11-8.3c5.3,0.7,8.5,5.3,8,11.3c-0.4,4.5-0.8,9.1-1.4,13.6c-1.1,9-1.2,9,7.6,9.8
	c2,0.2,4,0.4,5.9,0.8c3.6,0.8,5-0.4,5.2-4.2c0.3-6.1,0.8-12.3,1.5-18.4c0.8-6.8,5.1-10.3,11.2-9.5c5.3,0.7,8.4,5,8,11.3
	c-0.4,5.3-1,10.7-1.5,16c-0.1,1.4-0.6,3-0.1,4.1c2.8,6.7,9.3,2.1,13.7,4.2c1.9,0.9,4.9,1.2,5.1-2.6c0-1.4,0.3-2.8,0.4-4.1
	c0.5-5.3,0.8-10.7,1.4-16c0.7-6.1,4.8-9.5,10.4-9.2c5.5,0.3,9,4.4,8.7,10.6c-0.3,5.7-0.9,11.5-1.5,18.1
	C393.7,219.5,396.1,221.4,401.5,221z M282,276.7c2.4,0.2,4.8,0.1,7.1,0.6c3.4,0.8,4.2-0.8,4.4-3.6c0.5-6.5,1.1-13.1,1.9-19.6
	c0.7-5.8,5.1-9.2,10.8-8.7c5,0.5,8.3,4.3,8.2,9.8c0,3.4-0.4,6.7-0.8,10.1c-1.8,13.8-1.9,13.8,11.5,15.2c0.8,0.1,1.6,0.1,2.4,0.4
	c2.9,0.9,3.8-0.4,4-3.2c0.5-6.7,1.3-13.4,2-20.1c0.7-5.6,4.8-9.2,10-8.9c5.2,0.3,9.1,4.3,9,9.9c-0.1,3.8-0.7,7.5-1,11.3
	c-0.3,4.1-2.2,9.3-0.5,12.2c2.2,3.6,8,1.3,12.2,2.3c0.8,0.2,1.6,0.2,2.4,0.4c2.9,0.8,3.7-0.4,3.9-3.2c0.5-6.7,1.2-13.4,2.1-20.1
	c0.8-5.7,4.7-8.9,10.2-8.6c5.3,0.3,8.9,4.3,8.8,10c-0.1,3.2-0.7,6.3-1,9.5c-0.4,4.7-2.5,10.9-0.4,13.8c2.6,3.4,9.4,1.1,14.2,2.3
	c3.2,0.8,3.9-0.6,4.2-3.6c1.1-13.1,2.2-26.1,3.8-39.1c0.4-3.8-0.5-4.5-4.2-4.9c-23-2-45.9-4.4-68.9-6.6c-18.4-1.8-36.8-3.4-55.2-5.2
	c-3.6-0.4-4.7,0.5-5,4.2c-0.9,11.9-2.3,23.7-3.6,37.2C271.2,276.7,277.1,276.3,282,276.7z M383.5,420.5c2.4,0,4.8,0.2,7.1,0.7
	c3.2,0.6,4.1-0.7,4.3-3.7c1.2-13.2,2.5-26.5,4-39.7c0.5-4.3-2.3-3.9-4.7-4.1c-41.4-4-82.8-7.9-124.1-12c-3.4-0.3-4.5,0.5-4.7,3.9
	c-0.7,9.9-1.7,19.8-2.6,29.7c-1.4,14.4-1.5,14.2,13.1,15.1c3.6,0.2,4.9-0.7,5.1-4.4c0.2-6.1,0.8-12.3,1.6-18.4
	c0.8-6.5,5-10,10.8-9.4c5.5,0.5,8.9,5.2,8.4,11.6c-0.3,3.2-0.4,6.3-0.8,9.5c-1.5,13.8-1.5,13.6,12.3,14.8c4.7,0.4,5.8-1.4,5.9-5.5
	c0.3-5.9,0.8-11.9,1.5-17.8c0.8-5.9,5.2-9.5,10.7-9c5.1,0.5,8.7,4.7,8.4,10.4c-0.2,4.4-0.7,8.7-1.2,13c-1.2,10.7-1.3,10.7,9.1,11.9
	c1.6,0.2,3.2,0.1,4.8,0.4c3.1,0.6,4.3-0.6,4.5-3.6c0.5-6.3,1.1-12.7,1.8-19c0.7-5.8,5.2-9.6,10.5-9.1c5.2,0.5,8.7,4.5,8.5,10.3
	c-0.2,5.3-0.8,10.7-1.4,17.1C373.4,419.4,377.6,420.6,383.5,420.5z M271.5,301c-0.3,9.3-1.7,18.6-2.5,27.9
	c-1.1,14.4-1,14.3,13.7,14.9c2.9,0.1,4.2-0.2,4.4-3.6c0.4-6.5,1.2-13,2-19.5c0.8-6,5.1-9.7,10.4-9.2c5.3,0.5,9,5,8.7,10.9
	c-0.2,3.4-1.1,6.7-0.9,10.1c0.2,4.5-3.5,10.4-0.2,13c3.2,2.5,9.2,1.3,13.9,2c3.1,0.4,4.1-0.5,4.3-3.7c0.4-6.5,1.1-13.1,2-19.5
	c0.8-6,5.3-9.6,10.5-9c5.5,0.7,9.1,5.6,8.5,11.7c-0.3,3.2-0.9,6.3-0.9,9.5c0,4.4-3.5,10.1,0,12.9c3,2.4,8.8,1.1,13.3,1.9
	c3.4,0.6,4.5-0.5,4.7-3.9c0.3-6.5,0.9-13.1,1.9-19.5c0.9-5.9,5.6-9.1,11.1-8.2c5.1,0.8,8.4,5.2,8,10.8c-0.2,3-0.6,5.9-0.8,8.9
	c-1.2,14.8-1.1,14.7,13.6,15.7c3.3,0.2,4.1-0.8,4.3-3.7c1.1-12.5,2-24.9,3.7-37.3c0.7-5.2-1.3-6.3-5.8-6.7
	c-39.8-3.7-79.6-7.5-120.9-11.5C275.6,294.8,271.7,294,271.5,301z M376.8,110.7c7.3,7.9,7.7,17.4,6.8,27.3
	c-1.3,14.7-1.2,14.6,13.7,15.7c3.2,0.2,4-0.6,4.3-3.7c1.8-19.6,3.7-39.1,5.7-58.6c0.3-3-0.3-4.1-3.6-4.4
	c-10.1-0.7-20.2-1.9-30.3-2.9c-18.8-1.8-37.6-3.6-56.4-5.4c-2.6-0.2-4.9-0.8-5.2,3.4c-1.3,16-3.2,32-4.5,48
	c-0.4,4.7-3.2,10.5-0.6,13.8c2.7,3.3,9,1.2,13.7,2.2c0.4,0.1,0.8,0.1,1.2,0.2c2.6,0.7,3.4-0.4,3.6-3c0.5-6.3,1.1-12.7,2.1-18.9
	c2.3-13.6,14-23.2,27.7-23.2C363.8,101.1,370.9,104.4,376.8,110.7z"/>
<path style="fill:#5ECF76;" d="M305.3,573.7c-86.8,0-173.6-0.1-260.4,0.1c-5.6,0-6.9-1.6-6.7-6.9c0.4-12.3,0.1-12.3,12.5-12.3
	c171.8,0,343.6,0,515.4-0.2c6.4,0,7.9,1.8,7.6,7.8c-0.5,11.4-0.1,11.4-11.7,11.4C476.5,573.7,390.9,573.7,305.3,573.7z M568.5,535.6
	c3.6,0,5.2-0.5,5.2-4.8c-0.2-23.8,0-47.7-0.1-71.5c-0.1-10.8-8.3-19-18.8-19.2c-10.7-0.2-19.2,8.1-19.4,19.2c-0.1,5.4,0,10.7,0,16.1
	c0,9.1-2.9,12.1-11.9,12.5c-23.2,1-43.1,20-45.3,43c-0.3,3.7,0.6,4.8,4.4,4.8c14.3-0.2,28.7-0.1,43-0.1
	C539.9,535.6,554.2,535.5,568.5,535.6z M76.5,450.3c0.2-19.5,0.2-38.9,0-58.4c-0.1-10.4-8.6-18.4-18.8-18.5
	c-10.3-0.1-19.1,7.8-19.2,18.1c-0.3,19.7-0.2,39.3,0,59c0.1,6.3,2.9,11.5,9.5,15.3c0-7.8,0-14.5,0-21.3c0-14,0-13.9,13.8-14
	c4.1,0,5.5,0.9,5.4,5.2c-0.3,9.7-0.1,19.3-0.1,30.2C73.7,461.7,76.5,456.6,76.5,450.3z M172.1,478.9c0.1-19.5,0.2-38.9,0-58.4
	c-0.1-10.3-8.6-18.4-18.8-18.5c-10.2-0.1-19.1,7.8-19.3,18.1c-0.3,19.7-0.2,39.3,0,59c0.1,6.3,2.9,11.6,9.5,15.3c0-7.6,0-14.3,0-21
	c0-14.5,0-14.3,14.7-14.2c3.9,0,4.6,1.3,4.5,4.8c-0.2,9.9-0.1,19.7-0.1,31C169,490.2,172.1,485.3,172.1,478.9z"/>
<path style="fill:#F7A93B;" d="M239.3,535.6c-9.1,0-9.3,0-8.5-9.3c1.5-17.2,3.2-34.4,4.9-51.5c0.7-6.5,4.7-10.1,10.6-9.7
	c5.6,0.4,9,4.5,8.4,11.4c-1.5,18.4-3.4,36.7-5,55.1c-0.3,2.9-1.3,4.4-4.4,4.1C243.3,535.4,241.3,535.6,239.3,535.6z M322.6,535.6
	c2.5,0.1,3.5-0.8,3.7-3.3c1.5-16,3.2-32,4.6-48c0.6-7-2.9-11.5-8.6-11.9c-5.9-0.5-9.7,3.4-10.4,10.3c-1.4,14.2-2.8,28.4-4.4,42.6
	c-1.1,10.3-1.3,10.3,9.1,10.3C318.6,535.6,320.6,535.5,322.6,535.6z M396,535.6c5.2,0.9,7.2-1.1,7.5-6.4c0.9-12.8,2.5-25.6,3.7-38.4
	c0.5-5.6-3.3-10.5-8.4-11.2c-5.5-0.7-9.8,2.8-10.5,8.9c-1.4,12.6-2.5,25.2-3.7,37.9c-0.9,9.3-0.9,9.3,8.3,9.3
	C394,535.6,395,535.4,396,535.6z M355.6,120.8c-5.8-0.2-9.5,4.3-10.1,12.3c-0.3,3.8-0.6,7.5-1.2,11.2c-0.5,3.4,0.9,4.4,4.1,4.8
	c15.1,1.8,15.1,1.8,16.1-13.2c0-0.6,0-1.2,0-0.6C365,125.7,361.8,121,355.6,120.8z M372.9,48.3c-3.6,14.8-0.5,18.5,14.8,18.2
	c2.2,0,2.8-0.8,3-2.7c0.1-1.8,0.2-3.6,0.3-5.4c0.9-11.1,0.9-11.1-11.4-11.9C378.2,48.5,374.2,43.1,372.9,48.3z M334.4,50
	c-0.6,11.4-0.8,11,10.4,12.4c6,0.7,8-0.3,8.3-6.8c0.5-11.9,1-11.8-11.7-12.7C335.2,40.3,334.7,44.4,334.4,50z"/>
</svg>
