<?xml version="1.0" encoding="utf-8"?>
<!-- Generator: Adobe Illustrator 24.0.0, SVG Export Plug-In . SVG Version: 6.00 Build 0)  -->
<svg version="1.1" id="Layer_1" xmlns="http://www.w3.org/2000/svg" xmlns:xlink="http://www.w3.org/1999/xlink" x="0px" y="0px"
	 viewBox="0 0 612 612" style="enable-background:new 0 0 612 612;" xml:space="preserve">
<path style="fill:#050505;" d="M297.9,207.7c0-2.1,0-4.3,0-6.4c0-55.6,0-111.3,0-166.9c0-11.4,2.7-14.1,14.1-13.9
	c134.5,2.4,250.3,99.8,275.7,231.9c29,151.1-66.7,298.2-216.6,333C254.7,612.4,131.8,562,67.7,461c-29.1-45.8-44.4-95.8-45.1-150.1
	c-0.2-11.3,2.3-13.9,14-13.9c85,0,170.1-0.1,255.1,0.1c5.2,0,6.6-1.2,6.4-6.4c-0.4-15.1-0.4-30.2,0-45.3c0.1-4.8-1.3-5.8-5.9-5.8
	c-86.4,0.1-172.9,0.1-259.3,0.1c-11,0-13.9-2.8-13.6-13.7c2-74.8,29.4-138.9,82.2-192c5.9-6,10.3-5.8,16.8,0.5
	c57.6,56,115.3,112,172.9,168.1c1.8,1.8,3.3,4,4.9,6C296.7,208.4,297.3,208,297.9,207.7z"/>
<path style="fill:#F3BC5D;" d="M181.9,316.4c33.8,0,67.4,0,101.1,0c0.7,1.8-1.1,2.3-1.9,3.1c-41.3,41.3-82.8,82.5-124,123.9
	c-2.9,2.9-4.4,3.3-7.2-0.1c-30.2-35.5-46.9-76.4-50.4-122.8c-0.3-3.3,0.4-4.5,4-4.4c7.7,0.3,15.5,0.1,23.8,0.1
	c-3.4,14.9,0.3,27,13.8,34.6c10.3,5.8,20.8,4.9,30.3-2C182.5,340.7,185.1,329.5,181.9,316.4z"/>
<path style="fill:#FED681;" d="M317.1,282.8c0-23.4,0-45.8,0-68.2c0-12.9,0.1-25.8-0.1-38.7c0-3.4,0.6-4.4,4.4-3.6
	c11.7,2.5,23.2-2.4,29.4-12.4c6.4-10.4,6.5-21.2-0.3-31.4c-6.8-10.2-16.8-14.4-28.9-12.1c-3.5,0.7-4.8,0.3-4.5-3.4c0.2-2,0-4,0-6
	c0-9.8,0-10.1,9.8-9.1c45.1,4.7,84.6,22,118.7,51.8c2.3,2,2.5,3.2,0.2,5.4c-42.2,41.9-84.2,84-126.3,126
	C319,281.6,318.5,281.9,317.1,282.8z M263.2,366.9c12.3,7.7,17.5,18,15.3,30.9c-1.9,11.1-10.8,20.1-22.6,22.7
	c-11.6,2.6-22.6-2.2-30.4-13.9c-2.3-3.4-3.2-1.4-4.7,0.1c-17,17-34,34-51.2,50.9c-2.5,2.5-2.2,3.7,0.3,5.9
	c35.1,30.6,75.8,48,122.4,51.9c4.3,0.4,5.8-0.3,5.8-5.1c-0.2-58.4-0.1-116.8-0.2-175.2c0-1.4,0.9-3.2-1-4.2
	c-11.6,11.6-23.1,23.1-34.8,34.8C262.6,366.3,262.9,366.7,263.2,366.9z M462.4,446.5c31.5-35.6,49.5-77.2,53.1-125
	c0.4-4.7-0.7-5.5-5.2-5.5c-58.1,0.1-116.3,0.1-174.4,0.1c-1.4,0-3.1-1-4.3,1.1c10.3,10.2,20.7,20.3,30.8,30.8
	c3.3,3.4,4.7,4.4,7.8-0.5c6.7-10.6,19.9-14.8,32-11.1c11.7,3.6,19.8,14.4,19.9,26.8c0.1,12.4-6.1,20.9-16.4,26.6
	C424.8,409,443.5,427.6,462.4,446.5z"/>
<path style="fill:#F3B347;" d="M317.7,330.4c1.7,1.6,3,2.8,4.3,4c40.8,40.7,81.6,81.5,122.5,122.1c3.4,3.3,3.3,4.9-0.3,8
	c-35,30.1-75.4,47.2-121.5,51c-4.4,0.4-6.5-0.5-5.7-5.2c0.1-0.6,0-1.2,0-1.8c0.1-3.8-1.1-8.4,0.6-11.1c1.9-2.9,6.4,0.3,9.8,0.1
	c16.8-0.6,29.2-14.8,27.6-32.2c-1.5-15.9-17.2-27.8-33.2-24.7c-3.6,0.7-4.9,0.6-4.9-3.5c0.1-35,0.1-69.9,0.1-104.9
	C317.1,331.9,317.3,331.6,317.7,330.4z M125.2,213.8c-0.8-11.8,3.9-21,14-26.9c10.4-6.1,21-5.7,30.9,1.2
	c9.6,6.7,13.9,16.2,11.8,27.9c-0.7,3.8-0.2,4.9,4,4.9c29.8-0.2,59.7-0.1,89.5-0.1c1.9,0,3.9,0.6,5.7-0.5c-0.2-0.5-0.2-0.9-0.4-1.1
	c-42.5-41.3-85-82.5-127.3-123.9c-2.7-2.7-3.7-1.2-5.5,0.7c-15,16.6-26.9,35.3-35.7,55.9c-8.8,20.6-13.9,42.1-15.5,64.4
	c-0.3,3.8,0.8,4.7,4.5,4.6c8.1-0.3,16.3-0.1,25-0.1C125.8,218.1,125.4,216,125.2,213.8z M332.6,297c59.9,0,119.8,0.1,179.7,0.2
	c3.1,0,3.4-1.1,3.3-3.8c-0.6-10.1-1.9-20.1-4-30.1c-7.8-36.7-24.3-68.9-49.2-96.6c-43.5,43.4-86.8,86.6-130.4,130
	C332.3,296.8,332.4,297,332.6,297z"/>
<path style="fill:#CD7D42;" d="M317,554.1c0-4.2,0.4-8.4-0.1-12.5c-0.7-5.4,1.8-6.7,6.6-7c45.3-3.1,85.8-18.9,121.9-46.2
	c4.6-3.5,9-7.2,13.2-11.1c2.6-2.4,4.2-2.6,6.7,0.1c6.5,6.9,13.3,13.7,20.3,20.2c3.2,3,2.8,4.6-0.3,7.3
	c-30.2,27.1-64.8,46.4-103.7,58c-19.7,5.8-39.9,9-60.3,10.4c-3.7,0.3-4.5-1.1-4.4-4.3C317.1,564,317,559,317,554.1z M324,40.1
	c-5.2-1.3-7.5,0-7.1,6c0.6,8.7,0.4,17.5,0,26.2c-0.2,4.5,1.5,5.9,5.6,6.1c9.2,0.3,18.2,1.6,27.2,3.4c41.1,8.1,77.4,25.9,108.7,53.9
	c2.7,2.5,4.4,2.8,7.1-0.1c6.4-6.8,13-13.5,19.8-19.8c3.3-3,3.3-4.6-0.1-7.6c-45-40-97.6-62.5-157.7-67.6
	C326.4,40.4,325.2,40.4,324,40.1z M46.7,316.1c-4.1-0.3-5.1,1.3-4.8,5.1c0.9,12.7,2.3,25.3,4.8,37.7c9.6,47.6,30.7,89.4,62.9,125.7
	c2.7,3,4,2.4,6.4-0.1c6.5-6.7,13-13.4,19.9-19.8c3.2-2.9,3.3-4.7,0.4-8c-34.2-39.2-52.7-84.9-56-136.7c-0.2-3.3-1.4-3.9-4.3-3.9
	c-5,0.2-10,0-14.9,0C56.2,316.1,51.4,316.4,46.7,316.1z M568.9,297.1c3.7,0.2,4.9-0.9,4.5-4.7c-1.2-12.6-2.2-25.3-4.8-37.8
	c-9.7-47.5-30.6-89.5-62.8-125.8c-2.7-3.1-4.2-2.7-6.8,0c-6.3,6.6-12.7,13.2-19.5,19.3c-3.8,3.4-3.3,5.3-0.2,8.9
	c32.4,37.3,50.8,80.6,55,129.8c0.9,10.1,0.7,10.1,10.6,10.1c3,0,6,0,9,0C558.9,297.1,563.9,296.8,568.9,297.1z M540.2,316.1
	c-3.8-0.3-5,1-5.3,4.8c-1.1,19.3-4.7,38.2-10.7,56.6c-9.8,29.6-24.7,56.3-45.5,79.5c-2.5,2.8-2.7,4.4,0.2,7.1
	c7,6.5,13.7,13.3,20.3,20.2c2.6,2.8,4.2,3.2,6.7-0.1c3.7-4.9,8-9.4,11.8-14.2c34-44.1,52.3-94,55.8-149.4c0.2-3.9-1.1-4.8-4.6-4.6
	c-4.8,0.3-9.6,0.1-14.3,0.1C549.7,316.1,544.9,316.4,540.2,316.1z M298,541.2c0.6-5.2-1.8-6.5-6.3-6.6c-9-0.2-17.8-1.7-26.6-3.4
	c-41.2-8-77.4-26.1-108.6-54c-2.7-2.4-4.2-2.4-6.7,0.2c-6.6,6.9-13.3,13.7-20.3,20.2c-3.3,3.1-2.6,4.7,0.4,7.3
	c46.8,41.7,101.6,64.3,164.2,68.4c2.9,0.2,3.9-0.6,3.9-3.5c-0.1-5.2,0-10.3,0-15.5C297.9,549.9,297.5,545.5,298,541.2z M70.8,220.8
	c5.1,0.5,7-1,6.9-6.4c-0.2-8.3,1.4-16.6,3-24.8c7.8-40.7,25.5-76.5,53.5-107.2c2.3-2.5,2.1-3.9-0.3-6.2
	c-7.1-6.6-14.2-13.4-20.9-20.4c-2.9-3-4.2-2-6.5,0.5C68,98.6,45.8,148,39.7,204.6c-0.6,5.1-2.7,12-0.3,14.9
	c2.9,3.5,10.1,0.8,15.4,1.2c1,0.1,2,0,3,0C62.1,220.7,66.5,220.4,70.8,220.8z"/>
<path style="fill:#EC1F45;" d="M163.5,210.9c0.1,5.2-4.6,9.9-9.9,9.8c-5.2,0-9.5-4.3-9.5-9.4c-0.1-5.2,4-9.5,9.2-9.7
	C158.8,201.4,163.4,205.5,163.5,210.9z M326.9,134.9c-5-0.1-9.6,4.3-9.8,9.2c-0.2,5.1,4.5,9.9,9.8,9.8c5.2-0.1,9.2-4.2,9.2-9.5
	C336.1,139.1,332,134.9,326.9,134.9z M393.2,373.4c5.2,0.3,9.5-3.7,9.8-9c0.3-5.6-3.8-10-9.3-10.1c-5,0-9.6,4.3-9.8,9.3
	C383.8,368.5,388.2,373.1,393.2,373.4z M240.6,392.4c0,5.2,4.8,9.8,10,9.6c5.2-0.2,9.1-4.4,9-9.8c-0.1-5.3-4.3-9.4-9.5-9.3
	C245.1,383,240.6,387.5,240.6,392.4z"/>
<path style="fill:#050505;" d="M363.8,406.7c-3.2,6.3-5.8,11.8-8.8,17.1c-1.4,2.4-3.3,0.3-4.5-0.5c-4.1-2.7-12-3-11.9-7.8
	c0.2-5.6,4.5-11.2,7.7-16.3c1.6-2.6,3.9,0.2,5.6,1.1C355.9,402.2,360.4,403.7,363.8,406.7z M180.6,386.3c-4.6-2.3-9.2-4.6-13.7-6.9
	c-1.1-0.6-2,0-2.5,0.9c-2.7,5.3-5.4,10.5-7.9,15.9c-1,2.2,1.3,2.7,2.5,3.2c4.9,1.7,10.1,8.1,13.9,5.2c4.5-3.5,6.1-10.7,8.7-15.9
	C181.8,387.2,181.3,386.7,180.6,386.3z M364.2,197.8c4.3-2.8,8.7-5.6,12.9-8.6c4-2.8,10.9-4.7,11.3-8.6c0.4-3.8-4.8-8.2-7.3-12.4
	c-1.6-2.7-3-3-5.5-1.1c-4.5,3.3-9.2,6.2-13.8,9.3c-3.8,2.6-9.8,4.7-10.5,8c-0.9,3.8,4.3,7.8,6.8,11.8c0.8,1.3,1.3,3,3.3,3.4
	C362.2,199,363.2,198.4,364.2,197.8z M170.6,133.4c-0.8-1.4-2.1,0-3.1,0.4c-14.9,6.2-14.9,6.2-7.6,20.4c0.6,1.2,1.2,2.5,1.9,3.7
	c0.5,0.7,0.8,2.1,2.1,1.4c5-2.5,9.9-5.1,14.8-7.7c0.4-0.2,0.6-0.9,0.9-1.4C176.6,144.5,173.7,138.9,170.6,133.4z M265.7,469.8
	c-2.9-4.5-5.9-8.9-8.9-13.4c-8.6-12.9-8.7-12.9-21.2-3.5c-0.2,0.1-0.3,0.2-0.5,0.3c-2,1-2.2,2.2-0.9,4.2
	c5.4,7.8,10.5,15.8,15.8,23.7c0.7,1,1.4,2.7,3.2,1.5c4.5-2.9,8.9-5.9,13.3-8.9c0.4-0.3,1.1-0.6,0.7-1.4
	C266.8,471.5,266.2,470.6,265.7,469.8z M458.6,389.3c8.1-5.4,16.2-10.8,24.3-16.1c1.7-1.1,1.7-2,0.8-3.8
	c-7.6-14.6-7.8-14.7-21.2-5.8c-1.6,1.1-3.3,2.1-4.9,3.3c-3.8,2.8-10.5,4.5-10.8,8.3c-0.4,3.7,4.5,7.9,7.1,11.9
	c0.4,0.7,0.9,1.3,1.3,2c0.4,0.8,1,1.1,2.1,1C457.6,389.9,458.1,389.7,458.6,389.3z M460.1,220.7c-15.6,0.1-28.4,13.2-28.3,28.7
	c0.1,15.6,12.9,28.4,28.5,28.5c16.1,0.1,28.8-12.7,28.7-28.7C489,233.2,476.2,220.6,460.1,220.7z M397.5,251.4
	c-2.6,5.1-5.2,10.2-7.7,15.3c-0.1,0.2,0.2,0.9,0.4,1c5.8,3,11.5,7.8,17.4,8.1c3.8,0.2,4.9-8,7.5-12.2c0.7-1.2,2.5-3.1,0.7-4.1
	c-5.5-3.1-11.2-5.8-17-8.7C398.5,250.9,397.7,251,397.5,251.4z"/>
<path style="fill:#54D14E;" d="M164,325.5c0.1,5.3-3.9,9.5-9.1,9.7c-5.2,0.1-10-4.6-9.9-9.7c0.1-4.9,4.7-9.4,9.7-9.4
	C159.8,316.1,164,320.2,164,325.5z M326.6,459.2c-5,0.1-9.5,4.6-9.5,9.5c0,5.1,4.9,9.8,10.1,9.5c5.2-0.2,9.1-4.5,8.9-9.8
	C336,463.2,331.8,459.1,326.6,459.2z M460.8,239.8c-5.2-0.1-10,4.6-9.9,9.7c0.1,4.9,4.7,9.3,9.7,9.3c5.2,0,9.3-4.1,9.3-9.4
	C470,244.1,466,239.9,460.8,239.8z"/>
</svg>
