<?xml version="1.0" encoding="utf-8"?>
<!-- Generator: Adobe Illustrator 24.0.0, SVG Export Plug-In . SVG Version: 6.00 Build 0)  -->
<svg version="1.1" id="Layer_1" xmlns="http://www.w3.org/2000/svg" xmlns:xlink="http://www.w3.org/1999/xlink" x="0px" y="0px"
	 viewBox="0 0 586 586" style="enable-background:new 0 0 586 586;" xml:space="preserve">
<path style="fill:#050505;" d="M293,550.9c-35.3,0.2-65.6-23.9-73.7-58.8c-1-4.2-2.4-5.6-6.9-5.7c-46.6-1.1-81.7-47.3-70.2-92.5
	c1-3.9,0.4-5.5-3.1-7.5c-50-28.8-49.9-101.7,0.2-130.5c3.2-1.8,3.9-3.3,3-7c-5.8-25.9,0.2-49,18-68.7c2.7-3,3.3-5.1,1.6-8.8
	c-11.4-23.8-13.4-48.8-9.8-74.6c1.1-7.4,4.4-11.2,10.9-12c35.5-4.2,68,3,96.5,25.3c21.9,17.2,36.7,38.7,41.3,66.7
	c0.3,2-0.7,5.6,3.2,5.7c3.4,0.1,6.5,2.2,10.1-1.7c21.5-22.9,48-30.6,77.9-21.3c29.8,9.3,47.2,30.5,52.4,61.5
	c1.6,9.8,1,19.4-1.6,28.8c-0.9,3.1-0.1,4.2,2.4,5.7c51.6,30.4,51.6,101.3-0.1,131.6c-2.2,1.3-3.1,2.1-2.4,5.2
	c10.9,45.4-17.7,87.9-64.1,93.5c-9.4,1.1-11.8,4.3-14.3,12.4C354.9,529.9,326,550.7,293,550.9z"/>
<path style="fill:#050505;" d="M387,33.9c5.3,0.3,10.6,0.3,15.9,1.4c5.5,1.1,8.8,4.3,9.6,9.8c8,55.7-34.2,100.9-90.3,95.9
	c-1.5-0.1-3-0.3-4.5-0.5c-9-1-12.4-4.3-13.5-13.2C297.7,76.6,335.9,33.6,387,33.9z"/>
<path style="fill:#3D4C79;" d="M239.9,478.2c-0.2-11.6,2.1-19.9,6.2-27.8c1.4-2.6,2.4-3.4,5.5-1.5c27.1,16.3,54.5,16.7,81.7,0.3
	c3.4-2.1,4.9-1.1,6.5,2.1c16.4,32.7-3.2,71.5-39.3,76.6C268.1,532.4,239.9,508,239.9,478.2z M345.7,254c-0.9-22.4-17.3-42.2-39-48.1
	c-3.3-0.9-5.1-0.8-6.6,3.3c-7.5,20.6-29,33.4-49.7,29c-6.6-1.4-8.1,1.2-9.2,6.2c-8.3,37,21,66.9,51.8,65.2
	C318.2,311.4,347.1,288.9,345.7,254z M406.6,268.5c-2.2,0.3-5.2-1.1-6.3,1.2c-0.8,1.8,1.8,3.5,3,5.1c16.3,21.4,19.9,45,12.2,70.5
	c-1.1,3.8-0.8,6,2.4,8.2c4.8,3.3,8.4,7.7,11.8,12.3c2,2.7,3.3,2.6,5.9,1c20.6-12.2,30-36.6,23.4-60.7c-5.9-21.5-27.4-37.6-50.2-37.6
	C408.2,268.5,407.4,268.4,406.6,268.5z M149,366.3c3,1.8,5,1.9,7.1-1.2c3.4-4.9,7.6-9.1,12.4-12.5c2.4-1.7,2.8-3.4,1.8-6.2
	c-9.1-27-4.2-51.6,13.4-73.8c0.7-0.9,2.5-1.6,1.5-3.2c-0.6-1.1-2-0.8-3.1-0.9c-30.9-3.1-57.6,21.1-57.7,52.3
	C124.3,340.1,133.5,356.8,149,366.3z M365.5,365.8c0.9,3.5,2.4,2.9,4.8,1.6c19.8-10.6,31-36,25.4-57.8
	c-3.8-14.8-11.9-26.5-25.4-34.2c-2.5-1.4-4-1.6-4.9,1.7c-5.2,18.7-16.4,33.1-32.9,44.2C349.3,332.6,360.5,347,365.5,365.8z
	 M219.8,276.2c-1-3.7-2.7-2-4.4-0.9c-19.3,11.8-28.8,29.1-26.7,51.6c1.7,17.9,11.2,31.6,26.9,40.8c2.4,1.4,3.5,1.1,4.3-1.8
	c5.2-18.8,16.2-33.3,33-44.6C235.9,309.9,224.9,295.2,219.8,276.2z"/>
<path style="fill:#5165A1;" d="M345.3,384.1c2.1,24.7-17.8,52.1-48.8,54.3c-28.8,2-54.7-20.2-56.6-48c-2-30.3,19.5-55.6,49.1-57.8
	C319,330.4,343.3,352.6,345.3,384.1z M405.9,372.4c-2.3-2.3-3.9-2.9-6.4,0c-7.8,8.8-17.3,15.4-28.5,19.4c-2.6,0.9-3.3,2.6-3.7,5
	c-1.7,11.2-5.6,21.7-12.2,31c-1.7,2.4-1.1,4,0.4,6.1c5.3,7.8,9.1,16.3,10.8,25.5c0.7,4.1,2.4,4.7,6,4.6
	c27.6-0.7,50.3-24.3,50.4-52.5C422.7,396.1,416.9,383.2,405.9,372.4z M219.4,458.5c1.7-9.1,5.5-17.4,10.7-25c1.5-2.2,1.6-3.7,0-6
	c-6.5-9.6-10.7-20.1-12-31.6c-0.2-2.3-1.3-3.3-3.3-4.1c-11.5-4.2-21.2-11-29.4-20c-1.9-2.1-3.1-1.8-5.1-0.2
	c-15.3,12.8-21.6,36.3-14.9,56.2c6.9,20.6,26,35.2,47.3,36C217,465.3,218.6,462.8,219.4,458.5z M393.3,184
	c-19.5-9.3-38.2-7.2-55.8,5.4c-3.9,2.8-4,4.2,0,7.1c16,11.7,25.8,27.5,29.4,47.1c1.4,7.8,6.3,10.5,13.8,7.6
	c9.8-3.9,20.1-5.6,30.6-5.4c10.8,0.3,11,0.1,11.3-11.2c0-0.9,0-1.9,0-2.8C422.8,211.3,411.7,192.7,393.3,184z M163.8,242.5
	c0.5,3,1.7,4.6,5.3,4c11.7-2,23.1,0.1,34.1,4.1c9.7,3.5,13.4,1.6,15.5-8.1c0.9-4,3.6-8.9,2.3-11.9c-1.4-3-6.8-4.2-10.4-6.2
	c-13.1-7.2-24.3-16.9-33.9-28.8C164.7,209.5,160.7,225,163.8,242.5z"/>
<path style="fill:#5CC855;" d="M167.3,116.4c-0.4-4.2,0.3-8.4,0.1-12.5c-0.4-6.4,2.7-6.8,7.8-6.8c39.9-0.5,72.1,15.6,96.8,46.3
	c13.2,16.4,18.2,36.2,18,57c-0.1,13.7-12.7,24.3-27.3,23c-15.9-1.4-30.7-6.9-44-15.5C185.4,186.5,169.4,155.3,167.3,116.4z
	 M395.8,56.8c0.1-4.9-1.2-6.4-6.2-6.4c-39.5,0.1-71.6,30.3-73.7,69.4c-0.4,6.7,1,10.1,7.2,8.3C363.3,127.5,395.3,95.5,395.8,56.8z"
	/>
<path style="fill:#050505;" d="M328.5,384.8c-0.1,9.6-3,17.7-9,24.5c-4.9,5.6-11.6,6.3-16.7,2.1c-4.7-4-5-10.6-0.7-16.3
	c5.3-7.1,5.3-11.7,0-19c-4.3-5.8-3.9-12.2,0.9-16.3c4.8-4.1,11.2-3.4,16.2,1.8C325.5,368.2,328.1,376.4,328.5,384.8z"/>
<path style="fill:#050505;" d="M293.5,299c-11.5-0.4-21.3-3.8-29.4-11.5c-5-4.8-5.4-11.7-1.2-16.3c4.3-4.7,10.1-5,15.8-0.7
	c10.9,8.1,17.2,8.1,28.1,0c5.7-4.2,11.7-3.9,15.8,0.8c4.2,4.8,3.7,10.8-1.1,15.8C313.8,295.1,303.9,298.1,293.5,299z"/>
</svg>
