<?xml version="1.0" encoding="utf-8"?>
<!-- Generator: Adobe Illustrator 23.0.3, SVG Export Plug-In . SVG Version: 6.00 Build 0)  -->
<svg version="1.0" id="Layer_1" xmlns="http://www.w3.org/2000/svg" xmlns:xlink="http://www.w3.org/1999/xlink" x="0px" y="0px"
	 viewBox="0 0 602.3 602.5" style="enable-background:new 0 0 602.3 602.5;" xml:space="preserve">
<path style="fill:#472D17;" d="M532.8,136.5c5.8,19.6,7.7,38.8,5.5,58.4c-1.7,15.3-5.4,30-11.6,44.1c-1.8,4-4.8,7.2-7.4,10.7
	c-13.2,17.7-27.2,34.8-43.6,49.8c-3.1,2.8-6.2,5.8-9.8,7.7c-5.5,2.8-6.5,6.7-6.3,12.5c0.8,22.5-2.1,44.7-7.3,66.6
	c-0.6,2.6-0.9,5.1-0.9,7.7c0,32.9,0.4,65.8-0.2,98.6c-0.2,9.3,1.2,16.2,7.6,23.8c11.1,13,11.8,28.7,5.8,44.7c-0.9,2.4-2.2,3-4.6,3
	c-25.2-0.1-50.4-0.1-75.7,0c-2.9,0-3.8-1.4-4.7-3.6c-6.9-17.3-2.8-37,10.5-50c4.5-4.4,4.5-4.4,2.5-11c-7.6,7.8-15.2,15.5-23.6,22.2
	c-2.2,1.8-0.7,3.4-0.1,5.1c4.1,10.8,4.1,21.6,0.3,32.6c-1.3,3.9-3.2,4.8-7.1,4.8c-74.6-0.1-149.2-0.1-223.9-0.1
	c-7,0-14,0.5-20.9-0.3c-13.1-1.5-22.5-8.7-28.1-20.6c-1.5-3.1-3-4.2-6.6-4.3c-20.4-0.3-37.9-14.2-43.2-33.8
	c-5.2-19.3,3.2-40.8,20.4-51c3.1-1.9,3.6-3.8,3.5-7.1c-5.5-109.6,63.2-207,165.2-236.8c3.5-1,4.4-2.2,3.7-6
	c-3.7-21-3.1-41.9,2.7-62.5c0.6-2,1.5-3.9-2.4-3.7c-5.6,0.3-9.2-2.9-10.8-8.1c-4-13.3-8.1-26.5-11.7-40c-4.5-17,6.4-33.3,23.7-36.4
	c28.2-5.1,56.4-10.1,84.6-15.3c6.5-1.2,10.7,2.1,14.1,6.8c1.8,2.5,3.4,3.1,6.4,2.4c31.4-7.3,62.7-7.2,93.9,0.7
	c2.7,0.7,4.4,0.3,6-2.3c4-6.3,9.3-8.7,17.3-7.2c27.8,5.4,55.7,9.9,83.6,15c17.2,3.1,27.8,19.9,23.1,36.8
	c-3.6,13.2-7.7,26.3-11.7,39.4c-2,6.4-7.4,9.3-13.8,7.7C536.2,137.4,534.9,137.1,532.8,136.5z"/>
<path style="fill:#C48E49;" d="M237.6,446.1C237.6,446.1,237.6,446.1,237.6,446.1c-3.6-15.1-10.2-28.6-19.8-40.7c0,0,0,0,0,0
	c-1.2-2.8-3.5-4.7-5.4-7c-31.2-37.4-82.7-49.1-126.8-29c-3.8,1.7-5.8,4-6.8,8.2c-6.7,26.9-8.9,54-5.9,81.5c1.6,14.4,4,28.8,9,42.5
	c4.1,15.1,9.7,29.5,18,42.7c5.1,7.7,12.5,11.3,21.6,11.4c11.6,0.2,23.3-0.1,35,0.1c3.3,0,4.6-0.4,3.8-4.2
	c-3.8-19.2,5.3-39,22.3-48.1c18.9-10.2,36.8-7.8,53.3,5.5c2.6,2.1,3.3,2.3,4-1.4c1.2-5.6,2-11.3,2.5-17
	C243.5,475.5,242.5,460.6,237.6,446.1z"/>
<path style="fill:#C48E49;" d="M448.3,313.6c-6.7-0.6-12.5-3.5-16.1-9.3c-2-3.2-3.3-2.3-5.5-0.6c-5.6,4.4-11.9,7.7-18.7,10.1
	c-11.7,4.2-23.7,4.9-35.9,3.2c0,0,0,0,0,0c-10.9-1.6-20.9-5.9-29.3-12.7c-3.9-3.2-5-1-6.8,1.3c-6.4,7.8-17,10.4-26.2,6.1
	c-5.8-2.7-11-6.4-15.5-10.8c-10.8-10.8-21.5-21.7-31-33.8c-11.3-14.3-23.8-27.9-27.4-46.6c-0.5-2.6-2-3.2-4.5-2.4
	c-9.3,3-18.4,6.1-27.4,10c-2.3,1-3.5,2.4-4.3,4.8c-2.7,7.7-4.6,15.7-5.8,23.7c-3.2,22-1.4,43.6,6.7,64.5
	c3.3,10.5,8.2,20.3,14.7,29.2c17.4,26.1,41,43.9,71.1,53.1c4.2,2.1,8.9,3,13.5,3.6c4.3,0.5,5.5,2.3,5.4,6.7
	c-0.2,27.8-0.1,55.6-0.1,83.4c0,3.5,0.3,5.3,4.6,3.5c10.2-4.3,20.6-4,31-0.7c6.1,1.9,6.1,2,6.1-4.7c0-27.4,0.1-54.9,0-82.3
	c0-3.2,0.5-4.8,4.2-5.5c5.7-1,11.6-2,16.8-4.7c0,0,0,0,0,0c27.8-8.8,49.8-25.4,66.6-49.1c0,0,0,0,0,0c6.4-8.1,11-17.2,15-26.6
	c1.4-3.2,1.6-6.3,1.6-9.6C451.4,314.8,450.8,313.8,448.3,313.6z"/>
<path style="fill:#C48E49;" d="M519,124.8C519,124.8,519,124.8,519,124.8c-0.7-1.6-1.3-3.2-2.1-4.7c-14.8-26.8-36.7-45.5-64.9-56.8
	c-33.8-13.6-68.7-15.8-104.2-9c-31.4,6-58.8,19.7-80.1,44.1C259.2,108,252,118.5,248,131c-0.5,0.9-1,1.8-1.4,2.7
	c-6.8,17.6-9,36-7.8,54.7c0.8,11.4,2.6,22.8,7,34.7c9.3-25.4,27.2-41.9,49.2-54.9c-16.9-12.7-23.7-27.8-23.1-46.6c0,0,0,0,0,0
	c0.4-1.5,0.8-3,1-4.6c4.3-28.4,34.2-47.5,62-39.7c28.7,8.1,43.8,36.9,34.2,65.2c-1.2,3.6-1.9,5.1,3.4,4.6c8.1-0.8,16.3-0.6,24.5,0
	c4,0.3,5.1,0.2,3.5-4c-3.2-8.4-4.1-17.1-2.3-26.1c3.8-19,14.8-32,32.9-38.4c18.3-6.4,34.9-2.6,49.5,9.9c10.2,8.7,15,20.2,16.9,33.1
	c0.5,18.4-6,33.6-21,44.6c-3.3,2.4-0.6,3.3,1.1,4.2c11.8,6.9,22.2,15.4,30.8,26.1c6.3,7.8,11.2,16.5,15.3,27.2
	C534,189.1,533.7,156.6,519,124.8z"/>
<path style="fill:#65442B;" d="M231.7,555.8c-9.8,0-9.8,0-9.8-9.8c0-7.8-0.1-15.7,0.1-23.5c0.1-3-0.7-4.3-4-4.3
	c-3.5,0-4.5,1.1-4.4,4.5c0.1,9.6-0.2,19.1,0,28.7c0,3.2-0.7,4.5-4.3,4.6c-12.4,0.1-12.4,0.2-12.4-12c0-7.3-0.2-14.6,0-21.9
	c0.1-3.1-1.2-3.8-4-3.8c-2.8,0-4.5,0.2-4.5,3.8c0.2,9.7-0.1,19.5,0.1,29.2c0.1,3.7-1.2,5-4.7,4.6c-2.2-0.2-4.5,0-6.8,0
	c-7.9,0-8,0-9.2-7.7c-2.2-14.1,5.9-30.2,18.8-37.4c14.1-7.8,30.9-6.4,42.4,3.5c9.4,8.1,14,18.3,13.7,30.8
	C242.5,554.9,241.6,555.8,231.7,555.8z"/>
<path style="fill:#65442B;" d="M405.5,537.2c0,5.2-0.1,10.4,0,15.6c0.1,2.3-0.7,3.1-3,3c-2.8-0.2-5.6,0-8.3,0c-8.4,0-8.4,0-9.4-8.3
	c-1.7-14.6,5.9-29.4,18.9-36.8c13.3-7.6,29.7-6.6,41.6,3.1c12.3,10,16.7,23,13.5,38.6c-0.6,2.8-1.9,3.6-4.6,3.5
	c-4.8-0.3-11.1,1.6-14.1-0.8c-3.2-2.5-0.8-9.1-1-13.9c-0.2-6.1-0.2-12.2,0-18.3c0.1-3.4-0.5-4.8-4.4-4.8c-3.8,0-4.1,1.5-4.1,4.6
	c0.1,9.7-0.1,19.5,0.1,29.2c0.1,3.3-1,4-4.1,4c-12.6,0.1-12.6,0.2-12.6-12.6c0-7.1-0.2-14.3,0.1-21.4c0.2-3.8-1.7-3.6-4.4-3.7
	c-3-0.1-4.4,0.5-4.2,3.9C405.8,527.1,405.6,532.2,405.5,537.2C405.6,537.2,405.5,537.2,405.5,537.2z"/>
<path style="fill:#FFFFFF;" d="M317.9,536.7c0-4.9-0.2-9.8,0.1-14.6c0.2-3.5-1.2-4-4.2-3.9c-2.7,0.1-4.5,0-4.4,3.7
	c0.3,9.9-0.1,19.8,0.2,29.7c0.1,3.5-1.1,4.5-4.4,4.2c-2.8-0.3-5.6-0.4-8.3,0c-5.5,0.9-7-1.8-7.8-6.7c-2.4-14.3,4.7-30,17.6-37.9
	c13.3-8.2,29.9-7.3,42.5,2.3c11.7,9,17.4,25.4,13.5,39.1c-0.6,2.1-1.4,3.3-3.9,3.2c-4.2-0.2-8.4-0.2-12.5,0c-2.9,0.2-3.4-1-3.4-3.6
	c0.1-10.1-0.1-20.2,0.1-30.3c0.1-3.6-1.4-3.9-4.2-3.8c-2.8,0-4.4,0.2-4.3,3.8c0.3,10.1,0,20.2,0.1,30.3c0,2.6-0.5,3.6-3.4,3.7
	c-13.3,0.4-13.3,0.5-13.3-12.9C317.9,540.9,317.9,538.8,317.9,536.7z"/>
<path style="fill:#7E420E;" d="M447.1,121.6c-12.3,0-24.7-0.1-37,0.1c-3.5,0.1-4.3-0.8-3.6-4.4c2.9-16.4,17-29.7,35.4-33
	c15.4-2.7,33.2,6.1,41.4,20.4c0.3,0.5,0.5,0.9,0.7,1.4c2.5,4.6,6,10.2,3.9,14.5c-1.5,3.1-8.3,0.9-12.7,1
	C465.8,121.7,456.5,121.6,447.1,121.6z"/>
<path style="fill:#7E420E;" d="M322,121.6c-12.3,0-24.7-0.2-37,0.1c-4.1,0.1-4.4-1.2-3.8-4.7c3-16.4,17.4-29.8,35.6-32.7
	c15.5-2.5,33.3,6.4,41.3,20.7c2.2,3.9,3.8,8.1,4.8,12.6c0.7,3.3-0.1,4.2-3.4,4.1C347,121.5,334.5,121.6,322,121.6z"/>
<path style="fill:#C48E49;" d="M443.1,419.1c0,26.3,0,52.5,0,78.8c0,2.9-0.6,4.2-3.9,2.8c-11.3-4.6-22.7-4.5-34,0
	c-2.8,1.1-3.7,0.5-3.8-2.4c-0.3-5.3,0.6-9.8,4.2-14.4c14.9-18.7,26.4-39.5,35.3-61.8c0.4-1.1,0.9-2.1,1.4-3.2
	C442.5,419,442.8,419.1,443.1,419.1z"/>
<path style="fill:#65442B;" d="M426.5,290.1c-2.1-5.8-3.9-11.8-7.3-17.1c-4.7-10.7-10.8-20.5-19.6-28.3c-9.3-8.2-19.3-8.7-28.6-1
	c-9.5,7.8-16,18-20.8,29.2c0,0,0,0,0,0c-3.3,5.3-5.1,11.3-7.3,17.1c-0.7,2,0,3.1,1.5,4.4c22.1,19.9,58.3,19.9,80.6,0
	C426.4,293.2,427.2,292.1,426.5,290.1z M379.2,272.3c0.6-0.1,1.1-0.2,1.7,0C380.4,272.3,379.8,272.3,379.2,272.3z"/>
<path style="fill:#FFFFFF;" d="M416.8,129.9c1.2,0,2.4,0.1,3.6,0c4.1-0.5,6.6,0.4,8.5,5c3.2,7.9,10.1,11.8,18.7,11.7
	c8.7-0.2,15.4-4.5,18.7-12.6c1.4-3.4,3.1-4.3,6.4-4.1c4.3,0.3,8.7,0.2,13,0c2.2-0.1,3,0.4,2.6,2.9c-2.5,13.3-9.7,23.1-21.4,29.8
	c-1.9,1.1-3.3,0.4-4.8-0.3c-14.3-6.4-29.3-10.7-44.8-13c-4-0.6-6.3-2.1-7.5-5.8c-0.2-0.5-0.5-0.9-0.7-1.4
	C403.9,130.4,404.2,129.9,416.8,129.9z"/>
<path style="fill:#FFFFFF;" d="M291.6,129.9c1.4,0,2.8,0.2,4.2,0c3.9-0.5,6,0.7,7.6,4.6c3.4,8.1,10.3,12.2,19,12
	c8.7-0.2,15.3-4.6,18.6-12.7c1.3-3.1,2.7-4.2,6-4c4.3,0.3,8.7,0.2,13,0c2.5-0.1,4.1,0.3,3,3.4c-0.5,1.4-0.8,3-1.1,4.5
	c-1.6,7.3-5.3,11.3-13.4,12.2c-14,1.7-27.4,6.1-40.3,11.9c-2.8,1.3-5,1.2-7.6-0.5c-10.4-6.6-16.8-15.8-19.4-27.8
	c-0.6-2.9-0.1-4.1,3.1-3.8C286.7,130.1,289.2,129.9,291.6,129.9z"/>
<path style="fill:#7E420E;" d="M46.5,491.7c0.4-10.6,5.4-20.5,14.7-28.3c2.5-2.1,3.7-1.9,4.1,1.8c2.3,21,8,41.1,16.1,60.6
	c0.6,1.4,1.6,3.5,1.1,4.3c-1,1.6-3.1,0.6-4.8,0.2C58.8,526.1,46.3,511.3,46.5,491.7z"/>
<path d="M384.8,159.1c7.5,0.7,14.6,2.3,21.3,6.1c2.7,1.5,2.2,2.6,0.4,4.1c-5.2,4.3-10.2,8.8-15.6,12.9c-4,3.1-8.6,2.9-12.6-0.1
	c-5.2-4-10.1-8.3-15.2-12.6c-2-1.7-2.6-2.8,0.4-4.5C370.2,161.3,377.3,159.6,384.8,159.1z"/>
<g>
	<path style="fill:#65442B;" d="M320.3,46.6c-14.1,2.7-28.1,5.4-42.2,8.1c-13.4,2.3-26.9,4.3-40.3,6.9c-17.4,3.5-23.7,15-17.8,31.8
		c0,0,0,0,0,0c1.9,6.3,3.8,12.6,5.7,18.9c1.1,4.1,2.2,8.3,3.5,12.4c0.6,2,0.6,5.2,3.5,4.9c2.7-0.3,6.3-0.2,7.6-3.4
		c4.5-11.1,11.4-20.8,17.9-30.7c0,0,0,0,0,0c0,0,0,0,0,0c17.6-19.9,38.6-34.5,63.8-43.1c1.3-0.4,4.3,0,3.6-2.6
		C325,47.8,323,46.1,320.3,46.6z"/>
	<path style="fill:#65442B;" d="M532.8,61c-10.4-1.5-20.8-3.4-31.2-5.2v0c-0.8-0.3-1.6-0.8-2.4-0.9c-14.8-2.6-29.7-5.1-44.5-7.7
		c-5.7-1-5.9-0.9-8.8,4.5c24.5,8.6,46,21.8,63,41.6c7.4,9.2,14,19,18.8,29.8c0.5,1.1,1,2.6,1.9,3c3.7,1.8,7.9,3.9,11.8,3.2
		c3.2-0.6,2.7-5.1,3.8-7.9c0,0,0,0,0,0c0,0,0,0,0,0c2.1-7.3,4.3-14.6,6.4-21.9c0.2-1.4,0.6-2.6,1.1-3.9
		C560.5,77.1,552.9,64,532.8,61z M507,59.2c0.7,0.3,1.1,0.8,1.5,1.5C508,60.1,507.5,59.6,507,59.2z M542.1,91.3
		c-0.7-0.7-1.4-1.3-2.2-1.9C540.9,89.6,541.7,90.2,542.1,91.3z M530.8,82.1c-0.8-0.7-1.6-1.4-2.4-2.1
		C529.5,80.4,530.3,81,530.8,82.1z M520.3,72.3c-1.1-1-2.1-1.9-3.2-2.9C519,69.6,520,70.4,520.3,72.3z"/>
</g>
<path d="M324.3,129.2c1.7,0,3.5-0.2,5.1,0c3.3,0.4,8.2-1.8,9.5,1.4c1.5,3.8-3.4,6-6,8.3c-6.7,6.1-16.3,5.7-22.4-0.5
	c-1.6-1.6-3.6-3.2-2.8-5.8c0.9-3.1,3.5-3.4,6.2-3.4C317.4,129.2,320.8,129.2,324.3,129.2z"/>
<path d="M448.7,127.8c1.5,0,3.1-0.2,4.6,0c3.8,0.5,9.6-2.1,10.9,1.7c1.4,4.1-4.3,6.9-7.4,9.5c-6.8,5.8-18.2,4.7-23.2-1.8
	c-1.5-1.9-3.3-4.1-2.3-6.7c1-2.7,3.8-2.7,6.3-2.7C441.3,127.8,445,127.8,448.7,127.8z"/>
<g>
	<path style="fill:#9F5617;" d="M516.8,229.9c-3.3-11.8-9-22.2-17.1-31.2c-16.8-18.7-38.3-29.5-62.1-36.4
		c-8.9-2.6-17.8-4.8-28.3-5.4c2.8,2.2,4.7,3.4,6.3,4.9c3.2,3,3.7,7.3,0.5,10.1c-8.1,6.8-15.3,14.8-25,19.4c-2.2,1-2.2,2.3-2.2,4
		c0,10.4,0.1,20.9,0,31.3c0,2.4,0.5,3.8,3.1,4.4c6.3,1.5,11.2,5.3,15.8,9.7c6.6,6.3,11.4,14,16,21.8c5.4,10.7,9.9,21.7,13.4,33.1
		c2.7,9,11.8,12.3,20,7.5c2.8-1.6,5.6-3.5,8.1-5.6c17.1-14.5,31.6-31.5,44.8-49.6c1.4-1.7,2.6-3.7,4.3-5.2
		C518.2,239,518.1,234.8,516.8,229.9z"/>
	<path style="fill:#9F5617;" d="M372.6,232.4C372.6,232.4,372.6,232.4,372.6,232.4c2.5-2,7.9,0.4,7.9-5.4c0-10.6,0-21.2,0-31.8
		c0-1.5,0.3-2.8-1.8-3.8c-9.9-4.3-16.9-12.6-25.1-19.2c-3.7-3-3.1-7.6,0.6-10.9c1.6-1.4,3.3-2.5,5-3.8c-33.8,4.2-64.5,14.7-88.4,40
		c-7.7,8.1-13.9,17.3-16.6,28.4c-3.2,6.3-3.4,11.8,1.6,17.9c9.2,11.3,18,23,27.9,33.7c8.6,9.3,17.2,18.7,28.3,25.3
		c8.7,5.2,17.5,1.7,20.7-7.9c1.7-5.1,3.2-10.3,5.3-15.2C345.6,261.2,354.5,243.4,372.6,232.4z"/>
	<path style="fill:#9F5617;" d="M399.2,398c-1.5,1.5-2.7,3.5-5.3,3c-9.2,4.4-18.5,8.3-28,11.8c-10.8,1.3-10.8,1.3-10.3,11.5
		c0,4.2,0,8.4,0,12.5c-0.1,1.9-0.2,3.8-0.2,5.7c0,18.6,0.6,37.2-0.4,55.7c-0.3,6.6,0.4,11.2,5.6,15c0.1,0.1,0.2,0.3,0.3,0.4
		c1.4,2.2,2.7,1.8,4.5,0.2c27.1-23.1,48-50.8,62.6-83.3c3-7.6,5.9-15.1,8.9-22.7c0-2-0.1-4.1,1.9-5.5c3-8.3,5.2-16.7,7-25.3
		c2-10,3.7-20.1,4.5-31.2C424.9,379.4,424.9,379.4,399.2,398z M389.1,410.4c0-0.1-0.1-0.1-0.1-0.2c0.1,0,0.3-0.1,0.4-0.1
		C389.3,410.2,389.2,410.3,389.1,410.4z M409.9,410.6c0-0.1-0.1-0.1-0.1-0.2c0.1,0,0.2,0,0.3,0C410,410.5,409.9,410.5,409.9,410.6z
		 M430.9,410.4c-0.1,0.1-0.1,0.1-0.2,0.2c0-0.1-0.1-0.1-0.1-0.2C430.7,410.4,430.8,410.4,430.9,410.4z"/>
	<path style="fill:#9F5617;" d="M296.8,497.4c0-4.2,0-8.3,0-12.5c0-1.7,0-3.5,0-5.2c0.1-20.5,0.1-41,0.2-61.6c0-2.5-0.9-3.4-3-3.8
		c-20.6-4.4-38.7-13.9-55.5-26.3c-0.5-0.5-1-1-1.5-1.4c-42.6-36.8-59.6-82.8-49.8-138.4c0.7-4.1,1.7-8.2,2.8-13.2
		c-51.8,28.8-86.6,70.5-106.2,125.3c2.1,0.6,3.2-0.5,4.4-0.9c30.1-11.5,59.8-10.7,89.2,2.4c19.3,8.6,34.7,22.2,47.7,38.6
		c7,10.5,13.3,21.4,17.7,33.3c6.9,18.8,9,38.3,8.2,58.2c-0.2,1-0.5,2.1-0.5,3c-1.3,8.2-2.6,16.5-4.9,24.5c-0.4,1.3,0,2.4,0.6,3.5
		c4.6,9.5,6.4,19.4,3.9,29.8c-0.6,2.5,0,3.3,2.7,3.3c8.3-0.2,16.7-0.2,25,0c3.6,0.1,4.3-0.9,3.6-4.3c-3.2-16.4,1.9-30.2,13.7-41.6
		c2.6-2.5,3.9-4.5,2.5-8C296.9,500.6,297,498.9,296.8,497.4z"/>
</g>
<path style="fill:#E8E0D0;" d="M399.2,398c-1.2,1.9-1.1,6.1-5.3,3C395.7,400,397.5,399,399.2,398z"/>
<path style="fill:#E8E0D0;" d="M437,407.9c-1.3-2.5-2.1-4.8,1.9-5.5C438.8,404.4,438.2,406.2,437,407.9z"/>
</svg>
