<?xml version="1.0" encoding="utf-8"?>
<!-- Generator: Adobe Illustrator 23.0.3, SVG Export Plug-In . SVG Version: 6.00 Build 0)  -->
<svg version="1.1" id="Layer_1" xmlns="http://www.w3.org/2000/svg" xmlns:xlink="http://www.w3.org/1999/xlink" x="0px" y="0px"
	 viewBox="0 0 512.2 394.5" style="enable-background:new 0 0 512.2 394.5;" xml:space="preserve">
<g>
	<g>
		<path style="display:none;fill:#FDFDFD;" d="M-1,275.8c-2.1,1.2-4.3,2.2-6.5,3c4.2,1.4,8.4,2.9,12.6,4.3c-0.9-3.2-1.7-6.4-2.4-9.7
			C1.5,274.2,0.3,275-1,275.8z"/>
		<path style="display:none;fill:#FDFDFD;" d="M103.3,308.3c1.5,0.3,2.9,0.5,4.4,0.8c-1.4-1.5-2.8-3-4.3-4.5
			C103.4,305.9,103.3,307.1,103.3,308.3z"/>
		<path style="display:none;fill:#FDFDFD;" d="M50.9,522.9c-9.6-7.2-16.4-15.8-16.6-28.3c-3.7,12.7-9.8,24.9-18.3,34.9
			c18.2,0,36.4,0,54.6,0C63.6,528.9,56.7,527.2,50.9,522.9z"/>
		<path style="display:none;fill:#FDFDFD;" d="M566.6-24.2c0-3.3-0.7-4.1-4.1-4.1c-116.9,0.1-233.8,0.1-350.6,0.1
			s-233.8,0-350.6-0.1c-3.3,0-4.1,0.7-4.1,4.1c0.1,183.2,0.1,366.5,0,549.7c0,3.3,0.7,4.1,4.1,4.1c12,0,24,0,36,0
			c-3-11.2-2.2-23.5,0-35.1c1.7-8.8,4.8-17.3,7-26c0.2-0.6,0.3-1.2,0.5-1.8c-6.6-9.3-10.6-20.7-12.2-31.7c-2.2-14.9-2-29.5-1-44.5
			c1.1-16.6,2.2-33.7,6.1-50c4.5-18.4,14.8-37.8,30.7-48.1c2.3-7.4,7.8-13.8,14.7-17.9c-2.9-0.8-5.8-1.8-8.6-2.9
			c-8.9-3.5-17-7.3-23.7-14.4c-3-3.2-5.4-6.6-7.3-10.1c-7.9-1.8-15.3-5.8-21.2-12.3c-10.8-12-14.1-26.8-15.2-42.4
			c-1.7-23.7,2.9-48.3,7.3-71.4c3.1-16.5,6.7-33.1,10.2-49.5c3.6-16.7,10.2-34.9,23.3-46.4c11.4-10.1,23.8-14.1,38.8-15.6
			c3.2-0.3,6.5-0.5,9.7-0.6c1.5-0.2,2.9-0.2,4.4-0.2c3-0.1,6-0.3,9-0.6C-21.7,6.6-13.1,5-4.4,4.4C5.6,3.6,16.2,5,25.9,7.3
			c12.2,3,24.1,8.4,35.2,14.7c0.8,0.1,1.6,0.1,2.4,0.2c3.6-4.5,7.6-8.6,12.8-11.7c12-7.3,25.9-7.9,38.7-2.5
			c18.1,7.6,27.5,25.2,34.3,42.5c5.8,14.6,7.2,30.6,3.3,45.9c-4.5,18.3-17.6,36.6-34.8,44.9c-8.3,4-16.2,5.4-25.1,3.6
			c-0.9,8.3-2.8,16.5-5,24.5c3.4,3.4,6.3,7.2,8.9,11.3c6.6,10.6,9.4,22.9,13.6,34.5c1.5,2.9,3.1,5.7,4.9,8.4
			c7.8,9,17,16.5,25.9,24.3c4.9,4.3,9.8,8.8,14.1,13.8c4.6,5.2,8.6,10.9,12.6,16.6c1.8-0.2,3.6-0.3,5.4-0.2
			c5.7,0.2,11.9,1.1,17.3,3.2c10.8,4.1,21.2,10.1,28.7,19.1c13.1,15.8,23.8,37.7,18.1,58.7c-7.5,27.4-35.3,37-61,34
			c-8.1-0.9-16.1-2.4-23.9-4.1c0.1,1.9,0.2,3.8,0,5.7c-0.7,9.7-3.9,18.5-9.8,25.6c7.2,3.6,14.1,8,20.6,12.9c-0.9-0.7-1.7-1.3-2.6-2
			c4.6,3.1,8.6,6.2,12.3,9.8c0.2-0.1,0.4-0.2,0.6-0.2c6.7-3.1,13.2-6.8,19.2-11.1c6.4-5.4,12.2-11.5,17.6-18
			c5.4-7.4,10.1-15.1,15.2-22.7c5.9-9,12.1-17.8,16.9-27.4c4.8-13.5,7.2-27.7,15.7-39.7c6.2-8.7,13.7-16.3,23.4-20.9
			c10.2-4.9,19.1-6.7,30.4-7.8c24.8-2.4,50.4-0.3,75,3c15.6,2.1,31.2,4.3,46.8,6.7c10.8,1.6,22,3,32.5,6c19.5,5.6,35.4,20.5,36,41.8
			c0.3,11-3.8,21.1-11,28.8c17.9,8.5,29.9,28.5,24.5,48.4c-4.7,17.5-19.5,29.9-34.9,38.2c-6.8,3.7-13.9,6.7-21.2,9.1
			c0.3,3.7,0.1,7.4-0.8,11.4c-1.9,8.2-8.5,15.8-15.5,20.1c-16.6,10.2-35.9,10-54.6,12.1c-13,1.9-25.9,4.2-38.9,5.5
			c-15.3,1.6-30.2,0.9-45.4-2c-21.8-4.2-30.1-31.8-20.1-49.4c3-5.3,7-9.8,11.6-13.6c-4.9-0.9-9.6-2.5-14-5.3
			c-5-3.2-8.8-6.8-11.8-10.9c-7.4,10.6-15.4,20.7-24.7,29.5c-15.9,15-33.9,25.3-54.2,33c-20.4,7.7-41.7,14.1-63.1,18.5
			c-13,2.7-26.4,4.8-39.6,5.5c-0.7,0-1.5,0.1-2.3,0.1c158.7,0,317.4,0,476.1,0c3.3,0,4.1-0.7,4.1-4.1
			C566.5,342.2,566.5,159,566.6-24.2z"/>
		<path style="fill:#473728;" d="M134.2,109.8c2.1,1.3,4.3,2.7,6.4,4c21.1,4.5,42.5,6,63.9,8.3c31.1,3.4,60.9,12.1,89.9,23.7
			c16.2,6.5,32.7,12.7,46.6,23.5c8.1,6.2,15.9,13.2,17.8,24.2c-2.5,1.7-4.8,0.3-6.9-0.8c-10.6-5.4-21.7-5.2-32.8-2.9
			c-18.4,3.8-35,12.4-52,19.9c-18.8,8.2-38.3,9.1-58,5.5c-19.2-3.5-26.1-14.3-22.5-33.4c1.3-6.9,2.1-13.7,1.8-20.7
			c-0.3-7.1-2.1-13.7-5.5-19.9c-5.6-10.2-17.1-12.4-26.2-5c-4.4,3.6-7.6,8.2-10.9,12.8c-2,2.9-4.5,4.1-7.1,1.2
			c-2.1-2.3-8.2-3.4-4.1-8.4c1.6-2-0.2-1.3-0.6-1.6c-1.4-1.2-3.1-2.4-1.8-4.4c1.4-2.1,3.5-1.2,5.5-0.6c1.6,0.5,2.4,2.6,4.4,2.1
			c0.4-2-0.9-3.6-1.1-5.4c0.1-2-0.8-4,0.5-5.9c2.8-1.7-0.1-2.4-0.8-3.2c-2.5-3.1-6.8-4.4-8.3-8.5c-0.5-1.5-1.1-3.1-0.1-4.6
			C133,109.5,133.6,109.5,134.2,109.8z"/>
		<path style="fill:#D59C5F;" d="M75.7,235.2c-0.4-0.1-0.8-0.2-1.1-0.2c-1.9-3.5-0.7-6.8,0.5-10.1c2.6-1.7,3.7,0.8,5.2,1.9
			c1.7,2.1,2.1,4.6,2.3,7.2c0-2.8-0.9-5.7,0.5-8.4c1-1.4,1.4-3.1,2.1-4.6c0.9-1.9,2.1-3.6,4.2-1.1c-1.7,3.1,0.9,6.9-1.3,10
			c1.7-2.5,0.5-5.4,0.8-8c3.6-1.6,2.8-7,7-8.1c3.4,3.1-0.2,7.9,2.8,11.1c2.4-0.5,4.3-1.9,5.9-3.6c4.5-4.3,9-8.6,11.9-14.3
			c2.2-3.9,5-7.4,6.2-11.8c0.2-0.6,0.4-1.1,0.7-1.7c0.9-1.9,2.2-3.5,3.6-5.1c1.8-2.7,1.3-6.1,3.1-8.8c0.7-1.1,2.2-1.4,2.5-2.8
			c0.1-0.5,0.3-1.1,0.4-1.6c0.8-2.4,0-5.3,2.3-7.3c1.7-0.7,2.5-2.1,3.1-3.7c0.5-1.1,1.3-2,2-3c0.3-0.6,0.7-1.1,1-1.6
			c3.5-6.8,8.7-11.9,15.3-15.5c4-2.2,8.2-2.9,10.4,2.8c0.6,4.8,1.9,9.5,2.8,14.3c0.9,4.5,1.8,9.2-1.1,13.4c-1.1,1.4-2.7,0.4-4.1,0.9
			c1.8,2.7,5.6,3,6.6,6.4c0.3,1.3,0.2,2.5-0.4,3.7c-6,2.2,0.3,3.8,0.3,5.7c0.3,1.7-0.3,3-1.6,4.1c-4.7,2.6,2.8,3,1,5.1
			c-3,0.9-0.3,4.6-2.8,5.8c-0.3,0.6-2.8-0.7-1.2,1.4c0.8,1.1,1.5,2.1,1.6,3.5c-0.3,1.9-1.3,3.4-2.8,4.6c-3.2,2.1,0.7,4.1,0.2,6.2
			c-0.1,1.5-0.6,3-1.3,4.3c-1.5,1.7-1.3,3.7-1.3,5.8c-0.3,1.9-0.7,3.9-1.6,5.6c-1,1.5-0.7,3.1,0.3,4.4c5.5,7.5,3.6,15.2-0.5,22.1
			c-5.1,8.7-6.1,18-6.6,27.6c-0.7,15.4,0.2,30.8-0.5,46.3c-0.3,6.7-0.8,12.9-5.5,18.8c-3.5,4.4-4.5,10.6-6.7,16
			c-1.4,3.3-3,6.5-4.8,9.6c-5.2,8.9-15.8,12.7-25.5,9.2c-4.9-1.8-5.7-5.3-2.2-9.3c2.8-3.2,7.1-3.8,10.2-6.4
			c6.4-4.1,10.2-9.2,11.1-17.5c3.4-31.1-1.4-61.2-9.9-90.9c-0.8-2.8-0.7-5.8-2.1-8.4c-1.4-6.2-2.5-12.5-2.6-18.9
			c-0.3,7.5,2.3,14.8,2,22.2c-0.2,2.5,0.2,5.1-2,7c-3,0-2.3-2.6-3-4.3c-0.8-2.2-0.3-4.9-2.3-6.9c-0.3-0.7-1,0.4-0.2,0
			c0.2-0.1,0.3,0.1,0.6,0.4c0.9,1.2,0.9,2.4,0.2,3.7c-1.3,1.1-2.4,0.4-3.6-0.2c-5.9-6.2-12.7-11.3-20-15.7
			C82.9,243.1,79.3,239.1,75.7,235.2z"/>
		<path style="fill:#D59C61;" d="M7.3,113.8c-0.5-1.4,0.3-3.3-1.5-4.2c5.3-8.3,9.4-17.2,10.6-27.1c-1.6-13.6,5-23.2,15.3-30.9
			c3.4,1.7,1.1,3.7,0.2,5.4c-1.4,2.5-3.3,4.9-4,7.6c-0.5,1.7,1.2-0.4,1.7,0.2c1.5,0.3,3,0.7,4.5,0.7c3.4,0.6,3.2,2.4,1.6,4.8
			c-1.6,2.4-4.4,3.9-5.1,6.8c0,1.2,0.6,2,1.6,2.7c3.8,1.9,9.4,1.8,9.8,7.6c0.6,7-2.7,12.4-8.5,16.3c-2.8,1.4-2.9,3.1-0.5,5.1
			c4,3.3,5.7,7.9,7.1,12.7c2.5,8.5,8.5,15.1,12.7,22.7c1.9,3.5,5.7,5.1,9.9,4.1c4.8-1.1,7.6-4.6,8.6-9.3c1-5.1,1.6-10.2,6.1-13.7
			c4.6-4.2,6-10,7.7-15.6c0.8-2.5,1.8-4.8,3.7-6.8c-1.1,0.2-2.1,0.5-3.2,0.4c-6.5-2-10.5-6.9-11.1-13.2c-0.3-3.5,1.1-5.6,4.5-6
			c3.1-0.4,6.2-0.7,8.6-2.9c0.4-0.5,0.7-1,0.8-1.6c0.5-2.4-0.6-4.2-2.1-6c-1.4-1.6-3.5-3-2.9-5.6c0.1,0.9,0-1.1,0.5-0.4
			c0,0.1,0.4-0.1,0.6-0.2c-4.5-0.7-8-6.2-13.3-2.9c-1.9,2.5-2.5,6-5.3,7.9c-0.7,0.2-1.5,0.1-2,0.8c-1.4,7.5-2.7,8-11.8,5.4
			c-1.7-2.7-1-5.8-1.3-8.6c-0.5-3.1-2-5.5-4.6-7.3c-2.2-1.6-4.1-0.8-6.2,0.4c-2.5,1.5-5.1,3-8.2,1.6c-1.8-1.3-0.9-2.8-0.2-4.2
			c4.3-8.6,17.2-11.2,24-4.4c3.3,3.3,4.8,3.3,8.3,0.3c4.7-4,10.5-4.8,16.2-1.2c3,1.9,6.2,3.6,9.3,6c-8-19.6-28.3-24.3-43.7-16.6
			c-2.4,1.2-4.5,2.9-6.9,4.2c-1.9,1.1-3.9,1.7-4.5-1.5c3.8-7.5,9-12.8,18.3-11.7c1.8,0.2,3.6,0.2,5.4,0c21.4-2.7,34.5,8.1,42.1,26.8
			c3.2,8,5.9,16,11.4,22.8c-0.4,0.6-0.8,1.2-1.2,1.7c-1.9,2-0.6,4.7-1.4,6.9c-1.7,5.8-2.2,11.7-1.9,17.7c0.4,8.9-0.3,17.7-1.8,26.5
			c-0.4,1.8-1,3.5-1.4,5.3c-0.8,1.9-1.3,4.2-4.1,4.2c-4.9-9.4-8.3-9.7-16.3-2.5c-11.1,10.1-12.1,23.2-11.5,36.9
			c-2.9,3.6-2.9,3.6-2.9,13.8c0.7-2.6,0.6-5.1,1.2-7.6c1.3-3.8,2.6-7.6,7-8.9c0.7,0,1.2,0.3,1.6,0.8c1.4,2.9,0.6,6,1,8.9
			c0,0.2,0.2,0.4,0.4,0.5c0.2,0,0.4-0.1,0.6-0.2c1.7-1.5,3.7-1.9,5.8-2c1.7-1.4,1.6-3.9,3.3-5.4c1.2-1,2.5-1.5,4-1.4
			c0.8,0.2,1.6,1.1,2.4-0.1c0.6-2.6,0.3-5.5,2.8-7.3c1.5-1,1.8-2.8,2.4-4.3c1-1.8,1.9-3.6,2-5.6c0.3-1.8,1-3.5,1.7-5.2
			c1.1-2.5,1.8-5.1,2.7-7.6c0.4-1.1,0.8-2.3,1.2-3.4c0.6-1.5,1.2-3,2.5-4c0.7-0.2,1.3-0.2,2-0.1c3.7,1.3,5.2,4.3,5.8,7.9
			c-4.7,13-7.8,26.7-13.9,39.1c-3.4,7-8.4,13.3-14.4,18.5c-10.4,8.9-21.9,9-33,0.9c-1.1-2-3.6-1.7-5.1-3c-1.1-2-1-4.2-1.7-6.3
			c-0.2-1.7-0.4-3.4,0-4.9c-0.9,1.7,0.6,4.8-2.9,5.2c-2.2-2.1-1.6-5.4-3.4-7.7c-1.3-2.3-0.2-5.3-2.4-7.2c-1.7-0.9-4.4-0.6-4.3-3.7
			c0.5-3-0.3-6.2,1.7-8.9c2.1-1.3,4-0.9,5.7,0.7c2.2,2.9,1.7,6.3,2.1,9.6c0,0.9,1.5-0.2,0.6-0.1c-0.2,0-0.3,0-0.3-0.1
			c-0.8-2.3,0-4.2,1.2-6.1c1.3-1.1,2.7-1.8,4.4-1.3c1.1,0.9,1.4,2.1,1.4,3.4c0.1,2.7,1.2,0.1,1.8,0.3c1.7-0.4,3,0.3,4,1.6
			c1.5,2.5,1,5.3,0.8,8c0.1-1.8,0.8-3.4,1.4-5c2.5-5-1.3-8.5-2.9-12.5C56.3,160.9,49,152.6,40,145.6c-3.1-2.4-6.4-4-10.3-4.4
			c-0.8-0.9-0.9-1.9-0.4-3c-2.3,3.3-2.6,8.1-7.4,9.5c-1.2-1.1-1.9-2.9-3.8-3.2c-0.2-3.3,2.9-4.6,4-7.2c-1.6,0.5-2,3.5-4.5,2.3
			c-0.8-1.9-6,1.1-4.2-3.7c2.5-0.4,3.4-2.5,4.7-4.6c-1.3,1.4-1.8,3.6-4.2,3c-0.5-0.9-1-1.8-1.4-2.7c-0.8-4.7,3.3-8,3.3-12.5
			c-1.8,2.8-0.9,7.2-5.1,8.6c-2.3-1.8-1.9-4.9-3.4-7.1c-1-3.5,2.9-5.1,3-8.1c0.8-0.7-0.6-1.1,0-0.4c0.1,0.1-0.1,0.2-0.4,0.5
			C9.3,113.2,8.6,114.1,7.3,113.8z"/>
		<path style="fill:#E4C49E;" d="M163.2,225.7c0.1-1.5-0.3-3.1,1.4-4.1c2.1-0.6,3.2,0.8,4.4,2c-1.3-2.9-5.1-4.7-4.4-8.7
			c0.9-1.4,1.8-2.7,2.7-4.1c2.3-1.1,4.3,0.6,6,0.7c-2.3-1.7-6.8-1.4-6.2-6.4c1.1-1.5-0.3-4.5,2.8-4.9c1.3-0.9,2.5-0.4,3.6,0
			c-1.6-1.9-4.9-2.5-5.1-5.8c0.5-1.2,1-2.5,1.4-3.7c2.8-2,5.3-0.4,7.9,0.5c3.5,1.4,4.8,4.3,4.9,7.8c0.1,5,0.1,10.1,0.1,15.1
			c0.2,13.6,7.3,20.1,20.8,20.8c12.6,0.7,23.7-3.5,34.9-8.3c7.5-3.2,15.3-4.7,23.4-4.8c3.5,1,6.1,3.2,8,6.3c0.3,0.5,0,1.9,1.2,1.2
			c0.3-0.2,0.3-1.2,0.6-1.8c1.6-1.5,3.4-1,5.2-0.6c4,1.9,4.5,6.7,7.7,9.3c2.4,2.5,1.4,4.5-1.6,4c-7.1-1.2-14.1,0.4-21,0.9
			c-0.5,0.1-0.9-0.5-1.4-0.1c0.7,0.8,1.3,1.6,1.5,2.7c-0.3,1-1,1.5-2,1.7c-3.2-0.1-5.7-2.4-8.8-2.9c-2.7-0.4-5.3-0.4-7.4,1.9
			c-0.7,0.6-1.5,1.1-2.4,1.3c-1.8,0.7-3.7-0.4-5.4-0.1c3.6,1.8,8.8,0.5,10.7,5.6c-4.4,0.3-8.2,2.5-12.1,4.1
			c-4.6-2.4-9.4-3.8-14.6-3.4c7,0.7,7,0.7,9.2,3.6c-2,2.9-5.8,1.6-8.2,3.6c-6.2,0-12.1-2.5-18.1-1.9c4,1.8,9.5-1.8,12.9,3.3
			c-2.2,1-4.9-0.8-6.8,1.4c-8.2,2.9-16.7,1.4-25,0.9c-4.7-0.3-9.1-2-13.7-3.1c-5.2-1.2-8.3-3.4-6.1-9.2c1-2.7-0.7-4.7-1.8-6.8
			c-1.2-2.3-3.1-4.5-2-7.4c0.2-1.8-0.5-3.8,1.2-5.2c2.5,0.2,3.7,2.2,5.2,3.5C166.3,231.6,162.2,229.7,163.2,225.7z"/>
		<path style="fill:#A97D54;" d="M260.1,244.8c0.5-0.4,0.9-0.9,1.4-1.3c2.8-2.3,5.3-0.1,7.8,0.7c1.2,0.4,2.4,1.5,2.5-1
			c0.3-1.2,0.8-2.2,1.9-3c4.6-0.3,7.6,5,12.5,3.4c0.9-0.1,1.8,0.1,2.7,0.6c1.1,0.6,1.1,2.4,2.5,2.8c1-1.5,0.9-3.4,2-4.8
			c0.5-0.5,1.1-0.6,1.7-0.4c3.4,3.9,1.8,8.5,1.9,12.9c0.1,2.6-0.5,5.3-0.4,7.9c0.2-1.9-0.6-4.1,1.3-5.8c3.3,1.8,2.8-3.7,5.6-2.9
			c2.4,5.4,1.3,11.6,3.8,17c0.4,0.8-0.4,0.1,0.2,0.6c1,0.7,0.1-0.8,0.7-0.9c1.8-1.7,2.7,1.3,4.3,0.8c3.3,4.1,5.1,9.7,11.2,11
			c1.3,0.8,2.6,1.3,4.2,1c7.1,6.1,14.9,10.4,24,13c6.7,1.9,8.7,8.5,5.3,15.5c-4.6,9.6-12.6,16.3-20.2,23.2
			c-10.5,9.4-20.4,19.7-32.9,26.5c-0.6,0.3-1.2,0.7-1.5,1.3c-6.4,12.1-17.6,10.4-28.4,10c-3-0.1-6-0.8-6.8-4.3
			c-0.9-3.6,1.2-5.9,3.7-8c3.9-3.3,8.7-1.3,13-2.5c11.4-1.6,18.3-10,25.3-17.7c5.3-5.8,10.3-11.9,15.3-17.9c7.5-9,6.9-15.5-2.2-23.1
			c-3.8-3.2-7.8-6.1-12.1-8.5c-9.8-5.5-18.1-12.4-23.4-22.6c-1.1-2.2-2.7-4.1-4.4-6c-6.6-7.5-14.9-7-20.1,1.3c-1.9-0.5-2.1-2-2-3.5
			c0-0.9-1.2,0-0.4-0.3c0.1,2.3,0.9,4.7-1.5,6.4c-2.2,2-0.2,4.6-1.1,6.9c-2.1,0.2-2.2-1.4-2.5-2.8c-0.8-6.8,0.8-13.5,0-20.3
			c0-0.5-0.1-1-0.1-1.4c-0.8-0.8-0.8-1.6-0.4-2.6c1-0.8,2.2-0.7,2.9,0.1C261,250.6,259.1,245.1,260.1,244.8z"/>
		<path style="fill:#463729;" d="M409.9,223.2c0.3,0.9,0.6,1.8,1,2.7c-0.2,4.2,3.7,4.1,6.1,5.5c1.7,1,4-0.4,5.4,1.4
			c0.2,4.2,5.2,4.3,6.5,7.6c-1.6,1.8-3.2,0.7-5.4-0.3c6.2,3.8,12,6.7,18.4,8.5c1.2,2.5,4,3.4,5.8,5.3c-2.3,2.5-5.2,1.5-7.6,1.5
			c2.3,1.1,5.1,0.4,7.8,0.8c3.4,0.6,0.3-1.6,1-2c2.5,0,5.1,0,7.6,0c-0.1,1.9-2.9,1.9-2.7,4c0.1,2.4,2.1,2.6,3.7,2.9
			c5.1,1,10.3,1.6,15.5,1.3c1.6,0.3,3.3,0.6,4.9,1c0,0.3,0,0.7,0.1,1c-1.9,0.3-3.7,0.6-7.1,1.2c4,0.9,6.5,1.4,9,2
			c2.7,2.8,6.2,1.9,9.4,2.1c2.3,0.2,4.9-1.5,7,0.7c-0.4,0.8-0.8,1.5-1.2,2.3c-0.6,1.7,0.5,1.8,1.7,1.7c1.8,0,3.6-0.4,4.9,1.4
			c0,6.4,4.8,3.5,7.8,4c-0.8,3.2-3.6,2.3-5.7,2.5c-2.1,0.2-4.2-1.3-6.5-0.4c1,0.6,2.1,0.8,2.9,1.6c-0.9,4.4-4.8,4.2-7.8,4.4
			c-31.1,1.8-56.5-10.2-76.2-33.7c-10.3-12.2-21-23.8-32.9-34.4c-1.4-1.2-3-2-4.5-2.9c-9.4-5.2-13.4-14.7-18.4-23.3
			c-4.6-8-9.7-15.5-16.2-22.1c-1-1.1-2.7-2.2-1.1-3.8c1.2-1.2,2.6-0.2,3.6,0.6c4.7,4,11.1,6.1,13.9,12.2c0.2,5.5,4.4,7.9,8.1,10.8
			c5.6,4.3,11.4,8.3,18.2,10.4c3.6,0.8,4.1,4.7,6.7,6.6c-1.8,1.6-3.6,0.4-5.4,0c2.9,2.2,7.6,0.4,9.9,4.3c0,0.4-0.1,0.8-0.5,1.1
			C398.8,220.6,405.3,220.7,409.9,223.2z"/>
		<path style="fill:#110502;" d="M284.5,359.2c-1.8,2.4-4.1,0.9-6.2,0.8c-3.4-0.1-6,1.3-8.3,3.7c-1.3,1.4-2.2,2.9-1.7,4.8
			c0.5,2.2,2.4,2.5,4.2,2.6c5.1,0.3,10.3,0.5,15.5,0.5c2.5,0,5.3-0.3,6.8-2.4c8.5-11.7,22.6-16.7,32.1-27.2
			c6.6-7.3,15.2-12.6,21.5-20.2c2.3-2.8,4.5-5.6,6.4-8.6c4.9-8.2,2.8-13.4-6.4-16c-8.6-2.4-16-6.8-22.1-13.4c-1.4-1.1-2.8-2.3,0-3.1
			c1.6-0.5,3,0.7,4.3,1.6c15,10.8,32.2,14,50.1,14.5c6.7,0.2,13.4-0.2,20.1,0.3c3.1,0.7,6.2,0.9,9.2,1.9c2,0.6,4.4,1.2,3.2,4.6
			c-1.1,3,2.1,4.2,3.7,5.8c7.9,8,16.3,15.5,19.6,26.9c1.1,3.9,2.1,7.8,2.5,11.8c0.7,6.8-0.8,12.8-7,17c-3,2-6.2,4.4-5.9,8.9
			c1.8-2.9,2.9-6.5,6.1-8.4c1.3-0.8,2.9-1.8,4.3-0.7c1.7,1.3,0.4,2.8-0.3,4.2c-0.6,1.2-1.5,2.3-1.9,3.6c-0.7,2.1-0.7,4.1,1.7,5.1
			c2.5,1,3.8-0.4,4.5-2.6c0.9-2.8,1.8-5.6,3.8-7.8c0.7-0.8,1.6-1.7,2.9-1.2c1.3,0.5,1.1,1.8,1,2.9c-0.1,0.9-0.4,1.7-0.6,2.6
			c-0.4,2.1-1.5,4.8,1.6,5.6c2.7,0.7,4.7-0.9,6-3.3c1.3-2.6,0.9-5.2,0.4-7.9c-1.8-9.7-4.7-19.2-7.5-28.6
			c-3.9-13.3-8.6-26.6-9.2-40.6c-0.5-11.9-5.8-19.3-17.6-21.9c-4.6-1.5-9-3.5-13.4-5.5c-2.2-1-4.4-2.1-5-4.8c2.1-3.7,5.2-2,7.6-1
			c6.6,2.9,13.4,5,20.3,7.1c7.6,2.3,12.5,7.3,13.3,15.2c0.8,7.7,4.8,11.4,12,13c3.4,0.8,7.2,1.4,9.3,4.8c1.7,0.4,3.6,0.2,5.2,2.6
			c-9.2-0.1-17.2-2.8-25.5-6.6c-0.8,6.9,1.7,12.9,3.2,18.9c3.8,14.7,9.7,28.9,12.1,44c0.4,2.4,0.7,4.9,0.8,7.3
			c0.2,8.9-2.2,11.7-11.1,12.6c-8.5,0.9-17,0.9-25.4-1.6c-3.9-1.2-5.5-3.5-4.9-7.5c0.7-4.5,3-8.1,7-10.1c6-3,7.4-8.1,7-14
			c-0.6-10.4-4-19.7-11.2-27.4c-5.5-5.9-11.4-11.5-16.9-17.3c-2-2.1-4.2-2.2-6.7-2.2c-12.8-0.1-25.5-0.3-38.8-2.5
			c3,9.3-1.8,16-7.1,21.8c-13.9,15.3-28.8,29.5-46.6,40.4c-1.1,0.7-2.6,1.3-3.1,2.4c-5,9.8-13.6,11.3-23.3,10.9
			c-5.9-0.2-11.5-1.6-17.2-2.5c-3.9-0.6-5.9-2.8-5.3-7c1-8.2,9.9-16.6,18.2-15.7c9,1,15.6-2.3,21.6-8.4c5.2-5.3,10.3-10.6,14.8-16.5
			c4.5-6,4.2-9.9-0.7-15.6c-3.9-4.5-8.9-7.4-14.2-10c-3.8-1.9-7.7-3.6-9.6-7.8c1-1.1,2.5-1.4,3.7-0.8c7.5,3.9,15.7,6.8,21.9,12.8
			c8.2,8,8.9,16.9,2,25.9c-4.6,6-9.4,12-15.1,17.1c-6.4,5.7-13.7,9.3-22.6,8.5c-3.7-0.3-7.1,0.4-10,2.9c-2.4,2.7-4.7,5.5-4.3,9.4
			c0.7-2.9,1.8-5.7,3.8-8.1C274.2,354.5,279.2,354.5,284.5,359.2z"/>
		<path style="fill:#C79D6E;" d="M284.5,359.2c-6.2-3.2-11.9-2.4-17.3,1.8c-1.3-0.7-2-1.6-1.4-3.1c2.6-4.2,6.9-4.7,11.2-4.2
			c9.1,1.1,16.2-2.4,22.2-8.6c4.8-4.9,9.5-10.1,13.9-15.4c7.4-9.2,6.8-16.8-1.7-24.7c-6.8-6.3-15.2-9.9-23.9-13
			c-1-0.5-1.9-1-2.9-1.4c-3.4,0.4-2.7-2.9-3.8-4.5c-1.6-2.2-1.3,0.6-1.9,0.5c-0.8-0.1-1.6-0.1-2.4-0.2c-5.1-1.5-3.7-7.3-6.8-9.7
			c0,1.1,1.1,2.7-0.3,4.2c-1.6,0.6,0.2,3.3-1.9,3.4c-0.5,0-1-1.1-1.5-1.8c1.1-3-1.4-5-2.2-7.4c-1.3-3.7-3.8-7.2-1-11.3
			c-0.5-4,1-6.8,4.9-7.8c6-1.7,11,0.3,15.4,4.3c1.1,1,2,2.4,2.7,3.8c7.5,16,22.8,23.4,36.1,33c12.1,8.6,12.9,17.3,2.8,27.9
			c-9.4,9.8-16.6,21.6-28,29.6C292.9,357.3,289.1,359.2,284.5,359.2z"/>
		<path style="fill:#1B0D08;" d="M160.5,236.4c1.4,2.6,2.9,5,4,7.7c1,2.5,4.9,5,0.5,8.3c-0.6,0.5-0.6,4.2,3.5,5.5
			c13.3,4.2,26.9,4.3,40.5,4.1c-2.1,2.4-2.1,2.5-5.1,2.8c-11.3,1.3-22.4,0.8-33.2-3.1c-4.2-1.5-6.2-0.6-8.5,3.2
			c-3.7,6.4-5.6,13-5.7,20.4c-0.2,17.3-0.5,34.5-1,51.8c-0.2,7.1-1.2,13.7-5.6,20.2c-4.4,6.5-6.2,14.8-9.7,22
			c-6.3,13-13.1,16.5-27.5,15c-3.1-0.3-6.1-0.9-9.2-0.9c-6-0.1-10-1.5-9.2-8.8c0.5-4.5-3.6-2.6-5.2-2.4c-5.2,0.7-9.8,0.2-14.6-2.3
			c-2.5-1.3-3.3-2.4-3.5-4.6c-0.6-8.3,7-16.6,15.4-17c1.6-0.1,3.2-0.2,4.7-0.1c4.8,0.4,6.8-1.6,8.1-6.5c1.9-7.3,2.1-14.6,2.3-22
			c4.9,2.3,1.8,7.3,3.7,10.7c1.1,6.3-1.5,11.8-3.9,17.3c-1.6,3.8-5.4,4.3-9,4.7c-3.8,0.4-7.5,0.5-10.8,2.7c-2.2,1.8-4.4,3.7-5.2,7
			c1.3-2.1,2.5-4,4.2-5.4c1.4-1,2.8-1.7,4.5-0.9c0.5,0.5,0.7,1.1,0.8,1.7c-0.1,2-1.6,3.1-2.6,4.5c-1,1.4-2.6,2.9-1.6,4.8
			c1,1.8,3.2,1.1,4.9,1.2c1.4,0,2.6-0.4,3.9-0.8c0.7-0.2,1.3-0.4,2-0.5c2.8-0.5,4.8-2.4,6.9-4.1c3-2.5,6.5-4.2,10.4-4.2
			c6.3,0,8.5-3.8,9.4-9.2c2.5-15,2.2-30-0.2-44.9c-1.8-11.5-1.8-23.3-3.5-34.8c-0.9-5.9,2.6-11.4,0.7-17.3c-0.1-7.5-2-15-1.1-23.6
			c4,6.7,2.6,13.9,5.1,20c4.1,25.8,5.5,51.9,8.4,77.8c0.9,7.7-0.6,15.6-1.9,23.3c-2.3,13.4-5.2,15.5-18.8,15.2
			c-6.6,1.8-8.5,7-9.4,13.1c0.7-5.6,2.8-10.3,8.2-12.8c1.3-0.3,2.5-0.3,3.1,1.3c-0.3,3.6-4,5.1-5.3,8.1c-0.5,0.8,0.9,0.6,0.1,0.3
			c1.4-3.3,4.4-5.4,6.5-8.1c3.1-1.6,6.1-2.4,8.9,0.4c-2.1,3.3-6.6,2.6-9,5.5c-1.3,1.5-3.4,2.7-2.5,5.1c0.8,2.1,2.8,2.6,4.9,2.9
			c12.5,1.8,18.1,0,23.2-11.9c6.3-14.9,16.9-28.3,16-46c-0.6-12.3,0-24.7,0.1-37c0-11.7,0.8-23,7.3-33.6c3.5-5.7,5.5-13.4-0.6-20
			C158.4,240.8,153.8,236.8,160.5,236.4z"/>
		<path style="fill:#A97D53;" d="M465.2,303.7c-1.9-0.7-3.7-1.6-5.6-1.9c-10.4-2-18.3-5.8-18.2-18.5c0-4.8-4.2-8.4-8.9-10.1
			c-8.6-3.1-17.3-6-26-8.9c-1.1-0.4-2.6-1.1-3.5,0.6c-2.9,0.1-3.6-1.5-3-4c4.9-1.8,9.1,1.5,13.4,1.6c-3.2-1.1-7.1-1-10.4-2.9
			c0-2.8-3.8-3.4-3.7-6.3c-0.7-4.1-5.5-3.4-7.2-6.2c0.5-1.4-0.2-2.5-0.7-3.7c-1.9-4.3-6.6-5.2-9.9-7.9c-0.7-1.8,0.7-2.6,1.9-3.3
			c-0.6-3.7-5.7-3.3-6.3-6.9c0-0.8,0.3-1.5,0.5-2.3c-0.6-2-3.3-1.7-3.8-3.7c-0.6-1.5-1.2-2.9-0.3-4.5c2.2-1.3,3.7,0.3,5.3,1.2
			c1.9-0.6,3.3,0.1,4.7,1.4c12,11.1,23.4,22.8,33.9,35.4c19.3,23.3,44.2,35,74.8,33.5c2.9-0.1,5.7-0.9,8.3-2.4
			c1.4-1.3,2.7-1.4,3.9,0.2c0,1.1-0.1,2.2-0.1,3.4c-1.2,2-3.5,1.6-5.3,2.3c-0.5,0.2-2.1-0.5-1.3,1.1c0.2,0.4,1.1,0.5,1.4,1.2
			c-0.6,2.1-2.9,2.1-4,3.4c-2.8,3.8-8.4-0.1-11,4.2c-0.8,0.7-1.7,1.3-1.3,2.6c-4.4,2.9-9-1.8-13.5,0.2
			C467.7,302.8,466.2,302.2,465.2,303.7z"/>
		<path style="fill:#120804;" d="M111.7,85.4c-4.8-3.6-7.5-8.3-9.6-13.9C97,57.8,90.7,44.9,75.8,38.6c-6.7-2.8-13.3,0-19.7-1.3
			c-10-2-16,2.9-21,10.5c-0.6,1.5-1,3.1-2.8,3.5c-3.4,4.4-6.7,9-10.3,13.2c-4.7,5.5-3.7,12.1-4.4,18.4c-3.7-0.7-1.5-3.6-1.8-5.4
			c-0.5-2.6,0.3-5.4-0.4-8c-1-2.3-2.2-4.7-1.4-7.1c1.5-4.5,0-7.6-3.6-10.5C6.9,49.1,7.5,45,8.3,41.3c2.4-11.9,4.9-23.7,7.7-35.5
			c1.5-6.4,3.9-7.3,9.5-3.7C34.4,7.9,41.6,15,42.3,26.5c0.4,5.9,3.2,9,9.5,8c1.3-0.2,2.7-0.1,4,0.1c12.2,1.8,20.6-2.6,25.6-14.3
			C84.1,13.9,88.9,8.5,94,3.7c4.2-4,7.5-3.4,10.1,1.8c1.3,2.8,2,5.9,2.5,9c1.3,9.3,2.2,18.7,3.5,28c0.7,4.8,0.2,9.5-2.1,13.7
			c-6,10.7-4.9,16.9,5.5,27.4c1,1,2.3,1.9,3.5,2.9C114.7,87.6,113.4,85.6,111.7,85.4z"/>
		<path style="fill:#E5C39D;" d="M58.3,208.3c5.1,1.3,8.5,5.9,14.7,5.6c7.7-0.4,14.1-3,19.2-8.2c9.9-10.1,16.1-22.4,19.5-36
			c1.7-6.8,4.8-12.9,7.1-19.3c0.6-2.2,2-3.7,4.3-3.1c2.4,0.5,2.6,2.9,2.7,4.8c0.6,9.2-1.5,18.1-4.1,26.9c-1.5,3.8-2.2,7.8-4.3,11.3
			c-1.5,3.4-3,6.7-5.2,9.7c-0.3,0.5-0.7,1-1,1.5c-1.8,2.3-3.1,5-5.1,7.1c-1,0.9-2.1,1.8-2.8,3.1c-1.1,1.6-1.9,3.5-4.2,3.9
			c-1.5,0.1-2-1.9-3.5-1.6c-1.6,3-0.8,7.8-6.1,7.9c-0.9-0.2-1.1-0.7-0.5-1.5c-2-1.9-2.5-0.3-2.6,1.3c-0.1,2,0.2,3.9-2.5,4.3
			c-1.5-0.2-2.8,0.6-4.1,1.2c-2.1,0.4-2.6-1.5-3.7-2.6c-1.5-0.7-1.4-2-1.3-3.1c-1.2,3.6-0.3,7.9-3.2,11.2c-1.7-1-3.4-1.5-5.1-0.2
			c-1.8-2.8,0.9-5.3,0.5-7.8c-1.4,2.3,0.5,6.1-3.1,7.9c-0.7-2.6,0.6-6.4-4-6.8c-1.2-2.7,0.2-5,0.9-7.4c0.4-0.8-1.1-0.4-0.2-0.1
			c0.2,0.1,0.1,0.3,0,0.6c-0.5,1.2-1.1,2.4-2.5,2.9c-1.2-0.9-2.4-1.8-3.6-2.7C52.9,214.4,55.1,211.2,58.3,208.3z"/>
		<path style="fill:#0C0705;" d="M378.6,216c-1.7-0.3-3.5-0.7-5.2-1c-5.2-0.1-6.6-4.8-9-8c-1.5-1.9-2.8-4-3.9-6.2
			c-0.9-2.3-2.7-4.3-2.1-7c-7.8-18-22.9-27.9-39.9-35.9c-22.1-10.3-44.8-18.7-68.3-25.4c-16.4-4.6-33.1-7.3-50-9.1
			c-20.2-2.1-40.3-4.4-60.3-8.2c-2.4-0.5,0.6-0.8,0.7-1.4c9.3-1.4,18.1,2.1,27.2,3c26.7,2.6,53.5,4.4,79.5,11.7
			c28.9,8.1,56.5,19.3,83.9,31.7c14.1,6.4,27,13.6,38.1,24.1c-0.2,2.7-2,1.9-3.2,1.2c-1.9-1-3.7-2.3-5.5-3.4
			c-0.2-0.2-0.4-0.5-0.5-0.7c-3.9-6.2-11-8.4-16.4-13c11.7,11.9,19.1,26.6,27.4,40.7C372.9,212.3,377.3,212.4,378.6,216z"/>
		<path style="fill:#E0C39F;" d="M53.8,176c-1.2,0.4-2.3,0.8-3.5,1.2c-0.8-0.5-1.1-1.3-1.5-2c-0.5-1,0.5-2.7-1.1-3.1
			c-0.3-0.1-0.8,1.9-1.9,2.4c-1.6-0.4-3.2-0.8-4.8-1.2c-2.5-5.2-2.4-7.5,0-11.3c-3.8,6.6-0.1,13.9-1.5,20.7c0.6,2.6,3.1-0.5,3.9,1.4
			c1.8,7.2-0.4,14.3-0.2,21.5c0.3,1.1,0.2,2.5-1,2.8c-2.2,0.6-1.6-1.4-1.7-2.5c-0.7-5.1,2-10.6-2.3-15.1c-3.1-4-0.1-9.3-2.9-13.4
			c-0.4-1-0.8-2-1.2-3c0.1-5.3-0.6-10.5,0-15.6c-0.9,2.4,1,5.6-1.8,7.7c-2.2-1.7-0.3-4.9-2.3-6.7c-2.7-3.4-1.1-6.4,0.4-9.2
			c-3.6,2.4,0.2,7.7-3.5,10.5c-2.1-2.8-0.3-7.1-3.7-9.4c0.8-4.6,2.7-8.5,7.1-10.8c2.4-2,4.3-0.8,6.6,0.6
			c14.1,8.6,22.7,21.4,28.9,36.3c0.9,2.3,1.4,4.8-1.2,6.6c-2.1,0.1-1.4-3.2-3.6-2.9c-1.3-0.5-2.5-1.1-3.8-1.6
			C54.8,179.5,56.8,175.7,53.8,176z"/>
		<path style="fill:#170D08;" d="M104,340.3c-3.3-3,0.3-7.6-2.5-10.7c-3.6-24.1-5.5-48.5-7.1-72.8c-0.3-3.9-2.2-5.3-4.9-7.1
			c-5.8-3.7-12.2-6.9-13.8-14.6c10.2,9.3,23.7,14.4,32.4,25.7c0.7,1.4,2.1,2.4,2.2,4.1c0.2,1.7-0.4,3.2-2.1,3.8
			c-1.6,0.7-2.4-0.7-3.1-1.8c-1.5-2.2-2.4-4.8-5.2-7.2c0.9,6.7-0.4,12.8,1.6,18.8c0.7,17,3.7,33.8,5.2,50.7
			C107,333.3,107.9,337.3,104,340.3z"/>
		<path style="fill:#281711;" d="M15.4,69.5c2.8,4.1-0.7,9.3,2.2,13.4c-1.7,9.9-3.5,19.7-11.8,26.7c-1.2,0.5-2.5,1-3.7,1.5
			c-0.4,0.1-0.8-0.1-2.1-0.3C13.4,99.8,15.7,85.1,15.4,69.5z"/>
		<path style="fill:#110804;" d="M386.9,201.7c-5,2.9-7.4-2.3-11-3.6c-5.5-2.1-9.5-6.4-13.8-10.2c-1.7-1.5-4.7-3.4-2.1-6.6
			c0,0,0,0,0,0c8.6,5.1,16.1,11.7,24.1,17.6C384.9,199.9,385.9,200.8,386.9,201.7z"/>
		<path style="fill:#1F110B;" d="M108.1,92.3c0.7-1.8-2.2-5.2,2.4-5.2c0.6,6.2,5.3,9.4,9.7,12.7c4.6,3.4,9.3,6.6,14,9.9
			c-0.8,0.2-1.5,0.3-2.3,0.5c-2.6,0.4-4.6-1.3-6.9-2.2c-3.8-1.9-7.5-4.1-10.9-6.7C111.5,98.8,108.5,96.4,108.1,92.3z"/>
		<path style="fill:#463E37;" d="M384,198.9c-5.1-0.3-7.9-4.5-11.5-7.2c-4.4-3.3-8.4-6.9-12.6-10.4c3.9-1.6,5.3,4.9,9.3,3
			C374.6,188.8,379.7,193.4,384,198.9z"/>
		<path style="fill:#2C1A12;" d="M215.8,260.6c-5.7-2.6-12.4,0.1-17.9-3.8c8-2.6,15.6-0.6,23.2,2.4c1,0.8,1.5,1.8-0.3,1.9
			C219.2,261.3,217.5,260.8,215.8,260.6z"/>
		<path style="fill:#161211;" d="M409.9,223.2c-5.3,1.2-8.8-1.9-12.3-5c-1.5-1.3-1.8-3,0-4.5c5.8,6.2,13.4,7.1,22.5,6.7
			C416.4,223.8,413,222.8,409.9,223.2z"/>
		<path style="fill:#1D1009;" d="M262.7,263.8c-0.3,4.1,1.5,7.6,2.7,11.4c0.7,2.3,2.7,4.7,0.5,7.3c-2.7-5.2-6.2-10.1-7.3-16.1
			c1-2.5-0.8-5.8,2.4-8C261.6,260.2,262.2,262,262.7,263.8z"/>
		<path style="fill:#110D0B;" d="M441.9,248.7c-8.5,0.1-15.2-3.5-22-10.9c4.1,1.2,6.6,2,9,2.7C433.2,243.2,437.6,245.9,441.9,248.7z
			"/>
		<path style="fill:#1A1513;" d="M422.4,232.8c-4.4,1.8-8-0.4-11.5-2.6c-2-1.3-2.7-2.9,0-4.4c5.4,4.7,12.7,3.2,20,5.7
			C427.4,233,424.9,233.1,422.4,232.8z"/>
		<path style="fill:#25130C;" d="M43.2,205.7c-2.8-7.2-1.2-14.3,0.2-21.5c4.7,1.3,1.8,5.4,2.9,8c1.4,4.2,0.7,7.9-2.7,11
			C43.5,204,43.4,204.8,43.2,205.7z"/>
		<path style="fill:#34160C;" d="M10.8,127.5c3.3-3.7,1.9-9.5,6.1-13.9c2.6,7.6-1.9,12.5-4.3,17.8c-1.1-0.1-1.9,2-2.7,0.9
			C8.7,130.8,10.2,129.1,10.8,127.5z"/>
		<path style="fill:#110E0B;" d="M255,250.2c1.1,0,2.8,0,2.4,1.4c-1.4,6.2,0,12.8-2.4,18.9C252.5,263.7,251.7,257,255,250.2z"/>
		<path style="fill:#24211F;" d="M496.3,270.4c-3.8,0.7-7.6,1.6-11.6,1.3c-2.7-0.2-4.7-1-4.9-4.1c5.6,0.2,11.2,0.4,16.9,0.8
			c0.7,0,2.5,0.1,1.4,1.8C497.9,270.5,496.9,270.4,496.3,270.4z"/>
		<path style="fill:#28140E;" d="M229.3,255.6c-4.2-3-9.8-0.4-14-3.5c6.1-3.5,14.4-2.1,19.3,3.3C232.8,255.5,231,255.5,229.3,255.6z
			"/>
		<path style="fill:#22130D;" d="M269.4,280.9c-1.9-5-1.9-5-1.3-9.8c4.6,4.5,5,10.7,8.3,15.3c0.3,0.8,1,1.7,0.8,2.3
			c-0.4,1.2-1.4,0.5-2,0C272.7,286.5,271,283.7,269.4,280.9z"/>
		<path style="fill:#331811;" d="M49.1,200.4c2.3-3.1-0.6-7.2,2.3-10.6c3.4,3.2,1.4,7,1.5,10.4c0.2,3.8-1.3,6.9-4,9.5
			c-0.7,1.3-1.5,2.6-2.6,4.7c-0.1-2.1-0.2-3.4-0.2-4.8C47.9,206.8,45.1,202.5,49.1,200.4z"/>
		<path style="fill:#37261D;" d="M58.3,208.3c-1.3,3.6-2.6,7.1-3.9,10.7c-0.7,1.4-0.5,3.4-2.4,4.4c-1.2-2.3-0.3-4.6-0.4-6.9
			c0.9-3.2-1.1-7.1,2.6-9.5c0.9-0.8,0.9-2.9,2.6-2.6C59,204.9,58.1,206.9,58.3,208.3z"/>
		<path style="fill:#201512;" d="M504.2,284.2c-1.3-0.1-2.6-0.1-3.9-0.2c-2.5-0.7-5.5,0.9-7.4-1.8c-0.3-0.4-0.2-1.6,0-1.7
			c2.7-1.3,5.6-0.9,8.4-0.1c2.8,0.9,5.6,1.5,8.1-0.6c0.6-0.1,1.4-0.5,1.9-0.4c1.3,0.4,0.9,1.3,0.1,1.7
			C509.1,282.3,506.6,283.2,504.2,284.2z"/>
		<path style="fill:#291B13;" d="M246.7,251.3c-5.1-2.4-10.4-4.3-17-4.5c3.9-5.1,7.8-2.1,11.4-1.9c3.5,0.5,6.8,1.4,8.4,5.1
			C249.9,253.2,247.7,251,246.7,251.3z"/>
		<path style="fill:#302924;" d="M483.9,299.8c-1.4-2.1-2.8-4.1,1.6-4c3.1,0.1,6.2-0.1,9.4-0.2c1.5,0.3,3,0.5,5,0.9
			C494.7,300.7,489.2,300,483.9,299.8z"/>
		<path style="fill:#1C1615;" d="M398.1,212.6c-5.1-1.9-11.5-1-15.5-8c4.3,1.5,7.6,2.6,10.9,3.8c3.1,1.1,6.1,2.1,9.2,3.2
			c-0.1,0.4-0.1,0.7-0.2,1.1C401.1,212.6,399.6,212.6,398.1,212.6z"/>
		<path style="fill:#2B1A1A;" d="M32.3,166.5c0.2-4.7-1.2-9.8,4.3-13.2c-2.8,6.9,0,14.3-2.5,21.1C33.5,171.8,32.9,169.1,32.3,166.5z
			"/>
		<path style="fill:#290E0A;" d="M71.6,232.6c0.5-4,0.1-8.3,3.2-11.7c1.5,1,0.9,2.5,1.3,3.7c-0.5,3.4-1,6.9-1.5,10.3
			c-0.5,1.1-1.1,2.3-2.2,4.7C72,236.4,71.8,234.5,71.6,232.6z"/>
		<path style="fill:#0E0907;" d="M473.1,262.5c-4.9,2.2-10,1.3-14.9,0.6c-2-0.3-6-0.5-4.3-4.8C460.2,259.7,466.6,261.1,473.1,262.5z
			"/>
		<path style="fill:#0F0502;" d="M448.9,254.3c0.9,0.5,2.5,0.9,2.6,1.6c0.3,1.7-1.5,1.1-2.3,1.3c-5.5,1.7-10.3,0.7-15.4-4.3
			c5.5,0.3,9.7,1.6,14,1C448.1,253.9,448.5,254,448.9,254.3z"/>
		<path style="fill:#2E2319;" d="M26.8,161c0.1-6-0.7-12.5,8.5-15.7c-3.5,5.2-6.6,9.2-5.4,14.4c-0.5,1.6-0.9,3.2-1.8,6.1
			C27.5,163.5,27.1,162.3,26.8,161z"/>
		<path style="fill:#D8C1AC;" d="M54.3,207.1c-0.9,3.2-1.7,6.3-2.6,9.5c-0.9-2.3-1.8-4.6-2.8-6.9c0.5-3.5,2.5-6.4,4-9.5
			C55,202.2,53.8,204.8,54.3,207.1z"/>
		<path style="fill:#DAC9AC;" d="M49.1,200.4c-1,3.1-2,6.1-3,9.2c-0.3-2.3,0.7-5.1-2.4-6.5c0.9-3.7,1.8-7.3,2.7-11
			C49.9,194,48.4,197.6,49.1,200.4z"/>
		<path style="fill:#37312D;" d="M469.1,302.6c-0.3-2,0.3-3,2.5-2.5c3.7,0.8,7.3,1.6,11,2.3c0.9,0.5,3.5,1.4,1.1,1.9
			C478.9,305.2,473.6,306.1,469.1,302.6z"/>
		<path style="fill:#2A1E17;" d="M278.8,286.5c0.4-1.6-2.6-2.6-1.1-3.8c1.8-1.4,3.2,0.5,4,2c1.1,1.8,1.9,3.8,2.8,5.8
			c-0.4,2.7,2,4.2,3.2,6.9C280.5,296.5,281.7,289.9,278.8,286.5z"/>
		<path style="fill:#2A1710;" d="M498.9,292.2c-1.1,0.2-2.1,0.4-3.2,0.6c-1.3,0.3-2.9,0.8-3.4-0.8c-0.6-1.6,1-2.3,2.2-2.8
			c3.1-1.3,6.3-1.9,9.7-1.7c0.8,0.7,4.2,0.1,1.5,2.3C503.9,291.2,501.2,291.4,498.9,292.2z"/>
		<path style="fill:#2A160C;" d="M63.8,232.5c2.2-4.1-0.6-9.8,4.2-13.4c2.3,5-0.5,9.1-1.6,13.3c-0.6,1.3-1.3,2.7-2.6,5.6
			C63.8,235.1,63.8,233.8,63.8,232.5z"/>
		<path style="fill:#29160C;" d="M30.2,140.9c-2.4,3.6-4.7,7.2-7.1,10.8c-5.9,0.3,1-3.2-1.2-4c1.8-2.8,3.4-5.7,5.4-8.3
			C30.3,135.6,30,138.9,30.2,140.9z"/>
		<path style="fill:#240F07;" d="M7.3,113.8c1.3-1.9,2.5-3.8,4.4-6.7c1.7,6.2-1.6,9.6-4.3,13.3c-1.2,0.9-2.1,2.4-4,1.4
			C4.6,119.1,6,116.5,7.3,113.8z"/>
		<path style="fill:#BDA385;" d="M249.5,249.9c-2.8-1.7-5.6-3.4-8.4-5.1c0.5-0.5,1-1,1.6-1.5c4.5-1.2,8.9-1.7,12,2.8
			c0,0.9,0,1.8,0.1,2.6C252.9,248.5,251,248.1,249.5,249.9z"/>
		<path style="fill:#130F0E;" d="M501.7,275.8c-2.2,0.1-4.4,0.5-6.5,0.3c-1.4-0.1-3.7,0.1-3.8-1.7c-0.1-2.2,2.4-1.1,3.6-1.7
			c3.9,0,7.8-0.1,12.3,1.4C505.3,276.2,503.4,275.7,501.7,275.8z"/>
		<path style="fill:#250F0A;" d="M17.6,139.5c3.1-1.7,3.9-5.9,8.2-6.8c-0.6,5.5-4.7,8.3-7.8,11.7c-1.1,0.9-2,0.9-1.7-0.8
			C16.6,142.2,17.2,140.9,17.6,139.5z"/>
		<path style="fill:#29150F;" d="M58,221.7c1-2.6,2-5.2,3.7-9.6c1.8,6.2-0.8,9.8-1.9,13.6c-0.6,1.3-0.1,3.2-2.5,3.7
			C57.6,226.9,57.8,224.3,58,221.7z"/>
		<path style="fill:#20180B;" d="M35.3,177.4c5.2,3.6,1.5,9,2.9,13.4c-0.1,0.4-0.2,0.9-0.4,1.3c-0.4,0.8-1,0.8-1.2-0.1
			C35.7,187.2,34.6,182.4,35.3,177.4z"/>
		<path style="fill:#3F1C0A;" d="M13.9,134.2c1.8-2.4,3.7-4.7,5.5-7.2c1.1,5.3-1.1,8.5-6.1,8.7C13.6,135.3,13.8,134.7,13.9,134.2z"
			/>
		<path style="fill:#A97D53;" d="M125.5,107c2.5,0.4,4.4,1.9,6.4,3.3c0.7,1.5,1.3,3.1,2,4.6c-0.4,3.1,2.3,4,4,5.6
			c1.6,1.7,4.4,2.5,4.2,5.5c-0.8,1.7,2.3,3.6-0.2,5.2c-1.2,0-2.1-0.4-2.8-1.1c1,2.3,4.1,3.5,4.2,6.6c0.6,1.7,0.8,3.3-0.3,5.4
			c-2.7-3.3-5.2-6.8-10.4-6.7c0.2,3.7,3.9,3.7,5,5.9c-4.2,2.2-4.2,2.2,4.8,9.8c3.6-5.3,7-10.7,11.6-15.1
			c10.5-10.1,24.6-7.7,31.2,5.2c6.8,13.4,6.2,27.2,3.2,41.3c-0.8,3.6-0.8,7.1-0.6,10.7c0.7,10.4,5.1,16.1,16.7,19
			c20.9,5.2,41.6,4.5,61.8-4.2c13-5.6,25.9-11.2,39.1-16.2c17.8-6.7,35.7-8.6,53,1.9c1.3,2,3.1,3.8,3.2,6.4c-2.5,2-4.7,0.5-6.9-0.5
			c-12.9-6.4-26.2-4.9-39.4-1.4c-15.4,4.1-29.8,11.1-44.4,17.4c-17.4,7.5-35.4,12.8-54.6,12.1c-9.5-0.3-18.6-2.6-27.5-5.8
			c-3.5-1.2-6.4-3.2-7.8-6.9c-0.1-5.4-0.5-10.8-0.2-16.1c0.2-3.5-0.9-5.5-4-6.6c0.3-0.9,1-1.7,1.5-2.4c1.4-14.7,0.9-28.9-10.5-40.3
			c-0.9-0.9-1.7-2.1-1.7-3.5c-2.6-3.4-5.6-3.1-8.8-1.1c-6.6,4.1-11.8,9.3-15.4,16.2c-2-2.7-1.3-7-4.9-8.8c2.8,2.3,3,6,4.8,8.9
			c-0.4,1.4-1.6,2.1-2.8,2.7c-2.4,0.5-2.2-1.6-2.9-2.8c0.1,2.3,2.8,4.5,0.3,6.9c-2.4,2.2,0,5.9-2.5,8.1c-1.9-2.1,0.2-4.9-1.2-6.3
			c0.9,1.9-0.4,4.9,1,7.5c0.3,2.6-1.2,2.1-2.6,1.4c-2-0.4-2.3-2.3-3.5-3.7c1,4.8,1.4,9.5,1.1,14.2c-2.2,0.6-2.6,3.1-4.1,4.4
			c-2.8-3.4-1.9-8.3-4.5-11.9c-0.3-0.7-0.2-1.3,0.2-1.9c1.9-8.9,4.3-17.8,4-27c-0.1-1.5,0.8-3.4-0.8-4.4c-2.1-1.3-2.9,1.5-4.5,1.9
			c-1.6-2.3-2.6-5.2-5.5-6.4c0-1,0.1-2,0.5-3c4.4-7.5,9.1-14.7,10.8-23.6C125.3,113.9,123.4,110.3,125.5,107z"/>
		<path style="fill:#251207;" d="M142.1,126c-3.1-3.7-8.7-5.1-9.6-10.8c0-0.1,0.2-0.5,0.4-0.5c0.3,0,0.7,0.1,1.1,0.1
			c4.1,3.9,9.2,6.7,12.4,11.7C144.5,128.3,143.4,126.5,142.1,126z"/>
		<path style="fill:#210801;" d="M143.2,136.7c-2.7-3.1-5.4-6.2-10.2-9c4.8-1,6.9,1,8.9,3.6C141.5,133.3,145.9,134.1,143.2,136.7z"
			/>
		<path style="fill:#A97D54;" d="M99.7,277.2c-0.7-6.8-1.3-13.6-2.1-21.1c6.2,2.2,7.5,7.5,9.7,12.4c3.2-2.4,0.8-5.2,0.8-7.7
			c0.9,0.4,1.9,0.9,2.8,1.3c3,0.2,2.3,2.5,2.4,4.3c0.1,1.1-0.6,2.5,1.4,2.5c2.3-2,0.9-4.7,1.5-7c2.4,7.2,1.4,14.6,1.8,21.9
			c1.2,20.7,6,41.2,4.6,62.1c-0.4,6-0.6,12-2.4,17.9c-1.2,4-3,6.3-7.5,5.9c-6.1-0.6-11.1,1.7-14.5,6.6c-2.3,3.4-5,1.7-7.7,1.7
			c-3.5-5.4-2.2-9.8,3.5-12c3.1-1.2,6.6-1.3,9.5-3.2c9.9-6,11.1-15.5,10.6-25.8c-0.9-17.9-4.8-35-11.8-51.5
			C101.2,282.8,102.7,279.3,99.7,277.2z"/>
		<path style="fill:#E4C39B;" d="M105.6,374.4c1.5-0.4,3-0.8,4.5-1.2c3.4-1,8.4,1.6,10.1-1.5c2.7-4.9,4.9-10.4,5.4-16.4
			c1.4-15.9,0.3-31.7-1.9-47.5c-2.2-16.4-3-33-3.5-49.5c5.7,20.1,10.9,40.2,12.4,61.2c1,14.1,1.4,28-0.8,42.1
			c-0.9,6.1-5.5,12.6-11.8,15.4c-3.2-0.4-6.3-0.4-9.3,1.1c-1.4,0.3-2-0.2-1.7-1.6c-0.4-1.2-1.4-0.7-2.2-0.8
			C105.6,376,105.4,375.4,105.6,374.4z"/>
		<path style="fill:#E3C49D;" d="M166,146.1c12.2,10.3,18.5,32.1,13.3,46c-3.3-2-8.3-1.5-9.6-6.5c0.1-1.5,0.2-2.9,0.2-4.4
			c2.6-1.9,4.5-0.3,6.4,1.3c-2.8-3-8.5-2.9-9.2-8.2c3.4-5.9,0.7-11.7-0.2-17.5C166.5,153.2,164.1,149.8,166,146.1z"/>
		<path style="fill:#A17A54;" d="M110.7,200.2c1.7-3.3,3.3-6.6,5-9.9c0.7,0.3,1.2,0.7,1.5,1.4c1.3,4.7,0.5,9.6,0.4,14.4
			c0.1,0.3,0.1,0.7,0.2,1c-2.5,6.2-7.5,10.5-12.2,15c-0.3-0.2-0.6-0.4-0.8-0.6c-1.4-4.3-1-8.6,0.5-12.8
			C106.5,205.4,108.6,202.8,110.7,200.2c2,2,1,4.5,1.3,6C111.8,204.7,112.8,202.2,110.7,200.2z"/>
		<path style="fill:#A77C59;" d="M120.1,179.8c0,0.5,0,0.9,0,1.4c2.8,4.1,1.7,9.3,4,13.5c-0.7,4.9-3.9,8.4-6.4,12.4
			c0,0-0.4-0.3-0.4-0.3c-1.8-5.2,2.1-10.9-1.2-16c-0.2-0.2-0.3-0.3-0.5-0.5C117.1,186.8,118.6,183.3,120.1,179.8z"/>
		<path style="fill:#2D170B;" d="M167.2,174.3c3.3,2.5,6.7,5,11.2,8.4c-3.7-0.7-6-1.1-8.4-1.5c-1.6-1.1-3.5-2-4.8-3.3
			c-1.6-1.5-5.3-2.6-3.5-5.2C163.4,170.2,165.2,174,167.2,174.3z"/>
		<path style="fill:#1C0D03;" d="M128.5,189.2c-1.2-6.1-2.4-12.3-3.7-18.8c5.5,1,4.2,5.7,6.1,8.3C129.7,182.1,130.5,186,128.5,189.2
			z"/>
		<path style="fill:#2C150B;" d="M167.1,205.1c2.4,4.3,7.8,4.6,11.2,8.1c-4.4,1.2-7.6-1.2-11-2.4c-1.1-1.1-2.3-2.1-3.1-3.3
			c-0.9-1.3-3.2-2.8-1.4-4.4C164.7,201.6,165.7,204.4,167.1,205.1z"/>
		<path style="fill:#A17A56;" d="M99,214.9c1.1-1.3,2.3-2.7,3.4-4c3.6,2.9-0.2,7.7,2.7,10.7c0,0,0.4,0.4,0.4,0.4
			c-1.8,2.3-3.8,4.1-7,3.7C96.8,222.1,96.2,218.4,99,214.9z"/>
		<path style="fill:#2C1008;" d="M164.6,214.9c2.7,4.2,6.4,7.9,7.4,13.5c-2.5-2.3-4.9-4.5-7.4-6.8c-1.1-1.6-2.2-3.2-3.2-4.8
			c-0.6-0.9-1-2.3,0.3-2.7C162.5,213.8,163.6,214.6,164.6,214.9z"/>
		<path style="fill:#2D160C;" d="M163.2,225.7c2.4,3.9,5.3,7.6,6.8,12.6c-4.2-1.2-5.6-4.9-8.3-7.1
			C162.5,229.4,157.4,226,163.2,225.7z"/>
		<path style="fill:#2F1709;" d="M169.8,185.6c3.2,2.2,6.4,4.4,9.6,6.5c-0.9,0.1-1.7,0.1-2.6,0.2c-2.3-0.6-4.5-1.1-6.8-1.7
			c-0.5-0.4-1-0.8-1.6-1.1c-1.9-0.9-5.1-1.6-4.3-3.8C165.1,182.9,167.8,185.9,169.8,185.6z"/>
		<path style="fill:#321C11;" d="M168.5,194.3c3,2.3,6,4.5,9.4,7.1c-3.3,2.1-5.5-0.5-8-1.2c-1.1-0.7-2.1-1.5-3.2-2.2
			c-1.1-0.8-3.6-0.6-2.8-2.7C164.7,193.1,166.9,194.1,168.5,194.3z"/>
		<path style="fill:#1B0601;" d="M99,214.9c-0.2,3.6-0.3,7.2-0.5,10.8c-0.9,0.4-2.3,3.7-2.7,0c-0.5-3.9-0.2-7.9-0.2-11.8
			C97.3,212.4,98.2,213.5,99,214.9z"/>
		<path style="fill:#472B1C;" d="M79.8,227.1c0.5-1.3-0.4-3.5,1.6-3.8c1.5-0.3,1.8,1.6,2.5,2.6c-0.5,2.9,1.2,6.3-1.9,8.9
			C80.2,232.4,80.5,229.6,79.8,227.1z"/>
		<path style="fill:#230701;" d="M124.1,194.7c-4.9-3.4-3.5-8.8-4-13.5c5.5,2.7,3.7,7.9,4.3,12.3
			C124.2,193.9,124.1,194.3,124.1,194.7z"/>
		<path style="fill:#3C1F0D;" d="M136.3,167.9c0.2-3.9-2.6-6.8-3.6-10.7c5-0.1,4.3,4.5,6.2,6.7C138.9,168.8,138.9,168.8,136.3,167.9
			z"/>
		<path style="fill:#39200C;" d="M114.7,268.9c-0.9-0.2-1.6,3.9-2.7,0.2c-0.7-2.3,0.6-4.9-1.1-7c-0.2-1.4-0.5-2.9-0.8-4.5
			C114.4,260.4,114.5,260.4,114.7,268.9z"/>
		<path style="fill:#250701;" d="M133.6,177.2c-2.8-4.3-2.2-9.1-2.7-14.9c4.9,4.6,2.4,9.4,2.9,13.7
			C133.6,176.4,133.5,176.8,133.6,177.2z"/>
		<path style="fill:#270A00;" d="M89,220.3c0.2,0.5,0.3,1,0.5,1.5c1.2,3.2,0.8,6.3-1.2,9.3C88.3,227.5,85.8,223.9,89,220.3z"/>
		<path style="fill:#130705;" d="M78.3,126.1c-3.2,3.8-4.8,8.1-5.3,13.2c-0.7,5.8-4.6,9.7-10.3,11c-6,1.3-10.2-2.1-12.5-7
			c-4.3-9.3-12.4-16.7-13.9-27.4c-0.4-3-3-5-5.3-6.7c-4.6-3.5-3.9-5.3,1.6-5.9c2.7-0.7,4.6,0.1,5.3,2.9c0-3.1,0.9-6,2-9
			c3.3-8.7,9.2-16.3,9.9-26c0.1-1.3,0.7-3.2,2.9-2.9c-0.1,3.5-0.1,7.1-0.2,10.6c1.3,3.8-0.6,6.9-2.3,10c-2,3.5-4.2,6.8-5.5,10.6
			c-2.1,10.3,0.8,15.6,9.5,17.3c-8.7-6.6-9.9-10.3-6.3-18.7c7.4-5.4,12.9-5.3,21.2,0.1c4.1,6.9,3.8,9.1-1.9,15.1
			c-1.1,1.2-3.8,2.2-2.1,4.1c1.7,1.9,3.6-0.1,5.1-1.4c5.2-4.5,3.2-10.1,2.1-15.5c-0.6-1.4-0.9-3-1.8-4.3c-6-7.8-8.6-16.7-7.8-26.5
			c1.8-0.4,2.2,0.9,2.5,2.2c4.1,11,11.6,20.5,14.2,32.7c2.4-1,4.7-2.2,7.2-2.6c1.3,0.2,4.1-1.4,2.7,2c-0.8,2-2,3.7-3,5.6
			C83.1,114.9,81.6,120.9,78.3,126.1z"/>
		<path style="fill:#AB7D50;" d="M32.3,51.3c0.2-1.7,1.5-2.7,2.8-3.5c4,1.9,5.6-2.2,8.1-3.6c20.1-11.1,39.8-2,49,16.8
			c0.6,1.2,1.5,2.6,0.1,3.6c-1.4,1.1-2.5-0.3-3.3-1.3c-2.3-2.7-5.4-3.9-8.3-5.6c-8-5.1-13.3-4.1-18.9,3.9c-2.2,3.1-2.6,1.9-4.3-0.7
			c-6.7-10.6-19.2-9.8-25.3,1.2c-0.5,1-0.3,1.6,0.5,2.2c-0.2,1.6-1.1,1.9-2.4,1.2c-1.8,1-3.6,1.9-6,3.2
			C25.5,61.8,31.6,57.7,32.3,51.3z"/>
		<path style="fill:#E4C39E;" d="M78,180c-2.8,2.1-4.9,4.8-5.9,8.2c-2.1-1.5-1.9-3.4-0.7-5.3c-4.9-12.3,3.7-36.3,15.8-42.7
			c6.4-3.4,13.7-3.6,13,7.5c0.4,0.5,0.7,1.1,0.7,1.8c0,0.3,0,0.7-0.1,1c-0.1,0.3-0.2,0.6-0.2,1c-2.2,6.8-7.6,11.5-11.6,17
			c-2.2,3-5.3,5.4-6.8,9.1C81.5,179.3,80,180.2,78,180z"/>
		<path style="fill:#AC8C6F;" d="M62.6,69.8c-0.2,11.7,7.3,20.5,11.5,30.6c-2.2,2.1-3.6-0.1-5.3-1c-6.7-4.2-13.4-5.2-20.2-0.3
			c-3.9,2.4-3.9,2.4-5.5,0c2.1-7.2,7.8-12.7,9.3-20.1c0.6-0.2,1.3-0.8,1.8-0.6C61.9,80.1,62.9,75.6,62.6,69.8z"/>
		<path style="fill:#765D48;" d="M86.6,102.1c-7.8,4.8-7.9,4.8-10.3-3.4c-1.6-5.5-5.3-9.8-7.9-14.7c-2-3.7-3.3-7.8-3.3-12.1
			c1.7-2.7,3.3-5.3,5-8c4.6-1.3,10.2,0.4,13.7,4.2c2,4.1,8,6.1,6.5,12.1c-2.1,0.4-3.1-1.3-4.3-2.5c-5.3-5-6.4-5-11.8,0.8
			c3.2,2,6.4,2.8,9.9,1.3c2.5-1.1,4.2,0.3,6,1.6c-2.7,3.5-6.4,4.3-10.5,4.2c-2.2,0-3.9,0.3-3.9,3.2C75.9,94.6,80.6,100.5,86.6,102.1
			z"/>
		<path style="fill:#745E4B;" d="M52.6,68.3c-1.7,13.6-10.7,24.6-13.9,38c-2-1-4.1-2.1-6.2-3.1c2.5-3.2,5.9-5.7,7.1-10
			c1.6-5.4,1.9-9.5-5.2-10.6c-1.6-0.2-3.1-1.5-4.6-2.3c2.1-3,4.7-1.4,7.2-0.9c2,0.5,4,0.2,5.6-1.2c1.1-1,0.1-2-0.7-2.8
			c-1.8-1.7-3.8-2.1-6-0.7c-2.2,1.4-4,3.6-7,3c-0.2-4.3,3.7-5.7,5.9-8.3c1.5-1.8,1.4-2.5-0.9-2.8c3-2.9,6.4-5,10.7-4.1
			c1.4,0.3,2-0.2,2.8-1C50,63.1,51.3,65.7,52.6,68.3z"/>
		<path style="fill:#A27F5C;" d="M108.1,92.3c2.3,2.7,4.5,5.3,6.8,8c1.8,3.4,2.4,6.9,0.4,10.4c-3.9,2-4-1.8-5.6-3.4
			c0.7,1.7,1.5,3.3,2.9,4.6c3.6,2.1,3.4,5.3,2.4,8.7c-1.7,1-2.8,0-3.9-1.1c1.2,2.3,4,3,5.3,5.3c0.1,1.9-1,2.8-2.6,3.4
			c-0.3,0.5-2.1-0.4-1.2,0.6c1.4,1.5,2.9,2.6,3.4,4.7c0.3,2.8,0,5.3-3.1,6.5c-2,0.3-2.8-1.5-4.1-2.2c1.2,1.8,4,2.7,3.2,5.8
			c-0.5,1.4-1,2.8-1.5,4.2c-4.4-1-6.3-4-6.6-8.3c2.6-14.4-0.2-29.1,2.7-43.4C107,94.8,107.6,93.6,108.1,92.3z"/>
		<path style="fill:#A37D58;" d="M78,180c6.8-10.3,16.5-18.5,21.9-29.8c2.4,2.5,1.9,5.2,0.7,8c-1.9,2.1-1.7,4.3-0.8,6.7
			c1.2,3.1,2.2,6.2,1.6,9.6c-5.1,0.9-1.2,6.3-4.1,8.3c-2.8-3-0.5-7.4-2.8-10.5c0.1,3,3,6.2-0.2,9.1c-1.2,0.4-2.5,0.9-3.7,1.3
			c-1.8-0.8-2.2-2.7-3.8-5c1.4,4.9,2.3,8.8,1.2,12.8c-2.4-2.5-4.5-1.2-6.7,0.3c-3.4-2.9-0.1-7.5-2.6-10.6
			C78.5,180.2,78.2,180.1,78,180z"/>
		<path style="fill:#120804;" d="M90.2,81.5c-6.4-0.8-12.9,1.9-19.6-0.9c1.7-4.1,4.6-7.4,9.2-8.2c4.6-0.8,6.6,2.9,8.6,6.2
			c0.5,0.7,1.3,1.3,1.9,1.9C90.4,80.7,90.3,81.1,90.2,81.5z"/>
		<path style="fill:#170A07;" d="M28.9,77.8c2.1-1.5,4.3-3.1,6.4-4.6c1.7-1.2,3.5-2.2,5.5-0.9c2.4,1.6,6.2,4.1,4.9,6.2
			c-1.4,2.3-5.4,4.2-9.1,3c-2.2-0.7-4.1-2.7-6.7-1.1C28.7,79.9,28.5,78.9,28.9,77.8z"/>
		<path style="fill:#2E1B0C;" d="M71.4,182.8c0.2,1.8,0.5,3.6,0.7,5.3c-0.5,4.2-0.6,8.4-4.2,12.3c0-5.5-0.2-11.1,0.1-16.6
			C68,181.6,69.5,180.7,71.4,182.8z"/>
		<path style="fill:#342211;" d="M45.9,174.5c0.6-2.8-0.1-6.1,4.4-9c0,4.6,0,8.2,0,11.7c-0.5,2.6-1,5.1-1.5,8.4
			C46,181.9,46.5,178.1,45.9,174.5z"/>
		<path style="fill:#1E0E04;" d="M94.4,181.4c0.9-4.9-2.2-8.7-4.4-13.9c9.5,2.9,6.8,9.8,7.3,15.3c-0.5,0.8-0.4,2.6-1.7,2
			C94.8,184.3,94.7,182.5,94.4,181.4z"/>
		<path style="fill:#341305;" d="M83.8,68.2c-2.6-1.1-5.4-1.9-7.8-3.3c-2-1.2-2.2-0.9-3.8,0.9c-2.9,3.2-1.3-1.2-2.1-1.8
			c0.9-2.9,1.9-5.2,5.4-2.3c3.9,3.3,10,2.5,13.3,7.1C86.9,70.3,85.6,67.9,83.8,68.2z"/>
		<path style="fill:#2C150D;" d="M39.5,182.8c-0.9-5.5-2.6-10.8-1.6-16.5c0.5-2.8,0.6-5.8,4.1-7.8c-1,5.2-2.2,9.9-1,14.8
			C40,176.4,42.2,179.9,39.5,182.8z"/>
		<path style="fill:#9C7C5D;" d="M98.5,158.6c2.6-2.5,1-5.6,1.4-8.4c0,0,0.3,0.2,0.3,0.2c6.5,2.5,4.2,8.4,5,13.1
			c0.4,2.4-0.1,4.4-2.3,5.8C100,166.3,98.9,162.5,98.5,158.6z"/>
		<path style="fill:#29140C;" d="M88,190.5c-1.1-5.2-2.1-10.3-3.3-15.9c5.1,0.9,4.6,5.2,5.9,8.2C89.6,185.3,89.9,188.2,88,190.5z"/>
		<path style="fill:#120100;" d="M60.8,181.4c0.3-1.3,0.6-2.5,0.9-4.2c3.3,1.8,0.5,5.4,2.7,7.1c-0.5,3.2-0.9,6.5-1.4,9.7
			C60.5,189.9,62.4,185.5,60.8,181.4z"/>
		<path style="fill:#7C5E45;" d="M78.3,126.1c1.1-6.2,2.5-12.3,7.9-16.3C85.3,116,83.9,122.1,78.3,126.1z"/>
		<path style="fill:#9C7D5F;" d="M100.2,149.3c0-0.5,0-1.1-0.1-1.6c0.8-1.4,1.6-2.7,2.5-4.1c3.8,0.5,5.5,3.2,6.8,6.4
			c0,3.1-0.7,6-2.6,8.5C104,155.8,104.6,150.7,100.2,149.3z"/>
		<path style="fill:#301005;" d="M47.3,61.5c-0.1,1.5,0.7,3.1-0.5,4.7c-4.5-6-8.6-0.8-12.9,0.5c-1.2-0.2-2.8,1-3.4-1.1
			c0.8-0.4,1.6-0.8,2.4-1.2c3-0.7,5.9-1.8,8.3-3.8C43.7,58.7,45.5,59.4,47.3,61.5z"/>
		<path style="fill:#2F180A;" d="M100.2,149.3c7.2-0.5,5.5,5.3,6.5,9.2c-0.5,1.7-1.1,3.4-1.6,5.1c-3.1-3.9-0.9-9.7-5-13.1
			C100.1,150,100.1,149.6,100.2,149.3z"/>
		<path style="fill:#2B1508;" d="M98.5,158.6c3,2.9,3.5,6.9,4.4,10.7c-0.5,1.7,0.6,3.9-1.4,5.2c-1.4-3.9-2.7-7.8-4.2-11.7
			C96.6,160.9,96,159.3,98.5,158.6z"/>
		<path style="fill:#231A0F;" d="M78.8,180.2c5,2.5,1.4,7.2,2.6,10.6c-0.6,1.2-1.1,2.3-2.6,5.4C78.4,189.6,77.9,184.9,78.8,180.2z"
			/>
		<path style="fill:#291F14;" d="M53.8,176c0.3-1.2-0.1-3.2,1.4-3.3c2.6-0.3,1.3,2.1,1.6,3.3c0.2,1.3,0.2,2.6,0.3,3.9
			c-0.7,1.5,0.2,3.6-2.2,4.8C53.4,181.8,54.2,178.8,53.8,176z"/>
		<path style="fill:#321508;" d="M109.4,149.9c-2.3-2.1-4.5-4.2-6.8-6.4c0.1-1.5-1.2-3.4,1.4-4c2.2,2.8,4.4,5.5,6.6,8.3
			C110.5,148.7,110.7,149.8,109.4,149.9z"/>
		<path style="fill:#2A1006;" d="M112.1,143.6c-2.2-3.1-6.2-5.1-6.2-10.3c3.3,1.2,4.5,4.1,6.4,6.2c1.2,0.6,2,1.6,2.4,2.9
			c-0.4,0.5-0.9,1.1-1.3,1.6C113,143.7,112.6,143.5,112.1,143.6z"/>
		<path style="fill:#D59C5F;" d="M181,215c15.4,10.8,32.8,12.1,50.7,10.1c23.5-2.6,43.8-14.4,65.3-22.9c16.2-6.4,32.8-11.8,50.8-7.5
			c4.9,1.2,8.6,4.9,13.7,5.4c3.9,5,6.7,10.9,11.9,14.9c0.4,1.5,0.8,3,1.3,4.4c-1.4,0.7-2.6,0.2-3.7-0.7c-3.1-4-7.1-6.6-11.7-8.6
			c-3.8-1.7-6.9-1.1-9.8,1.6c-3.1,2.8-3.2,6.4-1.6,9.8c2.2,4.9,5.4,9.2,9.2,13.1c10.1,10.5,21.4,19.7,33.8,27.3
			c9.5,5.7,19.9,9.9,31.1,11.5c12,2.2,17.7,9.3,18.5,21.6c1.4,22.3,10.6,42.9,15.7,64.5c1,4.4,2.2,8.7,1.5,13.2
			c-0.4,2.4-0.7,5.1-3.7,5.8c-2.8,0.6-6,2.3-8.3,0c-2.1-2-0.8-5,0-7.6c0.5-1.4,1.7-2.6,1-4.6c-2.8,2.6-4.5,5.6-4.5,9
			c0,4.6-2.6,5.4-6,5c-3.8-0.5-4.9-3.3-4.4-7c0.5-3.2,2.9-5.3,5.9-8.8c-6,2-8.1,5.3-9.1,9.6c-0.4,1.7,0.6,4.6-3,3.5
			c-2.9-0.8-2.9-3-2.4-5.4c0.8-3.3,3-5.5,5.8-7.1c7.8-4.5,9.3-11.2,8-19.5c-1.7-10.8-6.2-20.1-13.9-27.7c-4.8-4.7-9.9-9.1-15.6-14.3
			c2.8-0.8,4-1.1,5.5-1.5c-3.3-3.1-7.8-1.4-11.2-3.3c-10-2.3-20.3-2-30.4-3.3c-24-3-42.7-14.5-57.3-33.4c-4.2-5.4-7.8-11.5-14.8-14
			c-2.2-0.5-2.5-2.2-2.7-4c-0.1-1.5-0.7-2.6-2.5-2.2c-0.2,0.4-0.3,0.8-0.2,1.2c-2.8,0.7-2.4-1.7-2.8-3.1c-0.6-2.3-0.2-4.9-1.6-7
			c0.1,3.9,2.1,8.1-1,11.8c-1.1,0.1-2.1,0.2-3.2,0.3c-4.2-0.5-7.1-4.5-11.6-4.4c-0.2,1.1-0.4,2.2-1.5,2.8c-4.3,0.4-8.3-0.8-12-2.9
			c8-2.5,16.1-3.4,24.8-1.1c-1-1.5-1.6-2.4-2.2-3.3c-1.6-3.4-2.1-7.3-4.7-10.2c-0.4-0.5-0.7-2.2-1.8-1c-0.3,0.3,0.5,1.6-0.4,2.3
			c-1.3,1.4-2.4,0.4-3.7-0.1c-3.8,0.3-5.3-4.9-9.4-3.9c-13,0.1-24.7,5.1-36.3,10.1c-10.1,4.4-20.7,4.4-30.9,2.8
			C188.4,234.9,180.6,227.8,181,215z"/>
		<path style="fill:#331A0E;" d="M254.8,246.1c-3.7-2.5-8.1-1.6-12-2.8c4.9-4,8.5-3.7,17.4,1.5c0.2,2.6,3.5,4,2.6,7.5
			C259.9,250.1,257.4,248.1,254.8,246.1z"/>
		<path style="fill:#261107;" d="M276,227.2c-0.2-2.5-4.1-2.9-3.3-5.9c7.1,1.2,10.4,5.9,10.3,14.8C279,234.4,279.6,229.2,276,227.2z
			"/>
		<path style="fill:#321C0E;" d="M263,223.2c5.1-3.5,6.7,1.6,9.4,3.9c-0.2,2.8,0.9,5.8-1.9,9C270.2,230,267.5,226,263,223.2z"/>
		<path style="fill:#2B0E05;" d="M260.3,240.4c4.3-0.5,8.3,0.6,12,2.9c0.9,1.5,2.2,2.8,2.1,5.2c-4.5-1.4-7.9-5.4-12.9-5
			C261.1,242.5,257.2,242.8,260.3,240.4z"/>
		<path style="fill:#E4C49F;" d="M299.1,247.3c0.7-2.6,1.8-1.6,3.3-0.6c4.9,3.5,8.8,8.2,12.4,12.9c14.4,19.3,32.8,31,57.2,33.9
			c10,1.2,20.5,0.6,30,5.1c-15.2,0.3-30.5,0.7-45.5-2.9c-10.3-2.5-20.3-5.5-28.1-13.4c-1.4-1.4-1.6-1.3-2.9-0.2
			c-0.1,0.1,0.6,1.1,0.9,1.6c-0.7,2.3-1.6-0.1-2.4,0c-4.5-2.2-7.6-5.7-9.7-10.2c-0.5-1.1-0.5-2.8-2.5-2c-1.9,1.9-1.9-1.1-3-1.1
			c-5.6-4.2-3.4-10.9-5.4-16.2c-2.3,1.8-1.1,4.5-1.7,7.1c-2.6-0.7-2.1-2.9-2.7-4.5C296.9,253.6,296.9,250.5,299.1,247.3z"/>
		<path style="fill:#2C160B;" d="M288.6,244.6c0.3-5.3,0.3-10.5-2.8-16c5.9,0.2,5.5,4.7,6.8,7.8c0.9,2.1-1.4,4.9,1.3,6.6
			c0.8,3.2-2,5.1-3.4,8.1C289.9,248.9,289.2,246.8,288.6,244.6z"/>
		<path style="fill:#27190E;" d="M299.1,247.3c0,3.1,0,6.3,0,9.4c-0.5,3.2-1,6.5-1.8,11.1c-4-9.3-0.4-18.1-3.2-26.1
			c1.2-3.9,2.7-1.8,3.6,0C298.5,243.4,298.6,245.4,299.1,247.3z"/>
		<path style="fill:#2E180B;" d="M311.8,271.5c0-1.3-0.9-3,0.6-3.6c1.3-0.5,1.6,1.1,2,2.1c2.1,5.3,5.6,9.6,9.5,13.6
			C316.6,282.9,314,277.5,311.8,271.5z"/>
		<path style="fill:#2C1609;" d="M303.4,254.2c3.4,4.9,2.2,11.3,5.4,16.2c0.3,1.9,0.5,3.7,1,7.4
			C304.6,269.4,302.1,262.3,303.4,254.2z"/>
		<path style="fill:#321508;" d="M273.8,240.5c5.4-2.5,8.1,2,11.6,4.4C280.2,247,277.5,242.5,273.8,240.5z"/>
		<path style="fill:#E3C4A0;" d="M421.9,273.4c-1.5,1.3-3.5,1.3-5.1,0.7c-9.5-3.2-19.5-5.5-27.9-11.2c-11.4-7.7-22.3-16.2-32.1-26
			c-4-4-7.2-8.6-10-13.5c-2.3-4-3.3-8.7,0.6-12.4c3.7-3.4,7.6-5.5,13.2-2.2c4.5,2.6,9.2,4.4,11.5,9.4c0.1-0.9-0.1,1-0.6,0.3
			c-0.3-0.4-1,0.2-0.7,0.5c2.4,1.9,5.7,2,7.9,4.2c-0.4,0.4-0.8,0.8-1.3,1.2c-1.3,2.5,1,2.9,2.2,3.9c1.6,1.4,4.2,1.7,4.5,4.4
			c-0.9,0.8-1.8,1.5-2.7,2.3c3.5,2.9,8.2,4.2,10.8,8.2c-0.1,0.9,1.6,1.9-0.1,2.8c-0.6,0.3-1.5,0-1.9,0.3c-0.8,0.6,0.3,0.7,0.6,1
			c2.7,2.5,7.6,1.5,9.4,5.5c-0.8,2.6,4.2,2.4,2.7,5.4c-4.4,1.9-6.6-2.3-9.9-3.2c2.2,2.1,5.8,2.8,7.3,5.9c0.1,1.8,0.5,3.4,2.6,3.9
			C408.9,268.6,415.4,270.9,421.9,273.4z"/>
		<path style="fill:#8F7A67;" d="M265.7,357.9c0.5,1,0.9,2.1,1.4,3.1c-0.7,1.8-1.4,3.7-2.2,5.5c-0.5,1.2,0.8,3.8-1.9,3.1
			c-2.2-0.5-3.1-2.3-2.1-4.7C262.1,362.3,263.5,359.9,265.7,357.9z"/>
		<path style="fill:#C69D6E;" d="M99.7,277.2c0.6-0.2,0.7-3.2,1.5-0.7c5.6,17.5,13.7,34.2,13.8,53.2c0,6.8,1.8,13.5,0,20.5
			c-2.2,8.5-8.1,14.7-16.9,16.4c-7.9,1.5-9,3.2-7.6,11.4c0,0,0,0,0,0c-2.8,1.5-3.5-0.6-4.1-2.6c-0.7-2.4-0.8-4.8-0.4-7.3
			c1-3.9,4.2-2.6,6.7-2.9c0.9,0-0.3-1.2,0.1-0.4c-2.5,0.5-5.1,0.5-7.6,1.1c-1.3,0.5-2.7,1.1-4,1.6c-1.5-0.7-2.2-1.7-1.7-3.4
			c2.3-3.1,5.7-3.1,9.1-3.3c10.8-0.6,11.1-0.8,14-11.4c0.8-3,1.9-6,1.5-9.2c1.7-8,0.3-16-0.7-23.9C101.7,303.4,100,290.4,99.7,277.2
			z"/>
		<path style="fill:#9D7C61;" d="M86.5,367.3c3.2,2.9-1.4,8.7,4,10.7c-0.1,0.2-0.3,0.4-0.4,0.5c-3.5,0.8-8.5,3-10.2-0.2
			c-2.4-4.4,2.3-7.8,5.3-11C85.6,366.8,86,366.8,86.5,367.3z"/>
		<path style="fill:#90816F;" d="M105.6,374.4c0.4,0.4,0.8,0.8,1.3,1.2c-4.5,3.3-7.1,7.8-6.8,14.7
			C96.5,383.3,98.2,379.1,105.6,374.4z"/>
		<path style="fill:#917C68;" d="M79.5,364.2c0.6,1.1,1.1,2.3,1.7,3.4c-1.9,2.9-3.7,5.7-6.2,9.5C73.5,370.9,76.1,367.4,79.5,364.2z"
			/>
		<path style="fill:#90816F;" d="M109,376.4c0.6,0.5,1.2,1.1,1.7,1.6c-2.7,3.4-6.6,6.2-6.6,11.2C101.6,383.6,106.3,380.3,109,376.4z
			"/>
		<path style="fill:#2E1505;" d="M86.5,367.3c-0.5,0-0.9-0.1-1.4-0.1c0-0.4,0-0.8,0-1.3c2.8-2.8,6.1-1.7,11-1.8
			C92.3,366.9,88.8,365.3,86.5,367.3z"/>
		<path style="fill:#210F06;" d="M400.4,261c-4.5-2.2-9.7-3.6-12.6-9.4c6.3,0.5,9.9,5.7,15.1,6.8c4.1,1.4,8.3,2.8,12.4,4.1
			C410.1,263.8,405.4,261.2,400.4,261z"/>
		<path style="fill:#25160D;" d="M400.3,252.9c-5.3-2.6-12.3-2.6-14.9-9.9c3.3-0.3,4.4,2.7,6.8,3.2c2.6,1.3,5.3,2.6,7.9,3.9
			C401.9,250.9,401.6,251.8,400.3,252.9z"/>
		<path style="fill:#2B1208;" d="M384.2,232.8c-2.8-1.9-5.8-3.4-8.3-5.7c-2.2-2-1.2-3.1,1.6-2.6c2.8,3.6,7.9,4.3,10.2,8.5
			C386.4,234.7,385.3,232.8,384.2,232.8z"/>
		<path style="fill:#452513;" d="M378.7,223.3c-4.4-0.5-8.4-1.9-11.2-5.8c2-1.6,3.1,0.7,4.6,0.8c0.9,0.4,1.7,0.8,2.6,1.2
			c1.5,0.3,3,0.7,4.4,1c0.9,0.2,2,0.4,1.6,1.5C380.6,222.5,379.4,222.8,378.7,223.3z"/>
		<path style="fill:#331D11;" d="M392.3,243.3c-3.6-2.7-8.6-3.6-10.8-8.2C386.2,236.4,391.1,237.4,392.3,243.3z"/>
		<path style="fill:#8B6F53;" d="M23.2,8.9c10.3,8.7,13.3,19.6,9.6,32.5c-4.5-3.4-3.1-9.5-6.8-13.7c1.1,7.8-1,15.6,2.3,22.9
			c-1.3,5.1-3.1,4.6-6.4,1.2c-4.6-4.9-8.2-9.9-6.5-17C15,26.7,18,19.4,19.5,11.9C19.8,10.3,20.8,8.5,23.2,8.9z"/>
		<path style="fill:#8C6F53;" d="M98.5,52.8c-3.8,0.7-3.6-3.2-5.4-4.7C93,41.6,94.8,35.3,95,28.6c-4.8,3.7-3.5,10.5-7.6,14.3
			c-6.3-3.7-3.9-9.3-2.8-14.3c1.2-5.6,5.1-9.9,8.5-14.3c3.7-5.2,6.5-5.6,7.7-0.9c2.7,10.8,5.3,21.8,2,33
			C102.1,48.9,101.3,51.5,98.5,52.8z"/>
		<path style="fill:#392E26;" d="M98.5,52.8c6.9-14,3.1-27.9,0-42.5c-2.2,1.6-3.8,2.8-5.3,3.9c-3.2-1.3-3.2,3.1-6.9,3.2
			c3.2-4.4,5.5-8.8,9.6-11.5c4.5-3.1,7.2,0.3,7.6,4c1.2,13.5,3.9,26.9,3.2,40.5c-0.1,1.3-0.4,2.8-1.1,3.8c-1.5,2-0.6,6.6-3.8,6
			C98.8,59.7,98.5,55.8,98.5,52.8z"/>
		<path style="fill:#3F332B;" d="M23.2,8.9c-4.8,6.8-3.4,15.4-6.6,22.7c-0.4,1-0.8,2-1.3,3c-3.2,3.5-1.8,7.3-0.4,10.9
			c0.8,2,2.4,3.7,3.9,5.4c6.6,7.5,6.6,7.5-1.2,15.2c-1.8-1.1-1.2-2.8-0.6-4.1c1.9-4.4,0.5-7.8-3.2-10.5c-3.5-2.6-4.1-5.5-3-9.8
			c3-11.7,4.5-23.8,8.3-35.4c1.8-0.9,3,0,4.1,1.4C23.1,8,23.1,8.4,23.2,8.9z"/>
		<path style="fill:#E5C49F;" d="M28.2,50.5c-3.1-0.5-3.8-2.9-3.8-5.4c-0.1-6.8,0-13.6,0-21.8c6.2,5.6,6.5,12.2,8.4,18
			C32.5,45,31.3,48.2,28.2,50.5z"/>
		<path style="fill:#44392B;" d="M23.2,7.6c-1.4-0.5-2.7-0.9-4.1-1.4c0.9-4.6,4-2.4,5.4-1.1c6.8,5.9,14.8,10.9,15.1,21.7
			c0.1,5.4,5.2,11.3-3.7,14.6c1.9-10.3,0.4-20-6.1-28.6C28,10.5,26.5,7.9,23.2,7.6z"/>
		<path style="fill:#E1C3A2;" d="M87.4,42.9c0.4-7.2,3.9-13,8.5-18.5c0.6,8.1,1.1,16.1-2.8,23.7C91.2,46.3,89.3,44.6,87.4,42.9z"/>
		<path style="fill:#3D332F;" d="M74.9,35.2c2.4-3,4.3-5.4,6.7-8.3c1.1,4,2,8-0.1,10.7C80.1,39.4,77.4,36.4,74.9,35.2z"/>
		<path style="fill:#1D1008;" d="M105.2,221.6c-4.7-2.6-1.5-7.2-2.7-10.7c0.1-1.9,0.1-3.7,2.8-2.3
			C106.5,213,105.5,217.3,105.2,221.6z"/>
		<path style="fill:#775D44;" d="M114.7,142.4c-0.8-1-1.6-1.9-2.4-2.9c3.2-1.3,2.4-4.2,2.6-6.7c1.7-2.4-3-2.9-1.5-5.3
			c0.9-0.9,1.8-1.8,2.7-2.7c1.8-2.1-2.1-2.1-1.3-3.9c-0.7-2.8,0.6-6.2-2.8-8.1c0.1-0.9,0.6-1.4,1.5-1.6c2.5-3.4,0.5-7.3,1.4-10.9
			c3.6,2.2,7.1,4.4,10.7,6.6c3.5,11.1-1.8,20.2-6.9,29.3C117.5,138.4,116,140.3,114.7,142.4z"/>
		<path style="fill:#3C1F0D;" d="M141.7,161.2c-4.1-2.4-3.6-8.6-9.4-10.2C139.3,149.3,141.7,152.2,141.7,161.2
			C141.7,161.2,141.7,161.2,141.7,161.2z"/>
		<path style="fill:#2F2019;" d="M116.2,190.9c5.5,4.9,1,10.6,1.2,16C114.1,201.7,116.3,196.2,116.2,190.9z"/>
		<path style="fill:#260F07;" d="M110.7,200.2c5.6,3.4,1.8,7.4,0,11.2C110.7,207.7,110.7,204,110.7,200.2
			C110.7,200.2,110.7,200.2,110.7,200.2z"/>
		<path style="fill:#E9BCB9;" d="M50,130.3c0-6.9,1.4-8.1,9.5-8c8.5,0.2,10.9,2.8,10.8,12c-0.1,6.9-5,13.3-10.1,13.1
			C55.1,147.1,50,138.7,50,130.3z"/>
		<path style="fill:#715B49;" d="M68.7,99.3c1.8,0.3,3.5,0.7,5.3,1c1,5.8,3.1,11.9-2.5,16.7c-1.2,1-2.3,2.1-3.7,2.8
			c-2.3,1.3-4.4,0.8-5.8-1.3c-1.6-2.4,0.1-3.6,1.9-4.7C69.9,110.4,71.9,105.7,68.7,99.3z"/>
		<path style="fill:#6D5D4A;" d="M43.1,99c1.8,2,3.6-0.5,5.5,0c-2.7,8.5-1.2,12.1,6.6,15.2c1.6,0.6,3.1,1.2,2.8,3.1
			c-0.3,2.7-2.5,2.1-4.2,2C45.6,119,40.5,109.3,43.1,99z"/>
		<path style="fill:#958D89;" d="M68,103.8c-6.9-1.1-12.4-0.8-18,1c-0.3-4.7,2.9-6,6.2-6.5C60.6,97.6,64.9,98.3,68,103.8z"/>
		<path style="fill:#302629;" d="M46.5,128.6c-4.6-4.9-5.7-7.5-6.8-16.3C43.7,117.7,51.1,120,46.5,128.6z"/>
		<path style="fill:#3D1E0E;" d="M113.5,111.2c-0.5,0.5-1,1-1.5,1.6c-2.9-2.9-5.9-5.7-3.7-11C111.6,104.6,111.2,108.7,113.5,111.2z"
			/>
		<path style="fill:#2D1304;" d="M114.7,120.9c0.9,1.1,2.9,1.9,1.3,3.9c-4.8-0.6-6.1-4.5-8.4-8.4
			C111.6,116.3,112.2,120.1,114.7,120.9z"/>
		<path style="fill:#341709;" d="M113.4,127.5c1.1,1.1,2.2,2.2,3.1,3.4c0.4,0.5,2,0.8,0.8,1.8c-0.5,0.4-1.7,0.1-2.5,0.1
			c-2-2.3-5-3.5-6.6-6.7C110.8,124.4,111.8,127,113.4,127.5z"/>
	</g>
</g>
<circle style="fill:#FFFFFF;" cx="39.2" cy="76.9" r="2.5"/>
<circle style="fill:#FFFFFF;" cx="81.2" cy="76.9" r="2.5"/>
</svg>
