<?xml version="1.0" encoding="utf-8"?>
<!-- Generator: Adobe Illustrator 23.0.3, SVG Export Plug-In . SVG Version: 6.00 Build 0)  -->
<svg version="1.0" id="Layer_1" xmlns="http://www.w3.org/2000/svg" xmlns:xlink="http://www.w3.org/1999/xlink" x="0px" y="0px"
	 viewBox="0 0 512.2 389" style="enable-background:new 0 0 512.2 389;" xml:space="preserve">
<path style="fill:#F5AB52;" d="M419.1,302.1c-3,17.5-8.6,34.4-12.4,51.7c-0.7,3.4-1.3,6.8-2.1,10.2c-1,3.9-3.1,6.4-7.7,6.1
	c-5.3-0.3-10.6,0-15.9-0.1c-6.4-0.1-10.1-4.2-8.5-10.4c0.9-3.6-0.3-3.8-3.2-3.8c-2.8,0-5.6,0.7-8.3-0.6c0.6-0.9,1.6-1.5,2.6-1.3
	c8,1.5,13.3-4.2,19.5-7.3c2.5-1.2,3.6-3.4,3.6-6.1c0.1-12.5-1.2-24.9-3.9-37.2c-0.9-4-4-6-7.1-8c-2.8-1.7-6.2-2.6-8.3-5.4
	c-4.5-3.1-8.9-6.4-12.8-10.2c-2.4-2.4-5.4-3.8-8.9-4c-5.6-0.4-8.8-3.2-9.5-8.9c-0.4-2.9-0.4-6.3-5.5-4.9c-2.7,0.8-3.6-2.4-4.4-4.6
	c-1.3-3.8-2.1-8.3-7.9-5c-0.6,0.4-2.1-0.1-2.8-0.6c-4.1-3.2-7.9-2-11.3,1c-9.1,8.2-20.4,10.1-31.9,11.2c-6.6,0.6-12.8,1.6-17.7,6.7
	c-3.6,3.7-7.8,3.2-11.9,0.8c-4-2.3-6.1-1.7-7.1,3.3c-1.5,7.1-2.6,7.8-9,5.9c-4-1.1-5,0.2-5.4,3.7c-0.3,2.8-0.3,6.2-5,3.6
	c-1.8-1-3.4,0.8-4.5,2.3c-1.9,2.8-4.1,4.3-7.5,2.3c-2.2-1.3-3.5-0.4-4.1,1.9c-1.1,4-2.1,8-3,12.1c-4.6,21.1-13.8,40.1-24.9,58.4
	c-1.6,2.6-3.8,4.4-6.8,4.6c-5.8,0.3-11.6,0.3-17.5,0.3c-2.7,0-3.3-2.1-3.6-4.1c-0.6-3.6-0.7-7.3,1.7-10.5c0.5-4.8,4.7-3.8,7.5-4.9
	c4.9,0.4,6.6-2.6,7.5-6.8c0.5-2.5,0.8-4.9,0.4-7.4c2.5-18,2.2-35.8-3.3-53.3c-0.3-0.9-0.2-2.4-1-2.7c-5.5-2.6-6.5-8-8.3-12.9
	c-0.4-1-1-2.1-2.6-2c-1.6,1.6-0.3,4.4-2.3,5.8c-3.3,2.8-5.4,2.2-6.6-2.1c-1.5-5.2-3.2-10.4-4.9-15.9c-2.7,1.2-2.1,3.8-3.1,5.8
	c-10-7.5-10.3-20.9-18.5-30.3c-1,2.7-1.6,4.4-2.4,6.5c-4.1-4.7-6.6-10.1-9.5-15.2c-9.1-16.1-16.7-32.9-23-50.2
	c-1.4-3.8-1.8-7.7-1.9-11.7c-0.3-21.3,1.9-42.6,1.2-63.9c2.5,0.5,1.9,2.6,2.2,4.2c0.3,1.8,0.8,3.4,1.3,5.1c2.6,6.6,4.1,7.3,11.9,6.1
	c7.3,3.6,14.7,4.4,22,0.2c0.5-0.2,1-0.3,1.5-0.3c8.1,0.9,9.4,0,11.6-8.2c0.7-2.6,0.3-5.5,2.8-7.3c2.4,0.8,2.3,3,2.7,4.8
	c0.4,2.1,0.4,4.3,1.9,6.4c4.7-5.3,9.9-9.8,13.3-16c1-2,1.6-4.9,4.7-5c6.2,6.7,12.1,13.7,19.1,19.6c11.8,9.9,26.3,14.1,40.3,19.2
	c17.1,6.3,35,8.8,53.2,9.4c25.6,1,51.2,1,76.6,4.6c27,3.8,46.1,19.3,61.9,39.9c7.6,9.8,12.5,21.1,14.5,33.4
	c2.1,14.8-1.6,29.1-3.8,43.5c-1.6,10.8-0.5,20.8,6.5,29.8C423.4,288.2,422.8,297,419.1,302.1z"/>
<path style="fill:#F5AB52;" d="M78.1,104c-2.8-2.8-0.9-6.9-2.8-10c-0.3-0.9,0-2.1-1-2.8c-1.2-0.9-1.5-2.2-1.4-3.5
	c0.8-11.7-1.3-23.1-3.3-34.5c-1.7-9.9-1-19.5,3.8-28.5c0.5-0.9,0.7-1.8,0.5-2.9c16.8-4,33.6-5.8,50.5-0.9c1.9,0.5,4.1-0.7,5.7,1.1
	c-0.2,1-0.1,2,0.4,2.9c5.6,10.5,5,21.6,2.8,32.7c-2,10.2-3,20.4-2.7,30.7c0.1,2,0.2,4-1.4,5.6c-1.4,2.5-2,5.1-2,8
	c-2.7,0.3-2.9-1.8-3.3-3.5c-2.8-13.3-8.3-25.6-13.8-37.9c-1.6-3.5-2.9-7.1-3.8-10.8c-2.1-8.6-1.9-10.4,4-18.9
	c-5.6,3.6-10.2,4.1-15.2,0.6c7.6,8.5,3.9,16.9,0.9,25.3c-2.7,7.5-6.5,14.6-9.4,22.1c-2.7,7-5,14.1-6.2,21.6
	C80.1,101.8,80.7,103.9,78.1,104z"/>
<path style="fill:#F2993A;" d="M154,351c-2.5,1.8-6.4,0.9-8,4.3c-4.5,0-9-0.2-13.4,0.1c-4.1,0.3-5.7-1.6-6.2-5.2
	c-1.1-7.1,2.3-11.6,9.5-12.2c4.9-0.4,7.5-2.9,8.5-7.6c3.9-18.6,3.6-37.2,0.2-55.9c-0.2-1.1-0.3-2.3-0.4-3.4c0-1.3,0-2.7,0.1-4
	c0.1-1.7-0.6-4.1,1.8-4.6c2-0.3,3.2,1.7,4,3.2c1,2.1,1.7,4.3,2.2,6.6c0.6,3,1.6,5.5,5.3,5.1c1.4-0.1,1.5,0.7,1.8,1.7
	c4,15.2,5.9,30.5,5,46.2c-0.2,4-0.6,7.9-2,11.7C161.3,342.8,158.9,347.6,154,351z"/>
<path style="fill:#BA6C24;" d="M73.8,21.8c0.7,0.6,3.7-0.6,2,1.8c-7.2,10.1-6.8,21.3-4.5,32.4c2.4,11.7,3.3,23.4,2.9,35.3
	c-0.2,4.8-0.9,9.6-2.1,14.3c-0.3,1-0.5,2.1-1.6,2.3c-1.3,0.2-1.5-1.1-1.9-1.9c-2.2-4.4-6.8-6.8-9.4-10.9
	c-4.8-7.4-8.4-15.4-11.8-23.6c-1.5-3.5-2.8-7.1-4.9-10.4c-2-3.1-1.7-6.3,0.8-8.7c9.7-9.4,18.8-19.3,28-29.1
	C71.9,22.6,73,22.3,73.8,21.8z"/>
<path style="fill:#BA6C24;" d="M129.1,94c-0.7-14.6,1.1-29,3.7-43.4c1.5-8.8,1.1-18-4.5-25.8c-1.8-2.5-0.3-2.7,1.7-2.8
	c2.6,1,4.2,3.2,6,5.2c7.1,8.2,14.6,16,22.5,23.4c3.8,3.5,4.5,7.1,1.8,11.9c-3.8,6.8-6.8,14-9,21.4C146.6,92,140.6,99,134.6,106
	c-0.5,0.6-0.7,1.8-1.7,1.4c-0.6-0.2-1.3-1.1-1.4-1.8C130.6,101.8,129.9,97.9,129.1,94z"/>
<path style="fill:#F2993A;" d="M423.2,237.7c8.2,27.6,29.3,46,48.5,65.7c-0.5,0.5-0.9,1-1.4,1.5c-2.6,0-5.1,0.1-7.7,0
	c-2.5-0.1-4.8-0.1-6.9,1.8c-3.3,2.9-6.1,0.3-8.9-1.6c-3-2.1-5.9-6.8-9.3-0.2c-0.7,1.3-2.4,0.2-3.6-0.3c-2-0.9-3.9-1.8-5.9-2.7
	c-0.3-0.6-0.3,0.2-0.3-0.4c0-8.8-5.6-15.5-8.4-23.3c-3.4-9.3-1.5-18.7,0-28C420,245.9,419.5,241.1,423.2,237.7z"/>
<path style="fill:#F2993A;" d="M367.2,290c4.7,1.3,8.8,3.8,12.7,6.6c5.2,3.6,5.2,9.6,5.8,14.8c1.1,9.1,2.5,18.3,2.4,27.6
	c-0.1,4.8-1.2,8.5-6.4,9.7c-0.6,0.2-1.4,0.4-1.8,0.9c-5.2,6-12.2,5.6-19.1,5.6c-5.6-1.7-7.8-5.5-6-10.8c1.7-5.3,5.4-8.7,10.7-10.2
	c4.2-1.2,5.9-3.8,5.6-8.1C370.5,313.9,369.4,301.9,367.2,290z"/>
<path style="fill:#BA6C24;" d="M423.2,237.7c-2.3,9.3-3.9,18.7-4.1,28.3c-0.2,8.3,1.3,16.2,7.7,22.2c2,1.9,1.2,4.4,1.3,6.6
	c0.1,2.3,0,4.6,0,7c-3-0.7-6,0.1-9,0.2c0.6-3.7,1.5-7.5,1.7-11.2c0.1-2.2-0.2-4.7-1.9-6.5c-7.7-8.2-8.9-18.4-7.6-28.8
	c1.8-14.4,5.9-28.5,4.8-43.2c-0.1-0.7,0.5-1.5,0.8-2.2C419,219.3,421.1,228.5,423.2,237.7z"/>
<path style="fill:#F2993A;" d="M78.1,104c1.4-5.7,2.6-11.5,4.2-17.2c3-10.1,7.9-19.3,11.8-29c1-2.5,1.9-5,2.7-7.5
	c2.5-7.6,2-14.4-5.7-19.5c2.8-1.3,5-1.2,6.7,0.2c3.1,2.6,6,2.1,9.1,0.2c1.6-1,3.4-1.8,5.7-1.2c-9.7,9.6-6.1,19.7-1.6,29.7
	c5.8,13,12,25.9,14.2,40.2c0.2,1.1,0.9,1.7,1.9,2.2c-0.5,1.2-0.8,2.5-1.4,3.7c-2.3,5.5-5.1,6.4-12.6,4.3c-2.7-0.8-4.1-2.9-5.2-5.2
	c-1-2.7-1.3-5.4-0.9-8.3c0.3-1.8,1.4-3.3,2.1-5c1.1-2.4,2.9-5.1,0.1-7.2c-2.7-2-6-2.8-9.4-1.4c-0.6,0.2,0.2,0-0.4,0.3
	c-6.5,3.7-6.5,3.7-2.3,13.1c0.5,2.6,0.2,5-1,7.4c-1.5,2.6-3,5.2-6.1,6.3C84,113,79.5,110.7,78.1,104z"/>
<path style="fill:#BA6C24;" d="M109.1,104.9c1.3,1.7,2.7,3.4,4,5.1c-5.5,5.3-15.3,5.2-23,0c1.7-2,3.3-4,5-6
	C99.4,98.2,105.6,98.2,109.1,104.9z"/>
<path style="fill:#FCF9F4;" d="M154,351c3.1-4.4,6-9,8.2-13.9c1.6,4.4-0.1,11.4-3.5,13.6C157.3,351.6,155.7,353.2,154,351z"/>
<path style="fill:#0C0B03;" d="M86,58.9c-0.5,0.1-1,0.1-1.4,0.3c-4.1,2.3-6.8-0.2-7.7-3.4c-0.8-3.2,2.3-4.5,5.2-4.9
	c2.9-0.6,4.3,1.2,5.2,3.5C87.9,56.1,88.4,57.9,86,58.9z"/>
<path style="fill:#0C0B03;" d="M122.1,50.9c2.6,0.9,6.3,1.6,5,5.1c-1.4,3.9-4.9,5.1-8.9,3c-2.4-1.1-2.2-3-1.3-4.9
	C117.9,51.9,119.3,50.1,122.1,50.9z"/>
<path style="fill:#F2993A;" d="M122.1,50.9c-3.9,1.4-5.9,3.8-3.9,8.1c-2-0.1-4.5,0.9-5.7-1.6c-0.9-1.9-0.5-3.8,1.1-5.4
	C116.2,49.4,119,49.4,122.1,50.9z"/>
<path style="fill:#F2993A;" d="M86,58.9c1.2-3.9,0.2-6.7-3.9-8.1c1.1-1.1,2.5-0.7,3.8-0.8c3.8-0.2,5.8,2.2,5.9,5.3
	C91.9,58.8,88.9,59.2,86,58.9z"/>
<path style="fill:#FDDDAA;" d="M90.8,82.5c1.7-8.1,3.7-15.3,7.4-21.8c2-3.5,5.2-3.9,7.1-0.7c4.1,6.7,6.5,14,8,22.4
	C105.7,78.8,98.6,79.1,90.8,82.5z"/>
<path style="fill:#1C0B01;" d="M96.2,95.9c-1.2-1.8-2.5-3.5-3.4-5.4c-2.3-4.8-1.4-5.9,3.7-7.1c2.8-0.7,5.1-2.9,8.6-2.2
	c7.4,1.3,9,4.4,5.4,10.9c-0.7,1.3-1.6,2.5-2.4,3.7C103.9,100.4,100,100.5,96.2,95.9z"/>
<path style="fill:#FDDDAA;" d="M96.2,95.9c4,3,7.9,2.8,11.8-0.1c0.2,3.1,0,6.2,1.1,9.2c-4.3-5.4-9.1-4.5-14-0.9
	C95.9,101.4,96.2,98.7,96.2,95.9z"/>
<path style="fill:#FFFFFF;" d="M81.5,53.8c1.1,0.2,1.5,1.1,1.6,2c0.1,1-0.7,1.4-1.6,1.4c-1.1-0.1-1.7-0.7-1.6-1.8
	C80,54.4,80.6,53.9,81.5,53.8z"/>
<path style="fill:#FFFFFF;" d="M124.1,55.4c-0.3,1-0.9,1.8-1.8,1.8c-1.2,0-1.6-1-1.6-2.1c0-1.2,0.8-1.3,1.8-1.3
	C123.7,53.7,123.7,54.7,124.1,55.4z"/>
</svg>
