<?xml version="1.0" encoding="utf-8"?>
<!-- Generator: Adobe Illustrator 23.0.3, SVG Export Plug-In . SVG Version: 6.00 Build 0)  -->
<svg version="1.0" id="Layer_1" xmlns="http://www.w3.org/2000/svg" xmlns:xlink="http://www.w3.org/1999/xlink" x="0px" y="0px"
	 viewBox="0 0 598 598" style="enable-background:new 0 0 598 598;" xml:space="preserve">
<path d="M296.1,201.9c-2-1.7-4.1-3.1-5.7-4.9c-6.7-7.9-7.4-18.2-1.7-27c1.8-2.7,1.7-4.5,0.4-7.3c-8.3-17.5-3.8-37.6,11.2-50
	c2.5-2.1,3-4.1,3.5-7.2c1.7-10.2,0.2-20.2,0.1-30.4c-0.1-16.4,7.4-29.1,23-36c2.2-1,3.4-2.2,4.4-4.2c4.7-9.6,11.8-16.2,22.5-18.6
	c1.8-0.4,3.1-1.5,4.4-2.6c10.3-8.8,21.9-11.4,34.7-6.4c2.3,0.9,4,0.5,6-0.3c7.9-3.1,16-3.2,23.9-0.1c2.5,1,4.6,1.1,7.1,0.1
	c12.2-4.7,23.3-2,33.2,6c1.7,1.3,3.1,2.8,5.4,3.3c10.4,2.3,17.5,8.8,22.1,18.2c1,1.9,1.9,3.4,4.2,4.5c17.7,8,26.8,25.9,22.6,45
	c-1,4.7-0.1,9.1-0.1,13.6c0,9.1,4.6,14.8,10.1,21.2c11.1,12.9,12.5,28,5.7,43.6c-1.3,3-1.5,4.8,0.3,7.8c6.5,10.3,4.3,22.7-5.3,30.2
	c-2.6,2-3.3,3.3-2,6.5c3.2,7.8,1.8,15.3-3.3,21.9c-1.8,2.3-2.1,4-1.1,6.7c2.6,6.8,1.7,13.6-2.4,19.5c-2.3,3.2-2.7,6.3-2.1,9.8
	c1.2,8,0.7,15.9-1.2,23.7c-0.6,2.5-0.1,4.2,1.7,6.2c12.6,15,13.4,36.7,2,52.4c-1.6,2.1-2.3,4.3-2.5,6.9
	c-1.7,19.1-14.7,32.4-28.7,33.5c-2.4,0.2-2.7,1.5-3.1,3.3c-2.1,7.6-5.6,14.5-11.9,19.6c-1.6,1.3-1.7,2.9-1.7,4.6
	c0,8.4,0.1,16.7,0,25.1c0,2.5,0.4,3.5,3.3,3.9c23.8,3.5,32.5,31,17.1,46.9c-1.4,1.4-1.6,2.9-1.7,4.7c-0.6,10.3-5.7,17.6-15.3,21.3
	c-2.9,1.1-3.5,2.4-3.3,5c0.1,2.1,0.2,4.3,0,6.4c-0.6,8.4,0.5,15.1,8,21.7c11.4,10,13.3,24,8.2,38.6c-1.2,3.4-2.9,4.7-6.7,4.7
	c-20.4-0.2-40.9-0.2-61.3,0c-3,0-5.3-0.4-6.6-5.4c-1.3,5.7-4.4,5.4-7.5,5.3c-20-0.1-40.1-0.2-60.1,0.1c-4.1,0.1-5.8-1.4-7.1-5
	c-5.6-15.3-1-32.3,12.3-42.3c3.3-2.5,4.3-4.9,4.1-8.7c-0.2-6.6-0.2-13.2,0-19.8c0.1-2.5-0.4-3.5-3.3-4.1
	c-17.5-3.7-24.9-19.4-16.6-35c1-1.8,1.2-3.5,1.2-5.5c-0.1-10.7,5.2-19,14.9-22.7c2.9-1.1,3.9-2.3,3.7-5.3c-0.2-6-0.1-12-0.1-18
	c-1.8-0.6-2.1,0.9-2.7,1.7c-14.2,18.2-28.3,36.6-41.5,55.6c-1.9,2.7-3.4,5.2-2.5,8.6c0.1,0.4,0.1,0.8,0,1.2
	c-1.1,9.9-3.7,19.8-0.1,29.9c0.9,2.5-0.5,5.4-1.5,7.9c-2.3,5.3,0,8.2,4.6,10.6c17.2,9,24.7,29,17.8,46.7c-1.2,3.1-2.7,4.4-6.3,4.4
	c-66.7-0.1-133.5-0.1-200.2,0c-2.8,0-4.7-0.9-6.6-2.8c-12.6-12.5-17.9-27.9-17.7-45.4c0-3.8-0.8-6.3-3.7-9
	c-18.5-16.8-24.8-38.3-23.9-62.6c0-1.2,0.2-2.3,0.3-3.5c0.6-5,3-10.6,1.5-14.9c-1.6-4.8-8.5-2.1-12.9-4c-15.8-7-22.4-25.5-13.4-40.4
	c1.5-2.5,2.3-4.5,1.5-7.5c-3.1-12.1,2.3-24.7,13.6-30.5c3.6-1.8,4.3-3.7,4.2-7.5c-0.6-15.3,10.6-27.7,26-28.9
	c2.7-0.2,3.9-1.1,5.2-3.5c7.1-13.3,21.6-18.7,35.2-13.2c13.4,5.5,20.4,19.6,16.3,33.9c-0.9,3-0.3,4.2,2.2,5.9
	c16.6,10.9,17.7,33,2.2,45.5c-2.2,1.8-3.1,3.4-3.1,6.2c-0.6,25.1-23.3,42.3-47.4,35.6c-4.1-1.1-4.7-0.2-5.4,3.5
	c-4.3,21.8-2.7,42.4,11.6,61c2.2-2.6,4.1-5,6.3-7.2c1.6-1.6,0.9-2.9,0.4-4.7c-7.2-21.5,1.5-39.7,22.3-48.9
	c5.9-2.6,9.5-8.6,11.9-14.4c19.9-47,47.3-89.1,81.7-126.7c10.9-11.9,22.5-23.2,34.7-33.8c1.8-1.6,3.6-2.7,1.9-6.1
	c-13.4-27.8-1.9-55.7,27.1-66.4C294.9,203,295.1,202.7,296.1,201.9z"/>
<g>
	<path style="fill:#EEE5D6;" d="M295.4,508.6c9-18.9-0.6-37.9-21.1-41.1c-4.9-0.8-5-2.4-3.8-6.2c1.7-5.8-0.3-10.8-4.9-14.5
		c-4.5-3.6-9.8-4.3-14.7-1.2c-4,2.5-5.3,1-7.4-2.3c-11.3-17.6-35.1-18.2-46.8-1c-2.7,3.9-4,4.5-8.1,1.8c-14.5-9.5-32-4.9-40.3,10.4
		c-1.3,2.5-3,3.7-5.5,4.5c-18.9,5.7-26.5,24.5-16.6,41.6c1.9,3.3,1.3,4.8-1.3,7.1c-9.4,8-14.9,18.2-16,30.6
		c-3.1,15.4,1,29.1,10.2,41.6c2.3,3.1,4.9,4.2,8.9,4.2c39.9-0.2,79.8-0.1,119.6-0.1c1.9,0,3.8,0,6,0c-3.3-15.8,2.3-27.9,13.2-38.1h0
		c6.2-4.1,12.8-7.7,20.3-8.2c4.6-0.3,7.3-1.2,9.5-5.9c2.9-6.1,3.8-11.3-0.3-16.8C294.3,512.7,294.2,511.1,295.4,508.6z"/>
	<path style="fill:#EEE5D6;" d="M429.8,376.1c15.9-4.3,23.7-24,15-39.1c-2.5-4.4-1.9-6.3,1.7-9.4c10.2-8.6,13.9-20.5,16-33.3
		c2.3-13.4-6.8-23.1-9.7-34.7c-6.6-3.3-10.8-8.9-13.8-17.4c-2.3,6.9-4,11.8-5.6,16.7c-3.5,10.4-11.7,16.7-22,16.8
		c-10.5,0.1-18.8-6.2-22.4-17c-1.6-4.9-3.3-9.7-5.6-16.2c-3.1,8.3-7,13.8-13.6,17.1c-0.8,0.4-1.2,2-1.4,3.1
		c-1,5.6-3.9,10.1-7.5,14.2c-1.2,0.3-1.8,1.2-2.4,2.2c-1.3,4-5,4.1-8.3,4.8c-0.7,0.1-1.4,0.3-2.2,0.4c-1.7,1.9-3.5,3.2-5.9,1
		c-13.1,0-22.2-6-27.1-18.2c-0.7-1.7-2-2.6-3.6-3.5c-10.8-6.4-14.7-16.5-11-28.3c0.6-2,1.3-3.5-0.4-5.3c-4.1-4.5-5.6-10.1-5.9-15.9
		c-1.9-0.4-3.2,0.7-4.5,1.5c-19,10.8-24.3,35.6-11.2,54c2.7,3.9,3.9,6-1.2,9c-5.8,3.4-7,8.5-5.2,15c0,1.9,1.1,3.3,2.2,4.6
		c1.7,2.1,2,3.8,0.2,6.1c-4.6,5.8-4.6,11.8,0.1,17.6c1.7,2.1,1.2,3.6,0.2,5.7c-9,19.2,0.8,38,21.7,41.2c4.5,0.7,4.4,2.3,3.4,5.6
		c-1.8,5.8-0.2,10.8,4.3,14.7c4.6,3.9,10,4.8,15.1,1.6c4-2.5,5.3-1,7.5,2.3c10.3,16.1,31.1,18.1,43.7,4.5l0,0c0.8-0.8,2-1.4,2.4-2.4
		c2.5-5.7,5.4-5.4,10.2-2c10,7.1,25.6,6,36.2-8.1C422.1,381.1,424.6,377.1,429.8,376.1z M436.6,365.7c-0.2-0.1-0.3-0.2-0.5-0.3
		c0.2-0.2,0.4-0.5,0.5-0.7C436.6,365.1,436.6,365.4,436.6,365.7z"/>
	<path style="fill:#EEE5D6;" d="M126.6,434.9c10.1-6,15.3-17.3,12.9-29.4c-0.7-3.5,0.9-4.2,3.4-5.4c8-3.7,12.2-11.1,11.3-19.2
		c-0.9-8.2-7.2-14.6-15.9-16.4c-2-0.4-4.3-0.2-6.3-1.9c1.6-2.2,3.3-4.3,4.9-6.5c1.8-2.4,2.8-5.1,3.2-8c1.4-9.5-5.7-19.1-15.4-20.9
		c-9.8-1.8-19.1,4.6-21.5,15.1c-0.6,2.8-0.4,5.5-4.8,4.2c-7.7-2.3-14.3,0.1-19.3,6.1c-5.1,6.1-5.7,13-2.2,20.1
		c1.9,3.9,1.9,5.4-3.3,5.8c-13,1.1-20.9,13.3-16.1,24.5c1.9,4.4,1.5,6.9-1.7,10.4c-7.2,8.2-5.4,20.2,3.5,26.6
		c8.8,6.3,20.5,4,26.4-5.2c1.2-2,2.3-4,3.6-6.4c1.8,1.4,3.4,2.8,5.1,4.1C104.5,440.3,116.1,441.2,126.6,434.9z"/>
	<path style="fill:#EEE5D6;" d="M300,171.3c-5,3.6-6.9,8.8-5,14.9c1.9,6,6.3,9.1,12.4,10c2.8,0.4,5.6,0.4,8.7,1.8
		c-2.5,2.1-4.7,3.9-6.9,5.9c-8,7.3-7.6,17.1,1.6,22.9c3.8,2.4,4,3.7,1.1,7.1c-6.9,8.4-3.8,18.8,6.5,22.3c2.7,0.9,3.8,2.3,4.6,5
		c2.7,9.8,11.1,15.6,20.4,14.4c9.3-1.2,15.9-8.9,16.3-19c0.1-2.6,0.5-3.9,3.4-4.8c8.9-2.8,11.7-8.4,9.7-18.1
		c-0.3-1.5-1.1-3.3,0.7-4.2c6.1-3,3.6-7.1,1.7-11.2c-5.9-18.2-11.8-36.5-17.6-54.7c-0.7-2.3-2.5-2.7-4.2-3.5
		c-6.6-3.2-12.3-7.6-15.8-14.1c-2.1-3.8-4.6-5.8-9-6.7c-10.6-2.3-17.2-9.9-22-19.7c-2.8,2.6-5.4,4.5-6.6,7.8
		c-7.8,11.6-7.7,24.6,0.9,36.8C303.1,167.3,303.3,168.8,300,171.3z"/>
	<path style="fill:#EEE5D6;" d="M507.3,297.8c-2.4-2-2.8-3.5-1.8-6.3c2.9-7.7,3.4-15.8,2.3-25.3c-8,15.2-17.2,20.1-33,17.8
		c-4.6-0.7-3,2.3-3,4.2c0,16.3-4.5,31.1-15.8,43.2c-2.1,2.3-1.4,3.9-0.6,6.2c5.6,16.1,0.9,33.6-13.4,42.7
		c-7.7,4.9-14.5,10.3-20.9,16.7c-3.8,3.8-3.6,6.3-0.9,9.7c4.7,6.3,11.9,5.8,15.9-1.6c2.2-4,3.4-4.8,7.3-1.6
		c8.5,6.9,18.6,5.8,26.1-2.2c5.2-5.5,7.4-12.3,7.9-19.6c0.2-3.6,0.7-5.3,4.9-4c5.8,1.7,11.2-0.2,15.7-4.1c6.9-5.9,10-13.7,10-22.7
		c0-3.1,0.9-5.4,2.9-7.8C522.4,329.8,520.7,309.1,507.3,297.8z"/>
	<path style="fill:#EEE5D6;" d="M521.8,171c-3-2.1-3-3.5-0.9-6.3c6.2-8.4,8.7-17.6,5.6-28c-1.5-6.9-5.2-12.3-10.8-17
		c-2.5,4.4-4.9,8.4-8.2,11.7c-5.5,5.7-14.4,5.9-19.6,10.1c-5.6,4.5-8.5,12.7-15.7,16.4c-0.7,0.3-1.5,0.6-2,1.1
		c-2.5,2.1-5.4,3.9-6.5,7.1c-5.3,16.2-10.4,32.4-15.6,48.6c-1.6,5.3-6.9,10.8,1.3,15.4c1.2,0.7,0.2,2.5-0.1,3.8
		c-1.9,8.9,1.1,14.9,9.7,17.6c3.2,1,3.5,2.5,3.6,5.3c0.3,9.7,7,17.3,16.1,18.6c9.3,1.3,17.9-4.4,20.5-14.2c0.8-3,2.1-4.3,5-5.3
		c9.6-3.4,12.6-13.5,6.7-21.7c-1.1-1.6-2.3-3-3.7-4.9c6.5-3.5,11.8-7.6,11.4-15.6c-0.4-8-7.7-11-12.4-16.4c3.1-0.5,5.5-0.9,8-1.2
		c6.6-0.7,11.4-4,13.2-10.5C529.1,179.7,526.8,174.5,521.8,171z"/>
	<path style="fill:#EEE5D6;" d="M456.9,461c-3.5,4.9-5.2,4-8.7,0.4c-4.3-4.3-10.5-4.7-15.6-2c-5.1,2.7-8.5,8.6-7.2,14.1
		c0.8,3.6,0.4,5.9-2,8.8c-4.8,5.7-3.6,13.9,2.1,18.8c5.7,4.9,13.6,4.5,18.9-1c2.2-2.3,4.1-5,6.8-8.4c1.4,3.7,2.2,6.4,3.4,9.1
		c3,6.5,9.9,9.7,16.4,7.8c6.9-2.1,11.4-8.5,10-15.6c-0.7-3.3,0.2-4.7,2.5-6.7c9.2-7.9,9.6-20.2,1.1-28.1
		C476.1,450.5,463.7,451.3,456.9,461z"/>
	<path style="fill:#EEE5D6;" d="M377.4,461.1c-3.2,4.5-4.8,4.3-8.3,0.6c-4.3-4.6-10.8-5.1-16.1-2.2c-5.4,3-8.5,9.1-6.8,15.3
		c0.8,2.9,0,4.6-1.7,6.7c-5.3,6.4-4.4,14.6,1.7,19.7c6,5.1,14.1,4.2,19.7-2c1.9-2.1,2.9-5,6-6.9c1.2,3.2,2,6.1,3.2,8.7
		c3,6.4,10,9.6,16.5,7.6c6.7-2.1,11.2-8.4,9.8-15.2c-0.7-3.4,0.1-5.1,2.6-7.3c9-7.8,9.4-19.8,1.3-27.7
		C397,450.4,384.4,451.3,377.4,461.1z"/>
	<path style="fill:#EEE5D6;" d="M314.5,96c-5.1,14.8,3.3,31.4,17.1,34.2c-0.7-15.8,5.7-28,18.7-36.8c9.3-3.9,18.8-6.2,28.8-3
		c1.8,0.6,3-0.4,4.4-1c18.3-7.6,36.7-7.6,55,0.1c2.4,1,4.4,0.9,6.7,0.4c20.1-4.4,39.6,8,44.3,28.1c1,4.1,0.7,8.3,1,12.5
		c15-4.4,22.4-20.4,16.8-35.5c-1.1-2.9-1.1-5.3-0.1-8.2c5.9-16.6-2.2-35.2-17.5-39.7c-3.7-1.1-5.2-3-6.4-6.3
		C480,32.3,474,26.4,464.7,25c-2.5-0.4-4.2-1.5-5.9-3.2c-8.9-8.6-18.4-10.1-29.2-4.3c-2.4,1.3-4,1.2-6.3-0.1
		c-8.1-4.7-16.3-4.6-24.4,0.1c-2.4,1.4-4,1.2-6.3,0c-10.8-5.7-20.2-4.1-29.2,4.5c-1.4,1.3-2.5,2.7-4.8,3c-10.3,1.3-16.7,7.6-20,17.2
		c-0.8,2.3-1.8,3.8-4.4,4.7c-17.1,5.3-25.4,23.2-18.8,40C316.3,89.9,315.6,92.8,314.5,96z"/>
</g>
<path style="fill:#FEFEFE;" d="M411.5,495c2.9,9.2,7.7,15,15.7,17.5c2.2,0.7,2.6,1.8,2.6,3.7c-0.1,8.1-0.1,16.3,0,24.4
	c0,1.8-0.7,2.9-2.1,3.8c-6.2,4.2-10.8,9.9-14.1,17.7c-4-7.8-8.6-14-15.3-18.5c-1.5-1-1.9-25.7-0.6-27.2c0.5-0.6,1.3-0.9,1.9-1.3
	C406.8,510.9,410.3,504.2,411.5,495z"/>
<path style="fill:#EFE6D8;" d="M314.1,583.9c-5.1,1.6-6.1-1.5-5.8-6.5c0.4-6-0.2-12.1,0.1-18.1c0.2-3.9-2-3.5-4.4-3.4
	c-2.2,0.2-5.3-1.3-5.1,3.2c0.2,7-0.2,14,0.1,21c0.2,4-1.9,3.8-4.7,3.8c-2.5-0.1-5,0.6-4.8-3.6c0.3-6.8-0.1-13.6,0.1-20.4
	c0.1-3.5-1.2-4.3-4.4-4.1c-2.6,0.2-5.4-0.7-5.1,3.9c0.4,6.4-0.2,12.9,0.2,19.2c0.3,4.3-1.3,5.5-5.2,5c-1.5-0.2-3.1,0-4.7,0
	c-8.3,0-8.9-0.6-8.8-9.2c0.1-15.7,14.8-28.8,31.7-28.2c16.7,0.6,29.9,14.5,28.9,30.4C321.8,583.9,321.8,583.9,314.1,583.9z"/>
<path style="fill:#EFE6D8;" d="M430.2,583.9c-9.3,0-10.3-1.2-9.8-10.6c0.9-15.5,16-27.8,32.5-26.8c16.4,1.1,29.2,15,28.1,30.6
	c-0.4,5.8-7.8,9.6-12.9,6.6c-1.5-0.9-1-2.4-1-3.7c-0.1-6.4-0.2-12.8,0-19.3c0.1-3.5-0.4-5.2-4.6-5.1c-3.7,0.1-5.1,0.9-4.9,4.8
	c0.3,5.8,0,11.7,0.1,17.5c0.1,3.4,0.5,6.2-4.8,6c-4.9-0.1-4.6-2.5-4.5-5.8c0.1-5.6-0.1-11.3,0-16.9c0.1-3.3,0.4-5.6-4.5-5.7
	c-5.3-0.1-4.9,2.5-4.9,6c0.1,5.4-0.4,10.9,0.1,16.3c0.4,5-1.3,6.7-6.1,5.9C432.2,583.7,431.2,583.9,430.2,583.9z"/>
<path style="fill:#EFE6D8;" d="M398.8,583.6c-6.2,1.9-6.7-1.6-6.5-6.4c0.3-6-0.2-12.1,0.1-18.1c0.2-4.5-2.9-3.1-5.1-3.2
	c-2.4-0.2-4.6-0.5-4.4,3.4c0.3,7-0.2,14,0.1,21c0.2,4.1-2.2,3.6-4.8,3.6c-2.7,0.1-4.9,0.2-4.7-3.7c0.3-6.8-0.2-13.6,0.2-20.4
	c0.3-4.6-2.5-3.7-5.1-3.9c-3.1-0.3-4.5,0.4-4.4,4c0.3,6.8-0.1,13.6,0.1,20.4c0.1,2.8-0.7,3.9-3.6,3.6c-1.9-0.2-3.9,0-5.8,0
	c-8.8,0-9.6-0.9-9.3-9.9c0.5-15.5,15.2-28.1,31.9-27.5c16.4,0.7,29.5,14.3,28.7,29.9C406.1,581.3,405.6,585.8,398.8,583.6z"/>
<path style="fill:#FEFDFD;" d="M418.4,460.9c-4.4-8.2-10.3-13.9-19-16.1c-1.9-0.5-2.4-1.5-2.4-3.3c0-10.7,0.1-21.4,0-32.1
	c0-2.3,0.8-2.6,2.9-3.2c5.8-1.7,9.6-1.3,12.5,5.2c2.4,5.4,7.9,8.5,14.2,8.9c2.6,0.1,3.2,0.9,3.2,3.4c-0.1,8-0.1,16,0,23.9
	c0,2-0.6,3.2-2.3,4.2C423.7,453.7,421.2,456.9,418.4,460.9z"/>
<path style="fill:#F1E8DA;" d="M479.9,131.3c-1,12-12.3,22.1-25.3,22.8c-12.7,0.7-25.8-8.5-28.2-19.8c-0.2-1.1-1.3-3.3,0.8-3.2
	c3,0.2,6.6-2.2,9,2.5c4.9,9.9,14.4,13.6,23.7,10c3.7-1.5,6.7-3.9,8.9-7.2C472.5,130.5,472.6,130.5,479.9,131.3z"/>
<path style="fill:#F2E8DB;" d="M369.1,154.3c-11.7-0.7-20.6-6-25.5-17c-0.8-1.8-3.8-5-0.1-6.1c2.6-0.8,6.5-2.1,8.8,2.6
	c5.1,10.6,16.3,14,25.8,8.7c3.7-2,6.4-5,8-8.9c0.7-1.8,1.5-2.7,3.7-2.8c6.7-0.4,7.6,0.6,4.7,6.8
	C389.4,148.3,380.8,153.5,369.1,154.3z"/>
<g>
	<path style="fill:#CBA67C;" d="M451.6,163.6c-7.7-0.1-14.3-3.2-20.7-7.1c-19.6-17.4-20.2-35.7-1.4-60.5
		c-12.4-3.6-24.5-3.8-37.1,0.2c2.3,2.7,4.3,4.6,5.8,6.8c9.7,13.4,12.8,30.2-1.4,48.8c0,0,0,0,0,0c-7,6.5-15,11.2-24.7,11.7
		c-4.2,0.2-4.3,1.5-3.1,4.9c5.3,15.8,10.5,31.7,15.7,47.6c3.2,9.7,6.3,19.4,9.9,30.5c4.3-7.3,8.9-12.6,16.7-12.7
		c7.9-0.1,12,6,16.7,12.1c3.7-11.4,7-22,10.4-32.4c4.9-15.1,10-30.2,14.9-45.4C453.8,166.3,455.8,163.7,451.6,163.6z"/>
	<path style="fill:#CBA67C;" d="M321.7,402.1c-1-1.2-2.1-1.4-3.6-1.1c-11,2.3-19.3-1.8-25.4-10.9c0,0,0,0,0,0c0,0,0,0,0,0
		c-0.8-2.2-2.1-4.3-2.2-6.6c-0.3-5.2-3.2-7.2-7.7-9.2c-15.6-7-23.9-24.1-20.1-40.9c1.2-5.3,2.2-10.2-0.3-15.5
		c-1.7-3.6-1.3-7.7,0.4-11.3c2.4-5.2,0.6-9.5-1.7-14.6c-14,13.6-27.5,26.9-39,42.1c-7.8,8.4-14.2,17.8-20.8,27.2
		c-14.6,20.6-27,42.5-37.7,65.4c-1.1,2.4-2.1,5.1,2.2,3.9c7.3-1.9,14.2-0.5,21,2c2.5,0.9,4.3,1,6.3-1c6.7-6.8,15.1-10,24.3-11.3
		c0,0,0,0,0,0c12.2,0.2,22.8,3.8,30.7,13.6c1.4,1.7,2.7,1.4,4.6,1.1c12.4-2.1,23.7,4.7,26.4,16.9c1.4,6.6,4.8,9.3,10.6,10.6
		c5.7,4,10.8,8.5,14.4,15.1c14.9-21.4,30.3-41.1,46.1-61.5C338.5,414.7,328.8,411.1,321.7,402.1z"/>
	<path style="fill:#CBA67C;" d="M387.8,427.4c0-1,0-1.9,0-2.9c0-4.8-0.2-9.7,0.1-14.5c0.1-3.3-0.6-5.4-4.2-6.3
		c-4.1-1.1-19.1,8.2-19.1,12.5c-0.1,9.9-0.1,19.8,0,29.7c0,3.2,6.9,7.1,9.3,5.1c4.1-3.5,11-3.8,13.2-7.5
		C389.3,439.3,387.7,432.8,387.8,427.4z"/>
	<path style="fill:#CBA67C;" d="M391.7,121.6c4.4,0.1,4.9-1.5,3.5-5.2c-4-10.7-14.6-18.2-26-18.2c-11.5,0-21.9,7.3-26.1,18
		c-1.7,4.2-0.6,5.5,3.8,5.4c7.4-0.2,14.7-0.1,22.1-0.1C376.5,121.5,384.1,121.4,391.7,121.6z"/>
	<path style="fill:#CBA67C;" d="M479.4,116.8c-3.6-10.7-14.7-18.6-26.3-18.6c-11.6,0-22.7,8-26.3,18.7c-1.3,3.7-0.1,4.8,3.6,4.7
		c7.6-0.2,15.1-0.1,22.7-0.1c7.6,0,15.1-0.1,22.7,0.1C479.7,121.7,480.7,120.5,479.4,116.8z"/>
	<path style="fill:#CBA67C;" d="M462.5,431.8c0-3.7-0.2-7.4,0-11.1c0.2-3.1-1-4-4.1-3.8c-4.4,0.3-8.9,0.6-13.1-1.5
		c-4.2-2.1-6.2-0.6-6.2,4.1c0.1,7.6,0.2,15.1-0.1,22.7c-0.1,3.9,0.3,6.9,5.2,6.7c3-0.1,5.6,3.9,8.5,2.1c5.5-3.4,12.4-6.3,9.7-15.2
		C462.2,434.6,462.5,433.2,462.5,431.8z"/>
	<path style="fill:#CBA67C;" d="M455.1,514.8c-1.4-0.3-2.7-1.5-3.7-2.7c-2.1-2.4-3.9-2.1-6.9-1c-4.9,1.7-5.8,4.6-5.4,9.1
		c0.3,3.4,0.1,7,0.1,10.4c0,7.3,0,7.3,7.1,6.6c2.3-0.2,4.6-0.2,7-0.1c9.3,0.4,9.3,0.4,9.3-10.4C463.2,522.2,463.2,516.4,455.1,514.8
		z"/>
	<path style="fill:#CBA67C;" d="M384,518.2c-4.8-1.2-9.2-2.9-12.8-6.5c-1-1-1.9-2.6-3.9-1.4c-1.7,1.1-3.1,2-3,4.5
		c0.2,3.3,0.1,6.6,0.1,9.9c0,3.3,0.1,6.6,0,9.9c-0.2,3.2,1.1,4.2,4.2,3.4c5-1.3,10-1.1,15,0c1.3,0.3,2.6,0.9,3.8-0.4
		c0.7-0.8,0.8-17.9-0.1-18.4C386.3,518.6,385.1,518.5,384,518.2z"/>
	<path style="fill:#CBA67C;" d="M89.3,495.8c-5.3-15.7-4.8-31.6-1.7-48c-3,0.5-4.1,1.9-4.5,4c-3.1,14.9-4.6,29.9-1.1,44.9
		c2.6,11.2,7.9,21,15.6,29.5c0.8,0.9,2.3,3.5,3.4,1c1.3-3.1,3.5-6.4,0.1-10.2C95.5,511,91.9,503.6,89.3,495.8z"/>
</g>
<path d="M411.1,266.3c-5,0-11.2-4-11.3-7.4c-0.1-5.4,7.3-15.6,11.3-15.6c4,0,11.4,10.3,11.3,15.6
	C422.3,262.2,416.1,266.3,411.1,266.3z"/>
<path style="fill:#E2DCCA;" d="M358.5,279c-0.1,6.2-3.9,6-8.3,4.8C353,282.2,355.7,280.6,358.5,279z"/>
<path style="fill:#E2DCCA;" d="M348.1,284.1c-0.4,2.7-2.4,3.8-4.8,3.8c-1.4,0-1-1.7-1.1-2.8C344.1,284.8,346.1,284.5,348.1,284.1z"
	/>
</svg>
