<?xml version="1.0" encoding="utf-8"?>
<!-- Generator: Adobe Illustrator 24.0.0, SVG Export Plug-In . SVG Version: 6.00 Build 0)  -->
<svg version="1.0" id="Layer_1" xmlns="http://www.w3.org/2000/svg" xmlns:xlink="http://www.w3.org/1999/xlink" x="0px" y="0px"
	 viewBox="0 0 548.4 618" style="enable-background:new 0 0 548.4 618;" xml:space="preserve">
<path style="fill:#666FE4;" d="M206.2,439.2c-3.2,1.3-5.8,1.1-8.2-1.8c-2-2.5-4.6-3.5-8.1-3.4c-60.8,1.6-109-23.2-146.2-70.4
	C23.3,337.6,8.4,309,2.5,276.1c-12.2-67.7,21.6-127.8,86-152.8c18.4-7.1,37.5-11,57.1-12.3c6.6-2.8,13.5-0.8,19.9,0.1
	c46.3,7.1,79.3,33,101.5,73.6c2.7,4.9,5.1,9.9,7.4,14.9c17.1,46,21,92.6,6.9,140.1c-1.1,3-2.1,6.1-3.4,9.1
	c-9.1,24.3-23.3,45.3-41.9,63.4c-2.5,2.5-5.3,4.6-8,6.8c-4.8,3.9-9.9,7.5-10.5,14.5c-0.2,1.9-1.8,3.2-3.5,4.1
	C211.5,438.6,209.1,440.2,206.2,439.2z"/>
<path style="fill:#FF8453;" d="M279.4,340.1c7.7-24.1,9.9-48.8,8.2-73.9c-1.4-21.4-5.9-42.3-13.4-62.5c-0.6-1.5-0.8-3.2-1.2-4.7
	c-0.2-7.6,3.9-13.8,7-20.1c21.3-41.7,54.2-67.9,101.2-75c1.4-0.2,2.8-0.7,4.3-0.9c8.1,0,16.1-1.8,24.2-0.3c3.7,0.1,7.5-0.8,10.8,1.8
	c14.1,2.7,28.4,5,41.9,10.5c49.5,20,77.5,56.7,84.9,109.5c9.1,65.1-33.7,165.8-116.8,196.5c-12,4.4-24.3,7.9-37,9.6
	c-4.9,0.6-9.4,1.5-11.9,6.3c-1.5,2.9-5,1.6-6.9,3.4c-2.9-1-6.1,0.2-8.9-1.3c-1.4-0.9-3-1.9-3.4-3.5c-2-6.6-7.2-9.5-12.6-12.7
	c-27.3-16-48.7-37.8-63.7-65.8c0.1,23.9,0,47.8,0.1,71.7c0,56.2,0,112.3,0,168.5c0,1,0.1,2.1-0.4,3c-2.7,2.7-3.5,0.4-4.1-1.6
	c-0.8-3-0.5-6.1-0.5-9.2c0-75.7,0-151.4,0-227.2C280.9,354.8,280.5,347.5,279.4,340.1z"/>
<path style="fill:#69ECFC;" d="M420.4,104.6c-3.7-0.2-7.5-0.5-11.2-0.7c-2.4-1.1-2.6-3.6-3.4-5.7c-5.4-15.3-12.5-29.6-23.1-42.1
	c-15.2-17.8-34.2-29.7-56.6-36.1c-27.2-7.8-54.6-7.9-81.9-0.1c-9.2,2.6-17.5,7.2-25.2,10.8c15.1-4.6,31.5-6.7,48.1-5.7
	c23.4,1.4,45.7,6.8,66.1,18.7c22.6,13.2,39.5,31.5,50.2,55.5c0.7,1.7,1.8,3.3,0.9,5.3C371,107.2,357.6,110,345,116
	c-33.7,16-55.8,42.6-69.4,76.8c-0.8,2.1-1.7,4.2-2.6,6.2c-5.6-8.9-9.5-18.7-15.5-27.3c-20.6-29.9-48-49.9-83.8-57.8
	c-9.3-2.1-18.8-1.9-28.2-3c5.8-27.9,17.7-52.7,38.2-72.8c23.7-23.3,52.7-34.9,85.4-37.4c25.8-2,51.1,0.4,75.1,11.1
	C385.2,29.8,409.8,61.5,420.4,104.6z"/>
<path style="fill:#B7BDFF;" d="M279.4,340.1c2.9,3.8,3.5,8.2,3.5,12.8c0,80.5,0,160.9,0,241.4c0,1.9-0.6,4.1,0.3,5.5
	c1.2,2,1.6-0.1,2-1.1c-0.5-3.3,1-6,2.4-8.7c22.4-43.8,45.5-87.3,67.6-131.3c2.6-5.1,5.6-10.1,8.2-15.2c0.9-1.8,1.7-3.9,4.1-4.3
	c2.6-1.1,5.4-3.1,7.2,1.1c-15.1,29.5-30.1,59.1-45.2,88.6c-14.3,28.1-28.6,56.2-42.8,84.3c-1.4,2.8-3.3,4.7-6.6,4.7
	c-3.5,0-5.6-2.1-6.9-5.2c-22.3-57.8-44.6-115.7-66.9-173.5c2.3-0.8,4.7-1.6,7-2.5c2.6,1.2,3.2,3.7,4.1,6
	c19.1,48.6,37.8,97.4,56.7,146.1c0.8,1.9,1,4,1.7,6c0.2,0.8,1.4-0.3,0.6,0c-0.1,0-0.1,0-0.2-0.2c-1.5-2.4-1.2-5.1-1.2-7.7
	c0-75.4,0-150.8,0-226.1c0-4,0.9-7.8,1.7-11.6C277.5,346.1,278.4,343.1,279.4,340.1z"/>
<path style="fill:#5961C8;" d="M265.1,341.5c3.1-18.1,2.8-36,1.3-53.5c-3.1-36.1-13.8-69.8-37.8-98c-21.4-25.1-48.5-41.3-81.5-44.2
	c-39.8-3.6-76.3,6.6-108.2,31.6c1.9-5,12.1-16.2,18.8-21.7c21.3-17.4,46-27.5,72.9-31c37.4-4.9,70.8,4.4,98.7,31
	c26.3,24.9,39.3,56.2,44.9,91.2c4.9,30.6,2.6,60.6-7.5,89.9C266.2,338.5,265.7,340,265.1,341.5z"/>
<path style="fill:#FEFEFE;" d="M276.5,349.1c0.1,36.5,0.2,73.1,0.3,109.6c0,45,0,90,0,135c0,1.4,0,2.8,0,4.2c-0.3,0.1-0.7,0.2-1,0.3
	c-20.8-53.8-41.7-107.6-62.5-161.4c1.3-1.2,3.2-1.9,3.2-4.2c-0.1-6.4,4.2-9.6,8.6-13.1C248.5,400.6,265.2,376.8,276.5,349.1z
	 M362.7,432.6c-0.3-4.3-3.4-6.4-7.1-8.4c-29.6-16.1-52.5-39-68.6-68.6c-0.7-1.3-0.7-3.3-2.8-3.5c-0.1,0.5-0.2,0.9-0.2,1.3
	c0,80.3,0,160.6,0,240.9c0,1.6-0.6,3.4,1.2,4.5c4.2-8.4,8.4-16.9,12.7-25.3c23.1-44.7,46.3-89.5,69.5-134.2
	C366.6,436.5,362.9,436,362.7,432.6z"/>
<path style="fill:#E17348;" d="M359.5,126.1c10.9-5.4,22.5-8.2,34.3-9c32.5-2,63.1,4.8,90.4,23.1c29.7,19.8,46.8,47.7,51.6,83.2
	c4.5,33.8-2.3,65.3-16.8,95.7c-10.2,21.5-23.7,40.4-40.8,56.8c-2.2,2.1-4.5,4.1-8.7,5.9c7.5-10.1,14.2-19.3,19.8-29.2
	c13.4-23.5,22.3-48.4,25.5-75.4c3.8-32.6-1.9-63-19.4-91c-11.3-18-26.8-31.6-45.5-41.6c-20-10.7-41.4-16.3-64.1-18.2
	C376.9,125.8,368.3,127.6,359.5,126.1z"/>
<path style="fill:#5FD7E7;" d="M384.5,104.6c-7.2-16.1-16.6-30.6-29.7-42.9c-17.5-16.3-38.1-26.3-61.1-31.4
	c-11.6-2.6-23.5-3.9-35.4-3.8c-15.3,0.1-30.1,2.8-45.1,7.6c2.1-2.6,7.2-6,11.3-8.1c25.6-12.5,52.5-15.4,80.5-12
	c22.8,2.8,43.2,10.8,61.7,24.5c17.9,13.4,29.7,31,37.9,51.4c1.8,4.6,3.2,9.3,4.8,14C401,104.1,392.7,104.3,384.5,104.6z"/>
</svg>
