<?xml version="1.0" encoding="utf-8"?>
<!-- Generator: Adobe Illustrator 24.0.0, SVG Export Plug-In . SVG Version: 6.00 Build 0)  -->
<svg version="1.0" id="Layer_1" xmlns="http://www.w3.org/2000/svg" xmlns:xlink="http://www.w3.org/1999/xlink" x="0px" y="0px"
	 viewBox="0 0 590 590" style="enable-background:new 0 0 590 590;" xml:space="preserve">
<path style="fill:#29ABE2;" d="M295,182c-76.4,0-152.9-0.1-229.3,0.1c-5.1,0-6.4-1.2-6.3-6.3c0.3-18.6,0.2-37.2,0.1-55.7
	c0-3.5,0.9-5.4,4.3-6.9c76-34.1,152-68.3,227.9-102.6c3.2-1.5,5.7-0.9,8.6,0.4c75.6,34,151.2,68,226.9,101.9
	c3.4,1.5,4.7,3.3,4.7,7.2c-0.2,19-0.2,37.9,0,56.9c0.1,4.2-1.2,5-5.2,5C449.4,182,372.2,182,295,182z M544.4,579.8
	c4,0,5.7-0.5,5.5-5.2c-0.4-9-0.5-18,0-27c0.3-5.3-1.5-6.1-6.4-6.1c-68.8,0.2-137.5,0.1-206.3,0.1c-96.9,0-193.8,0-290.8-0.1
	c-4.6,0-5.3,1.5-5.2,5.5c0.3,9.2,0.4,18.4,0,27.6c-0.2,4.6,1.4,5.2,5.5,5.2c82.9-0.1,165.9-0.1,248.8-0.1
	C378.5,579.7,461.4,579.7,544.4,579.8z M295.6,493.4c-40.2,0-80.5,0-120.7,0c-33.3,0-66.7,0.1-100-0.1c-4.9,0-6.1,1.4-5.9,6
	c0.4,7.3,0.4,14.6,0,21.8c-0.3,5.2,1.1,6.6,6.5,6.6c97.7-0.2,195.4-0.1,293.1-0.1c49.2,0,98.5-0.1,147.7,0.1c4.9,0,6.1-1.4,5.9-6.1
	c-0.4-7.4-0.4-15,0-22.4c0.3-4.8-1-6-5.9-6C442.7,493.5,369.1,493.4,295.6,493.4C295.6,493.4,295.6,493.4,295.6,493.4z"/>
<path style="fill:#DA4836;" d="M204.7,478.4c3.7-10.1,7.2-19.8,10.9-29.4c1.5-3.8,2.2-7.6,2.2-11.7c-0.1-66.6-0.1-133.3,0-199.9
	c0-6.7-3.1-12.1-5-18.1c-2-6.2-4.5-12.2-6.8-18.3c-1-2.6-1.3-4.1,2.5-4c20.9,0.2,41.7,0.1,62.6,0c4.2,0,4.4,1.5,2.9,4.8
	c-1.1,2.4-1.6,5.1-2.8,7.5c-7.9,16-9.1,33-9,50.7c0.5,58.4,0.3,116.8,0.1,175.2c0,7.2,2.5,13.4,4.7,19.9c2.3,6.7,4.9,13.3,7.4,19.9
	c0.8,2.1,1.3,3.5-2,3.5C250.1,478.3,227.7,478.4,204.7,478.4z M319.2,197c-3.2,0-3.5,1.3-2.5,3.9c3.2,8.4,6.1,16.9,9.4,25.2
	c1.9,4.7,2.5,9.5,2.5,14.5c-0.1,65.7-0.1,131.4,0,197.1c0,3.3-0.6,6.4-1.7,9.5c-3.9,10.1-7.5,20.4-11.4,30.9c23.8,0,47.1,0,70.8,0
	c-3.8-10.3-7.4-20.1-11.1-29.9c-1.1-3.1-1.9-6.1-1.9-9.5c0.1-67,0.1-134.1,0-201.1c0-3.7,0.6-7.1,2-10.6c3.7-9.8,7.3-19.6,11.1-30
	C363.6,197,341.4,197.1,319.2,197z M156.4,455.4c-3.5-8.3-4.6-16.7-4.6-25.6c0.2-56.9,0.5-113.7-0.1-170.6
	c-0.2-17.7,1.1-34.6,9.1-50.6c1.2-2.4,1.7-5.1,2.7-7.5c1.3-2.8,1.1-4.1-2.5-4c-21.1,0.1-42.1,0.1-63.2,0c-3.7,0-3.6,1.3-2.5,4.1
	c3.5,9.1,6.8,18.3,10.2,27.4c0.9,2.5,1.6,5,1.6,7.8c-0.1,67.2-0.1,134.4,0,201.6c0,3.3-0.6,6.4-1.8,9.5
	c-3.8,10.1-7.4,20.3-11.3,30.8c23.9,0,47,0,70.8,0C161.9,470.4,159.5,462.7,156.4,455.4z M486.8,450.1c-1.5-4.1-2.7-8.2-2.7-12.8
	c0.1-56.3,0.6-112.6-0.2-168.9c-0.3-23.1,1.3-45.3,11.6-66.3c0.2-0.5,0.3-1.1,0.5-1.6c1.5-3.1,0-3.5-2.7-3.5
	c-21.1,0.1-42.1,0.1-63.2,0c-3.6,0-3.7,1.1-2.5,4c2.9,7.3,5.3,14.7,8.2,22c2.6,6.3,3.5,12.7,3.5,19.5c-0.2,65.5-0.1,131-0.1,196.5
	c0,2.9-0.5,5.6-1.6,8.4c-3.8,10.1-7.6,20.3-11.5,30.9c23.9,0,47,0,70.9,0C493.5,468.3,490.2,459.2,486.8,450.1z"/>
<path style="fill:#FEFEFE;" d="M295.7,145c-64.4,0-128.7,0-193.1-0.1c-1.9,0-5.1,2.2-6-1.9c-0.8-3.9,2.1-4.7,4.7-5.9
	c62.7-28.2,125.4-56.3,188.1-84.6c4.3-2,7.8-2.1,12.3-0.1c62.8,28.4,125.7,56.6,188.6,84.9c1.4,0.6,3.1,1.2,3.8,2.3
	c0.7,1.1,0.8,3.1,0.3,4.4c-0.8,2.1-3,1-4.5,1c-48.8,0.1-97.7,0-146.5,0C327.4,145,311.6,145,295.7,145z"/>
<path style="fill:#29ABE2;" d="M262.5,100.3c-0.2-18.3,14.8-33.4,33.1-33.4c18-0.1,32.9,14.7,33.2,32.7
	c0.2,18.2-14.8,33.4-33.1,33.4C277.6,133.1,262.6,118.3,262.5,100.3z"/>
</svg>
