<?xml version="1.0" encoding="utf-8"?>
<!-- Generator: Adobe Illustrator 24.0.0, SVG Export Plug-In . SVG Version: 6.00 Build 0)  -->
<svg version="1.0" id="Layer_1" xmlns="http://www.w3.org/2000/svg" xmlns:xlink="http://www.w3.org/1999/xlink" x="0px" y="0px"
	 viewBox="0 0 517.5 321.5" style="enable-background:new 0 0 517.5 321.5;" xml:space="preserve">
<path style="fill:#FDDE59;" d="M344.9,114.4c-13.3-1.4-28-2.2-42.9-2.4c-30.5-0.4-60,5.1-88.9,14.4c-10.5,3.4-20.9,6.9-31.1,10.9
	c-1.7,0.7-2.4,0.6-2.7-1.5c-1.7-12.6-3.4-25.1-5.2-37.7c-0.2-1.6,0.4-2.4,1.9-3c27.6-10.6,55.6-19.7,85-23.6
	c17.2-2.3,34.5-2.4,51.8-1.5c9.5,0.5,18.9,1.4,28.4,2c2.4,0.2,3.5,0.9,3.8,3.5c1.5,12.1,3.3,24.2,5,36.3
	C350.6,114.7,350.6,114.7,344.9,114.4z"/>
<path style="fill:#FDDE59;" d="M146.7,268.9c77.9,0,155.7,0,233.5,0c0,0.1,0.1,0.2,0.1,0.4c-3.4,1-6.7,2-10.1,2.9
	c-34,9.7-68.1,19.4-102.1,29.1c-1.6,0.5-3.1,0.4-4.6,0c-38.7-10.6-77.5-21.2-116.3-31.9C147,269.3,146.9,269.1,146.7,268.9z"/>
<path style="fill:#004370;" d="M171.6,114.3c-14-3.7-27.6-7.2-41.2-10.8c-4.5-1.2-4.5-1.2-4.8-6.1c-0.3-6.4-0.4-12.9,0.7-19.3
	c0.4-2.6,1.7-5,2.5-7.4c0.5-1.4,1.5-2.3,2.8-3.1c37.6-22.1,75.2-44.2,112.7-66.3c2.5-1.5,4.7-1.8,7.5-1
	c55.8,14.7,111.7,29.3,167.5,43.9c1.3,0.4,3,0.5,3.3,2.2c0.2,1.7-1.3,2.3-2.6,3c-21.5,12.7-43.1,25.3-64.6,38c-1,0.6-2,1.1-3.2,1.8
	c-0.8-5.5-1.5-10.8-2.3-16c-0.6-3.8-2.8-5.9-6.5-6.2c-17.1-1.4-34.1-2.8-51.3-2.7c-26.1,0.1-51.5,4.4-76.4,11.9
	c-13.9,4.2-27.6,8.9-41.2,14.1c-4.3,1.7-5.7,4-5.1,8.7C170.1,104.1,170.8,109,171.6,114.3z M349,118.2c-12.7-1-25.4-2.1-38.2-2.5
	c-20.9-0.5-41.6,0.6-62.1,4.9c-21.5,4.5-42.4,11.1-63,18.8c-5.3,1.9-5.2,2-4.3,8.7c54.7-23.7,111.4-32.7,170.5-23.3
	c0-0.9,0-1.6,0-2.3c-0.4-0.7-0.4-1.5-0.4-2.3C351.4,118.6,350.4,118.3,349,118.2z M113.4,78.4c-6.4,3.8-12.8,7.6-19.2,11.3
	c-1,0.6-1.8,1.2-1.6,2.5c0.2,1.3,1.2,1.7,2.2,2c1.7,0.5,3.4,0.9,5.1,1.4c6.2,1.6,12.4,3.2,18.8,4.9c-0.8-8.8-0.5-17.1,1.2-25.8
	C117.5,76.1,115.4,77.2,113.4,78.4z"/>
<path style="fill:#272935;" d="M121.6,251.8c0.9-2.8,0.3-5.6,0.3-8.4c0.1-4.4,0.1-8.9,0.1-13.3c0-0.6,0.6-1.4-0.5-1.8
	c-1.5-0.1-3.4,0.4-2.9-2.3c0.2-1,0.4-1.4,1.5-1.4c5.3,0.2,10.6-0.5,15.9,0.3c5.3,0.8,8.2,3.2,8.8,7.4c0.7,4.9-1.3,8.2-6.2,10.5
	c-0.4,0.2-0.8,0.4-1.3,0.6c2.5,1.9,3.8,4.6,5.4,7c1,1.4,1.9,2.9,3.7,3.3c1.3,0.3,0.9,1.3,1,2.1c0.1,1.2-0.9,1-1.6,1.1
	c-4.6,0.7-8-0.5-10-5.2c-0.9-2.2-2.5-4.1-3.7-6.1c-0.6-1-1.5-1.6-2.7-1.2c-1.2,0.4-0.6,1.5-0.7,2.3c-0.1,1.1,0.1,2.3-0.1,3.5
	c-0.3,2.1-0.2,3.7,2.7,3.2c1.3-0.2,1.1,0.9,1,1.6c0,0.8,0.4,1.9-1,1.9c-3.8,0-7.6,0-11.4,0c-0.7,0-1.3-0.2-1.2-1
	c0.1-0.8-0.5-1.9,0.9-2.1C120.7,253.6,121.6,253.2,121.6,251.8z M405.8,257c1.4,0.1,1.8-0.5,1.8-1.8c0-1.3-0.2-2-1.7-1.8
	c-0.7,0.1-1.7,0.4-1.6-1c0-5.4,0-10.9,0-17c0.9,1.2,1.4,1.8,1.9,2.4c4.7,6.1,9.5,12.1,14.2,18.3c1.3,1.7,2.9,1.6,4.5,1.2
	c1.3-0.3,0.6-1.8,0.6-2.8c0.1-7.5,0-15.1,0-22.6c0-1.8,0-3.7,2.4-4.1c1.4-0.2,0.8-1.4,0.8-2.1c0.1-1.3-1-1-1.7-1
	c-2.3,0-4.6,0.1-6.9,0c-1.5-0.1-2,0.5-2,2c0,1.5,0.5,1.8,1.9,1.7c0.7-0.1,1.6-0.4,1.6,1c-0.1,5.5,0,11.1,0,17.3
	c-5.1-6.4-9.9-12.1-14.2-18.1c-2.3-3.3-5-4.3-8.7-3.9c-1.4,0.1-1.8,0.5-1.8,1.9c0,1.3,0.3,2,1.8,1.8c0.7-0.1,1.7-0.4,1.7,1
	c0,7.3,0,14.5-0.1,21.8c0,1.4-0.6,2.6-2.3,2.7c-0.8,0.1-0.9,0.6-1,1.3c-0.2,3.2,2.3,1.4,3.5,2c0.7,0,1.4,0,2.2,0
	C403.7,257,404.8,256.9,405.8,257z M192.3,224.6c-1.4-0.1-1.9,0.4-1.8,1.8c0.1,1.2,0,2.1,1.7,1.8c0.8-0.1,1.7-0.2,1.7,1.2
	c-0.1,7,0,14-0.1,21c0,1.5-0.4,3-2.4,3.3c-1.4,0.2-0.8,1.3-0.9,2.1c-0.1,0.8,0.4,1.1,1.1,1.1c5.8-0.2,11.7,0.6,17.5-0.6
	c7.6-1.7,12.5-8.3,12.4-16.4c-0.1-7.4-5.4-13.5-13-14.9c-3.2-0.6-6.4-0.3-9.3-0.4C196.8,224.6,194.5,224.7,192.3,224.6z
	 M367.5,224.5c-3.2,1.7-6.2,3.7-8.1,6.9c-3.8,6.3-3.4,15.3,1.1,21c3.7,4.7,11.2,6.6,17.5,4.5c10-3.3,14.2-16.3,8.3-25.8
	c-3.9-6.2-9.7-7.7-16.5-7.1C369.1,224.6,368.1,223.8,367.5,224.5z M107.9,252.9c0.2-2.4-0.3-4.7,0.3-7.1c0-1.1,0.8-1.5,1.8-1.6
	c1.4-0.2,0.8-1.4,0.9-2.1c0.1-0.8-0.4-1-1.1-1c-3.4,0-6.7,0-10.1,0c-1.6,0-1,1.2-1,1.9c0,0.7-0.4,1.9,1,1.6c2.3-0.5,2.4,0.8,2.3,2.5
	c-0.1,1.5,0,3,0,4.5c0,0.6,0,1.1-0.7,1.5c-3.9,2.4-10.8,0.9-13-3.2c-3.3-6-3.3-12.3-0.1-18.3c2.1-3.9,6.5-5.2,10.6-3.5
	c2.6,1.1,4.1,3.1,4.7,5.7c0.3,1.4,1.2,1.3,2.1,1.3c1.5,0.1,1.2-1,1.2-1.8c0-2.5,0-5,0-7.5c0-0.7,0.2-1.6-0.9-1.6
	c-0.8,0-2.3-0.5-2.4,0.4c-0.5,2.4-1.7,0.7-2.4,0.5c-10.1-3.4-19,1-21.7,10.9c-2.7,9.9,2,19.1,10.9,21.3c3.5,0.8,7,0.4,10.5-0.6
	c2.3-0.7,4.5-1.4,6.9-1.3C108.3,254.6,107.9,253.7,107.9,252.9z M232.3,237.9c0,3.1-0.2,6.2,0.1,9.3c0.6,6.3,4.7,10,11.1,10.4
	c7.8,0.5,12.5-2.4,14.1-8.7c0.4-1.8,0.6-3.7,0.6-5.5c0.1-4.1,0.1-8.2,0.1-12.2c0-1.6,0.4-3,2.3-3.3c1.4-0.2,0.8-1.3,0.9-2.1
	c0.1-1-0.6-1.1-1.4-1.1c-2.4,0-4.8,0-7.2,0c-1.3,0-2.2,0.1-2.1,1.8c0,1.5,0.4,2.1,1.9,1.9c0.6-0.1,1.5-0.3,1.4,0.9
	c-0.3,6.1,0.5,12.2-0.4,18.3c-0.7,4.5-3.4,6.7-7.5,6.6c-4.1-0.1-6.5-2.2-7.1-6.8c-0.8-5.5-0.3-11.1-0.2-16.7c0-1.4,0.7-2.6,2.3-2.8
	c1.4-0.2,0.8-1.3,0.9-2.1c0.1-0.8-0.4-1.1-1.1-1.1c-3.7,0-7.4,0-11.2,0c-1.3,0-1,1-1,1.8c0,0.7-0.3,2,0.9,1.8
	c3.2-0.5,2.5,1.6,2.5,3.3c0,2.1,0,4.3,0,6.4C232.1,237.9,232.2,237.9,232.3,237.9z M279.5,247.4c1,0,2,0.1,2.9-0.1
	c2.2-0.4,2.5,1.2,2.9,2.6c0.4,1.4,1.2,3.1-0.9,3.8c-1.4,0.5-0.9,1.6-0.8,2.4c0,1.1,1,0.8,1.6,0.8c2.9,0,5.9,0,8.8,0
	c1,0,2.2,0.3,2.1-1.5c-0.1-1.2,0.2-2.4-1.7-2.1c-0.9,0.2-1.1-0.6-1.4-1.3c-2.9-8.8-6.7-17.3-9.9-26c-0.5-1.3-0.9-2.2-2.7-2.2
	c-1.9,0-1.9,1.3-2.3,2.4c-2.9,7.8-5.7,15.6-8.6,23.4c-0.6,1.6-1.2,3.2-3,3.9c-1.6,0.5-0.9,1.8-0.9,2.7c0.1,1.3,1.2,0.7,1.9,0.7
	c1.9,0.1,3.9-0.1,5.9,0.1c1.7,0.1,2-0.5,2.1-2.1c0.1-2.7-2-1.1-2.9-1.8C273.9,247.5,273.9,247.5,279.5,247.4z M166.8,247.4
	c0.9,0,1.8,0.1,2.7,0c1.7-0.3,2.7,0.4,3,2.1c0.3,1.5,1.7,3.3-0.8,4.3c-1.4,0.6-0.8,1.6-0.7,2.5c0,1.1,1,0.7,1.7,0.7
	c2.8,0,5.7,0.1,8.5,0c0.9,0,2.3,0.6,2.2-1.3c-0.1-1.2,0.3-2.6-1.8-2.3c-1.1,0.2-1-0.8-1.2-1.4c-3.4-8.7-6.7-17.5-10.1-26.3
	c-0.5-1.2-1-1.8-2.4-1.9c-1.5,0-1.9,0.8-2.3,2c-2.8,7.8-5.7,15.6-8.6,23.4c-0.7,1.8-1.3,3.7-3.4,4.5c-1.2,0.5-0.6,1.7-0.6,2.6
	c0.1,1.1,1.1,0.7,1.7,0.7c2,0.1,4.1,0,6.1,0c1.8,0,2.8-1.4,2-3.1c-0.6-1.3-2-0.1-2.8-0.8C161.2,247.5,161.2,247.5,166.8,247.4z
	 M313.6,224.6c-3.9,0-7.8,0.1-11.7,0c-1.9-0.1-2.8,0.3-2.6,2.4c0.2,1.9-0.1,3.9,0,5.8c0,0.8-0.8,2.2,1.1,2.4
	c1.9,0.2,1.9-0.9,2.1-2.2c0.6-3.5,2.6-5.2,5.9-5.2c1,0,1.7,0.1,1.6,1.4c-0.1,7.3,0,14.5-0.1,21.8c0,1.3-0.5,2.6-2,2.7
	c-1.6,0.2-1.1,1.2-1.2,2.1c-0.1,1.5,1,1.1,1.8,1.1c3.3,0,6.6-0.1,9.8,0c1.4,0,1.8-0.5,1.8-1.8c0-1.2-0.1-2-1.7-1.9
	c-0.7,0.1-1.9,0.6-1.9-1c0.1-7.7,0.1-15.4,0.1-23.1c0-1.3,0.6-1.4,1.7-1.4c3.4-0.1,5.5,1.7,6,5.7c0.2,1.4,0.6,1.8,1.9,1.8
	c1.6,0,1.3-1.1,1.3-2c0-2.2-0.2-4.4-0.1-6.6c0.1-1.7-0.7-2.1-2.2-2C321.4,224.7,317.5,224.6,313.6,224.6
	C313.6,224.6,313.6,224.6,313.6,224.6z M338.7,240c0,3.3,0,6.5,0,9.8c0,1.8-0.1,3.6-2.5,4c-1.4,0.2-0.7,1.4-0.7,2.2
	c-0.1,1.1,0.8,1,1.5,1c3.4,0,6.7-0.1,10.1,0c1.6,0,1.6-0.8,1.7-2c0-1.2-0.2-1.8-1.6-1.7c-0.8,0.1-1.9,0.4-1.9-1.1
	c0.1-7.2,0.1-14.3,0.2-21.5c0-1.4,0.5-2.7,2.2-2.9c1.6-0.2,1.1-1.4,1.1-2.2c0-1.2-1-1-1.7-1c-3.3,0-6.6,0.1-9.8,0
	c-1.6-0.1-1.7,0.7-1.7,1.9c0,1.1,0,2,1.5,1.7c1.6-0.3,1.9,0.4,1.8,1.9C338.6,233.4,338.7,236.7,338.7,240
	C338.7,240,338.7,240,338.7,240z"/>
<path style="fill:#E21005;" d="M390.3,199.5c-2-1.6-3.2-3.6-3.5-6.5c-2.7,2.7-5.5,4.4-8.8,5.4c-3.3,1.7-7.8,1.1-10.1-1.4
	c-2-2.3-2.1-2.4-3.2-5.8c-3,3.2-6.4,5.2-10.6,5.8c-3,1.2-6.5,0.2-8.6-2.7c-0.5-1.6-1-3.1-1.6-4.9c-3.3,3.4-6.8,6.2-11.9,6.1
	c-5.2-0.1-8.7-2.4-10.4-7.5c-8,8.7-20.1,8.5-22.4-0.6c-3,3.6-6.6,6-11.3,6.3c-5.2,0.3-7-1-9.6-7c-6.6,9.3-18.3,8.9-20.8,0.2
	c-7.5,9-19.8,8.7-21.9,0.1c-3,3.5-6.2,6.3-10.9,6.8c-5.5,0.6-8.2-1.1-9.9-6.7c-2.5,3.4-5.3,6.1-9.2,7.3c-2.3,1.7-4.6,1.5-6.9-0.1
	c-4.5-1.9-6.7-5.4-7.1-10.1c-0.9-9.8,1.4-18.7,8.3-25.9c3.6-3.8,8.2-5.4,13.5-5.1c2.3,0.1,4.1,0.8,5.5,3.3c-0.1-2.9,1.4-3.4,3.5-3.3
	c2.5,0.1,5-0.1,7.4-0.2c1.6-0.1,1.9,0.3,1.6,1.9c-1.7,8.1-3.2,16.2-4.8,24.2c-0.2,1-0.4,1.9-0.5,2.9c-0.1,1.5-0.1,3.1,1.5,3.9
	c1.7,0.9,3.3,0.5,4.7-0.7c2-1.6,3-3.8,3.5-6.1c1.7-7.6,3.2-15.2,4.7-22.6c-0.6-1.1-2.5,0.5-2.5-1.4c0-1.4,0.3-2.7,2.3-2.4
	c1.2,0.2,1.1-1,1.3-1.6c0.6-2.7,1.2-5.4,1.7-8.1c0.2-1.1,0.6-1.5,1.7-1.6c3.3-0.4,6.5-0.8,9.7-1.4c1.6-0.3,1.5,0.6,1.3,1.6
	c-0.6,2.8-1.2,5.5-2,8.3c-0.6,2.1-0.3,3,2.2,2.7c2.2-0.3,2.7,0.7,1.9,2.5c-0.5,1.1-1.5,0.8-2.3,0.7c-2.3-0.3-3.2,0.5-3.6,2.9
	c-1.3,7-3,14-4.5,21c-0.4,1.8-1.3,4.1,0.9,5.3c2.3,1.2,4.5,0.2,6.3-1.4c1.7-1.6,2.8-3.6,3.3-5.9c1.7-7.7,3.5-15.4,5.1-23.1
	c0.3-1.5,0.9-2,2.4-2c3.4,0.1,6.7,0,10.3,0c-1.7,7.2-3.3,14.1-4.8,21c-0.6,2.6-1.2,5.2-1.7,7.8c-0.3,1.4-0.2,3,1.2,3.8
	c1.5,0.9,3,0.2,4.2-0.7c2.4-1.8,3.3-4.5,4-7.3c1.8-7.4,3.6-14.8,5.3-22.2c0.4-1.8,1.1-2.2,2.8-2.2c3.3,0.1,6.5,0,10.1,0
	c-2.3,9.2-4.4,17.9-6.6,26.5c-0.1,0.6-0.4,1.2-0.4,1.8c-0.1,1.5-0.8,3.3,1,4.3c1.8,0.9,3.7,0.6,5.3-0.6c2.2-1.7,3.2-4.2,3.9-6.8
	c3.2-12.2,6.4-24.3,9.5-36.5c0.5-1.9,1.3-2.8,3.4-2.7c2.6,0,5.1-0.3,7.7-0.6c1.8-0.2,2.5,0,1.9,2.2c-3.6,13-7.1,26-10.6,38.9
	c-0.3,1.2-0.7,2.4-0.8,3.6c-0.3,2.8,1,3.9,3.7,3.7c3.1-0.2,5.7-2.8,6-6c0.8-6.9,3.1-13.3,7.7-18.6c4.4-5.2,9.9-7.9,16.9-6.9
	c2.3,0.3,4.3,1.2,5.5,3.9c0.2-2.8,1.4-3.4,3.7-3c3,0.5,6.2,0.3,9.3,1c-2.6,8.6-5.2,17.2-7.8,25.7c-0.2,0.8-0.6,1.5-0.7,2.3
	c-0.2,1.6-0.6,3.3,1.2,4.3c1.7,1,3.4,0.7,5-0.5c2.3-1.7,3.5-4.2,4.4-6.8c2-6.2,3.9-12.5,5.9-18.7c0.6-1.7,0.9-3.1-1.7-2.6
	c0.3-2.7,0.3-2.8,2.6-3.1c1-0.1,1.1-0.8,1.3-1.4c0.8-2.5,1.8-5,2.5-7.6c0.4-1.3,1-1.8,2.4-1.8c3.1,0,6.2-0.1,9.3-0.3
	c1.7-0.1,1.7,0.5,1.2,1.8c-1,2.7-1.7,5.4-2.8,8c-0.9,2.1-0.5,2.9,1.8,2.8c0.8,0,1.9-0.2,2.1,0.6c0.2,0.6-0.2,1.6-0.6,2.2
	c-0.6,1.1-1.6,0.5-2.4,0.3c-2.2-0.5-3.1,0.4-3.7,2.4c-2.1,6.9-4.5,13.8-6.7,20.7c-0.6,1.7-1.5,3.8,0.3,5.1c2,1.5,4.2,0.9,6.2-0.5
	c2.4-1.6,3.7-4,4.5-6.7c2.3-7,4.8-13.9,6.9-20.9c0.7-2.2,1.7-2.7,3.8-2.3c2.4,0.4,4.9,0.8,7.4,0.9c1.9,0.1,1.9,0.8,1.3,2.3
	c-2.7,7.7-5.3,15.4-8,23.1c-0.1,0.3-0.2,0.5-0.2,0.8c-1.5,4.2-1.1,5.8,1.4,6.4c3.2,0.8,7.1-1.7,7.7-4.9c1.3-7.2,4.2-13.7,9.5-18.9
	c4.2-4.2,9.4-6.2,15.4-5.9c7.3,0.4,11,4.3,10.8,11.6c-0.1,3.3-0.1,3.3,3.3,3.2c2.6-0.1,4.9-0.6,5.3-3.8c0-0.3,0.2-0.5,0.3-0.7
	c2.6-6.6,2.6-6.6,9.6-5.3c0.6,0.1,1.2,0.2,1.8,0.3c3.1,0.5,3.1,0.5,2,3.9c2.8-1.3,5.4-2.5,8.3-2.4c7.6,0.3,11.1,5,9.2,12.3
	c-1.1,4.3-3.2,8.2-5.1,12.3c-0.9,1.9-1.8,3.9-2.2,6c-0.4,1.9,0.2,3.4,2.3,3.8c2,0.4,4.1,0.4,4.9-1.8c1-2.9,2.5-5,5.3-6.2
	c1-0.4,1.5-1.4,2.2-2.2c4.5-5.5,8.4-11.4,11.9-17.6c0.7-1.3,1.5-1.7,2.9-1.6c3,0.3,6,0.5,9,0.7c1.4,0.1,1.8,0.4,1.6,1.9
	c-1.2,8.2-2.4,16.3-3.3,24.5c-1.3,11.2-8.8,14.1-17.1,13.6c-5.8-0.4-9.2-2.4-12.2-7.5c-3.5,2.8-7.4,4.3-12,3.2
	c-5.8-1.4-8.5-5.4-7.1-11.2c1.1-4.8,3.5-9.1,5.2-13.6c0.7-1.9,1.5-3.8,1.8-5.8c0.4-3.2-1.9-4.9-4.8-3.5c-2.9,1.3-4.5,4-5.6,6.8
	c-2.8,7-5.6,14-8.2,21c-0.7,1.9-1.4,2.9-3.8,2.2c-2.3-0.7-4.7-0.9-7.1-1.1c-1.8-0.1-1.9-0.7-1.3-2.3c2.9-7.4,5.7-14.9,8.6-22.6
	c-2.1,0.1-3.9,0.2-5.8,0.4c-1.7,0.1-2,1.5-2.4,2.8c-1.1,4.1-2.5,8.1-5.4,11.4c-5.1,5.9-11.2,8.8-19.1,6.9c-3.7-0.9-6.6-2.9-8.4-6.4
	c-1-0.8-1.6,0.1-2.2,0.6c-1.7,1.3-3.5,2.5-5.6,3.2c-2.9,1-5.9,1.2-8.9,0.4C391.7,200.9,390.8,200.4,390.3,199.5z M103.9,202.2l0.2,0
	l0.2,0.1c2.3,0.5,4.6,0.3,6.8,0.2c1.9,0,3.6-0.9,4.4-2.8c1.6-1.5,2.8-3.3,4-5.3c1,1.3,1.9,2.4,2.8,3.6c0.6,1.4,1.9,1.7,3.2,2.1
	c4.9,1.6,9.1-0.1,13.1-3.2c-0.2,1.4-1.1,1.8-1.9,2.2c-1.8,0.9-3.5,2-5.2,3.2c-4.4,3-5.4,7.2-4.3,12.1c0.6,2.7,3.2,4.7,6,4.6
	c0.7,0,1.4-0.2,2.1,0.2c2.9-0.3,5.8-0.8,8.4-2.1c1.9-0.3,3-1.7,4-3.2c2.6-3.6,3.3-7.8,3.6-12c0.2-2.1,0.8-3.7,3.1-4.4
	c1.5-0.5,2.7-1.7,3.9-2.6c0.8,2.8,1.4,3.2,4.1,2.1c0.9-0.3,1.8-0.1,2.6-0.5c0.9-0.1,1.8-0.2,2.7-0.2c2.4,0.1,3.4-0.8,3.7-3.4
	c1-8.4,2.5-16.8,3.6-25.3c0.3-2.8,1.9-4.3,4.1-5.4c1.9-1,3.3-0.8,4,1.6c0.8,2.6,2.2,3.3,4.9,2.6c3-0.8,4.7-3.4,4.3-6.7
	c-0.3-3-2.7-5.1-5.8-5.1c-2.7,0-5,1.2-7,2.8c-0.9,0.7-1.9,1.5-3.1,2.5c0.2-0.9,0.2-1.3,0.3-1.7c0.6-2.2,0.1-3.2-2.5-2.8
	c-2.5,0.4-5.1,0.4-7.7,0.5c-1.2,0.1-1.8,0.4-2,1.8c-0.6,5-1.4,10-2.2,15c-0.6,4.1-0.8,8.3-2.1,12.3c-1.4,4.2-3.8,7.6-8.5,9.3
	c0.7-5.1,1.3-10,2-14.8c0.9-6.9,1.9-13.9,2.9-20.8c0.3-1.7-0.1-2.2-1.9-1.9c-2.4,0.4-4.8,0.6-7.1,0.6c-2.1,0-3.6,0.3-3.3,3.5
	c-1.8-2.6-3.8-3.1-6.2-2.9c-0.4,0-1,0.1-1.2,0.4c-0.7,1.1,1.6,4.5,2.8,4.5c2.6,0,3.9,1.1,3.6,3.4c-0.7,6.3-1.5,12.7-2.4,19
	c-0.5,3.1-3.2,6-5.7,6.4c-1.2,0.2-8.6-2.9-9.1-3.8c-0.3-0.6-0.5-1.3-0.6-2c-0.4-2.8-0.8-5.6-1-8.4c-0.3-3.6-0.5-7.2-0.8-10.9
	c-4.4,6.1-6.1,12.9-5.6,20.1c0.2,2.9-0.8,5-3,6.6c-1.3,0.9-2.8,1.2-4.3,0.5c-1.3-0.7-1.6-2.1-1.6-3.4c0-1.1,0.1-2.3,0.2-3.4
	c0.5-5.5,1.9-11,1.4-16.7c-0.5-5.9-4.3-8.8-10.2-8.1c-3.8,0.4-6.6,2.4-9.4,5.1c0.3-3.5,0.3-3.6-3-3.2c-0.8,0.1-1.6,0.2-2.4,0.3
	c-2.2,0.3-5.2-0.3-6.3,1.3c-1.2,1.6-0.7,4.4-0.9,6.7c-0.3,4.4-0.4,4.5-4.6,5.9c-2,0.6-3,0.5-3.5-2c-1.5-7.1-6-9.9-13.2-8.4
	c-6.9,1.4-11.6,5.5-14.4,11.8c-2.6,5.6-3.4,11.5-3,17.6c0.1,1.1,0.1,2-0.6,3c-3.5,4.7-8.1,7.4-13.8,8c-4.9,0.5-7.9-1.5-9.6-6.1
	c-1-2.8-1.6-5.6-1.9-8.5c-0.9-9.7-0.5-19.3,3.4-28.5c1.1-2.6,2.6-5,5.2-6.6c2.1-1.3,4.4-1.7,6.5-0.3c2,1.3,2.2,3.6,1.9,5.7
	c-0.2,1.7-0.7,3.3-1.9,4.6c-0.8,0.8-0.4,1.1,0.4,1.5c3.4,1.9,8-0.3,8.8-4c1.2-6.1-2.7-11.6-8.8-12.2c-10.1-1-18.1,2.7-23.6,11.3
	c-5.7,9.1-6.6,19.3-5.8,29.7c0.4,5.3,1.5,10.5,4.1,15.3c2.3,4.1,5.7,6.5,10.4,7c3.3,0.3,6.5,0,9.7-0.8c7.2-2,12.9-6.2,16.9-12.8
	c2.8,5.7,7.4,7.2,13,6.6c7.4-0.9,11.9-5.3,14.8-11.8c1.8-4.1,2.1-8.4,2-12.8c0-1.3-0.2-2.7,1.5-3.3c1.7-0.6,3.4-1.3,5.4-2.1
	c-0.6,8.2-1,16.1-1.7,23.9c-0.2,2.1,0.4,2.4,2.2,2c2.3-0.4,4.7-0.8,7.1-1c1.9-0.1,2.5-0.8,2.6-2.7c0.5-7.6,1.1-15.2,1.7-22.8
	c0.2-2.7,0.9-5.3,2.6-7.4c1-1.3,2.4-2.2,4.1-1.8c1.8,0.4,2.1,1.9,2.4,3.4c0.5,3.2-0.2,6.4-0.5,9.5c-0.4,5.1-1.7,10.2,0.4,15.2
	C99.6,201,101.4,202,103.9,202.2z M413,150.5c0-3.5-3.3-6.6-7-6.6c-3.6,0-6.6,2.8-6.7,6.2c-0.1,3.7,2.9,6.6,6.8,6.7
	C409.8,156.8,412.9,154,413,150.5z"/>
<path style="fill:#DFDFDF;" d="M107.6,255.4c0.5-3.2-0.5-6.5,0.6-9.6C108,249,109,252.3,107.6,255.4z"/>
<path style="fill:#FDDE59;" d="M126.1,174.3c0-2.7,0-5.3,0-8c0-1.2,0-2,1.6-1.8c2.2,0.3,4.5,0.2,6.5-0.9c1.1-0.6,1.3,0,1.4,0.8
	c1,6.2,2.3,12.4,2.5,18.7c0.1,1.6-0.6,2.3-2.2,2.8c-7.4,2.3-9.1,1.3-9.6-6.3c-0.1-1.8,0-3.5,0-5.3
	C126.3,174.3,126.2,174.3,126.1,174.3z M131.2,162.8c0.8-0.1,1.5-0.3,2.3-0.5c1.3-0.3,1.7-0.9,1.2-2.3c-0.9-2-1.6-4.1-2.5-6.1
	c-0.2-0.5-0.2-1.2-1.1-1.2c-4.4-0.1-5.2,0.7-5.2,5.2c0,0.1,0,0.2,0,0.3C125.8,163.6,125.8,163.6,131.2,162.8z M127.2,126.1
	c-0.2-1.7,0.1-3.7-0.6-5c-0.9-1.7,0.9-3.9-1.4-5.1c-1.5,0.2-1.6,1.6-2.1,2.6c-0.8,2.6,0.8,5.1,0.6,7.7c0,0.3,0.8,0.2,0.8,0.8
	C125.7,127.7,126.1,126,127.2,126.1z M125.8,134.3c-1.2,3.2-0.4,6.3,0.8,9.3c2,0.3,2-1.5,2.6-2.6c-0.3-2.5-0.6-5-0.9-7.5
	c-0.1-0.8-0.1-1.5-1.1-0.6C126.2,132.9,126,133.5,125.8,134.3z M120.9,102.7c-0.4,2.4,0.7,4.8,0.6,7.2c0,0,0.3,0.1,0.4,0.1
	c1.7-0.4,2.1-1.7,2.5-3.1c-0.1-2.3-0.3-4.6-0.4-6.9C122.2,100,121.6,101.4,120.9,102.7z M131.3,62.3c-2.2-0.5-4,0-4.8,2.5
	c0.8,0.1,1.5,0.3,3,0.5c-3.9,0.2-3.9,0.2-5,2.2c1.3,1.4,1.6,1.4,3.7,0.1c1.4-1.6,2.9-3.2,4.3-4.8C132.3,62.3,132,61.9,131.3,62.3z
	 M128.8,145.3c-2.5,1.9-1.6,4.8-2.2,7.4c1.5,0.3,3.2,0,4.9-0.8c-0.7-0.6-1-1.3-1.1-2.2c-0.4-1.7,0.3-3.5-0.9-5
	C128.9,144.6,128.7,144.8,128.8,145.3z M121.6,111.2c-0.5,1.9,0.4,3.1,2,2.7c0.8-0.5,1.3,0.2,1.9,0.5c-0.4-2.5-0.2-5.1-1.1-7.5
	c-0.8,1-1.7,2.1-2.5,3.1C122.7,110.7,121.7,110.8,121.6,111.2z M123.1,70.2c-1,1.7-0.4,2.4,1.3,2.6c0.7,0.4,1,0,1.1-0.6
	c1.3-1.3,2.4-2.8,2.7-4.6c-1.2-0.3-2.5,1.4-3.7-0.1C125.5,69.2,123.6,69.3,123.1,70.2z M122.6,88.3c-0.7,0.6-1.4,1.1-1.9,1.7
	c-0.9,1.2-1.4,2.5,0.2,3.7c1.5,0,2.2-0.7,2.1-2.2c1.2-1.6,0.3-3.5,0.5-5.2C121.3,86,122.3,87.3,122.6,88.3z M120.8,97.9
	c1.4,0.3,1.8-0.8,2.4-1.6c0.1-0.3,0.2-0.7,0.1-1c0.2-1.3,0.7-2.6-0.4-3.8c-0.5,0.9-1.2,1.6-2.1,2.2C120,95.1,119.5,96.5,120.8,97.9z
	 M127.8,130.1c-0.2-0.5,0.6-1.9-1-1.4c-0.3,0.1-0.5,0.3-0.6,0.6c0.1,1-0.9,1.3-1.4,2c-0.8,1.2-0.3,2.7,1,3c0.5-0.4,1-0.9,1.4-1.3
	C127.5,132.1,128.1,131.1,127.8,130.1z M121.9,73.9c0,0.4,0,0.8-0.4,1.1c-0.3,1.2,0.1,1.9,1.5,1.6c0.9,0.2,1.7,0.1,1.6-1.1
	c0.8-0.9,1.4-1.9,1.6-3.2c0.1-0.7-0.3-0.7-0.7-0.2c-0.2,0.4-0.6,0.6-1.1,0.6C123.5,73,122.6,73.3,121.9,73.9z M123.1,118.7
	c1.3-0.4,1.2-1.9,2.1-2.6c0.1-0.5,0.3-1.1,0.4-1.6c-0.6-0.4-0.4-1.1-0.6-1.7c-0.4,0.4-0.9,0.8-1.3,1.1
	C121.8,115.3,121.8,116.9,123.1,118.7z M120.4,101.5c2.2,0.4,2.9-1.3,3.2-2.7c0.2-0.8,1-2.3-0.7-2.9c-0.5,0.9-1.2,1.6-2.1,2.1
	C120.1,99.1,120.4,100.3,120.4,101.5z M135.3,60.7c-0.2-0.4-0.5-0.7-0.9-0.5c-1-0.5-1.9-0.5-2.9,0c-1.5,0.8-1.7,1.4-0.1,2.1
	c0.4,0.2,0.8,0.3,1.2,0.5C133.7,62.3,135.4,62.7,135.3,60.7z M141.3,57.8c-2.2,0.2-4.3,0.4-6.3,1.1c-0.8,0.3-1,0.6-0.7,1.3
	c0.3,0.2,0.6,0.3,0.9,0.5C138,61.1,139.4,58.9,141.3,57.8z M120.9,80.9c1.8,0.3,2.8-0.8,3.6-2.2c-0.4-1,1.2-2,0.1-3.1
	c-0.5,0.4-1.1,0.7-1.6,1.1C121.2,77.5,120.4,78.9,120.9,80.9z M123.9,79.9c-0.7-0.4-1.1,0.5-1.7,0.8c-0.7,0.3-1.3,0.8-1.7,1.5
	c0.6,0.9-1.6,2.8,1,2.9l-0.1,0.1c0.6-1.3,2.3-1.6,2.7-3.1C124.3,81.2,124.7,80.3,123.9,79.9z M129.3,141.1c-1.1,0.7-1.2,2.3-2.6,2.6
	c-1,1.1-0.2,2.2,0,3.5c0.9-0.7,1.5-1.3,2.2-1.8c0.2-0.2,0.4-0.4,0.6-0.6C129.4,143.5,129.3,142.3,129.3,141.1z M123.9,83.6
	c-1.1,0.3-1.3,1.6-2.4,1.5c0,0,0.1-0.1,0.1-0.1c-1.6,1.1-1.5,2.6-1.3,4.3c1,0,1.4-1.2,2.4-1c0.4-0.7-0.6-1.9,0.9-2
	C123.9,85.4,124,84.5,123.9,83.6z M127.2,126.1c-0.4-0.4-0.9-1.2-1.4-0.1c-0.3,0.5-0.6,1-1.3,1.1c-1,1.2-0.4,2.3-0.1,3.6
	c0.7-0.6,1.3-1,1.8-1.4c0.2-0.2,0.4-0.4,0.6-0.6C127,127.9,127.5,127.1,127.2,126.1z M120.9,102.7c1.4-0.4,1.8-2.1,3.1-2.6
	c-0.2-1.6,0.7-3.4-0.6-4.8c-0.1,0.2-0.3,0.4-0.4,0.6c1.3,2.8,0.5,4.5-2.5,5.7C120.6,101.9,120.7,102.3,120.9,102.7z M124.5,78.7
	c-1.2,0.7-2.4,1.5-3.6,2.2c-0.1,0.4-0.3,0.8-0.4,1.2c1.1-0.7,2.3-1.4,3.6-2.1c0,0.7,0.1,1.4,0.1,2C124.9,80.9,124.7,79.8,124.5,78.7
	z"/>
<path style="fill:#F6F9FA;" d="M274.7,9.6c-7.4-1.1-14.7-2.3-22.1-3.1c-3.1-0.3-6,0.1-8.8,1.4c-8.2,3.9-16.1,8.1-24,12.5
	c-0.2-0.3-0.1-0.6,0.1-0.8c8.6-5.1,17.1-10.4,25.9-15.1c2-1.1,4-1.6,6.3-1c8,1.9,16,3.7,24,5.5C276,10.3,275.3,9.7,274.7,9.6z"/>
<path style="fill:#848692;" d="M274.7,9.6c0.5-0.2,1.2,0.1,1.5-0.5c1.9,0.3,3.8,0.6,5.5,1.6C279.3,10.5,276.9,10.5,274.7,9.6z"/>
<path style="fill:#888A95;" d="M220,19.7c0,0.3-0.1,0.5-0.1,0.8c-1,0.9-2.1,1.4-3.4,1.6C217.4,21.2,218.5,20.2,220,19.7z"/>
<path style="fill:#FDFDFD;" d="M333.4,182.2c0.7-6.6,2.5-12.7,6.5-18c1.4-1.9,3.1-3.4,5.5-3.9c2.9-0.6,4.9,1.5,4,4.3
	c-1.6,5.5-3.3,11-4.9,16.5c-0.5,1.7-1.3,3.3-2.6,4.6c-1.7,1.8-3.8,2.9-6.2,1.9C333.4,186.7,333.6,184.3,333.4,182.2z"/>
<path style="fill:#FDFDFD;" d="M203.4,179.5c0.6-6.5,1.6-12.7,5.6-18c0.7-0.9,1.5-1.8,2.5-2.4c1.6-1,3.2-1.5,5-0.4
	c1.8,1.1,1.4,2.8,1.1,4.5c-1,5.2-2,10.4-2.9,15.6c-0.5,2.5-1.4,4.7-3.4,6.4c-3.2,2.7-6.6,1.6-7.4-2.6
	C203.6,181.5,203.5,180.5,203.4,179.5z"/>
<path style="fill:#FDFDFD;" d="M421.1,192c0.8-7.7,3.6-14.5,8.9-20.3c1-1.1,2.2-2.1,3.7-2.4c1.4-0.3,3.1-0.4,3.7,1.2
	c0.6,1.5,1.1,3.1-0.9,4.4c-2.3,1.5-2.6,4.2-0.9,6.5c0.4,0.6,0.6,1,0.4,1.6c-1.6,4.7-3.6,9.3-7.5,12.6c-1.4,1.2-3.1,1.9-4.9,1.2
	C421.2,196,420.9,194.2,421.1,192z"/>
<path style="fill:#FCFCFC;" d="M503.6,184.8c-0.6,5.7-1,10.5-1.5,15.4c-0.2,1.6-0.4,3.2-0.9,4.7c-1.5,4.3-6.5,5.9-10.3,3.5
	c-1.2-0.7-1.7-1.8-1.7-3.1c0-1,0-1.8,1.4-1.2c1.7,0.8,3.1,0.1,4.2-1.3c1-1.3,1.3-2.7,0.1-4.1c-0.5-0.6-0.5-1,0-1.6
	C497.9,193.3,500.6,189.4,503.6,184.8z"/>
<path style="fill:#FBFBFB;" d="M340.2,80c-0.1,2.7-2.4,4.8-5,4.7c-2.7-0.1-4.8-2.3-4.7-5c0.1-2.7,2.3-4.8,5-4.7
	C338.1,75.1,340.2,77.4,340.2,80z"/>
<path style="fill:#EEF1F4;" d="M340.1,86.8c1.2,0.1,1.8,0.7,1.9,1.8c0,1.1-0.6,1.9-1.7,1.9c-1.1,0-1.8-0.7-1.9-1.8
	C338.4,87.6,339.1,87,340.1,86.8z"/>
<path style="fill:#FDFDFD;" d="M52.2,191.7c0.1-5.1,0.8-10,3.1-14.7c0.8-1.6,1.6-3.2,3.3-4.1c1.3-0.7,2.8-1.2,3.9,0.2
	c1,1.3,1.9,2.6,0.4,4.4c-1.8,2.1-1.2,4.8,1,6.5c0.6,0.4,0.9,0.7,0.8,1.4c0,4.7-0.7,9.3-3.1,13.6c-0.6,1-1.3,1.9-2.3,2.6
	c-2.4,1.6-4.9,0.8-5.9-1.9c-0.3-0.7-0.4-1.5-0.6-2.3C52.3,195.4,52.1,193.5,52.2,191.7z"/>
<path style="fill:#F5F6F7;" d="M138.8,203.1c-0.2,2.9-0.5,5.3-1.6,7.5c-0.8,1.6-2,3.3-4.1,2c-1.9-1.1-1.6-2.9-0.6-4.6
	C133.9,205.6,136.2,204.5,138.8,203.1z"/>
<path style="fill:#F8F8F8;" d="M128.6,235.3c0-0.9,0-1.8,0-2.6c0.1-1.8-0.5-3.9,2-4.6c2.2-0.7,5.3,0.5,6.4,2.6
	c1.4,2.7,1.3,5.5-0.3,8.1c-1.6,2.5-4.3,2.5-6.9,2.4c-1.1,0-1.3-0.6-1.3-1.5C128.7,238.1,128.6,236.7,128.6,235.3z M200.4,241.5
	c0,3.4,0,6.7,0,10.1c0,0.7-0.3,1.5,0.9,1.8c5.2,1.3,10.1-1.3,11.9-6.4c1.6-4.5,1.3-9.1-0.4-13.5c-1.4-3.5-4.2-5.3-7.9-5.8
	c-3.3-0.4-4.4,0.5-4.4,3.9C200.4,235,200.4,238.3,200.4,241.5C200.4,241.5,200.4,241.5,200.4,241.5z M367,251
	c3.2,4.4,9.1,4.4,12.1,0.1c3.5-4.9,3.2-16.1-0.5-20.7c-3.4-4.2-9.4-3.9-12.4,0.6c-1.8,2.8-2.2,5.9-2.3,9.2
	C364.1,244,364.7,247.7,367,251z M277.4,238.9c-1.9,5.5-1.9,5.5,3.9,5.3c1.5,0,1.8-0.4,1.3-1.8c-1.2-3.1-2.1-6.2-3.3-9.5
	C278.6,235,278,237,277.4,238.9z M166.6,232.9c-1.2,3.8-2.4,7.4-3.6,11.1c2.5,0,4.8,0,7.4,0C169.1,240.2,167.9,236.7,166.6,232.9z"
	/>
<path style="fill:#FCFDFC;" d="M127.7,174.6c0-1-0.1-1.9-0.1-2.9c-0.2-5.9-0.2-5.8,5.7-6.1c1.2-0.1,1.3,0.6,1.4,1.4
	c0.7,4.9,1.4,9.8,2.1,14.7c0.3,2.1-0.6,2.9-2.6,3.3c-5.6,1.1-6.1,0.8-6.3-4.8c-0.1-1.9,0-3.7,0-5.6
	C127.8,174.6,127.7,174.6,127.7,174.6z"/>
</svg>
