<?xml version="1.0" encoding="utf-8"?>
<!-- Generator: Adobe Illustrator 24.0.0, SVG Export Plug-In . SVG Version: 6.00 Build 0)  -->
<svg version="1.0" id="Layer_1" xmlns="http://www.w3.org/2000/svg" xmlns:xlink="http://www.w3.org/1999/xlink" x="0px" y="0px"
	 viewBox="0 0 623.9 475.8" style="enable-background:new 0 0 623.9 475.8;" xml:space="preserve">
<path style="fill:#4C94D0;" d="M311.6,33.7c91.8,0,183.6,0,275.4-0.1c4.8,0,5.8,1.5,5.8,6c-0.1,129.5-0.1,259.1,0,388.6
	c0,4.8-1.5,5.7-6,5.7c-177.7-0.1-355.4-0.1-533-0.1c-5.9,0-11.9-0.4-17.8,0.1c-4.5,0.3-5.5-1.3-5.5-5.6c0.2-34.8,0.1-69.5,0.1-104.3
	c0-94.6,0-189.2-0.1-283.8c0-4.7,0.7-6.6,6.2-6.6C128.3,33.8,220,33.7,311.6,33.7C311.6,33.7,311.6,33.7,311.6,33.7z"/>
<path style="fill:#35B56F;" d="M310.5,398.3c-75.6,0-151.3-0.1-226.9,0.1c-5.4,0-6.8-1.5-6.7-6.8c0.2-97.2,0.2-194.4,0-291.6
	c0-5.5,1.3-7.4,7.1-7.4c151.5,0.1,302.9,0.1,454.4,0c4.6,0,6,1.2,6,5.9c-0.1,97.9-0.1,195.9,0,293.8c0,5.2-1.7,6.1-6.4,6.1
	C462.1,398.2,386.3,398.3,310.5,398.3z"/>
<path style="fill:#FFFFFF;" d="M310.6,379.2c-68.6,0-137.2,0-205.7,0c-8.9,0-7.9,1-7.9-7.6c0-84.4,0-168.7-0.1-253.1
	c0-5.4,1.4-6.7,6.8-6.7c137,0.2,274,0.1,410.9,0.1c1.5,0,3,0.2,4.5,0c4.5-0.6,5.6,1.3,5.6,5.6c-0.1,69.9-0.1,139.8-0.1,209.6
	c0,15.4-0.2,30.9,0.1,46.3c0.1,4.6-1.3,5.9-5.9,5.9C449.2,379.1,379.9,379.1,310.6,379.2C310.6,379.1,310.6,379.2,310.6,379.2z"/>
<path style="fill:#35B56F;" d="M308.8,282.3c52.4,0,104.8,0,157.1,0c2.6,0,5.7-1.1,5.9,3.6c0.2,4.2-1.2,5.4-5.4,5.3
	c-34.5-0.1-69.1-0.1-103.6-0.1c-69.8,0-139.7,0-209.5-0.1c-1.9,0-4.5,1.1-5.6-1.1c-0.9-1.8-3.3-3.3-1.9-6c1.3-2.4,3.4-1.8,5.4-1.8
	C203.7,282.3,256.3,282.3,308.8,282.3z M465.8,254.5c3.3,0,6.1,0.4,6.1-4.6c0-5.3-3.3-4.3-6.4-4.3c-10.2,0-20.4,0-30.7,0
	c-93.8,0-187.6,0-281.5,0c-3.5,0-6.6-0.5-6.4,4.9c0.2,4.9,3.3,4,6.1,4c52,0,104,0,156.1,0C361.4,254.4,413.6,254.4,465.8,254.5z
	 M467.7,347c3.8,0,4-2,4.1-4.9c0.1-3.2-1.2-4-4.3-4.2c-5.2-0.3-10.8,1.6-15.7-1.8c-0.5-0.3-1.7,0.2-2.6,0.5
	c-6.3,2.2-12.5,2.3-18.7-0.2c-1.3-0.5-2.3-0.4-3.6,0.1c-6,2.3-12.2,2.2-18.3,0.1c-1.3-0.4-2.3-0.9-3.6-0.3
	c-6.2,2.6-12.5,2.5-18.7,0.3c-3.2-1.1-5.1,1.3-4.4,2.8c1.4,3.2,1.5,7.9,7.5,7.6c12.8-0.6,25.7-0.2,38.6-0.2
	C441.2,347,454.5,346.9,467.7,347z M225.9,336.8c-6.6,2.1-13.3,0-19.8-0.1c-6.6-0.1-13.5,2.3-20.4,0.2c-1.2-0.4-2.4-1.4-3.6-0.5
	c-2.8,2.3-6,1.7-9.1,1.6c-3.6-0.1-7.1,0-10.8-1.4c-3.4-1.2-7.4,2.2-11.6,1.5c-3.8-0.6-3.5,2.3-3.4,4.7c0.1,2.6,0.7,4.5,4.2,4.4
	c10.5-0.3,21-0.3,31.6-0.3c15.9,0,31.7-0.1,47.6,0c3.5,0,5.4-0.9,4.8-4.3C235.3,338.3,230.1,335.5,225.9,336.8z"/>
<path style="fill:#2D3E50;" d="M405.9,163.6c-4,5.8-7.9,11.5-11.9,17.3c-4.3,6.3-7.1,6.2-11.5-0.3c-3.7-5.7-7.6-11.2-12.4-18.2
	c0,10.7,0,19.7,0,28.7c0,3.3-0.1,6.7-4.7,6.6c-4.3-0.1-4.2-3.3-4.2-6.4c0-14.1,0-28.2,0-42.4c0-3,0.2-5.7,3.3-7c3.4-1.3,5,1,6.7,3.4
	c5.4,7.8,10.9,15.5,16.2,23.4c2,3,3.1,3.5,5.3,0.1c5.2-7.9,10.8-15.6,16.2-23.3c1.5-2.2,2.9-4.8,6.1-3.7c3.8,1.3,0.9,3.9,0.9,6.1
	c-0.1,10.6-0.1,21.2-0.2,31.8c0,4.6,0.1,9.3,0,13.9c0,3-1.3,5.1-4.6,5c-3.5,0-4.2-2.3-4.2-5.2c0-9.8,0-19.6,0-29.5
	C406.6,163.9,406.3,163.8,405.9,163.6z M352.4,168c-0.2-14.8-13.1-26.6-28.8-26.2c-15.5,0.3-27.5,13.1-27.2,29.2
	c0.3,15.2,12.8,27.1,28.2,26.9C340.9,197.6,352.7,184.9,352.4,168z M151.4,192.5c0,3.8,1.6,5.4,5.4,5.3c4.3-0.1,8.5,0.1,12.8-0.1
	c14.1-0.6,25.1-11.4,26.6-26c1.4-13.4-7.2-25.3-20.8-29c-6.1-1.6-12.2-0.6-18.3-1c-4-0.3-5.7,1.6-5.7,5.6c0.1,7.2,0,14.5,0,21.7
	C151.4,176.9,151.5,184.7,151.4,192.5z M430.6,198.2c2.3,0.8,4-0.4,5-2.4c0.7-1.3,1.3-2.7,1.6-4.1c1.2-6,4.4-8.2,10.9-7.8
	c10.2,0.7,10.3,0.1,14.3,9.8c1.3,3,2.9,5.7,6.5,4.2c3.2-1.3,2.9-4.3,1.8-7.2c-5.5-14.3-10.9-28.7-16.3-43c-1-2.6-1.9-4.8-5.2-4.9
	c-3.3-0.1-4.3,2.2-5.3,4.7c-5.3,14.2-10.6,28.4-16,42.6c-0.4,1-0.6,2.1-1,3.2C426.6,196.2,428.3,197.5,430.6,198.2z M226.6,192.6
	c0,3,1.2,5.1,4.5,5.2c3.5,0.1,4.4-2.1,4.3-5.1c-0.1-3,0-5.9,0-8.9c0-8.2,0-8.2,8-8.5c9.6-0.3,16.5-7.2,16.5-16.6
	c0-9.3-7.4-16.7-17-16.9c-3.2,0-6.3,0.2-9.5,0c-5.1-0.4-7,2.1-7,6.9c0.1,7,0,14.1,0,21.1C226.6,177.4,226.6,185,226.6,192.6z
	 M267.9,192c0,3.1,0.9,5.7,4.5,5.8c6.3,0.1,12.6,0.1,18.9,0c2.7,0,4.1-1.7,4-4.3c-0.1-2.3-1.5-3.8-3.9-3.9c-3.1-0.1-6.3-0.3-9.4,0
	c-4.3,0.4-5.4-1.4-5.3-5.5c0.2-12,0.1-24.1,0.1-36.1c0-3.1-0.5-5.9-4.1-6c-4-0.2-4.7,3-4.7,6.1c-0.1,7,0,14.1,0,21.1
	C267.9,176.8,267.9,184.4,267.9,192z M216.4,147.9c0-3.1-0.8-5.8-4.3-5.9c-3.9-0.1-4.7,2.7-4.7,6.1c0,14.6,0,29.3,0,43.9
	c0,3,0.4,5.8,4.2,5.9c4.1,0.1,4.7-2.7,4.7-6c0-7.2,0-14.4,0-21.7C216.4,162.7,216.3,155.3,216.4,147.9z"/>
<path style="fill:#FFFFFF;" d="M305.3,169.7c0-10.7,8.3-19,18.9-19c10.8,0,19.4,8.6,19.3,19.4c-0.1,10.3-9,19.3-19.1,19.3
	C313.9,189.4,305.3,180.5,305.3,169.7z M160.3,185.8c0,2.1,0.4,3.4,2.9,3.7c8,1,17.2-3,21.2-9.6c3.9-6.5,3.9-13-0.3-19.4
	c-4.7-7.2-13.1-10.5-21.4-8.9c-2.3,0.4-2.5,1.8-2.5,3.5c0,5,0,10,0,15C160.3,175.4,160.3,180.6,160.3,185.8z M443.9,172.3
	c-0.3,0.9-1.3,2.5,0.3,2.7c2.5,0.3,5.2,0.2,7.7-0.1c1.2-0.1,0.8-1.5,0.5-2.3c-1.3-3.4-1.9-7.1-4.6-11
	C446.3,165.7,445.1,169,443.9,172.3z M240.5,165.5c6.7-0.5,10.1-2.4,9.9-7c-0.1-4-3.8-6.4-9.1-6.9c-5.7-0.6-6.8,2.1-6,5.9
	C235.6,161.9,234.1,166,240.5,165.5z"/>
<path style="fill:#C65C5C;" d="M478.9,425.9c-0.6-0.1-0.8,0.4-1.2,0.7c-0.6,0.5-1.1,1-1.7,1.5c-3.5,2.8-6.3,2.7-9.6-0.4
	c-0.6-0.6-1.1-1.3-1.9-1.7c-2.2-3.8-5.3-6.6-9.6-7.8c-3.4-1-6.8-0.9-10.2,0.1c-2.4,0.7-4.8,1.1-7.3,0.6c-4.1-0.8-5.9-4-6-7.7
	c-0.1-3.3-0.1-6.6-1.7-9.6c-0.2-0.5-0.4-1-1-1.3c-1.7-3.5-4.4-5.8-8-7.2c-1.8-0.7-3.7-1.2-5.4-2.2c-3.4-2-4.8-6-3.3-9.7
	c0.7-1.8,1.9-3.3,2.9-4.9c3.8-6.2,3.7-12.5-0.1-18.7c-0.9-1.4-1.8-2.8-2.6-4.3c-1.9-3.8-0.5-8.2,3.3-10.1c1.1-0.6,2.3-1,3.4-1.4
	c8-2.9,12.1-8.6,12.3-17.2c0-1.1,0-2.2,0.2-3.2c0.8-4.5,4.4-7.1,8.9-6.4c2.2,0.3,4.4,0.7,6.5,1.2c6.6,1.3,11.7-1.1,15.9-6
	c1-1.2,2-2.4,3.1-3.5c3.5-3.4,7.5-3.4,11,0c1.2,1.1,2.3,2.3,3.3,3.6c5,6.2,11,7.6,19.1,5.3c2.3-0.6,4.5-1,6.9-0.4
	c2.3,0.6,3.8,2,4.6,4.2c0.6,1.7,0.9,3.4,0.9,5.2c0.2,8.8,3.9,14.1,12.2,17.1c1.4,0.5,2.7,1,4,1.8c3.5,2.2,4.7,6.3,2.8,9.9
	c-0.7,1.5-1.7,2.9-2.6,4.3c-3.9,6.3-3.8,12.5,0,18.8c0.9,1.5,1.9,2.9,2.6,4.5c1.8,3.7,0.4,8-3.2,9.9c-1.5,0.8-3.1,1.3-4.6,1.9
	c-3.3,1.2-6,3.2-8,6.1c-0.3,0.4-0.7,0.8-0.7,1.4c-1.4,1.3-1.9,3.1-2.2,4.9c-0.3,1.8-0.4,3.6-0.4,5.5c-0.1,6.5-4.5,9.3-10.3,8.3
	c-2.8-0.5-5.5-1.5-8.4-1.5c-4.3,0-7.8,1.7-10.8,4.4C481.2,423.1,479.6,424.1,478.9,425.9z"/>
<path style="fill:#F9A652;" d="M311.6,312.4c13.8,0,25.2,11.7,25.1,25.8c-0.1,12.4-12.3,25.4-24.5,25.2
	c-15.8-0.3-26.8-12.2-26.8-25.7C285.6,323.4,297,312.4,311.6,312.4z M510.9,364.3c-2.1-8.2-6.2-15.2-12.7-20.8
	c-9.5-8.2-20.5-11.5-32.7-9.4c-16.5,2.7-27.2,12.5-32.5,28.4c-0.6,1.9-0.7,3.8-1.3,5.7c-0.1,2.3,0.4,4.6,0.8,6.9
	c1.4,6.7,4.2,12.6,8.6,17.8c3.7,4.4,8.1,7.9,13.3,10.3c7.4,3.5,15.2,4.8,23.4,3.4c8.1-1.4,15.2-4.8,21.1-10.4
	c4-3.8,7.1-8.2,9.3-13.3c2-4.7,3-9.6,3.3-14.7C511.1,366.9,511.3,365.6,510.9,364.3z"/>
<path style="fill:#AF4646;" d="M440.3,470.4c-1.5-2.3-2.2-4.9-3.2-7.4c-2.1-5-4.1-10.1-6-15.2c-0.4-1.1-0.9-1.2-1.9-0.9
	c-7.1,2.1-14.3,4.2-21.4,6.3c-2.1,0.6-2.8,0.1-2.9-2.1c-0.1-0.9,0.1-1.7,0.5-2.5c7.8-16,15.6-32,23.3-48c0.1-0.1,0.2-0.3,0.3-0.4
	c0.9-0.1,1.1,0.6,1.4,1.2c1.1,2.1,1.6,4.4,1.7,6.7c0,1,0,1.9,0,2.9c0.2,4.7,3,7.5,7.7,7.6c2.1,0.1,4.2-0.6,6.2-1.1
	c4.5-1.1,8.8-0.6,12.8,1.7c2.7,1.5,4.8,3.6,6.2,6.4c0,1.1-0.5,2-1,2.9c-3.8,7.3-7.2,14.7-10.8,22.1c-2.7,5.6-5.6,11.1-8.1,16.8
	c-0.7,1.5-1.7,2.6-3.4,2.9C441.1,470.4,440.7,470.4,440.3,470.4z M513.3,401.3c-0.7,1.3-1.2,2.7-1.4,4.1c-0.3,1.9-0.3,3.8-0.4,5.6
	c-0.2,3.6-1.9,6.8-6.1,7.5c-1.3,0.2-2.7,0.2-4-0.1c-1.4-0.3-2.8-0.8-4.2-1c-5.5-1.1-10.4,0-14.6,3.8c-1.5,1.4-3.2,2.6-4,4.6
	c-0.1,0.6,0.2,1.2,0.5,1.7c6.6,13.3,13,26.7,19.5,40c0.7,1.5,1.7,2.6,3.4,2.9c0.4,0,0.9,0,1.3,0c0.5-0.5,0.7-1.1,1-1.7
	c2.7-6.9,5.5-13.7,8.2-20.6c0.4-1.1,0.9-1.5,2.2-1.1c6.9,2.1,13.8,4.1,20.6,6.1c2.9,0.9,4-0.1,3.4-3.2c-0.1-0.5-0.3-1-0.6-1.5
	c-4.4-9.1-8.8-18.3-13.3-27.4c-3.4-6.9-6.8-13.8-10.2-20.8C513.8,400.2,513.6,400.8,513.3,401.3z M511,359.9
	c-2-10.5-7.3-19-15.9-25.2c-9.1-6.5-19.2-8.9-30.3-6.9c-10.6,1.9-19.1,7.3-25.4,15.9c-5.3,7.2-7.8,15.4-7.6,24.4
	c0.4-0.2,0.6-0.6,0.6-1c1.7-9.4,6-17.3,13.3-23.5c9.4-8,20.3-10.9,32.3-9.1c9.4,1.4,17.3,5.9,23.6,13.1c4.6,5.3,7.7,11.4,9.1,18.3
	c0.1,0.7-0.4,1.9,0.8,2.2C511.8,365.4,511.6,362.6,511,359.9z"/>
<path style="fill:#C65C5C;" d="M450.7,361.6c3-1,6.2-1,9.3-1.6c1.2-0.2,2.5,0,3.7-0.6c1.2-0.4,1.9-1.3,2.4-2.4c1.3-3,2.8-6,4.3-8.9
	c0.3-0.7,0.6-1.4,1.4-1.7c0.9-0.5,1.5-0.4,2.1,0.6c1.8,3,3.2,6.2,4.5,9.3c0.9,2.2,2,3.2,4.3,3.4c3.1,0.3,6.3,0.9,9.4,1.2
	c1.1,0.1,2.3,0.2,2.5,1.3c0.2,1-0.7,1.8-1.4,2.4c-2.6,2-4.5,4.6-7.1,6.7c-1.7,1.4-1.7,2.9-1.4,4.7c0.6,3.2,1.3,6.3,1.8,9.5
	c0.1,0.9,0.4,1.9-0.5,2.5c-0.9,0.6-1.5,0-2.2-0.4c-3.4-1.8-6.8-3.6-10.2-5.4c-0.8-0.4-1.5-0.4-2.3,0c-3.3,1.7-6.6,3.4-9.9,5.1
	c-0.9,0.4-1.7,0.9-2.7,0.9c-1.2-0.8-0.8-1.9-0.6-2.9c0.6-3.1,1-6.3,1.7-9.4c0.4-1.8,0.1-3.2-1.4-4.4c-2.4-2.1-4.4-4.6-6.9-6.6
	c-0.6-0.5-1.1-1.2-1.4-1.9C450,362.5,449.7,361.8,450.7,361.6z"/>
<path style="fill:#9E3838;" d="M450.7,361.6c-0.8,1.6,0.5,2.3,1.3,3c2.4,2.1,4.5,4.6,6.9,6.6c1.6,1.3,1.8,2.8,1.4,4.6
	c-0.7,3.3-1.3,6.5-1.8,9.8c-0.1,0.8-0.2,1.7,0.3,2.5c-1.6,0.3-2.2-0.3-1.9-2c0.6-3.7,1.2-7.5,2-11.2c0.4-1.6-0.2-2.5-1.2-3.3
	c-3-2.3-5.4-5.2-8.1-7.8c-0.5-0.5-1.1-1.1-0.6-1.8C449.3,361.5,449.9,360.9,450.7,361.6z"/>
<path style="fill:#9E3838;" d="M471.8,346.4c-2.3,3.7-3.9,7.7-5.8,11.6c-0.5,1.1-1.2,1.6-2.4,1.4c1.9-3.8,3.7-7.6,5.7-11.3
	C469.8,347.2,470.2,345.8,471.8,346.4z"/>
</svg>
