<?xml version="1.0" encoding="utf-8"?>
<!-- Generator: Adobe Illustrator 24.0.0, SVG Export Plug-In . SVG Version: 6.00 Build 0)  -->
<svg version="1.0" id="Layer_1" xmlns="http://www.w3.org/2000/svg" xmlns:xlink="http://www.w3.org/1999/xlink" x="0px" y="0px"
	 viewBox="0 0 612 792" style="enable-background:new 0 0 612 792;" xml:space="preserve">
<path style="fill:#FDC325;" d="M424.7,389.7c-34.1-3.8-61.1-19.5-79.3-48.9c-9.4-15.2-14.2-31.8-14.3-49.7
	c-0.1-27.9-0.1-55.9,0-83.8c0-1.7-0.6-3.6,1.1-5.8c12.4,11.1,24.6,22.1,36.9,33.1c4.6,4.1,9.6,11.4,13.8,11
	c5.3-0.5,7.4-9.3,10.7-14.5c12.7-20.4,25.1-41,38-62.2c7.6,12.4,14.8,24.1,22,35.9c7.7,12.6,15.5,25.1,23,37.8
	c2.6,4.4,4.3,4.5,7.9,1.1c15.3-14.2,30.9-28,46.1-41.7c1.8,0.2,1.9,1,1.9,2c-0.5,31.3,1.1,62.7-0.8,94
	c-2.7,44.9-39.6,84.4-84.3,90.5c-2.9,0.4-5.8,0.9-8.7,1.4C434.1,392.6,429.4,392.2,424.7,389.7z"/>
<path style="fill:#EF3B90;" d="M159.3,389.6c-28.2-3.2-52.2-14.6-70.4-36.9c-13.5-16.7-21.9-35.6-22.4-57.2c-0.7-29.5-0.8-59-1-88.5
	c0-1.7-0.6-3.6,1.4-5.7c8.6,7.6,17.2,15.2,25.7,22.9c7.1,6.4,14.4,12.6,21.1,19.3c3.8,3.8,5.5,2.7,7.9-1.3
	c13.8-22.9,27.9-45.7,41.8-68.6c0.8-1.3,1.7-2.6,3.1-4.8c7,11.5,13.7,22.3,20.3,33.2c8.4,13.7,17,27.4,25.1,41.3
	c2.1,3.6,3.3,3.6,6.3,0.9c15.7-14.3,31.7-28.4,47.5-42.6c2.2,1.5,1.4,3.2,1.4,4.7c0,27.9,0.2,55.9,0,83.8
	c-0.4,47.8-33.4,87.7-80.3,97.6c-4.4,0.9-9,1.3-13.5,2C168.7,392.2,164,392.5,159.3,389.6z"/>
<path style="fill:#54D648;" d="M424.7,389.7c4.7,0,9.4,0,14.1,0c0,24,0,48,0,74.1c6-10.3,12.2-17.9,20-24.2
	c14.2-11.5,30.4-16.7,48.6-16.2c3.6,0.1,5.1,0.9,5.3,5c2,38.6-29.1,73.7-67.7,75.5c-5.3,0.3-6.3,1.8-6.2,6.7c0.2,25-0.1,50,0.3,74.9
	c0.1,6.3-2.8,6.1-7.3,6.2c-4.9,0.1-7.2-0.6-7.1-6.5c0.4-24.8,0.1-49.5,0.3-74.3c0.1-5.2-1.5-6.8-6.8-7
	c-37.4-1.8-68.8-36.3-67.5-73.8c0.2-4.7,1.2-6.7,6.6-6.7c27.7,0.1,48.8,11.8,63.9,34.9c0.8,1.3,1.6,2.6,3.7,3.7
	C424.7,437.9,424.7,413.8,424.7,389.7z M159.3,463.8c-2.6-4.1-4.1-6.6-5.8-8.9c-15.4-21.2-36.1-31.7-62.4-31.4c-3.9,0-5.4,1-5.6,5.3
	c-1.8,38.7,29.6,73.7,68.1,75.2c5,0.2,5.9,1.8,5.8,6.3c-0.2,25,0.2,50-0.3,75c-0.1,6.7,3.2,6.3,7.8,6.5c4.9,0.2,6.7-1,6.6-6.3
	c-0.3-23.2-0.2-46.4-0.1-69.5c0-10.4,0.1-10.4,10.5-12.2c1.8-0.3,3.6-0.7,5.3-1c33.9-6.6,59.6-38.6,58.4-72.3
	c-0.2-5.2-1.8-6.9-7.1-6.9c-20.4-0.1-37.6,7.1-52.3,20.9c-5.5,5.2-9.8,11.5-14.8,17.4c0-24,0-48,0-72c-4.7,0-9.4,0-14.1,0
	C159.3,413.8,159.3,437.9,159.3,463.8z"/>
</svg>
