<?xml version="1.0" encoding="utf-8"?>
<!-- Generator: Adobe Illustrator 24.0.0, SVG Export Plug-In . SVG Version: 6.00 Build 0)  -->
<svg version="1.0" id="Layer_1" xmlns="http://www.w3.org/2000/svg" xmlns:xlink="http://www.w3.org/1999/xlink" x="0px" y="0px"
	 viewBox="0 0 592.5 297.2" style="enable-background:new 0 0 592.5 297.2;" xml:space="preserve">
<path style="fill:#E21005;" d="M205.9,127c76.4-2.8,152.8-1.4,229.1,1.2c29.9,1,59.9,2.3,89.6,7.1c9.1,1.5,12.5,5.2,12.1,14.7
	c-0.4,9.4-2.1,19.1,1.4,28.4c1.8,24.5,0.7,49.1,0.5,73.6c0,2.7-0.8,5.4-3.1,7.3c-14,0.4-27.4-2.4-40.7-6.7
	c-26.9-4.6-54.2-4.9-81.3-6.1c-73.3-3.3-146.7-2.8-220-1.6c-29.6,0.5-59.3,2.7-88.9,4.2c-2.3,0.1-4.6,1-6.9,1.5
	c-13.2,4.5-26.8,6.8-40.7,6.8c-2.4-1.8-3.3-4.4-3.3-7.1c-0.2-24-1.5-48,0.6-71.9c4.3-9.4,2.1-19.4,1.7-29.1
	c-0.4-9.3,3.1-12.6,11.7-13.8c39.7-5.9,79.8-7.2,119.8-7.9c2.6,2.9,4.2,6.8,7.8,8.7c0.8,2.2,1.6,1.8,2.5,0.1c2.9-2.3,6-4.4,7-8.3
	C205.3,127.7,205.6,127.3,205.9,127z"/>
<path style="fill:#BE2525;" d="M533.7,259c3.5-3,2.1-7,2.1-10.6c0.1-19.8,0-39.7,0.1-59.5c0-3.6-1.2-7.6,2.2-10.6
	c17.3,3.7,34.6,7.4,54.4,11.7c-10.9,10.1-20.5,19-30.1,27.9c-13.1,12.2-13.1,12.2-3.4,27.2c10.6,16.5,21.3,33.1,33.5,52
	c-33.5-7.3-64.2-13-93.3-25c-2-0.8-4.5-2-4.1-5.2c5.7-4.5,12.3-2.3,18.6-2.7C520.8,263.9,528.1,264.6,533.7,259z"/>
<path style="fill:#BE2525;" d="M54.3,178.3c3.3,3,2.1,7,2.1,10.6c0.1,19.1,0,38.3,0.1,57.4c0,3.6-1.3,7.6,2,10.6
	c3.8,6.6,10.3,6.9,16.9,7.3c7.3,0.5,15.1-2.1,21.8,2.7c0.4,3.2-2.1,4.3-4.1,5.1c-29.1,12-59.8,17.6-93.2,25
	c10.4-16.2,19.2-29.8,27.8-43.5c4.9-7.7,13.5-15.8,13.1-23.4c-0.4-7.9-12-12.8-18.5-19.3c-6.7-6.6-13.7-13-22.2-21
	C19.6,185.8,37,182.1,54.3,178.3z"/>
<path style="fill:#FDDE59;" d="M369.7,78.5c0.5,6.4,1.1,12.9,1.6,19.3c-3,1.6-6,0.6-9,0c-44-7.8-88-8.7-132-0.5
	c-3.9,0.7-8,2.6-11.8-0.3c-0.9-6.4,1.2-12.4,1.9-18.6c0,0-0.2-0.8-0.2-0.8c2.9-3.8,6.9-5.4,11.3-6.3c11.4-2.3,22.9-4.4,34.4-4.3
	c26.2,0.1,52.5-2,78.6,2.2C353.5,70.5,363,70.7,369.7,78.5z M193.4,92.4c-1.7,11.4-2.6,22.9-3.9,34.3c0.4,4.6,4.8,7,6.3,11
	c0.7,1.7,1.5,2,2.2,0c2.1-3.9,3.7-8.2,8.2-10.1c0,0-0.2-0.6-0.2-0.6c-3.6-10.7-3-22-5.5-32.9c-0.9-3.8-2-8.3,1.1-11.7
	c4-4.4,0.5-7.4-1.6-10.7c-4.1-12-0.5-24.4-2.1-36.5c-1,0.1-2,0.3-3.1,0.4c2.1,11.2,1.1,22.5,0.7,33.8
	C188.6,76.4,194.5,84.7,193.4,92.4z"/>
<path style="fill:#A31616;" d="M97.3,267.1c-11.4-0.9-23,1.7-34.4-1.7c-4.7-1.4-7.7-3.1-4.4-8.4c12.6-4.7,25.7-6.6,39.1-6.4
	C97.6,256,97.5,261.5,97.3,267.1z"/>
<path style="fill:#A31716;" d="M533.7,259c2.7,5.2-1.4,5.4-4.6,6.4c-11.2,3.4-22.7,0.8-34,1.6c-0.1-4.8-0.1-9.7-0.2-14.5
	C508.3,252.2,521.2,254.2,533.7,259z"/>
<path style="fill:#FE9797;" d="M167.4,186.2c0.5-5.4,0.7-10.7-0.8-16c-0.2-0.4-0.4-0.7-0.6-1c1.7,1,3.4,0.8,5-0.6
	C173.4,175.3,172.8,181.3,167.4,186.2z"/>
<path style="fill:#FE9797;" d="M202.1,186.3c3.2-1.8,3.4-5.4,4-8.6c0.3,1.6,0.7,3.3,0.7,4.9C206.8,185.6,206.2,188.4,202.1,186.3z"
	/>
<path style="fill:#FE9797;" d="M421.3,209.5c-5.8-8.7-10.1-17.8-6.2-28.7c1.6-4.4,2.2-10.2,8.3-9.9c5.8,0.3,6.7,5.9,8.3,10.3
	c3,8.2-1.6,16-1.5,24C426.5,205,423.7,206.7,421.3,209.5z"/>
<path style="fill:#FE9797;" d="M332.5,177.8c0.2,3.1,0.6,6.2,1.5,9.2C330.2,184.4,331,181.1,332.5,177.8z"/>
<path style="fill:#FFFFFF;" d="M217.8,198.3c-1.9-9.7-3.7-19.3-5.9-29c-1-4.4-2.7-8-6.4-1.5c-3.6,5.3-5.5,11.2-7.2,17.3c0,0,0,0,0,0
	c-1.9,4.8-3.6,9.6-5.6,14.2c-1.4,3.2-1.4,8.8-6.1,8.3c-7.9-0.8-9.3-9-13.3-14.3c-2.7-3.7,0-4.9,2.4-7.1c7.6-7,7.4-13.1-0.1-20.4
	c0,0,0,0,0,0c-5.6-3.1-11.2-2.5-16.8,0.1c0,0,0,0,0,0c-1,0.2-2,0.2-3,0.6c-0.9,0.3-2,1.2-0.3,1.8c5.1,1.8,3.4,6,3.5,9.4
	c0.2,9.1-0.1,18.3,0.1,27.4c0.1,2.5-1.7,6.7,3.8,6.1c5.4-5.9-1-14,3.9-20c2.7,4.7,5.5,9.4,8.2,14.1c3.1,5.5,7.7,6.5,13.7,6.1
	c6.8-0.4,5.5-5.8,7.2-9.4c1.8-4,1.2-8.9,8.3-9.5c8.4-0.7,8.2,5,9.7,9.9c1.9,6.4,4.1,11.9,13.2,5.9
	C220.3,207.4,218.7,203.1,217.8,198.3z M265.4,186.5c-0.7,15.7-10.3,25.7-23.7,24.9c-5.5-0.3-8.7-1.5-7.8-8.4
	c1-8.1,0.6-16.3,0.6-24.5c0-4.6,1.5-9.7-5.3-12.2c5.9-2.6,10.7-2.3,15.4-2.3C259.3,164,266,171.4,265.4,186.5z M439.1,177.4
	c-2.1-11.3-13.3-16.4-22.5-11c-14,8.2-13.8,36.9,0.3,45.2c0.4,0.2,0.7,0.4,1.1,0.5c6.3,2.9,11.2,0.6,15.4-4.8
	C440.9,198.5,441.1,188,439.1,177.4z M146.4,198.2c0,4.9,3.2,11.3-4.1,14.2c-4.3,1.7-8.7,1.7-13,0.6c-10.6-2.7-15.7-13.8-13.4-28.5
	c1.9-11.9,10.9-20.4,21.1-19.6c7.3,0.5,11.6,3.8,8.8,13.2c-2.4-7.2-6.7-11-13.7-9.5c-6.5,1.4-8.9,6.7-10.5,12.5
	c-2.1,7.6-1.1,14.8,2.2,21.9c2.2,4.8,6.1,7.2,11.2,7.7c2.9,0.2,5.6-0.6,6.4-3.8c1.2-4.8,0.6-9.2-5.9-12.7
	C141.3,193.9,146.3,191.7,146.4,198.2z M480.1,175.8c-0.8,12.4-1.6,24.7-2.3,37.1c-9.2-10.4-14.6-22.2-19.8-34.1h0
	c-4.7,6.7-3.2,14.6-4,22c-0.4,4.5,0.1,9.3-6.3,14.4c2.7-16.5,5.4-30.5,4.5-44.8c-1-1-5.5-1.2-2.1-3.2c4.5-2.7,8-0.1,10.2,4.9
	c4.3,9.5,9.1,18.8,16.1,27.8c0-8.1,0-16.2,0-24.3C477.6,175.7,478.9,175.7,480.1,175.8z M381.8,165.8c-0.1,0.6-0.3,1.7-0.4,1.7
	c-13-1.3-12.6,7.5-13.1,16.6c-0.5,8.8,1.2,18-2.9,29.1c-3.7-10.1-1.1-18.1-1.6-25.8c-0.2-3.4,0.4-6.9,0-10.2c-0.4-3.2,2.7-8-3.3-9.1
	c-5.6-1.1-6.6,3.4-8.6,9.1C351.8,163.1,357.7,161.4,381.8,165.8z M309.3,210.1c-3.3,2.6-6.1,1.3-8-2.7c-0.7-1.5,1.4-8.2-4.5-3.5
	c0,0,0,0,0,0c-2.6,5.6-6.9,8.7-13,7.1c-6-1.5-6.9-7.2-7.4-12.2c-0.4-5,0.3-10.1,0.6-15.2c0.2-4.7,0.3-9.5,0.6-14.2
	c0.1-2.1-4-2.1-2.3-4.3c0.7-0.9,3.2-1,4.8-0.8c3.1,0.4,3.7,3,3.2,5.4c-1.5,8.4-1.6,16.9-1.6,25.4c0,4.1-0.3,8.4,4,10.8
	c4.3,2.4,6.7-1.6,9.9-3.2c5.5-10.2,5.3-21.6,6.3-32.7c0.2-2.1-0.7-5.6,2.7-5.3c3.2,0.3,2,3.7,2,5.8c-0.1,9.2-0.4,18.3-0.5,27.5
	c0,2.7,1,5.4,0.9,8C306.9,208.2,314.6,205.9,309.3,210.1z M343.7,197.9c-1.9-9-3.2-18.1-4.7-27.2c-0.9-5.1-0.9-5.1-6.1-4.6
	c-7.6,14.2-13.4,29.1-18.8,45c5.7-0.6,6.5-3.8,6.9-6.8c1.4-9.7,6.9-13.2,16.3-11.4v0l0,0c1,4,1.9,7.9,3.1,11.9c2,6.7,5.7,8.5,13,3
	C345.2,207.9,344.6,202.4,343.7,197.9z M396.1,168.8c0.1,6.1-0.3,12.3-0.9,18.4c-0.8,7.9,0.8,16.1-4.5,23.8c0-10.4,0-20.8,0-31.1
	c0-3.4-0.1-6.8-0.4-10.2c-0.2-1.5-5.9-2.2-0.8-4.5C392.7,163.7,396,164.8,396.1,168.8z"/>
<path style="fill:#295E9E;" d="M222.5,59.6C222.5,59.6,222.5,59.6,222.5,59.6C222.5,59.6,222.5,59.6,222.5,59.6
	c0.5-13.1,11.8-10.9,19-12c29.6-4.5,59.5-2.2,89.3-2.2c8.6,0,17.3,2.4,25.9,4.1c4.2,0.9,8.9,2.1,9,8c2.8,6.2-2.9,16.3,8.5,18.5
	c-1.5,0.8-3,1.6-4.5,2.4c-11.8-5.1-24.3-6.9-36.9-7.6c-37.8-2.1-75.6-4-112.7,6.7C220.9,71.6,221.7,65.6,222.5,59.6z M371.3,97.8
	c2.5,8.6-3.9,9.7-9.6,10.9c-26.2,5.5-52.7,5.7-79.2,5.1c-17.6-0.4-35.4-0.5-52.8-4.6c-1.9-0.4-3.6-1.4-5.5-2.1
	c-7.8,0-7.9-4.4-5.8-10.1c46.9-10.8,93.9-10.6,141.1-2.6C363.5,95,367.4,96.6,371.3,97.8z"/>
<path style="fill:#373A3C;" d="M236.7,105.1c-4.2-0.5-8.6-1.8-12.2,1.7c1.4-2,3.4-2.7,5.8-3.1c33.2-5.5,66.6-5,100-3.1
	c4.4,0.2,8.8,0.9,13.2,1.1c4.3,0.2,8.5,1.1,12.7,2.5C316.3,109.4,276.5,109.3,236.7,105.1z"/>
<path style="fill:#004370;" d="M220.3,78.4c-6.8-2.2-13.6-4.4-20.4-6.6c-8.6-11.7-5.7-24.1-2.1-36.5c30.9-11.5,61.8-22.9,92.7-34.4
	c3.4-1.3,6.6-1.1,9.9,0.2c42.4,15.8,84.8,31.4,127.1,47.3c2.2,0.8,6,0.7,5.7,4.7c-0.2,3.2-3.4,3.1-5.4,3.9
	c-17.9,6.5-35.8,12.9-53.7,19.3c-4.9,2.3-7.7,0.2-9-4.6c-1.2-4.2-2.2-8.5-2.5-12.9c-1.3-5.5-6.3-5.8-10.4-6.9
	c-7.3-1.9-14.8-3.2-22.2-3.3c-29.2-0.1-58.6-2.3-87.7,2.1c-6.3,1-14.1,0-16.9,8.5c-0.5,6.2-0.9,12.5-4,18.1
	C221.2,77.6,220.7,78,220.3,78.4z M194.8,35.6c-10.8,4-21.6,7.9-32.2,12.3c-2.6,1-6.9,0.6-7.1,4.5c-0.2,4.2,4.2,3.9,6.7,4.8
	c11.1,4.3,22.3,8.1,33.4,12.2C197.3,58.1,198.3,46.8,194.8,35.6z M224.2,107.1c1.7-0.1,3.4-0.5,5.1-0.2c33.1,6.1,66.4,4.1,99.7,3.8
	c12.6-0.1,25.2-1.8,39.8-7c-6-1.5-9.2-2.4-12.5-3c-31.7-5.8-63.7-4.3-95.6-3.8c-11.1,0.2-22.1,2.7-33.2,4.6
	C225.3,101.8,219.6,101.9,224.2,107.1C224.3,107.1,224.2,107.1,224.2,107.1z"/>
<path style="fill:#E21005;" d="M165.4,168.7c2-0.1,4-0.3,5.9-0.4c7.3,8.4,6.1,14.4-4,18.9C162.9,181.5,165.6,175,165.4,168.7z
	 M208,189.7c3.2-0.8,2.2-3.7,1.8-6c-0.5-3.7-1.2-7.3-1.8-11c-5.9,3-3.9,10.3-7.9,14.3C201.1,192.7,205.1,190.4,208,189.7z
	 M238.8,187.2c0,4.1,0,8.2,0,12.3c0,8.5,3.5,11.1,11.1,7.7c8.5-3.7,9.6-11.6,9.8-19.7c0.1-8.1-0.6-15.9-9.3-19.8
	c-7.7-3.5-11.1-1.2-11.3,7.3c-0.1,4.1,0,8.2,0,12.3C239,187.2,238.9,187.2,238.8,187.2z M432.5,174.5c-3.3-7.9-10.8-9.5-16.1-3.7
	c-8.7,9.5-6.1,31.6,4.6,39c4.1,0.1,7.2-2,10.2-4.6C435.5,195.1,436.8,184.8,432.5,174.5z M334.8,173c-6.1,3.1-7.1,9.3-7,14.7
	c0.1,2.4,5.8,1.1,9,0.8C336.1,183.4,335.5,178.2,334.8,173z"/>
</svg>
