<?xml version="1.0" encoding="utf-8"?>
<!-- Generator: Adobe Illustrator 24.0.0, SVG Export Plug-In . SVG Version: 6.00 Build 0)  -->
<svg version="1.0" id="Layer_1" xmlns="http://www.w3.org/2000/svg" xmlns:xlink="http://www.w3.org/1999/xlink" x="0px" y="0px"
	 viewBox="0 0 588 588" style="enable-background:new 0 0 588 588;" xml:space="preserve">
<path style="fill:#3B4652;" d="M101.2,308.5c-0.1-26.1-0.2-52.2-0.3-78.2c0-12.6,0-25.1,0-37.7c-1.6-3,0.4-5.1,2.1-7.1
	c3.8-4.4,8.8-7.2,14.2-9.4c20.3-8.2,41.8-11.8,63.4-14.7c24.7-3.4,49.6-5.1,74.6-6.2c19.8-0.9,39.7-1.3,59.4-0.7
	c45.9,1.4,91.8,4,136.6,15.4c6.9,1.7,13.5,4.1,20,6.9c4.8,2,9.2,4.8,12.6,8.7c1.7,2,3.7,4,2.1,7.1c0,39-0.1,78-0.1,117
	c-1,0.2-1.9-0.2-2.6-0.9c-8.6-9.7-20.5-12.9-32.3-16.1c-25.7-6.8-52-10.1-78.5-12.4c-33.9-3-67.8-4.2-101.8-3.2
	c-43.9,1.3-87.7,4-130.6,14.5c-12.8,3.1-25.6,6.4-35.6,16C103.6,308.2,102.4,308.6,101.2,308.5z"/>
<path style="fill:#2D3338;" d="M485.9,192.5c-2.1-8.2-9-11.5-15.8-14.5c-11.9-5.2-24.5-8.2-37.2-10.6c-25.8-4.9-51.7-7.6-77.9-9.4
	c-29.1-1.9-58.3-2.9-87.4-1.9c-44.8,1.6-89.5,4.2-133.2,15.8c-8.8,2.3-17.6,5-25.3,10.2c-3.8,2.6-7.5,5.4-8.3,10.4
	c-23.9-8.9-47.8-17.9-71.7-26.8c0.2-2.3,2.1-2.3,3.3-2.9c85-38.2,170-76.3,255-114.4c3.5-1.6,6.6-2.4,10.7-0.5
	c85.1,38.4,170.3,76.5,255.5,114.7c1.3,0.6,2.6,1.3,4.2,2.1c-2.4,2.4-5.5,2.3-7.8,3.8c-5.5,4.3-11.6,6.7-18.6,7
	C516.3,181.3,501.1,186.9,485.9,192.5z M471.9,332.9c-6.6-3-13.5-5.3-20.5-7.1c-43.9-11.3-88.9-14-133.9-15.4
	c-20.9-0.7-41.9-0.3-62.9,0.7c-27.5,1.3-54.8,3.3-82,7.3c-19.1,2.9-38.1,6.3-56,13.9c-6.4,2.7-12.5,5.9-15.4,12.8
	c-1.2,6.1,1.6,10.2,6.5,13.3c9.3,5.9,19.6,9.2,30.1,11.8c39.4,10.1,79.8,13.3,120.2,14.6c33.9,1.1,67.8,0.9,101.8-1.7
	c27.1-2.1,54-4.9,80.6-10.6c13.3-2.9,26.6-6.4,38.4-13.7c5.1-3.2,8.3-7.2,7-13.6C483.2,338.6,477.7,335.5,471.9,332.9z"/>
<path style="fill:#E27329;" d="M540.9,266c6.4,12.8,12.2,24.3,17.9,35.9c0.5,1.1,0.4,2.6,0.4,3.9c0,77.3,0,154.6,0,232
	c0,0.7-0.1,1.5-0.3,2.9c-11.7-5.9-23.1-11.5-34.5-17.2c-2.8-1.4-1.8-3.9-1.8-6.1c0-41.8,0-83.6,0-125.4c0-28.3,0-56.5,0-84.8
	c0-3.1,0.6-5.9,2.1-8.7C529.9,288.2,535,277.7,540.9,266z"/>
<path style="fill:#2B79C2;" d="M485.8,345c-12.8-13.7-30.3-16.7-47.3-20.5c-22.4-5-45.2-7.8-68.1-9.5c-12.3-0.9-24.7-1.5-37-2.3
	c-18.3-1.3-36.6-1-54.9-0.8c-24.9,0.3-49.7,1.8-74.5,4.2c-23.6,2.4-47,5.7-70,11.8c-12.2,3.2-24.1,7.2-32.9,17.1
	c0-12.2,0.1-24.3,0.1-36.5c8.3-10.3,20.4-13.9,32.2-17.1c22.8-6.2,46.1-9.4,69.5-11.9c38.7-4,77.5-5.4,116.4-4.1
	c44.8,1.4,89.6,4.3,133.3,15.8c6.5,1.7,12.7,4,18.8,6.7c5.9,2.6,10.9,6.2,14.4,11.7C485.8,321.3,485.8,333.2,485.8,345z
	 M531.7,231.5c-1.3,1.1-2.7,2.1-3.9,3.3c-6.3,6.4-7,16.3-1.8,23.5c5.3,7.3,14.7,9.7,22.8,5.8c12-5.7,15.2-23.4,1.2-32.6
	C544.8,226.3,537,226.3,531.7,231.5z M550.2,168.6c-6.2,2.3-12.4,4.7-18.6,7c0.1,18.6,0.1,37.3,0.2,55.9c6.1-3,12.3-3,18.4,0
	C550.1,210.6,550.2,189.6,550.2,168.6z M177.1,201.8c-12-0.1-12,0-12,6.4c0,11.9,0,11.9,6,11.9c12.3,0,12.3,0,12.3-9
	C183.3,200.6,184.6,201.9,177.1,201.8z M146.8,231.6c0-11.5,0-11.5-7-11.5c-11.3,0-11.3,0-11.3,7.7c0,10.6,0,10.6,9,10.6
	C146.8,238.4,146.8,238.4,146.8,231.6z"/>
</svg>
