<?xml version="1.0" encoding="utf-8"?>
<!-- Generator: Adobe Illustrator 24.0.0, SVG Export Plug-In . SVG Version: 6.00 Build 0)  -->
<svg version="1.1" id="Layer_1" xmlns="http://www.w3.org/2000/svg" xmlns:xlink="http://www.w3.org/1999/xlink" x="0px" y="0px"
	 viewBox="0 0 612 792" style="enable-background:new 0 0 612 792;" xml:space="preserve">
<path style="fill:#F59B03;" d="M467.3,578.8c-108,0-216,0-323.9,0c-5.4,0-10.7-0.3-16.1,0c-3.8,0.2-5.6-0.6-5.4-5
	c0.3-11.2,0.3-22.4,0-33.5c-0.1-4,1.4-4.8,5-4.7c10.7,0.2,21.5,0.1,32.2,0.1c2.4,0,4.9,0.5,7.2-0.9c2.3-0.9,4.7-1.3,7.2-1.3
	c30,0.1,60.1-0.2,90.1,0.1c56.4-0.3,112.8-0.1,169.3-0.1c4.2,0,8.6-0.4,12.4,2c12.8,0.1,25.5,0.2,38.3,0.1c3.5,0,5.3,0.4,5.2,4.6
	c-0.3,11.4-0.2,22.9,0,34.3c0.1,3.7-1.4,4.5-4.7,4.4C478.5,578.6,472.9,578.8,467.3,578.8z"/>
<path style="fill:#F7AF35;" d="M467.3,578.8c-2.5-2.6-5.7-2.2-8.8-2.3c-9.4-0.1-18.8,0-28.3,0c-91.5,0-183.1,0-274.6,0
	c-4.1,0-8.6-1-12.2,2.3c0.1,3.4,0.1,6.7,0.2,10.1c0.1,28.5,0.2,57.1,0.2,85.6c-0.1,9.7,0,19.3-0.3,29c-0.1,4,1.4,4.9,5.1,4.8
	c8.1-0.2,16.2-0.1,24.3-0.1c13.9,0,14.2,0,13.8-13.9c-0.2-5.9,1.2-7.8,7.5-7.8c71.2,0.3,142.5,0.2,213.7,0.2c16,0,16,0,16.2,15.7
	c0,0.4,0.1,0.9,0,1.3c-0.5,3.5,0.9,4.7,4.5,4.6c11.5-0.2,22.9-0.2,34.4,0c3.8,0.1,4.4-1.5,4.4-4.7c-0.2-37.5-0.2-75-0.3-112.6
	C467,586.9,467.2,582.9,467.3,578.8z"/>
<path style="fill:#009145;" d="M202.8,233.3c-29.3-3.2-49.4-28.2-48.5-55.7c0.9-27.6,23.7-50.7,51.2-51.8c6-0.2,12.1-0.3,18.2,0
	c4.2,0.2,5.9-0.5,6.6-5.4c2.8-20.8,18.6-35.8,38.7-37.7c19.8-1.8,39.7,10.1,44.3,29.5c2.7,11.3,6.8,14.3,17.9,14.1
	c11.7-0.2,21.7,6.1,29.2,15.6c-17.4,15.4-36.3,28.6-55.8,41.1c-29,18.6-59.7,34-91.6,46.8C209.6,231,206.1,231.8,202.8,233.3z
	 M357.4,309.7c-0.2,24.2,18.7,42.8,45.1,44.4c19.9,0.2,39.8,0.6,59.7-0.3c1.3-0.3,2.6-0.7,3.8-1.3c33.7-17.4,55.4-44.5,64.6-81.4
	c-5.6-3.5-11.9-4.9-18.4-5.2c-12.1-0.6-12.1-0.5-12.7-12.5c-0.7-14.7-11.3-26.8-26.3-30.2c-13.1-3-27.8,4.2-34.5,16.7
	c-3.4,6.4-4.5,13.2-3.8,20.2c0.5,4.9-1.3,6-5.9,5.8c-9.2-0.4-18.4-0.4-27.6,0c-15.7,0.6-27.7,7.9-36.1,21.2c-2.9,4.6-4,9.9-5.9,14.9
	C357.2,304.2,357.5,307,357.4,309.7z M121,375.7c2.3,0,4.6,0,6.8-0.6c35.1-15.7,56.8-42.8,67.3-79.4c0.7-2.3,1.6-4.8-0.3-7
	c-4.3-1.9-8.9-1.3-13.3-1.1c-4,0.1-5.4-0.8-6.2-5.2c-2.8-15.7-15.6-26.7-30.6-27.2c-15.4-0.5-29.1,9.3-32.2,24.9
	c-1.4,7.2-4.6,7.7-10.5,7.6c-20.3-0.2-36.4,11.4-42.7,29.6c-1.5,4.4,0.7,11-4.1,13c-4.2,1.8-9.7,0.5-14.7,0.4
	c-5.7-0.1-11.2,0.1-16.2,3.3c-7.9,5-11.8,14.5-9.6,23.3c2.5,9.9,10.5,16.4,21,16.6c21.5,0.2,43.1,0.2,64.6,0.2
	C107,377.4,114.1,375.3,121,375.7z M220.4,341.1c-14.7,5.3-23.1,15.8-24.8,31.4c-0.6,4.2,2.2,9.6-5.6,10.5
	c-14,1.6-22.5,9.9-26.2,23.4c-0.8,7.9-0.9,15.6,6.4,21.1c6.8,8,15.5,11.3,26,11c11.3-0.3,22.7,0,34.1,0.1c2.2,2,4.8,1.6,7.3,0.9
	c18.5-11.3,29.8-27.7,35.2-48.5c0.6-2.2,0.7-4.4-1-6.3c-9.4-0.5-9.4-0.5-9.5-9.7c-0.1-19.5-13.3-32.8-33.5-33.8
	C226,339,223.1,340.2,220.4,341.1z"/>
<path style="fill:#753A02;" d="M411.9,501.3c-6.2-6.9-12.8-10.2-22.1-9c-11.9,1.6-23.1,0.4-30.7-10.6c0,0,0,0,0,0c0,0,0,0,0,0
	c-5.9-8.6-13.7-12.1-24.5-11.1c-11.5,1.1-23.3,0.4-34.9,0.2c-3.6-0.1-6.2,1-8.8,3.6c-5.9,5.7-10.8,12.5-17.9,16.8
	c-13.2-1.6-26.4-0.8-39.6-0.4c-1.4,0-2.5,0.9-3.6,1.7c-5.8,0-11.7,0.1-17.5,0c-2.6-0.1-4.7,0.6-6.6,2.6
	c-13.1,13.3-26.2,26.5-39.3,39.7c1.3,0.3,2.6,0.8,3.9,0.8c31.2,0,62.4-0.1,93.5-0.1c60.5,0,121.1,0,181.6,0
	C434.1,524.1,422.6,513.1,411.9,501.3z"/>
<path style="fill:#005F2D;" d="M202.8,233.3c3.1-4.1,8.1-4.6,12.3-6.3c41.4-17,80.5-38,116.4-64.8c7.9-5.9,15.9-11.6,23.4-17.9
	c1.5-1.2,3.6-1.7,5.4-2.5c5.5,6,8.9,13.2,9.3,21.1c0.2,6.1,2.8,6.3,7.3,6c11.4-0.9,21.3,2.5,28.7,11.5c8.7,10.5,10.3,22.3,4.6,34.5
	c-5.7,12.1-15.7,18.6-29.4,18.7c-25.1,0.1-50.3,0.1-75.4,0.2c-1.6,1.3-3.6,1.8-5.6,1.9c-10.7,0.2-21.4,0.2-32.1,0
	c-2,0-4-0.5-5.6-1.9C242.4,233.5,222.6,233.4,202.8,233.3z M478.1,354.1c7.2-0.4,14.6,1.8,21.5-1.8c25.1,0,50.2-0.1,75.3-0.2
	c12.4-0.1,21.7-9.3,21.7-21.4c0-12.2-9.2-21.5-21.5-21.7c-5.6-0.1-11.2-0.2-16.8,0.1c-3.6,0.2-4.6-0.8-5.1-4.6
	c-1.8-14.8-8.9-26.4-22.7-33.3c-2.5,1-2.4,3.4-3,5.5c-5.9,19.3-15.7,36.3-29.7,50.9c-9.7,10.1-21.6,17.1-33.4,24.3
	C468.5,355.6,473.4,353.9,478.1,354.1z M229.8,326.7c-0.7-18.3-17.4-36.5-35-38.1c-0.5,2.4-0.8,4.8-1.4,7.2
	c-6.4,22.6-17.9,41.9-35.5,57.8c-8.9,8-19,13.9-29.2,19.9c1.9,2.4,4.7,2.3,7.4,2.3c17.6,0.1,35.3,0.1,52.9,0c3.1,0,6.3-0.1,8.3-3.2
	c1.5-17.1,14.2-29.9,31.3-31.3C230.3,336.5,230,331.6,229.8,326.7z M243.9,440.5c8.5,0.2,17,0.2,25.5,0c2.3,0,4.5-0.5,6.3-1.9
	c10.4,0.7,18.4-3.9,25.2-11.2c8.7-20.7,3.2-35.5-15.5-42.2c-4.6-1.2-9.2-0.7-13.9-0.5c0.1,7.6-3.1,14.3-5.9,21
	c-5.7,13.8-16.6,23.3-27.9,32.5C239.4,440.3,241.7,440.5,243.9,440.5z"/>
<path style="fill:#432102;" d="M495.1,389.7c-6.1,10.1-15.1,16.1-26.9,16.3c-27.3,0.3-54.7,0-82,0c-14.7,15.6-32.9,22.6-54.3,21.8
	c-10.3-0.4-20.6-0.2-31-0.3c-1.3-2.3,0.2-4.3,0.9-6.4c4.6-13.7,0.1-25.2-12.5-32.4c-1.5-0.9-3.5-1.2-3.8-3.4
	c17.3-1.6,34.6-0.2,51.8-0.7c15.6-0.4,25.7-14.7,20.5-29c-3.1-8.6-10.9-14-20.9-14.1c-9.7-0.1-19.3,0-28.7-2.8
	c-26-7.7-45.2-32.2-45.9-59.3c-0.3-11.7,0-23.4,0.1-35c-0.1-3.5-0.2-7.1-0.3-10.6c14.4,0,28.8,0,43.2,0c-0.1,3.5-0.2,7.1-0.3,10.6
	c0,0,0,0,0,0c0,0,0,0,0,0c0.1,10.3,0.1,20.5,0.2,30.8c0.2,14.1,8.9,23.1,23,23.1c10.5,0,21,0,31,3.9c-2.1,27.2,13.7,42.2,28.4,47.4
	c4.4,1.6,9.1,2.3,13.7,2.8c2.6,1.7,2.7,4.4,2.8,7c0.4,8.2-0.5,16.1-3.3,23.8c2.6-0.8,5.4-0.7,8.2-0.7c17.3,0,34.5,0,51.8,0
	c12.2,0,14-1.7,15-13.6c0.2-2.2,0.3-4.5,1.8-6.3c0,0,0,0,0.1,0c-2.6-3.3-2.3-6.7,0.1-10.2c7.2,0,14.5,0,21.7,0
	c-0.1,3.5-0.2,7.1-0.3,10.6C499.9,372.2,500.2,381.3,495.1,389.7z M165.2,406.2c-2.3-2.4-5.3-2-8.2-2c-6.7-0.1-13.4,0.1-20.1-0.1
	c-8.6-0.3-12.1-3.6-12.9-12.1c-0.3-2.7,0.1-5.6-2-7.8c2.7-3.3,2.3-6.8-0.1-10.2c-7.2,0-14.4,0-21.6,0c0.1,3.5,0.2,7.1,0.2,10.6
	c-0.1,2.7-0.2,5.4-0.2,8c0.1,20.4,14.6,35,34.9,35.1c11.6,0,23.2-0.1,34.8-0.1C166.1,421,164.5,413.9,165.2,406.2z M237.8,438.3
	c-2.5,0.1-5.1,0.2-7.6,0.4c-0.1,3.5-0.1,7.1-0.2,10.6c-0.1,14.4-0.2,28.7-0.3,43.1c11.4,0,22.8,0.1,34.3,0c3,0,6.3,1.2,9-1.2
	c-0.1-14-0.1-27.9-0.2-41.9c1-3.5,2-7.1,3-10.6C263.1,438.5,250.5,438.4,237.8,438.3z"/>
</svg>
