<?xml version="1.0" encoding="utf-8"?>
<!-- Generator: Adobe Illustrator 24.0.0, SVG Export Plug-In . SVG Version: 6.00 Build 0)  -->
<svg version="1.1" id="Layer_1" xmlns="http://www.w3.org/2000/svg" xmlns:xlink="http://www.w3.org/1999/xlink" x="0px" y="0px"
	 viewBox="0 0 537.2 382.4" style="enable-background:new 0 0 537.2 382.4;" xml:space="preserve">
<path style="fill:#6E3928;" d="M191.9,89.5c-8.7,10.3-17.5,20.6-26.2,31c-1.6,6.1-7.7,7.9-11.4,12.1c-4.8,3.7-9.9,7.1-16.1,9.6
	c5.9,6.4,13.3,4.6,19.6,6.4c2.8,1.3,4.6,3.3,3.8,6.6c-0.5,1.8-2.5,2.2-3.9,1.8c-10.5-2.7-18.4,2.7-26.1,8.5
	c-11.2-5.3-22.4-10.5-33.4-16.1c-5.5-2.8-11.1-3.9-18.3-2.4c21.9,36.6,40.2,74.9,70.1,105.7c-3.6,6.6-0.3,14.7-4.8,21.2
	c-23.6-16.9-42.3-38.6-59.6-61.6c-16.6-22-31.1-45.5-44.9-69.3c-8.4-14.5-17.5-17.8-33.5-13.8c-2.1,0.5-4.1,1.2-7.2,2.1
	c5.8-13.2,11.4-25.4,16.5-37.7c1.8-4.3,4.5-2.7,7-2.1c16.4,3.6,29.9,12,38.9,26.3c1.8,2.9,2.8,3.9,5.9,3.8
	c9.3-0.4,18.4,0.6,27.2,4.3c23.6,10.1,42.2-0.5,59.2-15.4c4.1-3.6,9-6.6,11.4-12c3.8-5.2,9.6-8.6,12.4-14.9
	c3.5-7.7,7.1-7.4,11.6,0.1C191.2,85.2,192.9,87,191.9,89.5z M372.6,238.2c-11.9-12.9-26.4-22.6-40.4-33c-8.5,0.9-13.9-4.1-18.8-9.9
	c-3.7-5.2-9.3-7.3-15-9.2c-22.8-7.3-44.9-16.3-65.8-28.3c-2.2-1.3-4.4-2.4-7.1-2.1c-5.2,4.8-10.4,9.6-18.9,12.5
	c9,2,15.8,4.8,21.1,10.4c17.6,6.7,35,13.8,52.8,19.9c37,12.8,70.2,31.7,97.5,60.1c5.4-3.4,8-9.3,12.7-13.4c-4.4-1.7-8.8-3.3-13.2-5
	c-0.6-0.2-1-0.8-1.4-1.2C374.8,238.8,373.2,238.9,372.6,238.2z M233.5,142c19.7-8.8,39.8-9.8,60.5-3.8c4.9,1.4,9.9,3.8,15.4,2.4
	c-1.9-3.1-3.8-6.3-5.8-9.4c-28.6-15.4-56.5-11.9-83.9,3.4c3.2,2.2,3.6,6.9,7.5,8.5C229.6,144.1,231.5,142.9,233.5,142z M255.3,294.3
	c6.8-0.9,14,2,20.3-2.8c1.2-2.9,2.4-5.7,3.6-8.6c-14.5-1.3-29,1-43.4,1.5c2.4,5.1,2.1,10.2,0,15.4c8.7,5.9,19.1,8.3,28.5,12.9
	c2.8-2.5,7.6-0.8,9.7-4.8C269.2,301.1,260.1,300.4,255.3,294.3z M409.7,276.9c-3.3,1.4-6.5,2.8-9.8,4.1c13.2,16.2,26.8,32,47.7,38.7
	c-1.3-3.4-2.5-6.9-3.8-10.3C430.1,301.1,421,287.8,409.7,276.9z M226,47.8c-2.3,4.4-6.9,4.6-10.8,6.3c-6.4,2.7-7.9,5.7-0.3,9.1
	c11.2-8.6,24.3-9.5,37.7-9.3c-2.4-2.6-4.7-5.3-7.1-7.9C239,46.6,232.5,47.2,226,47.8z M390.2,327.7c-12.7-8.4-25.2-17.3-39-23.8
	c0.1,2.3-2.3,4.4-0.5,6.8C363.9,316.1,375.9,324.4,390.2,327.7z M311.4,288.2c2.3,2.8-0.5,6.8,2.5,9.8c3.5-1.4,5.2-4.6,7-7.6
	C317.9,289.2,314.8,287.8,311.4,288.2z M203.2,21.5c-3-1.2-1-6.8-5.7-6.5c0.2,3.2,0.4,6.5,0.5,9.7C199.8,23.7,201.5,22.6,203.2,21.5
	z"/>
<path style="fill:#FC9FC3;" d="M145.3,273.7c1-7.2-2.6-15.4,4.8-21.2c9.4-10.5,21.9-9,32.7,9.9c2-6.9,1.8-13.9,7.2-18.7
	c5.9-5.2,12.3-5.5,19.1-2.6c10.9,4.6,11.6,14.1,2.4,33.5c9.1,1.1,20.4-3.1,24.4,9.8c5.3,5.1,5.8,10.2,0,15.4
	c-7.6,11.4-9.9,11.7-31.2,4.4c7.2,11.9,8,20.6,2.3,27.2c-5.9,6.7-13.5,7.9-21.4,5.1c-7.2-2.5-10-11.4-9.2-26.4
	c-8.1,6.2-15.3,14.9-26.8,8.6c-7.1-3.9-9.9-10.4-9.2-17.8c1-10.9,10-14,19-16.8C154.7,280,148.9,278.4,145.3,273.7z M304.5,139.2
	c-1.9,1.1-4.2,0.9-6.4,1.4c-8.9,2.4-15.1,9.6-15.6,18c-0.5,9.5,4.7,16.4,14.1,20c5.1,2,9.8,0,15-0.7c-0.3,6.5-2.1,12.4,0.4,18.1
	c6.9,9.7,11.3,11.7,20.1,9.1c13-2.9,14.7-5.9,15.3-28.1c7.2,7.1,14,14.3,25.1,8.7c6.8-3.5,10.4-9.4,10.2-16.5
	c-0.4-12.4-9.9-16.3-21.1-18.3c16.6-12.7,19.2-21.6,10.2-31.8c-9-10.1-17.6-8-32.5,7.8c-4.6-16-12.3-22.6-23-19.9
	c-10.4,2.7-15.3,12-12.7,24.1C302.2,134.1,305.9,136.4,304.5,139.2z M157.3,149.9c1,1.5,3.1,3.2,2.8,4.4c-0.7,2.7-3.4,0.8-4.7,0.5
	c-10.9-2.8-18.5,1.3-23.8,10.6c-0.3,6.8-0.8,13.5,5.2,18.9c7.6,6.8,16,3.8,25.1,2.4c-4.5,9.9-9.4,19.5,0.3,28.4
	c5.7,5.2,12.3,5.5,19.1,2.9c11-4.3,10.2-14.6,10.6-24.4c5.5,4.7,9.6,10.3,16.4,11.4c13.7,2.1,22.1-9.5,19.3-26.3
	c-2.1-7.3-8.3-9-14.6-10.7c8.3-5,9.4-6,14.4-13c1-4,1.6-8.1,1.1-12.2c-2.2-3.5-4.3-7.1-8.8-8.2c-13.1-7.3-14.7-6.8-30.5,8.9
	c-5.4-20.3-6.9-21.7-23.6-23.1c-4,3.7-9.5,5.6-12,11C148.9,140.5,149.7,145.1,157.3,149.9z M274.3,292.2c1.2,6.3,4.1,11.8,8,17.2
	c-2.6-2.5-5.3-3.8-8.6-3.2c-3.4,1.9-7.6,2.5-9.5,6.5c-7.8,6.6-9.7,14.6-5.6,23.3c3.9,8.2,12,10,28.9,6.3c-8,19.6-6.7,27.7,5.3,31.7
	c4.3,1.4,9,2,13.6-0.1c10.9-5,10.5-15.4,11.1-26.2c7.5,10.5,15.6,14.4,23.4,12c7.7-2.4,11.9-8.2,12.3-15.9
	c0.6-13.1-8.7-17.8-22.3-20.6c9.9-2.4,14.4-8.2,19.9-12.6c1.7-2.2,2.2-4.4,0.5-6.8c-4-18-14.9-22.9-30.2-13.5
	c-4.4,4.5-7.1,1.8-9.5-2.2c-5.2-10.2-11.9-13.3-21.9-11.2c-4.3,0.9-5.6,6.2-10.3,5.9C276.1,285.2,274.3,288.3,274.3,292.2z
	 M409.7,276.9c2.4-3.8,4.8-7.6,7.4-11.7c8.5,18.4,16.1,22.6,28.1,15.8c6.2-3.5,10.5-8,8.9-16.6c-1.4-7.3-6.3-11.8-11.1-17.7
	c10.3,0.4,19.9,1.1,24.7-9.2c3.1-6.7,2.2-13.6-2.6-19.3c-8.9-10.5-18.8-5-29.2,0.1c3.4-11,6.6-21-3.8-28.3
	c-6.3-4.5-13.5-4.6-19.9-0.4c-10.9,7.1-8.3,17.3-4.4,28.4c-3.8-3.2-6.3-5.9-9.4-7.6c-11.7-6.7-22.7-2.4-26.7,9.7
	c-2.4,7.3,0.9,13.1,4.2,18.9c1.3,5.2,6.8,4.6,10,7.2c-2.9,4.1-7.1,7.2-8.1,12.4c0.8,0.8,2.3,1.5,2.4,2.4
	c1.7,14.7,4.3,17.4,19.5,19.9C404.2,282,407.3,280.3,409.7,276.9z M215.7,87.7c7-8.4,6.7-15.7-0.8-24.5c-1.8-3.9-0.6-6.2,3.5-7.8
	c3.5-1.3,8.1-2.1,7.7-7.6c3.8-8.1,4.2-15.6-2.6-22.8c-6.1-6.4-12.8-6.3-20.2-3.5c-2.4,0.5-5,0.7-6.8,2.7c-0.5-0.1-0.4,1.7-1.2,0.5
	c-0.1-0.2,0.2-0.6,0.2-0.9c1.2-5.8,1-11.3-3.5-15.9C186.1,0.4,177-2.1,169,1.9c-8.6,4.2-10.5,13.1-6.1,30.2
	c-9-5.7-18.3-8.7-26.8-1.4c-5.6,4.9-7.5,12.3-4.9,19.6c4.2,12.2,15.3,10.7,26.1,11.4c-3.1,3.4-5.8,6-7.9,8.9
	c-8.7,12.2-1.2,24.4,16.7,27.7c10.8-1.8,12.9-12,17.5-19.4c4.7,2.7,4.3,8.3,8.3,10.5C201.5,95.3,209.9,94.7,215.7,87.7z
	 M447.7,319.7c4,2.5,8.5,4.2,11.7,9.2c-10.3,2.4-19.1,5.7-19.6,17.5c-0.3,7.9,2.9,14.4,10.4,17.3c11.1,4.4,18.8-1.8,25.8-10.5
	c0,10.9-3.1,22.3,9.1,27.7c7.5,3.3,15.3,1.1,20.6-4.8c8.4-9.2,4.2-18.7-2.8-28.4c10.1,4.4,18.7,10.2,27.9,2.3
	c6.8-5.8,8.1-14.5,4-22.8c-3.6-7.2-12.1-9.7-26.6-7.3c7.2-7.5,13.4-15,8.8-25.6c-2.9-6.7-8.8-9.6-15.8-9.8
	c-13.8-0.5-16.8,10-19.6,22.4c-2.4-5-4.7-7.5-7.1-10c-8.2-8.4-21.7-7.2-27.4,2.9c-1.6,2.9-2.1,6.4-3.2,9.6
	C440.5,314.5,446.2,316.4,447.7,319.7z M252.6,53.9c3.1,1.5,7,1.5,9.6,4.7c-9.5,1.8-19.3,2.6-22.3,13.9c-2.1,7.7-0.1,14.5,6.4,19.2
	c12.3,8.9,20.4-1,29.6-8.2c-1.3,9.7-3.6,18.4,5.2,24.8c7.5,5.5,15,4.3,21.8-0.1c12.6-8.2,3.6-19.3,2.3-29.9
	c9.8,5.5,18.8,8.9,27.1-0.4c5.5-6.1,5.8-13.8,2.4-20.2c-6-11-16.8-9.8-28.2-7c7.8-7.4,14.1-14.6,11.1-24.9c-2.3-8-9.3-12-17.3-12
	c-14.3,0-15.9,11.9-18.8,23.9c-2-3.9-3-6.1-4.3-8.2c-7-11.6-23.3-11.5-30.3-0.1c-3.3,5.4-1.9,10.9-1.4,16.4
	C244.9,51.2,249.1,52.2,252.6,53.9z"/>
<path style="fill:#F8F5F5;" d="M153.7,131.4c-0.8,6.5-2.5,13.3,3.6,18.5c-8.9,0.4-17.1-1.2-25.3-8
	C140.5,139.4,146.9,135,153.7,131.4z"/>
<path style="fill:#C70D41;" d="M190.1,300.7c-12.7-3.8-13.4-15.6-14.5-26.6c4.9,4.8,11.1,4.5,16,0.9
	C203.1,284.8,194.5,293.1,190.1,300.7z M348,141.2c-5.1,8.4-11.8,0.8-16.6,2.9c-5.3,2.3-5.5,11.6-13.4,11.9c-0.4,0-0.9,0.7-2,1.7
	c6.2-0.6,11.1,0.6,14.8,5.3c2.6,3.4,7.3,2.4,9.2,0.4c4-4.2,7.3-1.6,11.7-0.7C343,156.9,344.7,149.6,348,141.2z M185.7,178.9
	c9.5-0.9,7.2-7.5,7.5-13.6c0.4-7.8-5.8-4.4-8.6-5.3c-3.1-1-4-3.8-6.7-5c0.5,10.1-4.8,14.7-14.6,15c8.9,0.7,15.6,4.6,15.6,19.5
	C180.7,183.5,181.4,179.3,185.7,178.9z M303.3,335.1c0.7,0.8,0.2,4.4,2.2,2.1c5.4-6.4,11.9-3.4,19.3-2.4c-8.4-7-11.1-11.3-1.7-22.7
	c-9.7,5.9-24.3,0.4-29.9,14.3C298.4,325.7,300,331.5,303.3,335.1z M430,237.8c1.1-2.9,1.1-4.4-1.3-6.1c-4.2-2.9-7.4-6.6-8.8-12.1
	c-0.1,4.8-1.4,8-6.2,9.3c-6.1,1.6-5.6,6.1-4.4,11.2c1.1,4.7,2.7,7.6,8.3,6.5c4.3-0.9,7.3,1.7,10.5,4.7
	C426.8,246.3,428.5,241.8,430,237.8z M182.9,60.3c2.7,0.4,7-1.8,7-5.2c0-7.4,4-11.2,12.7-13.8c-7.5-0.8-11.3,3.7-16.9,1.6
	c-5.9-2.2-3.8-8.5-8.6-13.5c2,7.5,0.5,11.6-4.1,15c-3.3,2.4-4.7,6.3-1.8,9.8c2.9,3.7,2,7.2,0.7,11.6C175,62.1,177.8,59.6,182.9,60.3
	z M487.8,343c5.8,1.7,6.1-9.3,13.1-9.2c1.4,0,3.5,2,4.7-0.8c-3.6-2.4-8.3-1.4-10.8-6.5c-2.4-4.7,0.2-8.5,0.3-12
	c-8.5,6.2-19.4,10-21.4,22.1c-0.1,0.7-1.3,1.2-2,1.7C478.8,336.7,482.8,341.5,487.8,343z M296.2,43.3c-5.5,1.3-3.9,8.8-10.2,8.1
	c-6.3-0.8-8.6,4-9.6,9.1c-1,5,2.2,7.8,6.2,9.9c5.3,3,9.2,0.9,11.6-3.9c1.4-2.9,4.3-2,6.9-3.9C294.1,57.4,290.7,51.7,296.2,43.3z"/>
<path style="fill:#FDCF64;" d="M192.6,286.6c-0.4,3.3-1,5.9-5,5.5c-3.3-0.3-6.5-0.6-6-5.3c0.3-3.2,1.9-5.8,5-5.7
	C189.4,281.3,192.6,282.7,192.6,286.6z M335.5,148.7c-2,0-5.3,1-5.1,4.3c0.2,3.2,1.2,6.3,5.2,6.5c3.2,0.2,5.4-1.2,5.8-5.1
	C340.8,151.3,338.8,148.7,335.5,148.7z M183.1,163.5c-3.9,0.1-5.3,3.4-5.6,6.4c-0.3,3.5,3,4.3,5.7,4.5c3.6,0.2,4.7-2.4,4.9-5.3
	C188.1,165.6,186.5,163.4,183.1,163.5z M308.5,319.4c-3.2-0.6-6.2,1.1-6.4,5.1c-0.2,3.4,1.8,5.2,5.1,5.6c4,0.5,5.7-1.9,6.8-5.8
	C314.1,321,310.8,319.8,308.5,319.4z M419.4,231.5c-3.6-0.1-5.3,1.9-5.7,4.9c-0.4,3.8,2.4,5.7,5.6,6.3c3.4,0.6,5-1.9,5.7-5
	C424.4,234.5,423.6,231.6,419.4,231.5z M175.1,50.5c0.1,3.5,2.1,5.6,5.8,5.3c2.8-0.2,5.5-0.8,5.3-4.7c-0.2-3.8-2.7-5.2-6.7-6
	C177.6,46,175,47.2,175.1,50.5z M480.9,331.4c0,2.9,2.2,5.5,5.3,5.5c3.2,0.1,6.1-1.6,6.6-5.3c0.5-4.3-2.8-5-5.8-5.9
	C483.3,325.8,481,327.9,480.9,331.4z M286.6,55.4c-3.8,0.2-5.7,2.1-5.6,5.8c0.2,3,1.4,5.5,5,5.3c3.6-0.2,5.1-2.9,6.1-5.8
	C290.9,58.1,290.4,55.2,286.6,55.4z"/>
</svg>
