<?xml version="1.0" encoding="utf-8"?>
<!-- Generator: Adobe Illustrator 24.0.0, SVG Export Plug-In . SVG Version: 6.00 Build 0)  -->
<svg version="1.1" id="Layer_1" xmlns="http://www.w3.org/2000/svg" xmlns:xlink="http://www.w3.org/1999/xlink" x="0px" y="0px"
	 viewBox="0 0 588 588" style="enable-background:new 0 0 588 588;" xml:space="preserve">
<path style="fill:#E9E9E9;" d="M449.2,405.8c-3.7-9.4-7.4-18.7-16.9-24.1c-6.1-3.5-12.4-5.7-19.4-5.7c-116.1,0-232.3,0-348.4,0
	c-2.9-2.8-2-6.4-2-9.7c-0.1-39.7,0-79.4,0-119.1c0-69.7,0-139.3,0-209c0-3.6-0.8-7.3,1.7-10.5c116.4,0,232.9-0.1,349.3,0
	c19.2,0,35.2,16.2,35.9,35.7c0.1,3,0.7,6,1.1,9c-1.1,4.8,0.9,9.3,0.9,14.1c-0.1,103-0.1,206-0.2,309
	C451.1,398.9,452,402.7,449.2,405.8z"/>
<path style="fill:#753A02;" d="M64.1,27.7c0,61.5,0.1,123,0.1,184.5c0,52.9,0,105.8,0,158.7c0,1.7,0.1,3.4,0.2,5.1
	c-0.1,30.9-0.2,61.8-0.2,92.8c0,28.4-0.1,56.9,0.1,85.3c0,4.2-0.9,5.5-5.3,5.4c-8.8-0.4-17.6-0.4-26.3,0c-4.3,0.2-5.3-1.1-5.3-5.3
	c0.1-78.8,0.1-157.7,0.1-236.5c0-94.3,0.1-188.6-0.2-282.9c0-6.2,1.8-7.5,7.5-7.2C44.7,28,54.4,27.6,64.1,27.7z"/>
<path style="fill:#CBCBCB;" d="M449.2,405.8c0-108.6,0-217.2,0.1-325.8c0-2.5-1.1-5.4,1.1-7.7c3.3,16.1,18.3,28.5,34.7,28.6
	c22.9,0.1,45.8,0.1,68.7-0.1c4.1,0,5.6,1,5.6,5.4c-0.1,112.7-0.1,225.3,0,338c0,4.1-1.3,5.2-5.2,5.1c-22.3-0.2-44.7,0-67-0.1
	c-22.1,0-37.8-15.7-37.8-37.8C449.2,409.6,449.2,407.7,449.2,405.8z M500.3,73.5c13.9,0,13.8,0,13.2-14.3c-0.1-3.4-1.5-4.1-4.5-4.1
	c-9.4,0.1-18.7,0.2-28.1,0c-5.7-0.2-4.8,4-4,6.6c1.2,4-4.6,10.7,3.9,11.7c4.7,0.6,9.5,0.1,14.3,0.1
	C496.9,73.5,498.6,73.5,500.3,73.5z M539.7,55.1c-9.3,0.1-7.9-1.6-7.9,10.8c0,9.1-1.7,7.3,11.8,7.5c6.5,0.1,6.5,0,6.5-8.8
	C550.1,55.1,550.1,55,539.7,55.1z"/>
<path style="fill:#F82714;" d="M311.8,302.6c-55.6,0-100.9-45.4-100.8-100.8c0-55.8,45.4-100.9,101.4-100.8
	c55.3,0.1,100.4,45.7,100.3,101.4C412.5,257.4,367,302.6,311.8,302.6z"/>
</svg>
