<?xml version="1.0" encoding="utf-8"?>
<!-- Generator: Adobe Illustrator 24.0.0, SVG Export Plug-In . SVG Version: 6.00 Build 0)  -->
<svg version="1.1" id="Layer_1" xmlns="http://www.w3.org/2000/svg" xmlns:xlink="http://www.w3.org/1999/xlink" x="0px" y="0px"
	 viewBox="0 0 594 594" style="enable-background:new 0 0 594 594;" xml:space="preserve">
<path style="fill:#FFCC5C;" d="M162.6,440c-24.5-10.7-47.2-24.4-66.5-43c-38.9-37.4-61.4-82.8-66-136.7
	c-9.2-109,64-207.6,171.3-226.9c87.5-15.8,159,13.8,213.5,84.2c1.1,1.4,2.1,2.7,3.2,4.1c0,2.6-2.2,3-3.9,3.6
	c-17.9,6.6-28.4,19.2-31.2,38.1c-0.7,4.9-3.4,6.4-7.9,6.3c-8.9,0-17.7-0.3-26.6,0.1c-15.1,0.8-24.7,14.4-20.1,28.3
	c2.9,8.6,10.8,14.2,20.9,14.5c10.2,0.3,20.4,0.1,30.6,0.1c21.8,0,43.5-0.1,65.3,0.1c3.1,0,6.8-1.1,8.5,3c3.1,30.1,1,59.7-7.9,88.6
	c-11,35.5-29.9,66.2-56.8,91.8c-4.6-0.8-5.5-5.4-8.1-8.1c-2-2.1-3.1-4.8-4.8-7.1c-13.7-20.5-24-42.6-31.2-66.1
	c-1.4-4.6-3.6-6.5-8.5-6.4c-25.8,0.2-51.6,0.1-77.4,0.1c-3.7,0-6.8,0.3-8.1,4.7c-10.4,35.7-28.3,67.3-52.4,95.5
	c-9.9,9.5-18.9,20.1-29.8,28.7C166.8,438.7,165.2,440.5,162.6,440z"/>
<path style="fill:#2A7DB3;" d="M162.6,440c12.8-9,23.4-20.4,34.1-31.6c2.7-1.2,5.6-1.3,8.5-1.3c12.7,0,25.5-0.1,38.2,0.1
	c5,0.1,8.3-1.5,10.8-6c6-10.8,12.4-21.3,19-31.8c0.8-1.3,1.5-2.7,2.5-3.9c2.5-2.9,4.2-2.7,6,0.8c0.8,1.6,1.1,3.3,1.5,5
	c7.4,27.6,15.1,55,22.4,82.6c0.1,0.6,0.3,1.1,1,2.2c2.1-6.1,3-12,4.3-17.8c3.8-16.7,7.4-33.5,11.3-50.2c0.5-2.3,0.4-5.6,3.5-6
	c3-0.3,3.9,2.8,5.1,4.8c6.1,10,12.1,20.2,18.2,30.2c1,1.6,1.6,3.5,3.4,4.6c2.2-0.8,2.3-3,2.9-4.6c4.4-10.7,8.5-21.5,12.9-32.2
	c1.7-4.1,4.1-6.6,8.9-4.2c3.9,5.1,7.7,10.3,11.6,15.4c6,8.9,13.7,16.3,20.8,24.2c-2.2,5.5-6.6,9.5-10.3,13.8
	c-34.7,39.8-74.7,73.4-120.7,99.6c-19.3,11-39.1,20.8-59.8,28.9c-3.8,1.5-7.6,2.7-11.6,3.4c-42,0.1-84.1,0.1-126.1,0.2
	c-15.8,0-31.6-0.1-47.5,0.1c-3.7,0-4.9-0.9-4.8-4.8c0.2-12.3,0.2-24.7,0-37c-0.1-3.7,1.3-5.4,4.3-7.1c32.3-18.3,64.6-36.8,96.8-55.3
	C141.5,455.5,152.6,448.6,162.6,440z"/>
<path style="fill:#005288;" d="M207.4,565.9c20.3-8.2,40.3-17,59.6-27.4c25.6-13.7,49.6-29.9,72.2-48.1
	c15.9-12.8,30.7-26.8,44.8-41.5c7.6-7.9,14.9-16,21.6-24.7c1.2-1.5,2.7-2.7,4.1-4c35.3,35,80.5,54.7,122.3,79.8
	c9.9,5.9,19.9,11.6,30.1,17.1c3.2,1.7,4.2,3.7,4.1,7.2c-0.2,12.1-0.3,24.3,0,36.4c0.1,4.4-1.1,5.3-5.4,5.3
	c-76.4-0.1-152.7-0.1-229.1-0.1C290.3,566.1,248.8,566,207.4,565.9z"/>
<path style="fill:#8CD3F5;" d="M453.6,215.6c-1.7-2.3-4.3-1.4-6.4-1.4c-32.6-0.1-65.1,0.1-97.7-0.1c-16.8-0.1-27.8-14.8-23-30.2
	c3-9.6,11.6-15.9,22.3-16.1c9.4-0.1,18.9,0,28.3,0c2,0,3.5,0.2,3.8-2.7c2.3-22.2,14.4-36.3,35.7-42.5c0.5-0.1,0.8-0.7,1.2-1.1
	c8.1,0,16.1-0.1,24.2,0c3.4,0.1,3.6-1.9,3.6-4.5c0.5-21.9,15-38.3,36.1-41.5c19.8-3.1,40.5,9.6,46,31.7c2.8,11.4,1,23,1.1,34.6
	c0.1,5.4,0.7,7.6,7.1,7.7c17.1,0.3,30.4,15.5,30.1,33.1c-0.3,16.9-14.4,31.4-31.3,31.5c-24.9,0.2-49.8,0-74.7,0.1
	C457.9,214.3,455.4,213.4,453.6,215.6z"/>
<path style="fill:#E9E9E9;" d="M377.3,380.7c-4.2-0.4-6.4,1.4-7.9,5.5c-5,13.3-10.4,26.4-16.2,41c-9.4-15.6-18.2-30.2-27.8-46
	c-6.1,27.3-12,53.4-17.8,79.5c-0.6,0-1.1-0.1-1.7-0.1c-4.4-16.2-8.8-32.4-13.2-48.7c-4.4-16.1-8.8-32.1-13.6-49.3
	c-8.6,14.4-16.7,27.5-24.3,40.8c-2.4,4.2-5.1,5.7-10,5.5c-16-0.5-32-0.3-48-0.4c14.2-17.3,27.1-35.4,36.9-55.6
	c6.5-13.3,12-27,16-41.3c1-3.6,2.4-4.9,6.2-4.8c27.9,0.2,55.8,0.1,83.8,0.1c2.3,0,4.5-0.3,5.3,2.9
	C351.8,335.1,363.3,358.5,377.3,380.7z"/>
</svg>
