<?xml version="1.0" encoding="utf-8"?>
<!-- Generator: Adobe Illustrator 24.0.0, SVG Export Plug-In . SVG Version: 6.00 Build 0)  -->
<svg version="1.1" id="Layer_1" xmlns="http://www.w3.org/2000/svg" xmlns:xlink="http://www.w3.org/1999/xlink" x="0px" y="0px"
	 viewBox="0 0 612 612" style="enable-background:new 0 0 612 612;" xml:space="preserve">
<path style="fill:#F9CEAF;" d="M258.3,349.5c-15.6-10.9-27-25.1-33.6-43.1c-5.9-6.4-6-14.8-6.2-22.4c-0.7-27.9-1-55.9,0-83.8
	c0.7-20,17.2-35.6,38.3-38.4c14.1-0.4,26,4.1,35.4,14.9c3.1,3.6,6.8,6.7,10.5,9.6c2.6,2,4.5,1.8,6.7-0.5c4-4.2,8.5-7.7,12.6-11.7
	c9.3-8.9,20.2-12.9,33-12.3c23.6,3.1,38.7,20,38.8,43.6c0.1,24.6,0,49.2,0,73.8c0,6.8-1.1,13.4-2.6,20c-0.6,2.7-1.5,5.4-3.9,7.2
	c-6.6,17.9-18,32.1-33.6,43c-1.4,2.9-4,4.4-6.6,5.7c-27.4,13.9-54.8,13.6-82.2,0C262.2,353.9,259.6,352.4,258.3,349.5z"/>
<path style="fill:#753A02;" d="M258.2,163.3c-25.3,4-38.2,19.2-38.2,44.9c0,21.4,0.1,42.9-0.1,64.3c-0.1,11.6,1.3,22.9,4.8,34
	c-14.3,0-28.6,0.2-43,0.1c-10.4-0.1-18.9-7.6-18.9-17.7c-0.1-24.8-1.7-49.7,0.9-74.4c3.7-36.1,19.7-66.2,46.5-90.5
	c5.7-5.1,11.3-9.6,10.8-18.1c2.3,1.4,1,4,2.2,6c9.1-6.7,18.9-11.8,29.3-15.9c2.4-1,5.3-2.8,7.1,1.1c1.3,8.3,0.5,16.7,0.6,25
	c0.2,10.9,0.1,21.8,0,32.8C260.1,157.8,260.5,160.9,258.2,163.3z M427.2,306.6c14.6,0,22.1-7.4,22.1-21.8c0-16.9-0.1-33.7,0-50.6
	c0.2-48.1-18.4-87.3-56.1-117.4c-0.5-0.7-0.8-1.6-1.4-2.3c-9.8-8.6-21.5-13.9-33.3-18.8c-2.4-1-5.1-1.9-6.2,1.8
	c-1.1,20.3-0.4,40.7-0.4,61c0,1.8,0.4,3.5,1.8,4.9c25,3.9,38.2,19.2,38.2,44.3c0,21.6-0.1,43.3,0.1,64.9c0.1,11.6-1.3,22.9-4.8,34
	C400.6,306.5,413.9,306.6,427.2,306.6z"/>
<path style="fill:#592C02;" d="M391.9,115.8c-11.7-8.7-24.3-15.5-38-20.3c-2-1.6-2.1-4.2-3-6.3c-4.8-12.5-14.4-19.3-27.7-19.4
	c-11.3-0.1-22.6,0-33.9,0c-14,0-23.6,6.8-28.5,20c-0.7,2-0.9,4.3-2.8,5.8c-12.9,4.4-24.6,10.9-36.5,19.1c-0.3-3.5-0.4-6.1-0.6-8.7
	c2-33.4,29.5-64.8,64.3-73.4c42.1-10.4,85.1,12,100.9,52.6c0.3,0.7,0.7,1.4,1.1,2.1c2.9,2,3.5,5.3,4,8.3
	C392.6,102.2,393.9,108.9,391.9,115.8z"/>
<path style="fill:#F9CEAF;" d="M375.6,412.6c-3.2-0.3-5,1.8-7,3.8c-20.8,20.7-41.6,41.3-62.4,62c-1.7-0.1-2.9-1.3-4-2.4
	c-21.5-21.5-43.1-42.9-64.5-64.5c2.8-2.4,5.6-4.8,8.5-7.2c4.9-0.7,9.9-0.4,14.9-0.4c31.4,0.5,59.9-8.8,85.9-26
	c2-1.3,3.8-3.9,6.8-2.2c2.4,2.4,1,5.6,1.8,8.5C358.8,396.2,365.8,405.4,375.6,412.6z"/>
<path style="fill:#FFFF95;" d="M411.1,430.5c-49.3,49.2-98.6,98.5-147.9,147.7c-1.5,1.5-3,3.2-4.5,4.8c-19.3,0.1-38.5,0.1-57.8,0.2
	c25.2-25.1,50.3-50.1,75.5-75.2c0.1-2.9-2.3-4-3.9-5.7c-23.8-23.9-47.7-47.8-71.5-71.8c12.2-6.4,24.5-12.8,36.7-19.1
	c1.5,0,2.6,0.7,3.6,1.8c21.3,21.4,42.7,42.8,64,64.3c0,0,0,0,0,0c20.6-20.4,41-41,61.6-61.4c2.3-2.3,4.4-5.5,8.6-3.4
	C387.7,418.2,399.7,423.8,411.1,430.5z"/>
<path style="fill:#F9B88A;" d="M353.8,375.8c-6.1,3.6-12.1,7.4-18.2,10.9c-26.9,15.5-56.1,20.6-86.8,18.9c-0.9,0-1.7-0.8-2.6-1.2
	c8.7-10.8,12.8-23,12.1-36.9c-0.3-5.9,0-11.9,0-17.9c14.9,9.5,31.2,14.5,48.9,14.3c16.9-0.2,32.4-5.2,46.5-14.3
	C353.7,358.3,353.7,367,353.8,375.8z"/>
<path style="fill:#E90D39;" d="M411.1,430.5c22.1,11,44.3,21.7,66.1,33c32,16.6,48.4,43.1,48.6,79.2c0.1,12.1-0.1,24.2,0.1,36.4
	c0,2.9-0.4,4.2-3.8,4.2c-87.6-0.1-175.2-0.2-262.8-0.2c-0.2,0-0.4-0.1-0.6-0.1c-1.2-2.8,1.2-4,2.6-5.3
	c48.1-48.1,96.2-96.1,144.4-144.1C407.1,432.1,408.5,430.1,411.1,430.5z"/>
<path style="fill:#E90D39;" d="M207.4,578.1c21.7-21.7,43.4-43.4,65.2-65.1c1.5-1.5,3.3-2.9,4.1-5c0.6-3.6-2.3-5.3-4.3-7.4
	c-22.1-22.1-44.2-44.2-66.3-66.2c-1.5-1.5-2.9-3.4-5.1-3.9c-23.1,11.5-46.5,22.5-69.3,34.7c-25.1,13.3-40.1,34.5-44.5,62.7
	c-2.6,16.8-0.4,33.7-1.2,50.6c-0.2,4,1.1,4.9,5,4.9c36.6-0.2,73.3-0.1,109.9-0.1C203.4,581.9,205.5,580.1,207.4,578.1z"/>
<path style="fill:#E90D39;" d="M393.3,116.8c1.6-1.7,3.8-0.9,5.7-0.9c18.5-0.1,37,0,55.6,0c15,0,14.9,0,14-15.1
	c-0.2-3.2-1.3-4-4.3-4c-9,0.1-17.9,0-26.9,0c-10,0-20.1,0-31.7,0c11.5-11.5,21.9-21.8,32.3-32.2c8-8,8-8,0.9-16.4
	c-5.4-6.4-5.3-6.3-11.2-0.7c-13.5,13.2-26.3,27.1-40.4,39.7c3.2,9.3,3.9,18.9,4.6,28.6C392.4,116.1,392.8,116.4,393.3,116.8z"/>
<path style="fill:#A55A14;" d="M258.1,95.5c1.7-16.3,13.9-27.4,30.3-27.4c11.7,0,23.4,0,35.2,0c16.4,0,28.6,11.1,30.3,27.4
	c0,22.6,0,45.2,0,67.9c-13-0.1-24,4.4-32.9,13.9c-1.2,1.3-2.5,2.5-3.9,3.7c-3.9,3.3-6.8,10.1-11.3,9.5c-4.1-0.5-7.9-6.1-11.3-9.9
	c-9.7-10.9-21.3-17.6-36.3-17.3C258.2,140.7,258.1,118.1,258.1,95.5z"/>
<path style="fill:#E90D39;" d="M306.5,287.5c4.8,0,9.5,0.2,14.3-0.1c3.5-0.2,4.5,1.2,4.4,4.5c-0.2,5.1,0.1,10.3-0.1,15.5
	c-0.4,10.3-8.8,18.2-19,18.3c-10.2,0-18.7-7.9-19.1-18.1c-0.2-5.3,0.1-10.7-0.1-16c-0.1-3.2,1.2-4.2,4.2-4.1
	C296.2,287.6,301.3,287.5,306.5,287.5z"/>
<path style="fill:#1E0202;" d="M248.6,211c0-10.4,0-10.2,10.4-8.8c9.9,1.4,19.4,4,28.5,8.1c2.7,1.3,3.6,2.5,1.9,5.3
	c-2.3,3.9-3.2,9.4-6.5,11.8c-3.8,2.9-7.9-2.3-12.2-3.3c-5.4-1.3-10.8-3.1-16.3-3.1c-5-0.1-6.8-1.7-5.9-6.5
	C248.8,213.4,248.6,212.2,248.6,211z M363.4,208c1.1-6-2-6.9-7-6.2c-7.9,1-15.7,2.4-23.2,5c-12.8,4.5-12.8,4.5-6.9,16.4
	c0.4,0.9,1,1.7,1.3,2.7c1,3.1,2.8,3.2,5.4,1.8c6.9-3.6,14.5-5.3,22.2-6.5c8.2-1.3,8.2-1.3,8.2-9.7
	C363.4,210.3,363.2,209.1,363.4,208z M258.2,249.1c-0.1,5.1,4,9.6,9.1,9.8c5.3,0.2,10-4.2,10-9.6c0-5.1-4.3-9.4-9.4-9.5
	C262.7,239.8,258.4,244,258.2,249.1z M344.6,239.8c-5.1-0.2-9.6,3.9-9.9,9.1c-0.3,5.3,4.2,10,9.5,10c5.1,0,9.5-4.2,9.6-9.4
	C353.9,244.4,349.7,240,344.6,239.8z"/>
</svg>
