<?xml version="1.0" encoding="utf-8"?>
<!-- Generator: Adobe Illustrator 24.0.0, SVG Export Plug-In . SVG Version: 6.00 Build 0)  -->
<svg version="1.1" id="Layer_1" xmlns="http://www.w3.org/2000/svg" xmlns:xlink="http://www.w3.org/1999/xlink" x="0px" y="0px"
	 viewBox="0 0 612 792" style="enable-background:new 0 0 612 792;" xml:space="preserve">
<path style="fill:#FDCF64;" d="M292.4,77.5c8.6,0,17.2,0,25.8,0c11.4,0.1,22.9,0,34.3,0.2c11.6,0.2,15.8,4.6,16.1,16
	c0.3,10.7-1.3,21.5,1.2,32.1c0.3,1.3,1.2,2.5,1.7,3.8c8.6,8.8,13,20,17.3,31.1c9.6,24.7,14.2,50.6,17.7,76.8
	c1.9,14.3,2.5,28.8,2.3,42.9c-0.7,45.6-5.7,90.8-25.1,133c-3.2,6.9-6.2,14.1-12.3,19.1c-3.1,5.2-2.9,11-2.9,16.7
	c0,6.2-0.3,12.5,0.1,18.6c0.6,8-2.6,13.3-9.8,16.4c-2.3,2.4-4.9,3.1-7.9,1.5c-9.5-3-19.3-0.8-29-1.3c-3.6-0.2-7.6-1.4-10.9,1.4
	c-3.8,1.6-7.7,1.5-11.5,0.1c-1.4-2.4-3.8-1.6-5.7-1.5c-11.4,0.8-22.9-1.8-34.2,1.3c-3,1.6-5.7,0.9-7.9-1.5c-7.3-3-10.2-8.4-9.9-16.3
	c0.4-9.3,0.1-18.6-0.3-28c-0.1-2.5-1.6-4.9-2.5-7.4c-9.5-9.7-14.1-22.1-18.6-34.5c-11.9-33.2-17-67.6-18.2-102.8
	c-1.2-37.4,2.1-74.1,11.5-110.2c4.4-17,10.2-33.4,19.4-48.6c1.6-2.7,3.3-5.3,5.9-7.1c3.5-6.2,2.8-13,2.8-19.6c0-5.5-0.1-11,0-16.5
	c0.2-10.7,4.7-15.3,15.3-15.5C268.9,77.5,280.7,77.5,292.4,77.5z M300.8,661.4c-11.4,4.5-20.2,11.7-20.7,24.7
	c-0.7,21.8-0.7,43.6-0.3,65.3c0.1,7.5,6.1,11.8,13.7,11.9c6.9,0.1,13.9,0,20.8,0c12,0,16.5-4.5,16.6-16.4c0.1-17-0.4-34,0.2-51
	c0.6-16.7-5-28.8-21.5-34.6C306.8,658.9,303.8,658.9,300.8,661.4z M311.3,612.3c-0.4-0.8-1.4-1.9-0.4-2.5c6.9-4,7.4-10.4,7.4-17.4
	c-0.2-21.5-0.4-43.1,0-64.6c0.2-8.5-2.3-14.8-10-18.8c-2-1.8-4-1.8-6.1,0c-8.2,4-10.1,10.8-10,19.5c0.4,20.1,0.2,40.2,0.1,60.2
	c-0.1,8.2-0.9,16.4,7.5,21.6c0.1,0.1-0.4,1.2-0.7,1.9C303.2,614.1,307.2,614.8,311.3,612.3z M251.8,509.1c-8,3.7-10.5,10-10,18.6
	c0.6,10,0.1,20.1,0.1,30.1c0.1,9.1,5.2,15.4,12.4,15.5c7.3,0.1,13.2-6.8,13.3-15.8c0.1-9.6,0-19.1,0.1-28.7
	c0.1-8.3-1.9-15.5-9.8-19.9C255.8,507.2,253.8,507.1,251.8,509.1z M352.7,508.9c-5.1,3.7-9.5,7.6-9.5,14.8c0,12.4-1,24.8,0.5,37.2
	c0.9,7.6,6.7,12.8,13.3,12.2c6.8-0.6,11.5-6.2,11.6-14c0.1-10.5-0.4-21.1,0.2-31.5c0.5-8.6-2-14.8-10-18.5
	C356.8,507.1,354.8,507.2,352.7,508.9z"/>
<path style="fill:#29B350;" d="M299.2,612.2c4,0,8,0,12,0.1c11.5,2.8,19,12,19.6,24c0.5,11.4-7.7,21.2-21.1,25.1c-3,0-5.9,0-8.9,0
	c-13.7-4.1-21.3-13.3-21.1-25.5C280,624.8,287.8,615.2,299.2,612.2z M317.9,498c0.6-5.4-1.9-9.6-6.8-12.2c-3.8-1.4-7.7-1.5-11.5,0.1
	c-10.6,7.8-9.4,17.7,2.7,23.1c2,0,4,0,6.1,0C314.2,507.7,317.2,503.5,317.9,498z M368.5,497.5c0.5-7.1-3.7-10.9-9.7-13.3
	c-2.6,0.5-5.3,1-7.9,1.5c-5.6,2-7.4,6.3-7.2,11.8c0.2,5.9,3.2,9.7,9,11.4c2,0.1,4,0.1,6.1,0.2C364.8,507.5,368.1,503.7,368.5,497.5z
	 M266.8,498.2c0.3-5.7-1.2-10.4-7.1-12.5c-2.6-0.5-5.3-1-7.9-1.5c-6,2.4-10.1,6.4-9.7,13.3c0.3,6.2,3.9,10,9.8,11.5
	c2,0,4.1-0.1,6.1-0.1C263.2,507.3,266.4,503.9,266.8,498.2z"/>
<path style="fill:#FD324B;" d="M371.5,432.5c7.6-14.3,15.2-28.6,20-44.2c8.6-28.2,13.2-57.1,14.6-86.5c1.9-39.8-1.2-79.1-11.6-117.6
	c-4.2-15.5-9.5-30.5-17.6-44.5c-1.9-3.3-4.4-6.3-5.2-10.1c16.4,1.8,32.2,6,47.4,12.7c104.7,46.5,120.9,191.9,28.9,260.2
	C425.1,419.4,399.8,429.8,371.5,432.5z M328.4,135.1C304,147,286.2,166,274.5,189.9c-30.8,62.7-29.7,125.7,2.8,187.4
	c11.3,21.5,28.2,38.6,50.6,49.3c3.4,1.6,6.8,3.8,10.9,1.9c9.2-4.9,13.6-13.9,18-22.5c17.4-34.7,22.5-72.2,24.5-110.3
	c1.2-23.2-0.6-46.3-3.9-69.3c-3.5-24.3-9.2-47.8-20.4-69.8c-4.5-8.8-8.9-18.1-18.4-23.1C334.8,131.5,331.5,133.6,328.4,135.1z"/>
<path style="fill:#C70D41;" d="M292.4,77.5c0-10.7,0.4-21.5-0.1-32.2c-0.3-7.8,1.9-13.9,8.7-18.1c2.9,0,5.8,0,8.6,0
	c6.7,4.2,9,10.3,8.6,18.1c-0.4,10.7-0.1,21.5-0.1,32.2C309.6,81,301,81,292.4,77.5z M229.9,130.6c-66.1,9.7-121.1,66.8-127.1,133.9
	c-5.1,57.1,15.4,104.1,61.2,139.1c22,16.9,47.2,26.8,75.1,28.9c-5.8-12-12.8-23.4-17.2-36.1c-15.2-44.2-19.6-89.8-17.4-136.2
	c1.4-29,5.9-57.4,14.3-85.2c4.9-16.1,12.6-30.9,20.4-45.6C236.1,129.8,233,130.2,229.9,130.6z M327,129.1
	c-13.2,0.1-26.4,0.6-39.5-0.1c-10.6-0.5-17.8,4.1-23.9,11.8c-4,5.1-7.4,10.5-10.3,16.4c-17.1,34.9-22.1,72.5-23.9,110.6
	c-1.4,29.5,1.1,58.9,7.3,87.7c4.8,22.5,11.5,44.5,25.3,63.5c5.1,7,10.9,13.6,20.7,13.7c15.1,0.1,30.2,0,45.3,0
	c4.2,0,8.1-0.8,10.9-4.3c-7.4-1.6-13.9-5-20.1-9.1c-25.8-17.2-42.1-41.6-52.4-70.4c-10.7-29.9-13.5-60.6-10-92.2
	c3.7-33,14-63.3,35-89.2c12.6-15.5,27.2-28.8,47.3-34.3C335.6,129.7,331.4,129.1,327,129.1z"/>
</svg>
