<?xml version="1.0" encoding="utf-8"?>
<!-- Generator: Adobe Illustrator 24.0.0, SVG Export Plug-In . SVG Version: 6.00 Build 0)  -->
<svg version="1.1" id="Layer_1" xmlns="http://www.w3.org/2000/svg" xmlns:xlink="http://www.w3.org/1999/xlink" x="0px" y="0px"
	 viewBox="0 0 580 398" style="enable-background:new 0 0 580 398;" xml:space="preserve">
<path style="fill:#CB1F12;" d="M286.7,73.5c48.7-0.2,94.5,11.3,137.6,34c17.8,9.4,34.8,20,49.9,33.6c0.2,4-2.8,6.3-5,8.9
	c-29.4,34.7-58.5,69.7-87.6,104.6c-2.7,3.2-5.1,6.7-9.4,8.1c-1.3,0.1-2.5-0.3-3.7-0.9c-4.7-3.3-9.4-6.6-14.4-9.4
	c-1.5-1-3.1-1.9-4.7-2.6c-4.9-2.6-9.9-4.8-15.1-6.7c-2-0.9-4.1-1.6-6.2-2.2c-5.3-2-10.8-2.8-16.3-4.1c-2-0.5-4-1.1-6.1-0.9
	c-5.7-0.6-11.3-1.3-16.9-1.7c-1.3-0.4-2.3-0.9-3-2.1c-1.4-3.1-1.2-6.5-1.2-9.8c0-46,0-91.9,0-137.9
	C284.5,80.5,283.8,76.6,286.7,73.5z M173.4,296.6c3-5.3,7-9.8,10.5-14.6c0.7-1.4,1.4-2.9,0.6-4.5c-7.9-7.7-16.6-14.5-25.1-21.5
	c-23.3-19.6-46.4-39.3-70-58.5c-8.7-7.1-16.2-15.6-26.3-20.9c-11.7,11.9-20.4,26-29.4,39.9c-2.5,3.9-1.6,5.2,2.1,7.3
	c32.4,18.5,64.6,37.2,96.9,55.8c12.2,7,24.5,13.8,36.8,20.8C171.5,299.8,172.4,298.2,173.4,296.6z M503,182.2
	c-32.1,27-64.4,53.8-96.5,80.9c-6.1,5.2-13.6,9.1-17.3,16.9c0,0.6,0.1,1.2,0.4,1.8c3.3,5,7.4,9.4,10.4,14.7c1,1.5,1.6,3.3,3.7,3.7
	c2.6-0.2,4.4-1.9,6.5-3.1c15.9-9.1,31.8-18.3,47.6-27.4c26.6-15.4,53.1-30.8,79.7-46.1c2.4-1.4,5.5-2,2.9-6.1
	c-8.9-13.7-17.4-27.6-28.8-39.5C507.6,177.3,505.4,180.2,503,182.2z M97.8,142.1c0.2,1.9,1.6,3.1,2.8,4.4c26.4,32,53.4,63.5,80,95.4
	c6.2,7.4,11.5,15.7,19.4,21.6c2.1,0.4,3.6-0.9,5.2-1.8c4.5-3.5,9.3-6.6,14.2-9.5c1.1-1,2.6-1.7,2.4-3.5c-6.1-3.4-7.5-10-10.6-15.4
	c-15.8-26.8-31.2-53.8-46.8-80.6c-7.9-13.5-15.8-27-23.8-40.5C125.2,120.6,110.8,130.3,97.8,142.1z"/>
<path style="fill:#B41F12;" d="M140.6,112.3c28.3-16.8,58.9-27.5,91-33.8c1.9-0.4,3.9-0.6,5.8-0.9c2.4,3.7,2.3,8,3,12.1
	c8.1,45.2,15.9,90.4,23.9,135.7c0.5,2.6,1,5.2,0.6,7.9c-0.3,1.1-0.9,2-1.8,2.7c-5.7,2.5-12,2.8-17.9,4.9c-2.2,0.4-4.3,1.2-6.3,2.3
	c-5.4,1.9-10.4,4.9-15.9,6.8c-0.6,0.1-1.3,0.1-2,0.1c-3.9-0.7-5-4.2-6.6-6.9c-19.1-32.8-38.2-65.7-57-98.7
	c-4.1-7.1-8.4-14-12.3-21.2C143.4,119.6,140.6,116.5,140.6,112.3z M474.1,141c-14.3,17.2-28.7,34.4-43,51.6
	c-12.5,15-24.6,30.3-37.5,45c-7.2,8.2-13,17.8-22,24.4c-0.4,1.4,0.3,2.4,1.1,3.4c4.4,3.8,9,7.3,12.8,11.7c1.7,1,2,4.1,4.9,3.1
	c10.3-12.1,23.7-20.8,35.4-31.2c14.4-12.8,29.6-24.9,44.5-37.1c13.7-11.3,26.8-23.4,41.2-33.9C500.6,164,488.1,151.7,474.1,141z
	 M264.1,233.8c-3.5-19.7-7.1-39.3-10.6-59c-3.8-21.4-7.7-42.8-11.2-64.3c-1.7-11-5.2-21.7-4.9-33c16.3-2.8,32.7-4.6,49.2-4.1
	c0,53,0,105.9,0,158.9c-0.4,0.7-1,1.2-1.7,1.5c-6,0.8-12,1.3-18,1.7C265.8,235.3,264.8,234.8,264.1,233.8z M97.8,142.1
	c7.8,6,12.9,14.4,19.3,21.7c13.2,15.1,25.7,30.7,38.6,46.1c14.8,17.7,29.7,35.4,44.6,53.1c0.4,0.5,0.6,1.1,0.4,1.7
	c-3.8,4.5-8.8,7.6-12.6,12c-1,0.8-2,1.5-3.4,1.3c-8-3.9-13.9-10.6-20.6-16.1c-21.8-17.8-43.3-35.8-64.7-54.1
	c-12.1-10.4-25-20.1-36.3-31.4C73.3,163.5,84.8,152.1,97.8,142.1z"/>
<path style="fill:#FCD7A8;" d="M329.2,239.6c0.3,3.2-1,6.1-2,9c-5.7,16-11.5,32-17.4,47.9c-3.8,10.4-7.7,20.7-11.6,31
	c-0.2,0.6,0.1,3.1-2,1.5c-0.3-0.3-0.1-1.3-0.2-1.9c0.4-0.5,0.9-1.1,1-1.6c2.7-15.5,5.5-31,8-46.6c2.3-14.5,5.6-28.8,6.9-43.4
	c-1.6-1-3.4-1.5-5.3-1.3c0.8,3.5-0.1,6.9-0.7,10.4c-4.6,26.6-9.3,53.2-13.9,79.8c0,0,0,0,0,0l0,0c-0.5,2.1-1,4.2-1.5,6.4
	c3.6,0.9,7.2,1.8,10.8,2.6c11.1-30.5,22.1-61,33.2-91.5C333.2,240.2,331.1,240,329.2,239.6z"/>
<path style="fill:#FCD7A8;" d="M403.7,300.2c-15,10.1-31.2,18.2-46.6,27.4c-10.4,6.2-21,12.2-31.5,18.2c-1.9,1.1-3.7,2.5-6,2.5
	c-2.2-2.6-4.3-5.1-6.5-7.7v0c-1.8-1.4-3.6-2.8-5.3-4.2c19.2-23,38.4-45.9,57.5-68.9c1.6-2,3.6-3.9,3.9-6.7c0.8,0.4,1.6,0.8,2.5,1.2
	c0.5,0.8,1.1,1.5,1.6,2.3c0.9,3.4-1.8,5.3-3.5,7.4C351.7,293,334.5,315,316,336c20.5-17.9,41.6-35.1,62.4-52.5
	c2.7-2.3,4.9-5.1,7.9-6.9c1.3,1.2,2.6,2.5,3.9,3.7c0.1,0.5,0.2,0.9,0.2,1.4c-1.1,3.7-4.2,5.6-6.9,7.8
	c-20.2,16.5-39.7,33.7-59.3,49.4c2.6-1.7,6-3.1,9-4.9c19.8-11.8,39.9-22.9,59.8-34.6c2.5-1.4,4.9-3.1,7.9-3.1
	C402,297.5,402.8,298.9,403.7,300.2z M354.5,251.3c-0.9-1.6-2.5-2-4.1-2.5c-15.9,28.3-31.9,56.5-47.8,84.8c1.4,0.8,2.8,1.6,4.2,2.4
	c1.3-2.3,2.5-4.7,3.8-7C325.2,303.1,339.8,277.2,354.5,251.3z M286.6,232.3c-0.5,0.2-0.9,0.4-1.4,0.6c-2.5,2.8-2,6.2-2,9.5
	c-0.1,13.5-0.1,27,0,40.5c0.1,13.1-0.4,26.2,0.3,39.3c-3.4-26-9-51.6-13.1-77.4c-0.6-3.7-0.8-7.6-3.6-10.5c-0.9-0.1-1.8-0.3-2.7-0.4
	c-0.5,0.5-0.9,1-1.4,1.5c0.1,2-0.1,4,0.2,5.9c4.1,23.3,8.6,46.6,12.3,70c1,6.5,3.7,12.9,2.2,19.6c0,0,0,0,0,0
	c-11.1-30.4-22.1-60.9-33.2-91.3c-2.1,0.2-4,0.7-5.6,2.1c0.7,0.9,1.6,1.6,1.9,2.6c10.7,29.4,21.2,58.8,31.8,88.2c0,0,0,0,0,0
	c-1.4-0.4-2.1-1.4-2.8-2.6c-15.6-27-31.1-54-46.7-81.1c-0.4-0.1-0.8-0.1-1.2-0.1c-1,0.8-1.9,1.6-2.9,2.4c0.3,7,4.9,12.1,8.1,17.7
	c12.2,21.2,24.7,42.3,36.6,63.7c-2.4-1.8-4.2-4.1-6.1-6.3c-11.6-13.6-23.3-27-34.3-41c-6.3-8.1-14.4-14.9-18.9-24.3
	c-1.3,0.8-2.6,1.6-3.9,2.3c-0.1,0.4-0.2,0.8-0.1,1.3c-0.9,3.1,1.3,5,2.9,7c16.6,19.5,32.8,39.3,49.5,58.6c0.6,0.7,1.2,1.5,1.8,2.4
	c-15.4-13-30.9-25.9-46.4-38.8c-6.9-5.7-13.2-12.4-21.1-16.9c-0.7,0.5-1.5,1-2.2,1.5c-0.7,1.1-1.3,2.2-2,3.4c1.5,3.7,5.1,5.4,8,7.7
	c20,16.7,39.7,33.8,59.8,50c-23.6-13.6-47.3-27.2-70.9-40.8c-2.2-1.3-4.4-3.2-7.3-2c-0.9,1.3-1.8,2.5-2.8,3.8
	c18.1,10.4,36.3,20.8,54.5,31.1c10.3,5.8,20.1,12.6,31.1,17.1c2.2-2.6,4.4-5.2,6.6-7.9c-0.2-0.8-0.5-1.4-0.9-2
	c0.7,0.3,1.4,0.5,2.2,0.6c1.6-0.3,2.8-1.3,3.8-2.5h0c2.2-1.1,4.4-2.1,6.5-3.2c1.3-0.4,2.7-0.9,4-1.3c2.7-0.4,5.3-0.9,8-1.3
	c1.4,0,2.7-0.1,4.1-0.1c0-32.6,0-65.2,0-97.8C288.5,232.6,287.6,232.5,286.6,232.3z"/>
<path style="fill:#B41F12;" d="M319.5,348.3c-9.3,7.9-20.6,12.4-30.8,18.8c-1,0.7-2,0.7-3,0.1c-10.2-6.4-21.4-11.1-30.7-18.9
	c0.6-3.5,3.2-5.8,5.3-8.4c0.6-0.6,1.3-1.2,2.1-1.7c1.5-0.9,2.9-1.9,4.3-2.9c2.1-1.1,4.2-2.2,6.3-3.2c1.4-0.7,2.9-1.2,4.4-1.5
	c2.5-0.6,5-1.3,7.6-1.3c1.3,0,2.6,0,3.9,0c0.6,0,1.3,0,1.9,0c3.4,0.4,6.8,1.3,10,2.4c0.6,0.2,1.1,0.5,1.6,0.8c1.5,0.9,3,1.7,4.6,2.4
	c0.5,0.2,1,0.5,1.5,0.8c1.8,1.4,3.8,2.5,5.5,4C316.3,342.3,318.9,344.7,319.5,348.3z"/>
</svg>
