<?xml version="1.0" encoding="utf-8"?>
<!-- Generator: Adobe Illustrator 24.0.0, SVG Export Plug-In . SVG Version: 6.00 Build 0)  -->
<svg version="1.1" id="Layer_1" xmlns="http://www.w3.org/2000/svg" xmlns:xlink="http://www.w3.org/1999/xlink" x="0px" y="0px"
	 viewBox="0 0 612 792" style="enable-background:new 0 0 612 792;" xml:space="preserve">
<path style="fill:#D7F8FC;" d="M583.8,120.4c-1.2-4-2.2-8.3-1.9-12.4c0,0,0,0,0-0.1c-0.3-0.8-0.6-1.5-0.9-2.3c0,0,0,0,0-0.1
	c-0.3-0.8-0.5-1.6-0.8-2.3c0,0,0,0,0,0c-0.5,0.6-1,1.3-1.5,1.9c-17.5,27.5-36.8,53.8-57.7,78.8c-23.2,27.8-47,55.2-71.1,82.1
	c-19.2,21.4-39,42.4-59.2,62.9c-29.7,30-59.4,60.1-89.9,89.3c-21.2,20.3-42.7,40.5-64,60.8c-6.7,6.4-13.4,13-20.3,19.2
	c-17,15.3-34.1,30.4-51.2,45.6c3.4,3.1,4.7,8.7,10.4,9.1c1.8,5,5.7,8,10.1,10.6c14.3-13.2,28.8-26.1,42.8-39.5
	c13.9-13.3,28.1-26.3,42-39.6c15.5-14.8,31.2-29.6,46.8-44.3c17.8-16.8,35.2-34.2,52.7-51.5c28.7-28.4,57.5-56.8,85.4-86
	c18.8-19.6,36.8-39.9,55.5-59.6c6.4-6.8,12.4-13.9,18-21.3c13.5-17.6,26.8-35.5,40.1-53.2c0,0,0,0,0,0c0,0,0,0,0,0
	c1.3-1.3,2.6-2.5,3.8-3.8c2.3-4.7,4.7-9.4,6.9-14.1c1.5-5.3,3.5-9.7,3.7-14.2c-0.5-4.4-0.2-8.9,0.8-13.3c0,0,0-0.1,0-0.1
	c0-0.5,0-1,0.1-1.5C584.1,121.2,583.9,120.9,583.8,120.4z"/>
<path style="fill:#EDEEEF;" d="M576,128.5c0.1-0.1,0.1-0.1,0.2-0.2c0,0.1,0,0.2,0,0.3C576.1,128.5,576.1,128.5,576,128.5z"/>
<path style="fill:#ECAC2F;" d="M176.1,578.3c4.4,5,8.8,10,13.3,14.9c2.2,2.4,3.9,4.7,0.7,7.7c-3.5,3.3-5.7,1.2-8-1.5
	c-4.8-5.4-9.7-10.8-14.5-16.2c-1.5,0-2.7-0.7-3.6-1.9c-5-7-11.5-12.7-16.7-19.5c-0.8-0.9-1.2-1.9-1.3-3.1
	c-4.1-4.8-8.1-9.6-12.2-14.3c-2.4-2.7-5-5.3-1-8.6c4.2-3.5,6,0.3,8.3,2.7c3.5,3.9,7,7.9,10.5,11.8
	C160.9,558.8,169.3,567.9,176.1,578.3z M30.6,678.1c8.7,10.4,8.9,10.6,16.2,6.3c-5.3-6.2-10.7-12.3-16-18.5
	C25.4,669.9,26.9,673.7,30.6,678.1z"/>
<g>
	<path style="fill:#00C2D4;" d="M176,553c-4.5-2-6-7.5-10.8-9.2c-4.2,2.8-6.5,9.5-13.5,6.6c7.4,10,15.9,19,24.5,27.9
		c-0.9-4,0.4-7,3.7-9.4c2.1-1.6,3.9-3.5,5.8-5.3C182.4,560.1,179.2,556.6,176,553z"/>
	<path style="fill:#00C2D4;" d="M73.9,644.9c-3.7,3.8,0.7,7.9-0.3,11.9c-3.1-0.7-5.5-2.5-8.2-3.8c-4.3-1.6-7.9-4.7-12.6-5.3
		c-7.4,6-15.6,11.1-22.1,18.2c4.2,7.1,8.8,13.9,16,18.5c1.5-0.3,2.6-1.2,3.5-2.5c0.6-5.2-2.7-9.5-3.4-14.5c-0.5-2.4-2.4-4.5-2-7.5
		c3.9,1,7,2.6,10.3,3.9c4.2,1,8,3.7,12.5,3.8c6.8-4.9,13.4-10,19.4-15.9C84.5,646.1,79.1,645.8,73.9,644.9z"/>
	<path style="fill:#00C2D4;" d="M148,561.2c-0.7-0.8-1.3-1.6-2-2.4c-3.4,3.7-6.8,7.3-10.2,11c5.9,0.6,10.7,4,16,6
		C153.9,570.1,150.1,565.9,148,561.2z"/>
	<path style="fill:#00C2D4;" d="M143.7,585.5c-0.5,4.6,2.5,7.9,4,11.6c-3.5-2.4-7.7-4.1-11.6-6.2c-5.1-1.9-9.4-5.6-15-6.4
		c-5.7,5.7-11.5,11.3-17.2,17c4.2,4.7,9.8,5.9,15.7,6.7c3.1-4.3-2.4-7.5-1.5-11.8c3.7,1.5,6.7,3.9,9.8,6c4.1,1.7,7.2,5,11.4,6.4
		c5.9-5,12.2-9.6,17.2-15.5C154.7,587.5,148.3,583.7,143.7,585.5z"/>
	<path style="fill:#00C2D4;" d="M109.1,613.7c2,4.9,4,9.7,5.9,14.6c-3.6-4.2-9.1-5.1-13.7-7.5c-4.4-1.4-8.4-4-13.1-4.6
		c-6.3,5.5-12.9,10.7-18.5,17c3.8,3.5,8.3,5.2,13.5,5.4c3.1-3.7-0.9-7-0.6-10.7c3.5,1.5,6.8,3.3,10.2,5.1c3.8,1.8,7,4.9,11.4,5.2
		c3.7-3.2,8.2-5.6,11-9.7c4.4-1.9,7.3-5.7,10.9-8.6C119.9,619.3,115,615.3,109.1,613.7z"/>
</g>
<path style="fill:#AE1F00;" d="M135.6,591.8c-5.1-1.9-10.1-4.1-14.5-7.4c4.9-4.9,9.8-9.7,14.7-14.6c3.7-2.3,6.5,0.6,9.7,1.5
	c2.3,0.7,4.4,2,6.7,2.9c4.5,1.7,8.8,3.9,12.8,6.6c0.9,0.8,1.7,1.6,2.6,2.4c-3.7,3.3-7.4,6.5-11,9.8c-3.5-3.5-7-7-12.3-7.5
	c-4.4-0.9-6.5-5.2-10.5-6.7C133.7,583.2,137.6,587.1,135.6,591.8z M61.3,640.5c0.1,0.2,0.3,0.5,0.4,0.7c3.7,1.9,7.2,4.3,11.6,4.3
	c4.8,1.5,9.7,3,13.8,6.3c6.1-4,11.5-8.9,17-13.7c-3.3-2.6-7-4.4-10.8-6.1c-1.8,2.8,1.4,5.2,0.7,7.9c-3.8,0.3-6.6-3.7-10.4-1.9
	c-4.6-1.7-9.2-3.3-13.9-5C66.7,635.3,63.6,637.5,61.3,640.5z M97.7,607.4c1.6,5.4,7.3,5.2,11,7.7c2.3,0.7,4.4,2,6.6,2.8
	c3.5,1.2,6.7,4,10.8,2c4.4-3.7,8.9-7.5,13.3-11.2c-2.7-3.5-6.4-5.8-10.6-7.1c-2.1,2.9,2.1,5.1,1.2,8c-3.5-0.4-6.3-3.1-9.9-1.9
	c-5.4-2.1-10.8-4.1-16.1-6.2C101.5,603.1,99.4,605,97.7,607.4z M59,674.8c-0.2-0.5-0.5-1-0.9-1.4c-4.1-2.2-7.2-6.3-12.5-6
	c0.7,5.1,2.4,9.9,4.7,14.5C53.2,679.6,56.1,677.2,59,674.8z M88.2,616.1c3.4,3.5,8.4,3.8,12.4,6.1c-1.2-4.7-2.5-9.5-3.7-14.2
	C93.6,610.2,90.8,613.1,88.2,616.1z M61.7,640.8c0,0-0.4-0.3-0.4-0.3c-3.1,2.1-6.1,4.3-8.5,7.3c3.6,3,7.8,4.9,12.2,6.2
	C66.6,648.9,65.1,644.6,61.7,640.8z M67.8,667.7c-3.7-2.7-8-3.9-12.3-5.2c-1.6,4.5,0.3,8.4,2.3,12.2c0.4,0,0.8,0.1,1.2,0.1
	C62.2,672.7,65.2,670.5,67.8,667.7z"/>
<path style="fill:#CFDF00;" d="M97.7,607.4c3.2,3.3,7.8,3.9,11.5,6.3c3.9,4.1,6.7,8.7,6,14.7c0,0,0,0,0,0c-4.9-2.1-9.7-4.2-14.6-6.2
	c-3.4-4.2-5.2-8.8-3.7-14.2C97,607.7,97.3,607.5,97.7,607.4z M165,580.9c-4.9-7.2-11-13.4-17-19.7c1.3,4.9,2.6,9.7,3.8,14.6
	C156.4,577.1,160.1,580.5,165,580.9z M76.3,659.6c-1.1-5.2-2-9.7-3-14.1c-3.7-2.1-7.4-4.2-11.7-4.7c1.1,4.4,2.2,8.8,3.3,13.2
	C68.2,656.6,71.8,658.2,76.3,659.6z M41.6,657.7c1.6,3.9,2.8,6.8,3.9,9.8c4.1,2.4,8.1,4.8,12.2,7.3c0-4.2-1.2-8.2-2.3-12.2
	C51.3,660.5,47.1,658.5,41.6,657.7z M149.5,598.9c-2-5.2-3.6-9.3-5.2-13.3c-3-4.5-7.8-6.6-13.2-10.3c1.7,6.4,3.1,11.5,4.5,16.5
	C139.6,594.7,144.2,596.4,149.5,598.9z M114.5,592.5c2.1,5.9,3.8,10.5,5.5,15.1c4.2,1.6,8.4,3.1,13.9,5.2c-2.1-4.6-3.6-7.9-5.1-11.3
	C125,597.9,120.4,595.6,114.5,592.5z M79.7,624.5c1.6,5.5,2.7,9.5,3.9,13.5c4.2,1.6,8.4,3.2,13.8,5.3c-1.7-4.6-2.9-8-4.1-11.3
	C89.1,629.7,84.9,627.4,79.7,624.5z"/>
</svg>
