<?xml version="1.0" encoding="utf-8"?>
<!-- Generator: Adobe Illustrator 24.0.0, SVG Export Plug-In . SVG Version: 6.00 Build 0)  -->
<svg version="1.1" id="Layer_1" xmlns="http://www.w3.org/2000/svg" xmlns:xlink="http://www.w3.org/1999/xlink" x="0px" y="0px"
	 viewBox="0 0 612 612" style="enable-background:new 0 0 612 612;" xml:space="preserve">
<path style="fill:#D8092C;" d="M135.6,494.5c-12.5-0.2-24.9-0.7-37.2-3.6c-17.3-4.2-28.9-14.5-34.1-32.1c9.8-1,19.4,0.5,29-1.2
	c19.2-3.4,33.3-13.4,41-31.4c1.3-3.1,3-3.5,5.9-3.5c16.4,0,32.8-0.1,49.2-0.1c1.7-1.3,3.7-1.6,5.8-1.6c22,0,44-0.2,65.9,0.1
	c29.7-0.2,59.5-0.3,89.2,0c9,0.1,18-0.7,27,0.5c2.1,0.6,2.7,2.4,3.3,4.2c5.4,15.7,13,30.4,21.9,44.5c4.1,6.5,3.7,7.6-2.4,12.4
	c-8.5,6.8-18.3,10.6-28.8,12.9c-1.3,0.3-2.6,0.3-3.9,0.5c-41.4,0.2-82.8,0.3-124.2,0c-33.8,0.3-67.5,0.1-101.3,0.1
	C139.7,496.1,137.5,495.9,135.6,494.5z M195.7,370.9c21.8,0,43.6,0.2,65.4-0.1c29.5,0.3,58.9,0.2,88.4,0c1.3-0.1,2.6-0.1,3.9-0.5
	c10.6-2.4,20.7-6.2,29.3-13.2c5.4-4.4,5.9-5.7,2.2-11.6c-8.9-14.2-16.7-29-22.1-44.9c-0.6-1.8-1.3-3.5-3.3-4.2c-9-1.2-18-0.4-27-0.5
	c-17.8-0.3-35.7-0.2-53.5,0c-15.8-0.3-31.6-0.1-47.4-0.1c-2.3,0-4.5,0.2-6.4,1.6c-10.4,0-20.9,0.2-31.3,0.1c-3.3-0.1-4.7,1.1-6,4.1
	c-9.9,22.5-27.4,35.3-51.4,39.8c-5.9,1.1-12,0.4-18.3,1.2c10.1,15.7,23.6,24.1,41.6,25.6c9.9,0.8,19.7,0.7,29.6,1.1
	C191.2,370.7,193.5,370.9,195.7,370.9z M353.5,188.5c-9.9,0-19.7-0.2-29.6,0.1c-11.9-0.2-23.7-0.2-35.6,0
	c-6.1,0.1-12.2-0.7-18.3,0.6c-1.8,0.7-2.4,2.3-2.9,3.8c-5.5,16.1-13.4,30.9-22.3,45.3c-3.5,5.6-3,7,2,11.2
	c8.7,7.2,18.9,10.9,29.6,13.4c1.3,0.3,2.6,0.3,3.9,0.5c17.6,0.2,35.1,0.2,52.7,0c15.8,0.3,31.6,0.1,47.4,0.1c2.2,0,4.5-0.2,6.4-1.6
	c11.5-0.2,23.1-0.1,34.4-2.4c15.3-3.1,27.8-10.6,36.6-24c-0.8-0.3-1.2-0.5-1.5-0.5c-1.3,0-2.6,0-3.9,0
	c-30.2-0.6-52.3-13.7-64.6-41.7c-1.1-2.6-2.6-3-5-3c-7.6,0.1-15.3-0.1-22.9-0.1C358,188.7,355.8,188.5,353.5,188.5z M319.8,81.3
	c-9.2-0.3-18.4-0.3-27.6,0c-1.5,0-2.9,0.5-4,1.5c-2,1.7-3.9,3.5-5.9,5.2c-24.2,19.8-50.1,34.9-83.9,31.1
	c12.7,20.4,26.5,37.9,53.6,35.6c1.9,1.4,4.1,1.6,6.4,1.6c9.8,0,19.7,0.2,29.6-0.1c11.7,0.2,23.4,0.2,35.1,0c2.6,0,5.2,0.1,7.7-0.4
	c11.7-2.9,21.2-8.7,27.2-19.5c4.1-7.2,3.4-9.1-4.4-12.3c-15.1-6.2-24.1-17.4-27.1-33.4c-0.4-2.2-1-4.3-1.7-6.4
	c-0.3-0.4-0.6-0.8-1-1.2C322.7,81.8,321.3,81.4,319.8,81.3z"/>
<path style="fill:#A5001E;" d="M372,494c10.6-2.4,20.3-6.7,28.9-13.5c3.1-2.5,4-4.4,1.5-8.2c-9.8-15.5-18.8-31.4-23.7-49.3
	c1.6-2.1,3.9-2,6.1-2c10.6-0.1,21.3-0.1,31.9,0c2.1,0,4.1,0.2,5.8,1.6c16.4,0.1,32.8,0.2,49.2,0.1c2.8,0,4.5,0.3,5.9,3.4
	c9.4,21.3,26.7,31.1,49.3,32.3c6.7,0.4,13.4,0.1,20.7,0.1c-4.1,13.6-11.7,23.6-24.7,29.1c-11.2,4.8-23,5.7-34.9,6.5
	c-3.9,0.3-7.8,0.2-11.7,0.3c-2.2,1.8-4.9,1.6-7.5,1.6c-29.7,0-59.3,0-89,0C377.1,496.1,374.1,496.6,372,494z M361.9,370.9
	c17.7,0.1,35.4,0.1,53.2,0c2.6,0,5.3,0.1,7.5-1.6c10.4-0.4,20.8-0.2,31.2-1.3c17.5-1.8,30.5-10.3,40-25.5c-1.3-0.1-2-0.2-2.7-0.2
	c-31.5,0.2-54.9-12.7-67.6-42.3c-1.1-2.6-2.9-2.4-4.9-2.4c-10.6,0-21.2-0.1-31.8-0.2c-7.8-3.1-15.7-1.4-23.7-1.1
	c-0.9,0-1.7,0.7-2.3,1.5c4.8,17.9,13.8,33.8,23.7,49.3c2.4,3.8,1.6,5.7-1.5,8.2c-8.5,6.9-18.4,10.9-28.9,13.5
	C356.2,371.4,359.1,370.9,361.9,370.9z M252.2,190.1c-7.4,0.1-14.9,0.3-22.3,0.1c-3.3-0.1-4.7,0.9-6.1,4
	c-9.8,22.5-27.3,35.4-51.4,39.9c-5.9,1.1-12,0.3-18.3,1.4c8.2,12.1,19,19.4,32.4,23c12.7,3.4,25.8,3.2,38.8,3.5
	c1.9,1.5,4.1,1.6,6.4,1.6c12.5,0.1,25,0.1,37.5,0c2.4,0,4.9,0.2,6.7-2c-10.5-2.6-20.3-6.6-28.9-13.5c-3.1-2.5-4.3-4.6-1.5-8.2
	c2.2-2.7,4-5.8,5.6-8.9c6.9-13.1,14.5-25.9,18-40.4C263.6,187.3,257.9,187.8,252.2,190.1z M359.8,154.7
	c25.7,4.5,46.3-20.5,52.7-35.7c-14.4,2.4-28.1-0.2-41.5-5.4c-17.4-6.7-32.2-17.5-46.2-29.5c-0.2,0.3-0.6,0.6-0.6,0.9
	c1.3,18.4,12.1,34.3,29.8,40.5c6.3,2.2,6.6,3,3.4,9c-5.6,10.4-14.5,16.6-25.7,19.6C341,158,350.4,157,359.8,154.7z"/>
<path style="fill:#CBCBCB;" d="M243.3,547.8c-35.9,0-71.7,0-107.6,0c0-17.8-0.1-35.5-0.1-53.3c35.9,0,71.8-0.1,107.7-0.1
	c1.8,2,1.7,4.4,1.7,6.8c0.1,13.3,0.1,26.6,0,39.8C245,543.4,245.2,545.9,243.3,547.8z M368.7,494.4c-1.8,2-1.7,4.4-1.7,6.8
	c-0.1,13.3-0.1,26.6,0,39.8c0,2.4-0.2,4.8,1.7,6.8c35.9,0,71.8,0,107.6,0c0-17.8,0-35.5,0-53.3c-12.1-0.1-24.2-0.1-36.2-0.2
	c-22.7-0.1-45.4-0.2-68-0.3C370.9,494.2,369.8,494.3,368.7,494.4z M189.4,422.6c23.9,0,47.9,0,71.8,0c1.9-1.9,1.8-4.4,1.8-6.8
	c0.1-13.3,0.1-26.6,0-39.9c0-2.4,0.1-4.8-1.7-6.8c-24,0-47.9,0.1-71.9,0.1C189.3,387.1,189.3,404.8,189.4,422.6z M350.7,369.2
	c-1.8,2-1.7,4.4-1.7,6.8c-0.1,13.3-0.1,26.6,0,39.9c0,2.4-0.1,4.9,1.8,6.8c9.3,0.1,18.6,0.3,27.9,0.4c14.6-0.1,29.2-0.3,43.8-0.4
	c0-17.8,0-35.5,0-53.3c-2.8-0.1-5.6-0.2-8.3-0.2c-20-0.1-40.1-0.2-60.1-0.3C353,369,351.8,369.1,350.7,369.2z M225.2,297.4
	c18,0,36,0,53.9,0c0.5-0.5,1.1-1.1,1.2-1.8c1-10.6,1-21.2,0-31.8c-0.1-0.7-0.6-1.3-1.1-1.9c-1.1-0.1-2.2-0.2-3.3-0.3
	c-16.8,0.2-33.7,0.3-50.5,0.5C225.3,273.8,225.2,285.6,225.2,297.4z M386.8,262c-18,0-36-0.1-54-0.1c-2.9,11.7-2.5,23.4-0.3,35.1
	c0.1,0.7,0-0.2,0.3,0.4c9.3,0.1,18.6,0.3,27.9,0.4c8.6-0.1,17.3-0.3,25.9-0.4C386.7,285.6,386.8,273.8,386.8,262z M288.1,190.1
	c0.4-0.4,0.9-0.8,1-1.3c1.4-10.9,1.4-21.8,0-32.7c-0.1-0.6-0.6-0.9-1-1.4c-12,0-24,0-36,0c0,11.8,0.1,23.6,0.1,35.4
	c5.7,0.1,11.3,0.3,17,0.4C275.4,190.4,281.7,190.3,288.1,190.1z M323.9,154.7c-2.9,11.8-2.9,23.6,0,35.4c12,0,24,0,36,0
	c0-11.8-0.1-23.6-0.1-35.4c-9.4-0.2-18.7-0.4-28.1-0.6C329.1,154.3,326.5,154.5,323.9,154.7z"/>
<path style="fill:#FED322;" d="M323.8,82.9c-11.9,0-23.8,0-35.7,0c0-7,0.2-14-0.2-21c-0.3-4.5,0.9-6.6,5.7-5.8c1.1,0.2,2.2,0,3.3,0
	c6-2.6,12-2.6,18.1,0c8.9,0.1,8.9,0.1,8.9,9.1C323.9,71.1,323.9,77,323.8,82.9z"/>
<path style="fill:#ED8600;" d="M476.3,547.8c22.2,0.1,44.4,0.2,66.6,0.1c3.7,0,6.2,1.1,8.8,3.7c10.3,10.5,20.8,20.8,31.8,31.8
	c-185.2,0-369.5,0-553.9,0c-0.4-0.3-0.8-0.7-1.1-1c5.6-5.2,11.3-10.4,16.9-15.8c6.3-6,11.5-14.6,19-17.7c7.5-3.1,17.2-0.9,26-0.9
	c15.1-0.1,30.2-0.1,45.3-0.2c1.7-1.4,3.7-1.6,5.8-1.6c33.9,0,67.8-0.2,101.7,0.1c41.8-0.2,83.6-0.3,125.4,0
	c33.9-0.3,67.9-0.1,101.8-0.1C472.5,546.2,474.6,546.4,476.3,547.8z M315,33.9c0-13.9,0-13.8-14-13.5c-3.2,0.1-4.1,1-4,4.1
	c0.2,10.6,0,21.1,0,31.7c6,0,12,0,18.1,0C315,48.7,315,41.3,315,33.9z"/>
<path style="fill:#FEFEFE;" d="M368.7,494.4c0,17.8,0,35.6,0,53.4c-41.8,0-83.6,0-125.3,0c0-17.8,0-35.6,0-53.4
	C285.1,494.4,326.9,494.4,368.7,494.4z M261.2,369.2c0,17.8,0,35.6-0.1,53.4c29.9,0,59.8,0,89.6,0c0-17.8-0.1-35.6-0.1-53.4
	C320.9,369.2,291.1,369.2,261.2,369.2z M279.2,261.9c0,11.8,0,23.7,0,35.5c17.9,0,35.8,0,53.8,0c0-11.8,0-23.7-0.1-35.5
	C314.9,261.9,297,261.9,279.2,261.9z M288.1,154.7c0,11.8,0,23.6,0,35.4c12,0,23.9,0,35.9,0c0-11.8,0-23.6,0-35.4
	C312,154.7,300,154.7,288.1,154.7z"/>
</svg>
