<?xml version="1.0" encoding="utf-8"?>
<!-- Generator: Adobe Illustrator 24.0.0, SVG Export Plug-In . SVG Version: 6.00 Build 0)  -->
<svg version="1.1" id="Layer_1" xmlns="http://www.w3.org/2000/svg" xmlns:xlink="http://www.w3.org/1999/xlink" x="0px" y="0px"
	 viewBox="0 0 612 459" style="enable-background:new 0 0 612 459;" xml:space="preserve">
<path style="fill:#132E42;" d="M456.5,302.9c0.5,25.4,0.4,50.8,0.1,76.2c-0.1,15.1-8.1,26.7-19,36.3c-19.5,17.2-43.1,25.7-67.9,31.9
	c-11.9,3-24,3.5-36.1,4.2c-1.5,0.1-3.1-0.4-4.5,0.6c-15.8,0-31.7,0-47.5,0c-6.6-1.3-13.4-0.9-20-1.7c-31.7-4-61.3-13.4-86.3-34.2
	c-13-10.9-20.6-24.5-20.2-42.1c0.5-22.8-0.2-45.6,0.3-68.5c-3.6,1.7-7.5,0.9-11.3,0.7c-25.5-1.5-50.6-5.4-74.7-14.2
	c-14.7-5.4-28.7-12.2-40.9-22.4c-10-8.3-18-17.8-19.4-31.4c0-49.7,0-99.4,0-149.1c2.7-0.2,3.1,2,3.7,3.7
	c4.8,13.5,14.2,23.1,25.8,30.9c19.8,13.4,42.1,20.8,65.4,25.1c50.3,9.4,99.9,6.8,147.8-12.1c16.1-6.3,30.8-15.1,41.8-28.9
	c3.5-4.4,6.2-9.2,8.1-14.5c0.8-2.3,1.6-5.8,4.5-5.1c3.3,0.8,2.5,4.2,1.8,6.8c-1.2,4.4,0.2,8.8,0.1,13.2c-0.2,13.1,0,26.1-0.1,39.2
	c0,2.7,0.3,5.4-1,7.9c-2.1,3.4-5.5,3.1-8.8,3.2c-27.3,0.8-54.1,5-79.9,14.3c-14.6,5.3-28.3,12.3-40.1,22.5
	c-11.2,9.7-19,21.2-18.8,36.7c0,2.2,0,4.5-2,6.1c0.3-0.1,0.7,0,1.1,0.2c1.1,0.6,1.8,1.5,2.2,2.6c11.1,26.4,34.3,38,59.2,47.1
	c20.9,7.7,42.7,11.5,65,13.1c39.9,2.8,78.6-1.6,115.8-16.6c15.8-6.4,30.4-15,41.3-28.8c3.4-4.3,5.7-9.1,8.1-14
	c0.9-1.9,1.7-5.4,5.2-2.3c0.7,1.2,1,2.5,1,3.9C456.7,263.1,457.2,283,456.5,302.9z M586.2,116.3c-12.5,11.4-27.2,19.5-43.1,25.1
	c-21.7,7.7-44,12.1-67,13.8c-22,1.6-43.8,0.7-65.5-2.4c-14.7-2.1-29-6.1-43.1-10.5c-1,4.2,2.2,6.3,4.4,8.8
	c5.9,6.6,12.9,12.1,18.4,19.1c1.6,1.8,3.9,2.5,6,3.4c10.2,4.1,20.2,8.8,29.2,15.2c14.5,10.2,25.9,22.6,27.2,41.5
	c0.1,0.8,0.4,1.5,0.8,2.2c21.5,21.6,43,43.1,64.7,64.5c3-0.7,6-1.3,8.9-2.2c31.7-10.2,62.4-21.8,75.7-56.5c0-49.7,0-99.4,0-149.1
	C599.6,99.6,594.3,108.9,586.2,116.3z"/>
<path style="fill:#337A5C;" d="M307.3,93.6c-0.1-1.5-0.2-3-0.4-4.6c-0.7,0.2-1.3,0.3-1.3,0.5c-4.8,18.4-17.6,30.1-33.2,39.5
	c-24.4,14.7-51.3,21.3-79.3,25c-15.7,2-31.5,2.9-47.3,2.1c-33.3-1.6-65.8-7.5-95.8-23c-13.1-6.8-24.9-15.2-33.4-27.7
	c-3.4-5-4.9-10.8-7.3-16.2c0-4.6,0-9.2,0-13.9c1.4-18.5,13.9-29.3,27.8-38.8c20.5-14,43.7-20.8,67.7-25.7c12-2.5,24.2-2.5,36.2-2.9
	c20.6-0.6,41.4-1,61.8,1.8c24,3.3,47.2,10.1,68.4,22.4c14.8,8.6,27.5,19.2,34.5,35.7c16.4-31.3,45.4-43.2,76.2-52.5
	c18.3-5.5,37-7.3,56-7.6c20.4-0.3,41-0.9,61.2,1.9c25.6,3.5,50.1,10.9,72.4,24.6c5.8,3.6,11.2,7.6,16.1,12.2
	c8.3,7.8,14.5,16.9,15.1,28.8c0,4.6,0,9.2,0,13.9c-1.3,18.5-13.8,29.3-27.7,38.8c-20.6,14.1-44,21.3-68.2,25.8
	c-41.7,7.7-83.2,6.4-124.3-4.4c-5.1-1.3-9.7-3.6-14.8-4.9c-16.8-5.7-32.4-13.8-45.5-25.8C314.9,111.9,307.6,104.7,307.3,93.6z
	 M378.8,163.1c-18.9-5.4-38.3-7.9-57.9-9.2c-5-0.3-10.4-1.8-15,2.1c-11.9-0.1-23.8,0.9-35.6,2.3c-28.3,3.5-55.6,10.4-80.1,25.5
	c-20.1,12.4-35.1,28.2-32.7,54.3c1.3,3,2.5,6,3.9,8.9c7.8,16,21.5,25.9,36.7,33.8c30,15.6,62.5,21.3,95.9,23
	c15.8,0.8,31.5-0.1,47.3-2.1c25.2-3.2,49.7-9.1,72.3-21c11.3-5.9,21.7-13,29.9-23.1c4.9-6,7.6-12.9,10.7-19.6c2-1.9,1.6-3.8,0.1-5.7
	c-0.2-3.1-0.1-6.2-0.7-9.2c-3.1-15.5-13.2-26-25.3-35c-11.5-8.6-24.8-13.8-37.8-19.4C387.3,165.6,383.1,164.3,378.8,163.1z"/>
<path style="fill:#0B2635;" d="M454.3,238.1c0-1.9,0.1-3.8,0.1-5.7c2.4,0.1,3.7,2,5.1,3.4c18.7,18.6,37.4,37.2,56,55.9
	c1.3,1.3,3.9,2.3,2.6,5.1c-20.9,5.3-42.2,7.4-63.7,7.3C454.4,282.2,454.3,260.2,454.3,238.1z M387.9,164.5
	c-6.7-7.5-15-13.6-20.5-22.2c-3-1.2-6.1-2.3-9-3.7c-21.6-9.8-41.6-21.6-51.1-45c-1.7,1.7-1.2,3.9-1.2,6c0,18.8,0,37.6,0,56.4
	c14.8,0,29.5,1.3,44.2,3.4c13.7,2,27,5.9,40.4,9.4C391.6,166.3,389,165.7,387.9,164.5z"/>
<path style="fill:#F2F2F2;" d="M162.5,26.6c28.3,0.6,60.9,4.3,91.5,18.4c9.3,4.3,18,9.7,25,17.4c11.4,12.7,11.3,27.3-0.3,39.8
	c-8.9,9.5-20,15.6-32,20.2c-34.8,13.5-71.1,16.7-108.1,14.5c-24-1.4-47.5-5.5-69.9-14.5c-11.2-4.4-21.7-10-30.4-18.6
	c-14-14-14.1-29.7-0.1-43.6C51.5,47.4,68.2,41,85.5,36C109,29.3,133.2,26.7,162.5,26.6z M530,127.2c16.1-5,31.7-11.3,43.9-23.5
	c13.8-13.7,13.8-29.4,0.1-43.1c-10.3-10.4-23.2-16.4-36.8-21.2c-20.7-7.3-42.1-10.9-64-12.2c-37.7-2.1-74.8,1.1-110.2,15.5
	c-11.3,4.6-21.9,10.6-30.2,19.8c-11.1,12.4-11,26.5,0,39c7,7.9,15.9,13.4,25.4,17.8c30.6,14.1,63.2,17.8,92.3,18.4
	C480.2,137.5,505.5,134.7,530,127.2z M381.7,275.1c16.1-5,31.7-11.3,43.9-23.5c13.8-13.7,13.8-29.4,0-43.1
	c-10.3-10.3-23.2-16.3-36.8-21.1c-20.7-7.3-42.1-10.9-64-12.2c-36.8-2.1-72.9,1-107.5,14.4c-12,4.6-23.1,10.6-32.1,20.1
	c-12,12.7-12.1,27.4-0.4,40.2c7,7.7,15.7,13,25,17.3c30.6,14.1,63.2,17.8,92.3,18.3C331.9,285.5,357.1,282.7,381.7,275.1z"/>
<path style="fill:#EFE556;" d="M177.9,90.7c-0.3,5.6-3.5,9.2-7.9,12c-15.1,9.8-44.4,9.6-59.3-0.4c-4.2-2.8-7.1-6.5-7.3-11.8
	c-2.2-5.1,1.6-7.9,4.7-10.4c6.8-5.6,15.1-7.9,23.7-8.9c13.6-1.8,26.8-0.4,38.8,6.9C174.9,80.8,180.1,83.8,177.9,90.7z M467.3,78.1
	c-11.9-7.3-25.1-8.6-38.8-6.9c-8.6,1-16.9,3.3-23.7,8.9c-3.1,2.6-6.8,5.3-4.7,10.4c0.3,5.8,3.5,9.9,8.4,12.3
	c19.2,9.6,38.6,9.8,57.7,0c4.8-2.5,8.2-6.5,8.5-12.3C476.8,83.8,471.6,80.8,467.3,78.1z M318.9,226c-11.9-7.3-25.1-8.6-38.8-6.9
	c-8.6,1-16.9,3.3-23.7,8.9c-3.1,2.6-6.8,5.3-4.7,10.4c0.3,5.8,3.5,9.9,8.4,12.3c19.2,9.6,38.6,9.8,57.7,0c4.8-2.5,8.2-6.5,8.5-12.3
	C328.5,231.7,323.3,228.7,318.9,226z"/>
<path style="fill:#F22745;" d="M177.9,90.7c-3.7-11.9-14.1-14.1-24.2-16.6c-7.3-1.8-14.9-1.2-22.3-1c-2.3-5.9,1.4-11,9.1-12.6
	c16.2-7.2,32.7-8.1,49.5-2.5c2.4,0.8,4.7,1.8,6.8,3.1c11.6,6.9,11.6,16.6,0.2,23.6C191.2,88.2,184.7,90,177.9,90.7z M498.3,81.1
	c5.4-5.1,5.3-10.9,0.3-16.2c-3.3-3.5-7.4-5.5-11.8-7c-16.8-5.6-33.4-4.7-49.5,2.5c-7.7,1.6-11.4,6.7-9.1,12.6c7.5-0.2,15-0.8,22.3,1
	c10.1,2.5,20.5,4.7,24.2,16.6C483.4,89.5,491.7,87.4,498.3,81.1z M350,229.1c5.4-5.1,5.3-10.9,0.3-16.2c-3.3-3.5-7.4-5.5-11.8-7
	c-16.8-5.6-33.4-4.7-49.5,2.5c-7.7,1.6-11.4,6.7-9.1,12.6c7.5-0.2,15-0.8,22.3,1c10.1,2.5,20.5,4.7,24.2,16.6
	C335,237.5,343.4,235.4,350,229.1z"/>
</svg>
