<?xml version="1.0" encoding="utf-8"?>
<!-- Generator: Adobe Illustrator 23.0.3, SVG Export Plug-In . SVG Version: 6.00 Build 0)  -->
<svg version="1.0" id="Layer_1" xmlns="http://www.w3.org/2000/svg" xmlns:xlink="http://www.w3.org/1999/xlink" x="0px" y="0px"
	 viewBox="0 0 612.2 613.5" style="enable-background:new 0 0 612.2 613.5;" xml:space="preserve">
<path style="fill:#008C36;" d="M301.4,318c0,59.3,0,118.7,0,178c0,17.3-6.3,31.6-20.2,42.5c-18,14.1-35.8,28.6-53.5,43.1
	c-6,4.9-12.6,7.3-20.3,7.3c-56.8,0-113.5,0.1-170.3-0.1c-16.5,0-27.6-11.5-27.6-28c0-65.1,0-130.2-0.1-195.4c0-13,5.8-22,17.7-27
	c28.5-12,57.1-24.1,85.7-36c15.1-6.2,31-8.4,47.3-8.3c2,0.9,2.7,2.8,3.4,4.7c4.7,11.9,14,16.8,26.1,17.2c11.9,0.4,23.9,0.1,35.8,0.1
	c22.3,0,44.5,0,66.8,0C295.4,316.3,298.7,315.6,301.4,318z"/>
<path style="fill:#1D70B7;" d="M452.1,294.2c19.6-0.3,38.2,3.9,56.1,11.8c24.9,10.9,50,21.4,75.2,31.8c13.4,5.5,19.4,15,19.4,29.6
	c-0.2,63.7-0.5,127.5,0.1,191.2c0.2,16.6-10.7,30.8-30.3,30.6c-37.2-0.4-74.5-0.1-111.7-0.1c-18.1,0-36.2-0.1-54.4,0
	c-8.7,0.1-16.2-2.5-23-8.1c-18.6-15.3-37.7-30-56.2-45.4c-11.3-9.4-16.5-22.4-16.5-37c-0.2-60.1-0.1-120.3-0.1-180.4
	c2.7-2.4,6-1.7,9.1-1.7c32.8-0.1,65.6,0,98.4,0c4.6,0,9.1-0.3,13.5-1.7c7.2-2.2,12.6-6.5,15.8-13.5
	C448.7,298.6,449.3,295.7,452.1,294.2z"/>
<path style="fill:#E23041;" d="M452.1,294.2c-5.5,17.6-13.6,23.5-32.3,23.5c-34,0-67.9,0-101.9,0c-2.4,0-4.8,0.2-7.1,0.3
	c-3.1,0-6.3,0-9.4,0c-30.6-0.1-61.2-0.2-91.7-0.3c-6,0-11.9,0-17.9,0c-18.1,0-26.3-6.1-31.7-23.5c0-53.7,0.1-107.5,0.1-161.2
	c0-25.7,0-51.4,0-77c0-19.5,10.6-30.2,30.3-30.3c57.1-0.1,114.3,0,171.4,0c19.7,0,39.4,0,59.1,0c20.4,0.1,30.9,10.6,30.9,30.8
	C452,135.8,452,215,452.1,294.2z"/>
<path style="fill:#F4F4F4;" d="M22.9,462.5c0-31.9,0-63.7,0-95.6c0-11.4,5-16.5,16.2-16.5c56,0,111.9,0,167.9,0
	c10.2,0,15.4,5.2,15.4,15.4c0,64.7,0,129.5,0,194.2c0,10-5.1,15.2-15,15.2c-56.6,0-113.1,0-169.7,0c-9.8,0-14.9-5.3-14.9-15.3
	C22.8,527.5,22.9,495,22.9,462.5z"/>
<path style="fill:#F4F4F4;" d="M389.8,463c0-32.3,0-64.5,0-96.8c0-10.7,5-15.8,15.6-15.8c56.2,0,112.3,0,168.5,0
	c10.1,0,15.4,5.4,15.4,15.5c0,64.3,0,128.7,0,193c0,11.6-4.6,16.2-16.3,16.2c-56.2,0-112.3,0-168.5,0c-9.6,0-14.7-5.1-14.7-14.8
	C389.7,527.9,389.8,495.5,389.8,463z"/>
<path style="fill:#F4F4F4;" d="M306.6,39.4c38.4,0,76.9,0,115.3,0c11.8,0,16.7,4.8,16.7,16.6c0,77.1,0,154.2,0,231.3
	c0,11.9-4.8,16.6-16.7,16.6c-76.9,0-153.8,0-230.7,0c-13.1,0-17.6-4.5-17.6-17.5c0-76.3,0-152.6,0-228.9c0-13.9,4.2-18.1,18.2-18.1
	C230.1,39.4,268.3,39.4,306.6,39.4z"/>
<path style="fill:#008C36;" d="M164.4,459.7c3,1.1,5.6,2,8.2,3.2c12.9,5.8,21.4,14.8,22.7,29.6c1.3,15.6-3.7,28.2-16.8,37.2
	c-11.2,7.7-24.1,10.5-37.3,10.7c-28.9,0.3-57.8,0.1-86.6,0.3c-3.9,0-4.5-1.4-4.5-4.8c0.1-48.4,0.1-96.8,0-145.2c0-4.1,1-5.4,5.2-5.4
	c28.1,0.2,56.2,0,84.2,0.2c9.4,0.1,18.7,1.1,27.5,4.9c13.7,5.8,22.5,15.4,23.4,31c1,16.3-6.2,27.9-20.6,35.3
	C168,457.3,165.9,457.5,164.4,459.7z"/>
<path style="fill:#1D70B7;" d="M509,382.1c14.7,0,37.4,11.1,53.4,35.2c2.3,3.5,2.7,5.4-1.6,7.7c-11.7,6.4-23.1,13.3-34.5,20.1
	c-2.2,1.3-3.7,2.4-5.6-0.8c-9.2-16.5-25.7-18-36.1-14c-12.9,5-20.9,20.3-19.1,36.5c2.2,19.4,14.2,31.3,30.9,30.4
	c11.1-0.6,19.1-6.4,24.7-15.6c2.1-3.5,3.7-3.5,7-1.6c11.1,6.6,22.3,13,33.8,19.1c4.2,2.2,4,3.9,1.7,7.6
	c-22.3,36.1-65.6,43.9-98.7,32c-36.1-12.9-56.6-48.2-51.4-86.7C419,410.5,452.1,382.2,509,382.1z"/>
<path style="fill:#E23041;" d="M404.8,257c-19.4,0-38.7,0-57.9,0c-2.1,0-3.3-0.7-4-2.8c-0.8-2.5-1.9-4.8-2.8-7.2
	c-5.1-12.8-5.1-12.8-18.6-12.8c-13.5,0-27.1,0.1-40.6-0.1c-3.7-0.1-5.7,0.9-7,4.6c-2.2,6.1-2.7,14.5-7.8,17.4
	c-4.8,2.8-12.4,0.8-18.8,0.9c-12.9,0-25.9,0-38.8-0.1c-0.3,0-0.7-0.2-1.5-0.6c5.8-13.9,11.6-27.8,17.4-41.7
	c17.2-41.1,34.4-82.1,51.4-123.2c1.6-3.9,3.6-5.3,7.8-5.2c15.3,0.3,30.7,0.2,46,0.1c2.8,0,4.7,0.5,6,3.5c22.9,55,45.9,110,68.8,165
	C404.7,255.3,404.7,255.9,404.8,257z"/>
<path style="fill:#F4F4F4;" d="M116.7,501.2c-5.1-0.6-12.2,2.3-15.2-1.2c-2.6-3-0.4-9.9-1.1-15c-0.8-6.1,1.7-7.3,7.2-6.9
	c6.5,0.5,13.1,0.2,19.7,0.1c2.6,0,5.1,0.3,7.6,1.1c5,1.6,8.4,4.6,8.5,10.2c0.1,5.6-3.2,8.7-8.2,10.4
	C129.2,502,122.9,500.6,116.7,501.2z"/>
<path style="fill:#F4F4F4;" d="M115.2,446.4c-4.7-0.2-10.9,1.2-13.8-1.2c-3.1-2.6-0.4-9-1-13.7c-0.8-5.6,1-7.8,6.9-7.2
	c7.9,0.8,15.9-0.9,23.7,1.2c7.1,1.9,10.3,7.9,7.5,14.1c-2,4.4-6,5.7-10.2,6.1c-4.3,0.4-8.7,0.1-13.1,0.1
	C115.2,446.1,115.2,446.2,115.2,446.4z"/>
<path style="fill:#F4F3F3;" d="M306.7,154.6c4.6,12.4,9.3,24.7,13.9,37c0.7,2-0.3,2.4-2,2.4c-9.1,0-18.1,0-27.9,0
	c4.6-12.4,8.9-24.1,13.4-35.7C304.6,157.1,304.5,155.4,306.7,154.6z"/>
</svg>
