<?xml version="1.0" encoding="utf-8"?>
<!-- Generator: Adobe Illustrator 23.0.3, SVG Export Plug-In . SVG Version: 6.00 Build 0)  -->
<svg version="1.0" id="Layer_1" xmlns="http://www.w3.org/2000/svg" xmlns:xlink="http://www.w3.org/1999/xlink" x="0px" y="0px"
	 viewBox="0 0 595.4 595.4" style="enable-background:new 0 0 595.4 595.4;" xml:space="preserve">
<path style="fill:#824C97;" d="M430.6,344.4c-3,0.8-2.1,3.3-2.3,5.3c-2.4,30.2-14.1,56.6-33.3,79.9c-18.7,22.7-44,35.2-70.4,46.2
	c-4,1.7-8,3.6-13,5.9c10.6,4.1,20.1,8.3,28.2,14.9c11.1,9.1,20.6,19.5,24.7,33.5c5.4,18.3-5.8,29.6-24.5,25.3
	c-11.8-2.7-20.4-10.5-29.2-18c-0.7-0.6-1.4-1.3-2.5-1.7c3.1,8.1,7.7,15.5,12.1,22.9c3,5.2,6.2,10.3,9.4,15.3c2.4,3.7,3.5,7.2-0.8,10
	c-4.2,2.7-6.8-0.2-8.9-3.5c-14.5-23.5-29-47.1-37.1-73.8c-0.2-0.7-0.7-1.4-1.3-2.6c-7.1,12.2-15.1,23.2-25,32.6
	c-5.8,5.4-11.7,10.7-18.8,14.4c-5.3,2.8-10.8,4.6-17,5.1c-15,1.1-23.9-10.8-18.7-25.8c6.5-19,19.8-32.4,37.2-41.8
	c3.6-1.9,7.3-3.5,11.4-5.4c-2.8-3.5-7-4.1-10.4-6c-39-21.9-63-54.8-72.6-98.3c-2.5-11.1-3.2-22.5-2.9-33.9c3.4-3.2,7.4-4.5,12.1-3.5
	c1.7,2.6,1.2,5.6,1.2,8.5c0,36,12.8,67,37.7,92.6c14.9,15.3,32.7,26.4,53.4,32.7c5.9,1.8,6,1.2,6-4.7c-0.1-15.1,1.5-30,4.3-44.9
	c3.6-19.4,8.5-38.5,10.8-58.1c1.3-10.9,2.4-21.9,0.8-32.9c-0.3-2.1-1.1-4.6,0.8-6.6c3.9-1.5,7.9-1.4,11.8-0.1
	c3.4,8.4,3.3,17.1,2.8,25.9c-1.6,28.7-9.4,56.4-14,84.6c-1.5,9.6-1.5,19.2-2.5,28.8c-0.2,1.9,0.4,3.8,0.7,5.7c0.4,3,2.1,3.6,4.5,2.3
	c22.1-11.5,46.5-18.4,66.9-33.2c31.8-23,49.8-54.3,53.2-93.6c0.2-2.7,0.3-5.4,2.5-7.5C422.5,339.9,427,340.8,430.6,344.4z"/>
<path style="fill:#008C36;" d="M20.9,212.4c-1.3-0.8-0.9-2.2-1.2-3.4c-7-32.8-0.6-62.9,18.2-90.4C51.5,99.1,70.2,86,92.3,77.9
	c24.6-9,49.8-10.5,75.2-3.6c6.6,1.8,13.5,3.3,18.8,8.3c0.9,3.1-0.8,5.6-1.7,8.3c-7,20.7-10.2,41.9-8.3,63.8
	c3.6,37.5,19.3,69.9,41.7,99.6c1.5,2,3.5,3.7,3.6,6.4c-4.3,12-12.2,21.9-20.3,31.4c-3.4,4-7.3,7.5-11,11.1
	c-12.8,12.5-28.3,16.1-45.5,13.1c-23.4-4.1-43.8-15.2-62.5-29.2c-22.6-17-42.1-37-55.5-62.3C24.7,220.9,23.4,216.4,20.9,212.4z
	 M188.8,66.6c-17.4-10.8-36.5-16.3-56.9-16.5c-23-0.2-44.6,5.7-64.4,17.4c-20.9,12.3-36.3,29.5-45.9,52c-8.1,18.9-10,38.8-8.4,58.9
	c0.8,10.4,2.1,21,6.6,30.7c-1.1-15.7-2.1-31.4,1.2-47.1c4.6-21.9,14.4-41.1,30.3-56.7C66,90.9,83.6,81.4,103.6,76
	c16.6-4.5,33.3-4.9,50.3-2.9c11.3,1.3,21.5,5.7,31.9,9.5c2.8-4.4,5.1-9,7-13.8C191.5,68,190.1,67.4,188.8,66.6z"/>
<path style="fill:#1D70B7;" d="M576.9,209.1c-0.3,2.4-0.8,4.8-2.4,6.8c-2.8,1.7-2.6,5-3.9,7.5c-13.4,26.3-33.4,46.8-56.7,64.2
	c-18.2,13.6-38.1,24.5-60.9,28.7c-18.7,3.4-35-0.7-48.8-14.7c-10.1-10.3-19.1-21.2-26.3-33.7c-1.2-2.2-2.7-4.3-2.9-6.9
	c0-2.6,1.8-4.2,3.2-6c18.9-24.6,32.8-51.6,39.6-82.1c1.6-7.2,1.8-14.5,3-21.7c0.7-21.5-2.3-42.5-9.8-62.7c-0.7-1.8-1.3-3.6-0.7-5.6
	c1.1-2,3.2-2.7,5.1-3.6c22.3-9.9,45.6-11.1,69.2-6.8c23.5,4.3,44.3,14.8,61.5,31.4c18,17.5,28.4,39.2,32.2,64
	C580.4,181.7,580.1,195.4,576.9,209.1z M413,82c21.2-10.1,43.6-12.2,66.5-8.7c28.1,4.3,52.1,16.4,71.1,38.1
	c18.2,20.8,26.4,45.1,27.3,72.4c0.3,8.5-1.1,16.9-1.1,25.4c6.8-19.6,8.4-39.6,5.8-60.1c-4.3-34-20.9-60.6-49.6-78.9
	c-26.7-17-56-23.6-87.7-17.9c-15.1,2.7-28.6,8.9-41.4,16.8c1.8,4.7,4.1,9.3,6.9,13.5C411.5,82.3,412.3,82.3,413,82z"/>
<path style="fill:#007A36;" d="M176.6,341.5c-3.9,1.1-7.9,2.2-11.8,3.4c-2.3-0.1-4.8,0-5.6-2.9c-0.7-2.7-0.1-4.9,2.4-6.4
	c2.6-1.6,2.5-4.4,2-6.7c-0.5-2.7-3.2-1.5-4.9-1.6c-17.2-1-33.1-6.6-48.1-14.8c-39.7-21.8-70.3-52.1-88.1-94.4
	c-0.7-1.8-1.8-3.4-1.6-5.5c3.9,6.5,7.7,13.1,11.7,19.6c10.5,17.3,24.3,31.7,39.4,45c13.3,11.7,27.9,21.2,43.9,28.6
	c13.2,6.1,26.8,10.3,41.7,10.2c12.3-0.1,22-5.1,30.7-12.7c13.6-12,24.3-26.2,32.5-42.4c3.5,0.7,5.5,3,6.3,6.4
	c-5.8,13.8-14,26.1-24,37.1c-5.8,6.4-11.9,12.6-19.5,17.1c-3.9,2.3-3.7,3.9,0,6.1c1,0.6,2.2,0.9,3.1,1.5c4.7,2.8,4.9,7.8,0.2,10.6
	C183.9,341.4,180.5,343,176.6,341.5z"/>
<path style="fill:#1D5AB7;" d="M430.6,344.4c-4.4-0.9-8.5-3-13.1-2.9c-3.3,1.1-6.1-0.5-8.5-2.4c-3.9-2.9-3.6-7.3,0.5-10
	c1-0.6,2.1-0.9,3.1-1.5c4.2-2.4,4.2-3.8,0.3-6.4c-19.9-13.2-32.8-32.1-43.3-53c-0.2-0.3-0.2-0.7-0.2-1.1c0.8-3.4,2.7-5.7,6.3-6.4
	c8.4,16.8,19.8,31.3,33.7,43.7c14.1,12.5,30.6,13.5,47.8,9.3c24.3-5.9,45.2-18.4,64.3-34.2c19.8-16.3,36.4-35.4,48.8-58
	c1.1-2,0.6-5.1,3.6-6.1c0.1,0,0.3,0.2,0.4,0.3c-8.4,24.5-23.5,44.5-41.8,62.2c-21.8,21.2-46.6,37.8-76.3,46.1
	c-6.1,1.7-12.4,2.6-18.8,3c-1.7,0.1-4.5-1.5-4.9,1.2c-0.4,2.3-0.4,5.3,1.9,6.9c2.5,1.8,4,3.7,2.9,6.7
	C436.2,345.3,433.3,344.9,430.6,344.4z"/>
<path style="fill:#B33041;" d="M375.8,260.8c-1.8,2.1-3.7,4.2-5.5,6.2c-0.5,2.3-1.6,4.2-3.3,5.9c-16.3,16-33.7,30.5-56.1,37.3
	c-3.2,1-2.9,2.3-1.4,4.4c0.9,1.3,2,2.3,3.3,3.2c2.6,2,4.7,4.3,3.2,7.8c-1.4,3.3-4.4,4-7.6,4.1c-1.6,0.1-3.1-0.2-4.4-1.1
	c-4.1,0-8.2,0-12.3,0c-2.1,1.6-4.4,1.3-6.6,0.6c-4.9-1.5-6.4-6.4-2.7-9.9c2.7-2.6,5.3-5.3,7.5-8.1c-17.5-4.6-32.7-13.9-46.4-25.9
	c-4.5-4-9.2-7.7-13.3-12.1c-1.8-1.9-3.2-3.8-3.8-6.3c-1.8-2.1-3.7-4.2-5.5-6.3c-14.5-18.8-27.2-38.7-35.5-61.1
	c-5.3-14.3-9.4-28.8-10.2-44.1c0.1-1.2,0.2-2.4,0.3-3.5c2.9,0.1,2.5,2.6,2.8,4.3c4,23.4,13,44.9,25.3,64.9c17.9,29,40,54,70.9,69.8
	c15.8,8.1,31.9,7.9,47.9,0c22.7-11.2,40.3-28.5,55.7-48c20.3-25.6,34.4-54.4,40.6-86.8c0.3-1.7-0.2-4.2,2.7-4.3
	c0.3,0,0.5,0.1,0.8,0.1c-3.3,40.4-20.1,75-44.8,106.3C376.7,259.1,376.3,260,375.8,260.8z"/>
<path style="fill:#FEFEFE;" d="M274.6,491.4c-7.2,15.4-16.8,28.7-29.4,39.8c-4.3,3.8-8.8,7.5-14.1,10.1c-3,1.4-6,2.7-9.3,3
	c-8.7,0.6-11.4-2.7-8.5-11.1c4.7-13.8,14.3-23.7,26.3-31.3c8.3-5.4,17.4-9.1,27.3-10.7C269.2,490.8,271.7,490.3,274.6,491.4z"/>
<path style="fill:#FEFEFE;" d="M346.4,544.3c-5.2,0.1-9.8-2-14-4.8c-17.1-11.3-29.8-26.6-38.9-44.9c-3-6,2.8-3.8,4.6-3.5
	c11.9,1.6,22.6,6.2,32.3,13.1c9.4,6.7,16.8,15.2,21.7,25.8c0.9,1.9,1.7,3.8,1.9,6C354.6,542.6,353,544.4,346.4,544.3z"/>
<path style="fill:#E23041;" d="M175.1,155.5c-1.8-8.8-0.9-17.6-0.3-26.3c1.2-16.2,5.5-31.6,11-46.7c1-5.3,3.4-9.8,7-13.8
	c6.5-9,13-18.1,21.3-25.7c18.4-16.9,40-26.9,64.8-30.2c24.9-3.3,49.1-1,72.2,9.4c21.3,9.6,38.2,24.3,50.7,44c0.6,1,1.4,1.8,2.2,2.6
	c3.6,3.8,5.8,8.4,6.9,13.5c4,11.9,8.1,23.8,9.7,36.4c1.4,11,2.4,22.1,1.6,33.2c-0.7,0.3-1.2,0.1-1.5-0.5c-2.4-8.8-2.8-17.9-5.4-26.7
	c-13.9-47.4-44.8-76.9-93.4-86.4c-32.1-6.2-62.9-0.9-90.7,16.9c-31.1,19.9-47.4,49.5-53.1,85.4c-0.6,3.8-1.4,7.6-1.3,11.5
	C176.6,153.6,176.3,154.8,175.1,155.5z M420.3,142.9c-4.3-32.2-17.6-59.6-42.9-80.5C347.6,37.8,313,30.5,275.9,36.7
	c-36,6-64.4,24.6-83,56.7c-10.5,18.1-16.1,37.8-17.5,58.6c0.3,0.5,0.9,0.9,1,1.4c3,20.6,10.2,39.8,20,58.1
	c16.8,31.3,39.1,57.6,69.4,76.6c13.4,8.4,28,13,44.1,9c16.4-4,29.9-13.3,42.2-24.2c31.2-27.8,53.3-61.6,64.8-102
	c1.8-6.2,3.1-12.6,4.6-18.8C421.7,148.9,420.7,145.9,420.3,142.9z"/>
</svg>
