<?xml version="1.0" encoding="utf-8"?>
<!-- Generator: Adobe Illustrator 23.0.3, SVG Export Plug-In . SVG Version: 6.00 Build 0)  -->
<svg version="1.0" id="Layer_1" xmlns="http://www.w3.org/2000/svg" xmlns:xlink="http://www.w3.org/1999/xlink" x="0px" y="0px"
	 viewBox="0 0 612.2 613.5" style="enable-background:new 0 0 612.2 613.5;" xml:space="preserve">
<path style="fill:#824C97;" d="M554.7,195c0,50.2,0.1,100.4,0,150.6c-0.4,113.2-75.4,210.8-184.3,240.2
	C234.5,622.5,94,537.4,63.5,399.9c-4-17.9-6-36.1-6-54.5c0-104.2,0-208.3,0-312.5c0-9.4,3.1-12.5,12.5-12.5c19.1,0,38.2,0,57.4,0
	c9.1,0,12.3,3.1,12.6,12c2.4,77.9,61.8,145.4,139.2,157.9c92.1,14.9,177.3-45.9,192.8-138c1.2-6.8,1.4-13.9,1.9-20.8
	c0.6-7.9,3.9-11.1,11.7-11.1c19.1,0,38.2,0,57.4,0c8.5,0,11.8,3.3,11.8,12C554.8,86.6,554.7,140.8,554.7,195z"/>
<path style="fill:#AB72C1;" d="M76.6,200.7c0-51.8,0.1-103.6-0.1-155.4c0-4.6,1.1-6,5.8-5.9c13.4,0.3,13.4,0.1,13.4,13.7
	c0,36.3,0,72.5,0,108.8c0,4.8,1.2,8.6,5.8,10.7c6.5,2.9,13.2-1.7,13.3-9.5c0.1-13.1,0-26.3,0-39.4c0-26.3,0-52.6,0.1-78.9
	c0-1.8-2-4.9,2.4-5.3c4.5-0.4,4.1,2.7,4.4,5.3c9.6,83.9,69.6,148.5,152.5,164.1c100.2,18.9,199.5-50.8,216.2-151.7
	c0.8-4.7,1.4-9.5,2-14.2c0.2-1.7-0.2-3.6,2.7-3.5c3.1,0.1,2.2,2.2,2.2,3.8c0,18.7,0,37.4,0,56.2c0,20.7,0,41.4,0,62.1
	c0,7.5,3.5,11.8,9.6,11.8c6,0,9.5-4.3,9.5-11.8c0-38.8,0.1-77.7-0.1-116.5c0-4.3,0.8-5.7,5.4-5.6c13.8,0.3,13.8,0,13.8,13.9
	c0,99.4,0.6,198.8-0.3,298.2c-0.9,103.3-76.9,195.4-177.6,217.6c-113.5,25-224-33.9-266.2-142.2c-10.3-26.4-14.9-54-14.9-82.3
	C76.6,296.7,76.6,248.7,76.6,200.7z"/>
<path style="fill:#824C97;" d="M308,498.7c-68.6-0.3-124.5-48.6-134.3-114.3c-2.9-19.4-1.6-38.5,4.2-57.2c1-3.4,1-5.2-2.9-7.2
	c-21.5-10.9-34.1-34.3-31.3-57c3.1-24.7,20.6-44.5,44.2-49.8c23.7-5.4,47.6,4.3,61,25.1c2.1,3.3,3.6,3.9,7.4,2.4
	c33.1-13.2,66.3-13.2,99.4,0c3.6,1.4,5.3,1.2,7.5-2.2c13.1-20.7,37.5-30.6,61-25.2c23.5,5.4,40.7,25,44,50
	c2.9,22.1-9.5,45.6-30.3,56.4c-4.3,2.2-4.7,4.2-3.4,8.5C457,402.5,408,482.3,331.8,496.3C323.2,497.9,314.5,498.9,308,498.7z"/>
<path style="fill:#FDFB72;" d="M420.9,365.1c-0.1,62.9-51.9,114.4-115.2,114.3c-63-0.1-114.4-51.9-114.3-115.2
	c0.1-63.2,52-114.5,115.8-114.3C369.7,250.1,421,302.1,420.9,365.1z"/>
<path style="fill:#30309A;" d="M449.6,272.9c-0.6,11-7,22.1-19.7,29.6c-3.2,1.9-4.8,1.2-6.5-1.9c-10.3-19-24.5-34.6-42.5-46.6
	c-3.3-2.2-2.9-3.8-1-6.6c9-13.6,26.8-19.9,43-14.9C438.8,237.4,449.6,252.3,449.6,272.9z"/>
<path style="fill:#30309A;" d="M162.7,272.4c0.1-20.3,11.5-35.5,27.4-40.1c15.7-4.5,33.2,1.7,42.1,14.9c2,3,2.5,4.7-1.1,7
	c-17.9,11.8-31.9,27.4-42.1,46.3c-1.9,3.6-3.8,3.8-7,1.8C169.4,294.6,163.2,283.3,162.7,272.4z"/>
<path style="fill:#824C97;" d="M104.1,336c6.3-0.1,10.3,3.7,10.7,9.3c6.3,76.3,46.2,130.1,111.8,166.6c11.1,6.2,22.8,11.1,34.6,15.8
	c5.7,2.3,8,7.5,6,12.5c-2,5.1-7.2,7.4-12.8,5.3c-51.8-19.6-95-50.3-125.3-97.5c-19.4-30.3-31-63.4-33.4-99.5
	c-0.3-4.7,0.4-8.8,4.8-11.3C102,336.5,103.6,336.2,104.1,336z M296.5,536.8c-5.4,0-9.8,4.7-9.5,10.1c0.3,5.2,4.8,9.2,9.9,9
	c5.2-0.2,9.3-4.6,9.2-9.8C306,540.9,301.7,536.8,296.5,536.8z M363.5,412.7c0-31.6-25.6-57.5-57.1-57.6
	c-31.9-0.1-57.7,25.7-57.7,57.6c0,31.6,25.7,57.2,57.4,57.2C337.8,469.9,363.4,444.3,363.5,412.7z M268.5,316.9
	c-5.5-0.3-10,3.9-10.2,9.3c-0.1,5.4,4.2,9.8,9.6,9.8c5.3,0,9.4-4,9.5-9.3C277.6,321.4,273.7,317.2,268.5,316.9z M353.9,325.8
	c-0.3-5.3-4.4-9.1-9.8-9c-5.3,0.1-9.3,4.2-9.3,9.5c0,5.5,4.4,9.7,9.9,9.6C350.2,335.9,354.2,331.4,353.9,325.8z"/>
<path style="fill:#30309A;" d="M340.4,396.7c7.7,16.1,3.2,34.9-10,45.4c-14.6,11.5-33.9,11.5-48.4,0c-13.3-10.5-17.7-29.5-10.1-45.2
	c9.2,10.4,20.4,15.8,34.3,15.7C320,412.6,331.2,407.6,340.4,396.7z"/>
<path style="fill:#30309A;" d="M306.5,393.4c-6.1-0.1-11.7-1.2-16.4-4.9c-4.1-3.2-4-5.9-0.2-9.3c7.5-6.6,24.6-6.7,32.4-0.2
	c4.1,3.4,4.1,6.4-0.2,9.7C317.3,392.2,311.9,393.3,306.5,393.4z"/>
</svg>
