<?xml version="1.0" encoding="utf-8"?>
<!-- Generator: Adobe Illustrator 23.0.3, SVG Export Plug-In . SVG Version: 6.00 Build 0)  -->
<svg version="1.0" id="Layer_1" xmlns="http://www.w3.org/2000/svg" xmlns:xlink="http://www.w3.org/1999/xlink" x="0px" y="0px"
	 viewBox="0 0 564 346.1" style="enable-background:new 0 0 564 346.1;" xml:space="preserve">
<path style="fill:#AB72C1;" d="M165.3,224c2.3,0.3,4.4,1.3,6.5,2.3c4.4,2.2,8.2,5.1,11.2,9c0.8,1,1.5,1.2,2.7,0.9
	c4-0.9,8-1.1,11.9,0.3c0.2,0.1,0.4,0.2,0.9,0.5c-2.5,0-4.7-0.2-6.9,0.2c-1.7,0.3-3.3,0.8-5,1.4c-0.7,0.3-1.1,0.6-0.6,1.5
	c2.4,4.4,2.7,9.1,1.8,13.9c-1.7,1-2.9-0.3-4.2-1c-0.3-0.6-0.2-1.3-0.1-1.9c0.4-2.8,0-5.5-0.5-8.3c-0.3-1.3-0.6-1.5-1.8-0.8
	c-1.7,1.1-3,2.4-4.3,3.9c-0.6,0.7-1,1.5-1.8,1.9c-2.1,0.1-3-0.4-3.6-2c1.8-3.3,4.8-5.3,7.9-7.1c0.2-0.1,0.4-0.2,0.6-0.3
	c1.1-0.6,1.2-0.6,0.5-1.7c-2.6-4-6-7.1-10-9.6c-1.5-0.9-2.9-1.8-4.5-2.5C165.8,224.5,165.4,224.4,165.3,224L165.3,224z M136.9,233.3
	c0.8,0.4,1.6,0.7,2.5,0.6c0.3-0.1,0.5-0.3,0.6-0.5c0.3-0.4,0.7-0.7,1.1-1.1c1.2-1.3,2.3-2.6,3.7-3.6c2.8-2.2,3.2-2.1,4.3,1.3
	c1.1,3.3,1.4,6.7,1.4,10.2c0.7,1.6,2.3,2.1,3.7,2.9c0.1,0.1,0.3-0.1,0.4-0.3c-0.1-1.1,0.5-2,0.5-3.1c0.1-4.5-1-8.7-3.1-12.6
	c-0.4-0.8-1.1-1.4-1.4-2.3c4-1.9,8.3-1.8,12.6-1.4c-4.2-1.4-8.5-2.1-12.9-1c-1.2,0.3-2.1,0.2-3-0.8c-1.1-1.3-2.5-2.3-3.9-3.3
	c-3.4-2.5-7-4.4-11-5.6c-0.1,0.2-0.1,0.4,0.1,0.5c0.1,0.1,0.3,0.2,0.4,0.3c4.8,2.2,8.7,5.4,12.3,9.2c0.8,0.9,0.8,0.9-0.2,1.5
	c-0.8,0.5-1.7,0.9-2.5,1.4c-2.4,1.6-4.7,3.4-6.1,6C135.8,232.4,136.1,232.9,136.9,233.3z M149.8,242.6c-0.9,4.1-3.2,7.1-6.8,9.1
	c-1.8,1-2.6,0.8-3.7-0.9c-1-1.5-1.5-3.2-1.7-5c-0.4-3.4,0.1-6.6,1.4-9.7c0.3-0.7,1-1.4,0.5-2.3c-0.8-0.2-1.6-0.4-2.3-0.7
	c-0.8-0.2-0.9-0.8-0.8-1.5c-0.1,0.1-0.3,0.2-0.4,0.3c-3.4,5.3-4,10.9-1.8,16.7c1,2.5,2.8,4.2,5.5,4.8c0.7,0.1,1.4,0.3,2,0.6
	c1.5,0.5,2.9,0.4,4.3,0c4.2-1.4,8.2-6.2,8.5-11.1c-1.4-0.5-2.4-1.5-3.6-2.4c-0.1-0.1-0.1-0.2-0.1-0.3
	C149.8,240.6,150,241.7,149.8,242.6z M183.1,254.4c-0.9,3.5-2.2,6.9-5.4,9c-1.3,0.9-2.8,1.5-4.3,0.7c-1.5-0.8-2.2-2.4-2.2-4.2
	c0.1-3.4,1.1-6.5,2.7-9.4c0.5-0.9,1.5-1.8,1.2-3c-1.5,0-2.7-0.6-3.6-1.7c-2.8,3.6-4.6,7.7-4.9,12.3c-0.2,3.5,1.3,5.5,4.6,6.7
	c1.7,0.6,3.4,1,5.1,1.4c2.7,0.5,5.1-0.1,7-2c2.9-2.8,4.1-6.3,4.4-10.2c-0.4,0.1-0.8,0.3-1.2,0c-0.8-0.6-1.9-0.7-2.8-1.1
	C183,253.1,183.3,253.9,183.1,254.4z M74.7,220.1c1.1,0.6,1.9,0.2,2.9-0.5c4-3.2,8.4-5.5,13.2-7.1c9.6-3.2,19.4-3.9,29.5-2.5
	c1.1,0.2,2.3,0.6,3.6,0.4c-0.3-0.2-0.4-0.3-0.5-0.4c-7.4-1.9-14.8-2.5-22.4-1.8c-5.7,0.5-11.2,1.7-16.5,3.8c-4.3,1.7-8.3,4-12,7.1
	C73.2,219.7,74.1,219.7,74.7,220.1z"/>
<path style="fill:#AB72C1;" d="M190,95c-1.8-0.9-3.6-1.8-5.4-2.8c-2.2-1.2-4.3-1-6.4,0.1c-1.6,0.8-3.1,1.7-4.7,2.5
	c-0.4,0.2-0.7,0.4-1.1,0.6c-0.6,0.3-1.3,0.6-2,0.2c-0.8-0.5-0.6-1.2-0.5-1.9c0.3-2.2,0.7-4.4,1.1-6.7c0.4-2.5-0.3-4.5-2.1-6.3
	c-1.4-1.3-2.8-2.7-4.2-4.1c-0.2-0.2-0.5-0.4-0.7-0.6c-1.2-1.3-0.9-2.4,0.8-2.8c2.1-0.4,4.2-0.7,6.3-1c2.8-0.4,4.8-1.7,6-4.4
	c0.7-1.7,1.6-3.3,2.4-5c0.2-0.3,0.3-0.6,0.5-0.9c0.9-1.4,1.8-1.4,2.7-0.1c0.3,0.4,0.5,0.8,0.7,1.2c0.9,1.7,1.7,3.5,2.6,5.2
	c1.1,2.1,2.7,3.4,5.1,3.7c2.2,0.3,4.3,0.6,6.5,0.9c0.5,0.1,0.9,0.2,1.4,0.3c0.8,0.3,0.9,0.9,0.6,1.6c-0.2,0.6-0.7,1-1.1,1.4
	c-1.4,1.4-2.8,2.8-4.2,4.1c-2,1.8-2.8,4-2.2,6.7c0.4,1.9,0.7,3.8,1,5.8c0.1,0.4,0.1,0.8,0.1,1.2c0,1.3-0.7,1.8-2,1.4
	C190.8,95.5,190.4,95.2,190,95C190,95,190,95,190,95z M259.8,44.7c1,1.7,1.9,3.4,2.1,5.4c0.2,1.9,0.1,2.1-1.8,2.4
	c-2.3,0.4-4.6-0.1-6.9-0.5c-3.4-0.6-6.8-1.4-10.3-1.6c-4.1-0.2-9.3,2.8-10.6,7.1c-0.4,1.2-0.7,2.5-0.7,3.8c-0.1,2.9-0.1,5.8-0.1,8.7
	c0,3-0.5,5.9-1.8,8.6c-0.2,0.3-0.3,0.6-0.4,1c-0.1,0.6,0.3,0.7,0.7,0.6c0.2-0.1,0.4-0.2,0.6-0.4c3.2-2.1,5.1-5.2,5.7-9
	c0.4-2.5,0.2-5-0.1-7.4c-0.3-2.7-0.5-5.4-0.2-8.1c0.2-1.6,0.3-1.7,1.8-1.8c2.1-0.1,4.2,0.2,6.3,0.6c3.3,0.6,6.6,1.4,10,1.7
	c4.5,0.4,7.4-2,9.6-5.4c0.7-1.1,0.8-2.5,0.4-3.8c-0.4-1.7-1.2-3.2-2.2-4.6c-1.6-2.4-1.6-2.4-4.7-1.4C258.2,42,259,43.4,259.8,44.7z
	 M27.2,166c0.3-3.8-0.3-7.5-1.6-11c-0.5-1.5-0.4-2.5,0.5-3.7c1.5-1.9,3-6.1,2.8-9.2c-0.9,3.5-2.4,6.4-5,8.7
	c-0.2-0.3-0.4-0.4-0.5-0.6c-2.2-3.6-5.5-6-9.4-7.5c-3.3-1.2-6.7-1.3-10,0.4c-2.2,1.2-3.8,2.8-3.9,5.5c0,0.5-0.1,1.1-0.2,1.6
	c-0.3,1.8,0.3,3.4,1.5,4.7c2,2.2,4.5,3.6,7.4,4.2c4.2,0.9,8.1-0.1,11.7-2.3c0.9-0.6,1.8-1.2,2.9-1.9c1.9,3.8,2.8,7.6,3.1,11.7
	C27.2,166.8,27.2,166.3,27.2,166z M29.5,140.3c0.1-0.2,0.1-0.5,0.2-0.7c0.6-5.4-0.3-10.6-2.8-15.5c-0.4-0.9-0.5-1.5,0.2-2.2
	c0.9-0.9,1.5-2,2-3.1c0.9-1.9,1.7-3.8,1.5-6.3c-0.3,0.6-0.5,1-0.6,1.4c-0.8,2.5-2.3,4.5-4.1,6.4c-0.5,0.5-0.9,0.8-1.4,0.1
	c-2.5-3.3-6-4.8-9.9-5.8c-2.3-0.6-4.7-0.8-7-0.2c-2.2,0.6-3.9,1.8-4.6,4c-0.7,2-0.9,4-0.9,6.1c0,1.8,0.9,3,2.4,3.9
	c1.3,0.7,2.7,1.2,4.2,1.3c5.4,0.4,10.5-0.4,14.9-4c1.1-0.9,1.2-0.9,2,0.4c1.6,2.6,2.6,5.4,3.2,8.4c0.4,2,0.5,4,0.6,6.1
	C29.4,140.4,29.4,140.3,29.5,140.3z M491.6,211.9c7.3,6.3,12.4,13.8,12.4,23.9c0,0.7,0.2,1,1,1.1c1.7,0,3.4,0.2,5.1,0.2
	c1.3,0,1.4-0.1,1.1-1.3c-0.5-2.4-1.3-4.7-2.2-6.9c-5.5-13.4-15.3-22-29.2-25.7c-0.8-0.2-1.7-0.6-3-0.3
	C482.4,205.2,487.3,208.2,491.6,211.9z M221,188.4c-0.4-0.9-0.9-1.1-1.7-1.1c-3.2,0-6.5-0.1-9.7-0.1c-1.2,0-2.5,0-3.9,0
	c1.8,3.2,3.4,6.2,5,9.2c0.5,0.9,1,1.1,1.9,1.1c2.7-0.2,5.4-0.3,8.1-0.5c1.2-0.1,2.5,0,3.9-0.4C223.3,193.6,222.1,191,221,188.4z
	 M373.8,83.4c2.2,0.4,2.2,0.3,3.5-1.6c0.6-0.9,1.3-1.8,1.9-2.8c0.5-0.8,1.2-1.4,1.5-2.5c-3.5-0.8-6.8-1.6-10.2-2.4
	c-0.7-0.2-1,0.2-1.3,0.6c-0.7,0.9-1.5,1.8-2.2,2.8c-1,1.4-2.3,2.6-3.3,4.3C367.2,82.3,370.5,82.8,373.8,83.4z M241.1,264.5
	c2.9,1.3,6.1,0,7.4-2.9c1.3-2.9,0.1-6.1-2.8-7.4c-2.9-1.3-6.1-0.1-7.4,2.8C236.9,259.5,238.1,263.2,241.1,264.5z M351.9,189.8
	c-0.9,0.5-1.8,0.9-2.8,1c-0.5,0.1-0.8-0.1-0.9-0.6c-0.2-1.2-0.3-2.4-0.2-3.7c0.2-2.4,0.7-4.8,0.6-7.2c-0.1-3.9-2.5-6.6-6.4-7
	c-1-0.1-2-0.1-3,0c-3.1,0.1-6.1,0.6-9.1-0.7c-0.2-0.1-0.5-0.2-0.6,0.1c-0.2,0.3-0.1,0.6,0.1,0.8c1,1.2,2.2,2.3,3.8,2.8
	c1.7,0.5,3.5,0.6,5.3,0.3c2-0.4,4.1-0.7,6.2-0.7c1.3,0,1.5,0.2,1.6,1.5c0.1,1.4,0,2.7-0.2,4.1c-0.3,2.1-0.6,4.2-0.6,6.3
	c0,2.7,1.8,4.2,3.8,5.3c1.7,0.9,3.2-0.1,4.6-1c0.2-0.2,0.5-0.3,0.7-0.5c1.3-1,1.3-1.1,0.5-2.8C354.2,188.4,353.1,189.1,351.9,189.8z
	 M337.7,60c0.3,1.2,0.6,2.4,0.6,3.7c0,1.6-0.5,2-2,1.4c-1.5-0.5-2.9-1.3-4.4-2c-1.3-0.6-2.6-1.4-4.1-1.7c-2-0.4-4,0-5.3,1.6
	c-0.8,1-1.4,2.1-1.8,3.4c-0.8,2.7-1.4,5.5-3.5,7.7c-0.1,0.1,0,0.2,0,0.3c1.8,0,3.5-1.1,4.5-2.8c0.7-1.4,1.2-2.8,1.5-4.3
	c0.2-1.2,0.5-2.3,0.8-3.4c0.5-1.7,0.8-1.8,2.4-1.2c1,0.4,2,0.9,3.1,1.4c1.5,0.7,2.9,1.6,4.5,2.1c2.1,0.7,3.6-0.1,5.1-1.3
	c1.3-1.1,1.2-2.6,0.7-4.1c-0.1-0.3-0.1-0.6-0.2-0.9c-0.4-1.2-0.5-1.2-2.1-1C337.5,59.3,337.6,59.7,337.7,60z M89.6,92.8
	c0.6,0.4,1.1,0.1,1.5-0.4c0.2-0.4,0.5-0.8,0.7-1.2c0.8-2.1,0.4-4-1.1-5.6c-1.5-1.6-3.3-2.2-5.4-1.6c-2.1,0.6-3.6,1.9-3.9,4.3
	C84.1,89.8,86.8,91.2,89.6,92.8z M477,100.5c2,0.8,3.7,2.1,5.6,3c0.9,0.4,1.7,0.8,2.7,0.7c0.7-0.9,1.2-1.9,1.3-3
	c0.2-2.7-1.6-5.1-4.3-5.7c-2.8-0.6-5.7,1-6.3,3.7C476,99.9,476.5,100.3,477,100.5z M521.2,111.4c-0.3-0.5-0.7-0.5-1.2-0.5
	c-1.6,0.1-3.3,0.1-4.9,0.2c-1.1,0-2.3,0.1-3.6,0.2c1.1,2.2,2.4,3.9,3.5,5.8c0.2,0.4,0.6,0.6,1,0.6c2.6-0.3,5.1-0.5,7.9-0.8
	C522.9,114.8,522.1,113.1,521.2,111.4z M294,171.9c-5-5.8-11.1-8.6-18.8-7.6c1.9,0.4,3.9,0.8,5.8,1.4c4.9,1.6,9.1,4,11,9.2
	c0.4,1,0.9,0.9,1.6,0.6C294.4,174.3,294.3,173.1,294,171.9z M84.5,94.4c2.5,1.1,5.1,0.3,6.6-2c-0.4,0-0.8,0.5-1.2,0.1
	c-1.2-1.2-2.8-1.5-4.1-2.4c-1.3-1-2.8-1.8-4.5-1.9C80.7,90.9,81.9,93.3,84.5,94.4z"/>
<path style="fill:#30309A;" d="M130.6,49.9c-0.7,1.4-1.8,2.5-2.6,3.8c-1.5,2.4-2.6,4.9-3.1,7.6c-0.9,4.2,0.4,7.9,2.9,11.3
	c2.2,2.9,4.9,5.2,8.3,6.6c1.5,0.6,3,1.2,4.6,1.1c0.1-0.1,0.2-0.1,0.3,0.1c1.2,0.3,2.5,0,3.7-0.2c1.2-0.2,1.7-0.9,1.8-2.1
	c0.3-2.4-0.6-4.5-2.4-6c-2.8-2.5-6.1-2.8-9.6-1.7c-1.6,0.5-3,1.4-4.5,2.1c3.4-3.4,7.2-5.8,12.3-4.9c3.2,0.6,5.7,2.4,6.6,5.7
	c0.6,2,0.3,3.9-1.2,5.4c-0.9,1-2,1.9-3,2.7c-1.5,1.2-3.3,1.5-5.2,1.5c-3.4,0-6.4-1.1-9.1-3c-3.2-2.1-5.7-4.8-7.3-8.3
	c-1.6-3.5-1.5-7-0.2-10.5c1.4-3.9,3.5-7.2,6.4-10.1C129.6,50.5,129.9,50,130.6,49.9L130.6,49.9z M395.7,219.6
	c-1.7,0.2-3.3,0.8-5,1.2c-1.6,0.4-3.3,0.7-5,1.4c1.1,1.2,2,2.1,3,3.1c3.8,3.9,7.6,7.8,11.4,11.7c0.4,0.5,0.8,1,1.6,0.6
	c2-0.9,4.3-1.3,6.3-2.3C403.6,230.3,399.7,224.9,395.7,219.6z M43.2,137.3c-0.8-0.3-1.1-0.1-1.1,0.8c0,0.7,0.1,1.4,0.3,2.1
	c0.4,1.4,0,2.4-1,3.4c-0.6,0.5-1.1,1-1.6,1.6c-0.5,0.6-0.4,1.1,0.4,1.3c0.6,0.2,1.3,0.3,1.9,0.3c1.5,0.2,2.7,0.8,3.2,2.3
	c0.2,0.6,0.5,1.2,0.9,1.7c0.4,0.7,0.9,0.7,1.4,0.1c0.5-0.7,0.9-1.5,1.3-2.3c0.5-1.1,1.3-1.6,2.5-1.8c0.7-0.1,1.4-0.1,2.1-0.3
	c1.2-0.2,1.3-0.8,0.5-1.7c-0.5-0.5-1-1-1.5-1.5c-0.9-0.9-1.2-1.9-0.9-3.1c0.1-0.3,0.1-0.7,0.2-1c0-0.7,0.6-1.5-0.1-2
	c-0.7-0.5-1.3,0.2-1.9,0.5c-1.6,0.8-3.3,1.6-4.8,0.2C44.1,137.7,43.6,137.5,43.2,137.3z M164.7,190.3c-3.6-1.4-6.4,0-7.8,2.9
	c-1.7,3.7,0.3,6.6,3,8c2.7,1.4,6.5,0,7.8-2.8C169.1,195.3,167.8,191.5,164.7,190.3z M457.8,58.7c1.3-2.8,0.3-6.2-2.9-7.8
	c-3-1.4-6.2-0.4-7.9,2.9c-1.4,2.9-0.1,6.3,2.9,7.7C453,63,456.4,61.8,457.8,58.7z M401.6,196.3c0.4,0.1,0.7-0.1,0.9-0.4
	c1.2-1.8,2.4-3.5,3.6-5.3c0.3-0.5,0.2-0.9-0.4-1c-2.8-0.7-5.6-1.3-8.4-2c-0.4-0.1-0.8-0.1-1.1,0.3c-1.7,2.1-3.4,4.2-5.4,6.7
	C394.6,195.2,398.1,195.8,401.6,196.3z M73,113.4c-2.6-1.2-5.4-0.1-6.7,2.5c-1.2,2.6-0.1,5.4,2.5,6.6c2.7,1.3,5.4,0.3,6.6-2.4
	C76.8,117.4,75.8,114.7,73,113.4z M490.7,256.4c2.5,1.1,5.2,0.2,6.4-2.4c1.2-2.4,0.1-5.3-2.3-6.4c-2.5-1.2-5.2-0.2-6.4,2.3
	C487.1,252.6,488,255.2,490.7,256.4z M185.1,223.3c-1.1,2.4,0.1,5.3,2.6,6.4c2.5,1.1,5.3,0,6.4-2.5c1.1-2.4-0.1-5.4-2.5-6.4
	C189,219.6,186.2,220.7,185.1,223.3z M478.3,105.6c2.5,1.5,5.3,0.9,7.1-1.4c-0.1-0.1-0.1-0.2-0.2-0.2c-3-0.8-5.3-3-8.2-4
	c-0.4-0.1-0.7-0.5-0.9-0.8C475.1,101.7,476,104.3,478.3,105.6z M411.1,82.1c2.3-0.8,4.6-0.8,7-0.3c4.5,1,8.8,0.4,12.9-1.9
	c1.4-0.8,2.9-1.3,4.6-1.2c0.4,0,0.7,0.1,1.2-0.2c-2.9-1.3-5.6-1.2-8.2,0.6c-0.6,0.4-1.2,0.8-1.7,1.3c-1.2,1.1-2.5,1.3-4.1,0.8
	c-1.7-0.5-3.4-1.1-5.1-1.3C415,79.6,412.8,80.2,411.1,82.1L411.1,82.1z M117.1,109.2c1.1,0.9,1.9,0.4,2.8-0.3
	c1.7-1.4,3.5-2.7,5.3-4.1c0.3-0.2,0.8-0.4,0.7-0.9c-1.6-0.7-3.2-1.5-4.8-2.2c-0.6-0.2-1.2-0.6-1.8-0.5c0.6,0.3,1.2,0.6,1.8,0.8
	c1.5,0.7,1.5,0.8,0.2,1.8c-0.3,0.2-0.6,0.4-0.8,0.7c-1,1.4-2.4,2.2-3.5,3.5c-0.5,0.5-0.9,0.4-1.4,0.3
	C115.9,108.8,116.6,108.8,117.1,109.2z M411.1,82.1c-0.2,0.1-0.4,0.1-0.6,0.3c-2.3,1.8-3.1,4.7-2.1,7.8c0.7,2.2,2.1,4,2.6,6.2
	c0.5-0.3,0.4-0.6,0.4-0.9c0-2-0.6-4-0.9-5.9C409.9,87,409.7,84.5,411.1,82.1C411.1,82.1,411.1,82.1,411.1,82.1z"/>
<path style="fill:#824C97;" d="M450.5,142.8c2-4.5,5-8.2,9.3-10.6c4.5-2.6,9.3-3,14.3-1.8c3.9,0.9,7.3,2.7,10.1,5.6
	c3.6,3.7,5.3,8.1,5.3,13.2c0,7.2-2.4,13.6-7.5,18.8c-5.3,5.4-11.7,6.8-18.9,5c-3.9-1-7.4-2.9-10.1-5.9c-4.2-4.7-5.4-10.3-4.6-16.4
	c0.2-1.5,0.5-3,1-4.5C449.6,145,450.1,143.9,450.5,142.8z M132,166.7c0.4-0.5,0.6-1,0.9-1.6c2.9-6.2,5.5-12.5,8.6-18.5
	c0.3-0.6,0.6-1.2,0.4-1.9c-0.9-3-1.8-6-2.8-9c-0.3-1.1-1.1-1.9-2.1-2.6c-2.3-1.5-5-0.9-7,0.4c-1.6,1.1-2.8,3.7-1.9,6.3
	c0.9,2.9,1.9,5.7,2.7,8.6c0.3,1.1,0.9,2.2,0.9,3.4c-0.3,0-0.5-0.2-0.6-0.3c-3.7-3.4-7.5-6.7-11.2-10.1c-3.6-3.2-7.2-3.7-11.4-1.5
	c-1,0.5-1.7,1.2-2.2,2.2c-0.8,1.6-0.9,3.1-0.3,4.8c2.1,6.7,4.2,13.4,6.2,20.2c1,3.3,2,6.6,3.1,9.8c1,3.1,3.8,4.5,6.9,3.6
	c3.8-1.1,5.3-3.8,4.1-7.7c-1.2-4.1-2.6-8.1-3.8-12.2c-0.1-0.3-0.4-0.6,0.1-0.9c2.3,2.1,4.7,4.1,7,6.2c0.1,0.4,0.7,0.3,0.8,0.7
	c0.1,0.1,0.1,0.2,0.2,0.2C131.2,167.6,131.6,167.2,132,166.7z M54.2,206.4c7.3,0.9,13.5-1.8,19.2-6c3.8-2.8,3.7-6,0.6-9.2
	c-1.3-1.4-3.1-1.7-4.9-1.1c-0.9,0.3-1.6,0.9-2.4,1.5c-1.7,1.3-3.6,2.1-5.6,2.7c-3.1,0.9-6,0.3-8.4-1.9c-2-1.8-3.3-4.2-4-6.8
	c-1.5-5.5,0.6-9.7,5.8-12c1.5-0.7,3.1-1.1,4.7-1.5c2-0.5,3.2-1.9,3.5-3.8c0.2-1.7-0.1-3.5-1-5c-0.9-1.4-2.2-2.2-3.9-2.1
	c-0.8,0-1.7,0.2-2.5,0.3c-3.6,0.8-6.9,2.3-9.9,4.3c-4.8,3.3-8,7.8-9.2,13.6c-0.9,4.6-0.2,9.1,1.7,13.4c2.3,5.1,5.6,9.3,10.4,11.6
	C50.5,205.6,52.3,206.2,54.2,206.4z M234.2,110.5c-1.3,1-2.1,2.3-2.4,4c-1.4,7.7-2.9,15.5-4.3,23.2c-0.6,3.4-1.3,6.9-1.9,10.3
	c-0.4,2.6,1,4.8,3.5,5.1c4,0.4,7.9-0.9,8.8-5.9c0.2-1.4,0.5-2.8,0.7-4.2c0.2-1,0.6-1.6,1.7-1.7c1.7-0.2,3.4-0.4,5.1-0.6
	c1-0.1,1.6,0.2,2,1.1c0.7,1.5,1.4,3,2.1,4.5c1.1,2.2,2.9,3.6,5.4,3.7c1.4,0.1,2.7-0.1,4-0.5c1.3-0.4,2.2-1.2,2.8-2.5
	c0.6-1.4,0.4-2.7-0.3-4.1c-2.8-6-5.7-12-8.5-18c-1.8-3.9-3.7-7.8-5.5-11.7c-0.8-1.6-1.8-3.1-3.4-3.6
	C241.4,108.3,236.3,108.8,234.2,110.5z M404.8,122.7c1.3,0.3,2.6,0.7,4,0.9c1,0.1,1.1,0.6,0.9,1.4c-0.8,3.5-1.5,6.9-2.2,10.4
	c-1,4.6-1.9,9.1-2.9,13.7c-0.2,1-0.3,2.1,0,3.2c1,3,5.2,4.9,8.3,3.8c2-0.7,3.1-2.2,3.6-4.3c1-4.7,2-9.5,3-14.2
	c0.7-3.3,1.4-6.6,2.1-9.9c0.3-1.3,0.3-1.3,1.7-1c1.4,0.3,2.8,0.6,4.2,0.8c3,0.5,5.5-1.3,6.1-4.3c0.6-2.8-0.7-5.5-3.7-6.4
	c-3.5-1-7-1.6-10.6-2.3c-4.2-0.9-8.3-1.8-12.5-2.6c-2.7-0.5-4.7,0.6-5.8,3C399.5,118.4,401.1,121.7,404.8,122.7z M333.6,106.9
	c-0.7,1-0.8,2.2-0.9,3.4c-0.4,6.3-0.8,12.5-1.2,18.8c-0.3,4-0.6,8-0.8,12c-0.2,3.6,1.7,5.7,5.3,6c1.1,0.1,2.1,0.2,3.2,0.2
	c4.4,0.3,8.7,0.6,13.1,0.9c2.9,0.2,5.2-1.5,5.8-4.1c0.8-3.7-1.3-6.5-5-6.8c-2.8-0.3-5.5-0.4-8.3-0.6c-1.5-0.1-1.5-0.2-1.4-1.6
	c0.2-3,0.4-6,0.6-9c0.3-5.1,0.7-10.3,1.1-15.4c0.2-2.8-0.8-4.5-3.2-5.6C338.6,103.7,335.3,104.4,333.6,106.9z M510.8,157.8
	c-1.2,3-3.3,5.6-4.5,8.6c-0.8,2-1.8,4-3.1,5.7c0.1,3.3,0.7,6.5,1,9.7c0.3,3.8,2.3,6.1,5.7,7.7c3.1,1.4,6.5-0.2,7.6-2.8
	c2-4.9,4.3-9.6,6.5-14.4c2.2-4.8,4.4-9.6,6.6-14.4c0.9-2,0.9-4.1-0.6-5.8c-1.6-1.8-3.7-2.8-6.2-2.3c-1.7,0.3-2.9,1.3-3.6,2.9
	c-1.8,3.5-3.4,7.2-5,10.8c-0.2,0.3-0.2,0.8-0.7,1c-0.3-0.6-0.2-1.2-0.3-1.8c-0.3-2.6-0.4-5.2-1-7.7
	C511.8,155.5,511.3,156.7,510.8,157.8z M203.3,141.8c0-1.6-0.5-2.7-1.8-3.7c-2.4-1.7-3-4.1-2.1-6.9c0.2-0.9,0.1-1.7-0.1-2.6
	c-0.2-1,0.1-1.5,1.1-1.7c0.4-0.1,0.8-0.2,1.2-0.3c2.3-1,4.7-1.3,7.2-0.9c1.1,0.2,1.9-0.3,2.4-1.4c0.5-1,0.8-2.2,1.6-2.9
	c1-0.9,1-1.8,0-2.7c-2.5-2.3-5.6-3-8.8-3.1c-5.1-0.1-10.1,1.2-15,2.7c-1,0.3-1.8,0.9-2.4,1.7c-1.1,1.4-1.3,2.9-0.9,4.5
	c1.2,6.7,2.4,13.4,3.7,20.1c0.7,4,1.5,7.9,2.3,11.8c0.5,2.6,2.6,4.1,5.2,3.7c1.3-0.2,2.7-0.4,4-0.8c1.9-0.5,3.2-2.7,2.8-4.6
	c-0.8-3.2-0.9-6.4-1.7-9.6c-0.1-0.6-0.4-1.1,0-1.7C202.8,143.4,203.3,142.9,203.3,141.8z M512.3,147.1c-0.3-1.8-1.2-3.3-2.6-4.5
	c-1-0.9-2.2-1.3-3.4-1.9c-3.3-1.5-6.1-0.6-7.6,2.7c-4.4,9.6-8.8,19.3-13.2,28.9c-0.3,0.7-0.5,1.3-0.6,2c-0.1,2.7,1.7,4.9,4.7,5.7
	c2.8,0.8,5.2-0.3,6.4-3c1.8-4,3.6-8,5.5-12c0.2-0.4,0.2-0.9,0.8-1.1c0.1,1.5,0.3,2.8,0.4,4.1c0.2,1.3,0.2,2.7,0.5,4
	c0.8,0.2,1-0.3,1.3-0.9c0.7-1.5,1.5-2.9,2.3-4.4c1.1-2.1,1.9-4.2,3.2-6.2c1.2-1.8,1.8-4,3.1-5.7C513,152.3,512.7,149.7,512.3,147.1z
	 M386.8,111.9c-2,4.4-4.1,8.7-5.9,13.1c-2,4.9-5,9.2-7.2,14c-0.3,0.5-0.7,0.9-1,1.4c-1.7,2.7-3.3,5.5-3.7,8.7
	c2.7,0.1,4.6-1.3,5.8-3.6c0.8-1.5,1.5-3,2.2-4.5c0.4-0.9,1.1-1.2,2-1c1.6,0.3,3.3,0.5,4.9,0.7c1.3,0.2,1.4,0.4,1.7,1.7
	c0.3,1.6,0.5,3.1,0.8,4.7c0.4,2.3,1.7,3.9,3.7,4.9c1.6,0.8,3.3,1,5,0.8c1.6-0.1,2.7-1,3.4-2.4c0.6-1.3,0.5-2.5,0.3-3.8
	c-1.3-7.4-2.5-14.8-3.8-22.2c-0.6-3.3-1.1-6.7-1.7-10c-0.6-3.3-2.6-5.2-5.7-5.6C387.6,109.9,387.2,110.9,386.8,111.9z M303.8,139.4
	c-0.7,1-1.7,1.9-2.2,3c-0.6,1.3-1.5,1.9-2.8,2c0.2,0.2,0.3,0.3,0.5,0.5c3.8,2.3,7.9,2.7,12.2,2.3c7.5-0.7,12.7-5.3,14.4-12.6
	c0.6-2.7,0.8-5.4,0.8-8.1c0-6.1,0.1-12.2,0-18.3c0-2.7-1.5-4.1-4.2-4.2c-1.4-0.1-2.7-0.1-4.1,0c-1.6,0-2.7,0.8-3.4,2.2
	c-0.4,0.9-0.6,1.8-0.6,2.7c0,6.5,0,12.9,0,19.4c0,1.5-0.1,3-0.5,4.4c-0.7,2.8-2.7,4.1-5.5,3.8c-1-0.1-1.7-0.7-2.5-1.3
	C305.6,136.7,304.7,138,303.8,139.4z M81.3,187.9c1-2.8,2.2-5.6,3.9-8.1c0.2-0.6-0.2-0.9-0.6-1.3c-0.5-0.5-1.2-0.8-1.2-1.6
	c-0.2-0.6-0.6-1-0.8-1.6c-1.4-2.9-2.4-5.9-2.3-9.2c0.1-5,5.5-8,9.9-5c0.6,0.4,1.2,1,2.1,0.9c0.9-0.3,1.2-1.1,1.5-1.8
	c1-2.2,2-4.4,3-6.6c1-2.3,0.8-2.8-1.6-3.9c-0.5-0.2-0.9-0.5-1.5-0.5c-0.6-0.5-1.4-0.6-2.2-0.7c-4.2-0.8-8.3-0.2-12.1,1.5
	c-6.2,2.8-10.2,7.3-11.6,14c-1.4,6.7,0.3,12.8,3.7,18.5c1,1.7,2.1,3.4,3.8,4.6c0.2,0.4,0.7,0.3,0.9,0.8l0.1,0.1l0.1,0
	c0.3,0.4,1,0.4,1.3,0.9l0.1,0.1l0.1,0C80.1,190.5,80.4,190.3,81.3,187.9z M92.4,163.6c2.1,3,3.4,6.2,3.5,9.9
	c0.2,5.6-4.7,8.8-9.3,6.3c-0.5-0.3-0.9-0.5-1.5-0.2c-0.2,0.5-1,0.4-1.2,1c-1.1,2.4-2.4,4.7-3.2,7.3c-0.7,2.2-0.6,2.3-2.8,1.4
	c1.5,1.5,3.5,2.2,5.5,2.7c6.7,1.7,12.7,0,18.1-4.2c2.5-1.9,4.5-4.4,5.7-7.4c1.7-4.1,2-8.4,1.1-12.7c-1.3-6.1-3.9-11.4-8.9-15.3
	c-1.7-1.3-3.5-2.7-5.7-3c0.7,0.3,1.4,0.7,2.1,1c1.2,0.6,1.4,1,0.9,2.2c-1.3,2.9-2.6,5.7-3.9,8.5c-0.3,0.6-0.6,0.9-1.2,0.7
	C91.3,162.6,92,163,92.4,163.6z M153.7,161.5c0,0,0.1,0,0.1,0c0.6-0.7,0-1.4,0-2.2c-0.2-3,1.7-4.4,4-5.5c1.1-0.7,2-0.4,3,0.3
	c0.5,0.4,1.2,0.5,1.8,0.1c0.6-0.3,0.4-0.7,0.1-1.2c-2.3-2.8-3.4-6.1-3.4-9.7c0.1-3.3,1.5-5.8,4.3-7.5c1.6-1,3.3-1.5,5.1-1.9
	c1.8-0.4,3.6-0.4,5.5-0.4c2.9,0,4.2-1.3,4.3-4.2c0.1-1.1,0.1-2.1,0-3.2c-0.1-1.9-1.3-3.2-3.1-3.6c-0.5-0.1-1.1-0.1-1.6-0.2
	c-5.9-0.1-11.4,1.1-16.5,4.1c-5.6,3.3-9.2,8.1-10.2,14.6c-1,6.1,0.4,11.8,3.7,17c0.7,1.2,1.4,2.5,2.7,3.3
	C153.6,161.4,153.6,161.4,153.7,161.5z M159.1,154c2.8,0.6,4.5,2.7,4.3,5.2c-0.2,2.5-2.3,4.3-5.1,4.5c-0.5,0-1.1-0.3-1.4,0.4
	c3.1,2,6.5,2.8,10.1,2.9c6.6,0,12.7-2,18.4-5.3c1.9-1.1,2.7-3.1,2.1-5.4c-0.7-3.1-1.5-6.1-2.2-9.1c-0.5-2.2-1-4.5-1.6-6.7
	c-0.5-1.9-1.7-2.8-3.6-2.7c-0.8,0-1.5,0.1-2.3,0.3c-2.9,0.7-5.7,1.4-8.6,2.1c-0.3,0.1-0.6,0.2-0.9,0.3c-2,0.6-3.1,2.2-2.7,4.7
	c0.2,0.9,0.4,1.9,0.7,2.8c0.8,2.5,2.4,3.5,5,3c0.8-0.2,1.6-0.5,2.4-0.4c0.3,1.1,0.5,2.2,0.8,3.2c0.2,0.8,0,1.2-0.8,1.4
	c-4,1.2-7.7,1.1-10.9-1.9c-0.1,0.3,0.1,0.8-0.3,0.9c-0.6,0.2-1.2,0.1-1.6-0.3c-1.1-1.1-2.1-1-3.3-0.2
	C157.9,154.1,158.5,153.9,159.1,154z M437,126.1c-1.4,5.3-2.8,10.5-4.2,15.7c-1.3,4.7-2.6,9.5-3.7,14.2c-0.7,2.9,0.8,5.5,3.6,6.4
	c0.4,0.1,0.8,0.2,1.2,0.3c2.9,1.1,6.2-0.6,7.1-4c2.7-10.1,5.4-20.1,8-30.1c1-3.7-0.5-6.3-4.1-7.3c-0.5-0.1-0.9-0.2-1.4-0.3
	c-2.6-0.4-4.7,0.7-5.9,3.2C437.3,124.7,437.1,125.4,437,126.1z M304.2,129.1c0-4.3,0-8.6,0-12.9c0-2.7,0.1-5.3,0-8
	c-0.1-2.6-1.8-4.3-4.4-4.4c-1,0-2-0.1-3,0c-3.1,0.1-4.2,2-4.8,4.2c-0.2,0.7-0.1,1.4-0.1,2.1c0,3.9-0.1,7.8,0,11.7
	c0,3.8-0.2,7.6,0.4,11.3c0.6,3.3,1.5,6.5,3.9,8.9c0.4,0.3,0.8,0.7,1.1,1.2l0.1,0.1l0.2,0.1c0.2,0.4,0.7,0.3,0.9,0.7l0.1,0.1
	c0,0,0.1,0,0.1,0c1.7,0.6,2,0.6,2.7-0.8c1-1.9,2.4-3.5,3.7-5.2c0.9-1.1,1.1-2.1,0.7-3.4C304.6,133.2,304.2,131.2,304.2,129.1z
	 M202.4,126.9c1.4,0.2,2,1.1,2.1,2.4c0.1,1.7-0.6,2.4-2.8,3.2c-1.6,0.6-1.8-0.4-2.2-1.4c-0.1-0.2-0.2-0.2-0.4-0.3
	c-1.2,2.6-0.6,5.7,1.7,7.4c1.3,0.9,2.4,1.7,1.9,3.4c0.7,1-0.2,1.4-0.8,1.9c0.3,0,0.6,0,0.9,0c1.6-0.2,2.7,0.5,3.5,1.9
	c0.4,0.7,0.8,1.5,1.1,2.2c0.3,0.3,0.6,0.6,0.9,0.8c2.1,1.1,2.9,2.8,2.3,5.1c-0.1,0.3-0.1,0.6,0.1,0.9c1.2,1.9,2.9,2.7,5.1,2.3
	c1.2-0.2,2.5-0.4,3.7-0.7c2-0.5,3.1-2,3-4c0-0.8-0.3-1.5-0.6-2.2c-1.3-2.7-2.5-5.3-3.8-8c-0.8-1.6-1.7-3.1-3-4.4
	c-0.8-0.7-0.8-1.2-0.2-2.1c1.8-2.6,2.6-5.6,2.1-8.8c-0.5-3.1-1.6-5.9-4.2-7.9c-0.2,0.6,1,1.3,0.2,1.8c-1.4,0.9-1.6,2.4-2.3,3.7
	c-0.4,0.9-0.9,1.3-1.9,1.1c-2.7-0.6-5.2-0.3-7.7,1C201.3,127,201.9,126.9,202.4,126.9z M385.1,108.4c-3.8-0.5-6.2,0.8-7.8,4.3
	c-0.9,2-1.8,4-2.8,5.9c-2.2,4.2-4.3,8.4-6.1,12.7c-0.6,0.5-0.7,1.2-1,1.8c-1.1,2.1-1.8,4.4-3.1,6.5c-0.8,1.1-1.4,2.4-1.8,3.8
	c-0.4,1.6-0.4,3.1,1.2,4.2c0.8,0.6,1.7,1,2.7,1.2c0.8,0.4,1.7,0.1,2.5,0.3c0.1-0.1,0.2-0.2,0.2-0.3c0.8-2.3,1.9-4.4,2.9-6.6
	c0.2-0.5,0.3-1.1,0.8-1.4c1-0.7,1.4-1.7,1.9-2.7c0.6-1.3,0.9-2.7,1.9-3.8c1-1,1.6-2.2,2.1-3.4c0.5-1.1,0.9-2.3,1.4-3.4
	c2.7-5.3,4.9-10.8,7.5-16.2c0.2-0.4,0.3-0.8,0.5-1.1c0.4-0.7,0-1.1-0.6-1.4C386.7,108.5,385.9,108.5,385.1,108.4z M538.9,190.9
	c1,0.5,1.2,1.1,0.8,2.1c-0.9,2-1.9,4-2.7,6c-0.5,1.2-1.2,1.4-2.4,0.9c-1.2-0.5-2.2-1.5-3.6-1c0.4,0.7,1.1,0.8,1.8,1.1
	c3.7,1.9,7.6,3.2,11.9,2.8c6.5-0.5,11-5.3,11.9-11.4c0.5-3.3-0.4-6.2-2.3-8.9c-1.9-2.8-4.4-5-6.6-7.4c-0.6,0.2-0.9,0.6-1.1,1.1
	c-1.6,3.6-3.4,7.1-4.8,10.8c0.4,0.6,0.9,1.2,1.2,1.9c0.6,1.2,0,1.9-1.2,2c-0.6,0-1.2-0.2-1.7-0.4c-1-0.4-2-0.9-3-1.4
	C537,190.4,538.2,190.5,538.9,190.9z M547.5,174.6c-0.5-1.2-0.4-1.5,0.9-1.7c0.2,0,0.5,0,0.7,0c0.4,0,0.7,0.3,1.1,0.3l0,0
	c0.7-0.4,1-1.1,1.2-1.9c0.6-2.2,1.6-4.2,2.7-6.1c1.2-2.2,1.1-2.3-1.4-3.1c-2.6-1.1-5.4-1.3-8.2-0.9c-8.6,1.2-13.7,10.9-8.8,18.8
	c1.6,2.6,3.7,4.8,6,6.9c0.8-0.2,0.9-0.9,1.1-1.4c1.6-3.5,3.2-7,4.8-10.4C547.6,174.9,547.6,174.8,547.5,174.6z M269.9,138.7
	c2.1-4.9,4.4-9.6,6.5-14.5c0.4-0.9,0.8-1.7,1.4-2.4c-0.1-1.6-0.3-3.3-0.4-4.9c-0.1-1.1,0-1.3,1.2-1.4c1.6-0.1,3.2-0.2,4.8-0.5
	c2.8-0.5,4.5-3,4.3-5.9c-0.3-3-2.5-5.1-5.4-5.1c-2.4,0-4.7,0.2-7.1,0.6c-0.2,1.2-0.8,2.3-1.4,3.4c-2.7,5.8-5.1,11.6-8,17.3
	c0.2,3,0.4,6,0.6,9c0.2,2,0.1,4.1,0.6,6.1C268.6,140.6,269.4,139.9,269.9,138.7z M135.7,171.8c0.5,0.5,1.1,1,1.7,1.3
	c3.1,1.9,6.3,1.4,9.3-0.3c1.8-1,2.5-2.8,2.3-4.8c-0.1-0.7-0.2-1.4-0.4-2.1c-1.1-3.6-2.2-7.1-3.3-10.7c-1.1-3.5-2-7-3.3-10.4
	c-0.9,1.6-1.9,3.2-2.6,4.9c-2.3,5.2-4.7,10.4-7.1,15.5c-0.2,0.4-0.4,0.9-0.6,1.3c-0.2,0.5-0.6,0.5-1,0.4
	C132.1,168.8,134,170.2,135.7,171.8z M259.1,105.9c-0.4,0-0.8,0.1-1.2,0.2c-2.5,0.8-4.1,3.3-3.7,6c0.4,2.7,2.4,4.7,5.1,4.8
	c1.5,0.1,3-0.1,4.4-0.2c1.6-0.1,1.6-0.1,1.7,1.5c0.2,2.4,0.4,4.8,0.6,7.2c1.1,0.2,1.1-0.8,1.3-1.3c2.5-5.5,5-11.1,7.6-16.6
	c0.3-0.6,0.5-1.2,0.9-1.7c0.7-0.7,0-0.9-0.4-1.1C269.9,105.1,264.5,105.5,259.1,105.9z M268.5,145.8c2.1,2.6,7,2.8,9.4,0.5
	c1.5-1.4,1.7-3.1,1.6-5c-0.3-3.4-0.5-6.8-0.8-10.2c-0.3-3-0.3-6.1-0.8-9.1c-0.8,0-1.3,0.4-1.5,1.2c-0.2,0.7-0.5,1.3-0.8,2
	c-1.8,4-3.7,8.1-5.5,12.1c-0.6,1.4-1,3-2.8,3.5C267.2,142.4,267.2,144.2,268.5,145.8z M536.4,188.7c-0.2-0.4-0.7-0.3-0.8-0.7
	c-0.7-0.6-1.3-1.3-2.1-1.9c-1.6-1.3-3.6-1.5-5-0.3c-1.6,1.4-2.9,3.1-3.7,5.1c-0.5,1.4-0.3,2.7,0.8,3.8c1.6,1.6,3.3,3.2,5.5,4.1
	c1.5,0.6,2.9,1.3,4.4,1.9c1.1,0.5,1.2,0.5,1.7-0.7c1.1-2.5,2.3-4.9,3.4-7.4c0.6-1.3,0.6-1.3-0.7-2c-0.9-0.5-2.1-0.6-2.7-1.6
	C536.8,189,536.6,188.8,536.4,188.7z M555.4,176.8c1.6,1.4,3.4,1.3,5-0.1c1.1-1,2.1-2.1,2.9-3.4c1.3-1.9,0.9-4.5-0.9-5.9
	c-2.1-1.8-4.5-3.3-7-4.5c-0.8-0.4-1.7-0.9-2.7-0.9c0.2,0.1,0.4,0.2,0.6,0.3c1.4,0.7,1.4,0.7,0.5,2c-0.3,0.4-0.5,0.9-0.8,1.4
	c-1.2,2.4-2.1,4.8-2.9,7.3C552,174.3,553.7,175.4,555.4,176.8z M156.9,153.8c-3.1,1.4-4.2,3.7-3.2,7c0.1,0.2,0.2,0.5-0.1,0.6
	c0.9,1.3,2,2.1,3.4,2.7c0.3-0.2,0.7,0,1,0c2.2,0.3,4.5-1,5.4-3.1c1-2.1,0.5-4.3-1.2-6c-1.3-1.3-3-1.6-4.7-1.6
	C157.3,153.6,157.1,153.7,156.9,153.8z M461.6,148.9c-1,3-1.5,5.9-0.6,9c1,3.7,5.5,5.6,8.7,4.2c1.4-0.6,2.5-1.5,3.5-2.6
	c1.8-2.1,2.9-4.5,3.5-7.1c0.5-2,0.6-4.1,0.2-6.2c-0.6-2.7-2.2-4.5-4.9-5.3c-2.5-0.7-4.7,0.1-6.5,1.8c-1.4,1.3-2.5,2.8-3.2,4.6
	C462,147.9,461.7,148.4,461.6,148.9z M246.2,125.1c-3.5-1.6-7.4,0-8.8,3.2c-1.4,3-0.6,7.1,3.3,9c3.1,1.4,7.2,0.4,8.6-3.4
	C251.5,130.1,248.8,126.2,246.2,125.1z M199.3,142.1c0.8-1.5,0.1-3.5-1.4-4.3c-1.5-0.8-3.5-0.1-4.3,1.4c-0.8,1.6-0.2,3.5,1.3,4.3
	C196.7,144.6,198.6,143.5,199.3,142.1z"/>
<path style="fill:#AB72C1;" d="M290.9,224.2c-2.1-0.2-3.9-1.1-5.7-2c-3.9-2-7.3-4.5-9.9-8c-0.7-0.9-1.3-1-2.4-0.8
	c-3.5,0.8-7,1-10.5-0.3c-0.2-0.1-0.4-0.2-0.8-0.4c2.2,0,4.2,0.1,6.1-0.2c1.5-0.2,2.9-0.7,4.4-1.2c0.6-0.2,1-0.5,0.5-1.3
	c-2.1-3.9-2.4-8-1.6-12.3c1.5-0.8,2.5,0.3,3.7,0.9c0.3,0.5,0.2,1.1,0.1,1.7c-0.3,2.5,0,4.9,0.4,7.3c0.2,1.2,0.6,1.3,1.6,0.7
	c1.5-0.9,2.7-2.1,3.8-3.4c0.5-0.6,0.9-1.3,1.6-1.7c1.8-0.1,2.6,0.3,3.2,1.8c-1.6,2.9-4.2,4.7-7,6.3c-0.2,0.1-0.4,0.2-0.6,0.3
	c-1,0.5-1,0.6-0.4,1.5c2.3,3.5,5.3,6.3,8.8,8.5c1.3,0.8,2.5,1.6,4,2.2C290.5,223.8,290.8,223.9,290.9,224.2L290.9,224.2z M315.9,216
	c-0.7-0.3-1.4-0.6-2.2-0.5c-0.2,0.1-0.4,0.2-0.6,0.4c-0.3,0.4-0.6,0.7-1,1c-1,1.1-2,2.2-3.2,3.2c-2.5,1.9-2.8,1.8-3.8-1.2
	c-1-2.9-1.2-5.9-1.2-8.9c-0.6-1.4-2-1.8-3.2-2.5c-0.1-0.1-0.3,0.1-0.4,0.2c0.1,0.9-0.4,1.8-0.5,2.7c0,3.9,0.9,7.6,2.7,11.1
	c0.4,0.7,1,1.2,1.3,2c-3.5,1.7-7.3,1.6-11.1,1.3c3.7,1.2,7.5,1.8,11.4,0.9c1.1-0.3,1.9-0.2,2.6,0.7c1,1.1,2.2,2,3.4,2.9
	c3,2.2,6.1,3.9,9.7,4.9c0.1-0.2,0.1-0.3-0.1-0.4c-0.1-0.1-0.2-0.2-0.4-0.3c-4.2-1.9-7.7-4.7-10.8-8.1c-0.7-0.8-0.7-0.8,0.2-1.3
	c0.7-0.4,1.5-0.8,2.2-1.2c2.1-1.4,4.1-3,5.4-5.3C316.9,216.8,316.6,216.3,315.9,216z M304.5,207.8c0.8-3.6,2.8-6.2,6-8
	c1.6-0.9,2.3-0.7,3.2,0.8c0.9,1.4,1.3,2.8,1.5,4.4c0.4,3-0.1,5.8-1.3,8.6c-0.3,0.6-0.9,1.2-0.4,2c0.7,0.2,1.4,0.4,2.1,0.6
	c0.7,0.2,0.8,0.7,0.7,1.3c0.1-0.1,0.3-0.2,0.4-0.3c3-4.7,3.6-9.6,1.6-14.8c-0.9-2.2-2.5-3.7-4.9-4.2c-0.6-0.1-1.2-0.3-1.8-0.5
	c-1.3-0.5-2.6-0.4-3.8,0c-3.7,1.3-7.2,5.5-7.5,9.8c1.2,0.5,2.1,1.3,3.1,2.1c0.1,0.1,0.1,0.2,0.1,0.3
	C304.5,209.5,304.4,208.6,304.5,207.8z M275.2,197.4c0.8-3.1,1.9-6.1,4.8-8c1.1-0.8,2.5-1.4,3.8-0.6c1.4,0.7,1.9,2.1,1.9,3.7
	c0,3-1,5.7-2.4,8.3c-0.5,0.8-1.3,1.6-1,2.7c1.3,0,2.4,0.5,3.1,1.5c2.5-3.2,4.1-6.8,4.4-10.8c0.2-3.1-1.1-4.8-4.1-5.9
	c-1.5-0.5-3-0.9-4.5-1.2c-2.4-0.4-4.5,0.1-6.2,1.8c-2.5,2.4-3.6,5.5-3.9,8.9c0.4-0.1,0.7-0.2,1,0c0.7,0.5,1.6,0.6,2.4,0.9
	C275.3,198.6,275,197.9,275.2,197.4z M370.7,227.7c-1-0.5-1.7-0.2-2.5,0.5c-3.5,2.8-7.4,4.8-11.7,6.2c-8.5,2.8-17.1,3.5-26,2.2
	c-1-0.1-2-0.5-3.2-0.3c0.2,0.2,0.3,0.3,0.5,0.3c6.5,1.7,13,2.2,19.7,1.6c5-0.5,9.9-1.5,14.6-3.4c3.8-1.5,7.3-3.5,10.6-6.3
	C372,228,371.3,228,370.7,227.7z"/>
</svg>
