<?xml version="1.0" encoding="utf-8"?>
<!-- Generator: Adobe Illustrator 23.0.3, SVG Export Plug-In . SVG Version: 6.00 Build 0)  -->
<svg version="1.0" id="Layer_1" xmlns="http://www.w3.org/2000/svg" xmlns:xlink="http://www.w3.org/1999/xlink" x="0px" y="0px"
	 viewBox="0 0 561.3 561.3" style="enable-background:new 0 0 561.3 561.3;" xml:space="preserve">
<path style="fill:#FBF05A;" d="M234.5,275.9c-10.9-18.4-18.8-37.9-22.5-59c-5.7-32.5-1.7-63.8,11.1-94.1
	c4.3-10.1,10.1-19.3,15.8-28.7c2.5-0.5,3.6,1.5,5,2.9c73.7,73.7,147.4,147.3,221,221c1.4,1.4,3.3,2.5,2.8,5
	c-11.6,8.9-24.7,15.1-38.3,20.1c-17.3,6.3-35.4,9.7-53.8,9.7c-30.5,0-59.3-7.3-85.7-23.1c-1.2-0.7-2.4-1.2-3.6-1.9
	c-6.7-1.9-11.6-6.8-16.8-10.9c-12.7-10.1-23.6-22.1-32.6-35.6C235.9,279.6,234.5,278.1,234.5,275.9z"/>
<path style="fill:#D9176C;" d="M280.1,53.4c31.2-21.6,65.8-31.2,103.5-29.3c76.6,3.8,141.9,63.6,152.8,139.5
	c6.2,43.1-3.1,82.6-27.5,118.6c-2.5,0.4-3.6-1.6-5-2.9C430.3,205.7,356.7,132.1,283,58.4C281.7,57,279.7,55.9,280.1,53.4z"/>
<path style="fill:#2D75BB;" d="M467.8,322.9c-7-7.1-13.9-14.2-20.9-21.3c-68.3-68.3-136.6-136.6-204.9-205c-0.9-0.9-2-1.8-3-2.7
	c-8.4-10.3-10.6-21.4-4.3-33.6c5.1-6,16-7.8,24.7-4.1c4.2,1.8,8,4.2,11.3,7.5c75.9,76,151.9,151.9,227.8,227.9
	c10.4,10.4,12.3,23.4,5.4,35C492,334.2,480.5,333,467.8,322.9z M511.1,320.6c8.8-12.2,8.1-24.8-2.2-38.4c-1.3-1.1-2.6-2.1-3.8-3.3
	c-73.6-73.5-147.1-147.1-220.7-220.7c-1.5-1.5-2.9-3.2-4.4-4.8c-0.8-0.6-1.5-1.3-2.3-1.9c-14.5-11.3-35.8-6.9-43.1,8.9
	c10.7-7.3,24.8-6,34,3.2c76.6,76.6,153.3,153.2,229.9,230c6.6,6.6,9.3,14.8,7.6,24.4c-0.5,3-2.5,5.6-2.3,8.7
	C507,325.5,509.2,323.2,511.1,320.6z"/>
<path style="fill:#DB527D;" d="M265.1,349.1c-22.9,22.9-45.7,45.9-68.6,68.7c-2.9,2.9-3.4,5.3-2.2,9.2
	c15.6,50.3-19.5,103.7-71.5,110.5c-44.7,5.9-88-23.6-97.3-70.2c-9-45.2,22.6-92.6,68-101.2c14.7-2.8,29.1-2.2,43.3,2.3
	c3.1,1,4.9,0.2,7-1.9c22-22.1,44.1-44.2,66.2-66.2c1.1-1.1,2.2-2.1,3.3-3.1c1.8,0.3,2.9,1.7,4,2.9c15,15,30,30,45,45
	C263.4,346.2,264.8,347.2,265.1,349.1z M286.4,327.8c-20.8-13.8-38.2-31-51.9-51.9c-7.1,7.1-14.2,14.2-21.3,21.3
	c10,11.3,21.1,21.5,31.7,32.2c6.6,6.6,12.9,13.6,20.1,19.6C272.2,342,279.3,334.9,286.4,327.8z"/>
<path style="fill:#EDF1F3;" d="M331.4,212.3c9.6,0,18.6,8.9,18.6,18.3c0,9.8-8.6,18.8-18.1,18.9c-10.1,0.2-19.5-9-19.2-18.9
	C313,221,321.8,212.3,331.4,212.3z M274,190.9c-0.1,10.9,7.3,19.2,17.5,19.4c10.5,0.2,19-7.8,19.1-17.9c0.1-10.9-7.3-18.5-18.1-18.6
	C282,173.6,274.1,181,274,190.9z M271.5,152.8c-0.1-10.4-7.9-18.4-18-18.4c-10.7-0.1-18.8,7.8-18.8,18.1c0,10.3,7.9,18.3,18,18.4
	C263.4,170.9,271.6,163.1,271.5,152.8z M388.6,270.1c0-10.8-7.7-18.4-18.4-18.4c-10.3,0-18.2,8.3-18.1,18.8
	c0.1,9.9,8.3,17.7,18.6,17.7C381.2,288.3,388.6,280.7,388.6,270.1z M409.7,327.7c10.1,0.1,18.2-8.1,18.3-18.3
	c0.1-10.1-8.5-18.9-18.4-18.8c-10,0.1-18.2,8.3-18.2,18.4C391.4,319.6,399.3,327.6,409.7,327.7z M437.2,184.8
	c-0.1,10,8.1,18.3,18.2,18.4c10.4,0.1,18.9-8.1,19-18.2c0-10.1-8.1-18.3-18.3-18.4C445.6,166.5,437.2,174.5,437.2,184.8z
	 M356.9,67.6c0.1-9.9-8.2-18.2-18.3-18.3c-10.5-0.1-18.8,7.9-18.8,18.2c0,10.2,8.1,18.3,18.2,18.4C348.4,85.9,356.8,77.9,356.9,67.6
	z M377.1,88c-10,0.2-18,8.6-17.9,18.7c0.1,10.2,8.2,18.4,18.2,18.4c10.2,0,18.5-8.3,18.4-18.7C395.7,96.1,387.3,87.8,377.1,88z
	 M416.7,127.3c-10,0-18.5,8.2-18.6,18.1c-0.1,10.4,8.6,19.1,18.9,18.9c9.9-0.2,18.1-8.7,18.1-18.7
	C435,135.7,426.5,127.3,416.7,127.3z M494.7,205.4c-10,0.1-18.2,8.4-18.2,18.5c-0.1,10.4,8.2,18.7,18.5,18.7
	c10,0,18.2-8.3,18.2-18.4C513.1,213.7,504.9,205.3,494.7,205.4z"/>
<path style="fill:#FEFEFE;" d="M110.6,495.9c-24.4,0.1-44.2-19.8-44.2-44.4c0-24.9,19.7-44.8,44.4-44.8c24.3,0,44.8,19.9,44.8,43.5
	C155.7,476.3,136.4,495.9,110.6,495.9z"/>
</svg>
