<?xml version="1.0" encoding="utf-8"?>
<!-- Generator: Adobe Illustrator 23.0.3, SVG Export Plug-In . SVG Version: 6.00 Build 0)  -->
<svg version="1.0" id="Layer_1" xmlns="http://www.w3.org/2000/svg" xmlns:xlink="http://www.w3.org/1999/xlink" x="0px" y="0px"
	 viewBox="0 0 612.2 613.4" style="enable-background:new 0 0 612.2 613.4;" xml:space="preserve">
<path style="fill:#824C97;" d="M258.3,453.2c-0.1,31-0.1,62.1-0.4,93.1c0,3.4,1.5,3.8,4.3,3.8c10.1-0.1,20.3,0,30.4,0
	c82,0,164,0,245.9,0c1.8,0,3.6-0.1,5.4-0.2c14.7,0.1,29.5,0.1,44.2,0.2c7.7,0,11.7,2.8,12.2,8.5c0.5,6.1-2.8,9.5-10.8,10.7
	c-2.9,2.4-6.4,1.8-9.7,1.8c-34.9,0.1-69.7,0-104.6,0c-145,0-290,0-435.1,0c-3.9,0-8,1-11.5-1.7c-2.4-0.1-4.8-0.1-7.1-0.3
	c-5.9-0.4-9.6-4-9.6-9.3c-0.1-5.6,3.6-9.6,9.8-9.6c15.3-0.2,30.7,0,46-0.1c1.8,0,3.6-0.1,5.4-0.2c2.9-2.3,6.4-1.7,9.8-1.7
	c27.6,0,55.2,0,82.8,0c9.3,0,9.5-0.2,9.5-9.2c0-25.2,0-50.4,0-75.7c0-2.6,0.2-5.2-0.9-7.6c-4.3-3.9-9.8-2.1-14.7-2.9
	c-10-1.5-20-2.8-29.8-5.2c-17.5-4.4-34.6-10-50.8-18.3c-2.3-1.2-4.6-2.3-6-4.7c-11.6-7.7-23-15.6-32.5-26
	c-29.3-32.1-29-73.9,0.7-105.8c9.3-10,20.5-17.6,31.8-24.9c1.2-2.2,3.3-3.4,5.4-4.5c24.3-12.6,50.3-19.8,77.4-23.3
	c14.6-1.9,29.3-2.9,44.1-2.5c41.6,1.3,81.4,9.6,117.9,30.5c1.2,0.7,2.4,2.2,3.7,1.3c1.7-1.2,0.9-3.3,0.7-5
	c-2.2-20.2-9.6-38.5-20.4-55.6c-9.4-14.8-19.5-29.1-27-45.1c-11.7-25.1-13-51-6.3-77.5c0.6-2.3,1.5-4.5,2.6-6.6
	c5.3-10.5,11.9-20,20.4-28.1c16.6-14.2,35.6-23.3,57.4-25.9c7.5-0.9,15.2-3.3,22.9-0.2c12.6,1.6,25.1,3.4,37,8.3
	c18.7,7.7,34.2,19.2,45.4,36.2c1.2,1.9,2.5,3.5,4.7,4.2c22.8,6.9,45.5,13.8,68.3,20.6c8,0.6,15.7,2.1,22.4,7
	c9.1,2.8,18.2,5.7,27.3,8.5c5.2,1.6,9.2,4.1,8.9,10.2c-0.3,6.1-4.3,8.3-9.8,9.2c-12.7,2.1-25.4,4.5-38.1,6.8
	c-4.3,3.2-9.6,2.1-14.2,3.5c-2.9,0.2-5.7,1.8-8.7,0.2c-19.8,3.2-39.6,6.4-59.4,9.5c-1.8,0.3-2.7,1.5-3.7,2.8
	c-15,21.3-41.1,36.7-74.2,40.5c-0.9,1.7,0.4,2.9,1,4.3c25.5,60.3,22.1,118.9-11.2,175.4c-19.6,33.2-49.2,53.9-85.2,66.2
	c-0.9,0.3-1.8,0.8-2.7,1.2c-3.1,2.9-7.1,3.8-10.9,4.5C263.5,445.4,259.8,447.8,258.3,453.2z"/>
<path style="fill:#C28DCA;" d="M28.6,569.3c1.8-0.1,3.6-0.2,5.4-0.2c183.6,0,367.2,0,550.8,0c1.6,0,3.2,0.1,4.8,0.2
	c3,8.5-5,16.9-12.6,16.6c-6.1-0.2-12.2,0-18.4,0.1c-3.6,2.5-7.7,1.8-11.6,1.8c-115.7,0-231.4,0-347.1,0c-43.4,0-86.8,0-130.2,0
	c-3.8,0-7.6,0.4-11-1.9c-5.8,0-11.5,0.1-17.3,0C32.2,585.6,26.6,578.3,28.6,569.3z"/>
<path style="fill:#CD9CD5;" d="M58.7,585.8c164.7,0,329.3,0,494,0c2,0,4,0.1,6,0.2c-1,9.2-5.3,13-15,13c-156.5,0-312.9,0-469.4,0
	C65.2,599,62.9,597.1,58.7,585.8z"/>
<path style="fill:#824C97;" d="M523.6,138.7c4.7-1.5,9.6-2.1,14.5-2.3c17.8,39.6,35.2,79.4,48.4,120.8c3.2,10,6.4,20,6.5,30.7
	c0.1,29.6-17.6,54.3-45.7,63.5c-1.1,0.4-2.2,0.9-3.3,1.3c-13.4,2.1-26.7,2.5-39.7-2.6c-12.9-5.1-23.4-13-30.9-24.9
	c2.3-2.1,2.4-2.3,6.6-0.4c12.7,5.7,25.9,6.1,39.2,3.4c32.7-6.6,54.9-40,48.5-72.7c-3.4-17.4-9.7-34-15.8-50.7
	c-7-19.3-15.1-38.1-23.1-56.9C527.4,144.7,525.7,141.6,523.6,138.7z"/>
<path style="fill:#AB72C1;" d="M549.8,101.7c-7.5-2.3-14.9-4.7-22.4-7c1.7-8.9,4-17.4,10.2-24.4c8.7-9.6,19.7-13.7,32.4-14
	c3.8-0.1,5.2,1.1,5.2,5c-0.1,17.2-7,30.3-22.5,38.4C551.6,100.2,550.7,101,549.8,101.7z M515.2,140.1c-6.1,14.2-12.4,28.3-18.3,42.6
	c-12.8,31-26.2,61.7-33.4,94.6c-3.8,17.4,0,33.4,9.9,48c1.8-2.2,3.3-0.2,4.7,0.5c11.6,6.1,24.3,6.9,36.7,5.1
	c37.8-5.5,63.7-42.7,53.4-80.8c-10.2-37.5-25.1-73.2-40.6-108.7c-0.9-2.1-2-2.7-4-2.7C520.7,138.5,517.9,139.2,515.2,140.1z"/>
<path style="fill:#FFFFFF;" d="M104.1,417.3c-20.7-7.6-38.9-19.1-53.1-36.1c-20.2-24.3-17.7-53.5,6.7-77.4
	c19.2-18.8,42.7-29.6,68.2-36.4c55.3-14.7,109.8-12.8,163.2,9c13,5.3,24.9,12.4,35.6,21.6c3.4,2.9,7,4.6,11.4,2.6
	c4.4-2,5.4-5.8,6-10.2c4.4-32.3-4.1-61.4-20.8-88.8c-10.4-17.1-22.5-33.3-30-52.2c-6.5-16.3-8.4-33.3-5.1-50.4
	c3.7-19.2,16.1-32.4,32.5-42.1c31.8-18.8,75.9-16.1,104.5,6.6c6.3,5,11.9,10.5,15.6,17.8c6,16.3,0.7,31.1-7.5,44.8
	c-12.9,21.6-33.1,33.3-57,39.2c-6.9,1.7-14,2.8-21.3,2.6c-5.7-0.1-5.9,0.3-3.3,5.7c1.1,2.3,2.4,4.6,2,7.3c-0.6,3.8,0.7,6.9,2.6,10.1
	c3.6,6.1,7.2,12.3,9.2,19.2c3.9,12.6,5.8,25.3,6.6,38.6c1.7,30.8-4.4,59.7-17.7,87.2c-16.9,35.2-43.6,60.2-80.1,74.5
	c-24.9,9.7-50.6,14.8-77.2,17c-22.6,1.8-44.8-0.2-67-3.9C120,422.4,112.1,419.7,104.1,417.3z"/>
<path style="fill:#FFFFFF;" d="M239.1,500.2c0,14.7-0.1,29.4,0.1,44.2c0.1,4.2-0.7,5.9-5.4,5.8c-11.1-0.4-22.3-0.2-33.4-0.1
	c-3.6,0.1-5.3-0.5-5.2-4.8c0.2-29.2,0.1-58.5,0-87.7c0-3.2,0.7-4.6,4.2-4.6c12.1,0.1,24.2-0.9,36.2-2.9c4.4-0.7,3.4,2,3.4,4.2
	C239.1,469.6,239.1,484.9,239.1,500.2C239.1,500.2,239.1,500.2,239.1,500.2z"/>
<path style="fill:#D0D0D0;" d="M104.1,417.3c10.9,2.1,21.6,4.8,32.6,6.1c18.4,2.3,36.8,4.2,55.6,2.6c18.6-1.6,37-3.9,55-8.8
	c21.8-6,42.2-14.7,60.5-28.4c26.5-19.8,42.1-46.7,52.6-77.3c5.7-16.7,8.3-34,8.6-51.3c0.3-15.5-1.2-31.2-5.1-46.5
	c-0.3-1.1-0.3-2.3-0.4-3.5c6.6,13.1,9.8,27.3,11.6,41.6c4.8,37.7-1.9,73.2-20.8,106.3c-16.6,29-40.6,48.9-72,60.4
	c-35.9,13.2-72.8,17.7-110.8,14.5c-21.9-1.8-43.2-6.5-63.8-14C106.5,418.7,105.4,417.9,104.1,417.3z"/>
<path style="fill:#D0D0D0;" d="M351.8,181c-1.7-3.4-3.1-6.9-5.2-10.1c-2.7-4.1-0.7-4.8,2.8-4.6c14.9,0.6,29.2-2.5,42.7-8.6
	c23-10.3,39.5-26.8,46.2-51.7c2.1-8,2.1-16.4,0.6-24.7c13.1,19.6,11,45.6-5.5,64.5c-14.3,16.3-32.5,25-53.9,27.7
	c-5.1,0.7-10.3,1.5-15.4,1C358.4,174,354.3,176,351.8,181z"/>
<path style="fill:#FDFB72;" d="M533.3,117.6c-10.7,1.8-21.4,3.7-32.1,5.5c-11,1.8-22,3.3-32.9,5.4c-4.4,0.9-4.5-0.1-3.6-4
	c2.1-9.3,2.4-18.8,0.1-29.2c23.5,7.2,46,14.2,68.5,21.1C533.3,116.8,533.3,117.2,533.3,117.6z"/>
<path style="fill:#824C97;" d="M215.4,358.6c-27.5-0.4-55.7-6.9-82-20.7c-6.3-3.3-8.6-8.4-6.1-13.5c2.6-5.4,8-6.6,14.9-3.1
	c37.4,18.9,76.3,23.4,116.9,13.1c6.9-1.7,11.8,0.7,13.3,6.3c1.5,5.4-2.1,10.3-8.8,12C248.5,356.4,233.2,358.6,215.4,358.6z"/>
<path style="fill:#824C97;" d="M406.5,97.7c-0.1,8.7-7.4,15.9-16,15.9c-8.6-0.1-15.9-7.5-15.9-16.1c0.1-8.6,7.5-16,16.1-15.9
	C399.4,81.7,406.6,89.1,406.5,97.7z"/>
</svg>
