<?xml version="1.0" encoding="iso-8859-1"?>
<!-- Generator: Adobe Illustrator 19.0.0, SVG Export Plug-In . SVG Version: 6.00 Build 0)  -->
<svg version="1.1" id="Capa_1" xmlns="http://www.w3.org/2000/svg" xmlns:xlink="http://www.w3.org/1999/xlink" x="0px" y="0px"
	 viewBox="0 0 469.333 469.333" style="enable-background:new 0 0 469.333 469.333;" xml:space="preserve">
<path style="fill:#303C42;" d="M469.333,85.333C469.333,37.479,389.688,0,288,0c-71.063,0-135.625,19-164.417,48.344L17.958,153.969
	l0.311,0.311C6.656,165.609,0,178.357,0,192c0,19.948,13.042,38.177,37.792,53.031L21.5,424.323
	c-0.104,1.25-0.167,2.479-0.167,3.729c0,22.76,18.521,41.281,41.271,41.281h237.458c11.375,0,21.691-4.63,29.165-12.105l0.001,0.001
	l106.688-106.646c7.792-7.781,12.083-18.156,12.083-29.198c0-1.25-16.066-178.609-16.066-178.609l20.212-20.203
	C463.396,111.281,469.333,98.396,469.333,85.333z"/>
<path style="fill:#FFCC80;" d="M300.063,448H62.604c-11,0-19.938-8.948-19.854-21.75l16.917-186.135
	c0.375-4.26-1.813-8.344-5.583-10.365c-21.125-11.333-32.75-24.74-32.75-37.75c0-30.271,65.708-64,160-64s160,33.729,160,64
	c0,13.01-11.625,26.417-32.75,37.75c-3.771,2.021-5.958,6.104-5.583,10.365l17,187.938c0,5.479-2.225,10.443-5.811,14.051
	l-0.043,0.043l0.008,0.008C310.544,445.764,305.561,448,300.063,448z"/>
<path style="opacity:0.2;fill:#FFFFFF;enable-background:new    ;" d="M77.188,426.25l16.917-186.135
	c0.375-4.26-1.813-8.344-5.583-10.365c-21.125-11.333-32.75-24.74-32.75-37.75c0-28.392,57.805-59.823,142.781-63.616
	c-5.624-0.251-11.366-0.384-17.219-0.384c-94.292,0-160,33.729-160,64c0,13.01,11.625,26.417,32.75,37.75
	c3.771,2.021,5.958,6.104,5.583,10.365L42.75,426.25C42.667,439.052,51.604,448,62.604,448h34.438
	C86.042,448,77.104,439.052,77.188,426.25z"/>
<path style="opacity:0.1;enable-background:new    ;" d="M308.583,229.75c21.125-11.333,32.75-24.74,32.75-37.75
	c0-30.271-65.708-64-160-64c-5.439,0-10.758,0.139-16,0.357c85.629,3.549,144,35.118,144,63.643c0,13.01-11.625,26.417-32.75,37.75
	c-3.771,2.021-5.958,6.104-5.583,10.365l17,187.938c0,5.479-2.225,10.443-5.811,14.051l-0.043,0.043l0.008,0.008
	c-3.609,3.611-8.592,5.846-14.091,5.846h32c5.499,0,10.482-2.236,14.091-5.846l-0.008-0.008l0.043-0.043
	c3.586-3.608,5.811-8.572,5.811-14.051l-17-187.938C302.625,235.854,304.813,231.771,308.583,229.75z"/>
<path style="fill:#6D534B;" d="M426.667,321.385c0,5.344-2.063,10.333-5.854,14.094l-80.411,80.411l-15.526-170.859
	c7.604-4.564,13.961-9.479,19.316-14.632l0.038,0.038l2.583-2.582c0.323-0.34,0.697-0.667,1.009-1.009l64.461-64.43L426.667,321.385
	z"/>
<path style="fill:#7D665F;" d="M437.042,107.51l-75.387,75.35c-9.406-43.398-85.208-76.194-180.322-76.194
	c-37.083,0-71.169,5.03-99.596,13.685l56.992-56.997C163.417,38.219,223.396,21.333,288,21.333c94.292,0,160,33.729,160,64
	C448,92.74,444.313,100.208,437.042,107.51z"/>
<path style="opacity:0.7;fill:#FAB13B;enable-background:new    ;" d="M426.667,321.385c0,5.344-2.063,10.333-5.854,14.094
	l-80.411,80.411l-15.526-170.859c7.604-4.564,13.961-9.479,19.316-14.632l0.038,0.038l2.583-2.582
	c0.323-0.34,0.697-0.667,1.009-1.009l64.461-64.43L426.667,321.385z"/>
<path style="opacity:0.7;fill:#FAB951;enable-background:new    ;" d="M437.042,107.51l-75.387,75.35
	c-9.406-43.398-85.208-76.194-180.322-76.194c-37.083,0-71.169,5.03-99.596,13.685l56.992-56.997
	C163.417,38.219,223.396,21.333,288,21.333c94.292,0,160,33.729,160,64C448,92.74,444.313,100.208,437.042,107.51z"/>
<linearGradient id="SVGID_1_" gradientUnits="userSpaceOnUse" x1="-49.8153" y1="614.6574" x2="-45.4474" y2="610.2885" gradientTransform="matrix(21.3333 0 0 -21.3333 1430.1112 13315.2227)">
	<stop  offset="0" style="stop-color:#000000;stop-opacity:0.1"/>
	<stop  offset="1" style="stop-color:#000000;stop-opacity:0"/>
</linearGradient>
<path style="fill:url(#SVGID_1_);" d="M420.813,335.479c3.792-3.76,5.854-8.75,5.854-14.094l-14.384-158.969l-64.461,64.43
	c-0.313,0.342-0.686,0.669-1.009,1.009l-2.583,2.582l-0.038-0.038c-5.355,5.152-11.712,10.068-19.316,14.632l93.193,93.193
	L420.813,335.479z"/>
<linearGradient id="SVGID_2_" gradientUnits="userSpaceOnUse" x1="-66.2267" y1="617.3333" x2="-46.3178" y2="608.0504" gradientTransform="matrix(21.3333 0 0 -21.3333 1430.1112 13315.2227)">
	<stop  offset="0" style="stop-color:#FFFFFF;stop-opacity:0.2"/>
	<stop  offset="1" style="stop-color:#FFFFFF;stop-opacity:0"/>
</linearGradient>
<path style="fill:url(#SVGID_2_);" d="M469.333,85.333C469.333,37.479,389.688,0,288,0c-71.063,0-135.625,19-164.417,48.344
	L17.958,153.969l0.311,0.311C6.656,165.609,0,178.357,0,192c0,19.948,13.042,38.177,37.792,53.031L21.5,424.323
	c-0.104,1.25-0.167,2.479-0.167,3.729c0,22.76,18.521,41.281,41.271,41.281h237.458c11.375,0,21.691-4.63,29.165-12.105l0.001,0.001
	l106.688-106.646c7.792-7.781,12.083-18.156,12.083-29.198c0-1.25-16.066-178.609-16.066-178.609l20.212-20.203
	C463.396,111.281,469.333,98.396,469.333,85.333z"/>
<g>
</g>
<g>
</g>
<g>
</g>
<g>
</g>
<g>
</g>
<g>
</g>
<g>
</g>
<g>
</g>
<g>
</g>
<g>
</g>
<g>
</g>
<g>
</g>
<g>
</g>
<g>
</g>
<g>
</g>
</svg>
