<?xml version="1.0" encoding="iso-8859-1"?>
<!-- Generator: Adobe Illustrator 19.0.0, SVG Export Plug-In . SVG Version: 6.00 Build 0)  -->
<svg version="1.1" id="Capa_1" xmlns="http://www.w3.org/2000/svg" xmlns:xlink="http://www.w3.org/1999/xlink" x="0px" y="0px"
	 viewBox="0 0 512 512" style="enable-background:new 0 0 512 512;" xml:space="preserve">
<path style="fill:#303C42;" d="M512,181.333V160c0-57.417-102.875-96-256-96S0,102.583,0,160v21.333
	c0,14.704,10.025,26.995,23.559,30.727c-1.408,3.697-2.225,7.714-2.225,11.94c0,5.322,1.346,10.268,3.521,14.688
	C10.227,245.46,0,260.18,0,277.333c0,17.221,10.299,32.003,25.021,38.737c-2.277,4.397-3.688,9.311-3.688,14.596
	c0,4.212,0.863,8.215,2.349,11.901C10.082,346.257,0,358.582,0,373.333C0,414.5,33.5,448,74.667,448h362.667
	C478.5,448,512,414.5,512,373.333c0-14.751-10.082-27.077-23.682-30.766c1.486-3.686,2.349-7.689,2.349-11.901
	c0-5.285-1.41-10.199-3.688-14.596C501.701,309.336,512,294.555,512,277.333c0-17.154-10.227-31.874-24.854-38.646
	c2.174-4.419,3.521-9.366,3.521-14.688c0-4.227-0.818-8.243-2.225-11.94C501.975,208.328,512,196.038,512,181.333z"/>
<path style="fill:#FFCA28;" d="M469.333,224c0,5.885-3.958,10.667-8.813,10.667H309.333c-28.625,0-54.257,36.479-66.406,56.969
	C222.318,272.441,172.135,234.667,96,234.667H51.479c-4.854,0-8.813-4.781-8.813-10.667c0-5.885,3.958-10.667,8.813-10.667h409.042
	C465.375,213.333,469.333,218.115,469.333,224z"/>
<path style="fill:#7CB342;" d="M469.333,330.667c0,5.885-4.781,10.667-10.667,10.667H53.333c-5.885,0-10.667-4.781-10.667-10.667
	c0-5.885,4.781-10.667,10.667-10.667h405.333C464.552,320,469.333,324.781,469.333,330.667z"/>
<path style="fill:#A1887F;" d="M42.667,256H96c57.875,0,99.708,24.896,122.177,42.667H53.333H42.667
	c-11.76,0-21.333-9.573-21.333-21.333S30.906,256,42.667,256z"/>
<g>
	<path style="opacity:0.2;fill:#FFFFFF;enable-background:new    ;" d="M53.333,224c0-5.885,3.958-10.667,8.813-10.667H51.479
		c-4.854,0-8.813,4.781-8.813,10.667c0,5.885,3.958,10.667,8.813,10.667h10.667C57.292,234.667,53.333,229.885,53.333,224z"/>
	<path style="opacity:0.2;fill:#FFFFFF;enable-background:new    ;" d="M53.333,330.667C53.333,324.781,58.115,320,64,320H53.333
		c-5.885,0-10.667,4.781-10.667,10.667c0,5.885,4.781,10.667,10.667,10.667H64C58.115,341.333,53.333,336.552,53.333,330.667z"/>
	<path style="opacity:0.2;fill:#FFFFFF;enable-background:new    ;" d="M32,277.333C32,265.573,41.573,256,53.333,256H42.667
		c-11.76,0-21.333,9.573-21.333,21.333s9.573,21.333,21.333,21.333h10.667C41.573,298.667,32,289.094,32,277.333z"/>
</g>
<path style="fill:#FFC571;" d="M437.333,426.667H74.667c-29.406,0-53.333-23.927-53.333-53.333c0-5.885,4.781-10.667,10.667-10.667
	h21.333h405.333H480c5.885,0,10.667,4.781,10.667,10.667C490.667,402.74,466.74,426.667,437.333,426.667z"/>
<path style="fill:#A1887F;" d="M469.333,298.667h-10.667h-195.01C275.823,279.313,294.563,256,309.333,256h160
	c11.76,0,21.333,9.573,21.333,21.333S481.094,298.667,469.333,298.667z"/>
<g>
	<path style="opacity:0.48;fill:#C62828;enable-background:new    ;" d="M42.667,256H96c57.875,0,99.708,24.896,122.177,42.667
		H53.333H42.667c-11.76,0-21.333-9.573-21.333-21.333S30.906,256,42.667,256z"/>
	<path style="opacity:0.48;fill:#C62828;enable-background:new    ;" d="M469.333,298.667h-10.667h-195.01
		C275.823,279.313,294.563,256,309.333,256h160c11.76,0,21.333,9.573,21.333,21.333S481.094,298.667,469.333,298.667z"/>
</g>
<path style="fill:#FFC571;" d="M490.667,181.333c0,5.885-4.781,10.667-10.667,10.667h-19.479H51.479H32
	c-5.885,0-10.667-4.781-10.667-10.667V160c0-36.698,87.781-74.667,234.667-74.667S490.667,123.302,490.667,160V181.333z"/>
<path style="opacity:0.2;fill:#BCAAA4;enable-background:new    ;" d="M437.333,426.667H74.667
	c-29.406,0-53.333-23.927-53.333-53.333c0-5.885,4.781-10.667,10.667-10.667h21.333h405.333H480c5.885,0,10.667,4.781,10.667,10.667
	C490.667,402.74,466.74,426.667,437.333,426.667z"/>
<path style="opacity:0.1;enable-background:new    ;" d="M480,362.667h-1.079c-4.956,24.314-26.5,42.667-52.254,42.667H64
	c-16.637,0-31.333-7.818-41.122-19.793c5.553,23.517,26.6,41.126,51.789,41.126h362.667c29.406,0,53.333-23.927,53.333-53.333
	C490.667,367.448,485.885,362.667,480,362.667z"/>
<path style="opacity:0.2;fill:#BCAAA4;enable-background:new    ;" d="M490.667,181.333c0,5.885-4.781,10.667-10.667,10.667h-19.479
	H51.479H32c-5.885,0-10.667-4.781-10.667-10.667V160c0-36.698,87.781-74.667,234.667-74.667S490.667,123.302,490.667,160V181.333z"
	/>
<path style="opacity:0.2;fill:#FFFFFF;enable-background:new    ;" d="M278.678,96c79.005,0,140.703,11.033,181.048,26.896
	C422.147,101.5,351.741,85.333,256,85.333c-146.885,0-234.667,37.969-234.667,74.667v21.333C21.333,187.219,26.115,192,32,192
	h12.012v-21.333C44.012,133.969,131.793,96,278.678,96z"/>
<g>
	<path style="fill:#303C42;" d="M250.104,107.792c-5.281-2.604-11.667-0.49-14.313,4.771l-10.667,21.333
		c-2.635,5.271-0.5,11.677,4.771,14.313c1.531,0.76,3.156,1.125,4.76,1.125c3.917,0,7.677-2.156,9.552-5.896l10.667-21.333
		C257.51,116.833,255.375,110.427,250.104,107.792z"/>
	<path style="fill:#303C42;" d="M165.896,107.792l-21.333,10.667c-5.271,2.635-7.406,9.042-4.771,14.313
		c1.875,3.74,5.635,5.896,9.552,5.896c1.604,0,3.229-0.365,4.76-1.125l21.333-10.667c5.271-2.635,7.406-9.042,4.771-14.313
		C177.573,107.302,171.146,105.188,165.896,107.792z"/>
	<path style="fill:#303C42;" d="M100.771,129.125c-5.26-2.604-11.677-0.5-14.313,4.771l-10.667,21.333
		c-2.635,5.271-0.5,11.677,4.771,14.313c1.531,0.76,3.156,1.125,4.76,1.125c3.917,0,7.677-2.156,9.552-5.896l10.667-21.333
		C108.177,138.167,106.042,131.76,100.771,129.125z"/>
	<path style="fill:#303C42;" d="M425.542,133.896c-2.646-5.271-9.031-7.375-14.313-4.771c-5.271,2.635-7.406,9.042-4.771,14.313
		l10.667,21.333c1.875,3.74,5.635,5.896,9.552,5.896c1.604,0,3.229-0.365,4.76-1.125c5.271-2.635,7.406-9.042,4.771-14.313
		L425.542,133.896z"/>
	<path style="fill:#303C42;" d="M356.771,129.125l-21.333-10.667c-5.26-2.625-11.677-0.5-14.313,4.771
		c-2.635,5.271-0.5,11.677,4.771,14.313l21.333,10.667c1.531,0.76,3.156,1.125,4.76,1.125c3.917,0,7.677-2.156,9.552-5.896
		C364.177,138.167,362.042,131.76,356.771,129.125z"/>
</g>
<linearGradient id="SVGID_1_" gradientUnits="userSpaceOnUse" x1="-39.394" y1="641.2932" x2="-26.7913" y2="628.6895" gradientTransform="matrix(21.3333 0 0 -21.3333 996.3334 13791.667)">
	<stop  offset="0" style="stop-color:#000000;stop-opacity:0.1"/>
	<stop  offset="1" style="stop-color:#000000;stop-opacity:0"/>
</linearGradient>
<path style="fill:url(#SVGID_1_);" d="M469.333,256h-160c-14.771,0-33.51,23.313-45.677,42.667h205.677
	c11.76,0,21.333-9.573,21.333-21.333S481.094,256,469.333,256z M458.667,320H160l21.333,21.333h277.333
	c5.885,0,10.667-4.781,10.667-10.667C469.333,324.781,464.552,320,458.667,320z M96,256l42.667,42.667h79.51
	C195.708,280.896,153.875,256,96,256z M242.927,291.635c12.15-20.49,37.781-56.969,66.406-56.969h151.188
	c4.854,0,8.813-4.781,8.813-10.667c0-5.885-3.958-10.667-8.813-10.667H53.333l21.333,21.333H96
	C172.135,234.667,222.318,272.441,242.927,291.635z"/>
<linearGradient id="SVGID_2_" gradientUnits="userSpaceOnUse" x1="-46.7545" y1="639.3659" x2="-22.7256" y2="628.1609" gradientTransform="matrix(21.3333 0 0 -21.3333 996.3334 13791.667)">
	<stop  offset="0" style="stop-color:#FFFFFF;stop-opacity:0.2"/>
	<stop  offset="1" style="stop-color:#FFFFFF;stop-opacity:0"/>
</linearGradient>
<path style="fill:url(#SVGID_2_);" d="M512,181.333V160c0-57.417-102.875-96-256-96S0,102.583,0,160v21.333
	c0,14.704,10.025,26.995,23.559,30.727c-1.408,3.697-2.225,7.714-2.225,11.94c0,5.322,1.346,10.268,3.521,14.688
	C10.227,245.46,0,260.18,0,277.333c0,17.221,10.299,32.003,25.021,38.737c-2.277,4.397-3.688,9.311-3.688,14.596
	c0,4.212,0.863,8.215,2.349,11.901C10.082,346.257,0,358.582,0,373.333C0,414.5,33.5,448,74.667,448h362.667
	C478.5,448,512,414.5,512,373.333c0-14.751-10.082-27.077-23.682-30.766c1.486-3.686,2.349-7.689,2.349-11.901
	c0-5.285-1.41-10.199-3.688-14.596C501.701,309.336,512,294.555,512,277.333c0-17.154-10.227-31.874-24.854-38.646
	c2.174-4.419,3.521-9.366,3.521-14.688c0-4.227-0.818-8.243-2.225-11.94C501.975,208.328,512,196.038,512,181.333z"/>
<g>
</g>
<g>
</g>
<g>
</g>
<g>
</g>
<g>
</g>
<g>
</g>
<g>
</g>
<g>
</g>
<g>
</g>
<g>
</g>
<g>
</g>
<g>
</g>
<g>
</g>
<g>
</g>
<g>
</g>
</svg>
