<?xml version="1.0" encoding="iso-8859-1"?>
<!-- Generator: Adobe Illustrator 19.0.0, SVG Export Plug-In . SVG Version: 6.00 Build 0)  -->
<svg version="1.1" id="Capa_1" xmlns="http://www.w3.org/2000/svg" xmlns:xlink="http://www.w3.org/1999/xlink" x="0px" y="0px"
	 viewBox="0 0 512 512" style="enable-background:new 0 0 512 512;" xml:space="preserve">
<path style="fill:#303C42;" d="M478.49,75.372l-37.719-15.396c-2.969-1.219-6.344-1.031-9.146,0.51
	c-2.813,1.542-4.792,4.271-5.375,7.427c-1.865,10.094-10.667,17.417-20.917,17.417c-11.76,0-21.333-9.573-21.333-21.333
	c0-4.25,1.25-8.354,3.615-11.865c1.792-2.667,2.281-5.99,1.354-9.063c-0.938-3.073-3.208-5.563-6.177-6.771L301.708,3.195
	c-0.313-0.125-0.646-0.24-0.979-0.333c-11.427-5.167-23.458-3.094-32.635,4.312c-0.302,0.188-0.594,0.385-0.885,0.594
	c-5.156,3.865-24.406,18.719-50.01,38.521c-2.417,1.865-3.917,4.667-4.125,7.708c-0.385,5.698-5.406,10.906-10,9.948
	c-0.292-0.073-1.875-0.469-2.167-0.521c-2.99-0.583-6.115,0.167-8.521,2.042l-29.406,22.76
	c-61.75,47.792-138.594,107.271-143.906,110.927c0,0.01-1.781,1.229-1.781,1.229c-0.552,0.385-1.083,0.854-1.573,1.375
	C5.708,209.924,0,221.841,0,234.664v117.333c0,5.896,4.771,10.667,10.667,10.667c17.646,0,32,14.354,32,32c0,17.646-14.354,32-32,32
	C4.771,426.664,0,431.435,0,437.33v32c0,23.531,19.135,42.667,42.667,42.667c2.979,0,5.958-0.333,9.75-1.167l420.698-118.469
	C496.01,385.914,512,364.799,512,341.018V124.883C512,102.955,498.844,83.518,478.49,75.372z"/>
<path style="fill:#F9A825;" d="M176.042,105.091l25.583-19.792c0.333,0.021,0.688,0.031,1.042,0.031
	c14.885,0,27.604-10.521,30.927-24.76c22.292-17.229,39.24-30.302,45.323-34.906c0.74-0.406,1.438-0.885,2.073-1.458
	c2.104-1.896,5.823-4.49,11.677-1.563c0.656,0.323,1.365,0.573,2.094,0.76l69.667,28.437c-1.167,3.917-1.76,8-1.76,12.156
	c0,23.531,19.135,42.667,42.667,42.667c16.135,0,30.469-9.052,37.688-22.729l27.458,11.208c0.021,0.01,0.042,0.021,0.073,0.031
	c1.333,0.533,2.396,1.431,3.621,2.118L43.936,207.112C66.003,190.237,114.262,152.906,176.042,105.091z"/>
<path style="opacity:0.2;fill:#FFFFFF;enable-background:new    ;" d="M186.708,115.758l25.583-19.792
	c0.333,0.021,0.688,0.031,1.042,0.031c14.885,0,27.604-10.521,30.927-24.76c22.292-17.229,39.24-30.302,45.323-34.906
	c0.74-0.406,1.438-0.885,2.073-1.458c2.104-1.896,5.823-4.49,11.677-1.563c0.656,0.323,1.365,0.573,2.094,0.76l58.137,23.73
	c0.294-1.99,0.292-4.039,0.863-5.96L294.76,23.403c-0.729-0.188-1.438-0.438-2.094-0.76c-5.854-2.927-9.573-0.333-11.677,1.563
	c-0.635,0.573-1.333,1.052-2.073,1.458c-6.083,4.604-23.031,17.677-45.323,34.906c-3.323,14.24-16.042,24.76-30.927,24.76
	c-0.354,0-0.708-0.01-1.042-0.031l-25.583,19.792c-61.78,47.815-110.039,85.146-132.105,102.021l36.738-9.378
	C106.357,177.933,143.036,149.557,186.708,115.758z"/>
<path style="fill:#FBC02D;" d="M490.667,341.018c0,14.271-9.594,26.938-23.333,30.802L47.271,490.133
	c-15.073,3.26-25.938-7.594-25.938-20.802v-22.406C45.646,441.966,64,420.424,64,394.664c0-25.76-18.354-47.302-42.667-52.26
	v-107.51l467.921-119.438c0.917,2.999,1.413,6.165,1.413,9.427V341.018z"/>
<path style="opacity:0.1;enable-background:new    ;" d="M489.254,115.455l-8.316,2.122v213.711
	c0,14.271-9.594,26.937-23.333,30.802L37.542,480.403c-5.31,1.148-10.053,0.474-14.029-1.367
	c3.876,8.215,12.655,13.497,23.758,11.096L467.333,371.82c13.74-3.865,23.333-16.531,23.333-30.802V124.883
	C490.667,121.621,490.171,118.454,489.254,115.455z"/>
<circle style="fill:#303C42;" cx="138.667" cy="298.667" r="53.333"/>
<circle style="fill:#F9A825;" cx="138.667" cy="298.667" r="32"/>
<path style="opacity:0.1;enable-background:new    ;" d="M113.833,305.83c0-17.646,14.354-32,32-32
	c6.995,0,13.418,2.322,18.69,6.143c-5.82-8.026-15.206-13.31-25.857-13.31c-17.646,0-32,14.354-32,32
	c0,10.651,5.284,20.036,13.31,25.857C116.155,319.248,113.833,312.825,113.833,305.83z"/>
<circle style="fill:#303C42;" cx="245.333" cy="373.333" r="32"/>
<circle style="fill:#F9A825;" cx="245.333" cy="373.333" r="10.667"/>
<path style="opacity:0.1;enable-background:new    ;" d="M239.52,378.182c0-5.885,4.781-10.667,10.667-10.667
	c1.685,0,3.223,0.473,4.641,1.171c-1.74-3.533-5.294-6.022-9.493-6.022c-5.885,0-10.667,4.781-10.667,10.667
	c0,4.201,2.492,7.758,6.026,9.496C239.993,381.407,239.52,379.868,239.52,378.182z"/>
<g>
	<circle style="fill:#303C42;" cx="330.667" cy="288" r="32"/>
	<circle style="fill:#303C42;" cx="426.667" cy="234.667" r="42.667"/>
</g>
<circle style="fill:#F9A825;" cx="426.667" cy="234.667" r="21.333"/>
<path style="opacity:0.1;enable-background:new    ;" d="M416,245.33c0-11.76,9.573-21.333,21.333-21.333
	c3.12,0,6.034,0.749,8.708,1.958c-3.349-7.406-10.734-12.625-19.375-12.625c-11.76,0-21.333,9.573-21.333,21.333
	c0,8.641,5.219,16.026,12.625,19.375C416.749,251.364,416,248.45,416,245.33z"/>
<circle style="fill:#F9A825;" cx="330.667" cy="288" r="10.667"/>
<path style="opacity:0.1;enable-background:new    ;" d="M324.853,292.849c0-5.885,4.781-10.667,10.667-10.667
	c1.685,0,3.223,0.473,4.641,1.171c-1.74-3.533-5.294-6.022-9.493-6.022c-5.885,0-10.667,4.781-10.667,10.667
	c0,4.201,2.492,7.758,6.026,9.496C325.327,296.074,324.853,294.535,324.853,292.849z"/>
<linearGradient id="SVGID_1_" gradientUnits="userSpaceOnUse" x1="-45.7887" y1="637.886" x2="-23.7862" y2="627.6262" gradientTransform="matrix(21.3333 0 0 -21.3333 996.3334 13791.667)">
	<stop  offset="0" style="stop-color:#FFFFFF;stop-opacity:0.2"/>
	<stop  offset="1" style="stop-color:#FFFFFF;stop-opacity:0"/>
</linearGradient>
<path style="fill:url(#SVGID_1_);" d="M478.49,75.372l-37.719-15.396c-2.969-1.219-6.344-1.031-9.146,0.51
	c-2.813,1.542-4.792,4.271-5.375,7.427c-1.865,10.094-10.667,17.417-20.917,17.417c-11.76,0-21.333-9.573-21.333-21.333
	c0-4.25,1.25-8.354,3.615-11.865c1.792-2.667,2.281-5.99,1.354-9.063c-0.938-3.073-3.208-5.563-6.177-6.771L301.708,3.195
	c-0.313-0.125-0.646-0.24-0.979-0.333c-11.427-5.167-23.458-3.094-32.635,4.312c-0.302,0.188-0.594,0.385-0.885,0.594
	c-5.156,3.865-24.406,18.719-50.01,38.521c-2.417,1.865-3.917,4.667-4.125,7.708c-0.385,5.698-5.406,10.906-10,9.948
	c-0.292-0.073-1.875-0.469-2.167-0.521c-2.99-0.583-6.115,0.167-8.521,2.042l-29.406,22.76
	c-61.75,47.792-138.594,107.271-143.906,110.927c0,0.01-1.781,1.229-1.781,1.229c-0.552,0.385-1.083,0.854-1.573,1.375
	C5.708,209.924,0,221.841,0,234.664v117.333c0,5.896,4.771,10.667,10.667,10.667c17.646,0,32,14.354,32,32c0,17.646-14.354,32-32,32
	C4.771,426.664,0,431.435,0,437.33v32c0,23.531,19.135,42.667,42.667,42.667c2.979,0,5.958-0.333,9.75-1.167l420.698-118.469
	C496.01,385.914,512,364.799,512,341.018V124.883C512,102.955,498.844,83.518,478.49,75.372z"/>
<g>
</g>
<g>
</g>
<g>
</g>
<g>
</g>
<g>
</g>
<g>
</g>
<g>
</g>
<g>
</g>
<g>
</g>
<g>
</g>
<g>
</g>
<g>
</g>
<g>
</g>
<g>
</g>
<g>
</g>
</svg>
