<?xml version="1.0" encoding="iso-8859-1"?>
<!-- Generator: Adobe Illustrator 19.0.0, SVG Export Plug-In . SVG Version: 6.00 Build 0)  -->
<svg version="1.1" id="Capa_1" xmlns="http://www.w3.org/2000/svg" xmlns:xlink="http://www.w3.org/1999/xlink" x="0px" y="0px"
	 viewBox="0 0 512 512" style="enable-background:new 0 0 512 512;" xml:space="preserve">
<path style="fill:#303C42;" d="M443.896,236.927c-2.604-2.021-5.969-2.781-9.146-1.938c-1.573,0.392-4.522,1.146-8.083,2.076
	V117.333c0-5.896-4.771-10.667-10.667-10.667h-96v-96C320,4.771,315.229,0,309.333,0H96c-5.896,0-10.667,4.771-10.667,10.667
	v227.478c-2.259-0.911-4.384-1.788-6.708-2.717c-3.24-1.302-6.99-0.896-9.938,1.073C65.76,238.49,64,241.792,64,245.333v224
	C64,492.865,83.135,512,106.667,512h298.667C428.865,512,448,492.865,448,469.333v-224C448,242.052,446.49,238.948,443.896,236.927z
	"/>
<g>
	<rect x="106.667" y="128" style="fill:#6D4C41;" width="85.333" height="85.333"/>
	<rect x="213.333" y="128" style="fill:#6D4C41;" width="85.333" height="85.333"/>
	<path style="fill:#6D4C41;" d="M213.333,234.667h85.333v44.439c-25.389,10.69-48.443,22.651-62.938,35.145
		c-4.738-4.344-11.827-9.647-22.396-16.115V234.667z"/>
</g>
<path style="fill:#DA4E4E;" d="M426.667,259.125v30.082c-48.9,9.633-125.475,78.823-155.75,107.751l-23.984-63.971
	C275.35,304.266,375.5,272.868,426.667,259.125z"/>
<g>
	<path style="fill:#6D4C41;" d="M320,270.633v-35.966h85.333v8.199C382.783,249.217,351.01,258.884,320,270.633z"/>
	<rect x="320" y="128" style="fill:#6D4C41;" width="85.333" height="85.333"/>
	<rect x="213.333" y="21.333" style="fill:#6D4C41;" width="85.333" height="85.333"/>
	<rect x="106.667" y="21.333" style="fill:#6D4C41;" width="85.333" height="85.333"/>
	<path style="fill:#6D4C41;" d="M106.667,234.667H192v51.436c-19.98-10.56-47.539-23.47-85.333-39.215V234.667z"/>
</g>
<g>
	<path style="opacity:0.2;fill:#FFFFFF;enable-background:new    ;" d="M221.542,242.875h77.125v-8.208h-85.333v63.469
		c3.04,1.861,5.717,3.598,8.208,5.27V242.875z"/>
	<path style="opacity:0.2;fill:#FFFFFF;enable-background:new    ;" d="M328.208,242.875h77.094l0.031-0.009v-8.199H320v35.966
		c2.738-1.038,5.466-1.964,8.208-2.967V242.875z"/>
	<polygon style="opacity:0.2;fill:#FFFFFF;enable-background:new    ;" points="221.542,29.542 298.667,29.542 298.667,21.333 
		213.333,21.333 213.333,106.667 221.542,106.667 	"/>
	<polygon style="opacity:0.2;fill:#FFFFFF;enable-background:new    ;" points="114.875,29.542 192,29.542 192,21.333 
		106.667,21.333 106.667,106.667 114.875,106.667 	"/>
	<polygon style="opacity:0.2;fill:#FFFFFF;enable-background:new    ;" points="221.542,136.208 298.667,136.208 298.667,128 
		213.333,128 213.333,213.333 221.542,213.333 	"/>
	<polygon style="opacity:0.2;fill:#FFFFFF;enable-background:new    ;" points="328.208,136.208 405.333,136.208 405.333,128 
		320,128 320,213.333 328.208,213.333 	"/>
	<polygon style="opacity:0.2;fill:#FFFFFF;enable-background:new    ;" points="114.875,136.208 192,136.208 192,128 106.667,128 
		106.667,213.333 114.875,213.333 	"/>
	<path style="opacity:0.2;fill:#FFFFFF;enable-background:new    ;" d="M114.875,242.875H192v-8.208h-85.333v12.221
		c2.93,1.221,5.4,2.313,8.208,3.5V242.875z"/>
</g>
<g>
	<path style="fill:#DA4E4E;" d="M219.993,326.767l-56.285,32.16c-12.529-19.579-43.336-61.716-78.375-69.342v-28.408
		C143.236,285.033,203.648,313.918,219.993,326.767z"/>
	<path style="fill:#DA4E4E;" d="M405.333,490.667H106.667c-11.76,0-21.333-9.573-21.333-21.333V311.383
		c27.102,9.365,55.658,50.228,65.406,67.242c2.917,5.125,9.427,6.906,14.552,3.969l63.792-36.448l27.594,73.604
		c1.271,3.396,4.188,5.906,7.729,6.677c0.75,0.156,1.51,0.24,2.26,0.24c2.802,0,5.521-1.104,7.542-3.125
		c29.225-29.216,108.682-101.154,152.458-112.522v158.314C426.667,481.094,417.094,490.667,405.333,490.667z"/>
</g>
<g>
	<path style="opacity:0.5;fill:#5D4037;enable-background:new    ;" d="M426.667,259.125v30.082
		c-48.9,9.633-125.475,78.823-155.75,107.751l-23.984-63.971C275.35,304.266,375.5,272.868,426.667,259.125z"/>
	<path style="opacity:0.5;fill:#5D4037;enable-background:new    ;" d="M219.993,326.767l-56.285,32.16
		c-12.529-19.579-43.336-61.716-78.375-69.342v-28.408C143.236,285.033,203.648,313.918,219.993,326.767z"/>
	<path style="opacity:0.5;fill:#5D4037;enable-background:new    ;" d="M405.333,490.667H106.667
		c-11.76,0-21.333-9.573-21.333-21.333V311.383c27.102,9.365,55.658,50.228,65.406,67.242c2.917,5.125,9.427,6.906,14.552,3.969
		l63.792-36.448l27.594,73.604c1.271,3.396,4.188,5.906,7.729,6.677c0.75,0.156,1.51,0.24,2.26,0.24
		c2.802,0,5.521-1.104,7.542-3.125c29.225-29.216,108.682-101.154,152.458-112.522v158.314
		C426.667,481.094,417.094,490.667,405.333,490.667z"/>
</g>
<path style="opacity:0.1;enable-background:new    ;" d="M256.551,419.75c1.033,3.396,3.402,5.906,6.28,6.677
	c0.609,0.156,1.227,0.24,1.836,0.24c0.21,0,0.4-0.129,0.607-0.147c-0.289-0.038-0.579-0.033-0.867-0.092
	c-3.542-0.771-6.458-3.281-7.729-6.677l-0.673-1.797L256.551,419.75z"/>
<path style="opacity:0.2;fill:#FFFFFF;enable-background:new    ;" d="M117.333,469.333V334.397
	c-10.044-10.341-21.111-19.251-32-23.014v157.951c0,11.76,9.573,21.333,21.333,21.333h28
	C125.112,490.667,117.333,481.094,117.333,469.333z"/>
<path style="opacity:0.1;enable-background:new    ;" d="M394.667,325.609v143.724c0,11.76-7.777,21.333-17.333,21.333h28
	c11.76,0,21.333-9.573,21.333-21.333V311.02C417.354,313.438,406.38,318.704,394.667,325.609z"/>
<linearGradient id="SVGID_1_" gradientUnits="userSpaceOnUse" x1="-46.1532" y1="638.6973" x2="-23.7421" y2="628.2462" gradientTransform="matrix(21.3333 0 0 -21.3333 996.3334 13791.667)">
	<stop  offset="0" style="stop-color:#FFFFFF;stop-opacity:0.2"/>
	<stop  offset="1" style="stop-color:#FFFFFF;stop-opacity:0"/>
</linearGradient>
<path style="fill:url(#SVGID_1_);" d="M443.896,236.927c-2.604-2.021-5.969-2.781-9.146-1.938c-1.573,0.392-4.522,1.146-8.083,2.076
	V117.333c0-5.896-4.771-10.667-10.667-10.667h-96v-96C320,4.771,315.229,0,309.333,0H96c-5.896,0-10.667,4.771-10.667,10.667
	v227.478c-2.259-0.911-4.384-1.788-6.708-2.717c-3.24-1.302-6.99-0.896-9.938,1.073C65.76,238.49,64,241.792,64,245.333v224
	C64,492.865,83.135,512,106.667,512h298.667C428.865,512,448,492.865,448,469.333v-224C448,242.052,446.49,238.948,443.896,236.927z
	"/>
<g>
</g>
<g>
</g>
<g>
</g>
<g>
</g>
<g>
</g>
<g>
</g>
<g>
</g>
<g>
</g>
<g>
</g>
<g>
</g>
<g>
</g>
<g>
</g>
<g>
</g>
<g>
</g>
<g>
</g>
</svg>
