<?xml version="1.0" encoding="utf-8"?>
<!-- Generator: Adobe Illustrator 24.0.0, SVG Export Plug-In . SVG Version: 6.00 Build 0)  -->
<svg version="1.1" id="Layer_1" xmlns="http://www.w3.org/2000/svg" xmlns:xlink="http://www.w3.org/1999/xlink" x="0px" y="0px"
	 viewBox="0 0 521.2 511" style="enable-background:new 0 0 521.2 511;" xml:space="preserve">
<path style="fill:#050505;" d="M145.8,127.5c-13.5-2.6-13.2-12.9-15.4-21.7c-2.5-10.4-2.4-10.5-11.7-5.1c-1.8,1-3.7,2-5.4,3.2
	c-3.6,2.3-7.1,2.3-10.9,0.2C80.5,91.6,58.6,79.3,36.7,66.8c-7.3-4.1-7.4-11.3-0.3-15.7C52.8,41,70.8,34.3,89.9,32.3
	c65.1-6.7,117.4,16.9,157.4,68.3c5.4,6.9,9.2,14.8,12.8,23c0.5-0.3,1.2-0.4,1.3-0.8c17.4-39,48.3-63.6,86.8-79.5
	C390.6,25.7,433,26,474.9,45.7c3.2,1.5,6.2,3.2,9.2,5c8,4.9,8,11.9-0.2,16.5c-18.2,10.4-36.6,20.6-54.8,30.9c-3.5,2-7,3.9-10.5,6
	c-3.5,2.1-6.9,2-10.4-0.1c-3.6-2.1-7.4-4.1-10.9-6.4c-3-2-4.7-2.4-5.3,2.1c-0.7,4.8-2.5,9.5-3,14.3c-0.7,7.4-5.7,10.7-12.7,13.6
	c9.2,3.9,17.3,7.1,25,11.4c41.8,23.3,71.2,56.5,82.8,103.8c2.8,11.3,4.2,22.7,3.8,34.3c-0.3,8.7-6.4,12.3-13.9,8
	c-21.8-12.7-43.4-25.5-65.1-38.3c-3.7-2.2-5.4-5.2-5.2-9.5c0.2-5.4,0-10.8,0-16.9c-6.6,2-12.8,3.5-18.8,5.8c-5.3,2-9.6,1.1-14.3-1.7
	c-18.9-11.4-38-22.3-56.9-33.6c-2.7-1.6-4.6-2-7.2,0.3c-5,4.4-11.2,6.6-17.8,7c-3.2,0.2-3.9,1.3-4.1,4.3c-3.6,37.8-2.2,75.5,3.1,113
	c5.3,37.3,14.3,73.6,27,109.1c2.1,5.8,5.1,7.7,11.1,8.2c51.8,4.3,102.6,13.8,152.2,29.4c1.5,0.5,3,1,4.4,1.6c5,2.1,7.1,6.3,5.5,10.9
	c-1.6,4.5-6.1,6.6-11.2,4.8c-13.1-4.4-26.4-8.2-39.8-11.5c-68.3-16.7-137.6-24-207.9-20.8c-61.1,2.8-121.1,12.3-179.6,30.7
	c-1.5,0.5-3,1-4.5,1.5c-5.5,1.7-10.1-0.1-11.6-4.8c-1.6-4.8,0.6-9.2,6.1-11.1c14.9-5,30.1-9.2,45.4-12.9
	c39.4-9.5,79.3-15.6,119.7-18.7c3-0.2,3.8-0.9,3.3-4c-5.3-29-4.6-58.2-2.5-87.4c3.4-47.1,10-93.8,19.3-140.1
	c0.5-2.7,0.2-4.3-2.7-5.1c-1.5-0.4-3.1-1.1-4.2-2.2c-4.7-5-8.8-3.4-13.9-0.2c-18.1,11-36.5,21.5-54.7,32.3
	c-3.8,2.3-7.3,2.8-11.4,1.3c-5.4-1.9-11.1-3.2-16.5-5.2c-3.5-1.3-3.8,0-3.7,2.9c0.2,4.2-0.1,8.4,0.1,12.6c0.2,4.7-1.7,7.9-5.8,10.2
	c-21.3,12.4-42.5,25-63.8,37.5c-8.3,4.9-14.7,1.4-14.7-8.2c0.1-40.6,14.9-75.3,42.9-104.5c18-18.9,39.6-32.6,63.8-42.3
	C141.3,129.3,142.6,128.8,145.8,127.5z"/>
<path style="fill:#A97C50;" d="M220.6,377.9c1.7-21,1.8-42.2,4-63.4c3-29.2,7.3-58.2,11.9-87.1c1.3-8.4,3.6-16.6,4.8-25
	c0.5-3.5,2-4.7,5-5.5c3.8-1,6.9-3.3,10-5.6c1.7-1.2,2.9-4.9,5.2-3c2.7,2.2,6.8,3.8,6.5,8.7c-0.3,6.8-0.7,13.6-1.4,20.3
	c-1,10-0.6,19.9-0.7,29.8c-0.3,32.3,3.2,64.2,9.2,95.9c5.2,28,12.5,55.3,21.9,82.1c2.1,6,2,6.5-4.2,5.9c-16.2-1.5-32.5-0.6-48.8-1
	c-4.8-0.1-9.4,1.1-14.1,1.1c-3,0-4.7-0.6-5.2-4.2c-1.6-10.5-2.9-21-3.1-31.6C221.5,389.5,220.9,383.8,220.6,377.9z"/>
<path style="fill:#3AAE49;" d="M100.7,220.8c3,10.7-2.6,16-11.6,20.5c-11.9,6-23,13.4-34.5,20.1c-1.1,0.7-2.3,2.2-3.7,1.1
	c-1.1-0.8-0.2-2.3,0-3.5c5.1-41.1,27.1-71.5,60.3-94.7c19.1-13.4,39.9-23.1,63.2-26.8c12-1.9,24-1.8,36,0.4c4,0.7,2.7,1.9,1,3.8
	c-7.7,8.5-11.6,18.2-8.9,29.8c0.5,2.3-0.5,3.5-2.4,4.6c-18.7,10.9-37.5,21.9-56.1,33c-2.4,1.4-4.4,0.8-6.4,0.1
	c-7.9-2.4-15.7-4.9-23.5-7.3c-8.8-2.7-13.3,0.5-13.4,9.5C100.6,214.5,100.7,217.6,100.7,220.8z M420.5,231.3c0,1.9,0.3,3.3,2.1,4.3
	c15,8.7,29.9,17.6,44.8,26.3c0.9,0.5,1.9,1.4,2.8,0.6c0.5-0.4,0.4-1.6,0.3-2.4c-1.4-12.4-4.4-24.4-9.5-35.8
	c-16.4-36.6-45.1-60.4-80.7-76.6c-21.8-9.9-44.5-14.1-68.5-9.9c-5.4,0.9-3.5,2.2-1.3,4.8c6.9,7.9,10.5,17,8.5,27.5
	c-0.7,3.4,0.1,5,3,6.6c17.9,10.3,35.7,20.8,53.4,31.4c3.2,1.9,5.9,2,9.3,0.9c7.5-2.5,15-4.8,22.5-7.1c8.8-2.7,13.3,0.5,13.3,9.5
	c0,3,0,5.9,0,8.9C420.5,223.9,420.6,227.6,420.5,231.3z M277,130.2c1.2,0.6,2-0.3,2.9-0.7c21.8-9.2,44.3-12.1,67.7-8.5
	c10.1,1.6,16.6-6.1,24.3-10.4c0.8-0.4,0.9-2.2,1.2-3.4c1.9-8.3,3.6-16.7,5.5-25c1.8-7.7,7.1-10.2,14.1-6.4c3.7,2,7.6,3.8,10.9,6.3
	c6.4,4.8,11.8,5.2,19.1,0.6c13-8.4,26.9-15.5,41.3-23.5C393.4,22.6,296.3,74.4,277,130.2z M59,60.1c15.5,8.8,31,17.6,46.5,26.4
	c1.8,1,3.1,0.8,4.8-0.3c5.8-3.5,11.8-6.9,17.7-10.2c7.3-4,12.5-1.7,14.5,6.4c1.2,5.1,2.7,10.2,3.3,15.3c1,9.6,5.1,16.3,14.5,20
	c4.8,1.9,8.9,4.2,14.3,3.2c14.1-2.5,28.1-1.8,42.2,1c9.4,1.9,18.4,4.9,27.6,8.9C223.3,72,125,23.1,58,58.9
	C58.3,59.3,58.6,59.8,59,60.1z"/>
<path style="fill:#F2A00B;" d="M235.5,148.4c9.3,0.1,16.6,7.3,16.6,16.6c0,9.4-7.6,17-17,16.9c-9.2-0.1-16.6-7.6-16.6-16.8
	C218.5,155.7,226,148.4,235.5,148.4z"/>
<path style="fill:#FDBE00;" d="M286,148.4c9.5,0.1,16.9,7.7,16.6,17.2c-0.2,9.1-7.9,16.5-17.1,16.4c-9.2-0.1-16.6-7.6-16.6-16.8
	C269,155.6,276.4,148.3,286,148.4z"/>
</svg>
