<?xml version="1.0" encoding="utf-8"?>
<!-- Generator: Adobe Illustrator 24.0.0, SVG Export Plug-In . SVG Version: 6.00 Build 0)  -->
<svg version="1.1" id="Layer_1" xmlns="http://www.w3.org/2000/svg" xmlns:xlink="http://www.w3.org/1999/xlink" x="0px" y="0px"
	 viewBox="0 0 562 562" style="enable-background:new 0 0 562 562;" xml:space="preserve">
<path style="fill:#050505;" d="M136.3,131.8c-7.7-8.8-13.9-16.9-19.6-25.3c-4.6-6.8-3.2-11.9,4.4-15.3c10.9-5,21.9-9.8,33.8-12.4
	c2.2-0.5,3.3-1.6,3.8-3.9c4.6-18.4,16.5-32.2,28.6-45.9c3.4-3.8,8.7-3.6,12.1,0.3c12,13.8,23.8,27.7,28.4,46.1
	c0.6,2.4,1.9,2.8,3.7,3.2c12,2.7,23.2,7.5,34.3,12.6c7.8,3.6,9.1,8.6,4.3,15.7c-5.6,8.3-11.7,16.3-18.4,23.8c1,1.8,2.6,0.9,3.9,0.9
	c22.8,0.1,45.6,0,68.4,0.1c3.6,0,5.5-1,7.1-4.3c15.3-30.9,30.8-61.6,46-92.5c2.9-6,6.7-8.6,13.6-8.5c27,0.3,54,0.1,81,0.1
	c8.6,0,11.5,2.9,11.5,11.4c0,10.2,0.1,20.4,0,30.7c0,7.2-3.2,10.4-10.3,10.4c-13.9,0.1-27.7,0-41.6,0c-2,0-3.9-0.3-5.1,2.1
	c-8.2,16.6-16.5,33.2-25.2,50.5c10.4,0,20,0.2,29.6,0c12.4-0.3,21.1,5.1,27.2,15.8c22.1,38.6,37,79.7,41.4,124
	c7,69.7-12.7,131.7-57.4,185.4c-26.8,32.2-60,55.9-100.3,68.3c-66.3,20.3-127.5,8.5-182.4-32.9c-52.1-39.3-82.3-92.5-93.3-156.8
	c-6.4-37.4-2.7-74.1,7.2-110.4c7-25.8,17.5-50.1,30.1-73.6C110.1,138.3,119.3,129.9,136.3,131.8z"/>
<path style="fill:#547D3C;" d="M80.1,298c0.3-23.4,3.6-46.5,9.9-69c0.7-2.4,1.8-4.2,4-5.6c8.9-5.8,17.7-11.6,26.4-17.6
	c2.7-1.9,4.6-1.8,7.2,0c13.6,9.2,27.3,18.3,40.9,27.4c7.3,4.9,8.8,4.8,16.2-0.1c13.5-9,27.1-17.9,40.5-27.1c2.9-2,4.8-2,7.7,0
	c13.7,9.4,27.7,18.3,41.3,27.7c5.3,3.7,9.7,3.5,14.9-0.1c13.5-9.3,27.3-18.2,40.9-27.4c3-2.1,5-2.2,8.2-0.1
	c13.7,9.4,27.7,18.4,41.3,27.8c5.1,3.5,9.4,3.4,14.5-0.1c13.7-9.4,27.6-18.4,41.4-27.7c2.8-1.9,4.8-2.2,7.7-0.1
	c8.5,6,17.2,11.7,25.9,17.3c2.3,1.5,3.6,3.3,4.3,5.9c7.2,25.8,11,52.1,9.6,78.9c-2.8,53.3-21.3,100.5-56.8,140.7
	c-27.6,31.3-61.3,53.2-102.1,63c-53.2,12.8-102.5,2.6-147.3-28.1c-51.1-35.1-80.9-84.4-92.8-144.8C81.2,325.3,80,311.7,80.1,298z"/>
<path style="fill:#FEFEFE;" d="M462.4,197.5c-6.2-4.1-11.5-7.5-16.7-11.1c-4.5-3.1-8.6-3-13.1,0.1c-14,9.5-28.2,18.8-42.2,28.3
	c-2.9,2-4.8,1.8-7.6-0.1c-13.4-9.2-26.9-18.1-40.4-27.1c-7.4-4.9-9.2-4.9-16.7,0.1c-13.3,8.9-26.8,17.7-39.9,26.8
	c-3.3,2.3-5.5,2-8.5-0.1c-13.4-9.2-27-17.9-40.4-27.2c-5.6-3.9-10.4-3.7-15.9,0.1c-13.3,9.2-27,18-40.3,27.2
	c-3.3,2.3-5.5,1.9-8.5-0.2c-13.2-9-26.6-17.9-40-26.8c-7.4-4.9-9.2-4.9-16.7,0.1c-4.5,3-9.1,6.1-14.4,9.6c2.4-7.9,5.8-14.6,9.1-21.3
	c3.4-7,7.4-13.8,11.1-20.7c1.3-2.5,3-4.5,5.8-5.6c6.8-2.5,9.2-0.8,8.8,6.3c-0.3,4.7-0.7,9.5-0.7,14.2c0,6.3,4.5,10.3,10.8,9.3
	c15.5-2.3,31-4.6,45.2-12.1c2.2-1.1,3.7-0.6,5.6,0.3c14.2,7.3,29.7,9.7,45.2,11.8c5.9,0.8,10.1-3.3,10.1-9.5
	c0-5.6-0.4-11.3-0.9-16.9c-0.3-3,0.4-4.1,3.7-4.1c59.1,0.1,118.3,0.1,177.4,0.1c3.5,0,6.7,1,8.5,4
	C448.9,166.8,456.1,181.3,462.4,197.5z"/>
<path style="fill:#F10E16;" d="M136.3,103.6c9.9-4.5,19.7-8.1,30.3-9.2c7.6-0.8,10.8-4.6,9.3-12c-0.7-3.3,0-6.2,1.2-9
	c3.6-8,8.8-15.1,14-22.1c1.6-2.2,2.6-1.8,4,0.1c4.7,6.3,9.3,12.6,12.9,19.6c2.1,4,2.8,8.1,2.1,12.7c-1,6.3,2.4,10.2,8.6,10.6
	c10.3,0.6,19.8,4.4,29.4,8c2.7,1,2,2.2,0.7,3.9c-4.3,5.4-8.2,11.2-13.5,15.7c-4.8,4.1-6.2,8.5-4.5,14.5c1.8,6.3,2.5,12.8,2.8,19.4
	c0.2,3.3-0.6,4.9-4.2,4c-10.8-2.8-22.2-4-31.1-12.3c-3.4-3.1-7.5-2.3-10.9,0.8c-8.8,8.2-20.4,9-31.3,11.6c-2.6,0.6-3-1-2.9-3.2
	c0.2-6.9,1-13.8,2.8-20.5c1.6-5.8,0.4-10.2-4.1-14.2C145.9,116.8,141.1,110.5,136.3,103.6z"/>
<path style="fill:#F8CB00;" d="M348.5,131.5c1.1-2.3,1.8-3.9,2.6-5.5c12.9-25.7,25.8-51.4,38.5-77.2c1.7-3.5,3.6-5.1,7.7-5
	c21.2,0.2,42.3,0.2,63.5,0c3.8,0,4.9,0.9,4.9,4.8c-0.1,12.8,0,12.8-12.6,12.8c-9.7,0-19.3,0.2-29-0.1c-5.4-0.1-8.8,2.1-11.2,6.9
	c-9.7,19.8-19.7,39.4-29.4,59.2c-1.5,3-3.2,4.2-6.6,4.1C367.6,131.3,358.3,131.5,348.5,131.5z"/>
<path style="fill:#050505;" d="M290.3,341.6c0,14,0,28.1,0,42.1c0,6.8-3.5,10.8-9,10.6c-5.3-0.2-8.5-4-8.5-10.6
	c0-28.1,0-56.1,0-84.2c0-6.4,3.4-10.3,8.7-10.3c5.3,0,8.8,3.9,8.8,10.3C290.4,313.6,290.3,327.6,290.3,341.6z M418.6,337.2
	c-0.8-12.9-1.5-25.8-2.4-38.7c-0.4-5.7-4.1-9.2-8.9-9.2c-5.1,0.1-8.7,4-8.5,9.9c0.2,5.8,0.6,11.6,1.2,17.4
	c1.4,14.9,0.4,29.9-0.1,44.8c-0.2,6.2,3.1,9.8,8.4,9.9c5.1,0.1,8.8-3.6,9-9.6c0.2-8.2,0.1-16.4,0.1-24.6
	C417.7,337.2,418.2,337.2,418.6,337.2z M150.3,349.1c0.1,4.6,0.5,9.1,0.9,13.6c0.4,5.3,3.8,8.6,8.7,8.6c4.8,0,8.3-3.5,8.7-8.7
	c0.1-1.4,0.1-2.9-0.1-4.4c-1.7-19.3-1-38.6,1-57.9c0.6-6.1-2.7-10.5-8-11.1c-5-0.6-8.8,3-9.4,9c-1.4,12.3-2.2,24.7-1.9,37.1
	C150.3,340,150.1,344.5,150.3,349.1z M392.1,411.8c-3.4,12.3-7.8,24.2-13.1,35.8c-2.3,5.1-0.4,9.8,4.2,11.8c4.4,1.9,9,0.3,11.4-4.5
	c6.3-12.5,11.2-25.6,14.3-39.3c1.3-5.8-2.8-10.5-10.4-10.4C395.9,405.3,393.2,407.7,392.1,411.8z M159.1,415.6
	c3.3,13.6,8.1,26.8,14.4,39.3c2.5,4.9,7.5,6.5,12,4.3c4.2-2.1,6-6.9,3.8-11.6c-5.4-11.6-9.8-23.4-13.1-35.8c-1.1-4-3.9-6.5-8.3-6.7
	C162.2,405,157.8,409.9,159.1,415.6z M272.8,472.1c0.1,6,3.5,9.8,8.6,9.9c5.2,0.1,8.8-3.7,8.9-9.6c0.1-11.1,0.1-22.2,0-33.3
	c-0.1-5.9-3.7-9.7-8.9-9.6c-5.2,0.1-8.5,3.9-8.6,9.9c-0.1,5.5,0,10.9,0,16.4C272.8,461.2,272.7,466.6,272.8,472.1z"/>
</svg>
