<?xml version="1.0" encoding="utf-8"?>
<!-- Generator: Adobe Illustrator 24.0.0, SVG Export Plug-In . SVG Version: 6.00 Build 0)  -->
<svg version="1.1" id="Layer_1" xmlns="http://www.w3.org/2000/svg" xmlns:xlink="http://www.w3.org/1999/xlink" x="0px" y="0px"
	 viewBox="0 0 572 572" style="enable-background:new 0 0 572 572;" xml:space="preserve">
<path style="fill:#EF7BB0;" d="M412.5,194c1.5-2.9,0.8-5.9,0.9-8.9c-1.8-2.4-1.5-5.3-1.5-8c0-14.3,0.1-28.6-0.1-42.8
	c-0.3-25.8-2.4-51.4-6.3-76.9c-0.3-1.9,0-4.1-2.4-6.3c-1.7,6.9-2.6,13.4-3.4,19.9c-4.3,34.8-4.8,69.8-4.5,104.9
	c0,3.1,0.7,6.4-1.5,9.1c-3.4,0-6.8,0-10.3,0c-0.2-13-1.4-25.9-0.9-38.9c1.6-35.4,2.1-71,10-105.8c1.3-5.9,3-11.8,6.3-17.1
	c3.2-5.3,6.2-5.4,9.5-0.2c5.4,8.5,6.9,18.3,8.6,27.9c3.2,17.5,4.8,35.1,5.8,52.8c1.4,23.1,2.2,46.2,1.8,69.4
	c-0.1,4.1-0.4,8.1-0.7,12.2c1.9,2.7,1.3,5.8,1.3,8.9c0.6,6.3-0.9,12.4-1.1,18.7c0,3.3,0.2,6.7-2.4,9.3c-1.2,18.1-3.6,36-8.1,53.6
	c-1,3.9-2.2,7.8-4.2,11.4c-1.3,2.4-2.7,5.2-5.9,5.1c-3.2-0.1-4.6-2.8-5.8-5.3c-3.6-7.4-5.3-15.3-6.9-23.3
	c-2.4-12.7-4.1-25.5-5.1-38.4c3.5-1.5,7.3-0.6,10.9-0.8c2,1.6,1.7,4,1.8,6.1c0.7,9.2,2.2,18.3,3.8,27.4c0.2,1,0.2,2.3,2,3
	c1.5-6.7,2.3-13.4,3.4-20.1c0.9-5.9-0.3-12.3,3.4-17.7c0.1-3,0.2-5.9,0.3-8.9C410.8,207.3,409.5,200.6,412.5,194z M152,114.8
	c1.8-2.5,3.8-4.7,6.3-6.5c13.8-16.2,28.3-31.8,40.8-49c7.4-10.2,15.2-20.2,18.6-32.6c1.8-6.3-0.9-8.7-7.3-6.9
	c-3.9,1.1-7.7,2.7-11.2,4.8c-17.1,10.1-32.6,22.4-47.6,35.3c-8.8,7.6-17.5,15.3-26.3,23c1.6,4.7,5.2,6.9,9.8,7.8
	c19-17.7,38.4-34.9,60.6-48.8c-13.3,21.4-30.2,40-46.7,58.8c-2.2,2.4-4.6,4.7-6.9,7c-4,4.1-8.1,8.2-12.2,12.2c-1.9,2-3.9,4-5.9,5.9
	c-24,24.4-49.4,47.3-78.1,67c-0.7-2.8,0.7-3.7,1.5-4.8c16.6-23.4,35.3-44.9,55.5-65.2c2-2,4.9-3.6,4.6-7.2c-2.7-3.2-6-4.9-10.4-4
	c-0.6,0.4-1.2,0.8-1.7,1.4c-19.9,20.8-39.1,42.1-56,65.4c-6.6,9.1-13.5,18.3-16.2,29.6c-1.1,4.8,0.4,6.6,5.2,6.5
	c5.2-0.2,9.6-2.8,13.9-5.3c21.1-12.4,39.6-28,57.8-44.2c11.1-9.9,21.8-20.1,32.8-30.1c1.8-2.5,3.8-4.8,6.5-6.5
	C145.4,125.3,148.5,119.9,152,114.8z M459.8,311.5c1.2-15.1,2.5-30.2,5.3-45.2c0.2-1.3,0-2.9,2.2-3.7c2.4,12,3.5,24,5,35.9
	c0.9,7.3-0.4,14.8,2.6,21.8c1.5,2.9,0.8,6.1,0.9,9.2c-1.3,1.9-1.5,4.1-1.4,6.3c0.2,3.9-0.2,7.7-1.4,11.4c6.6,1.7,3.1,6.6,3.2,10.3
	c-0.9,0.8-1,2-0.9,3.1c0.2,10.2-0.6,20.4-0.8,30.6c-0.4,18.9-1.5,37.8-3.6,56.6c-0.9,8.4-1.5,16.8-4.3,25.9
	c-1.6-3.1-1.7-5.5-2.1-7.8c-5.3-32.9-6.2-66-6.9-99.2c-0.1-3.3,0.8-6.7-1.6-9.6c-3.4-0.2-6.8-0.9-10.1,0.6
	c0.3,17.4-0.1,34.8,0.9,52.3c1.3,22.2,3,44.3,7,66.2c1.5,8,3.2,16,7.1,23.3c1.2,2.3,2.5,5,5.4,5c2.8,0,4.4-2.4,5.7-4.8
	c1.7-3.3,3.1-6.7,4.1-10.3c6.7-24.2,8.1-49.2,10-74.1c1.2-15.7,1.1-31.5,1.3-47.3c2.3-3.2,1-7,1.8-10.5c-0.9-8.9,0.7-17.8-1.3-26.7
	c-0.3-2.9,0.3-6-1.7-8.6c-1.3-21-2.9-42-7-62.7c-1.7-8.3-3.2-16.8-7.7-24.2c-3.2-5.3-7-5.4-10,0c-1.8,3.2-3.3,6.7-4.3,10.2
	c-6.5,23.3-8.4,47.2-10.2,71.1c3.5,1.7,7.3,1.1,10.9,1.6C460.2,316.4,459.6,313.9,459.8,311.5z M214.7,443.9
	c-20.6,0.3-41-1.5-61.7-0.6c-28.7,1.2-57.3,2.5-85.6,7.3c-9.4,1.6-19,3.5-27.5,8.4c-5.3,3.1-5.3,6.2-0.4,9.5
	c3.9,2.6,8.3,4.1,12.8,5.3c34.1,8.7,69.1,9.5,104,11c26.3,1.1,52.6-1,78.9-2c3,1.7,6.2,0.1,9.3,0.4c9.2-0.7,18.3-1.9,27.4-3.4
	c3-0.8,6.4-0.4,9-2.7c0.8-0.3,1.6-0.8,2.5-1c6.7-1.3,13.3-3.2,19.5-6c2.8-1.3,6.1-2.7,5.9-6.6c-0.2-3.4-3.2-4.8-6-5.9
	c-4.5-1.7-9-3.7-13.6-4.4c-5.5-0.9-8.2-3.2-7.5-8.9c-0.2,4.6-0.6,9.2-0.7,13.8c-0.1,8.5-0.1,8.5-8.8,9c-6.3-1.7-12.3,0.8-18.4,1.2
	c-3.5,0.2-7.4-0.3-10.6,2.2c-2.8,1.7-5.9,1-9,1.1c-1.6-1.3-3.4-1.1-5.3-1c-15.4,0.9-30.7,1.9-46.2,1.6c-19.3-0.3-38.6,0.3-57.9-1.1
	c-17.4-1.2-34.8-2.7-52-5.6c-1.6-0.3-3.4-0.1-4.6-1.9c1.6-1.1,3.5-1.3,5.3-1.6c24.9-4.2,50.1-5.9,75.4-6.4c26.3-0.6,52.7-0.7,79,1.5
	c1.7,0.1,3.4,0.2,4.6-1.3c-0.2-3.9-0.3-7.9-1.4-11.7C225.6,445.8,220.2,443.8,214.7,443.9z"/>
<path style="fill:#050505;" d="M445.9,357.7c-13.2,0.4-26.3,0.8-39.5,1.4c-4.9,0.2-9.4,1.8-13.9,3.7c-19.8,8.3-39.6,16.6-59.5,24.8
	c-12.1,5-24.4,7.9-37,1.5c-4.7-2.4-8.4-5.9-12.4-10.4c-1.5,22.3-1.5,43.9-1.9,65.5c-1.1,5.2,1.3,10.2,1,15.3
	c-0.4,7.6-3.1,9.7-10.7,7.9c-3.1-6.9-1.5-14.2-1.2-21.3c0.2-4.2,0.8-8.5,0.7-12.8c-0.8-21,0.5-41.9,1.4-62.9
	c0.7-15.8-17.7-33-33.9-34c-3.9-0.3-4.7,2.3-5,5.2c-0.7,8.1-0.9,16.3,0,24.5c3.4,33.2,6.7,66.5,10.4,99.6c0.2,1.7,0.2,3.3-0.5,4.9
	c-2.8,3.3-6.1,2.7-9.6,1.3c-3.2-4.7-2.8-10-2.9-15.3c-0.2-4.2-1.8-8.4-0.3-12.6c-2.4-24.2-4.6-48.3-7.3-72.5
	c-2.3-20.8-1.4-41.3,6.1-60.8c6.4-16.6,6.1-33,2.8-50c-2.2-11.4-4.6-22.9-4.3-34.7c0.1-2.2-1.1-3.4-2.5-4.7
	c-31.1-29-62.2-57.9-93.3-86.9c0.5-4,3.1-5.9,6.7-6.9c1.6,0.2,2.7,1.2,3.8,2.2c12.8,12.7,26.2,24.6,39.3,36.9
	c14.6,13.7,29,27.6,44.4,41.4c1.7-6.8,3.6-12.9,8.1-17.8c1.7-1.8,5.5-2.6,4.9-5.3c-0.5-2.5-3.8-3.8-6-5.5
	c-26.5-20.3-52.9-40.8-79.5-61.1c-1.3-1-2.8-1.9-3.4-3.6c0.9-3.8,2.8-6.4,7-6.8c32.4,25,64.8,50,97.4,75c1.6-2.9-0.3-3.5-1.7-4.3
	c-10.2-6.2-17.4-14.9-21.6-26c-0.8-2.1-2-3-4.2-3.7c-14.1-4.5-18.4-18.8-9.3-30.6c1-1.3,1.6-2.3,1.4-4.3c-2.3-23.1,4.3-42.9,22.4-58
	c2.7-2.3,3.8-4.4,3.8-7.9c0.2-19.3,14.8-33.7,34-33.8c20.6-0.1,35.8,13.7,36.1,33.4c0.1,3.9,1.4,6.3,4.3,8.8
	c17.5,15.1,24.1,34.5,21.8,57.2c-0.2,2.2,0.4,3.3,1.6,4.9c8.9,11.8,4.3,26-9.9,30.4c-2.1,0.7-3.1,1.6-3.8,3.4
	c-4.1,11.2-11.3,19.9-21.5,26.1c-1.2,0.7-3.1,1.3-2.6,3.1c0.4,1.7,2.2,0.8,3.3,1.1c7.4,2.3,15,1.9,22.6,1.9
	c17.1-0.1,34.2-0.1,51.2-0.2c3.2-2.1,6.8-1.3,10.3-1.4c6.7,0.3,13.4-1.3,20,1.2c2.3,3.5,2,6.8-0.9,9.8c-2.7,1.5-5.8,1.2-8.7,1.2
	c-21.9,0-43.7,0-65.6,0c-6.1,0-6.1,0.1-4.5,5.9c1.1,3.9,1.4,8,2,12c0.5,3,1.9,4,4.9,3.7c20.9-1.5,41.7-2.9,62.6-4.6
	c2.8-0.2,5.6-0.7,8.1,1.1c1.9,3,1.8,6,0.3,9c-4.5,2.8-9.7,2.2-14.6,2.8c-3.9-0.1-7.8,0.6-11.5-0.7c-15.9,1.1-31.8,2.4-47.7,3.4
	c-3.1,0.2-3.7,1.3-4.1,4.2c-2,15.2-4.1,30.5-6.6,45.6c-1,6-0.9,11.6,1,17.4c2.3,6.8,4.2,13.8,5.9,20.8c0.7,2.9,1.8,3.4,4.6,2.8
	c10.5-2.1,21.3-3.3,31.6-5.9c17.8-4.5,35.3-2.1,52.9,0.5c7.9,1.1,15.8,1.9,23.7,2.9c4-1.1,7.9,0.1,11.8,0.6
	c5.5,0.2,10.9,0.7,16.2,2.2c3.1,3.1,2.9,6.6,1.4,10.3c-2.1,1.9-4.6,0.9-6.9,0.7c-20.8-2.6-41.6-5.2-62.4-8.1
	c-9.2-1.3-18.3-1.6-27.6,0.2c-22.2,4.3-44.6,7.9-66.8,12.2c-2.6,0.5-5.1,1-7.6,1.8c-12.1,3.6-18.7,13.9-16.8,25.9
	c1.9,11.9,11.1,19.5,23.4,19.5c4.9,0,9.5-1.2,14.1-2.9c14.2-5.6,28.2-11.6,42.2-17.5c16.3-6.8,32.1-13.9,50.6-13.5
	c18.1,0.4,36.3-2.2,54.5-1.6c6.1,2.3,7.2,6.5,3.3,11.9c-6.7,0.3-13.3,0.1-20,0C453,358.2,449.4,358.8,445.9,357.7z M464.5,218.9
	c5-0.4,9.5-0.7,13.5,3.9c4.5,5,13.9,5.4,19.6,1.3c6.7-4.7,13.1-9.7,19.3-15.1c5.3-4.6,3.3-12.3-3.4-14.6c-1.3-0.4-3,0.5-3.9-1.2
	c3-8.2,6-16.4,9.1-24.5c1.7-4.6,2-9-2.7-11.8s-8.4-0.6-11.6,3.2c-6.1,7.3-12.4,14.3-18.3,21.7c-2.1,2.6-4.3,3.4-7.6,3.4
	c-18.2-0.1-36.4,0-54.6,0c-0.1,2.9-0.1,5.9-0.2,8.8c1.9,2.1,4.4,1.7,6.8,1.7c16.3,0.1,32.7-0.1,49,0.1c5.9,0.1,10.4-2,14-6.6
	c3.5-4.3,7.3-8.4,11.4-13.6c-2.9,8.4-5.8,15.5-8.5,22.8c-1.3,3.6-1.9,6.9,1.7,9.4c0.8,0.5,1.5,0.9,0.8,2.1c-2.7,5-11,7.1-15.4,3.3
	c-5-4.4-10.7-5.8-17.1-5c-12.9,1.5-25.9,1.6-38.8,3.2c-1.8,0.2-3.8,0.1-5.1,1.7c-0.3,2.9-0.6,5.9-0.9,8.8
	C436,220.9,450.3,219.9,464.5,218.9z M270.5,484c0,6.9-0.8,13.7-0.9,20.5c-0.2,11.1-1.7,22.3,1.2,33.2c2.1,8.1,0.9,10.1-7.6,10.1
	c-14.3,0.1-28.5,0.1-42.8,0c-1.4,0-3,0.5-4.2-1.1c1.7-1.7,4-2,6.1-2.5c5.8-1.4,11.5-2.9,17.2-4.7c9-2.7,11.5-6,10.8-15.4
	c-0.7-10.7-2.2-21.4-3.3-32.1c-0.3-3.7-0.2-7.5-2.8-10.5c-3-0.1-6,0.1-8.8,1c1.4,13.4,2.8,26.9,4.4,40.3c0.5,3.9-0.1,6-4.6,6.9
	c-7.4,1.5-14.7,3.7-21.9,6c-6.7,2.1-10.3,7.2-10.3,13.6c0,5.4,3,8.9,8.4,8.9c19.1,0.1,38.2,0.3,57.3,0c10.6-0.2,17.2-10.5,13.3-20.5
	c-1.5-3.9-2.1-7.8-2-11.9c0.4-16.3,0.7-32.6,1.1-48.9c-3-0.2-6,0.5-8.9,1.3C270.6,479.9,270.4,482,270.5,484z M134.7,90.1
	c-3.4-2-6.5-4.4-9.3-7.2c-0.8-0.5-1.5-1-2.3-1.6c-14.5-11.2-29.2-22.1-43.5-33.6c-7.2-5.7-11.9-1.2-13.3,5.1
	c-1,4.6,0.8,8.3,3.9,11.5c4.6,4.7,9.1,9.4,13.9,14.5c-1.8,0.4-2.7,0.5-3.6,0.8c-4.3,1.3-8,3.5-8.9,8.2c-1,4.7,2.8,6.9,5.9,9.2
	c6.5,4.8,13.1,9.6,19.7,14.4c3.3,1.4,6.7,2.8,10,4.2c4.8,3.3,10.4,5.5,14.7,9.8c0.8,0.8,1.8,1.2,3,1.2c2.4-1.7,4.5-3.7,6.1-6.1
	c-3.2-7.2-8.9-11.7-16.4-13.6c-7-1.7-13.2-4.8-18.9-9.1c-3.4-2.6-6.7-5.2-10.3-7.6c1.4,0,2.8,0.7,4.2,1c4,0.9,7.8,1.2,10.4-2.9
	c2.6-4,0.2-7.1-2.1-10c-5-6.4-10.9-11.6-14.3-14.6c16.2,13.1,35.8,27.3,54.8,42.4c1.3,1,2.7,2.1,4.5,2c2.6-1.8,4.7-4,6.5-6.5
	C145.6,96.2,141,92,134.7,90.1z M504.9,334.8c11.8,0.1,23.1,2.9,34.6,5.2c1.8,0.4,3.8,1,4,3.3c0.2,2.5-1.7,3.5-3.6,4.3
	c-1,0.4-2.1,0.7-3.2,0.7c-8.7,0.1-16.7,3-24.6,6.4c-7.6,3.2-15.3,7.1-23.8,2.8c-1.8,3.4-0.6,6.9-0.8,10.4c6.1,2.7,12.2,2.9,18.4,0.4
	c11.7-4.6,23.2-9.5,36.1-10.5c7.8-0.6,12.6-7.2,12.7-14.5c0-7.1-4.1-11.5-12.2-13.6c-18.4-4.8-37.4-5.1-56.1-7.5c0,2.9,0,5.8,0,8.6
	C491.9,334.9,498.5,334.8,504.9,334.8z"/>
<path style="fill:#E92A40;" d="M166.2,285c0.1,2-1.1,2.9-2.6,3.9c-10.8,6.7-19.2,15.6-24.9,27.1c-0.8,1.7-1.7,3.6-3.8,3.6
	c-2.1-0.1-2.9-2.1-3.7-3.7c-5.8-11.3-14-20.4-24.9-27c-3.6-2.2-3.4-4.9-0.3-7c11.1-7.3,19.7-16.7,25.8-28.6c1.8-3.5,4.9-3.3,6.6,0.3
	c5.7,11.9,14.3,21,25.4,28C165.7,282.8,166.1,283.8,166.2,285z M390,512c4-8,9.8-14.3,17.2-19.2c2.8-1.8,1.7-3.8-0.4-5.2
	c-7.1-4.8-12.4-11-16.6-18.4c-1.9-3.2-3.7-2.6-5.1,0.4c-3.5,7.2-8.7,12.9-15.3,17.2c-4.2,2.7-3.2,4.8,0,7.1
	c6.3,4.5,11.7,9.6,15,16.8c0.6,1.3,1.4,2.6,3,2.9C389,513.6,389.6,512.8,390,512z M520,55c-7.8-4.6-13.2-11.2-17.3-19.1
	c-1.7-3.2-3.4-2.1-4.7,0.4c-4.1,7.4-9.3,13.8-16.6,18.3c-2.6,1.6-2.9,3.9,0.1,5.6c7.3,4.3,12.1,10.7,16.3,17.9
	c1.9,3.3,3.9,3.2,5.6-0.1c3.8-7.5,9.2-13.4,16.3-17.8c1-0.6,1.9-1.2,2-2.5S521,55.6,520,55z"/>
<path style="fill:#BDD752;" d="M298.9,191.7c0.7,0.1,1.5,0.1,2.2,0.2c18.1,0.7,22.7,6.3,23.6,24.5c1.3,23.2-4.9,45.5-7.4,68.2
	c-0.7,5.9,2.1,10.8,3.2,16.1c1.1,5.4,2.8,10.7,4.5,16c1.1,3.5,1.2,5.3-3.4,5.7c-6.2,0.6-12.4,1.9-18.5,3.5
	c-10.8,2.7-18.2,9.6-23,19.4c-0.6,1.1-0.5,2.6-2.2,3.3c-8.4-11.6-19.3-19.7-33.7-22.5c-0.2,0-0.4-0.1-0.5-0.2
	c-2.6-1.1-6.8,1.1-7.6-1.4c-0.9-2.5,0.9-6,1.7-9c1.2-4.3,2.2-8.7,3.9-12.7c5-11.9,3-23.9,1-36c-2.8-17.5-6.3-35-5.2-52.9
	c0.4-5.8,1.5-11.3,5.5-15.9c4-4.7,9.4-5.5,15-6c2-0.2,4.1,0.3,5.9-1c1.4,0.3,2,1.6,2.8,2.5c7.7,8.8,18.8,9.3,27.4,1.4
	C295.5,193.5,296.3,191.2,298.9,191.7z"/>
<path style="fill:#EF7BB0;" d="M256.4,41.2c16.2-7.2,32.6-6.4,49-0.7c0.6,1.1,1.3,2.3,1.7,3.4c0.4,1.2,1,2.6-0.1,3.7
	c-1.2,1.1-2.4-0.2-3.6-0.6c-13.9-4.7-28-4.6-42.1-0.8c-1.9,0.5-4.1,2.6-5.5,1.2C254.2,45.8,255.6,43.2,256.4,41.2z"/>
<path style="fill:#F8CECE;" d="M475.9,329.6c0.1,4.4-0.1,8.9,0.2,13.3c0.2,2.5-0.8,3.8-3.1,4.4c-12.4,0.6-24.8,1.1-37.2,1.7
	c-10.7,0.5-21.6,0.4-32.2,1.5c-11.6,1.2-21.6,7.4-32.3,11.5c-17.6,6.8-34.4,15.7-52.6,20.9c-12.5,3.6-24.5-2.2-29.8-13.4
	c-5.1-10.8-1.9-23.7,7.7-30.8c5.1-3.8,11.2-4.7,17.2-5.7c24.8-4.4,49.6-8.9,74.4-13.2c8-1.4,15.9,0.7,23.8,1.7
	C433.3,323.9,454.6,326.8,475.9,329.6z M272.2,467c-9.6,2.1-19.2,3.4-29,3.4c-3.6-34.7-7.4-69.3-10.8-104
	c-0.9-9.4-0.8-18.9,0.3-28.3c0.4-3.4,1.9-3.8,4.7-3.7c14.9,0.5,31.6,12.7,36.5,26.9c0.9,2.7,0.8,5.5,0.7,8.3
	C273.8,402.1,273,434.6,272.2,467z M281.4,104.6c8.3,12.7,20,17.1,34.2,16.2c5.2-0.3,10.4-0.2,15.5,0.7c4.9,0.8,8.5,4.7,8.6,9.4
	c0.1,4.8-3.7,9.7-8.8,9.8c-5.1,0.1-7.1,2.5-8.4,7c-7,24.3-36.2,35.6-57.5,26.5c-12.9-5.5-21.3-14.4-25.3-27.6c-1.1-3.7-3-5.5-7-5.8
	c-6.2-0.5-9.9-4.5-9.7-10c0.1-5.2,3.7-8.5,9.7-9.5c4.1-0.6,8.2-0.9,12.2-0.6C259.9,122.1,272.3,117.6,281.4,104.6z M139.4,128.1
	c4.4-4.3,7.6-9.6,12.6-13.3c30.6,23.5,61.1,47,92.1,70.8c-9.9,5.6-14.5,14.1-15.7,25.8C198.4,183.2,168.9,155.7,139.4,128.1z
	 M412.5,194c-0.5,6.7,1.2,13.5-1.1,20c-23.7,1.7-47.4,3.4-71,5.3c-4.7,0.4-6.6-0.1-6.4-5.5c0.3-6.7-0.9-13.3-5.7-19.8
	C357.1,194,384.8,194,412.5,194z M298.9,191.7c-2.7,2.5-4.7,5.5-8,7.4c-9.9,5.8-22.3,2.1-26.9-8.2c1.1-5.8,4.1-6.4,9.6-4.9
	c5.4,1.5,11.5,1.2,17.1-0.1c4.2-1,6.6-0.8,7.2,4C297.9,190.4,298.5,191,298.9,191.7z M423.7,193.9c19.3,0,38.6,0,57.9,0.1
	c4.3,0,7.4-1.8,10-5c4.8-5.8,9.8-11.5,15.5-18.2c-0.1,5.4-2.1,8.8-3.4,12.5c-1.8,5.3-3.8,10.4-5.7,15.6c-2.4,6.6-1.5,8.2,5.9,9.1
	c-3.5,2.8-6.6,5.5-9.8,7.8c-4,2.8-8.1,2.8-11.5-0.9c-4-4.5-8.8-5.6-14.5-5.1c-15.2,1.2-30.3,2.3-45.5,3.4
	C423,206.7,423.4,200.3,423.7,193.9z M130.9,120.4c-6-6.7-12.7-11.7-22-14c-10.6-2.6-18-11.2-27.8-17.8c4.2-0.7,6.8,0.8,9.5,1.4
	c3.3,0.7,6.4,1,8.4-2.3c2.1-3.3,0.5-6-1.8-8.4c-6.6-6.9-13.2-13.7-19-21.5c21.6,16.7,43.1,33.4,64.7,50.2
	C139.4,112.7,135.1,116.4,130.9,120.4z M486.2,330.9c14.8,3.3,30.3,1.8,45,5.8c3.2,0.9,6.5,1.4,9.8,2c2.7,0.5,4.6,1.9,4.6,4.7
	c0,2.6-1.5,4.5-3.9,5.5c-0.8,0.4-1.8,0.8-2.7,0.8c-12.8-0.2-23.9,5.7-35.5,10.1c-5.6,2.1-10.8,2.3-15.4-2.2c-2-4.6-0.6-9.4-1-14.1
	C486.9,339.2,487.8,335,486.2,330.9z M272,478.3c-0.4,15.9-0.7,31.9-1.1,47.8c-0.1,4.9,0.4,9.5,2.2,14.1c2.2,5.4-0.3,9.2-6.1,9.3
	c-17.4,0.2-34.9,0.1-52.3,0c-1,0-2.6,0.4-2.6-1.1c0-0.9,0.7-2.2,1.5-2.7c1.3-0.9,2.9-1.5,4.5-2c7.3-2.1,14.6-4,21.9-6
	c7.7-2.2,9.2-4.1,8.5-11.8c-1.3-14.8-3-29.5-4.5-44.2C253.4,480.5,262.7,479.4,272,478.3z"/>
<path style="fill:#050505;" d="M317.8,111.6c-7.9,0-15.9,1-22.7-4.9c-2.5-2.1-4.9-4.3-6-7c-3.5-8.3-4.3-17-2.5-25.9
	c0.3-1.2,0.8-2.1,2.1-2.1c11.4,0.1,23-2,32.9,6.4c9.1,7.8,13,17.5,12.9,29.3c0,3.1-1.4,4.4-4.4,4.3
	C326,111.5,321.9,111.6,317.8,111.6z M253,111.6c11.3,0,21.1-7.4,23.1-18.6c1.1-6.1,0.4-12.6,0.4-18.9c0-1.5-0.7-2.6-2.3-2.5
	c-7.2,0.2-14.5-1.3-21.6,0.8c-15.9,4.5-24.1,16.3-24.1,33.6c0,4.2,0.9,6.3,5.5,5.7c3.3-0.4,6.7-0.1,10-0.1
	C247,111.6,250,111.6,253,111.6z M261.7,40.7c12.8-4.3,25.6-4.3,38.5-0.3c1.7,0.5,3.5,1.3,5.3,0c0.2-1.7-0.5-3.1-1.4-4.6
	c-6.2-10.3-15.9-13.5-27-12.2c-10.3,1.3-17.2,7.6-20.7,17.5C258.3,42.3,260,41.3,261.7,40.7z M281.7,62.7c9.8-0.3,19.7-0.9,30.1-0.5
	c-13.9-12.9-46.7-12.7-61.5,0.3C261.7,61.2,271.9,63,281.7,62.7z M293.7,157.7c1.3-2.1,2-4.8-0.5-6.4c-2.6-1.7-3.7,0.3-5.1,2.4
	c-2.7,4.2-11.2,4.2-13.6-0.1c-1.3-2.3-2.5-3.9-5.1-2.4c-2.5,1.4-1.9,3.7-0.8,5.9c2.6,4.9,7,6.2,12.5,6.2
	C285.9,163.4,290.7,162.6,293.7,157.7z M263.8,128.5c-0.6-2.6-2.2-4.4-5-4.5c-3.1-0.1-5,1.9-5.3,4.7c-0.4,3.3-0.3,6.7,0,10
	c0.3,2.6,2.1,4.3,4.9,4.4c3.1,0.1,4.8-1.7,5.4-4.6c0.3-1.4,0.2-3,0.3-4.7C264.1,132.2,264.2,130.3,263.8,128.5z M309.1,130.3
	c0.1-3.4-1.4-6-4.9-6.1c-3.8-0.1-5.4,2.5-5.4,6.2c0,2.2,0,4.4,0,6.6c0,3.4,1.3,5.9,4.9,6c4,0.1,5.4-2.4,5.4-6.1c0-1.1,0-2.2,0-3.3
	S309.1,131.4,309.1,130.3z"/>
</svg>
