<?xml version="1.0" encoding="utf-8"?>
<!-- Generator: Adobe Illustrator 24.0.0, SVG Export Plug-In . SVG Version: 6.00 Build 0)  -->
<svg version="1.1" id="Layer_1" xmlns="http://www.w3.org/2000/svg" xmlns:xlink="http://www.w3.org/1999/xlink" x="0px" y="0px"
	 viewBox="0 0 504 532.9" style="enable-background:new 0 0 504 532.9;" xml:space="preserve">
<path style="fill:#FF60A0;" d="M75,236.8c-0.9,1.2-1.8,2.4-2.6,3.6c-2.9,4-5.9,8-8.8,12c-0.7,0.9-1.2,1-2.3,0.8
	c-5.6-1.2-10.7,2.2-11.9,7.8c-1.1,5.1,2.4,10.2,7.7,11.4c5.3,1.2,10.6-2.2,11.8-7.6c0.6-2.6,0.1-5-1.4-7.3c-0.4-0.6-0.6-1-0.1-1.7
	c4.7-6.4,9.4-12.8,14.2-19.2c0.1-0.1,0.3-0.2,0.6-0.3c0.4,3.2,0.8,6.4,1.1,9.5c0.6,6.8,1,13.7,0.7,20.5c-0.2,4.7-0.6,9.3-1.8,13.8
	c-2.4,9.2-8.9,14.8-17.5,18c-18.4,6.7-37.9-5-40.7-24.1c-1.3-8.6,0.9-16.4,6.4-23.2c1.1-1.4,2.4-2,4.3-2.1
	c7.3-0.4,14.3-2.3,21.1-4.6c6-2,11.9-4.4,17.8-7C73.9,236.9,74.3,236.5,75,236.8z M76.4,229.7c-7.7-2.5-15.4-5-23.1-7.5
	c-0.9-0.3-1.2,0.2-1.7,0.7c-2.7,3-6,4-9.9,3.2c-4.9-1.1-8.2-5.9-7.6-10.5c0.7-5.2,4.9-9,10-9s9.2,3.7,9.8,8.9c0.1,1.2,0.6,1.7,1.7,2
	c5.3,1.7,10.6,3.4,15.9,5.1c0.9,0.3,1.8,0.6,3.1,1c-4.8-5.1-9-10-12.9-15.2c-4.8-6.4-9.3-13-12.1-20.7c-0.3-0.7-0.8-1.1-1.4-1.4
	c-5.4-2.7-11.1-3.3-16.9-2.4c-23,3.8-33.6,29.6-19.7,48.2c6.3,8.4,14.7,12.7,25.7,11.2c13.9-2,26.6-7.5,39.5-13.3
	C76.4,229.8,76.4,229.7,76.4,229.7z M94.1,206c4.9-7.3,10-14.6,17-20.2c2.7-2.1,3.3-4.5,3.1-7.4c-0.1-1.5-0.2-3-0.5-4.4
	c-4-19.1-23.1-29.5-41.4-22.6c-14,5.2-25.1,23.7-15.7,40c4.7,8.2,10.3,15.7,16.4,22.9c2.5,2.9,5,5.8,8,8.7c0-0.8,0.1-1.4,0.1-1.9
	c0-7.2,0-14.5,0-21.7c0-1.3-0.4-1.9-1.6-2.4c-4.6-2-6.9-7.3-5.4-11.9c1.7-5,6.5-7.7,11.6-6.6c4.2,0.9,7.2,4.3,7.8,8.9
	c0.5,3.8-2,8-5.9,9.7c-1.2,0.5-1.5,1.1-1.5,2.3c0.1,5.8,0,11.5,0,17.3c0,0.5-0.2,1.1,0.3,1.9C89.1,214,91.5,209.9,94.1,206z
	 M89.1,254c0.4,9.2,0.4,18.4-2,27.4c-0.5,1.9-0.3,3.4,0.8,5c7,10,16.8,14.5,28.9,13.2c17.1-1.8,29.1-17.2,26.8-34.2
	c-1.3-9.2-5.8-16.3-14.4-20.7c-5.4-2.7-11-4.8-16.8-6.6c-7.4-2.2-14.9-4-22.7-5.4c0.3,0.5,0.5,0.9,0.8,1.2c4.4,6,8.9,12.1,13.3,18.2
	c0.7,1,1.3,1.2,2.5,0.9c6.2-1.6,12.6,3.7,12.2,10c-0.2,4.1-3.2,7.9-7.1,9.1c-4,1.2-8.2,0-10.8-3.2c-2.6-3.2-3-7.6-0.6-11.3
	c0.6-1,0.4-1.5-0.2-2.2c-3.5-4.8-7-9.6-10.5-14.4c-0.3-0.4-0.6-0.8-0.9-1.2C88.5,244.6,88.8,249.3,89.1,254z M90.7,224.3
	c6.4-2.1,12.9-4.2,19.3-6.2c2-0.6,4.1-1.1,3.6-3.9c0-0.1,0.1-0.2,0.1-0.3c1.3-4.5,5.2-7.4,10-7.3c4.3,0.1,8.3,3.3,9.3,7.5
	c1,4.6-1.1,9.1-5.2,11.2c-4,2.1-9.1,1.1-12-2.3c-0.8-0.9-1.3-0.9-2.3-0.6c-5.8,1.9-11.5,3.7-17.3,5.6c-0.4,0.1-0.9,0.1-1.1,0.6
	c4.1,1,8.3,1.9,12.3,2.9c9.4,2.5,18.6,5.2,26.9,10.5c2.5,1.6,4.6,1.5,7,0.6c11.5-4.1,19.9-15.5,19.9-27.6
	c0.1-12.2-5.3-21.7-16.2-27.6c-9.5-5.2-23.4-6.1-33.3,4.5c-5.3,5.7-10,11.9-14.3,18.4c-3,4.5-5.7,9.2-8.3,14
	C89.9,224.7,90.3,224.4,90.7,224.3z M177.7,457.6c-4.3,4.7-8.8,9.2-13.5,13.4c-5.4,4.8-11,9.4-17.6,12.6c-1.7,0.8-2.6,1.9-3.1,3.6
	c-2.4,8.5-1.3,16.5,3.3,23.9c10.2,16.5,32.7,19.4,47,6c6.7-6.3,10.4-14,8.9-23.4c-0.7-4.6-2.2-9-3.8-13.4
	c-2.4-6.4-5.5-12.5-8.8-18.5c-1.5-2.8-3.1-5.4-4.7-8.3c-0.2,0.3-0.4,0.4-0.4,0.6c-1.8,7.8-3.6,15.5-5.4,23.3
	c-0.2,0.8,0.2,1.1,0.8,1.5c2.2,1.5,3.6,3.6,4.1,6.1c1.1,5.4-2.5,10.7-7.8,11.7s-10.6-2.3-11.6-7.4c-1.2-5.6,2.2-10.8,7.8-11.9
	c1-0.2,1.5-0.5,1.8-1.6c1-4.9,2.2-9.7,3.3-14.5c0.3-1.4,0.6-2.9,1-4.3C178.2,456.8,178,457.3,177.7,457.6z M177.4,449.8
	c-8.1,0.8-16.1,1.5-24.2,2.2c-0.9,0.1-1.1,0.6-1.3,1.3c-1.3,3.8-3.9,6.1-7.8,6.8c-4.9,0.9-9.9-2.1-11.2-6.6
	c-1.5-5.1,0.9-10.2,5.6-12.2c4.7-2,10-0.2,12.5,4.3c0.6,1,1.2,1.3,2.3,1.2c5.5-0.6,11-1.1,16.6-1.6c0.9-0.1,1.8-0.2,3.2-0.3
	c-6.4-2.8-12.2-5.6-17.8-8.8c-7-4-13.7-8.3-19.3-14.2c-0.5-0.6-1.1-0.7-1.8-0.8c-6-0.4-11.5,1.3-16.5,4.5
	c-19.6,12.6-19.1,40.5,1,52.1c9.1,5.2,18.6,5.9,28,0.1c12-7.4,21.5-17.5,31-27.9C177.6,449.8,177.5,449.7,177.4,449.8z M184.4,420.9
	c1.6-8.7,3.4-17.4,7.6-25.2c1.6-3,1.2-5.4-0.1-8.1c-0.7-1.3-1.4-2.7-2.2-3.9c-11.2-15.9-32.9-17.9-47-4.4
	c-10.8,10.4-13.6,31.7,1.4,43c7.6,5.7,15.6,10.4,24.1,14.5c3.4,1.7,6.9,3.3,10.8,4.8c-0.3-0.8-0.5-1.3-0.7-1.8
	c-2.9-6.7-5.8-13.3-8.6-20c-0.5-1.2-1.1-1.5-2.4-1.6c-5,0-9.3-4-9.6-8.8c-0.4-5.2,2.9-9.7,8.1-10.7c4.2-0.8,8.4,1.1,10.7,5.1
	c1.9,3.3,1.4,8.2-1.5,11.2c-0.9,0.9-0.9,1.6-0.4,2.7c2.3,5.3,4.6,10.6,6.9,15.8c0.2,0.5,0.3,1.1,1,1.6
	C182.9,430.2,183.5,425.6,184.4,420.9z M198.7,467c4,8.3,7.7,16.7,9.1,25.9c0.3,2,1.1,3.3,2.7,4.3c10.4,6.4,21.2,6.7,31.8,0.7
	c15-8.5,19.9-27.3,11-42c-4.8-8-11.8-12.7-21.4-13.3c-6-0.4-12-0.1-18,0.6c-7.7,0.9-15.3,2.2-23,4.1c0.5,0.3,0.8,0.6,1.2,0.8
	c6.5,3.8,12.9,7.6,19.4,11.4c1,0.6,1.7,0.6,2.7-0.2c5-3.9,13-1.6,15.1,4.3c1.4,3.9,0.2,8.5-2.9,11.2c-3.2,2.7-7.6,3.2-11.2,1.3
	c-3.7-1.9-5.7-5.8-5.1-10.1c0.2-1.1-0.3-1.5-1.1-2c-5.1-3-10.2-6-15.4-9c-0.4-0.3-0.9-0.5-1.3-0.7
	C194.5,458.6,196.7,462.8,198.7,467z M188.5,439c5.1-4.5,10.2-8.9,15.3-13.3c1.6-1.4,3.3-2.6,1.8-5c-0.1-0.1,0-0.2,0-0.3
	c-0.6-4.6,1.9-8.8,6.3-10.6c4-1.6,9-0.3,11.5,3.2c2.8,3.8,2.6,8.8-0.3,12.3c-2.9,3.5-7.9,4.7-11.9,2.6c-1-0.5-1.6-0.3-2.4,0.4
	c-4.5,4-9.1,8-13.7,12c-0.3,0.3-0.8,0.5-0.8,0.9c4.2-0.7,8.3-1.6,12.5-2.2c9.6-1.4,19.2-2.6,28.8-1c2.9,0.5,4.8-0.5,6.6-2.2
	c8.9-8.3,12.1-22.1,7.4-33.2c-4.8-11.2-13.4-17.8-25.8-18.9c-10.8-1-23.9,3.6-28.8,17.3c-2.6,7.4-4.5,14.9-5.8,22.6
	c-0.9,5.3-1.6,10.7-2.1,16.2C187.9,439.8,188.1,439.3,188.5,439z M413,107.2c-0.8,1.3-1.6,2.5-2.3,3.8c-2.6,4.2-5.1,8.4-7.7,12.6
	c-0.6,1-0.5,1.5,0.1,2.4c3,4.7,1.8,10.8-2.9,13.9c-4.2,2.9-10,1.5-12.9-2.9c-2.9-4.5-1.7-10.7,2.7-13.8c2.1-1.5,4.5-1.9,7-1.4
	c0.6,0.1,1.1,0.2,1.5-0.5c4.1-6.8,8.2-13.5,12.3-20.3c0.1-0.1,0.1-0.3,0.1-0.7c-3,0.9-6,1.6-8.9,2.5c-6.3,2-12.6,4.1-18.6,6.9
	c-4.1,1.9-8.1,4-11.8,6.8c-7.4,5.7-10.2,13.7-10,22.9c0.4,19.5,17.7,33.4,35.8,28.9c8.1-2,14.4-6.9,18.6-14.6
	c0.8-1.5,0.9-2.9,0.4-4.7c-2.2-6.9-2.9-14.1-3.3-21.3c-0.3-6.4-0.3-12.7,0.1-19.1C413.3,108.2,413.5,107.7,413,107.2z M418.5,103.1
	c-0.7,14.1-1.2,27.9,1.8,41.6c2.4,10.7,9.3,17,19,19.7c21.5,6.1,40.9-13.3,36.3-36.1c-1.2-5.8-3.7-10.9-8-14.8
	c-0.5-0.5-1-0.8-1.8-0.8c-7.8,0.3-15.3-1.5-22.7-3.6c-6-1.7-11.8-3.8-18.1-6.3c0.9,1.1,1.4,1.8,2,2.5c3.4,4.3,6.8,8.5,10.1,12.8
	c0.7,0.9,1.3,1.2,2.4,0.8c4.8-1.4,9.6,1.1,11.4,5.8s-0.1,10.1-4.6,12.6c-4,2.3-9.4,0.9-12.1-3.2c-2.2-3.3-2.3-6.8-0.6-10.4
	c0.3-0.7,0.6-1.2,0-1.9c-4.9-6.2-9.9-12.4-14.8-18.7C418.8,103.2,418.7,103.2,418.5,103.1z M425.5,89.5c0.8,0.1,1.3-0.2,1.8-0.4
	c5.2-2.1,10.3-4.3,15.5-6.3c1.1-0.4,1.5-0.9,1.5-2.2c0.2-4.2,3.1-8.1,6.7-9c4.2-1.2,8.4,0.4,10.7,4c2.8,4.3,2,9.9-1.9,13.3
	c-3.6,3.2-9.1,3-12.6-0.6c-0.9-0.9-1.5-1.1-2.7-0.6c-6.5,2.7-13,5.4-19.5,8.1c-0.5,0.2-1,0.4-1.7,0.8c3.6,1.7,7.1,3,10.6,4.2
	c8.5,3,17.2,5.4,26.2,6.8C478,110,490.7,92.9,490.5,78c-0.2-19.6-16.2-33.5-34.7-30.1c-1.4,0.3-2.8,0.7-4.2,1.2
	c-2.7,1-4.6,2.4-5.6,5.7c-2.5,8.6-7.3,15.9-12.2,23.2C431.3,81.9,428.5,85.6,425.5,89.5z M405.6,96c-0.5-0.1-0.9-0.3-1.4-0.4
	c-5.5-1.5-11-3-16.6-4.5c-0.9-0.2-1.4-0.3-2.1,0.7c-2.5,3.5-6.5,4.8-10.3,3.6c-3.8-1.2-6.4-4.7-6.7-8.8c-0.3-4.1,2.1-8.2,5.7-10
	c5.5-2.7,12.5,1.3,13.2,7.6c0.1,1.2,0.5,1.7,1.7,2c7,1.8,13.9,3.7,20.9,5.6c0.4,0.1,0.7,0.2,1.3,0.3c-3.9-6.8-8.1-13.1-12.7-19.1
	c-3.6-4.7-7.4-9.1-11.7-13.1c-6.9-6.4-14.8-7.9-23.5-5.7c-16,4.1-25.7,20.9-21.3,37.5c3.1,11.7,10.5,19.1,22,21.9
	c1.8,0.4,3.2,0,4.7-1.1c7.2-5.6,15.5-9,23.9-12C396.9,98.9,401.2,97.5,405.6,96z M419.1,89.4c3.4-4.2,6.6-8.5,9.7-12.9
	c4.4-6.4,8.2-13,11.5-20.1c6.1-13.1,0.4-25.7-7.6-32.6c-9.1-7.9-19.4-9.4-30.4-4.8c-10.8,4.5-18.1,16.5-17.8,28.7
	c0.1,2.5,0.7,4.5,3,6.2c7.6,5.7,13.3,13.3,18.8,21.1c2.4,3.4,4.6,6.9,6.9,10.4c0.3-0.3,0.2-0.8,0.1-1.2c-0.3-6.1-0.7-12.1-1-18.2
	c-0.1-1.1-0.3-1.6-1.3-1.9c-4.1-1.5-6.7-5.8-6.3-10.3c0.5-4.6,3.8-8.2,8.2-8.9c4.1-0.7,8.4,1.9,10,5.9c1.7,4.4,0.6,9.1-3,12
	c-0.1,0.1-0.2,0.2-0.3,0.2c-2.7,0.6-2.4,2.7-2.2,4.8c0.5,6.7,0.8,13.5,1.2,20.2C418.7,88.3,418.6,88.8,419.1,89.4z M417.4,373.8
	c0.7,1.3,1.4,2.6,2.1,3.8c2.4,4.3,4.8,8.5,7.1,12.8c0.5,1,1.1,1.1,2.1,1c5.5-0.6,10,3.3,10.6,9c0.5,5.1-3.4,9.9-8.6,10.6
	s-9.9-3.3-10.5-8.8c-0.3-2.6,0.4-5,2-7.1c0.4-0.5,0.7-0.9,0.3-1.6c-3.9-6.8-7.7-13.7-11.5-20.5c-0.1-0.1-0.2-0.2-0.5-0.4
	c-0.7,3.2-1.4,6.2-2,9.3c-1.3,6.7-2.4,13.5-2.8,20.3c-0.3,4.6-0.4,9.3,0.3,13.9c1.4,9.4,6.9,15.6,14.9,19.6
	c16.9,8.4,36.8-1.2,41.5-19.9c2.1-8.4,0.9-16.4-3.7-23.8c-0.9-1.5-2.1-2.2-3.9-2.5c-6.9-1.1-13.4-3.7-19.7-6.7
	c-5.6-2.6-11-5.5-16.3-8.7C418.4,374,418.1,373.6,417.4,373.8z M416.5,366.9c11.7,7,23.3,13.8,36.4,17.2c10.3,2.7,18.8-0.8,25.7-8.5
	c15.2-17.1,7.7-43.8-13.8-49.9c-5.5-1.6-11-1.5-16.4,0.7c-0.6,0.3-1.2,0.6-1.5,1.3c-3.4,7.3-8.4,13.4-13.7,19.3
	c-4.2,4.8-8.8,9.2-13.9,13.8c1.3-0.3,2.2-0.5,3.1-0.7c5.2-1.2,10.5-2.4,15.7-3.5c1.1-0.2,1.6-0.6,1.8-1.8c1.1-5.1,5.4-8.4,10.3-7.9
	s8.5,4.7,8.6,9.9c0.1,4.7-3.6,9.1-8.4,9.7c-3.8,0.5-6.9-0.9-9.1-4.1c-0.4-0.6-0.7-1.1-1.6-0.9c-7.6,1.7-15.2,3.5-22.9,5.2
	C416.8,366.7,416.7,366.7,416.5,366.9z M408.2,354.2c0.5-0.7,0.4-1.3,0.5-1.8c0.6-5.7,1.2-11.4,1.8-17.2c0.1-1.2-0.1-1.8-1.2-2.4
	c-3.5-2.1-5.4-6.5-4.6-10.2c1-4.4,4.2-7.6,8.4-8c5-0.6,9.3,2.7,10.4,7.8c1,4.7-1.7,9.8-6.4,11.3c-1.2,0.4-1.6,0.9-1.8,2.2
	c-0.7,7.2-1.5,14.4-2.2,21.6c-0.1,0.5-0.1,1.1-0.1,1.9c3.1-2.6,5.9-5.2,8.6-7.9c6.6-6.5,12.7-13.4,18-21.1
	c10.6-15.3,2-34.8-10.9-41.4c-16.8-8.7-36.2-0.2-41.9,18.4c-0.4,1.4-0.7,2.9-0.9,4.4c-0.4,2.9-0.1,5.3,2.2,7.7
	c6.1,6.2,10.2,14,14.2,21.7C404.4,345.4,406.3,349.7,408.2,354.2z M404.5,375.6c-0.3,0.4-0.7,0.7-1,1.1c-3.9,4.4-7.7,8.8-11.6,13.2
	c-0.6,0.7-0.9,1.2-0.4,2.2c1.8,3.9,1.1,8.2-1.8,11.1c-2.8,2.9-7,3.8-10.7,2.1c-3.6-1.6-6.1-5.6-5.9-9.8c0.3-6.3,7-10.9,12.7-8.7
	c1.1,0.4,1.7,0.3,2.5-0.6c4.8-5.6,9.7-11.2,14.6-16.7c0.3-0.3,0.5-0.6,0.9-1.1c-7.6,0.6-15,1.6-22.3,3.1c-5.7,1.2-11.3,2.7-16.7,4.9
	c-8.7,3.5-13.7,10.1-15.9,19.1c-4,16.6,5.8,33.1,22,36.7c11.4,2.5,21.3-1,29-10.3c1.2-1.4,1.5-2.9,1.2-4.9c-1.4-9.2-0.4-18.3,1-27.5
	C402.8,384.9,403.7,380.3,404.5,375.6z M405.1,360.1c-2-5.1-4.1-10-6.5-14.8c-3.4-6.9-7.3-13.5-11.8-19.7
	c-8.3-11.6-21.8-12-31.4-7.8c-11,4.8-17.1,13.6-18.3,25.8c-1.2,12.1,5.6,24.2,16.2,29.4c2.2,1.1,4.2,1.4,6.7,0.1
	c8.4-4.4,17.6-6.2,26.8-7.8c4-0.7,8.1-1.1,12.1-1.7c-0.1-0.5-0.6-0.5-1-0.7c-5.3-2.4-10.7-4.8-16-7.3c-0.9-0.4-1.5-0.4-2.3,0.4
	c-3.2,3.2-8.1,3.6-11.7,1.1c-3.7-2.5-5.2-7.2-3.8-11.7c1.4-4.1,5.5-6.9,9.7-6.5c4.6,0.4,8.1,3.6,8.8,8.2c0,0.1,0.1,0.2,0.1,0.3
	c-0.7,2.8,1.2,3.4,3.1,4.2c6,2.6,11.9,5.4,17.8,8.1C404,360,404.4,360.3,405.1,360.1z"/>
<path style="fill:#F7C8DA;" d="M108,96.4c0.7,1.4,1.3,2.7,2,4c2.2,4.4,4.4,8.9,6.6,13.3c0.5,1,0.3,1.6-0.3,2.4
	c-3.7,4.4-3,10.5,1.5,14.2c4,3.3,10.2,2.5,13.7-1.6c3.5-4.1,2.9-10.5-1.3-14c-2-1.7-4.4-2.4-7.1-2.2c-0.7,0.1-1.1,0.1-1.5-0.7
	c-3.5-7.2-7-14.3-10.5-21.4c-0.1-0.1,0-0.3,0-0.7c3.1,1.2,6,2.2,8.9,3.4c6.3,2.6,12.6,5.4,18.5,8.8c4,2.3,8,4.8,11.4,8
	c7.1,6.4,9.1,14.7,7.9,23.8c-2.6,19.4-21.9,31.4-40.2,25c-8.2-2.8-14.2-8.3-17.7-16.4c-0.7-1.6-0.6-3,0.1-4.7
	c3-6.6,4.5-13.7,5.7-20.9c1-6.3,1.6-12.6,2-19C107.6,97.4,107.5,96.9,108,96.4z M102.4,91.9c-5.8,5.7-11.5,11.4-17.3,17
	c-0.6,0.6-0.4,1.2-0.2,1.9c1.4,3.7,0.8,7.2-1.8,10.2c-3.3,3.8-9,4.6-12.8,1.9c-4.3-3-5.7-8.5-3.4-13c2.4-4.5,7.6-6.5,12.4-4.6
	c1.1,0.4,1.7,0.2,2.5-0.6c3.9-3.9,7.9-7.8,11.8-11.7c0.7-0.6,1.3-1.3,2.3-2.3c-6.8,1.8-13,3.4-19.4,4.4c-7.9,1.3-15.9,2.3-23.9,1.2
	c-0.8-0.1-1.3,0.2-1.9,0.6c-4.9,3.5-8.1,8.3-9.9,13.9c-7.2,22.2,10.8,43.5,33.7,39.7c10.3-1.7,18.1-7.2,21.7-17.6
	c4.6-13.3,5.6-27.1,6.4-41.2C102.5,91.9,102.4,91.9,102.4,91.9z M89.5,65.2c-4.2-7.8-8.4-15.6-10.1-24.4c-0.6-3.4-2.5-5-5.2-6.2
	C73,34,71.6,33.4,70.1,33C51.4,27.7,33.3,39.9,31,59.3c-1.8,14.8,9.5,33.2,28.3,32.4c9.4-0.4,18.7-1.9,27.8-4
	c3.7-0.9,7.5-1.8,11.4-3.1c-0.7-0.4-1.2-0.7-1.7-1c-6.4-3.3-12.9-6.7-19.3-10c-1.1-0.6-1.8-0.5-2.8,0.3c-3.9,3.2-9.7,2.8-13.1-0.7
	c-3.6-3.8-3.9-9.4-0.5-13.4c2.7-3.3,7.2-4.4,11.5-2.8c3.6,1.3,6.2,5.5,5.9,9.7c-0.1,1.3,0.3,1.8,1.4,2.4c5.1,2.6,10.2,5.3,15.3,7.9
	c0.5,0.2,0.9,0.7,1.8,0.6C94.3,73.4,91.8,69.3,89.5,65.2z M129.8,91.8c8.4,3.9,16.5,8.1,23.4,14.4c1.5,1.3,2.9,1.9,4.8,1.6
	c12.1-1.6,20.6-8.2,25.1-19.5c6.3-16.1-1.9-33.7-18-39.5c-8.8-3.1-17.1-2.4-25,3.2c-4.9,3.5-9.4,7.6-13.6,11.9
	c-5.4,5.5-10.4,11.4-15.2,17.7c0.6-0.1,1-0.1,1.4-0.2c7.4-1.1,14.8-2.3,22.2-3.4c1.2-0.2,1.7-0.6,2-1.8c1.4-6.2,9-9.5,14.4-6.2
	c3.6,2.1,5.5,6.5,4.8,10.5c-0.7,4.1-3.8,7.3-7.9,8.1c-4.1,0.8-8.1-0.9-10.3-4.6c-0.6-1-1.2-1-2.1-0.9c-5.9,0.9-11.7,1.8-17.6,2.7
	c-0.5,0.1-1,0.2-1.5,0.3C121.2,88,125.6,89.9,129.8,91.8z M104.2,76.6c1.1-6.7,2.2-13.3,3.4-20c0.4-2.1,0.9-4.1-1.8-5
	c-0.1,0-0.2-0.2-0.2-0.2c-3.4-3.2-4.1-8-1.8-12.2c2.1-3.8,6.8-5.9,10.9-4.8c4.5,1.2,7.6,5.1,7.6,9.7c0,4.5-3.2,8.6-7.6,9.6
	c-1.1,0.3-1.4,0.8-1.6,1.8c-1,6-2,12-3,18c-0.1,0.4-0.3,0.9,0,1.2c2.8-3.2,5.4-6.5,8.3-9.6c6.5-7.2,13.2-14.1,21.7-19
	c2.5-1.5,3.4-3.4,3.8-5.9c1.7-12.1-4.6-24.8-15.3-30.4c-10.8-5.7-21.7-5.3-31.9,1.6c-9,6-16.2,18-11.3,31.6
	c2.6,7.4,5.9,14.4,9.8,21.2c2.6,4.7,5.5,9.3,8.6,13.8C104.2,77.6,104.1,77.1,104.2,76.6z M73.1,361.4c-5.8,2.6-11.7,5-17.8,7
	c-6.9,2.3-13.9,4.2-21.1,4.6c-1.9,0.1-3.2,0.7-4.3,2.1c-5.5,6.8-7.7,14.6-6.4,23.2c2.8,19.2,22.4,30.8,40.7,24.1
	c8.6-3.1,15.1-8.7,17.5-18c1.2-4.5,1.6-9.2,1.8-13.8c0.3-6.8-0.1-13.7-0.7-20.5c-0.3-3.1-0.7-6.2-1.1-9.5c-0.3,0.2-0.5,0.2-0.6,0.3
	c-4.7,6.4-9.4,12.8-14.2,19.2c-0.5,0.7-0.2,1.1,0.1,1.7c1.4,2.2,1.9,4.7,1.4,7.3c-1.2,5.4-6.5,8.8-11.8,7.6
	c-5.3-1.2-8.8-6.3-7.7-11.4c1.2-5.6,6.3-9,11.9-7.8c1,0.2,1.6,0.1,2.3-0.8c2.9-4,5.8-8,8.8-12c0.9-1.2,1.7-2.4,2.6-3.6
	C73.9,360.9,73.5,361.2,73.1,361.4z M76,354.1c-7.7-2.5-15.4-5-23.1-7.5c-0.9-0.3-1.2,0.2-1.7,0.7c-2.7,3-6,4-9.9,3.2
	c-4.9-1.1-8.2-5.9-7.6-10.5c0.7-5.2,4.9-9,10-9s9.2,3.7,9.8,8.9c0.1,1.2,0.6,1.7,1.7,2c5.3,1.7,10.6,3.4,15.9,5.1
	c0.9,0.3,1.8,0.6,3.1,1c-4.8-5.1-9-10-12.9-15.2c-4.8-6.4-9.3-13-12.1-20.7c-0.3-0.7-0.8-1.1-1.4-1.4c-5.4-2.7-11.1-3.3-16.9-2.4
	c-23,3.8-33.6,29.6-19.7,48.2c6.3,8.4,14.7,12.7,25.7,11.2c13.9-2,26.6-7.5,39.5-13.3C76.1,354.2,76.1,354.1,76,354.1z M93.8,330.4
	c4.9-7.3,10-14.6,17-20.2c2.7-2.1,3.3-4.5,3.1-7.4c-0.1-1.5-0.2-3-0.5-4.4c-4-19.1-23.1-29.5-41.4-22.6c-14,5.2-25.1,23.7-15.7,40
	c4.7,8.2,10.3,15.7,16.4,22.9c2.5,2.9,5,5.8,8,8.7c0-0.8,0.1-1.4,0.1-1.9c0-7.2,0-14.5,0-21.7c0-1.3-0.4-1.9-1.6-2.4
	c-4.6-2-6.9-7.3-5.4-11.9c1.7-5,6.5-7.7,11.6-6.6c4.2,0.9,7.2,4.3,7.8,8.9c0.5,3.8-2,8-5.9,9.7c-1.2,0.5-1.5,1.1-1.5,2.3
	c0.1,5.8,0,11.5,0,17.3c0,0.5-0.2,1.1,0.3,1.9C88.7,338.3,91.2,334.3,93.8,330.4z M88.7,378.4c0.4,9.2,0.4,18.4-2,27.4
	c-0.5,1.9-0.3,3.4,0.8,5c7,10,16.8,14.5,28.9,13.2c17.1-1.8,29.1-17.2,26.8-34.2c-1.3-9.2-5.8-16.3-14.4-20.7
	c-5.4-2.7-11-4.8-16.8-6.6c-7.4-2.2-14.9-4-22.7-5.4c0.3,0.5,0.5,0.9,0.8,1.2c4.4,6,8.9,12.1,13.3,18.2c0.7,1,1.3,1.2,2.5,0.9
	c6.2-1.6,12.6,3.7,12.2,10c-0.2,4.1-3.2,7.9-7.1,9.1c-4,1.2-8.2,0-10.8-3.2c-2.6-3.2-3-7.6-0.6-11.3c0.6-1,0.4-1.5-0.2-2.2
	c-3.5-4.8-7-9.6-10.5-14.4c-0.3-0.4-0.6-0.8-0.9-1.2C88.1,369,88.5,373.7,88.7,378.4z M90.4,348.6c6.4-2.1,12.9-4.2,19.3-6.2
	c2-0.6,4.1-1.1,3.6-3.9c0-0.1,0.1-0.2,0.1-0.3c1.3-4.5,5.2-7.4,10-7.3c4.3,0.1,8.3,3.3,9.3,7.5c1,4.6-1.1,9.1-5.2,11.2
	c-4,2.1-9.1,1.1-12-2.3c-0.8-0.9-1.3-0.9-2.3-0.6c-5.8,1.9-11.5,3.7-17.3,5.6c-0.4,0.1-0.9,0.1-1.1,0.6c4.1,1,8.3,1.9,12.3,2.9
	c9.4,2.5,18.6,5.2,26.9,10.5c2.5,1.6,4.6,1.5,7,0.6c11.5-4.1,19.9-15.5,19.9-27.6c0.1-12.2-5.3-21.7-16.2-27.6
	c-9.5-5.2-23.4-6.1-33.3,4.5c-5.3,5.7-10,11.9-14.3,18.4c-3,4.5-5.7,9.2-8.3,14C89.5,349.1,89.9,348.8,90.4,348.6z M430,250.1
	c0.7,1.3,1.4,2.6,2.1,3.8c2.4,4.3,4.8,8.5,7.1,12.8c0.5,1,1.1,1.1,2.1,1c5.5-0.6,10,3.3,10.6,9c0.5,5.1-3.4,9.9-8.6,10.6
	s-9.9-3.3-10.5-8.8c-0.3-2.6,0.4-5,2-7.1c0.4-0.5,0.7-0.9,0.3-1.6c-3.9-6.8-7.7-13.7-11.5-20.5c-0.1-0.1-0.2-0.2-0.5-0.4
	c-0.7,3.2-1.4,6.2-2,9.3c-1.3,6.7-2.4,13.5-2.8,20.3c-0.3,4.6-0.4,9.3,0.3,13.9c1.4,9.4,6.9,15.6,14.9,19.6
	c16.9,8.4,36.8-1.2,41.5-19.9c2.1-8.4,0.9-16.4-3.7-23.8c-0.9-1.5-2.1-2.2-3.9-2.5c-6.9-1.1-13.4-3.7-19.7-6.7
	c-5.6-2.6-11-5.5-16.3-8.7C431,250.3,430.7,249.9,430,250.1z M429.1,243.2c11.7,7,23.3,13.8,36.4,17.2c10.3,2.7,18.8-0.8,25.7-8.5
	c15.2-17.1,7.7-43.8-13.8-49.9c-5.5-1.6-11-1.5-16.4,0.7c-0.6,0.3-1.2,0.6-1.5,1.3c-3.4,7.3-8.4,13.4-13.7,19.3
	c-4.2,4.8-8.8,9.2-13.9,13.8c1.3-0.3,2.2-0.5,3.1-0.7c5.2-1.2,10.5-2.4,15.7-3.5c1.1-0.2,1.6-0.6,1.8-1.8c1.1-5.1,5.4-8.4,10.3-7.9
	s8.5,4.7,8.6,9.9c0.1,4.7-3.6,9.1-8.4,9.7c-3.8,0.5-6.9-0.9-9.1-4.1c-0.4-0.6-0.7-1.1-1.6-0.9c-7.6,1.7-15.2,3.5-22.9,5.2
	C429.4,242.9,429.3,243,429.1,243.2z M420.8,230.5c0.5-0.7,0.4-1.3,0.5-1.8c0.6-5.7,1.2-11.4,1.8-17.2c0.1-1.2-0.1-1.8-1.2-2.4
	c-3.5-2.1-5.4-6.5-4.6-10.2c1-4.4,4.2-7.6,8.4-8c5-0.6,9.3,2.7,10.4,7.8c1,4.7-1.7,9.8-6.4,11.3c-1.2,0.4-1.6,0.9-1.8,2.2
	c-0.7,7.2-1.5,14.4-2.2,21.6c-0.1,0.5-0.1,1.1-0.1,1.9c3.1-2.6,5.9-5.2,8.6-7.9c6.6-6.5,12.7-13.4,18-21.1
	c10.6-15.3,2-34.8-10.9-41.4c-16.8-8.7-36.2-0.2-41.9,18.4c-0.4,1.4-0.7,2.9-0.9,4.4c-0.4,2.9-0.1,5.3,2.2,7.7
	c6.1,6.2,10.2,14,14.2,21.7C417,221.7,418.9,226,420.8,230.5z M417.1,251.8c-0.3,0.4-0.7,0.7-1,1.1c-3.9,4.4-7.7,8.8-11.6,13.2
	c-0.6,0.7-0.9,1.2-0.4,2.2c1.8,3.9,1.1,8.2-1.8,11.1c-2.8,2.9-7,3.8-10.7,2.1c-3.6-1.6-6.1-5.6-5.9-9.8c0.3-6.3,7-10.9,12.7-8.7
	c1.1,0.4,1.7,0.3,2.5-0.6c4.8-5.6,9.7-11.2,14.6-16.7c0.3-0.3,0.5-0.6,0.9-1.1c-7.6,0.6-15,1.6-22.3,3.1c-5.7,1.2-11.3,2.7-16.7,4.9
	c-8.7,3.5-13.7,10.1-15.9,19.1c-4,16.6,5.8,33.1,22,36.7c11.4,2.5,21.3-1,29-10.3c1.2-1.4,1.5-2.9,1.2-4.9c-1.4-9.2-0.4-18.3,1-27.5
	C415.4,261.2,416.2,256.5,417.1,251.8z M417.7,236.4c-2-5.1-4.1-10-6.5-14.8c-3.4-6.9-7.3-13.5-11.8-19.7
	c-8.3-11.6-21.8-12-31.4-7.8c-11,4.8-17.1,13.6-18.3,25.8c-1.2,12.1,5.6,24.2,16.2,29.4c2.2,1.1,4.2,1.4,6.7,0.1
	c8.4-4.4,17.6-6.2,26.8-7.8c4-0.7,8.1-1.1,12.1-1.7c-0.1-0.5-0.6-0.5-1-0.7c-5.3-2.4-10.7-4.8-16-7.3c-0.9-0.4-1.5-0.4-2.3,0.4
	c-3.2,3.2-8.1,3.6-11.7,1.1c-3.7-2.5-5.2-7.2-3.8-11.7c1.4-4.1,5.5-6.9,9.7-6.5c4.6,0.4,8.1,3.6,8.8,8.2c0,0.1,0.1,0.2,0.1,0.3
	c-0.7,2.8,1.2,3.4,3.1,4.2c6,2.6,11.9,5.4,17.8,8.1C416.6,236.2,417,236.6,417.7,236.4z M307.7,458.5c0.2,1.5,0.3,3,0.5,4.4
	c0.6,4.9,1.2,9.8,1.6,14.8c0.1,1.1,0.6,1.5,1.5,1.8c5.3,1.7,7.9,7.1,6.2,12.6c-1.5,4.9-6.9,7.7-11.9,6.2s-7.8-7.1-6.2-12.4
	c0.8-2.5,2.3-4.4,4.6-5.7c0.6-0.3,1-0.5,0.9-1.4c-0.9-7.9-1.8-15.8-2.7-23.7c0-0.1-0.1-0.3-0.3-0.6c-1.9,2.7-3.7,5.2-5.4,7.8
	c-3.7,5.7-7.3,11.4-10.3,17.6c-2,4.2-3.9,8.4-5.1,12.9c-2.4,9.2,0.4,17.3,6.1,24.2c12.2,14.7,34.1,14.1,45.5-1.3
	c5.1-6.9,7.1-14.8,5.6-23.4c-0.3-1.7-1.1-2.9-2.6-3.9c-5.9-3.8-10.8-8.9-15.5-14.3c-4.1-4.7-7.9-9.6-11.5-14.7
	C308.6,459.1,308.4,458.6,307.7,458.5z M309.5,451.7c8,11.3,16,22.3,26.7,30.8c8.4,6.7,17.5,7,26.8,2.7c20.4-9.4,23.8-37.1,6.4-51.7
	c-4.4-3.7-9.5-5.9-15.3-6.1c-0.7,0-1.3,0.1-1.8,0.6c-5.9,5.4-12.8,8.9-19.9,12.2c-5.7,2.6-11.6,4.8-18,7c1.3,0.3,2.2,0.5,3.1,0.6
	c5.2,1.1,10.5,2.1,15.7,3.3c1.1,0.2,1.7,0.1,2.4-0.9c2.9-4.3,8.1-5.5,12.4-3s6,7.8,4.1,12.7c-1.7,4.4-6.7,6.9-11.4,5.5
	c-3.7-1.1-6-3.7-6.8-7.6c-0.2-0.7-0.2-1.3-1.1-1.5c-7.6-1.5-15.3-3.1-22.9-4.6C309.8,451.7,309.8,451.7,309.5,451.7z M306.7,436.7
	c0.7-0.4,0.9-1,1.1-1.5c2.7-5,5.4-10.1,8.2-15.1c0.6-1,0.6-1.7-0.1-2.7c-2.4-3.3-2.5-8.2-0.3-11.3c2.6-3.7,6.8-5.2,10.7-4
	c4.8,1.5,7.5,6.3,6.6,11.5c-0.9,4.8-5.3,8.3-10.1,7.8c-1.3-0.1-1.9,0.2-2.5,1.3c-3.4,6.4-6.8,12.7-10.3,19c-0.3,0.5-0.5,1-0.8,1.7
	c3.9-1.1,7.4-2.4,10.8-3.7c8.5-3.3,16.7-7.1,24.5-12c15.6-9.7,15-31.2,5.8-42.6c-12.1-14.9-33-15.1-45.4-0.4
	c-0.9,1.1-1.8,2.4-2.5,3.6c-1.5,2.5-2.1,4.9-0.9,8c3.2,8.2,4,17.1,4.7,25.9C306.6,427,306.7,431.7,306.7,436.7z M295.2,454.8
	c-0.5,0.2-0.9,0.4-1.4,0.6c-5.2,2.5-10.4,5-15.6,7.4c-0.8,0.4-1.3,0.7-1.2,1.9c0.2,4.4-2.1,8-5.9,9.5c-3.7,1.5-7.8,0.6-10.6-2.4
	c-2.7-3-3.4-7.7-1.6-11.4c2.7-5.7,10.5-7.2,14.9-2.8c0.9,0.9,1.5,1,2.5,0.4c6.6-3.2,13.1-6.3,19.7-9.4c0.3-0.2,0.7-0.4,1.2-0.7
	c-7.2-2.6-14.3-4.7-21.6-6.3c-5.7-1.3-11.3-2.2-17.2-2.4c-9.3-0.4-16.4,3.6-21.8,11.1c-10,13.7-7.3,32.9,6.2,42.9
	c9.5,7,19.8,7.8,30.5,2.5c1.6-0.8,2.5-2.1,3-4c2.3-9,6.6-17.1,11.4-24.9C290.1,462.7,292.7,458.8,295.2,454.8z M301.7,440.8
	c0.1-5.5,0-10.9-0.3-16.3c-0.5-7.8-1.5-15.4-3.2-23c-3.2-14.1-15.3-20-25.7-20.1c-11.9-0.1-20.8,5.5-26.6,16.2
	c-5.7,10.6-4.1,24.6,3.6,33.8c1.6,1.9,3.3,3,6.1,2.8c9.4-0.6,18.5,1.5,27.5,3.9c3.9,1,7.8,2.3,11.7,3.4c0.1-0.5-0.4-0.7-0.6-1
	c-3.9-4.4-7.9-8.9-11.8-13.3c-0.7-0.8-1.2-1-2.2-0.6c-4.1,1.6-8.8-0.1-11.2-3.8c-2.4-3.8-2-8.8,1-12.3c2.8-3.2,7.7-4.1,11.3-2
	c4.1,2.3,6,6.7,4.9,11.2c0,0.1,0,0.3-0.1,0.3c-1.7,2.3-0.2,3.6,1.2,5.2c4.5,4.9,8.8,9.9,13.2,14.8
	C300.8,440.2,301,440.7,301.7,440.8z"/>
<path style="fill:#F8A22A;" d="M72.8,68.3c-1.3,2.3-4.1,3.2-6.4,2c-2.2-1.2-3.1-4.2-1.9-6.4c1.2-2.3,4.2-3.2,6.4-2
	C73.2,63.2,74,66,72.8,68.3z M114.5,39.9c-2.2-1.2-5.2-0.3-6.4,2c-1.2,2.3-0.3,5.1,1.9,6.4c2.2,1.2,5.1,0.3,6.3-2
	C117.6,44,116.8,41.1,114.5,39.9z M77.9,110.3c-2.3-1.1-5.2-0.1-6.4,2.2c-1.2,2.3-0.2,5.2,2.1,6.4c2.3,1.2,5.1,0.2,6.3-2.2
	C81.1,114.3,80.2,111.4,77.9,110.3z M142.2,76.7c-1.2,2.3-0.3,5.2,2,6.4c2.3,1.2,5.1,0.3,6.3-2.1s0.4-5.1-2-6.3
	C146.2,73.5,143.4,74.4,142.2,76.7z M119.6,120.2c-1.2,2.3-0.3,5.2,2,6.4c2.3,1.2,5,0.3,6.2-1.9c1.3-2.4,0.5-5.1-1.8-6.4
	C123.7,117,120.9,117.9,119.6,120.2z M88.5,188c0.1-2.5-2.1-4.7-4.7-4.8c-2.5,0-4.8,2.1-4.8,4.7c0,2.6,2,4.7,4.7,4.7
	C86.3,192.6,88.4,190.6,88.5,188z M128.1,216.5c0-2.5-2.1-4.7-4.7-4.7s-4.7,2.1-4.8,4.7c-0.1,2.5,2.1,4.7,4.7,4.7
	S128.1,219.1,128.1,216.5z M48.8,216.4c-0.1-2.6-2.3-4.7-4.8-4.6c-2.6,0-4.7,2.2-4.7,4.8c0,2.5,2.2,4.6,4.8,4.6
	C46.7,221.1,48.8,219,48.8,216.4z M108.2,258.1c-2.6,0-4.7,2.1-4.7,4.7s2.1,4.7,4.7,4.6c2.7,0,4.7-2,4.7-4.7
	C112.9,260.1,110.8,258,108.2,258.1z M59.2,258.1c-2.6,0-4.8,2.1-4.8,4.7s2,4.6,4.6,4.6c2.7,0.1,4.8-1.9,4.8-4.6
	C63.9,260.2,61.8,258.1,59.2,258.1z M88.1,312.3c0.1-2.5-2.1-4.7-4.7-4.8c-2.5,0-4.8,2.1-4.8,4.7s2,4.7,4.7,4.7
	C86,317,88,315,88.1,312.3z M127.7,340.9c0-2.5-2.1-4.7-4.7-4.7s-4.7,2.1-4.8,4.7c-0.1,2.5,2.1,4.7,4.7,4.7
	C125.6,345.5,127.7,343.5,127.7,340.9z M48.4,340.8c-0.1-2.6-2.3-4.7-4.8-4.6c-2.6,0-4.7,2.2-4.7,4.8c0,2.5,2.2,4.6,4.8,4.6
	C46.3,345.5,48.5,343.3,48.4,340.8z M107.9,382.4c-2.6,0-4.7,2.1-4.7,4.7s2.1,4.7,4.7,4.6c2.7,0,4.7-2,4.7-4.7
	C112.6,384.5,110.5,382.4,107.9,382.4z M58.8,382.4c-2.6,0-4.8,2.1-4.8,4.7s2,4.6,4.6,4.6c2.7,0.1,4.8-1.9,4.8-4.6
	C63.5,384.6,61.5,382.4,58.8,382.4z M172,406.6c-0.9-2.3-3.8-3.5-6.2-2.5s-3.6,3.9-2.6,6.2c1,2.4,3.7,3.5,6.2,2.5
	C171.9,411.7,173,409.1,172,406.6z M219.7,417.1c-1-2.3-3.8-3.5-6.2-2.5s-3.5,3.8-2.5,6.2c0.9,2.3,3.8,3.5,6.2,2.4
	C219.6,422.2,220.7,419.5,219.7,417.1z M146.8,448.5c-1.1-2.3-4-3.4-6.3-2.3c-2.4,1.1-3.5,3.9-2.4,6.2c1,2.3,3.8,3.4,6.3,2.3
	C146.8,453.6,147.9,450.8,146.8,448.5z M217.9,463.1c-2.4,1-3.5,3.8-2.4,6.2c1,2.4,3.7,3.5,6.2,2.4s3.5-3.7,2.5-6.2
	C223.1,463.2,220.3,462.1,217.9,463.1z M172.9,482.6c-2.4,1-3.5,3.9-2.5,6.2c1,2.4,3.7,3.4,6.1,2.4c2.5-1,3.6-3.7,2.6-6.1
	C178.1,482.6,175.3,481.5,172.9,482.6z M449.6,82.7c1,2.5,3.5,3.6,5.9,2.6c2.2-0.9,3.4-3.9,2.5-6.2c-0.9-2.4-3.7-3.6-5.9-2.6
	C449.7,77.6,448.6,80.3,449.6,82.7z M410.1,56.5c0.9,2.4,3.6,3.6,5.9,2.7c2.3-1,3.5-3.8,2.5-6.2c-0.9-2.4-3.6-3.6-5.9-2.6
	C410.3,51.3,409.2,54,410.1,56.5z M437.7,130.1c0.9,2.4,3.5,3.7,5.8,2.8s3.5-3.7,2.6-6.1s-3.5-3.7-5.9-2.8
	C438.1,124.8,436.9,127.7,437.7,130.1z M376.5,81.5c-2.4,1-3.5,3.6-2.6,6.1s3.5,3.7,5.8,2.7s3.5-3.7,2.6-6.1
	C381.4,81.7,378.8,80.5,376.5,81.5z M393.5,127.1c-2.4,1-3.4,3.7-2.4,6.2c1,2.4,3.5,3.5,5.8,2.6s3.5-3.8,2.6-6.2
	C398.5,127.2,395.8,126.1,393.5,127.1z M426.3,205.2c2.6,0.2,4.7-1.6,5-4.2c0.2-2.5-1.7-4.9-4.1-5.1c-2.5-0.2-4.8,1.8-5,4.3
	C422,202.8,423.7,205,426.3,205.2z M385.4,229.7c2.5,0.3,4.8-1.7,5-4.2c0.2-2.6-1.6-4.9-4.1-5.1c-2.5-0.2-4.8,1.7-5,4.2
	C381.1,227.2,382.9,229.5,385.4,229.7z M461.2,237.6c2.5,0.3,4.8-1.6,5.1-4.1c0.3-2.6-1.5-4.9-4-5.2c-2.4-0.3-4.8,1.6-5.1,4.1
	C456.8,235,458.7,237.3,461.2,237.6z M391,272.1c-0.3,2.6,1.4,4.8,4,5.1c2.6,0.3,4.7-1.5,5-4.1s-1.5-4.9-4-5.2
	C393.5,267.7,391.3,269.5,391,272.1z M437.9,277.1c-0.2,2.6,1.5,4.8,4.1,5c2.5,0.2,4.6-1.6,4.9-4.2s-1.6-4.9-4.1-5.2
	C440.4,272.6,438.2,274.5,437.9,277.1z M413.7,329c2.6,0.2,4.7-1.6,5-4.2c0.2-2.5-1.7-4.9-4.1-5.1c-2.5-0.2-4.8,1.8-5,4.3
	C409.4,326.6,411.1,328.7,413.7,329z M372.8,353.4c2.5,0.3,4.8-1.7,5-4.2c0.2-2.6-1.6-4.9-4.1-5.1s-4.8,1.7-5,4.2
	C368.5,350.9,370.3,353.2,372.8,353.4z M448.6,361.4c2.5,0.3,4.8-1.6,5.1-4.1c0.3-2.6-1.5-4.9-4-5.2c-2.4-0.3-4.8,1.6-5.1,4.1
	C444.3,358.7,446.1,361.1,448.6,361.4z M378.4,395.9c-0.3,2.6,1.4,4.8,4,5.1c2.6,0.3,4.7-1.5,5-4.1s-1.5-4.9-4-5.2
	C380.9,391.4,378.7,393.2,378.4,395.9z M425.3,400.8c-0.2,2.6,1.5,4.8,4.1,5c2.5,0.2,4.6-1.6,4.9-4.2s-1.6-4.9-4.1-5.2
	C427.8,396.3,425.6,398.2,425.3,400.8z M321.4,415.7c2.2,1.3,5,0.5,6.2-1.8c1.2-2.2,0.3-5.2-1.8-6.4c-2.2-1.2-5.1-0.3-6.2,1.9
	C318.4,411.7,319.2,414.4,321.4,415.7z M274.7,421.4c2.2,1.3,5.1,0.4,6.2-1.8c1.2-2.3,0.4-5.2-1.8-6.4c-2.2-1.2-5-0.4-6.2,1.8
	C271.7,417.3,272.5,420.1,274.7,421.4z M341,459.9c2.2,1.3,5,0.5,6.2-1.7s0.5-5.2-1.7-6.4c-2.1-1.3-5-0.5-6.3,1.7
	C338,455.6,338.8,458.6,341,459.9z M263.6,462.7c-1.3,2.3-0.5,5.1,1.7,6.4s4.9,0.5,6.2-1.8c1.2-2.3,0.5-5.2-1.7-6.4
	C267.6,459.7,264.9,460.5,263.6,462.7z M304.6,486.7c-1.2,2.3-0.4,5.1,1.9,6.3c2.2,1.2,4.8,0.4,6.1-1.8c1.2-2.2,0.4-5.2-1.7-6.4
	C308.6,483.5,305.9,484.3,304.6,486.7z"/>
</svg>
