<?xml version="1.0" encoding="utf-8"?>
<!-- Generator: Adobe Illustrator 24.0.0, SVG Export Plug-In . SVG Version: 6.00 Build 0)  -->
<svg version="1.1" id="Layer_1" xmlns="http://www.w3.org/2000/svg" xmlns:xlink="http://www.w3.org/1999/xlink" x="0px" y="0px"
	 viewBox="0 0 612 792" style="enable-background:new 0 0 612 792;" xml:space="preserve">
<path style="fill:#050505;" d="M369.8,220.6c-3,41.4-5.5,82.8-10.1,124c-4.6,41-15.7,80.2-32.8,117.5c-14.7,31.9-21,65.5-23.3,100.1
	c-2.5,37.4-2.8,74.8-2.1,112.3c0.1,7.3,1.4,14.4,2.7,21.6c4.5,25.5,22.3,37.4,45.4,43.5c6.1,1.6,11.5,3.9,15.4,9
	c1.3,1.8,3.3,4,2,6.2c-1.1,1.8-3.7,0.9-5.7,0.9c-41.5,0-83,0-124.6,0c-5.2,0-10.5-0.3-15.7,0c-6.4,0.4-6.2-2.3-3.5-6.5
	c2.4-3.8,5.8-6.4,10-8c3.3-1.2,6.5-2.3,9.9-3.2c27.5-7.2,41.7-25.9,42.9-53.3c2.6-58,2.5-116-7.9-173.5
	c-3.6-19.6-11.5-37.6-19.5-55.6c-19.4-44-28.7-90.3-33-137.9c-5.9-66.3-9.1-132.6-6.6-199.1c0.3-9,0.6-18,0.9-26.9
	c-1.1-5.1,2.4-5.1,5.7-5c30.7,1.5,61.5,1.2,92.2,0.2c14.7-0.5,29.4-1.5,44.2-1.5c4,0,8.2-0.5,11.5,2.8c0.7,11.6,1.3,23.2,2,34.9
	c1.4,24.2,0.4,48.4,0.6,72.6C370.4,204,371.2,212.3,369.8,220.6z M393.6,143.9c31.7-9.8,50.8-43,43.4-75.2
	c-7.6-32.9-39.2-54.2-72.5-48.8c-29.5,4.8-47.9,24.4-54,57.5c5.3,1.5,7.7,0.9,9.1-5.8c6.3-29.7,32.9-48,63-44.3
	c27.7,3.4,48.5,28.7,47.8,58c-0.5,25.4-17.9,45.4-45.8,52.8c-2.7,0.7-5.8,0.5-5.4,4.9c0.4,4.3,3.5,2.8,5.8,3.1
	C388,145.4,390.9,144.7,393.6,143.9z"/>
<path style="fill:#F3F9FA;" d="M370.1,220.6c0-32.5,0-65,0-97.6c2.5,2.7,1.4,6,1.5,9.1c0.8,28.6-1.3,57.2,1.1,85.8
	C372.9,220,371.5,220.3,370.1,220.6z"/>
<path style="fill:#FDFDFD;" d="M230.6,180.6c0-23.5,0.2-47-0.1-70.5c-0.1-5.8,1.8-7.4,7.4-7.4c36,0.2,72,0.2,108,0
	c5.5,0,6.7,1.8,6.8,6.9c1.7,76.1-1.1,152-9.1,227.7c-4.8,44.8-18,87.2-36.6,128c-3.1,6.7-7.2,11.9-15.5,11.8
	c-8.2-0.1-12.3-5.5-15.3-12.1c-22.8-49.2-35.3-100.8-39-154.9C234.2,267,230.1,223.9,230.6,180.6z"/>
<path style="fill:#F4C53B;" d="M417.1,101.8c3.7,1.6,4.5,4,2.4,7.5c-4.4,7.6-10.6,13.5-18,18c-7,4.3-7.2-2.4-9.2-5.9
	c-6.9-5.5-6.4-15-11.6-21.5c-0.4-0.7-0.4-1.5-0.1-2.3c1.9-3.2-2.6-4.8-2-7.7c0.3-1.8,0.6-3.8,3.3-3.3
	C394.4,89.6,406.6,93.7,417.1,101.8z M378.8,108.6c0.3,6.3,1.3,12.6,0.9,18.8c-0.5,6.8,2.7,6.8,7.7,5.8c7-1.4,4.3-5.8,3.2-9.8
	c-2-9.1-6-17.5-10.3-25.7h0.1C374.5,100.5,381.6,105.3,378.8,108.6z M392.4,37.6c-3.9-8.7-12.1-6.4-18.7-6.4
	c-16.5,0-17.3,1.5-12.4,16.6c1.6,8.4,3.3,16.8,9.9,23.1c1.2,1.8,1.1,5,3.5,5.2c2.6,0.1,2.4-3.3,3.6-5.1c1-1.6,1.6-3.5,2.4-5.3
	C387.2,57.4,391,48,392.4,37.6z M382.2,67.5c0.1,4-3.9,7-2.9,11.4c2.1-0.5,4-1,5.9-1.4c11.4-2.6,22.6-5.6,31.8-13.4
	c3.6-1.6,4.6-4.1,2.5-7.5c-4.6-7.8-10.9-13.9-18.7-18.5c-2.6-1.5-4.9-1.2-6.7,1.3C388.5,48.1,384.8,57.6,382.2,67.5z M387.2,79.1
	c-6.7,3.2-6.7,3.2-3.5,6c11,7,23.2,11,35.4,15c3,0.4,5-0.8,5.8-3.8c2.3-9.1,2.2-18.2-0.1-27.3c-0.8-3.2-3.1-3.7-5.9-3.4
	C407.7,69,396.9,72.8,387.2,79.1z M359.7,49.8c-1.3-2.9-2.8-5.7-3.8-8.7c-1.5-4.7-4.5-4.8-8-2.6c-7.5,4.6-13.5,10.7-17.9,18.3
	c-1.7,2.9-1.8,5.4,1.9,6.9c11.2,4.6,22.2,9.4,33.4,13.8c4.6,1.8,5.4-0.8,4.2-4.7C367.4,64.7,364.8,56.7,359.7,49.8z M355.6,76.6
	c-6.1-2.5-12.1-5.1-18.2-7.6c-12.2-5-12.2-5-13.8,8.7c10.7,0,21.3,0,31.9,0C355.6,77.3,355.6,76.9,355.6,76.6z"/>
<path style="fill:#FE3829;" d="M285.6,459.5c-10.7-25.8-21.4-51.5-27.7-78.9c-6.4-27.8-9-56-11.5-84.3c-2-21.9-2.9-44-4.9-65.9
	c-0.6-6.7,1.4-8.5,7.8-8.4c28.4,0.3,56.9,0.2,85.3,0.1c4.7,0,7.7,0.4,7.2,6.5c-4.6,51.9-5.2,104.2-17.3,155.3
	c-6.2,26.3-15.9,51.3-27.3,75.7C293.4,464.7,289.5,464.1,285.6,459.5z"/>
<path style="fill:#D35F51;" d="M285.6,459.5c3.9,1.6,7.7,1.9,11.6,0c-0.2,3.6-2.2,6-5.6,6C288,465.6,286.7,462.5,285.6,459.5z"/>
</svg>
