<?xml version="1.0" encoding="utf-8"?>
<!-- Generator: Adobe Illustrator 24.0.0, SVG Export Plug-In . SVG Version: 6.00 Build 0)  -->
<svg version="1.1" id="Layer_1" xmlns="http://www.w3.org/2000/svg" xmlns:xlink="http://www.w3.org/1999/xlink" x="0px" y="0px"
	 viewBox="0 0 599.1 599.1" style="enable-background:new 0 0 599.1 599.1;" xml:space="preserve">
<path style="fill:#050505;" d="M364.8,164.5c6.5-0.8,13-1.5,19.5-2.4c11.3-1.5,22,0.3,32.5,4.6c9.2,3.8,18,8.3,26.6,13.1
	c4.4,2.4,7,5.7,6,10.8c-1,5.1-4.9,7.2-9.7,7.8c-13.7,1.6-27.1,4.6-40.4,8.4c-11.1,3.2-18.6,10.8-26.1,18.8c-2.4,2.6-0.1,3.2,1.4,4.2
	c30.6,18.6,51.1,45.4,63.8,78.6c7.2,19.1,11.2,38.9,11.1,59.2c-0.1,23.3,1.4,46.7-1.1,70c-6.5,59.9-44.8,118.5-106.1,133.4
	C294,582.6,247,578.3,207,544.3c-29.6-25.2-47.8-57.6-53.2-95.7c-5.7-39.5-6.7-79.6,1.8-118.9c8.7-40.3,29.9-73,64.4-96.4
	c2.8-1.9,3-3.5,2.5-6.7c-2.5-16.5-11-28.7-25.2-37.2c-6.7-4-13.1-8.3-19.8-12.2c-4.6-2.7-7-6.2-5.7-11.5c1.2-4.8,4.8-6.6,9.5-7
	c14-1.1,27.9-1.7,41.9,0.1c4.3,0.6,8.1,2.5,12.1,3.5c1-0.6,0.8-1.5,0.5-2.1c-9.4-21.6-20.7-41.7-39.7-56.6
	c-12.5-9.8-25-19.8-38.1-28.8c-6.8-4.7-8.7-8.4-6.6-13.2c2.6-6,7.6-6.2,13.2-5.5c19.9,2.1,39.6,5.5,58.9,10.8
	c19.4,5.4,34.8,15.9,45.4,33.2c1.1,1.8,1.9,3.9,3.8,4.8c4.1-8.4,8.1-16.8,12.2-25.2c7.8-15.9,19.1-28.8,33.9-38.5
	c6.8-4.5,13.7-8.9,20.5-13.4c4.5-3,9.1-4.9,13.8-0.7c4.4,3.9,3.4,8.4,1.4,13.3c-6,14.9-11.6,30-16.4,45.4
	c-3.3,10.4-3.3,20.9-2.6,31.6c0.5,0,1,0.2,1.2,0.1c16.9-14.2,37.1-13,57.2-11.8c5,0.3,10,1.1,15.1,1.6c4.5,0.4,7.8,2.5,9,7
	c1.3,5-0.9,8.5-5.1,11.3c-14.4,9.3-28.3,19.3-41,30.7c-2.7,2.4-5.6,4.6-8.4,7C363.9,163.5,364.3,164,364.8,164.5z"/>
<path style="fill:#FDD92C;" d="M394.9,392.2c1,0.7,1.9,1.3,2.7,2.1c10,8.9,20,17.8,30,26.7c2.1,1.8,2.3,3,0.2,5.1
	c-11.3,11.2-22.5,22.5-33.6,33.9c-2.1,2.1-3.3,1.6-5.1-0.2c-9.7-9.5-19.6-18.9-29.4-28.3c-1.5-1.4-2.8-2.5-0.6-4.6
	c11.3-10.9,22.5-22,33.7-33C393.5,393.3,394.1,392.8,394.9,392.2z M332.9,426.1c-10.1-9.7-20.3-19.3-30.3-29.1
	c-2.1-2.1-3.3-1.7-5.2,0.2c-10.3,10-20.7,20-31.1,29.9c-2.2,2.1-2.9,3.5-0.2,6c10.2,9.5,20.3,19.3,30.3,29.1c2,1.9,3.2,2.6,5.5,0.2
	c10.3-10.4,20.7-20.5,31.1-30.7c0.8-0.8,1.5-1.7,2.4-2.7C334.5,427.8,333.7,426.9,332.9,426.1z M302.3,371.9
	c10.4-10,20.7-20,31.1-29.9c2.1-2,2-3.2-0.2-5.1c-9.8-8.6-19.5-17.3-29.2-26c-2-1.8-3.4-1.7-5.4,0.2c-9.8,9.2-19.6,18.3-29.6,27.3
	c-2.4,2.2-2.7,3.4-0.2,5.8c9.7,9,19.1,18.3,28.7,27.4c0.7,0.7,1.4,1.3,2.4,2.1C300.9,373.1,301.6,372.5,302.3,371.9z M241.9,338.9
	c-8.6-8.4-17.4-16.7-25.9-25.1c-2-2-3.1-1.2-4.7,0.3c-10.7,10.1-21.4,20.3-32.3,30.3c-2.5,2.3-1.8,3.5,0.3,5.5
	c8.1,7.5,16.1,15.2,23.9,23c2.4,2.4,3.8,2.8,6.5,0.3c10.5-10,21.3-19.8,32-29.6c0.7-0.6,1.7-1,2.7-1.6
	C243.1,340.3,242.6,339.6,241.9,338.9z M307.6,547.3c8-8.1,16-16.4,24.2-24.4c2.7-2.6,2.4-4-0.2-6.4c-9.9-9.3-19.7-18.7-29.4-28.2
	c-2-1.9-3.2-2.6-5.5-0.3c-8.2,8.3-16.5,16.4-24.9,24.4c-2.1,2-2.5,3.3-0.2,5.5c10.2,9.9,20.1,19.9,30.1,29.9
	c0.8,0.8,1.7,1.4,2.7,2.3C305.7,549.1,306.7,548.2,307.6,547.3z M421.2,339.9c-10.1-9.1-20.3-18.2-30.2-27.4
	c-2.4-2.3-3.8-1.5-5.7,0.4c-8.1,7.9-16.2,15.7-24.4,23.4c-2.2,2-2.4,3.2,0,5.3c10.4,9,20.7,18.2,30.9,27.5c2.2,2,3.4,1.5,5.2-0.3
	c8-8,16.1-15.8,24.2-23.7c0.8-0.8,1.6-1.7,2.5-2.7C422.8,341.6,422.1,340.7,421.2,339.9z M214,456.7c8.6-8.2,17-16.5,25.7-24.6
	c2.5-2.3,0.5-3.3-0.8-4.5c-9.9-9.6-20-19-29.8-28.7c-2.2-2.1-3.5-2.1-5.7,0c-7.7,7.4-15.5,14.7-23.5,21.8c-2.6,2.3-2.2,3.7,0.1,5.9
	c9.7,9.5,19.3,19.2,28.9,28.8c0.9,0.9,2,1.8,3.1,2.7C212.8,457.6,213.5,457.2,214,456.7z M330,257.7c-9.2-8.3-18.4-16.6-27.6-25
	c-1.7-1.6-2.8-1.3-4.3,0.2c-8.7,8.3-17.5,16.5-26.3,24.7c-2.2,2-1.9,3.1,0.2,4.9c8.9,7.8,17.8,15.6,26.5,23.6c2.2,2,3.5,2,5.7-0.1
	c8.3-7.9,16.7-15.6,25.1-23.4c0.9-0.8,1.9-1.3,3.1-2.1C331.2,259.1,330.7,258.3,330,257.7z M245.1,512.7
	c-10.3-10.3-20.6-20.5-30.8-30.9c-2-2-3.2-1.9-5.1,0c-4.6,4.7-9.3,9.3-14.2,13.7c-2.3,2.1-2.5,3.7-0.8,6.3
	c8.1,11.9,17.8,22.5,29.1,31.4c2.3,1.8,3.9,2.4,6.3-0.1c5-5.4,10.4-10.4,15.7-15.6c0.7-0.7,1.3-1.4,2.1-2.3
	C246.6,514.5,245.9,513.5,245.1,512.7z M377.2,533c9.4-7.3,17.7-15.8,24.7-25.4c6.6-9,6.6-9-1.2-16.4c-1.8-1.7-3.8-3.4-5.4-5.3
	c-2.1-2.5-3.6-2.4-6,0c-10,10.3-20.1,20.5-30.4,30.6c-2.6,2.5-1.9,3.9,0.3,5.9c3.9,3.5,7.6,7.3,11.4,10.9c0.8,0.8,1.7,1.5,2.7,2.4
	C374.6,534.8,376,534,377.2,533z M228.5,249.8c-6.8,4.6-12.9,10-18.6,15.8c-10.8,11.1-10.8,11-0.1,21.5c0.4,0.4,0.9,0.8,1.2,1.2
	c2.1,2.8,3.7,2.2,6-0.1c6.4-6.3,13.1-12.2,19.4-18.4c3.3-3.2,9.4-5.7,9.2-9.8c-0.2-4-6.3-6.2-9.6-9.5c-1.2-1.2-2.2-2.7-4.3-2.9
	C230.7,248.4,229.6,249.1,228.5,249.8z M400,277.2c-0.5-1.2-1.4-2.3-2.3-3.4c-5.5-6.6-11.4-12.7-18.1-18.1
	c-11.5-9.2-11.4-9.1-21.9,1c-2.3,2.2-2.8,3.4-0.1,5.7c9.2,8,18.2,16.3,27.3,24.5c0.9,0.8,1.8,1.4,2.5,2
	C388.8,289.1,400.3,278.2,400,277.2z"/>
<path style="fill:#FDAA1B;" d="M346.5,418.2c-1-0.9-1.9-1.6-2.7-2.4c-9.8-9.4-19.5-18.9-29.5-28.2c-2.5-2.4-3-3.8-0.2-6.4
	c10.2-9.5,20.3-19.3,30.3-29c1.9-1.9,3.1-2.6,5.6-0.4c10,9.2,20.2,18.2,30.5,27.1c2.3,2,3.1,3.4,0.4,5.9
	c-10.7,10.2-21.1,20.7-31.6,31C348.5,416.6,347.6,417.3,346.5,418.2z M344.5,441.2c-10.8,10.6-21.6,21.3-32.5,31.8
	c-2.2,2.1-0.9,3.3,0.6,4.7c10.1,9.7,20.3,19.3,30.2,29.1c2.2,2.2,3.3,1.5,5.1-0.3c10.2-10.4,20.5-20.7,30.8-31
	c1.8-1.8,2.5-3.1,0.3-5.2c-10.2-9.6-20.2-19.3-30.3-29c-0.7-0.7-1.5-1.2-2.3-1.8C345.7,440.2,345.1,440.6,344.5,441.2z M286.4,381.6
	c-9.7-9.3-19.4-18.5-28.9-27.9c-2.1-2.1-3.2-1.6-5.1,0.2c-10.8,10-21.6,20-32.6,29.9c-2.4,2.1-1.6,3.3,0.2,5
	c10,9.5,19.9,19,29.8,28.7c2,2,3.3,1.8,5.2-0.1c10.4-10.2,21-20.2,31.4-30.3c0.8-0.8,1.5-1.7,2.4-2.8
	C287.9,383.3,287.3,382.4,286.4,381.6z M260.3,503c8.8-8.5,17.5-17.1,26.3-25.6c2.1-2.1,1-3.1-0.6-4.6
	c-10.3-9.7-20.6-19.5-30.7-29.4c-2.1-2-3.4-2.4-5.7-0.2c-7.9,7.8-15.8,15.5-23.9,23c-2.3,2.2-2.6,3.5-0.2,5.9
	c10.2,9.9,20.1,20,30.1,30c0.8,0.8,1.7,1.5,2.7,2.4C259.1,503.9,259.8,503.5,260.3,503z M258.3,328.2c9.7-8.9,19.3-18,29.1-26.8
	c2.4-2.2,2.1-3.5-0.2-5.4c-8.8-7.6-17.5-15.4-26.1-23.2c-2.2-2-3.6-2-5.8,0.1c-9.1,8.7-18.4,17.3-27.6,25.9
	c-2.1,1.9-2.7,3.3-0.3,5.5c8.7,8.1,17.1,16.3,25.7,24.5c0.7,0.6,1.4,1.2,2.3,1.9C256.5,329.7,257.4,329,258.3,328.2z M349.9,326
	c7.9-7.5,15.6-15.1,23.6-22.5c2.9-2.6,2.9-4.2-0.1-6.8c-9.1-7.9-18-16-26.8-24.2c-2.4-2.2-3.8-2.2-6.1,0
	c-8.3,7.9-16.7,15.7-25.3,23.3c-2.4,2.2-2.1,3.4,0.2,5.4c9.5,8.3,18.9,16.8,28.3,25.2c0.9,0.8,1.8,1.4,2.6,1.9
	C348.2,328.2,348.9,326.9,349.9,326z M287.3,555.1c-9-9.1-18.1-18.2-27.1-27.3c-1.7-1.8-2.9-1.2-4.3,0.3c-4.4,4.4-8.8,8.8-13.3,13.1
	c-2.1,2-2.3,3.1,0.6,4.5c14,6.8,28.7,10.5,44.4,11.2C287.5,556.1,287.6,555.4,287.3,555.1z M192.7,388.7c2.3-2,2.3-3.3,0.1-5.4
	c-6.7-6.2-13.1-12.6-19.7-18.9c-0.9-0.8-1.6-2.4-3.4-1.4c0,15.2,0,30.5,0,47C177.9,402.3,185.2,395.4,192.7,388.7z M430.4,357.1
	c-8.5,8.4-15.9,15.7-23.2,23c-1.5,1.5-0.1,2.4,0.9,3.3c7.2,6.4,14.5,12.9,22.4,19.9C430.4,387.7,430.4,373.2,430.4,357.1z
	 M171.5,441c2.2,15.1,6.2,29.6,14.2,45.5c5-5.8,9.1-10.7,13.4-15.5c1.3-1.5,2.1-2.4,0.3-4.2c-8.9-8.8-17.6-17.8-26.4-26.8
	C172.4,440.4,171.9,440.7,171.5,441z M358,545.2c1.8-0.9,1.5-1.9,0.3-3.1c-3.5-3.4-7-6.7-10.5-10.1c-1.3-1.3-2.3-1.8-3.9-0.3
	c-7.5,7.8-15.1,15.5-23.7,24.3C334.6,554.8,346.5,550.9,358,545.2z M412.1,463c-10.2,10.3-10.2,10.3,1.2,19.6c1.7,1.4,2.6,2,3.7-0.5
	c4.7-10.6,8.4-21.6,9.4-33.5C421.6,453.5,416.8,458.2,412.1,463z M194.2,309.7c9.4-8.8,9.3-8.7-0.4-17.2c-2.4-2.1-3.3-1.6-4.7,0.9
	c-5.7,10.4-10.4,21.2-14,34.1C182.3,320.8,188.3,315.3,194.2,309.7z M422.5,319.3c-0.6-1.6-1-3.3-1.7-4.8
	c-2.2-5.2-4.3-10.4-6.7-15.4c-4.8-9.7-6.9-9.8-13.5-0.9c-1.2,1.6-0.7,2.3,0.4,3.3c6.9,6.2,13.7,12.4,20.5,18.6
	C421.9,319.8,422.2,319.5,422.5,319.3z M255.7,248c1.2,1.1,2.3,2.1,3.9,0.6c5.8-5.5,11.5-10.9,17.3-16.4
	c-10.8,0.4-20.5,3.1-30.1,7.7C250,242.8,252.9,245.4,255.7,248z M322.8,231.1c4.7,4.2,8.1,7.3,11.5,10.4c9.7,8.9,9.7,8.9,19.2-1.7
	C344,235.4,334.5,232.5,322.8,231.1z"/>
<path style="fill:#7ACF57;" d="M409.4,185.3c-3.1,0.7-5.7,1.4-8.3,1.9c-19.1,3.3-33,14.5-44.7,29.2c-1.4,1.8-2.4,3.3-5.6,2.3
	c-35.3-10.8-70.5-10.6-105.6,1.1c0,0,0,0,0,0c-3.3,2.6-5,3.2-6.1-2.3c-3.7-17.8-6.9-21.9-27.4-39.9c2.8-1.7,5.4-1.5,8-0.1
	c10.7,1.1,20.3,6.1,30.3,9.5c0,0,0,0,0,0c0,0,0,0,0,0c1.6,0,3.1,0.1,4.6,0c5.6-0.4,9.5-5.8,7.4-11.1c-9.9-24.8-19.4-49.9-37.2-70.4
	c-8.1-9.3-18.4-16.4-28.4-24.7c4.1-0.6,7.3,0.7,10.5,2c25.4,2.6,42.2,17.1,53.7,39c1.2,2.2,2.7,4.2,3.8,6.5c2.7,5.8,7,8.6,13.5,7.1
	c0,0,0,0,0,0c3.1-2,4.6-5.1,5.9-8.3c6.9-17.5,14.3-34.8,24.3-50.8c5.1-8.2,12.7-13.2,21.2-17.8c-1.1,2.3-2.3,4.7-3.4,7
	c-7.4,16.8-11.4,34.4-10.4,52.9c0.3,6,0.6,12,1.1,17.9c0.6,7.5,4.1,10.1,12.7,9.7c0,0,0,0,0,0c6.9-5.3,13.7-10.7,20.8-15.8
	c9.1-6.5,19-6.8,29.4-6.1c0.1,0,0.3,0.2,0.3,0.4c0,0.2-0.1,0.4-0.2,0.5c-7.4,7.3-16.3,13.1-23.8,20.4c-8.7,8.4-13.5,18.8-17.7,29.7
	c-1.4,3.7-0.5,6.9,2.2,9.6c2.6,2.7,5.6,3.8,9.5,2.6c12.6-3.8,25.6-5.6,38.7-7.1C395.8,179.3,402.6,181.1,409.4,185.3z"/>
</svg>
