<?xml version="1.0" encoding="utf-8"?>
<!-- Generator: Adobe Illustrator 24.0.0, SVG Export Plug-In . SVG Version: 6.00 Build 0)  -->
<svg version="1.1" id="Layer_1" xmlns="http://www.w3.org/2000/svg" xmlns:xlink="http://www.w3.org/1999/xlink" x="0px" y="0px"
	 viewBox="0 0 600 600" style="enable-background:new 0 0 600 600;" xml:space="preserve">
<path style="fill:#050505;" d="M0.1,484.1c9.9-23.8,27.7-42.4,42.7-62.8c52.6-71.5,105.4-142.8,162.5-210.8
	c45.5-54.2,93-106.4,150.3-148.8c36.9-27.3,76.8-48.5,122.3-57.6c7.9-1.6,16-1.6,23.8-4c12.5,0,24.9,0,37.4,0
	c8.9,1.5,17.7,3.1,26.6,4.6c0.6,0.1,1.2,0.1,1.7,0.2c24.3,5.6,21.5,3.6,26.5,27.3c12.6,59.1,0.6,114.3-28.1,166.5
	c-24.2,44.1-56.6,81.8-92,117.2c-51.3,51.4-107.8,96.7-164.9,141.3c-15.7,12.2-31.5,24.2-47.3,36.2c-3.1,2.3-5.1,5-6.4,8.6
	c-5.6,15.1-13.4,28.9-24.2,40.9c-4.8,5.2-10,9.8-17,11.8c-7.9,2.3-15.1,0.6-21.3-4.5c-2.7-2.2-4.2-2-6.9,0
	c-17.3,13-34.6,25.9-52,38.6c-9.5,6.9-19.9,11.7-32.1,9.2c-18.4-3.8-29.8-22-27.2-43c1-8.1,2.4-16.2,3.3-24.3
	c1-8.6-1.2-10.7-9.7-9.7c-7.5,0.8-15,2.1-22.6,3c-23.1,2.8-37.3-5.8-45.3-27.1C0.1,492.7,0.1,488.4,0.1,484.1z"/>
<path style="fill:#777EEF;" d="M575.2,83.5c-1.2,38.6-13.1,74-31.9,107.4c-22.4,39.9-52.1,74.2-84,106.5
	c-23.2,23.4-47.5,45.6-72.7,66.8c-7.4,6.2-15.6,3.1-23.2,0.9c-6.7-1.9-8.9-8.2-9-14.9c-0.1-12.2-2.2-23.6-11.3-32.7
	c-6.8-6.7-14.8-10.6-24.3-11.3c-4.1-0.3-8.2-0.5-12.2-1c-7.1-0.8-12.1-5.7-13-12.8c-0.6-5.4-0.6-10.9-1.6-16.3
	c-3.3-18.2-17.5-30.1-36.9-31.5c-20.5-1.5-24.2-5.6-23.9-26.3c0-2,0.8-3.3,2-4.7c41.9-48.9,85.6-96,137.8-134.3
	c32.9-24.1,68.3-43.2,108.7-51.7c28.7-6,57.2-5.3,85.8,0.7c3.2,0.7,4.4,2.3,5,5.3C573.7,50.1,575.7,66.7,575.2,83.5z"/>
<path style="fill:#EF7BB0;" d="M264.2,462c0.5-13.1-0.3-25-3.2-36.8c-5.5-21.9-16.5-40.6-32.7-56.2c-13.1-12.7-33.9-13.4-47.1-0.7
	c-23.4,22.6-46.6,45.4-69,69c-17.7,18.6-9.2,48,15.3,55.8c1.1,0.4,2.2,0.8,3.4,0.9c20.9,1.9,32.2,16.2,42.3,32.2
	c1.4,2.1,1.2,3.2-0.8,4.7c-18.2,13.3-36.3,26.9-54.6,40.1c-4.2,3-9.1,6.3-14.5,2.8c-5.4-3.4-6.3-9.2-5.8-15
	c0.8-9.9,3.4-19.6,3.5-29.5c0.3-17.4-8.9-29.4-24-31.3c-9.2-1.2-18.2,0.6-27.3,1.8c-5.4,0.7-10.7,2.1-16.2,0.9
	c-9.2-2-12.2-7.9-8-16.3c1-2.1,2.3-4.1,3.6-6c57.6-77.2,114.3-155.1,175-230c1.8-2.3,3.7-4.5,5.5-6.7c1.3,0.2,1.5,1.2,1.8,2
	c6.7,15.3,18.7,22.8,35.1,23.9c2.5,0.2,5.1,0.1,7.6,0.3c9.5,0.9,14.2,5.8,15.2,15.3c0.6,5.6,0.4,11.3,1.8,16.8
	c4,16,17.8,27.5,34.3,28.6c3.3,0.2,6.6,0.5,9.9,0.8c9.8,0.9,14.5,5.7,15.4,15.7c0.3,3.9,0.3,7.8,0.8,11.6c2,14.5,10,24.6,23.3,30.5
	c0.7,0.3,1.3,0.8,2.5,1.4C326.9,413.7,296.2,437.7,264.2,462z"/>
<path style="fill:#050505;" d="M491.2,154.2c0.1,25.8-20.8,46.8-46.6,46.9c-25.7,0.1-46.8-20.9-46.9-46.7
	c-0.1-25.8,20.9-46.8,46.7-46.8C470.3,107.7,491.1,128.4,491.2,154.2z"/>
<path style="fill:#FEC044;" d="M215.6,389.5c16.6,18.1,25.5,39.2,25.5,68.1c-1,22.6-8.8,47-26,67.9c-7.2,8.8-7.5,8.5-14.2-0.4
	c-7.8-10.4-14.7-21.5-23-31.6c-8.7-10.6-19.7-16.7-32.7-19.9c-3.6-0.9-7.2-1.7-10.7-2.7c-7.6-2.3-10.3-10.1-5.9-16.7
	c1.1-1.6,2.5-3,3.8-4.4c20.4-20.4,40.7-40.7,61.1-61.1C201.8,380.5,207.5,380.8,215.6,389.5z M444.2,131.1
	c-12.4-0.1-23,10.4-23.2,23c-0.2,12.7,10.4,23.5,23.3,23.6c12.8,0.1,23.4-10.5,23.4-23.4C467.8,141.4,457.4,131.2,444.2,131.1z"/>
</svg>
