<?xml version="1.0" encoding="utf-8"?>
<!-- Generator: Adobe Illustrator 24.0.0, SVG Export Plug-In . SVG Version: 6.00 Build 0)  -->
<svg version="1.1" id="Layer_1" xmlns="http://www.w3.org/2000/svg" xmlns:xlink="http://www.w3.org/1999/xlink" x="0px" y="0px"
	 viewBox="0 0 590 590" style="enable-background:new 0 0 590 590;" xml:space="preserve">
<path style="fill:#F4C464;" d="M313.8,266.8c-12.1,0-24.3,0-36.4,0c-2.3-1.9-1.7-4.5-1.7-7c-0.1-9-0.1-18,0-27c0.1-5.2-2-8.7-6.7-11
	c-10.7-5.2-21.2-10.6-31.9-15.9c-3-1.5-6.1-2-9.4-2c-6.4,0.1-12.6-1.4-18.6-3.3c-15-4.9-24.5-17.1-25.4-32.2
	c-0.9-16.2,7.8-30.9,22.3-37.6c11-5.1,21.9-4.8,32.7,0.6c1,0.5,2,1,3.1,1.6c10.6,5.8,14.4,3.8,15.6-8.1c2-19.3,18.8-34.4,38.2-34.4
	c19.4,0,36.2,15.1,38.2,34.4c0.2,1.5,0.1,3.1,0.4,4.6c1,5.5,5.4,8,10.7,5.9c3-1.2,5.7-3.1,8.6-4.5c18.6-9,41.4-0.6,50.4,18.6
	c9.2,19.8,1.1,41.4-18.6,49.9c-6,2.6-12.4,4.3-18.9,4.3c-6.4,0.1-12,1.8-17.5,4.7c-8.6,4.5-17.4,8.9-26.2,13.1
	c-5.2,2.5-7.3,6.2-7.2,11.8c0.2,8.8,0.1,17.6,0,26.4C315.5,262.3,316.1,265,313.8,266.8z"/>
<path style="fill:#050505;" d="M295.7,570.4c-69.3,0-138.7-0.2-208,0.2c-11.2,0.1-15.3-8.1-10.1-17.2
	C125.8,470,173.4,386.3,221,302.7c3.3-5.8,7.2-8.4,14.1-8.4c40.6,0.3,81.2,0.2,121.8,0.1c5.8,0,9.5,2,12.4,7.1
	c47.9,84.2,96,168.2,144.1,252.3c5.8,10.2,2.1,16.6-9.8,16.6C434.4,570.4,365.1,570.4,295.7,570.4z M324.2,276
	c5.2-0.6,8.2-4.6,8.2-11.2c0-8.4,0-16.9,0-25.3c0-2.2,0-3.9,2.6-5.1c13.4-6.1,25.7-15.3,41.5-14.9c1.5,0,3-0.6,4.5-1
	c31.4-7.4,49.7-36.3,41.8-66.4c-8-30.5-38.8-48.1-69.2-39.3c-3.8,1.1-5,0.5-6.3-3.2c-8.1-21.8-28.4-36-51.1-36.1
	c-23-0.1-43.8,13.7-51.8,35c-1.7,4.6-3.2,5.3-7.8,4c-20.3-5.6-38.4-0.8-53.3,14c-14.9,14.8-19.9,33-14.4,53.3
	c6.6,24.1,24.2,35.6,47.6,39.8c5.2,1,10.7,0,15.7,2.6c7.7,3.9,15.3,7.8,23.1,11.5c2.9,1.4,3.7,3.1,3.6,6.2
	c-0.2,8.2-0.1,16.5-0.1,24.7c0,6.7,2.9,10.6,8.1,11.3c5.2,0.6,8.7-2.5,10.4-9.1c-0.1-11.7-0.2-23.4-0.1-35c0-4.4-1.1-8.1-5.3-10
	c-17.9-8.1-34.1-19.5-55-21.1c-19.8-1.5-31.6-16.3-31.7-34.5c-0.1-18.4,12.3-33.4,30.7-36.8c10.1-1.9,19.2,0.9,27.7,6.7
	c7.4,5,14.7,1,15.2-7.9c0.1-1.9,0.2-3.8,0.6-5.7c3.8-19.2,20.2-31.8,39.3-30.3c18.6,1.4,32.7,16.6,33.6,36c0.4,8.9,7.7,12.7,15.2,8
	c0.6-0.4,1.2-0.9,1.9-1.3c12.1-7.4,24.6-8.2,37.1-1.5c12.7,6.8,19.2,17.9,19.4,32.2c0.3,19.1-11.9,33.3-32.8,35.4
	c-13.8,1.4-25.8,6.1-37.5,12.5c-4.7,2.6-9.5,5-14.4,7.2c-5.2,2.3-7.4,5.9-7.3,11.7c0.2,11.5-0.1,23-0.1,34.5
	C315.5,273.5,319.1,276.6,324.2,276z M359.2,92.1c5.8,0.4,9.1-3.2,10-10.5c2.1-16.7,10.5-29.2,25.2-37.4c6.7-3.8,14.1-5.6,21.6-7.3
	c6.1-1.4,9.2-5.8,8.2-11c-1.1-5.2-5.9-8.3-11.9-7.1c-7.5,1.5-14.9,3.4-21.8,6.7c-23.4,11.1-36.9,29.3-39.7,52.6
	C350.7,87.6,353.7,91.7,359.2,92.1z M176.2,18.6c-5-0.6-8.3,2.8-9.2,7.6c-0.8,5,1.6,8.5,6.3,10.3c2.3,0.8,4.8,1.1,7.3,1.6
	C203.9,43.2,219.8,60,222,82c0.7,7,4,10.4,9.8,10.1c5.6-0.3,8.8-4.3,8.7-11.2C238,46.7,210.2,22.7,176.2,18.6z M237,259.5
	c-21.4-23.4-55-26.7-84.4-9c-4.3,2.6-5.4,6.8-3.4,11.5c1.9,4.5,6.7,6.5,11.5,4.8c2.7-1,5.2-2.5,7.8-3.6c17.1-7.8,33.7-7.6,49.2,3.8
	c2.8,2,5,4.8,7.6,7c2.9,2.4,6.2,2.9,9.6,1.2c3.4-1.6,5.2-4.4,5.4-8.1C240.7,263.9,239,261.7,237,259.5z M353.4,260.3
	c-3.2,3.5-3.8,7.5-1.2,11.6c2.4,3.9,6.2,5,10.5,3.9c2.5-0.6,4.1-2.7,5.8-4.4c11-10.9,24.1-15.5,39.7-12.8c7.7,1.3,14.4,4.6,21.3,7.9
	c4.9,2.3,9.8,0.5,12.2-4c2.4-4.4,1-9.7-3.7-12.3c-11.5-6.4-23.6-10.7-38.9-10.9C382.2,239.4,366.1,246.1,353.4,260.3z M479.6,276
	c-10.4,0-18.5,8.1-18.4,18.5c0,10.1,8,18.2,18,18.3c10.4,0.1,18.7-7.9,18.7-18.2C498,284.3,489.9,276.1,479.6,276z M138.6,36.9
	c9.8,0,9.8,0,9.8-9.7c0-8.7,0-8.7-8.6-8.7c-9.8,0-9.8,0-9.8,9.7C130,36.9,130,36.9,138.6,36.9z M461.1,45.4c0-8.5,0-8.5-8.7-8.5
	c-9.7,0-9.7,0-9.7,9.9c0,8.6,0,8.6,8.7,8.6C461.1,55.3,461.1,55.3,461.1,45.4z M138.9,276c-8.8,0-8.8,0-8.9,9c0,9.4,0,9.4,9.5,9.4
	c8.9,0,8.9,0,8.9-9C148.4,276,148.4,276,138.9,276z"/>
<path style="fill:#636363;" d="M491,551.9c-130.6,0-260.2,0-389.9,0c-0.6-2.1,0.8-3.3,1.6-4.7c16.5-28.9,33.1-57.8,49.5-86.8
	c2-3.6,3.7-4.8,7.3-1.9c3.1,2.5,7,4,10.1,6.5c6.3,5.1,12,4.9,18.7,0.3c14-9.4,28.5-18,42.5-27.3c4.6-3,7.8-3.4,12.7-0.2
	c14.8,9.9,30.1,19,45,28.7c5,3.3,9.4,3.2,14.3-0.2c6.3-4.3,12.8-8.2,20.4-12.9c0,11.9,0,22.7,0,33.4c0,8.1,2.8,14.9,8.6,20.6
	c8,7.8,19.4,10,29.8,5.4c10.5-4.7,16.3-13.1,16.8-24.7c0.3-6.3,0.1-12.6,0.1-19c0-6.1,0-12.2,0-19.5c7.2,4.5,14.2,8,20.1,12.8
	c9.4,7.6,17.4,7.5,27.1,0.1c10.1-7.8,10.6-7.1,17.1,4.3c15,26.3,30,52.5,45,78.8C488.7,547.4,489.6,549.3,491,551.9z"/>
<path style="fill:#F26629;" d="M295.9,312.8c18,0,36,0.1,54-0.1c3.5,0,5.4,1.1,7.1,4.2c22.4,39.4,44.8,78.8,67.5,118.1
	c2.1,3.6,1.7,4.9-1.6,7.6c-7.5,6-13.7,6.3-21.5,0.1c-7.8-6.1-16.7-10.7-25.1-16.1c-3.8-2.4-7.5-3.9-11.8-1.5
	c-4,2.3-4.7,6.1-4.7,10.4c0.1,16.7,0.1,33.3,0,50c0,7.2-3.5,11.4-9.3,11.4c-5.7,0-9.1-4.2-9.1-11.5c0-15.5-0.1-31,0-46.5
	c0-4.3-1-8-5.1-10.1c-3.8-2-7.3-0.9-10.8,1.4c-8.7,5.6-17.6,10.9-26.2,16.6c-3,2-5.1,2-8.2,0c-15.6-10.1-31.4-19.8-47-29.9
	c-5-3.2-9.3-3.3-14.3-0.1c-15.1,9.8-30.5,19.1-45.5,29c-4.1,2.7-7,2.9-11.1,0.1c-9.4-6.3-9.5-6.1-4-15.8
	c21.4-37.5,42.9-75,64.3-112.6c2-3.5,4.1-4.7,8-4.6C259.9,312.9,277.9,312.8,295.9,312.8z"/>
</svg>
