<?xml version="1.0" encoding="utf-8"?>
<!-- Generator: Adobe Illustrator 24.0.0, SVG Export Plug-In . SVG Version: 6.00 Build 0)  -->
<svg version="1.1" id="Layer_1" xmlns="http://www.w3.org/2000/svg" xmlns:xlink="http://www.w3.org/1999/xlink" x="0px" y="0px"
	 viewBox="0 0 588 588" style="enable-background:new 0 0 588 588;" xml:space="preserve">
<path style="fill:#1670B8;" d="M218,299.4c1.4-3.3,2.9-6,3.9-8.9c3.7-11.7-3.1-20.8-15.3-20.5c-10.2,0.2-18.4,5.4-25.4,11.9
	c-24.1,22.1-37.7,48.8-35.2,82.4c0.2,2.2,0.5,4.5-1.9,5.8c-2.2,1.3-3.8,0-5.3-1.5c-24.7-24.8-45.4-52-53.1-87.1
	c-1.7-7.9-2.7-15.9-3.8-23.9c-0.9-6.7,0.7-12.1,5.1-17.7c25.1-31.9,54.2-58.9,92-75.1c29.8-12.7,60.5-17.5,92.5-9.1
	c4.5,1.2,6,2.8,5.3,7.8c-2.7,18.9,4.1,35.4,14.4,50.6c16.3,24,38.4,41.9,62.5,57.4c59.5,38.3,124.5,62.7,193.9,75.9
	c9.9,1.9,14.2,6.8,14.3,17c0.1,6.6,0,13.2,0.1,19.8c0.1,2.8-0.2,4.4-3.8,4.1c-9-0.7-16.7,2.4-23.9,8c-9,7.1-20.3,6.8-30.7-0.4
	c-12.2-8.5-25.4-14.6-40-17.5c-27.3-5.4-52.5,0.1-75.7,15.1c-8.8,5.7-18.2,7.5-28.4,4.7c-3.8-1-7-3-10.3-5
	c-35.7-21.9-71.7-21.6-108.1-1.7c-5.6,3.1-10.9,6.8-17.2,8.6c-10.4,2.9-20.2,0.2-25.9-7.2c-6.2-8-6.9-19.6-1.8-28.5
	c3.8-6.6,9.5-11.1,16-14.7c5.3-3,11-4.9,16.8-6.8c12.6-4.3,17.3-15.6,11.9-27.8C236.5,305.7,229.9,301.1,218,299.4z"/>
<path style="fill:#01C8FD;" d="M25.1,257.6c7.8-13,15.9-24.1,24.6-34.8C84,180.4,124.4,145.6,174,122
	c37.4-17.8,76.8-27.1,118.2-26.7c31.8,0.3,61.6,9.3,88.7,26.2c14.9,9.3,25,22.5,26.8,40.9c2.1,22.4-16.8,44.6-37.9,44.1
	c-10.9-0.3-18.6-6.2-24.5-14.7c-8.8-12.6-18.8-24-31.3-33c-19.5-14-41.2-21.7-65-22.9c-47.2-2.3-88.1,14.5-124.7,43.1
	c-25,19.5-45.7,43-62.8,69.7c-1.2,2-2.1,4.3-5,4.6C46.4,254.6,36.4,256,25.1,257.6z"/>
<path style="fill:#01C8FD;" d="M518,570.2c-14.9-0.4-29.2-4.5-42.2-13c-21.3-13.9-42.4-13.7-64-0.2c-28.7,17.9-58,17.7-86.7-0.2
	c-21.2-13.2-41.9-13.3-63.1-0.1c-28.9,18-58.3,18.1-87.2,0.1c-21.4-13.4-42.2-13.2-63.6,0.2c-28.1,17.6-56.8,17.5-85.4,0.8
	c-7.9-4.6-10-12-5.8-18.5c4-6.3,11.2-7.1,18.9-2.6c19.9,11.8,39.7,11.5,59.3-0.7c29.9-18.5,59.8-18.6,89.7-0.1
	c20.4,12.6,40.8,12.5,61.2-0.3c29.5-18.5,59.1-18.4,88.6,0c20.6,12.9,41.1,12.9,61.7,0c29.5-18.5,59.1-18.5,88.6,0
	c19.9,12.5,40,12.9,60.2,0.9c7.5-4.5,14.9-3.3,18.7,3.1c3.8,6.4,1.8,13.2-5.4,17.8C548.5,565.9,534,570,518,570.2z"/>
<path style="fill:#01C8FD;" d="M519.3,446.7c-15.9-0.3-30.4-4.4-43.5-12.9c-21.3-13.9-42.4-13.7-64-0.2
	c-28.5,17.8-57.7,17.9-86.2,0.1c-21.6-13.4-42.5-13.6-64.1-0.1c-28.7,17.9-58,17.8-86.7-0.1c-21.4-13.4-42.4-13.5-63.5,0.2
	c-27,17.4-61.3,17.3-86.8-0.1c-5.8-3.9-7.8-9.4-5.6-15.2c2-5.6,7.5-8.7,13.6-8c2.3,0.3,4.1,1.4,6,2.6c20.2,12.1,40.2,11.7,60.3-0.6
	c29.7-18.4,59.5-18.2,89.2,0.1c20.2,12.5,40.5,12.6,60.7,0c29.9-18.7,59.7-18.8,89.6,0c20.2,12.6,40.5,12.7,60.7,0
	c29.9-18.7,59.7-18.8,89.6,0c19.7,12.4,39.7,12.6,59.8,0.6c7.6-4.5,14.8-3.4,18.7,3.1c3.9,6.4,1.9,13.2-5.3,17.8
	C548.7,442.3,534.4,446.3,519.3,446.7z"/>
<path style="fill:#01C8FD;" d="M516.6,508.4c-13.2-0.2-27.8-4.4-41.1-13.1c-21.1-13.8-42.1-13.5-63.5-0.1
	c-28.3,17.7-57.4,18.1-85.7,0.5c-22.2-13.8-43.3-13.8-65.5,0c-27.9,17.4-56.8,17.4-84.8,0c-22.2-13.8-43.3-13.8-65.5,0
	c-28.4,17.6-57.3,17-85.8-0.5c-6.1-3.8-8.1-9.7-5.7-15.6c2.2-5.4,7.8-8.5,13.9-7.5c2.3,0.4,4.1,1.6,6,2.7
	c19.9,11.8,39.7,11.6,59.3-0.5c30.1-18.6,60.1-18.6,90.2,0c20,12.4,40.3,12.4,60.2-0.1c29.9-18.8,59.7-18.9,89.6-0.2
	c20.4,12.7,40.8,12.7,61.2-0.1c29.7-18.6,59.4-18.6,89.1,0.1c19.7,12.4,39.7,12.7,59.8,0.8c7.6-4.5,14.8-3.5,18.8,2.8
	c4,6.5,1.9,13.5-5.6,18.2C548.9,503.9,533.6,508.4,516.6,508.4z"/>
<path style="fill:#1670B8;" d="M127.4,129.2c12.5-21.8,28.8-40.2,47.5-56.4c25-21.7,52.6-39.4,84.5-49.3
	c25.4-7.9,51.1-10.4,76.8-1.3c20.3,7.2,33.8,21.3,39.9,42.1c-0.9,1.1-1.8,0.6-2.6,0.3c-31.4-13.3-63.3-12-95.5-3.5
	c-17.3,4.5-33.9,11-49.1,20.4c-10.4,6.5-21.9,10.2-33.3,14c-22.9,7.8-44.2,18.6-64.6,31.4C129.8,127.8,128.6,128.5,127.4,129.2z"/>
</svg>
