<?xml version="1.0" encoding="utf-8"?>
<!-- Generator: Adobe Illustrator 24.0.0, SVG Export Plug-In . SVG Version: 6.00 Build 0)  -->
<svg version="1.1" id="Layer_1" xmlns="http://www.w3.org/2000/svg" xmlns:xlink="http://www.w3.org/1999/xlink" x="0px" y="0px"
	 viewBox="0 0 602 602" style="enable-background:new 0 0 602 602;" xml:space="preserve">
<path style="fill:#BE695D;" d="M234.8,179.4c65.4,0,130.8,0.1,196.2,0.1c45.7,0,84,31.4,92.9,76.2c0.9,4.6,1.6,9.3,1.6,13.9
	c0,3.1,1.5,4,3.8,4.8c-3.4,6.2-2.4,12.4-0.2,18.6c-4.3-0.6-3.4,2.5-3.4,4.8c0,17.4-0.4,34.8,0.1,52.1c1,36.5-3.9,72.4-9.9,108.2
	c-4.3,25.9-8.4,51.9-12.6,77.9c-13.1,3-26.3,3-39.4,0c1.7-17.3,3.5-34.5,5.2-51.8c0.2-2.3,0.5-4.5-0.9-6.7
	c-9.7-15.2-15.4-31.9-16.9-49.9c-0.3-3.6-1.6-4.9-5-4.2c-2.7,2.1-5.9,1.8-8.9,1.8c-16.7,0-33.4,0.1-50.1-0.1c-4.4,0-8,0.8-10.7,4.4
	c-0.2-5.4-3-6.4-8.2-6.3c-16,0.4-32,0.3-48,0c-4.4-0.1-5.9,1.2-6.6,5.5c-4.7,31-9.6,61.9-14.5,92.9c-0.8,4.8-1.7,9.6-2.5,14.4
	c-13.1,3-26.3,3-39.4,0c1.8-17.5,3.5-34.9,5.3-52.4c0.2-2.2,0.3-4.2-1-6.2c-9.8-15.2-15.3-31.9-17-49.9c-0.3-3.7-1.6-4.9-5-4.2
	c-6.9,3.1-14.2,1.8-21.2,1.3c-15.7-1.1-30.5-5.8-43.9-14.3c-2.4-1.5-4.3-3.3-5.4-5.8c-24.4-19-36.9-44-37.6-74.9
	c1.5-1.9,3.8-1.8,5.8-2.4c18.3-5.3,25.7-23.1,16.7-39.9c-0.9-1.6-2.6-3.1-1.2-5.3c4.3-2.1,8.8-0.9,13.3-1.1
	c7.6-0.3,9.7-1.9,10.9-9.3c2.5-16,4.9-32,6.8-48.1c0.8-6.8,3.3-10.7,10.3-12.8C211.6,205.8,224.8,194.5,234.8,179.4z"/>
<path style="fill:#8C4A49;" d="M234.8,179.4c-0.2,7.1-6,11-10.2,15.1c-9.2,9-20.1,15.9-32.9,19.1c-3.4,0.9-5,2.3-5.5,6.2
	c-1.9,15.3-4.4,30.6-6.6,45.9c-0.5,3.3-0.6,6.6-1.4,9.8c-1.1,4.7-4.3,7.3-9.3,7.3c-5.5,0-10.9,0-16.4,0c-1.5,1.6-3.5,1.7-5.4,1.8
	c-10.5,0.2-21.1,0.1-31.6,0c-1.9,0-3.9-0.1-5.5-1.6c-4.9-0.1-9.8-0.1-14.6-0.2c-6.8-0.1-10-2.8-11-9.5c-2.6-17.9-5.4-35.8-7.7-53.8
	c-0.5-3.7-2.2-4.8-5.2-5.7c-16-4.7-29.2-13.5-39.7-26.5c-5.5-6.7-4.9-11.3,2-16.8c8.8-6.9,18.6-12.1,29.6-14.8c3-0.7,4.5-2,3.3-5.2
	c-4.7-8.5-2.9-15.1,4.8-17.8c39.9,0,79.8,0,119.7,0c7.8,2.8,9.5,9.4,4.8,17.8c-1.1,3.2,0.4,4.4,3.4,5.1c11.1,2.9,21,8.1,30,15.1
	C232.4,173.1,234.6,175.6,234.8,179.4z M186.6,477.8c1.4,2.2,1.1,4.4,0.8,6.7c-1.7,17.2-3.5,34.4-5.2,51.7c5.5,2.7,33.9,2.7,39.4,0
	c6-37.5,12-75,18-112.6c-5.5,0-10.9,0.1-16.4-0.1c-20-0.7-38.1-6.6-54.1-18.7C167.7,430.9,172.2,455.6,186.6,477.8z M392.1,476.3
	c1.6,2.7,2.2,5.1,1.8,8.2c-1.8,17.2-3.5,34.5-5.2,51.7c5.5,2.7,33.9,2.7,39.4,0c6-37.5,12-75,18-112.6c-21,0-41.9,0.1-62.9-0.2
	c-5-0.1-7.2,1.3-6.8,6.3C377.7,446.6,383.4,462,392.1,476.3z"/>
<path style="fill:#272E3D;" d="M529.1,293.2c-2.4-1.1-3.9-2.6-3.5-5.6c0.4-3,0.2-6.1,0-9.2c-0.2-2.8,1.1-3.8,3.7-3.8
	c23.9,2.2,46.7,23.7,51.4,48.7c4.1,21.9-1.8,40.9-17.2,57.1c-2.2,2.3-3.7,2.9-6,0.2c-2.9-3.4-7.8-6-9-9.8c-1.3-4.1,4.6-6.4,6.9-9.8
	C572.6,335.7,560,300.7,529.1,293.2z"/>
<path style="fill:#FEBF18;" d="M110.1,283c14.2-0.1,28.3-0.1,42.5-0.2c7.4,9.3,9.7,19.6,4.4,30.5c-5,10.4-13.8,16-25.5,16.6
	C108.6,329.3,94.1,303.5,110.1,283z"/>
<path style="fill:#272E3D;" d="M182.2,536.2c13.1,0,26.3,0,39.4,0c-1.6,11.5-3.3,23-4.9,34.6c-0.4,2.9-2.3,3-4.6,3
	c-9.8-0.1-19.5-0.3-29.3,0.1c-4.4,0.2-4.7-1.7-4.3-5.1C179.8,557.9,181,547.1,182.2,536.2z M253.6,568.7c-0.4,3.4-0.1,5.3,4.3,5.1
	c9.7-0.4,19.5-0.2,29.2-0.1c2.3,0,4.2,0,4.6-3c1.6-11.5,3.3-23,5-34.6c-13.1,0-26.3,0-39.4,0C256.1,547.1,254.9,557.9,253.6,568.7z
	 M385,568.7c-0.4,3.4-0.1,5.3,4.3,5.2c9.7-0.4,19.5-0.2,29.3-0.1c2.3,0,4.2-0.1,4.6-3c1.6-11.5,3.3-23.1,4.9-34.6
	c-13.1,0-26.3,0-39.4,0C387.5,547.1,386.3,557.9,385,568.7z M460.1,568.7c-0.4,3.4-0.1,5.3,4.3,5.1c9.7-0.4,19.5-0.2,29.2-0.1
	c2.3,0,4.2,0,4.6-3c1.6-11.5,3.3-23,5-34.6c-13.1,0-26.3,0-39.4,0C462.5,547.1,461.4,557.9,460.1,568.7z M48.7,114.1
	c-1.2-3.1,0.2-7.8-3.2-9.2c-3-1.3-6.9-0.3-10.4-0.3c-0.8,0-1.6,0.1-2.3,0c-4.4-0.7-4.7,1.7-4.3,5.1c2.3,20.5,17.9,37.2,38.4,41
	c-1-6.6-2.9-13.5,4.8-17.8C60.9,130.3,52.9,124.7,48.7,114.1z M234.5,109.6c0.2-1.7,1.7-5.2-1.8-4.9c-5.6,0.5-11.7-2.8-16.7,2
	c-0.1,0.1,0,0.4-0.1,0.6c-2.2,14.3-10.8,22.3-24.6,25.5c4.6,2.8,6.7,6.8,5.8,12.2c-0.3,1.9-1.4,3.6-0.9,5.6
	C216.7,146.8,232.2,130.2,234.5,109.6z M111.7,198.3c11.5,0,10.4,1.4,10.4-7c-0.1-13.5,1.6-11.6-8-11.7c-10.7-0.1-10.7,0-10.7,9
	C103.5,199.6,102,198.3,111.7,198.3z M148,198.3c11.6,0.1,11.7,0,11.6-8.7c-0.1-11.1,1.4-9.9-7.4-10c-11.3-0.1-11.3,0-11.3,9
	C141,199.2,139.5,198.3,148,198.3z"/>
</svg>
