<?xml version="1.0" encoding="utf-8"?>
<!-- Generator: Adobe Illustrator 24.0.0, SVG Export Plug-In . SVG Version: 6.00 Build 0)  -->
<svg version="1.1" id="Layer_1" xmlns="http://www.w3.org/2000/svg" xmlns:xlink="http://www.w3.org/1999/xlink" x="0px" y="0px"
	 viewBox="0 0 576 467" style="enable-background:new 0 0 576 467;" xml:space="preserve">
<path style="fill:#7F99AB;" d="M402.7,97.5c38.2,1,70,28.8,77.6,65.2c0.7,3.4,0.1,8.2,2.1,10c2,1.9,6.7,0.6,10.1,1.2
	c12.5,1.9,21.5,9.5,28.1,19.6c7.2,11,10.3,23.5,11.4,36.5c0.3,3.7,0.1,7.6-4.9,7.8c-5,0.2-6-3.7-6.3-7.7c-0.7-7.9-2.6-15.5-5.6-22.7
	c-3.3-7.9-8-14.8-15.6-19.2c-2.1-1.2-4.4-2.2-6.7-2.8c-8.8-2.2-10.5-0.8-10.5,8.2c0,78.2-0.1,156.3,0.1,234.5c0,5.4-1.3,7.1-6.8,6.9
	c-11.4-0.4-22.9-0.2-34.3-0.1c-3.4,0.1-4.8-0.7-5.1-4.6c-1.6-19.3-3.6-38.6-5.3-57.9c-1.3-14.7-2.5-29.4-3.5-44.1
	c-0.3-4.6-1.9-9.1-2.2-13.9c-2.3,12.2-4.6,24.4-6.8,36.6c-3.6,19.6-7.1,39.2-10.6,58.8c-1.3,7.1-2.9,14.3-3.9,21.4
	c-0.4,3.1-1.8,3.6-4.4,3.6c-12.2-0.1-24.4-0.1-36.5,0c-3.6,0.1-4.5-1.5-4.2-4.7c1.3-14.7,2.4-29.4,3.8-44c0.9-10.2,2-20.4,3-30.6
	c1.1-11.5,2.1-23,3.2-34.5c0.1-1.3,0-2.6,0.2-3.9c0.7-4.5-0.8-6.2-5.7-6.1c-14.6,0.3-29.2,0.1-43.9,0.1c-18.9,0-37.9,0.1-56.8-0.1
	c-3.8,0-5.5,0.9-5.1,5c1.5,15,2.8,30.1,4.2,45.1c0.8,8.2,1.7,16.3,2.4,24.5c1.2,14.1,2.3,28.3,3.7,42.4c0.5,5.3-1.1,7.1-6.6,6.9
	c-11-0.4-22.1-0.2-33.2-0.1c-3.1,0-4.8-0.3-5.5-4.2c-5.3-30.8-11-61.6-16.6-92.4c-1.4-7.9-3-15.7-5.2-23.5c-0.9,9-1.7,18.1-2.6,27.1
	c-1.8,19.1-3.7,38.2-5.4,57.4c-0.9,10.2-1.9,20.4-2.4,30.7c-0.2,3.9-1.4,5.2-5.2,5c-8.8-0.3-17.6-0.2-26.4-0.2
	c-1.8-2-1.6-4.5-1.6-6.9c0-48.5-0.1-97.1,0-145.6c0-7.5,1.7-9,9.2-9.7c30.5-3.1,54.1-17.6,71-43c5.2-7.7,7.9-16.5,9.4-25.7
	c0.8-4.6-0.3-8.7-2.8-12.8c-16.3-25.8-32.6-51.7-48.5-77.7c-3.9-6.5-3.1-8.3,4.4-8.4c20.6-0.1,41.2-0.1,61.8,0
	c6.6,0,7.7,1.2,7.7,8.1c0.1,21.9,0,43.9,0.1,65.8c0,2.2-0.7,4.6,1.4,6.3c3.3,1.4,6.8,0.6,10.3,0.8c36.6-0.3,73.1-0.1,109.6-0.1
	c10.2,0,10.2,0,10.2-10.1c0.1-22.1-0.2-44.2,0.2-66.3C401.2,105.2,400,101.1,402.7,97.5z M145.6,226.2c0-37.5,0.1-74.9,0-112.4
	c0-6.7-1.2-7.8-7.9-7.9c-10.3-0.2-20.6-0.1-30.9,0c-31,0-55.3,23.6-55.5,54.5c-0.3,60.1-0.1,120.3-0.1,180.4
	c0,7.2,1.2,14.2,6.2,19.9c3.2,3.1,7.2,4.7,11.4,5.5c13.1,2.5,26.5,0.6,39.7,1.1c3.2,0.1,2.8-2.4,2.8-4.4c0-8.2-0.2-16.5,0.1-24.7
	c0.1-3.8-1.4-4.8-4.9-4.7c-7.9,0.2-15.7-0.1-23.6,0.2c-4.2,0.2-5.4-1.2-5.4-5.4c0.2-30.1,0.2-60.3,0-90.4c0-4.5,1.4-5.7,5.7-5.6
	c20.2,0.2,40.4,0.1,60.6,0.1C145.9,230.7,145.6,228.4,145.6,226.2z"/>
<path style="fill:#667B89;" d="M269,187.3c-2.1-1.5-1.2-3.8-1.2-5.7c-0.1-23-0.1-46.1,0-69.1c0-4.4-0.9-6.2-5.8-6.2
	c-21.2,0.3-42.3,0.1-63.5,0.1c-1.4,0-3.3-0.7-4.2,0.7c-1.1,1.6,0.9,2.7,1.6,3.8c16.9,27.3,34,54.5,51,81.7c4,6.3,1.4,12.7-0.3,18.9
	c-6.4,23.4-22,39.4-42.6,50.9c-12.2,6.8-25.1,11.4-39.4,11.5c-4.7,0-6.1,2.4-6.1,7.2c0.1,51.2,0.1,102.3,0,153.5
	c-14.4,0.6-14.4,0.6-14.4-13.9c0-49.4,0-98.7,0-148.1c0-2.2,0.2-4.5,0.2-6.7c3.1-2.4,7-0.8,10.3-1.9c26.3-4.1,48-16.1,64.5-37.3
	c6.6-8.4,10.5-18.1,12.8-28.5c1.4-6.3,0.3-12-3.3-17.6c-14.7-23.5-29.7-46.8-44-70.5c-1.5-2.9-3.7-5.4-5.1-8.4
	c-0.8-1.7-2.3-3.6,0.2-5.2c3.2-1.1,6.5-0.6,9.7-0.7c7.6-0.2,15.3-0.2,22.9,0c3.2-0.2,6.4-0.1,9.6,0c13.6-0.4,27.1-0.1,40.7-0.1
	c2.2,0,4.5,0,6.4,1.5c1.8,2.5,1.5,5.3,1.5,8.1c0,24.7,0,49.3,0,74C270.7,182.1,271,185,269,187.3z M144.3,232.3
	c3.5-1.7,2.7-5,2.7-7.8c0.1-39.8,0.1-79.7,0-119.5c0-2.6,0.2-5.3-1.8-7.4c-17.8,0-35.6-0.1-53.4-0.1c-0.9,0-1.9,0.1-2.8,0.2
	c-27.7,5.1-45.9,26.5-46,54.7c-0.2,60-0.1,119.9,0,179.9c0,11.6,4.4,21.5,14.4,28.3c-3.3-7.4-4.6-15.2-4.5-23.3
	c0.1-57.7,0.1-115.5,0-173.2c0-4.7,0.2-9.3,1.2-13.9c5.1-23.3,21.5-39.2,45.1-42.3c13.6-1.8,27.7-0.3,41.6-0.4c2.9,0,3.3,1.7,3.3,4
	c-0.1,40.3-0.1,80.6-0.2,120.9L144.3,232.3z"/>
<path style="fill:#FCD770;" d="M360.6,47.7c0-2.2,0.1-4.5-1.8-6.3c-1.9,1.2-0.9,3-0.9,4.5c-0.2,5.9-0.2,11.8-0.2,17.7
	c-48.3,0-96.7,0.1-145,0.1c-0.9,0.7-1.4,1.8-1.5,2.9c-0.5,9.2-0.6,18.5,0,27.7c0.1,1.1,0.7,2.1,1.5,2.9c3,0,5.9,0,8.9,0c0,0,0,0,0,0
	c15.7,0.1,31.4,0.2,47.2,0.2c2.4,2,5.3,1.8,8.1,1.8c24.7,0,49.5,0,74.2,0c2.8,0,5.7,0.3,8.1-1.6c1.5-1.9,1.5-4.2,1.5-6.4
	C360.7,76.8,360.7,62.2,360.6,47.7z"/>
<path style="fill:#F1786B;" d="M402.8,183.4c0,3.3-1.2,4.1-4.2,4.1c-39.5-0.1-79-0.2-118.5-0.2c-3.7,0-7.4,0.1-11.1,0.1
	c-0.1-29.9-0.1-59.9-0.2-89.8c30,0,60.1,0,90.1-0.1c2.8-2.3,6.1-1.6,9.3-1.6c6.1-0.3,12.1-0.1,18.2-0.1c2.2,0,4.4,0.1,6.2,1.7
	c3.4,0,6.8,0.1,10.2,0.1c0,3.7,0,7.4-0.1,11.2l0,0c0,0,0,0,0,0C402.7,133.6,402.7,158.5,402.8,183.4z"/>
<path style="fill:#050505;" d="M392.5,97.4c-8.2,0-16.5,0-24.7,0c0,0,0,0,0,0c-3,0-6,0-8.9,0c0-18.7,0-37.3,0-56
	c10.9,0,21.7,0,32.6,0c2.2,3.2,0.9,6.7,0.9,10.1C392.2,66.8,391.8,82.1,392.5,97.4z M211.5,41.4c-10.9,0-21.7,0-32.6,0
	c0,18.6,0,37.3,0,55.9c3.4,0,6.7-0.1,10.1-0.1c0,0,0,0,0,0c7.9,0,15.8,0,23.7,0c0-11.2,0-22.3,0-33.5c-1.5-3.4-0.1-6.8-0.3-10.3
	C212.1,49.5,213.8,45.3,211.5,41.4z M88.5,131.2c-6.3-0.1-11.1,5-11,11.5c0.1,6.2,5,11,11.1,10.9c6.1-0.1,10.8-5,10.7-11.3
	C99.3,136.1,94.6,131.2,88.5,131.2z"/>
<path style="fill:#667B88;" d="M233.3,199c-6.7,28.9-25.8,46.9-51.7,58.8c-8.3,3.8-17,6.7-26.3,7.2c-3.5,2-7.2,0.8-10.9,0.9
	c-0.1-11.2-0.1-22.4-0.2-33.6c1.5-2,0.8-4.3,0.8-6.5c0.1-42.8,0.1-85.5,0.1-128.3c9.5-0.1,19-0.3,28.5-0.1c3.6,0.1,4.3-1.1,4.3-4.4
	c-0.2-15.5-0.1-31,0-46.5c0-1.7-1-3.7,0.9-5.1c2,1.9,1.8,4.5,1.8,6.9c0.1,14.1,0.1,28.1,0,42.2c0,2.4,0,4.9-1.8,6.9
	c1.5,4.5,5.5,7.7,6.7,12.4c0,0,0,0,0,0c0,0,0,0,0,0c11.9,18.8,23.8,37.6,35.7,56.4c3,4.7,5.6,9.8,9,14.2
	C234.7,186.2,234.9,192.4,233.3,199z"/>
</svg>
