<?xml version="1.0" encoding="utf-8"?>
<!-- Generator: Adobe Illustrator 24.0.0, SVG Export Plug-In . SVG Version: 6.00 Build 0)  -->
<svg version="1.1" id="Layer_1" xmlns="http://www.w3.org/2000/svg" xmlns:xlink="http://www.w3.org/1999/xlink" x="0px" y="0px"
	 viewBox="0 0 562.5 685.9" style="enable-background:new 0 0 562.5 685.9;" xml:space="preserve">
<path style="fill:#B61C1C;" d="M376.9,437.3c30.7,6.3,60.3,15.3,87.4,31.5c18.5,11,30.1,26.2,33.1,48.2c3.3,24.1,7.9,47.9,12,71.9
	c-43.8,36.5-93.6,61.1-148.9,74.7c-66.8,16.5-133.4,14.5-199.4-4.8c-0.1-3.2,2.4-4.9,4.2-6.9c22-24.3,46.2-46.6,68.6-70.4
	c22.1-23.5,45.8-45.5,67.7-69.2c20.5-22.3,42.4-43.1,63.6-64.6C369,444,370.7,438,376.9,437.3z"/>
<path style="fill:#42A534;" d="M265.9,482.4c-15.4-18.4-33.4-34.2-50-51.3c-1.1-1.1-2.3-2-4-1.9c-15.3,2.4-30.6,4.3-45.8,7.3
	c-31.7,6.3-62.5,15.3-90.6,32.1c-17.9,10.7-30,25.2-33.1,46.6c-3.6,24.6-8.1,49-12.2,73.5c0.5,0.7,0.8,1.7,1.3,2.3
	c0.4,0.2,0.8,0.4,1.1,0.7c1.1,0.6,1.9,1.2,2.5,1.8c1.5,1.2,3,2.5,4.3,4c0.5,0.4,1,0.9,1.4,1.4c1,0.7,2,1.4,3,2.2
	c0.2,0.1,0.3,0.1,0.5,0.3c3.3,1.9,6.9,3.9,9.3,6.7c3.2,2.2,6.5,4.4,9.8,6.5c2.7,0.3,5.5,1.9,8.5,5.1l0,0c4.3,2.4,8.6,4.7,13.1,6.8
	c10.5,4,21.2,6.9,29.8,14.5c1.5,0.9,3,1.8,4.5,3c8.2-4.4,12.6-12.8,19-19c40.2-39.2,78-80.6,118.2-119.8c0.7-0.7,1.6-1.4,2.1-2.2
	c3.4-5,8.7-8.5,10.7-14.6C269.1,485.8,267.4,484.2,265.9,482.4z"/>
<path style="fill:#ECC82F;" d="M118.9,643.9c4.6-7.4,11.3-13,17.2-19.1c44.2-45.6,88.7-90.9,133-136.4c5.4-8,12.6-14.4,18.9-21.5
	c10.5-11.6,22-22.2,33-33.4c3.3-3.4,6.7-5.2,11.4-3.7c15,1.5,29.9,3.5,44.4,7.4c-39,40-78,79.9-117,119.9
	c-32.9,33.8-65.8,67.7-98.7,101.6C146.6,655.4,133,649,118.9,643.9z"/>
<path style="fill:#FFB74D;" d="M215,361.6c-7.7-8.1-15.4-16.1-23.1-24.2c-13.7-13.7-21.3-31-28.3-48.6c-2.6-6.6-4.6-13.4-11.5-17
	c-6.6-4.3-9.1-11.2-11.1-18.3c-3.8-13.3-6.2-26.9-6.8-40.8c-0.3-8.4,1.8-15.9,8.1-21.9c8.2-4.3,9.3,3.8,13.5,7.8
	c1.7-3.4,0-7.9,3.2-10.5c3.1-2.4,6.9-3.2,10.4-4.5c18.8-7,33.5-20,47.5-33.7c15.2-15,31.3-28.9,46.8-43.6c4.6-4.4,8.4-3.6,12.5,0.3
	c14.7,14,30.4,26.9,44.6,41.4c16.5,16.8,34.5,31.6,57.7,38.3c6.9,2,4.7,7.3,5.1,12.5c4.9-3.1,5.6-12.7,13.9-8.1
	c6.3,5.7,8.4,12.8,8.2,21.1c-0.4,15.5-2.9,30.6-7.8,45.3c-2,6-4.2,12-10.5,15.2c-6.7,3.7-8.9,10.2-11.4,16.9
	c-5.7,15.2-12.8,29.8-22.9,42.6c-1.6,2-3,4.1-5.4,5.3c-7.7,8.2-15.3,16.4-23,24.5C288.1,394.1,251.2,394.1,215,361.6z"/>
<path style="fill:#261D17;" d="M397.5,190.7c-6.7-1-8.6,4-10.8,8.6c-0.7,1.5-1,3.9-3.4,3.3c-2.1-0.5-2.4-2.9-1.9-4.4
	c2.9-8.4-2.6-10-8.8-11.9c-18.1-5.7-32.7-17.2-46.1-30.2c-16.9-16.5-34.6-32.1-51.9-48.3c-3.8-3.5-6-3.7-9.9,0
	c-19.2,18.2-38.8,35.9-58.1,53.9c-12.4,11.6-26.4,20.6-42.7,25.7c-4.2,1.3-6.7,2.9-5.9,7.8c0.4,2.5,1.8,6.4-1.8,7.2
	c-3.2,0.7-3.1-3.3-4.2-5.4c-2.1-4.1-4.7-7.3-10-6.3c0.9-37.6,2-75.1,14.5-111.1c12.7-36.5,37.4-58.9,76-65.2
	c28.6-4.7,57.2-4.8,85.3,2.4c37,9.4,57.2,35.6,67.6,70.7c6.8,23,9.4,46.7,10.8,70.5C397.1,168.9,397.2,179.8,397.5,190.7z"/>
<path style="fill:#ECE5E0;" d="M201.1,216.6c1.1-2.2,3.5-1.7,5.3-2.3c3.7-1.4,7-2.5,5.6,4.3c-1.2,5.7,3,9.1,8.3,9.6
	c5.2,0.5,9.5-2.8,9.4-7.8c-0.2-8.9,4.1-4.9,7.5-3.2c2.9,1.5,5.4,3.6,8.1,5.4c1.5,2.2-0.2,3.3-1.5,4.5c-13.5,7.9-30.4,6.5-39.3-3.3
	C202.8,221.7,200.9,219.7,201.1,216.6z"/>
<path style="fill:#F0E9E4;" d="M294.3,222.7c2.3-1.6,4.4-3.4,6.9-4.7c3.8-2,8.6-7.4,9,3.1c0.2,5,5.1,8.1,10.9,6.7
	c5.9-1.4,7.8-6.2,5.7-14.7c4.2,1.6,10.9-2.6,10.6,6.3c-5,9.9-17.4,14.8-30.4,11.8c-3.9-0.9-7.9-1.7-11.2-4.3
	C294.8,225.8,293.2,224.7,294.3,222.7z"/>
<path style="fill:#B61C1C;" d="M301.9,318.8c3,3.4-0.7,4.4-2.4,5.6c-17.6,13.2-41.8,13.2-59.4,0c-1.7-1.3-5.3-2.3-2.4-5.7
	c7.2-5.1,15.6-5.6,23.9-4.9c5.6,0.5,11,0.6,16.5,0C286.5,312.9,294.7,313.7,301.9,318.8z M297.1,313.1c-6.1-7.8-13.4-10.2-22.6-5.8
	c-4.3,2-8.4,0.2-12.5-0.8c-10.4-2.4-19.2,1.9-24.2,12.2c21.4-3.7,42.8-4.3,64.2,0.1C300.3,316.9,298.6,315.1,297.1,313.1z
	 M269.7,176.7c-4,0-6.1,2-6.2,6.1c-0.1,4.4,2,6.6,6.5,6.5c4,0,6.1-2,6.1-6.1C276.3,178.8,274.2,176.6,269.7,176.7z"/>
<path style="fill:#261D17;" d="M152,271.8c6.4,0.3,9.2,4.1,11,10c6.2,20.2,17,38.2,28.8,55.6c-16.4-10.2-25.9-25.9-33.1-43.2
	C155.8,287,152.9,279.7,152,271.8z M347.7,337.1c12.6-17.3,23-35.9,29.3-56.3c1.8-5.7,4.7-8.4,10.4-8.4c-5.1,24.6-15.7,46-35.2,62.4
	C351,335.8,349.8,337.3,347.7,337.1z M294.3,222.7c5.1-12.6,15-18.4,29.5-16.9c8.1,0.9,15.2,4.5,22.6,8.3c-1.9,3.6-6.9,1.6-8,5.4
	c-0.6,0.5-1.3,0.4-1.8-0.1c-5.5-4.9-5.5-4.9-7.3,1.8c-1.2,4.5-3.8,7.9-8.5,8.6c-4.6,0.7-9.4-1.2-10.9-5.3c-2.8-7.6-6.3-7-11.4-2.8
	C297.3,222.7,295.9,223.5,294.3,222.7z M199.5,216.7c-1.8-0.4-4.7,0.9-5.3-1.6c-0.7-2.8,2.4-2.6,4-3.3c7.5-3.6,15.2-6.7,23.8-6.1
	c11.4,0.7,19.4,6.1,23.5,16.9c-1,0.6-2,0.5-2.8-0.1c-5.4-4.1-9.9-6.5-13.2,2.6c-1.3,3.7-6,5.3-10.4,4.5c-4.1-0.7-7.7-3-8-7.1
	c-0.5-7.5-4.6-6.9-9.6-5.1C200.8,217.4,200.1,217.1,199.5,216.7z M353.1,199.3c-2.5,1.1-4.6-0.5-6.4-1.5c-13.4-7.7-27-6.7-40.9-1.7
	c-4,1.5-10.1,5.9-12.4-0.7c-2.6-7.7,5.5-7.7,10-9.2c17.5-5.8,33.4-2.7,47.2,9.6C351.7,196.7,353.1,197.5,353.1,199.3z M185.8,199.7
	c16.8-18.9,37.6-19.5,57-11.6c3.1,1.2,5.3,3.3,3.9,7.1c-1.4,3.7-4.4,3.6-7.6,2.6c-4.8-1.5-9.6-3.3-14.5-4.5
	c-9.3-2.3-18.5-2.2-27.3,2.4C193.9,197.3,190.6,199.1,185.8,199.7z M201.1,216.6c7.2,12.3,16.6,16.3,31.9,13.3
	c3.7-0.7,7.3-1.8,10.9-2.7c0.1,0.5,0.3,1.2,0.2,1.4c-14,11.3-37.9,4.9-44.6-11.8C200,216.6,200.6,216.6,201.1,216.6z M295.8,227.1
	c6.2,1.2,12.2,3.3,18.6,3.4c9.6,0.1,17.5-2.7,22.9-10.9c0.3,0,0.7-0.1,1.1-0.1c0.5,3-1.7,4.6-3.4,6.4
	C325.9,235.6,304.1,236.2,295.8,227.1z"/>
<path style="fill:#FB8C00;" d="M215,361.6c9.6,5.5,18.6,11.8,28.5,16.6c23.9,11.4,45.6,4.9,66.8-7.3c5-2.9,9-7.3,14.5-9.2
	c-1.2,8.4-2.3,16.9-3.6,25.3c-1.9,12.5,0.4,24.5,3.9,36.4c1.2,4,4.3,5.2,7.5,6.5c-4.2-0.4-7.1,1.8-9.8,4.7
	c-15.6,16.3-31.4,32.4-47.2,48.6c-1.9,2-3.6,4.4-6.4,5.3c-18.3-20.6-38.3-39.5-57.3-59.3c8.6-17.1,8.6-35.1,5.6-53.4
	C216.7,371,215.8,366.3,215,361.6z M282.9,221.2c-5.3,12.1-5,24.2-0.1,36.5C280.8,245.7,282.2,233.5,282.9,221.2z"/>
</svg>
