<?xml version="1.0" encoding="utf-8"?>
<!-- Generator: Adobe Illustrator 24.0.0, SVG Export Plug-In . SVG Version: 6.00 Build 0)  -->
<svg version="1.1" id="Layer_1" xmlns="http://www.w3.org/2000/svg" xmlns:xlink="http://www.w3.org/1999/xlink" x="0px" y="0px"
	 viewBox="0 0 612 612" style="enable-background:new 0 0 612 612;" xml:space="preserve">
<path style="fill:#0E7E24;" d="M315.1,593.8c0,3.4-1.2,4.4-4.4,4.2c-3.1-0.2-6.3-0.2-9.5,0c-3.1,0.2-4.4-0.7-4.4-4.1
	c0.2-25.6,0.1-51.2,0.2-76.9c0,0,0,0,0,0c0,0,0,0,0,0c0-9.3,0.1-18.6-0.2-27.9c-0.1-3.4,1.2-4.5,4.3-4.2c1.5,0.2,3,0.1,4.5,0.1
	c9.3,0,9.3,0,9.3,9.5c0,7.8,0,15.6-0.1,23.4C315,543.3,315,568.5,315.1,593.8z"/>
<path style="fill:#D63562;" d="M249.8,424c-20,15.9-42.9,25.5-67.8,30.3c-14.4,2.8-28.9,4.9-43.7,4.4c-3.3-0.1-4.6-1.2-4.5-4.5
	c0.6-28.1,4.7-55.6,16.8-81.3c-0.8-1.4-0.2-2.7,0.4-3.9c10.9-23.7,27.9-41.5,51.2-53.3c1.2-0.6,2.5-1.1,4-1.2c7,1.2,12.4,6,18.9,8.5
	c12.1,4.7,24.5,7.9,37.5,9.5c-12.7-8.6-22.5-19.8-30.6-32.5c-12.5-19.6-18.7-41.4-22-64.2c-4.7-32.1,4.7-61.2,18.3-89.5
	c8.4-16.4,16.4-33,26.8-48.4c1.3-2,2.1-4.3,4.4-5.4c7.9-11.1,15.7-22.2,23.7-33.2c6-8.3,12.3-16.5,18.4-24.7c3.7-5,4.9-4.9,8.7,0
	c13.9,17.8,27.3,35.9,39.4,54.8c0.8,1.2,1.3,2.4,2.7,3c5.5,4.9,8.1,11.7,11.9,17.7c7.3,11.6,13.6,23.8,19.4,36.2
	c6.2,12.5,11.1,25.5,14.9,38.9c7.1,24.4,5.2,48.8-0.9,73c-5.4,21.5-15.1,40.9-29.9,57.6c-5.5,6.3-12.3,11-19.4,17.2
	c16.6-2.6,31.7-6.2,45.8-13.7c3.7-1.9,7.2-4.3,11.4-5c5.8,0.6,10.1,4.4,14.7,7.4c17.5,11.5,31,26.5,39.8,45.6
	c0.8,1.7,2.2,3.4,1.2,5.6c9.4,19.7,14,40.6,15.6,62.3c0.4,6.1,1.3,12.2,1.2,18.3c0,3.8-1.1,5.2-5.1,5.1c-20.5-0.3-40.6-3-60.4-8.8
	c-18.5-5.4-35.3-14.2-50.5-25.9c-1.8-1.7-1.7-4-1.4-6.1c3.2-24-3-46.1-13.3-67.4c-6-12.4-6.3-12.4-19.4-8.1
	c-17.1,5.6-33.7,4.2-50.2-2.2c-6.4-2.5-6.6-2.4-9.7,3.4c-11.4,21-18.2,43.1-17.9,67.2C250.3,415.2,253.1,419.7,249.8,424z"/>
<path style="fill:#FD709C;" d="M249.8,424c0.2-5.9-1.4-11.7-1.3-17.7c0.3-24.6,8.7-46.8,20.3-68c1.6-2.9,3.4-2.6,5.9-1.4
	c10.3,4.9,21.2,7.4,32.7,7.3c10.2-0.1,19.6-2.7,28.6-6.9c4-1.9,5.8-1.1,7.9,2.6c10.1,18,16.7,37,19.2,57.5
	c1.1,8.9-0.7,17.7-1.1,26.6c-3.3,16.4-9.1,31.9-17.3,46.5c-7.5,13.3-15.9,25.9-26.4,37.1c-3.2,3.5-6.4,7.1-9.5,10.6
	c-1.7,2-2.7,2.2-5,0c-15.4-14.9-28.4-31.5-38.2-50.4c-6.7-13-12.8-26.3-14.7-41C250.8,425.8,250.2,425,249.8,424z M416.6,309.3
	c18-14,30.8-31.9,40.3-52.4c9.2-20.2,14.9-41.4,18.8-63.1c0.4-2,0.5-3.9-0.1-5.9c0.1-2.2-0.1-4.4,0.2-6.5
	c4.1-24.9,4.8-49.9,4.7-75.1c0-4.7-1.2-5-5.4-3.7c-15.1,4.9-29.7,11-44.2,17.4c-1.9,0.8-3.8,2.7-5.5-0.3
	c-6.9,4.9-14.7,8.4-22.1,12.6c-7.3,4.2-15.6,6.9-21,13.8c2.1,4.9,4.1,9.8,6.2,14.8c6.5,15.6,11.8,31.6,12.8,48.5
	c1.3,23.8-2.7,47-12,69C382,295.9,372,311.7,357,324c-4,3.3-8.8,5.7-12.7,10.7c12-0.3,22.3-3.6,32.8-6.4
	c10.5-2.8,19.2-9.3,29.3-12.9C410,313.7,413.4,311.8,416.6,309.3z M218.9,138.1c-10.6-6.6-22.3-11-32.5-18.3
	c-1.4,2.6-3.1,1.3-4.9,0.5c-10.4-4.4-20.8-8.8-31.3-12.9c-5.9-2.3-12.1-4.1-18.7-6.3c0.6,16.5-0.3,31.9,0.9,47.4
	c1.1,13.2,3.5,26.2,3.9,39.4c-0.5,1.8-0.5,3.5-0.1,5.3c4.2,21.8,9.6,43.3,19.1,63.5c3.9,9.8,9.4,18.8,15.7,27.1
	c9.5,12.7,20.1,24.4,34.7,31.7c1.8,0.7,3.8,1.2,5.5,2.2c12.7,7.6,26.7,12.1,41.1,15c4.8,1,9.6,2.9,15,1.4c-1.4-2.8-3.8-3.7-5.7-4.9
	c-9.8-6.4-17.3-15-24.1-24.3c-11.6-15.9-18.7-33.9-22.9-53c-4.5-21.1-6-42.2-0.4-63.3c3.9-14.6,9.5-28.5,15.5-42.3
	C227.2,142,222.7,140.4,218.9,138.1z"/>
<path style="fill:#AE234E;" d="M406.5,315.5c1.9-4.1,6.5-5.1,9.7-7.6c17.3-13.7,29.8-31,39.1-50.8c20.9-1.3,40.2,4.3,58.8,13
	c1.7,0.8,2.8,2.1,3.7,3.7c19.7,9.9,37.1,22.9,52.6,38.7c2.4,2.4,2.3,3.9-0.1,6.3c-25.6,25.4-54.8,44.5-90.7,52.1
	c-6,1.3-12.2,1.9-18.3,2.1C450,347.1,431.8,327.8,406.5,315.5z M154.4,256.6c-20-0.4-38.6,5-56.6,13.5c-1.7,0.8-2.7,2.2-3.8,3.7
	c-19.1,9.8-36,22.4-51.3,37.4c-3.7,3.6-3.3,5.6,0.2,8.9c6.9,6.6,13.9,13,21.6,18.7c25.7,19,53.5,32.6,86.1,34.1
	c11.4-25.7,29.5-45.1,54.9-57.4c-1.5-3.7-5.6-4.3-8.3-6.4c-17.7-14.1-31-31.6-40.5-52C156,256.9,155.2,256.7,154.4,256.6z"/>
</svg>
