<?xml version="1.0" encoding="utf-8"?>
<!-- Generator: Adobe Illustrator 24.0.0, SVG Export Plug-In . SVG Version: 6.00 Build 0)  -->
<svg version="1.1" id="Layer_1" xmlns="http://www.w3.org/2000/svg" xmlns:xlink="http://www.w3.org/1999/xlink" x="0px" y="0px"
	 viewBox="0 0 612 792" style="enable-background:new 0 0 612 792;" xml:space="preserve">
<path style="fill:#729BE7;" d="M405.4,390.6c-19.7-3.6-20.1,13.3-26.6,23.7c-0.7-4.8-0.6-10.4-0.1-16.1c2.8-33.9,1.8-67.8,0.9-101.7
	c-0.5-18.1-5.5-37.5-23.2-44.3c-31.1-12-64-9.4-96.2-2c-0.5,0.1-0.9,0.5-1.3,1c-0.1-0.1-0.1-0.2-0.2-0.3c-3.1-3-7.3-3.3-11.1-4.5
	c-20.9-1.8-41.8-0.9-62.7-0.6c-27.3,0.5-42.5,13.6-48.2,40.8c-2,9.5-2.3,19.2-0.9,28.7c5,33.8,1.5,67.7,2.9,103.1
	c-10.7-24.9-13-27.1-27.8-27.2c-17.5,2.7-21.8,9.5-17.4,25.9c2.4,9.1,9,15.1,14.1,22.2c-0.4,12.6,7.5,22.4,11.6,33.4
	c3.6,9.8,10.7,16,22.1,15.1c4-0.3,8.7-0.9,10,4.1c3.6,13.6,11.8,26.3,10.4,40.9c-2.3,24.2-3.6,48.7-12.5,71.9
	c-2.8,7.3-5.7,15.1-0.2,22.7c4.8,5.2,11.3,7.3,18,8.5c30.4,5.3,61,9.3,92,7.3c17.1-0.3,35.2,7.1,50.4-6.8c-0.3-0.6-0.7-1.2-1-1.8
	c0.3,0,0.6,0,1,0c17.1,8.4,46.4,2.7,59.1-11.6c1.6-7.7-2.5-14.4-4-21.5c-7.6-34.1-19.2-67.9-2.3-102.8c3.2-6.7,4.6-12,13.8-11.1
	c9.7,1,16-5.2,19.6-13.5c4.9-11.4,11.2-22.3,13-34.9c5.4-6.5,10.5-13.1,13-21.3C426.6,401.5,422.6,394.6,405.4,390.6z M270.8,339.3
	c0.9-1.9,1.8-3.9,2.2-6.1c10.6,3.7,22.7-1.1,33.1,4.6C294.3,338.8,282.4,337.1,270.8,339.3z M257.4,273.1c0.6,0.1,1.1,0.3,1.6,0.5
	c-0.7,0.2-1.4,0.4-2.1,0.7C257,273.9,257.2,273.5,257.4,273.1z M202.6,336.4c15-6.3,32,2.2,45.9-8.8c1.1-2.4,1.1-4.8,0-7.1
	c-14.7-7.6-31.4,1.1-47.7-5.6c8-2.9,14.8-1.4,21.4-2c9.2-0.8,19.4,2.1,26.7-6.4c0.9-2.5,0.8-4.9-0.5-7.2
	c-13.7-10.8-31.2-1.9-47.9-8.5c18.6-4.2,35.9,2,51.9-5.2c0.9-0.5,1.5-1.2,2-2c-2,11.8-1.9,23.8-1.9,35.9c0,5.9,2.1,12.5-3.1,17.7
	C233.7,338.7,218.1,338,202.6,336.4z M248.8,506c5.8-0.6,14,2.5,19.7-4.8c1.9,6.2,11.9,3.1,13.2,10C271.6,501.1,258.6,509,248.8,506
	z M276.5,319.9c0.4-3.1,0.5-6.2,0.2-9.3c9.9,4.8,21.9,0.2,32.7,4.4C298.7,320.1,286.5,315,276.5,319.9z M275.2,296.8
	c-0.6-2.4-1.4-4.8-2.3-7.2c12,0.2,24.2-2,37.6,1.2C298.6,296.7,285.4,290.6,275.2,296.8z"/>
<path style="fill:#4E2916;" d="M403.7,232.4c-0.1-5.2-2.4-11-7-14.9c-4.8-3.6-9.8-1.7-14.5-0.1c-35.9,12.6-63.6-0.7-87.4-27
	l-0.1-0.1c0.3,0.3,0.6,0.7,1,1c17.5,18.3,51.9,25,73.8,14.3c5.2-2.5,10.2-5.3,11-11.9c-6.4-10-16.3-15.6-26.9-19.3
	c-13.4-4.7-25-10.8-31.1-24.5l0,0c0.1-7.9,0.1-15.8,0.2-23.8c0.1-32-7-42.7-36.2-53.2c-9.2-3.3-19-1.5-28.6-1.6l0,0
	c-8,0.1-15.9,0.2-23.9,0.4c-39.3,15.8-41,18.3-41,61.6c0,5.6,0,11.2,0.1,16.8l0,0c-6.8,14.7-21.3,18.8-34,26.3
	c-29.6,17.4-50.5,41.2-48.5,79.3c1.1,20.8-0.5,41.8-1.7,62.8c-1.3,24.1-4.4,48.6,2.1,72.6c11.8,4.7,16.9,14.4,19.5,25.9
	c1.8,7.9,3.7,15.6,13.5,23.3c0-16.4,0.1-29.3,0-42.2c-0.4-35.2-1.9-70.4-0.9-105.5c0.8-28,15.9-40.7,43.4-40.8
	c20.4-0.1,40.9-0.3,61.3-0.4l0,0c3.4,0.4,6.8,0.8,10.2,1.2c25.4-0.3,50.9-0.8,76.3-0.7c19.7,0.1,30,8.1,36,27
	c3.3,10.4,3.1,21.2,3,31.9c-0.5,32.2-1,64.4-1.4,96.7c-0.1,10.3,0,20.5,0,34.6c9.8-10.1,11.6-18.2,13.7-26.3
	c2.9-11.2,7.5-21.4,20-25.2C411.1,337.8,404.9,285.1,403.7,232.4z M321.1,150.8c-1.9,1.9-2.3,5.2-5.2,6.3
	C316.2,153.6,318.8,152.3,321.1,150.8z M197.5,164.7c-0.9-5.1-0.6-9.7-3.2-13.2C197.6,154.8,199,158.8,197.5,164.7z M257.4,176.4
	c0-0.5,0-1,0-1.6C257.5,175.3,257.5,175.9,257.4,176.4z M288.5,171.6c-0.7,6.3,0.8,11.4,3.8,15.8C289,183,286.4,178.4,288.5,171.6z"
	/>
<path style="fill:#4E2916;" d="M468.2,593.2c-12.3,29-33.8,49.3-60.7,64.7c-3.2,2.9-7.4,2.3-8.9-0.6c-7.8-15-23.1-23.1-32.9-36.2
	c-20-47.7-27.1-95.7-2.7-143.6c18.8,11.6,21.5,10.5,29.8-12.5c3.5-9.5,6.6-19.4,15.6-25.6c5,16.7,8.3,33.7,9.2,51.2
	c1.3,24.1,9.2,44.7,33.2,57.9c-10.4,3.5-11,7.2-3.9,14.7C455.2,572,461.2,583.1,468.2,593.2z"/>
<path style="fill:#4E2917;" d="M421.2,685.9c22.3-15.6,40.7-35.3,57.2-56.8c5,14.5,6.4,30.6,17.7,42.5c2.9,3,5.2,8.7-0.8,8.4
	c-14.8-0.8-8.2,6.9-5.5,12.2c5.4,10.9,11.1,21.8,17.7,32c4.2,6.4,3,8.7-3.9,9.6c-16.4-3.2-29.3-13.3-42.9-22.2
	c-5.1-3.3-9.1-8.5-15.6-9.4c-5.5-1.1-9.3-6.7-15.5-6.1c-3.2-0.3-6.2-1.2-8.5-3.6C419.6,690.3,419.3,688.1,421.2,685.9z"/>
<path style="fill:#F9F281;" d="M514,368.4c-8.3,4.3-18.2,5.5-24.5,13.4c-4.4,5.5-8.5,3.4-12.5-0.7c-7.9-8.3-18.1-10.2-29-9.9
	c-2.3-4.3-0.5-7.2,2.6-10.4c15.4-15.7,45.7-17.1,64.2-4.8C524.6,362.5,517.3,364.5,514,368.4z"/>
<path style="fill:#2E2E2E;" d="M536.8,399.2c-0.8,23.3-10.2,44-21.3,63.9c-3.9,7.1-6.9,13.8-6,22.4c5,51.1-3.7,99.4-31,143.6
	c-10.8,27.5-28.8,47.8-57.1,57.8c0.1,1.3,0.1,2.6,0.2,3.9c-0.3,1.8-1.1,3.5-2.2,4.9c-16.4,21.4-39.5,31.8-64.4,38.9
	c-31.6,9-63.5,17.3-96.9,12c-1.2-0.6-2.1-1.4-2.9-2.4c-4.4,4-10.3,4.7-16.1,5c-51.4,2.5-99-8.9-142.1-37.7
	c-6.6-6.1-15.1-10.7-16.6-20.9c1.1-12.4,7.4-20.9,18.7-26.1c15.7-7.3,19.6-27.7,36.9-33.5c4.7-1.6,8.8-5,13.1-7.6
	c35.1,12.6,72,12.3,108.5,14.2l0,0c17.2-1.7,34.8,2.5,51.8-3.1c19.5-1.8,39.2-2.6,56.4-13.6c14.6,6,28.4,12.7,33.4,29.7
	c1,3.3,3.2,5.7,6.5,6.7c1.3-3.2,3.6-5.7,6.3-7.6c19.4-13.7,35.7-30.5,48.4-50.6c1.9-3,4.8-4.7,7.9-6c17.1-42.4,16.6-83.4-9.6-122.5
	c-12.9-19.3-24.5-39.2-27.8-63c-2.2-16.2,1.3-29.1,17.2-36.5c6.9-6.8,14.8-5,21.7-1.2c9.3,5.1,17.8,6.2,26.5-0.1
	c5.7-4.1,11.9,0.2,17.7-1.5C532.9,370.3,537.4,383.1,536.8,399.2z"/>
<path style="fill:#F9F281;" d="M396.6,217.5C349.4,237.2,316.5,229,291,191c-0.5-3.3,1-4.6,4.2-3.9c27.7,20.9,56.8,23.2,85.1,6.7
	c27.9-16,36.3-33,38.6-78C441.7,146.9,432.9,186.8,396.6,217.5z M246.9,328.2c-15.9,0.2-31.8,0.3-47.7,0.5
	c-6.1,0.1-12.1,1.3-11.5,9.1c0.5,6.6,6.2,7.4,11.5,7.3c18.1-0.5,36.3,1.6,54.4-1.3C254.4,337.3,256.4,330.3,246.9,328.2z
	 M250.9,282.8c-15.7-0.1-31.5-0.3-47.2,0c-6.2,0.1-15.6-2.7-15.6,7.5c0,10.6,9.5,8.9,16.6,8.9c14.1,0.1,28.1,0,42.2,0
	C254.5,295.3,255.8,289.8,250.9,282.8z M246.4,307c-15.9-0.3-31.7-0.7-47.6-1c-5.3-0.1-10.9,0.6-11,7.5c-0.1,6.2,4.3,9.2,10.2,9
	c16.3-0.7,32.9,2.6,49-2C251.4,315.8,251.7,311.3,246.4,307z M271.5,299.8c12.9-0.1,25.8-0.3,38.7-0.4c6.1,0,11.9-1,12.3-8.3
	c0.4-7.9-5.9-8.3-11.8-8.3c-11.2,0-22.4,0.1-33.7,0c-4.8,0-9.1,0.5-9.5,6.6C268.8,292.8,270.2,296.3,271.5,299.8z M272,323
	c13.4-0.1,26.9-0.1,40.3-0.3c5.6-0.1,10.2-2.2,10.2-8.6c0-7-5.4-7.7-10.6-7.7c-13.4,0.1-26.8,0.5-40.3,0.7
	C271.8,312.4,271.9,317.7,272,323z M264.4,341c16.6,8.2,34.1,2.3,51.2,3.2c4.4,0.2,7.3-3.2,6.8-7.9c-0.5-5-4.4-6.3-8.6-6.3
	c-15.2-0.1-30.5-3.8-45.6,0.9C266.9,334.3,265.6,337.7,264.4,341z M193,150c-0.5,2.8-0.7,5.6-1.5,8.3c-2.1,7-2,13.6,4.2,18.4
	c2.5,1.9,5.4,0.1,7.1-2.5c4.6-7.1,3.4-14.3-0.8-20.7c-1.4-2.2-5.9-2.3-9.1-3.3L193,150z M225.5,160.8c-8.1,0.1-8.4,7.8-8,13.8
	c0.3,4.7,1.2,11.5,7.5,11.1c6.9-0.5,6.7-7.7,7.5-13C230.8,168,231.8,160.7,225.5,160.8z M254.1,187.8c8.8-0.5,10.3-6.3,10.4-13.6
	c0.1-7.4-2.8-11.4-10.5-11.2C249.1,171.3,249.1,179.6,254.1,187.8z M294.9,167.5c-0.7-4.6-0.8-9.8-7.1-9.6c-5,0.2-5.7,4.7-6.2,8.7
	c-1.1,9.7,2.4,17.7,9.4,24.3c0.7-2.1,1.6-3.9,4.2-3.9C289.8,180.6,295.8,174,294.9,167.5z M322.4,150c-8.7-5.4-12.6-1.2-13.3,7.3
	c-0.5,6.1-0.3,14.4,7.4,14.5c7.2,0.1,6-8,6.3-13.4C322.9,155.6,322.5,152.8,322.4,150L322.4,150z"/>
<path style="fill:#050505;" d="M164.3,368.7c24.4-8,46.5-2.9,67.1,10.7c2.4,1.6,4.7,3.7,3.5,6.8c-0.9,2.3-4,3-5.8,1.7
	C209.8,373.6,187,371.7,164.3,368.7z M246.9,328.2c2.3,5.2,4.5,10.4,6.8,15.6c6,0.7,4.2-3.9,4.2-6.7c-0.1-21.4-0.4-42.7-0.6-64.1
	v0.1c-2.1,3.2-4.3,6.5-6.4,9.7c-1.4,5.5-2.7,10.9-4.1,16.4c-0.1,2.6-0.2,5.2-0.3,7.9c0.2,4.5,0.4,9,0.5,13.5
	C247,323.1,247,325.6,246.9,328.2z M226.4,512.1c21.1,0,38.3,0,55.5,0c3.6-1.5,9.4-3.1,2.6-7.2c-4.6-2.8-10.7-3.2-16.2-4.6
	C255.8,503.8,240.4,495.1,226.4,512.1z M277.4,380.5c-1.8,1.9-2.8,3.8-1.2,5.7c2.2,2.5,5.2,1.8,7.8,0.5
	c20.3-10.4,41.8-15.8,64.8-16.3C333.6,361.5,288.2,369.1,277.4,380.5z"/>
<path style="fill:#2D55D9;" d="M333.4,404.9c-13.9,9.5-28.6,14.7-49.3,5.3C303.4,409.2,319,411.7,333.4,404.9z M173.7,407.2
	c20.7,9.4,35.4,4.3,49.3-5.3C208.7,408.7,193.1,406.2,173.7,407.2z"/>
</svg>
