<?xml version="1.0" encoding="utf-8"?>
<!-- Generator: Adobe Illustrator 24.0.0, SVG Export Plug-In . SVG Version: 6.00 Build 0)  -->
<svg version="1.1" id="Layer_1" xmlns="http://www.w3.org/2000/svg" xmlns:xlink="http://www.w3.org/1999/xlink" x="0px" y="0px"
	 viewBox="0 0 570 544" style="enable-background:new 0 0 570 544;" xml:space="preserve">
<path style="fill:#E6D214;" d="M313.9,285.2c7.6,14.2,14.6,28.5,18.8,44.1c22.8,85.2-32.8,174.3-119.2,190.6
	c-84.6,16-164.2-37.2-181.8-121.6C14.1,314,73.6,229.1,159,216.5c40-5.9,76.9,2.1,110.7,24.3c0.9,0.6,1.8,1,2.8,1.5
	c1.7,0.2,3.3,0.8,4.6,1.9c13.7,11.1,26.3,23.1,35.9,38.1C313.4,283.2,313.7,284.2,313.9,285.2z"/>
<path style="fill:#E6D214;" d="M435.4,149.3c-9.3-9.3-18.7-18.6-28-28c-6-9.8-5.4-14.7,2.8-23C428,80.6,445.8,62.8,463.6,45
	c8.6-8.6,16.1-8.7,24.6-0.2c8,7.9,15.9,15.8,23.8,23.8c8.5,8.5,8.6,16.2,0.2,24.6c-17.9,18-35.9,35.9-53.8,53.9
	C450.5,154.9,445,155.4,435.4,149.3z"/>
<path style="fill:#B5351B;" d="M313.9,285.2c-6.7-7.6-12-16.2-19.3-23.3c-7.1-6.9-14.5-13.5-22.2-19.7c45-40.3,90-80.6,135-120.9
	c11.4,7.3,20.6,16.6,28,28c-24,26.9-48,53.9-72.1,80.8C346.9,248.5,330.4,266.8,313.9,285.2z M452.6,40.6c0.3-8.4-7-15.8-15.7-15.8
	c-8.3,0-15.4,7-15.4,15.3c0,8.6,6.6,15.2,15.3,15.3C445.4,55.5,452.3,49,452.6,40.6z M420.4,72.6c0.3-8.5-6.9-16-15.5-16
	c-8.2,0-15.4,7.1-15.5,15.4c-0.1,8.4,6.7,15.3,15.2,15.5C413.2,87.6,420.2,81,420.4,72.6z M500.2,152.2c0.1-8.7-6.4-15.5-14.9-15.6
	c-8.6-0.1-15.9,7.1-15.8,15.6c0.1,8.3,7.1,15.1,15.5,15.2C493.6,167.4,500.1,160.9,500.2,152.2z M532.5,120.1
	c0.1-8.5-7.2-15.6-15.8-15.4c-8.4,0.1-15.2,7.1-15.1,15.5c0.1,8.5,6.9,15.1,15.4,15.1C525.5,135.2,532.4,128.5,532.5,120.1z
	 M184.6,413.5c26,0.2,47.1-20.4,47.2-46.2c0.1-26.2-20.2-47.6-46-47.5c-28.4,0.1-48.1,22.9-47.1,46.9
	C137.2,390.8,158.9,413.3,184.6,413.5z M221.4,278c-3.5,2.9-3.1,4.8,0,7.9c13.5,13.1,26.6,26.5,40,39.8c9.2,9.2,9.1,9.1,17.8-0.7
	c2.1-2.4,1.8-3.7-0.2-5.7c-15.6-15.5-31.1-31-46.7-46.5c-0.8-0.8-1.5-2.1-4.7-1.9C226.2,272.6,224.1,275.7,221.4,278z"/>
</svg>
