<?xml version="1.0" encoding="utf-8"?>
<!-- Generator: Adobe Illustrator 24.0.0, SVG Export Plug-In . SVG Version: 6.00 Build 0)  -->
<svg version="1.1" id="Layer_1" xmlns="http://www.w3.org/2000/svg" xmlns:xlink="http://www.w3.org/1999/xlink" x="0px" y="0px"
	 viewBox="0 0 613.8 397.1" style="enable-background:new 0 0 613.8 397.1;" xml:space="preserve">
<path style="fill:#EFEEE9;" d="M520.3,248c0.3-19.6,0.7-39.2,1-58.9c0.9-1.5,2.4-1.9,4-2c4.8-0.2,9.5-0.2,14.3,0
	c1.6,0.1,3.1,0.4,4,1.9c0.4,21.2,0.7,42.3,1.1,63.5c-1,2.3-3.1,2-5,2.1c-4.5,0.1-9.1,0.1-13.6,0C520.2,254.5,519.7,254,520.3,248z
	 M520.1,313.1c7.8,1.2,15.6,0.8,23.5,0.2c1.4-0.1,2.2-1.2,2.1-2.7c-0.1-5,0.3-10-0.2-15.1c-0.1-8.8-0.3-17.7-0.4-26.5
	c0.2-3.1-1.7-4-4.4-4.1c-5.6-0.1-11.1-0.2-16.7,0c-1.7,0.1-3.4,0.2-4.3,2c-0.3,15.1-0.6,30.1-0.9,45.2
	C519.2,312.6,519.6,313,520.1,313.1z M580,236.5c8,0.4,16,0.4,23.9,0c2-0.1,3.3-1,3.2-3.4c-0.2-4.9,0.2-9.8-0.2-14.7
	c-0.4-20.7-0.7-41.4-1.1-62.1c-1.3-1.9-3.2-2-5.2-2c-5.8-0.1-11.6-0.1-17.4,0c-1.7,0-3.4,0.1-4.6,1.5c-0.1,0.8-0.3,1.5-0.3,2.3
	c-0.4,25.5-0.8,50.9-1.3,76.4C577.4,236.1,578.8,236.5,580,236.5z M581.5,142.5c8.1-0.3,16.3,0.4,24.4-0.5c0-3.2,0-6.4,0-9.6
	c-9,0-18.1,0.1-27.1,0.1c0,2.3,0,4.7-0.1,7C578.6,141.5,579.2,142.6,581.5,142.5z M543.6,177.1c0-2.5,0-5,0-7.5
	c-7.4-1.1-14.8-0.2-22.2-0.5c0,2.8,0,5.6-0.1,8.4C528.7,177.3,536.2,178.2,543.6,177.1z M92.5,177.4c0-2.7,0-5.5,0-8.2
	c-7.4,0-14.9,0-22.3-0.1c0,2.6,0,5.3,0,7.9C77.7,178,85.1,177.3,92.5,177.4z M11.6,236.7c6.8,0.1,13.7,0.1,20.5,0
	c1.9,0,3.9-0.1,5.2-2c1.5-5.9,0.8-11.9,0.5-17.8c-0.2-0.7-0.5-1.4-1.1-1.9c-0.4-15.7-0.7-31.4-1.1-47.1c-0.4-2.8-0.1-5.7-0.2-8.5
	c-0.1-4.1-0.5-4.8-4.6-4.9c-6.2-0.2-12.4-0.1-18.6,0c-1.6,0-3.1,0.3-4.2,1.6c-0.5,26.2-1,52.4-1.5,78.7
	C7.6,236.7,9.7,236.7,11.6,236.7z M5.5,296.7c-0.1,1.1-0.1,2.3-0.2,3.4c0.1,1.9,0.2,3.8,0.2,5.7c0,1.6,0.6,2.4,2.2,2.3
	c4.9-0.2,9.8-0.3,14.8-0.5c0,0,0,0,0,0c5.2,0.6,10.4,0.7,15.6,0c1.1-0.9,1.4-2.1,1.5-3.4c0.2-6.3,0.2-12.5,0-18.8
	c0-1.2-0.2-2.4-1.1-3.2c0.1-0.5,0.2-0.9,0.3-1.4c0.1-2.7,0.1-5.4,0-8c-0.2-6.4,0.7-12.8-0.6-19.1c-1-2.8-3.2-3.6-5.8-3.6
	c-7.4-0.1-14.7-0.1-22.1,0c-1.5,0-3.1,0.2-4.2,1.6c0,3.3,0,6.5,0,9.8c0,0,0,0,0,0c-0.9,5.5-0.3,11.1-0.7,16.6
	c-0.5,0.8-0.4,1.6,0,2.4C5.5,285.8,5.5,291.2,5.5,296.7z M612.1,364.2c-2.3,0.4-2.4-1-2.4-2.8c-0.2-7.9-0.4-15.7-0.7-23.6
	c0-0.8,0-1.6,0-2.3c0-3.6,0-7.2-0.1-10.8c-1.1-1.4-2.7-1.4-4.2-1.5c-1.6-0.1-3.1,0-4.7,0c-6.3,0-12.7-0.1-19,0
	c-5.3,0.1-5.7,0.5-5.8,5.7c0,2.1,0.2,4.1-0.2,6.2c-0.1,8.7-0.4,17.3-0.4,26c0,2.5-0.8,3.3-3.3,3.2c-7.1-0.2-14.2-0.2-21.3,0
	c-2.5,0.1-3.3-0.6-3.3-3.2c-0.1-11.6-0.4-23.3-0.6-34.9c-0.8-1.8-2.5-2.1-4.2-2.2c-6.1-0.2-12.3-0.3-18.5,0
	c-1.8,0.1-3.6,0.4-4.7,2.1c-0.2,11.7-0.5,23.3-0.7,35c0,2.2-0.4,3.3-3,3.1c-4.7-0.3-9.3-0.2-14-0.2c-1.2-0.8-2.5-1.3-4-1.3
	c-3.1,0.1-4.1-1.6-4-4.4c0.1-1.5,0-3.1,0-4.7c0-35.7,0-71.5,0-107.2c0-3.6,0.1-7.3-0.1-10.9c-0.1-1.8,0-3.7-2-4.8
	c-10.7-3.2-21.4-6.4-32.1-9.6c-2.3,2-1.6,4.8-1.6,7.3c0,42.4,0,84.8,0,127.1c0,1.6,0.1,3.1-0.1,4.7c-0.3,1.8-1.5,2.3-3.1,2.3
	c-1.6,0-2.8-0.6-2.9-2.4c-0.2-1.6-0.1-3.1-0.1-4.7c0-42.1,0-84.2,0-126.4c0-8.1,0-8.1-7.7-8.5c-0.5,0,0.1-0.1-0.4-0.1l-0.3-20.4
	c-1.3-3.1-4.1-2.4-6.3-2.1c-4.2,0.5-8.5,0.6-12.7,0.6c-6.2,0-12.4,0-18.6,0c-1.9,0-3.9-0.1-5.4,1.5c-0.1,6.8-0.2,13.6-0.3,20.5
	c-6.4,0.5-6.5,0.6-6.6,7c0,1.4,0,2.8,0,4.3c0,41.7,0,83.4,0,125.1c0,5.6-0.1,5.6-5.6,5.7c-1.2-0.4-2.1-0.2-2.9,0.1
	c1.4-2.1,2-4.4,2-7.2c-0.1-43.3-0.1-86.6-0.1-129.9c0-9.1-0.2-18.1,0.2-27.2c0-0.9-0.2-1.7-1.1-2.1c-2.4-0.1-4.7-0.1-7.1-0.2
	c-1.4-0.9-3-0.8-4.5-0.8c-44.3,0-88.6,0-133,0c-1.7,0-3.4,0-4.9,0.8c-2.6,0-5.1,0.1-7.7,0.1c-2.2,2.1-1.6,4.8-1.6,7.3
	c0,50.4,0,100.8,0,151.2c0,1.6,0,3.1,0,4.7c-0.1,1.8-0.8,3-2.8,3c-2,0-3.2-0.8-3.3-2.9c-0.1-1.6-0.1-3.1-0.1-4.7
	c0-42.5,0-85,0-127.5c0-6.3-0.4-6.7-5.9-6.7c-0.1-6.9-0.2-13.8-0.3-20.7c-1.3-1.4-3-1.4-4.7-1.5c-2.5-0.1-4.9,0-7.4,0
	c-8.7,0-17.3-0.1-26,0c-4.6,0.1-5.1,0.7-5.1,5.2c-0.1,5.4,0.2,10.9-0.1,16.3c-0.2,0.2-0.3,0.5-0.5,0.7c-8.3-0.1-8.3-0.1-8.3,8.2
	c0,0.6,0,1.3,0,1.9c0,42,0,84-0.1,126c0,2.2,1.2,5.6-2.8,5.5c-3.6-0.1-2.6-3.3-2.6-5.4c-0.1-25,0-50,0-75c0-18.1,0-36.3,0-54.4
	c0-2.3,0.5-4.7-1.7-6.5c-10.7,3.2-21.4,6.5-32.1,9.7c-2,0.3-2.3,1.9-2.5,3.5c-0.3,1.8-0.2,3.6-0.2,5.4c0,39,0,78,0,117
	c0,5.2,0,5.2-5,6.1c-1,0.2-2,0.6-2.8,1.3c-3.9,0.1-7.8,0.1-11.7,0.2c-0.6,0.3-1.1,0.6-1.6,0.9c0.1-0.3,0.1-0.5,0-0.9
	c-2,0-3.2-0.3-3.2-2.9c0-12-0.4-23.9-0.6-35.9c-1.2-1.7-3.1-1.6-4.9-1.7c-6-0.1-12.1-0.1-18.1,0c-1.5,0-3.1,0.1-4.4,1.1
	c-1.7,1.8-1.4,4.1-1.5,6.2c-0.1,9.3-1.2,18.6-0.8,27.9c0.1,2.6-1,3.7-3.7,3.7c-5.6,0-11.1,0-16.7,0c-4.2-0.1-4.5-0.4-4.6-4.8
	c-0.2-6.7,0.4-13.4-0.4-20.1c-1.2-3.5-0.6-7.1-0.8-10.7c-0.1-1.9-0.2-3.7-2.7-4c-8.7-0.1-17.4-0.1-26.1,0c-2,0-4.2-0.3-5.7,1.5
	c-0.2,12.2-0.5,24.4-0.6,36.5c0,1.9-0.1,3.4-2.6,3c-1.6-0.2-1.5,1-1.5,2c0,7,0,14,0.1,20.9c6.5-2.2,14.4-3.1,20-0.8
	c0.5,0.2,0.9,0.4,1.4,0.5c5.2,0,10.4-0.7,15.6-0.8c7.9-0.1,15.8,0,23.7,0H110c59.3,0,118.5-0.5,177.8-0.8c30-0.2,59.9-0.4,89.9,0.7
	c14.7,0.5,29.3,1.4,44,2.3c12.7,0.8,25.4,1.7,38.1,0.6c14.8-2.8,29.3-8.4,44.6-6.6c6.6,0.8,12.3,2.2,17.5,5.2
	c11.5,0.2,23,1,34.5,1.7c8,0.5,16.1,1.1,24.2,1.2c0.1,0,0.2,0,0.3,0c10.9-1.7,21.9-3.8,32.9-4.8c0-6.4,0-12.9,0.1-19.3
	C613.8,365.3,614,364,612.1,364.2z M35.1,142.5c0-3.3,0-6.7-0.1-10c-9,0-18.1,0-27.1,0c0,3.4,0,6.7,0.1,10.1
	C17,142.5,26,142.5,35.1,142.5z M73.1,254.6c5.4,0.1,10.8,0.2,16.2,0c3.9-0.1,4.5-0.9,4.2-5c-0.4-20.3-0.7-40.6-1.1-60.9
	c-1.1-1.3-2.6-1.6-4.2-1.6c-4.9-0.1-9.7-0.1-14.6,0c-1.4,0-2.8,0.3-3.9,1.3c-1.4,1.8-1.2,3.9-1.2,6c-0.1,6.1,0.4,12.2-0.2,18.2
	c-1.1,12.5-0.5,25-0.4,37.6C68.2,253.3,70.2,254.5,73.1,254.6z M71.2,313.7c6.6,0.1,13.2,0.1,19.8,0c1.4,0,2.9-0.2,3.8-1.5
	c-0.3-15.1-0.6-30.2-0.9-45.2c-0.9-1.9-2.6-2-4.3-2.1c-5.7-0.2-11.4-0.2-17.1,0c-1.8,0.1-3.6,0.5-4.8,2.2c-1,1.9-0.9,4-0.9,6
	c-0.2,9.5,0.4,19-0.6,28.5c-0.4,3.6-1.1,7.5,1.2,10.9C68.6,313.4,69.9,313.7,71.2,313.7z M575.5,308.1c7.6,0,15.2,0.1,22.8,0.1
	c0.9-0.1,1.4-0.1,1.4-0.1c0.3,0,0.6,0,0.8,0.1c2.4,0,4.7,0,7.1,0c0.4,0,0.8,0,1.2,0c-0.1-1.8-0.3-3.7-0.4-5.6c0-0.8-0.1-1.5-0.1-2.2
	c0-0.3,0-0.7-0.1-1c0-0.6,0.1-1.2,0.1-1.8c0-0.4,0.1-0.8,0.1-1.2c0-0.4-0.1-0.8-0.1-1.2c-0.2-14.5-0.4-28.9-0.6-43.4
	c-1.1-1.6-2.9-1.6-4.5-1.7c-7.4-0.1-14.7-0.1-22.1,0c-1.7,0-3.4,0.1-4.6,1.6c0,8,0,16,0,24c-0.9,9.3-0.8,18.7-0.7,28
	c0,1.3,0,2.6-0.1,3.9c0,0,0,0,0,0c0,0,0,0,0,0C575.6,307.7,575.6,307.9,575.5,308.1z"/>
<path style="fill:#E4B978;" d="M378.1,196.3c-1.5,0.8-3,0.6-4.6,0.6c-44.6,0-89.1,0-133.7,0c-1.4,0-2.9,0.4-4.1-0.6
	c0-2.4,0.1-4.7,0.1-7.1c0.5-0.4,1-0.8,1.6-1c4.7-1.3,5.4-2.6,4.6-7.5c-0.2-1.5-0.8-2.3-2.4-2.5c-1.4-0.1-2.8-0.2-3.9-1.4
	c-8.7-32.6,3.1-62.5,31.9-81c8.6-5.6,17.9-9.9,27.7-13.1c2-0.6,2.9-1.3,1.6-3.4c-0.3-0.5-0.6-1.3-0.4-1.8c1.7-4.5,0.3-10.2,5.3-13.4
	c1.7-1.1,1.3-2.7,1.5-4.1c1.1-10,2.1-20.1,3.7-30.1c1.1,10.2,2.2,20.3,3.2,30.5c0.2,1.9,0.5,3.4,2.3,4.5c1.4,0.8,2.4,2.2,2.4,3.8
	c0,2.1,0.7,4,1.6,5.8c0.6,1.1,1,2.5,0.3,3.7c-2,3.2,0.2,3.7,2.6,4.4c17.3,5.4,33.3,13.2,45.7,26.8c16.5,17.9,19.4,39.1,14,62
	c-0.4,1.8-0.9,3.5-1.3,5.3c-0.7,0.8-1.7,1.1-2.7,1.3c-1.4,0.3-3.4-0.4-4,1.5c-0.7,2.2-0.5,4.6,0,6.9c0.3,1.3,1.5,1.2,2.5,1.4
	c1.5,0.2,3.1,0.1,4.3,1.4C378,191.6,378.1,194,378.1,196.3z M227.9,176.2c0-3,0.1-6-0.3-8.9c-0.3-2.3-1.6-4.3-4.2-4.3
	c-2.5-0.1-3.6,1.9-4.1,4c-0.4,1.5-0.5,3.1-0.5,4.6c0,14.7-0.1,29.5,0.1,44.2c0.1,3.7-0.6,5.7-4.7,5c3.9,0,4.8,2,4.6,5.8
	c-0.4,8.5-0.1,17.1-0.1,25.6c0,36,0.1,72-0.1,108c0,3.8,1.6,4.2,4.7,4.1c2.9-0.1,4.8,0,4.7-4c-0.3-9.6-0.1-19.2-0.1-28.7
	c0-45.1,0.1-90.1,0.1-135.2C228,189.7,228,183,227.9,176.2z M394.6,216c0.3-14.8,0.1-29.7,0.1-44.6c0-1.5,0-3.1-0.4-4.6
	c-0.5-1.9-1.6-3.7-3.9-3.8c-2.5-0.1-3.7,1.8-4.2,3.8c-0.4,1.8-0.3,3.8-0.4,5.8c-0.3,8,0.6,16-0.5,23.9c0.1,0.5,0.3,0.9,0.4,1.4
	c-0.4,1.5-0.2,3.1-0.2,4.6c-0.1,53.1,0.2,106.1-0.2,159.2c0,0.9,0,1.8,0.8,2.5c1.4,0,2.9-0.1,4.3,0.1c3.4,0.5,4.5-0.9,4.4-4.3
	c-0.3-5.8-0.1-11.6-0.1-17.4c0-38.3,0.1-76.6-0.1-114.9c0-3.9,0.2-6.9,5-7C395.6,221.4,394.5,220,394.6,216z M459,217.8
	c0-3,0.1-6-0.1-8.9c-0.3-2.8-1.1-5.7-4.5-5.8c-3.4,0-4.2,3-4.6,5.7c-0.2,1.8-0.1,3.6-0.1,5.4c0,6.5,0,6.5-6.6,6.3
	c0.9,1.2,2.2,0.7,3.2,0.6c2.9-0.3,3.7,1,3.4,3.6c-0.1,0.9,0,1.8,0,2.7c0,44.3,0.1,88.6-0.1,132.9c0,4.9,3,3.6,5.5,3.9
	c3.1,0.4,4-0.8,3.9-3.9c-0.1-20.2-0.1-40.4-0.1-60.6c0-26.2,0.1-52.3,0.1-78.5C459.1,220.1,459,219,459,217.8z M501.1,222.3
	c0-6-1.7-9.4-4.7-9.3c-2.9,0.1-4.5,3.5-4.6,9.5c-0.1,2.8,0.7,5.7-0.6,8.4c0.9,1.6,0.5,3.3,0.5,4.9c0,39.8,0,79.7,0,119.5
	c0,9.4,0,9.4,9.4,8.7C501.1,316.8,501.1,269.6,501.1,222.3z M121.7,226.9c-0.2-3.1,0-6.2-0.4-9.3c-0.3-2.3-1.5-4.4-4.1-4.5
	c-2.6-0.1-3.9,2-4.4,4.2c-0.4,1.9-0.5,3.8-0.5,5.8c0,42.6,0,85.3,0,127.9c0,4.4-0.2,8.8-0.2,13.2c1.8,0,3.6-0.1,5.4,0.1
	c3.3,0.4,4.2-0.9,4.1-4.1c-0.2-7.2-0.1-14.5-0.1-21.7c0-34.5,0-69.1,0-103.6c0-1.4-0.2-2.9,1-4C121,229.8,121.8,228.2,121.7,226.9z
	 M163.6,213.5c0-1.4,0.1-2.8,0-4.3c-0.2-2.9-0.8-5.6-4.2-6.1c-2.4-0.4-4.5,2.3-4.7,6c-0.1,4-0.1,8-0.1,12c0,6.3,0.1,12.7,0.1,19
	c0,40.1,0,80.3-0.1,120.4c0,3.4,1.5,3.9,4.2,3.7c2.4-0.2,4.8,0.7,4.8-3.5c-0.1-20.2,0.2-40.4,0.2-60.6c0-23.9-0.2-47.9-0.3-71.8
	c0-6.6,0-6.6,6.3-7.3c0.1,0,0.2-0.1,0.3-0.2C163.6,220.4,163.6,220.4,163.6,213.5z M215.6,198.1c-1.6-3.2-1.4-6.8-2-10.1
	c-1.6-8.8-8-13.1-15.7-16.1c-1.6-0.6-2.5-1.2-3.2-3.1c-1.2-3.4-1.9-6.9-2.7-10.5c-0.5,1.7-0.2,3.5-0.9,4.8c-1.8,3.2-0.1,8.6-6,9.2
	c-4.2,0.5-7.1,2.9-9.3,6.4c-5.4,5.5-4.5,13.2-7.1,19.7c-0.1,0.3-0.1,1,0,1.1c2.8,1.5,1.4,4,1.5,6.1c0.2,4.9,0.2,9.8,0.2,14.7
	c1-5.6,0.3-11.3,0.4-16.9c0-2.2,0.6-3.3,3-3.2c13.3,0.1,26.6,0.1,39.8,0.1C214.8,199.7,216.6,200,215.6,198.1z M444.5,197.4
	c-0.7-1.5-1.5-3.2-1.5-4.8c-0.3-10.9-6.9-16.8-16.1-20.7c-1.5-0.6-2.1-1.4-2.8-3c-1.5-3.4-1.6-7.2-2.8-10.6c-0.4,1-0.4,1.9-0.5,2.8
	c-0.7,5.4-1.8,10-8.1,12.2c-7,2.5-12,7.7-12.8,15.7c-0.3,3-0.2,6-1.6,8.7c-1,1.9,0.3,2.2,1.5,2.5c13.5-0.2,27-0.4,40.4-0.5
	c0.9,0,1.7,0.4,2.6,0.5C444.3,199.8,445.5,199.4,444.5,197.4z M609.8,324.7c0.6,0.4,1.1,0.4,1.7,0c0.3-0.3,0.7-0.5,0.7-0.8
	c1.1-4.9-0.1-9.8,0.1-14.7c0-0.3-0.4-0.9-0.5-0.9c-3.9,0.5-2.7-2.7-3.3-4.5c-1.5,0.5-0.9,2.6-2.4,3.1c-2,0.4-3.9,0.1-5.9,0.2
	c-0.9,0.1-1.8-0.2-2.7-0.1c-5.7,0.2-11.5,0-17.2,0.1c-1.7,0-3.3-0.1-4.8,1c-0.9,0.1-1.9,0-2.6,0.4c-0.9,0.5-0.6,15.7,0.2,15.8
	c2.8,0.3,1.8,2.3,1.9,3.8c0.1,2.3,0.1,4.6,0.1,7c0.9-2.5,0.4-5.1,0.5-7.6c0-2.1,0.7-3,2.9-2.9c10.2,0.1,20.3,0.1,30.5,0.1
	C609.3,324.7,609.6,324.7,609.8,324.7z M40.9,316.6c0.4-0.1,0.6-0.4,0.9-0.7c0.3-0.5,0.5-1.1,0.6-1.7c0.3-6.2,0.1-6.6-3.9-7.7
	c-5.5,0.1-11,0.5-16.5,0.1c-3.3-0.3-6.7,0.1-10,0.3c-3.2,0.2-5.6-0.3-5.4-4.3c0.1-1-0.3-2.1-1.3-2.6c-0.1,1.9-0.3,3.8-0.4,5.7
	c-0.1,0.8,0.2,2.1-1.1,2.1c-3.2-0.2-2.5,2-2.5,3.8c0,3.2,0.2,6.4,0,9.6c-0.3,2.9,1.1,3.5,3.5,3.4c9.3,0,18.6-0.1,27.9-0.1
	c1.4,0,2.8,0.3,4.1-0.6C35.4,318.4,35.5,318.3,40.9,316.6z M610.2,249.3c-0.1-4,0-8-0.1-12c0-0.8,0.3-2-1-2.1
	c-2.1-0.2-1.6-1.7-1.6-2.9c-0.2-4.6-0.4-9.3-0.6-13.9c0,4.4-0.2,8.8,0,13.1c0.2,3-0.9,3.8-3.7,3.6c-4.4-0.2-8.8,0.1-13.2-0.1
	c-4.3-0.2-8.7,0.8-13-0.5c-1.2,0.6-2.5,0.8-2.3,2.9c0.2,4,0.1,8,0.1,11.9c0,1.2,0,2.4,1.7,2.3c10.4,0,20.8,0,31.2,0
	C609.4,251.8,610.3,251.3,610.2,249.3z M40,250.2c0.7-4.3,0.6-8.7,0.1-13c-0.2-1.8-1.1-3.2-3.3-2.6c-10.1,0.8-20.2,0.8-30.3,0
	c-1.8,0.5-3.1,1-2.9,3.5c0.3,3.6,0,7.2-0.1,10.8c-0.1,2,0.8,2.8,2.7,2.7c9.3,0,18.6,0,27.9-0.1c1.7,0,2.7,0.5,3.1,2.1
	C38.9,253.1,39.7,251.8,40,250.2z M12.8,134.1c5.8,0,11.5,0,17.3,0c1.8,0,3.6-0.2,4.9-1.6c1.9-7.9-0.8-13.6-8.2-17.2
	c-1.9-0.9-3.9-1.4-3.7-4.2c0.1-0.8-0.6-1.8-1.7-1.8c-1.1,0-1.7,1.1-1.6,1.9c0.1,2.5-1.6,3-3.5,3.8c-8,3.4-10.8,9.2-8.5,17.5
	C9.2,133.9,11,134,12.8,134.1z M579.5,133.4c7.9,1.4,15.9,0.6,23.8,0.5c1.1,0,1.9-0.6,2.6-1.4c1.7-8.1-1-13.4-8.8-17.2
	c-1.7-0.8-3.3-1.3-3.1-3.7c0.1-0.9-0.6-2.1-1.8-2.1c-1,0-1.7,1.1-1.6,1.9c0.2,2.7-1.7,3-3.5,3.8c-7.3,3.2-10,7.7-9,15.1
	C578.6,131.2,578.1,132.7,579.5,133.4z M516.4,314.6c0.2,2.9,0.2,5.9,0,8.8c-0.1,1.9,0.8,2.5,2.3,2.8c9.1-0.8,18.3-0.9,27.4,0
	c2.5,0,3.3-1.2,3-3.6c-0.2-2.4,0-4.9-0.1-7.4c0-0.9,0.3-2.4-0.5-2.5c-3.8-0.4-2.4-3.2-2.5-5.2c-0.3-4-0.4-8-0.6-12
	c0,4.5-0.2,9,0,13.5c0.1,2.6-0.8,3.3-3.3,3.3c-7.7-0.1-15.5-0.1-23.2-0.1C517.3,312.2,516.3,312.6,516.4,314.6z M63.4,314.3
	c-0.6,3-0.6,6.1,0,9.1c0.5,2.2,1.8,3.4,4.2,2.1c9.2,0,18.3,0,27.5,0c1.2,0,2.3,0.1,2.3-1.7c-0.1-3.2-0.1-6.5,0-9.7
	c0.1-2-1.3-1.9-2.5-2c-9,0-18,0-27.1,0C65.3,310.8,63.9,311.9,63.4,314.3z M95.6,263.9c-0.1-4.9,0.6-9.8-2.1-14.3
	c-0.5,1.5,0.4,3.7-2.7,3.6c-6.3-0.2-12.7-0.2-19,0c-2.2,0.1-2.5-1.1-2.7-2.8c-1.1-0.5-1.6,0.5-2.2,1.1c-1.8,2.1-2.8,11.7-1.5,14.2
	c0.7,1.4,1.8,1.7,3.2,1.3c8.4-0.9,16.9-0.9,25.3,0C95.4,266.4,95.7,265.3,95.6,263.9z M545.3,267.5c3.3-4,0.9-8.7,1.6-13
	c0.3-1.8-1.5-1.3-2.2-2c-6.2,1.2-12.4,0.3-18.5,0.5c-5.4,0.2-5.4,0-5.9-5c-1.1,5.1-2.7,10.1-2.1,15.5c0.2,1.4-0.1,2.8,1.6,3.5
	c7.7-1.2,15.4-0.2,23.1-0.6c2-0.1,1.5,1.7,2.2,2.6C545.2,268.5,545.1,267.8,545.3,267.5z M578.6,155.9c1.5,0,3.1,0,4.6,0.1
	c7.5,0.3,15.1-0.5,22.6,0.4c0-4.8,0-9.6,0-14.3c-1.1-1.3-2.6-1-4-1c-5.8,0.2-11.7,0-17.5,0.1c-2.9,0.1-4.4-0.8-4.2-4
	c0.1-1.7-0.1-3.4-1.3-4.7c-0.1-0.8,0-1.7-0.8-2.3C578.3,138.8,578.5,147.3,578.6,155.9z M35.1,142.5c-1.1-1-2.5-1.3-3.9-1.3
	c-6.4-0.1-12.9-0.1-19.3,0c-1.4,0-2.8,0.3-3.9,1.3c0,4.5,0,9,0,13.5c7.9,0,15.8,0.1,23.7-0.1c2.7-0.1,3.6,0.8,3.5,3.5
	c0,2.8-0.4,5.7,0.5,8.4C35.8,159.4,35.7,150.9,35.1,142.5z M73.3,170.5c5.4,0.2,10.7,0.2,16.1,0c1.2,0,2.2-0.4,3.1-1.3
	c1.3-6.5-0.6-10.6-6.5-13.7c-1.4-0.7-3.3-1-3.2-3.3c0-0.7-0.4-1.6-1.4-1.6c-1,0-1.4,0.8-1.4,1.6c0,2.1-1.5,2.4-2.9,3
	c-6.5,2.9-8.5,7.1-6.9,14C71.1,170.1,72.2,170.4,73.3,170.5z M529.1,170.5c4.8-0.2,9.8,1,14.5-0.8c1-7.8-0.4-11.3-7.4-14.3
	c-2.6-1.1-1.3-4.8-3.8-4.6c-1.9,0.2-1.2,3.5-3.9,4.6c-6.8,2.6-8.5,6.5-7.2,13.8C523.7,171.2,526.5,170.6,529.1,170.5z M543.6,177.1
	c-7.1-1.7-14.2-1.3-21.4-0.2c-0.4,0.1-0.6,0.4-0.9,0.7c0,3.9,0,7.7,0,11.6c7.4-0.9,14.9-0.7,22.3-0.1
	C543.6,185.1,543.6,181.1,543.6,177.1z M92.5,177.4c-2.5-1.9-5.4-1.3-8.2-1.2c-4.7,0.2-9.5-1-14.1,0.8c-0.1,1.7-0.2,3.5-0.3,5.2
	c-0.3,0.6-0.6,1.2-0.8,1.9c-0.3,1.6-0.6,3.3,1.1,4.4c7.4,0,14.8,0,22.2,0C92.5,184.9,92.5,181.2,92.5,177.4z M377.5,223.4
	c0-2.6-0.3-4-3.5-4c-44.2,0.1-88.4,0.1-132.5,0c-3.3,0-4.2,1-4.1,4.2c0.1,22.4,0.1,44.8,0.1,67.3c0,23.1,0.1,46.1-0.1,69.2
	c0,3.5,1.2,4.6,4.5,4.3c3.2-0.2,6.5-0.2,9.7,0c2.8,0.2,3.6-1,3.6-3.7c-0.1-3.8,0-7.5,0-11.3c0-36.3,0-72.6-0.1-108.9
	c0-2.5,0.4-3.7,3.3-3.7c32.9,0.1,65.8,0.1,98.8,0c2.4,0,3.1,0.8,3.1,3.1c-0.1,6.1,0,12.2,0,18.2c0,33.8,0.1,67.7-0.1,101.5
	c0,3.8,1.1,5,4.8,4.6c2.8-0.3,5.7-0.3,8.5,0c3.2,0.3,4.2-0.9,4.2-4.1c-0.1-22.8-0.1-45.6-0.1-68.4
	C377.5,269,377.4,246.2,377.5,223.4z M285.7,290.6c-4.1,6.4-7.3,13.1-7.3,20.9c0,16.4,0,32.9-0.1,49.3c0,2.8,1,3.5,3.6,3.5
	c16.6-0.1,33.2-0.1,49.8,0c2.9,0,3.8-0.8,3.8-3.7c-0.1-10.6,0.3-21.3,0.2-31.9c0-7,0.3-14-0.8-20.9c-2.4-15.6-12.7-25.2-26-32.2
	c-1.6-0.8-2.9-0.7-4.4,0.1c-3.4,2-6.9,4.1-10.3,6.1C290.5,284,287.1,286.3,285.7,290.6z M272.7,360.2c0.1-18.9,0-37.8,0-56.7
	c0-4.1,1.5-8.2,0.6-12.3c-0.8-3.6-0.6-7.2-0.6-10.8c0-2.5,0.7-5,0.1-7.6c-0.5-2.1,0.8-4.4,3.2-4.6c3-0.2,5.8-1.4,8.8-1.4
	c17.6,0,35.2,0,52.9,0c3,0,3.6,0.9,3.6,3.7c-0.1,16.3-0.1,32.6-0.1,49c0,1,0.2,2.1-0.3,3.1c-0.1,1.7,0.7,3.4-0.1,5.3
	c-0.8,1.8,1.6,4.3-1.2,5.8c2.4,1.5,1.4,3.9,1.4,5.9c0.1,6.9,0.3,13.8,0,20.6c-0.2,4.5,2.2,4.3,5.3,4.3c3,0,4.9,0,4.9-4.2
	c-0.2-22-0.1-44.1-0.1-66.1c0-11.3,0-22.6,0-33.8c0-2.1,0.1-3.6-3-3.6c-24,0.2-48,0.1-71.9,0.2c-3.2,0-6.4-0.6-9.6-0.3
	c-3.5,0.3-4.1,1.5-4.1,4.7c0.1,31.1,0.1,62.2,0.1,93.3c0,9.8,0,9.8,9.8,9.7C273.2,363,272.6,361.5,272.7,360.2z M192.1,285
	c4.1,0,8.3-0.3,12.4,0.1c3.6,0.3,4.3-1.1,4.2-4.4c-0.2-7.2-0.1-14.5-0.1-21.7c0-9.9-6.1-18.5-15.3-21.7c-0.8-0.3-1.4-0.5-2.2-0.1
	c-7.4,3.5-13.8,8.1-15.3,16.7c-1.7,9.6-0.4,19.4-0.7,29c-0.1,2.1,1.4,2.2,2.9,2.2C182.7,285.1,187.4,285.1,192.1,285
	C192.1,285.1,192.1,285.1,192.1,285z M148.5,335c0-3.6,0.1-7.2,0-10.9c-0.2-6.8-2.8-12.5-8.1-16.9c-1.5-1.3-2.8-1.3-4.4,0
	c-4.1,3.5-6.9,7.8-7.6,13.1c-1.2,8.6-0.4,17.3-0.6,26c0,1.9,1,2.4,2.7,2.4c5.2,0,10.4-0.1,15.5,0c2.2,0,2.6-1,2.5-2.9
	C148.4,342.2,148.5,338.6,148.5,335C148.5,335,148.5,335,148.5,335z M148.5,278.2c0-3.2,0.1-6.5,0-9.7c-0.2-6.6-2.4-12.3-7.4-16.9
	c-2-1.8-3.7-1.9-5.7,0c-3.8,3.4-6.3,7.5-7,12.6c-1.2,8.6-0.4,17.3-0.6,25.9c0,1.6,0.5,2.3,2.3,2.2c5.2-0.1,10.3-0.2,15.5-0.1
	c2.5,0.1,3.1-0.9,3-3.2C148.4,285.4,148.5,281.8,148.5,278.2C148.5,278.2,148.5,278.2,148.5,278.2z M197.6,213.4c0-1.8,0-3.6,0-5.4
	c0-3.3-2.2-4.5-5-4.6c-2.9,0-5,1.3-5,4.6c0,2.8,0.2,5.7-0.1,8.5c-0.4,3.5,0.7,4.7,4.4,4.5c5.8-0.3,5.8-0.1,5.8-6
	C197.6,214.4,197.6,213.9,197.6,213.4C197.6,213.4,197.6,213.4,197.6,213.4z M181.2,213.8c0-1.5,0-3.1,0-4.6c0-2.1-0.5-4.2-3-4.1
	c-2.5,0-2.9,2.2-2.9,4.2c0,2.8,0.2,5.7-0.1,8.5c-0.2,2.5,0.6,3.3,3.2,3.3c2.7,0,2.9-1.4,2.7-3.4
	C181.1,216.4,181.2,215.1,181.2,213.8C181.2,213.8,181.2,213.8,181.2,213.8z M209,213.9c0-1.5,0-3.1,0-4.6c0-2-0.4-4.2-2.8-4.3
	c-2.5,0-2.9,2-2.9,4.1c0,3.1,0.1,6.2,0,9.2c-0.2,2.6,1.3,2.6,3.1,2.6c1.7,0,3.1-0.1,2.9-2.4c-0.1-1.5,0-3.1,0-4.6
	C209.1,213.9,209,213.9,209,213.9z M421,348.7c4.5,0,9.1-0.1,13.6,0c2.7,0.1,3.6-0.7,3.6-3.5c-0.2-7.5-0.3-15,0-22.5
	c0.4-10.9-6.4-17.7-14.7-21.7c-1-0.5-1.9-0.7-3-0.4c-7.7,2-15.6,11.4-15.8,19.4c-0.2,8.5,0,17.1-0.1,25.6c0,2.5,1.1,3,3.3,3
	C412.2,348.6,416.6,348.7,421,348.7C421,348.7,421,348.7,421,348.7z M485.5,334.1c0-3.8,0.1-7.5,0-11.3c-0.2-6-2.8-10.9-7.1-15
	c-2-1.9-3.9-2.1-6-0.1c-4.2,4-6.9,8.8-7.1,14.6c-0.3,7.9-0.1,15.8-0.2,23.7c0,2,0.8,2.7,2.8,2.7c4.9-0.1,9.8-0.1,14.8,0
	c2.2,0.1,3-0.8,2.9-3C485.5,341.9,485.5,338,485.5,334.1C485.5,334.1,485.5,334.1,485.5,334.1z M485.5,277.9c0-3.6,0-7.2,0-10.9
	c-0.1-6.4-3-11.4-7.5-15.6c-1.9-1.8-3.5-1.7-5.3,0c-3,2.8-5.6,5.9-6.5,10c-2.1,9.6-0.7,19.3-1,29c-0.1,1.9,1.5,1.8,2.8,1.8
	c4.8,0,9.6-0.1,14.4,0c2.3,0.1,3.3-0.7,3.2-3.1C485.4,285.4,485.5,281.6,485.5,277.9C485.5,277.9,485.5,277.9,485.5,277.9z
	 M426.1,208c-0.1-3.3-2.3-4.6-5.2-4.5c-2.9,0.1-5,1.4-4.9,4.7c0,2.7,0.3,5.5-0.1,8.2c-0.5,3.8,0.8,4.9,4.6,4.6
	c5.5-0.4,5.5-0.1,5.5-5.6c0-0.6,0-1.3,0-1.9C426.1,211.6,426.2,209.8,426.1,208z M438.2,213.9c0-1.8,0-3.6,0-5.4
	c0-1.9-0.8-3.4-2.8-3.4c-2,0-2.8,1.5-2.8,3.4c0,3.1,0.1,6.2-0.1,9.3c-0.1,2.2,0.3,3.2,2.9,3.2c2.6,0,3.1-1,2.9-3.2
	C438.1,216.5,438.2,215.2,438.2,213.9C438.2,213.9,438.2,213.9,438.2,213.9z M404.6,213.6c0,1.7,0.1,3.4,0,5
	c-0.2,2.4,1.3,2.3,2.9,2.3c1.8,0.1,2.9-0.1,2.8-2.4c-0.2-3.3,0-6.7-0.1-10c0-1.9-0.7-3.5-2.8-3.4c-2,0.1-2.7,1.7-2.8,3.5
	C404.6,210.2,404.6,211.9,404.6,213.6C404.6,213.6,404.6,213.6,404.6,213.6z M41.2,316.1c-2.7-1-4.7-0.1-6.1,2.3
	c-1.4,2.5-0.3,4.1,1.7,5.6c2,0.4,1.2,2,1.3,3.1c0.4,3.4-0.3,7,0.7,10.4c0-3.3,0.1-6.6,0-9.9c-0.1-1.9,0.4-2.9,2.4-3
	C42.4,321.8,43.8,318.9,41.2,316.1z M205.1,348.7c2.7,0.1,3.6-0.7,3.6-3.5c-0.2-7.5-0.4-15.1,0-22.5c0.6-10.5-6.6-17.9-14.8-21.7
	c-1.1-0.5-2.2-0.6-3.4-0.2c-7.9,2.5-15.1,11.5-15.3,19.8c-0.3,8.3,0,16.6-0.1,24.9c0,2.7,1.1,3.3,3.5,3.2c4.4-0.1,8.8,0,13.2,0
	C196.3,348.7,200.7,348.6,205.1,348.7z M434.8,285.1c2.5,0.1,3.4-0.8,3.3-3.3c-0.1-7.5-0.4-15,0-22.5c0.6-10.8-7.4-18.4-15.2-21.8
	c-0.9-0.4-1.6-0.5-2.6-0.2c-7.5,2.1-15.6,11.5-15.8,19.1c-0.2,8.7,0,17.4-0.1,26c0,2.4,1.1,2.8,3.1,2.8c4.5-0.1,9.1,0,13.6,0
	C425.7,285,430.3,284.9,434.8,285.1z"/>
<path style="fill:#FCFCFA;" d="M378,189.3c-8.4,0-8.4,0-8.4-7.3c0-5.1,0-5.1,5.3-5.1c1,0,2.1,0,3.1,0C378,181,378,185.1,378,189.3z
	 M235.8,189.3c8.7-0.1,7.7,1,7.7-4.9c0.1-7.7,0-7.7-7.8-7.5C235.8,181,235.8,185.1,235.8,189.3z M315.7,182.7c0-0.6,0-1.3,0-1.9
	c0-2.1,0.4-4.1-2.9-4.1c-3.3,0-2.9,2-2.9,4.1c0,1.9,0.1,3.9,0,5.8c-0.1,1.9,0.5,2.8,2.6,2.8c2.1,0,3.2-0.6,3.2-2.8
	C315.6,185.3,315.6,184,315.7,182.7C315.6,182.7,315.7,182.7,315.7,182.7z M279.9,183.3c0-0.8,0-1.5,0-2.3c-0.1-1.9,0.8-4.2-2.7-4.3
	c-3.6-0.1-3.2,2-3.2,4.2c0,1.9,0.1,3.8,0.2,5.8c0.1,2.6,1.8,2.6,3.8,2.6c2.2,0,1.9-1.6,1.9-3c-0.1-1-0.1-2-0.2-3
	C279.7,183.3,279.8,183.3,279.9,183.3z M250.4,185.9c-0.1,2,0,3.4,2.7,3.4c2.7,0,2.9-1.4,2.8-3.4c-0.1-2.3-0.1-4.6,0-6.9
	c0.1-2.1-1.2-2.2-2.7-2.2c-1.5,0-2.9,0.1-2.8,2.2c0.1,1.3,0,2.6,0,3.9C250.5,183.9,250.5,184.9,250.4,185.9z M262.3,182.8
	c0,1,0,2.1,0,3.1c-0.1,1.9-0.1,3.5,2.7,3.5c2.8,0,2.8-1.5,2.8-3.5c-0.1-2.3-0.1-4.7,0-7c0-1.8-1-2.1-2.5-2.1c-1.4,0-3-0.2-2.9,2
	C262.3,180.2,262.3,181.5,262.3,182.8C262.3,182.8,262.3,182.8,262.3,182.8z M291.7,179.8c0.1-2-0.4-3.1-2.7-3.1
	c-2.4,0-2.8,1.2-2.7,3.2c0.1,2.3,0.1,4.6,0,7c-0.1,1.9,0.9,2.4,2.6,2.4c1.8,0,3.1-0.3,2.9-2.5c-0.1-1.2,0-2.3,0-3.5
	C291.7,182.2,291.6,181,291.7,179.8z M298,186c-0.2,2.1,0.3,3.4,2.9,3.3c2.5,0,2.6-1.4,2.6-3.3c0-2.3-0.1-4.7,0-7
	c0.1-2-1.1-2.3-2.7-2.3c-1.6,0-2.9,0.2-2.8,2.2c0.1,1.3,0,2.6,0,3.9C298,184,298.1,185,298,186z M322,186.3c-0.2,2,0.4,3,2.8,3.1
	c2.4,0,2.8-1.2,2.7-3.1c-0.1-2.5-0.1-4.9,0-7.4c0-2.2-1.5-2-2.9-2c-1.5-0.1-2.5,0.3-2.5,2.1c0,1.3,0,2.6,0,3.9
	C322,184,322.1,185.2,322,186.3z M339.3,180.7c0-1.9,0.5-3.9-2.7-3.9c-3.1,0-2.8,1.9-2.8,3.9c0,2.1,0.1,4.1,0,6.2
	c-0.1,1.8,0.6,2.5,2.5,2.5c1.7,0,3.1-0.2,3-2.4c-0.1-1.3,0-2.6,0-3.9C339.3,182.2,339.3,181.5,339.3,180.7z M357.8,185.8
	c0,1.9-0.2,3.5,2.7,3.5c2.8,0,2.8-1.5,2.8-3.4c-0.1-2.2-0.1-4.4,0-6.6c0.1-2.2-1.1-2.5-2.9-2.5c-1.8,0-2.7,0.5-2.6,2.4
	c0.1,1.2,0,2.3,0,3.5C357.8,183.8,357.8,184.8,357.8,185.8z M346,186.3c-0.1,1.7,0.1,3,2.4,3c2.1,0,2.7-0.9,2.6-2.8
	c-0.1-2.3-0.1-4.6,0-6.9c0.1-1.9-0.5-2.8-2.6-2.8c-2.2,0-2.5,1.2-2.4,3c0,1,0,2.1,0,3.1C346,184,346,185.2,346,186.3z"/>
<rect y="364.4" style="fill:#EFEEE9;" width="613.8" height="32.8"/>
</svg>
