<?xml version="1.0" encoding="utf-8"?>
<!-- Generator: Adobe Illustrator 24.0.0, SVG Export Plug-In . SVG Version: 6.00 Build 0)  -->
<svg version="1.1" id="Layer_1" xmlns="http://www.w3.org/2000/svg" xmlns:xlink="http://www.w3.org/1999/xlink" x="0px" y="0px"
	 viewBox="0 0 612 561" style="enable-background:new 0 0 612 561;" xml:space="preserve">
<path style="fill:#912884;" d="M346,244.4c1.7,4.5,5,6.6,9.9,7c12.5,0.9,24.9,2.5,37,6.1c13.4,4,23,11.8,28,25.1
	c11.2,30,21.7,60.1,19.9,92.9c4,7.5,1.9,15.5,2.3,23.3c0.2,4.3,0.3,8.7-0.1,13c-0.3,2.9,0.1,6.4-3.9,7.4c-1-0.3-2-0.6-2.9-0.9
	c-28.6-10.8-28.4-10.8-37.1-40.2c-5.4-18.4-11.4-36.7-17.2-55.1c-0.1-0.4-0.6-0.7-1.4-1.8c0,41.1,0,81.6,0,122.1
	c-2.6,2.8-6,2.6-9.3,2.6c-43.8,0.4-87.6-0.5-131.3-0.3c-2.8,0-5.7,0.2-7.9-2.1c0-40.5,0-81,0-121.6c-0.3,0-0.6-0.1-0.9-0.1
	c-6.8,21.4-14.7,42.5-20.2,64.2c-4,15.6-11.4,26-27.5,29.6c-3.5,0.8-6.8,2.4-10.1,3.6c-2.6-0.3-3.4-2.3-3.5-4.3
	c-0.8-11.7-1-23.4,0.1-35.1c0.1-1.5,1.1-2.8,1.9-4.2c-2.5-31,8.3-59.4,17.4-88.2c7.2-22.9,25.3-30.7,46.8-33.7
	c7.1-1,14.2-2.5,21.3-2.6c5.1-0.1,7.3-2.8,9-6.6c3.3-2.5,7.2-2.6,11.1-2.6c19.3,0,38.6,0,57.9,0C338.8,241.8,342.7,241.8,346,244.4z
	"/>
<path style="fill:#1E141B;" d="M510.5,493.1c-0.9,8.9-3.1,15.3-9.2,22c-8.7,9.5-18,12.9-30.8,12.8c-54.6-0.7-109.2-0.3-163.8-0.4
	c-2.8,0-5.7,0.4-8.4-0.8c-36,0.1-72,0.3-108,0.4c-17.5,0-35-0.7-52.5,0.2c-10.5,0.6-17.6-2.8-24.8-10.2
	c-7.4-7.5-10.4-14.9-11.7-25.7c-2.7-21.9,8.1-34.9,23.6-46.6c2.5-2.1,5.4-1,8.1-1c32.9-0.2,65.8-0.3,98.8-0.4
	c49.5-0.1,99.1-0.1,148.6-0.2c33.2,0.1,66.5,0.3,99.7,0.2c4.8,0,7.8,1.9,11.5,4.6C507,459.5,512.5,474,510.5,493.1z M203.4,126.9
	c3.7,0,6,0.4,8.1-0.1c7-1.4,9.6,1.6,11.2,8.4c4,16.9,9.2,33.6,13.6,50.5c1.1,4.4,2.8,7.1,7.7,6c2.3-2.1,2.2-5.1,2.7-7.8
	c2.1-11,0.7-22.1,1.3-33.1c0.4-7.5,1.6-8.5,9.1-7c12.9,2.6,25.9,3.9,39.1,4.1c19.6,0.2,39.1-0.9,58.4-4.5c5.3-1,7.6,0.4,7.8,6
	c0.3,9,1.6,17.9,1.6,26.9c-0.1,9.9,1,10.6,11.4,9.4c9-17,15.2-34.8,16-54.1c1.7-37.1-20.5-69.4-54-78.9c-4.6-1.3-7.8-1.4-9.6,3.7
	c-1.9,5.4-4.3,5.7-8.2,1.3c-7.9-8.7-16.2-16.9-24.9-26c-4,11-7.4,20.1-10.9,29.6c-7.7-4.7-14.9-9.1-22.9-14.1
	c0,13.2-6.4,21.4-16.3,27.8c-5.8,3.8-11.6,8-15.1,14.1c-1.9,3.4-4.2,3.6-7.4,3.8c-5.1,0.3-10.5-1.3-16.2,1.8
	c5.3,4.5,11.7,7.6,9.9,15.6C214.5,117.3,208.4,120.9,203.4,126.9z"/>
<path style="fill:#E6BAA3;" d="M244.1,191.7c0.7-15.4,1.6-30.8,2.2-46.2c0.2-5.2,1.3-6.7,7.3-5.2c34.6,8.8,69.4,6.3,104.1,0.2
	c6.2-1.1,7.3,0.2,7.3,6c0,10.3,1.4,20.5,1.3,30.8c-0.1,7.1,2.3,9.8,9.2,8.5c-8.3,0.8-9.5,6.6-9.1,13.3c0.4,6.2-2.8,10.7-6.5,15.1
	c-3.7,4.3-6.9,9.1-11.3,12.6c-6.7,5.4-6.9,10.9-2.6,17.6c-26.7,0-53.3,0-80,0c3.7-6.8,3.8-12.8-3.2-18.1c-3.2-2.4-5.1-6.5-8.2-9.1
	C246.4,210.5,246.4,200.7,244.1,191.7z M508.1,447.2c17.8,7.2,35.2,15.7,54.8,17.2c2.3,0.2,4.6,1.2,6.8-0.1
	c9.8-5.9,19.5-12,31.1-19.1c-7.3,0-12.6-1.1-17.2,0.2c-9.8,2.9-15.8,0.1-21.1-8.5c-2.2-3.6-4.8-11-9.6-9.3
	c-4.3,1.5-0.9,8.3-1.1,12.8c0,0.3,0.1,0.5,0,0.8c-0.3,1.6,0.8,4.4-1.6,4.4c-3.3,0.1-6.7-0.6-9.5-2.6c-2.1-1.5-0.2-3.3,0.5-4.7
	c2.1-4.2,4.5-8.2,7.4-13.6c-2.5,1-3.6,1.1-4.3,1.7c-14.8,12.3-26.3,8.3-39.9-4c-19.5-17.7-40.4-34.2-63.7-47
	c0,10.9,0.1,21.8-0.1,32.8c-0.1,3.7,1.4,7.7-1.6,10.9C462,428.4,485,437.8,508.1,447.2z M158.8,382.8
	c-21.2,14.1-40.7,30.5-60.5,46.5c-10.2,8.2-10,8.4-21.2,2.2c-3.7-2.1-7.4-4.1-12.7-4.9c2.8,5.2,7,9.5,6.9,13.7
	c-0.1,6.7-6.8,3.7-11.2,5.2c0-2.1,0.2-3.4,0-4.7c-0.7-4.6,2.8-11.8-1.7-13.3c-3.9-1.3-6.6,6.1-9.2,10c-4.8,7-10,10.7-19.2,7.9
	c-5.1-1.6-11-0.3-18.8-0.3c11.5,7.1,21.2,13.1,31,19.1c0.8,0.5,2,0.7,3,0.5c10.3-1.9,20.9-2.2,30.8-6.2c32.3-13.2,64.7-26.3,97-39.5
	c-2.4-2.3-1.5-5.2-1.5-7.9c-0.1-11.9-0.1-23.8-0.1-35.7C167.2,377.9,162.8,380.2,158.8,382.8z"/>
</svg>
