<?xml version="1.0" encoding="utf-8"?>
<!-- Generator: Adobe Illustrator 23.0.3, SVG Export Plug-In . SVG Version: 6.00 Build 0)  -->
<svg version="1.0" id="Layer_1" xmlns="http://www.w3.org/2000/svg" xmlns:xlink="http://www.w3.org/1999/xlink" x="0px" y="0px"
	 viewBox="0 0 512.2 512.2" style="enable-background:new 0 0 512.2 512.2;" xml:space="preserve">
<path style="fill:#8E4C00;" d="M250.2,484.7c-66-1.4-129-23.6-180.1-74.9c-32.1-32.2-51.9-71-56.9-116.5
	c-4.6-42.3,4-82.7,21.5-121.2c15.7-34.6,38.1-64.2,67-88.9c2.2-1.9,3.5-3.8,3.5-6.8c0.1-4.9,1.4-9.6,3.6-14
	c6-11.8,17.9-16,30.2-10.3c4.1,1.9,7,1.5,10.9-0.3c71-32.8,141.8-32.8,212.6,0c1.9,0.9,3.5,2.4,5.9,0.7c17-11.5,36.3-2.3,38.3,22.1
	c0.4,4.4,1.8,7.1,5,9.9c48.2,42.1,77.6,94.9,86.1,158.2c10.5,78.2-19.2,140.4-80.1,188.4c-36.4,28.7-78.5,44.6-124.3,50.8
	C280.8,483.8,268.2,484.4,250.2,484.7z"/>
<path style="fill:#FDFDFD;" d="M211.6,131.1c-3.2,4.4-8.4,6-12.7,8.9c-21.6,14.9-33.6,35.3-37.3,61.2c-2.4,16.7-5.4,33.4-5.2,50.4
	c0.2,15.2,2.5,30.2,11.7,43.1c0.6,0.9,1.3,1.8,0.2,2.8c-15.5-14.8-24.3-32.5-24-54.3c0.3-22,2.7-43.7,12-64
	C167.4,154.8,185.8,138.6,211.6,131.1z"/>
<path style="fill:#FDFDFD;" d="M81.5,145.5c0.2,1.2-0.2,2.1-0.8,3c-16.2,24.7-27,51.8-34,80.4c-4.5,1.1-9.1,2.3-13.7,3.4
	c-0.3,0.1-0.7-0.1-1.4-0.3c4.2-22.3,11.6-43.4,22-63.5c4-7.7,8.8-14.9,13-22.5c1.9-3.3,3.9-4.8,7.7-2.9
	C76.5,144.3,79.1,144.7,81.5,145.5z"/>
<path style="fill:#FAD74E;" d="M297,382.2c-11.7-2-21.8-7.2-30.8-14.8c-1.8-1.5-2.5-3.3-2.5-5.6c0.1-15,0.1-30,0-45
	c0-2.8,1.1-4.1,3.3-5.4c5.6-3.4,9.6-8.1,11.3-14.6c1.2-4.8-0.5-8.6-5.2-9.8c-11.3-3-22.9-3-34.2,0.1c-4.6,1.3-6.3,5.1-5,9.9
	c1.7,6.2,5.4,11.1,10.9,14.2c3,1.7,3.7,3.7,3.7,6.9c-0.2,14.5-0.2,28.9,0,43.4c0,2.8-0.9,4.8-2.9,6.5c-11.8,9.7-25.4,14.8-40.5,16.4
	c-3.2,0.3-4.9-0.8-6.3-3.6c-7.2-14.8-10.6-30.6-12-46.9c-0.5-6.5-0.6-13-0.6-19.5c0-2.4-0.9-3.6-2.7-4.7
	c-5.4-3.5-10.8-7.1-15.2-12.1c-12.3-17.7-14.4-37.4-12.8-58.3c1.2-15.3,3.6-30.4,6.3-45.5c5.2-29.1,22.6-48.3,48.1-61.4
	c0.6-0.3,1.4-0.4,1.7-1.2c10-3.9,20.5-5.1,31.1-5.8c26.8-1.8,52.9,0.6,77,13.8c2.8,1.5,5.4,3.6,8,5.4c4.5,7.5,5.3,16,7.2,24.3
	c3.8,17.1,6.3,34.4,6.4,52c0,2.5,0.4,5.1-1.5,7.2c-2.5,1.2-3.6-0.9-4.9-2.2c-6.8-6.6-14.7-8.8-23.8-6c-8.4,2.6-16.2,6.3-21.2,14
	c-4.8,7.4-2.9,15.8,5.2,19.4c11.8,5.3,23.8,5.5,35-2c1.5-1,2.8-2.4,4.8-2.3c4.4,1.5,2.8,4.9,2.1,7.7c-3.2,13.1-9.7,24.4-18.6,34.5
	c-11,12.6-16.8,27.2-16.3,44.1c0.3,7.6-0.2,15.1,0.9,22.7c1,7-0.5,14-1.9,20.9C300.7,380.8,300.2,383.2,297,382.2z M280,412.5
	c-21.1,9.8-54.7,3.4-67.6-13.4c3.3-0.7,6.4-1.4,9.4-2.2c11.4-3.1,22-7.8,31.3-15.3c1.5-1.2,2.7-2.6,5-0.7c9.8,8.3,21.5,13,33.7,16.5
	c0,5.3-4.2,8-7.2,11.4C283.4,410.3,281.5,411.2,280,412.5z M130.2,65.3c5.2,0.9,9,4.3,12.8,7.6c8.7,7.5,17.2,15.2,26,23.1
	c-12.4,5.4-23.2,12.8-33.2,21.2c-1.4-0.7-2-2.1-2.4-3.5c-4.6-14.7-7.6-29.6-4.7-45.1C128.9,67.4,129.2,66.2,130.2,65.3z
	 M369.2,109.5c-8.2-5.5-16.5-11-26.5-15.2c11.8-8.7,20.8-19.4,32.1-27.3c3.4-2.4,7.1-5.4,11.8-2.4c0.4,11.2-2.7,21.6-6.8,31.8
	c-1.4,3.5-3.2,6.9-5.5,9.9C373,107.9,371.8,109.9,369.2,109.5z"/>
<path style="fill:#FDFCFC;" d="M42.3,246c1.2,4.7-0.7,9.2-1.2,13.7c-2.6,22.1-3.7,44.2-2.3,66.5c0.1,2.3,0.9,4.7-0.6,6.8
	c-6.1-17.6-10-35.6-10.6-54.3c-0.3-7.9,0.5-15.8,0.6-23.7c0.1-3.8,1.4-5.9,5.3-6.6C36.5,247.9,39.4,246.8,42.3,246z"/>
<path style="fill:#FFB600;" d="M369.2,109.5c7.3-6.1,10.3-14.6,12.7-23.3c2-7.1,3.1-14.4,4.7-21.5c4.3,3.3,4.9,8.3,5.2,13.1
	c0.6,14.4-3.1,28.1-7.3,41.8c-0.7,2.4-1.5,2.4-3.2,0.9C377.2,116.7,373.2,113.1,369.2,109.5z"/>
<path style="fill:#FCFCFB;" d="M130.2,65.3c-2.7,17.8,0.2,35,5.6,51.9c-1.9,2.4-3.8,4.7-6.6,8.2c-5.2-16.7-9.6-31.5-8.6-47.2
	c0.2-3.6,1.1-7.2,3.2-10.2C125.3,65.7,127.4,64.5,130.2,65.3z"/>
<path style="fill:#14C0FF;" d="M484,272.4c0.9,30.5-7,58.7-21.8,85.2c-2.1,3.8-3.3,3.9-6.6,1c-19.2-16.8-39.9-31.3-62.2-43.7
	c-8.7-4.8-17.5-9.4-26.6-13.2c-2.8-1.2-3.5-2.3-1.4-5c9.2-12.1,15.1-25.7,17.2-40.8c0.8-5.6,0.5-11.2,0.3-16.8
	c-0.1-4,1.5-5.3,5.1-4.5c9.1,1.9,18.3,0.8,27.4,1.8c21.7,2.3,43,6.3,63.9,12.2c3.3,0.9,4.5,3.2,4.5,6.5
	C484,260.8,484,266.6,484,272.4z M358.1,314.8c30.8,13,58.4,31,83.8,52.6c9.7,8.3,9.5,8.2,0.4,19c-14.5,17.2-31.1,31.9-50,44.2
	c-3.9,2.5-5.4,2.3-7.1-2.2c-9.9-25.5-23.6-48.9-39-71.4c0.2-5.1,2.5-9.7,3.8-14.6c2-7.8,4.5-15.6,5.8-23.6
	C356,317.3,356.5,315.8,358.1,314.8z M479.6,227.6c0.3,3.8-0.4,4.9-3.6,4c-17.4-4.6-35-8-52.8-9.9c-12-1.3-24-1.9-36.1-2.3
	c-4.3-0.1-5.7-1.9-6.1-5.6c-1.4-11.8-3.7-23.4-8.5-34.4c-1.9-4.4-1.3-6.9,3.4-9.3c19.8-10.4,40.1-19.6,61.3-26.7
	c4-1.3,6.1-0.6,8.4,3c15.8,24.8,27.3,51.4,33.9,80.2C479.6,227.1,479.7,227.8,479.6,227.6z M338.7,374.3
	c14.1,19.6,24.3,41.3,33.8,63.4c1.4,3.3-0.3,4.1-2.5,5.2c-19.8,10-40.6,16.7-62.2,21.3c-3.7,0.8-3.9-1.1-3.9-3.8
	c0.2-10.6-0.9-21.2-2.1-31.8c1.3-3.1,3.7-5.3,5.8-7.7c12.2-13.7,21.8-29,30-45.4C337.8,375,338.2,374.6,338.7,374.3z M347.2,140
	c1-0.7,1.1-1.7,0.8-2.8c-2.4-8.9-4.8-17.7-7.3-26.6c16.9,7.8,30.3,19.8,41.2,34.7c1.3,1.8,2.1,3-0.8,4.4c-5.4,2.5-10.6,5.5-15.7,8.5
	c-1.8,1-2.9,1.2-4-0.6C357.7,151,352.3,145.7,347.2,140z M431.6,127.8c-0.5,1.7-2.1,1.9-3.4,2.4c-8.9,3.3-17.8,6.7-26.8,9.9
	c-1.3,0.5-2.8,2.5-4.3,0.7c-1.2-1.6-2.7-3.5-1.8-5.9c3.8-10.7,7.1-21.5,9.3-32.6c0.4-1.9,1.1-2.8,2.7-1.2
	c8.4,7.9,16.3,16.2,23.3,25.4C431.2,126.8,431.4,127.3,431.6,127.8z M249.6,468.8c13.2-7.9,26.1-16.2,37.9-26c0.2,7,1.7,13.9,1.2,21
	c-0.2,2.5-0.6,3.8-3.6,4.1C273.3,468.9,261.4,469.1,249.6,468.8z"/>
<path style="fill:#FBFBFB;" d="M91.3,132.6c-3.7-1.3-7.4-2.6-11.8-4.1c7.9-10.5,16.8-19.6,26.7-28.7c1,4.1,1.8,7.6,2.6,11.1
	c0.3,0.7,0.5,1.5,0.2,2.1C104.3,120.7,99.2,127.9,91.3,132.6z"/>
<path style="fill:#8EDAF6;" d="M42.3,246c24.8-6.1,49.9-10.5,75.6-10.5c3.6,0,8.2-3.3,10.6,0.4c1.7,2.6,0.6,7,0.5,10.6
	c-0.1,18,5.9,33.9,16.3,48.3c3.9,5.4,3.9,5.2-2.3,7.9c-26.7,11.8-51.1,27.4-74,45.5c-4.7,3.7-9.2,7.5-13.6,11.5
	c-2.3,2.1-3.4,1.7-4.9-0.8c-5-8.2-8.6-17-12.4-25.8c-0.5-10.4-2.6-20.7-1.9-31.2c1.1-16.9,1.7-33.9,4.5-50.6
	C41,249.3,41.7,247.7,42.3,246z M172.3,345.3c0.4,2.1-0.2,3.7-1.5,5.4c-18,24.3-32.8,50.5-44.2,78.5c-1.5,3.7-3.1,3.5-5.9,1.7
	c-22.2-14-41-31.7-57.2-52.3c-2.3-3-1-4.7,1.2-6.7c15.4-13.9,32.1-26.2,49.9-36.9c13.4-8.2,27.4-15.3,41.9-21.5
	c4.4-1.9,13.3,2.8,13.8,7.6C171.2,329.2,171.6,337.3,172.3,345.3z M81.5,145.5c18.9,6.7,36.8,15.5,54.6,24.6
	c4.2,2.2,5.6,4.2,3.5,9.2c-4.5,10.6-7.2,21.8-8.4,33.4c-0.5,4.6-2,6.8-7.6,6.9C97.7,220,72,223.3,46.7,229c-1.2-4.5,0.9-8.5,2-12.6
	c6.7-23.8,16.6-46.2,29.8-67.1C79.3,147.8,80.1,146.4,81.5,145.5z M309.2,49.1c-10.9,17.5-20.1,34.9-27.6,53
	c-0.8,1.8-1.5,3.7-2.2,5.5c-0.8,2.1-2,2.9-4.5,2.6c-12.4-1.3-24.8-1.2-37.2,0c-2.5,0.2-3.7-0.4-4.6-2.6c-7.6-19-16.8-37.1-27.4-54.6
	c-2.4-4-0.2-4.9,3.3-5.6c23.1-4.3,46.4-5.5,69.9-3.3C288.8,45.2,298.7,46.6,309.2,49.1z M177.7,369c4.2,12.8,9.4,24.2,17.3,34.4
	c3.8,4.9,8.1,9.2,12.8,13.2c2.6,2.2,3.5,3.9,3,7.6c-1.4,11.8-2.9,23.6-2.4,35.6c0.2,4-0.6,5.3-5.2,4.3
	c-20.9-4.4-41.1-10.9-60.2-20.5c-3.4-1.7-4.3-3-2.7-6.9c9.2-21.9,19.9-42.9,33.1-62.6c0.7-1,1.4-2.1,2.2-3.1
	C176,370.3,176.6,369.9,177.7,369z M249.6,468.8c-7.6,0.7-15.1-0.8-22.7-1c-2.6-0.1-3.4-1.2-3.4-3.7c0-11.2,0.8-22.3,2.1-33.4
	c0.3-2.9,1.3-3.1,3.8-2.3c17.7,5.9,35.4,5.7,53,0.1c2.8-0.9,4.1-0.8,4,2.5c0,4,1.6,7.8,1,11.8c-1.8,4.1-5.6,6.1-8.8,8.6
	c-6.9,5.3-14.3,9.8-21.6,14.5C254.7,467.4,252,467.7,249.6,468.8z M210.7,100.9c2.4-0.6,3.2,1.5,4.1,3.6c3.6,8.4,3.5,8.2-5.1,10.8
	c-23.8,7.2-44,19.8-58,40.9c-2.2,3.3-3.7,3.4-6.8,1.4c-3.9-2.5-8.1-4.7-12.4-6.6c-3.1-1.4-3.7-2.8-1.6-5.6
	c13.6-17.5,30.4-30.5,51.5-37.9C191.5,104.2,200.8,102.3,210.7,100.9z M347.2,140c-14.3-13.1-31-21.5-49.7-26.1
	c-2.8-0.7-3.5-1.6-2.4-4.4c4-10.7,4.2-10.9,15.6-8.8c10.5,1.9,20.7,4.7,30.1,9.9c1.8,1.1,2.5,3,3.1,4.9c2,6.4,3.5,12.9,5,19.3
	C349.3,136.7,350.5,139.2,347.2,140z M188.9,55.5c6.6,11.4,13.6,22.6,19.7,35.6c-6.5-2.9-12.1-3.9-18.1-2.2
	c-3.2,0.9-5.9-1.3-8.4-2.9c-6.9-4.3-12.7-9.9-18.4-15.6c0-2.1,1.8-2.5,3.1-3.3C174,62.6,181.4,59,188.9,55.5z M358.1,314.8
	c-2.5,13.8-6,27.3-10.8,40.5c-0.2,0.6-0.7,1.2-1.1,1.8c-10.3-8.2-5.1-19.1-4.7-29c0.2-4.2-0.4-8.7,4.7-12.3
	C350.6,312.6,353.8,312.3,358.1,314.8z M332.2,82.5c-3.7,3.2-7.4,5.6-13,4.5c-4.4-0.9-9.3-1.1-13.9,1.2c5.4-11.2,10.7-22.1,18-32
	c1.7-0.3,2.3,1,2.7,2.1c2.5,6.7,4.8,13.6,6.8,20.5C333.2,80.2,332.8,81.4,332.2,82.5z M332.2,82.5c-2.3-9-5-17.8-8.9-26.3
	c0.3-2.5,1.7-2.8,3.8-2.1c8.6,2.8,16.9,6.1,25.5,10.2C346.1,71.3,340,77.8,332.2,82.5z M91.3,132.6c5.6-6.2,11.2-12.4,16.7-18.7
	c0.6-0.7,0.5-2,0.7-3c2.5,8.4,5,16.7,7.7,25c0.7,2.1,0.2,3.6-0.9,5c-1.4,1.8-3,0.3-4.4-0.3C104.5,138,97.9,135.3,91.3,132.6z
	 M338.7,374.3c-1.7,7.9-6.6,14.3-10.6,21c-7.4,12.1-15.6,23.7-26.2,33.3c-2.1-6.7,0.8-11,5.9-15.3c12.7-10.6,19.9-25,25.4-40.3
	c0.3-0.8,0.6-1.7,1-2.5c0.1-0.3,0.4-0.6,0.7-0.9C336.8,370.5,338.1,372.1,338.7,374.3z"/>
<path style="fill:#F8F7F6;" d="M188.9,55.5c-0.3,2.3-2.4,2.5-3.9,3.2c-7.2,3.6-14.4,7.3-21.2,11.6c-6.5-5.1-6.6-5.2,0.9-8.4
	c6.3-2.6,12.7-5,19.1-7.4C185.6,53.8,187.6,53,188.9,55.5z"/>
<path style="fill:#FFB600;" d="M338.4,228c2.7-5.5,1.5-11.4,1.1-16.9c-1.5-19.5-4.9-38.8-9.7-57.7c-0.7-2.9-2.4-5.7-2.1-8.9
	c16.4,11.1,26.2,27.1,32.3,45.4c6.5,19.4,8.8,39.6,7.5,59.8c-1.7,25.3-15.8,43.6-36,57.6c-3.9,2.7-5.5,5.2-5.6,10.3
	c0,20.9-3,41.3-11.5,60.7c-2.4,5.5-5.6,6.9-10.8,5.5c-2.2-0.6-4.5-1.1-6.8-1.7c1-0.3,2.2-0.5,2.4-1.8c1.2-8.7,2.7-17.2,1.8-26.2
	c-2.1-21.4-1.5-42.7,12.9-60.7c6-7.4,12.5-14.4,16.5-23.2c2.4-5.3,4-10.8,5.7-16.3c0.5-1.6,1-3.7-1.6-4.4c-0.1-0.1-0.3-0.4-0.3-0.4
	C337.8,242.6,338.5,235.3,338.4,228z M280,412.5c3.9-5.1,9.1-9.1,11.9-15.1c2.5,0.6,6.7,0.1,7.1,2c0.6,2.7-3.2,4.2-5.4,5.8
	C289.4,408.4,285.1,411.2,280,412.5z"/>
<path style="fill:#8E4C00;" d="M200.2,258.1c-5.2,0-10.3-1.1-15.1-3.3c-9.8-4.7-14.9-14.6-12.3-24c2.3-8.5,13.1-15,23.4-13.6
	c9.8,1.3,18.3,5.6,25.1,12.7c9,9.3,6.1,21.4-6.1,25.8C210.4,257.5,205.4,257.9,200.2,258.1z M338.4,228c2.9,8,1.2,15.1-3.9,21.7
	c-11.1,9.7-23.9,10.3-37.1,6.2c-12.9-4-15.8-16.6-6.3-26.3c6.9-7.1,15.4-11.4,25.3-12.3C325.6,216.4,333.2,220,338.4,228z"/>
<path style="fill:#FDFDFD;" d="M200.1,250.4c-4.3-0.3-8.4-0.8-12.1-2.8c-5.8-3.2-8.9-8.8-7.8-14.1c1-4.6,6.7-8.7,13.1-8.5
	c9.4,0.4,17.4,4.3,23.4,11.6c3.6,4.4,2.3,8.9-3,11.3C209.3,250,204.6,249.9,200.1,250.4z"/>
<path style="fill:#FDFDFD;" d="M310.3,250.3c-4-0.5-8.8-0.3-13-2.9c-3.7-2.3-5.3-5.4-3-9.5c4.5-8.1,19.9-14.7,28.7-12.2
	c9.7,2.7,12.1,12,4.9,19.1C324.2,248.5,318.2,250.4,310.3,250.3z"/>
<path d="M198.9,247.3c-3.3-0.2-6.4-0.6-9.2-2.1c-4.4-2.5-6.8-6.7-5.9-10.7c0.8-3.5,5.1-6.6,10-6.4c7.2,0.3,13.3,3.3,17.9,8.9
	c2.8,3.3,1.7,6.8-2.3,8.6C206,247.1,202.3,247,198.9,247.3z M310.8,247.6c-3.2-0.4-7-0.3-10.3-2.3c-3-1.8-4.2-4.2-2.3-7.6
	c3.5-6.4,15.8-11.6,22.7-9.7c7.7,2.2,9.6,9.5,3.8,15.1C321.8,246.3,317.1,247.8,310.8,247.6z"/>
</svg>
