<?xml version="1.0" encoding="utf-8"?>
<!-- Generator: Adobe Illustrator 23.0.3, SVG Export Plug-In . SVG Version: 6.00 Build 0)  -->
<svg version="1.0" id="Layer_1" xmlns="http://www.w3.org/2000/svg" xmlns:xlink="http://www.w3.org/1999/xlink" x="0px" y="0px"
	 viewBox="0 0 602 601.9" style="enable-background:new 0 0 602 601.9;" xml:space="preserve">
<path style="fill:#F0C419;" d="M184.1,128.3c16.2-11.8,30.4-21.1,41.2-27.7c58.7-36.2,87.4-38.2,103.5-41.1c1.5-0.3,3-0.9,4.8-0.1
	c-0.5,4.3-2.5,8-4.7,11.6c-24,39.5-51.7,76-86.2,107c-17.9,16.1-38.8,27.7-60.1,38.5c-17.9,9.1-36.3,17.5-52.6,29.6
	c-12.5,9.3-22.7,20.3-27.3,35.7c-3.5,11.8-2.8,23.5-0.3,35.3c0.5,2.3,1.6,4.4,1,7.3c-3-2.3-4.1-5.6-6.2-8.3
	c-14.9-19.3-15.2-40.6-9.3-63c4.1-15.3,10.7-29.3,18.9-42.7c3.9-6.4,7.7-12.9,12.5-18.6c0.9-1.7,1.8-3.3,2.6-5
	c8.7-9.6,17.4-19.3,26-28.9C160,148,172.1,138.1,184.1,128.3z M498.7,277.4c13.4,17.2,21.9,35.2,18.1,57.8
	c-5,30.1-18.8,56-37.8,78.9c-51.6,62-115.9,104.8-194.1,125.9c-4.9,1.3-10,2-14.9,2.9c-0.5,0.1-1.1-0.2-1.7-0.4
	c0.4-3.5,1.9-6.5,3.5-9.3c25.7-43.2,55.9-82.6,94.4-115.2c15.3-13,32.9-22.4,50.7-31.4c15.3-7.8,30.9-15.1,45.5-24.3
	c9.3-5.8,18.1-12.4,25.2-20.8c14.8-17.6,16.6-37.7,11.5-59.2C498.9,280.8,498.1,279.4,498.7,277.4z M291.7,27.7
	c-65.1,9.6-119.3,37.9-165.2,82.6c-22.5,21.9-42.1,45.8-53.6,75.5C55.8,230,62.7,271.7,85.4,311.9c6.2,10.9,13.3,21.2,21,31.1
	c4.9,6.3,5,17.6,0.4,25.4c-3.9,6.5-11,9.5-20,7.7c-10.6-2.2-18.8-8-23.1-18.1c-16.3-38.2-25.1-78-24.8-119.7
	c0.3-39.5,12.8-75.2,32.5-108.8c21.4-36.7,48.7-67.6,86.7-87.8c34.9-18.5,72-23.9,110.9-18.5C276.2,24.2,283.3,25.2,291.7,27.7z
	 M311.5,574.1c63.4-9.3,117.3-37.3,163.1-81.5c19.8-19.1,37.5-40,49.6-65c21.7-45.1,18.1-89.4-5-132.8
	c-6.7-12.6-14.7-24.5-23.6-35.7c-4.9-6.2-5.1-17.6-0.5-25.4c3.9-6.6,11.4-9.7,20.5-7.6c10.1,2.3,18.2,7.8,22.3,17.4
	c15.7,36.3,24.3,74.1,25.2,113.8c0.9,42.2-11.9,80.4-33.1,116.3c-21.4,36.2-48.5,66.8-86.1,86.8c-31.6,16.7-65.4,22.9-101,19.6
	c-8.8-0.8-17.5-2.2-26.1-3.8C314.9,575.7,312.9,575.6,311.5,574.1z"/>
<path style="fill:#14C0FF;" d="M511.7,217.3c-5.1,0.1-9.3,0.6-13.2,2.7c-1.7,1-2.8,0.4-4-0.8c-9.3-9-20.9-14.2-32.6-19.4
	c-12.7-5.6-25.5-11-37.1-18.7c-22.3-14.8-32.8-36.2-35.9-62.3c-1.6-13.9,1.5-27.7-0.8-41.6c-0.9-5.2-2.6-10.1-4.1-16.3
	c14.7,10.3,22.1,23.6,22.6,40.4c0.3,11,1,21.9,3.9,32.5c6,21.6,20,36.4,39.7,46c11.2,5.5,22.8,10.1,34.2,15.4
	C494.9,200.3,505,205.9,511.7,217.3z M90.4,384.7c4.9-0.2,9.2-0.6,13-2.7c1.7-0.9,2.8-0.5,4.1,0.7c10.7,10.3,24.2,15.7,37.4,21.5
	c10.7,4.8,21.4,9.5,31.3,15.9c22.7,14.7,33.9,36.1,36.6,62.5c0.8,7.8,1.1,15.6,0.4,23.4c-1,11.6,0.4,23,5.2,35.2
	c-15.1-10.6-22.5-23.7-23.1-40.5c-0.3-9.8-0.8-19.5-3-29.1c-5.1-22.3-18.5-37.9-38.3-48.6c-12.2-6.6-25.4-11.2-37.9-17.2
	c-5.7-2.7-11.1-5.8-16-9.7C96.2,393.1,93,389.6,90.4,384.7z M75,536.7c-17.8-22.1-26.8-46.6-21.6-75.2c3.2-18.1,7.3-36,8.3-54.5
	c0.1-1.1,0.5-2.2,1.1-4.2c8,17,10.2,34,8.6,51.6c-0.9,10.3-2.2,20.6-2.9,31C67.2,502.9,68.9,520.1,75,536.7z M527.1,65.5
	c18,22.4,26.8,47.3,21.2,76.4c-3.6,18.6-7.4,37.2-8.9,56.2c-6.1-10.9-8.4-22.7-9.2-34.9c-0.7-12.4,1.1-24.6,2.4-36.8
	C534.9,105.6,534.3,85.3,527.1,65.5z M430.5,575.8c7.6-3.9,15-7.6,22.4-11.4c1.3-0.7,2.6-0.7,4-0.3c13,4.1,26.4,6.4,40.3,6.9
	C487.1,583.3,451.3,581.5,430.5,575.8z M267.7,165.9c1.4,20-0.3,38.8-6.3,57.2c-0.9,2.7-1.8,3.2-3.9,1.4c-0.5-0.4-0.9-0.7-1.4-1
	c-9-6.4-9-6.3-4.7-16.6c3.8-9,6.8-18.4,7.9-28.1C259.8,173.1,262.4,169.4,267.7,165.9z M334.3,436.3c-1.4-20.2,0.3-38.8,6.1-57.1
	c0.9-2.8,1.7-3.3,4.3-1.6c10.2,6.4,10.4,6.7,5.8,17.8c-3.8,9.2-6.9,18.8-7.9,28.7C342,429.7,338.8,432.5,334.3,436.3z M137.7,43.9
	c-6.8,5.3-13,10.1-19,15c-1.6,1.3-2.8,1.6-4.5,0c-5.1-5-9-10.8-12.3-17.1c-1.9-3.6,1-2.9,2.7-2.9C115.7,38.8,126.4,40.7,137.7,43.9z
	"/>
<path style="fill:#F29C1F;" d="M98.8,209.3C87,227.2,80,246.9,76.9,269.4c-3.6-9.1-4.5-17.7-5-26.3c-2-35.7,9.9-67.1,31.4-94.8
	c41.9-53.9,95.4-90.9,162-107.7c17.6-4.5,35.6-7,53.9-6.7c7.2,0.1,14.7,7.3,15.2,14.4c0.2,3.2-2,2.3-3.5,2.5
	c-19.3,3.5-38.1,8.8-56.2,16.2c-26.5,10.9-51.9,23.8-75,40.8c-10.4,9.5-22.4,16.8-33,26.1C144.3,153.4,123,174,106.5,199
	C104.3,202.7,101.3,205.8,98.8,209.3z M525.4,334.6c4.7,14.7,5.8,29.8,4.2,45c-3.9,36.4-22,65.8-46,92.2
	c-33,36.2-71.8,63.8-117.9,80.7c-27.1,9.9-55.1,15.8-84.2,15.5c-6.1-0.1-14.9-9.3-14.1-14.9c0.4-3,3.5-2.3,5.2-2.5
	c14.2-2,27.8-6.1,41.3-10.8c44-15.4,83.4-39.1,119.5-68.5c24.7-20.1,46.8-42.7,64.5-69.4C511.4,381.3,521.7,359.4,525.4,334.6z
	 M68.4,542.3c-13.2-8.2-24.9-17.9-34.3-30.1c-12.8-16.6-16-34.8-9.9-54.7c2.7-8.8,6.3-17.2,10.3-25.5c6.5-13.5,13.3-26.8,19.2-40.7
	c1,12.4-0.5,24.7-2.5,36.8c-2,12.3-4.4,24.6-6.3,37c-3.9,24.9,3.1,47.1,17,67.6C64,536,66.2,539.2,68.4,542.3z M527.5,196.1
	c-5.6-6-11.2-11.9-16.8-17.9c-12.2-13.1-15.2-28.6-12.3-45.7c1.4-8.4,7.1-14.2,13-19.7c7-6.5,11.5-14.3,12.1-24.1
	c1.8,3.6,1.8,3.6,2,7.2c1,13.9-0.2,27.8-1.9,41.6c-2.4,19.6-2.1,39,5.2,57.8C528.3,195.5,527.9,195.8,527.5,196.1z M384.6,139.9
	c0.9,2.5,1.7,5,2.6,7.4c7.7,20.4,22,34.7,40.7,45.2c12.5,7,25.8,12.1,38.7,18.1c7.6,3.6,15,7.5,21.3,13.2c1.9,1.7,2.5,2.9,0.8,5.3
	c-2.9,4-3.9,8.8-4.5,13.8c-2.2-0.4-2.7-2.3-3.7-3.6c-8.7-11.5-20.1-19.4-33.2-25.3c-11-5-22.5-8.8-33.1-14.8
	c-13.2-7.4-24.9-16.2-29.1-32C382.8,158.2,383.2,149.2,384.6,139.9z M218.7,461.8c-4.6-9.5-8.6-18.9-14.9-27.3
	c-12.2-16.2-29.1-25.6-47.1-33.7c-8.5-3.9-17.1-7.7-25.6-11.6c-5.2-2.4-9.8-5.6-14.5-8.8c-3.8-2.7-5.7-5.2-2.2-9.7
	c2.4-3.2,2.9-7.5,3.5-12.6c7.4,10.4,15.6,18.5,25.9,24.5c9.7,5.6,20.1,9.5,30.3,13.8c8.5,3.6,16.6,7.8,24.1,13.1
	c13.8,9.8,20.4,23.2,20.4,40C218.7,453.6,218.7,457.7,218.7,461.8z M321.9,449.6c-8.2-23.8-7.9-47.1-1.6-70.5
	c0.6-2.1,1.2-4.1,1.9-6.2c2.5-7.9,2.5-7.8,9.5-3.7c2.3,1.3,2.9,2.6,2.1,5.1c-7.2,21.5-9.6,43.5-6.9,66
	C327.4,444.5,325.6,447,321.9,449.6z M171.9,25.8c-8,4.1-15.3,7.7-22.5,11.5c-1.7,0.9-3.4,0.8-5.1,0.3c-12.7-4.2-25.8-6.3-39.3-6.7
	C112.6,19.8,144.1,19.6,171.9,25.8z M240.9,210.3c-11.9-10.6-11.9-10.6-0.6-19.8c3.2-2.6,6.3-5.2,10.3-8.6
	C248.7,192.4,245.5,201.3,240.9,210.3z"/>
<path style="fill:#8EDAF6;" d="M535.3,226.4c-7.4-4.5-14.3-7-18.1-14.9c-4.7-9.9-13.9-15.8-23.6-20.4c-10.9-5.2-22.1-9.8-33.2-14.8
	c-22.6-10.3-39-25.9-43.7-51.4c-1-5.2-1.9-10.4-1.8-15.7c0.4-18.6-4.3-35.2-18-48.7c14.5,5.1,24.8,14.7,31,28.7
	c2.7,6.1,4.3,12.6,4.6,19.3c0.7,18.4,8.8,32.9,23.1,44.3c8.9,7.1,18.9,12.6,28.7,18.2c12.5,7.1,24.5,14.7,34.3,25.4
	C526.5,204.7,532.1,214.2,535.3,226.4z M67.4,376.1c7.7,3.7,14,7.8,18.2,15.7c5.5,10.3,15.8,16,26.2,20.9
	c10.6,4.9,21.5,9.4,32.1,14.3c29.4,13.4,43.1,36.8,43,68.7c0,17.7,5.2,33.1,18.3,45.6c-7.8-0.9-19-8.9-25.5-18
	c-6.3-8.8-9.9-18.7-10.4-29.5c-0.9-19.4-9.6-34.3-24.8-45.8c-12.1-9.1-25.7-15.7-38.4-23.7c-16.3-10.4-30.2-23-37.4-41.6
	C68.1,380.7,66.8,378.8,67.4,376.1z M547.9,211.9c-0.6-16.2,1.5-30.6,3.9-45c1.8-10.4,3.7-20.8,5.3-31.2
	c4.1-26.4-4.6-49.3-19.6-70.5c-1.2-1.7-2.4-3.6-3.6-5.4c-0.1-0.1,0.1-0.3,0.5-1.1c19.9,15.2,39.8,30.2,45.5,56.5
	c2.7,12.7,0.2,25.1-4.8,36.7C566.6,171.7,557.4,191,547.9,211.9z M78.7,513.5c-2.3-2.9-1.9-5.4-2.1-7.7c-1.5-17.1,1.1-33.9,2.7-50.8
	c1.4-15.2,0.2-30-4.7-44.5c-0.2-0.7-0.2-1.5-0.5-3.1c14.4,12.9,28.6,24.5,30.3,45.2c1.1,13-1,24.5-10.9,33.6
	C85.7,493.5,79.1,501.3,78.7,513.5z M280.1,152.5c6.4,17.6,7.4,35.1,5.2,52.9c-1.1,8.7-3.1,17.3-6.3,25.5c-0.7,1.7,0,5.9-3.8,4
	c-3-1.6-9-1.5-6.7-8c2.6-7.4,4.4-15,5.6-22.7c2.2-13.8,3.1-27.6,1.2-41.4C274.6,158.6,275.5,155.2,280.1,152.5z M464.2,558
	c6.8-5.3,12.8-9.9,18.6-14.7c2.8-2.3,4.9-1,6.4,1.1c3.5,4.6,6.8,9.5,10.1,14.3c2,3.1,1.2,4.4-2.6,4.4
	C485.9,563,475.5,561.1,464.2,558z M351.4,420c1.9-10.5,5.1-19.5,9.5-28.1c0.7,0.3,1.1,0.4,1.3,0.6c10.7,9.8,10.7,9.8-0.3,18.8
	C358.7,413.9,355.4,416.7,351.4,420z"/>
<path d="M295.8,76.6c4.5,0.1,8,3.8,8,8.4c0,4.9-3.7,8.4-8.7,8.2c-4.4-0.2-8.1-4.2-7.9-8.5C287.4,80.2,291.5,76.4,295.8,76.6z"/>
<path d="M306.6,508.8c4.5,0.1,8.3,3.9,8.2,8.2c0,4.4-3.9,8.2-8.3,8.3c-4.6,0.1-8.6-4.1-8.4-8.7C298.2,512.1,301.9,508.7,306.6,508.8
	z"/>
</svg>
