<?xml version="1.0" encoding="utf-8"?>
<!-- Generator: Adobe Illustrator 23.0.3, SVG Export Plug-In . SVG Version: 6.00 Build 0)  -->
<svg version="1.0" id="Layer_1" xmlns="http://www.w3.org/2000/svg" xmlns:xlink="http://www.w3.org/1999/xlink" x="0px" y="0px"
	 viewBox="0 0 512.2 512.2" style="enable-background:new 0 0 512.2 512.2;" xml:space="preserve">
<path style="fill:#8E4C00;" d="M78.5,201.5c-6.2-4.5-11.7-9.3-16.4-14.9c-15.6-18.3-20-39.7-17.6-63c1-9.8,1-19.6,0.6-29.5
	c-0.2-5.2-2-9.5-6.1-13.1c-5-4.4-9-9.5-8.6-16.7c0.5-7.9,5.6-13.5,14.2-15.1C72.4,44,102.7,55,113,90.3c3,10.3,5,20.7,5.4,31.4
	c0.2,5.1,2.7,6.8,7.1,7.5c11.5,1.9,23.2,2.7,34.4,6.1c7.2,2.2,12.5,0.6,18.8-3c52.1-28.8,103.5-27.3,154,4.5
	c2.9,1.9,5.3,2.5,8.6,1.3c14.4-4.8,29.5-6.4,44.5-8.8c4.9-0.8,7.5-2.3,7.8-7.9c0.7-11.5,2.9-22.7,6.3-33.8c9.8-30.9,38-44,67.3-38.4
	c14.5,2.7,19.9,17.8,9.3,27.8c-8.9,8.4-10.1,17.7-9.7,28.4c0.4,9.5,1.1,19,1.4,28.4c0.7,29.2-11.6,51.7-35.4,68.1
	c-1,0.7-1.9,1.3-2.9,2c-0.1,0.1-0.2,0.2-1.1,1.3c3.9,3.6,8.1,7,11.7,11c8.9,10.1,16.4,21.2,17.6,35.1c2.3,28.5-24.7,49.6-52,41
	c-4.8-1.5-9.3-3.5-13.6-6.1c-1.9-1.2-2.7-1.1-3.3,1.3c-6.5,22.9-18.2,42.7-34.9,59.6c-1.4,1.4-1.9,2.9-2.2,4.8
	c-1.7,11.7-2.5,23.5-2.6,35.4c-0.1,9.7-1.1,19.3-3.5,28.7c-6.6,25.4-22.6,41.6-48.6,45.5c-30.4,4.6-61.2,5-91.5-0.3
	c-27.6-4.9-43.4-22.2-48.7-50c-1.7-9-2.3-18.2-2.4-27.3c-0.1-9-1-18-1.8-26.9c-0.4-5.4-2.4-9.5-6.3-13.5
	c-14.8-15.6-25.1-33.9-31.1-54.5c-1.1-3.7-2.1-3.8-5.2-2c-10.1,5.7-20.8,9.1-32.5,6.7c-24.2-5.1-37.7-29.8-29.2-53.1
	c5.1-14.2,14.8-25.1,25.6-35.2C75.6,204.1,76.9,202.9,78.5,201.5z"/>
<path style="fill:#8EDAF6;" d="M54.1,62.3C69.3,61.6,82.3,66,92,78.4c1.4,1.8,2.8,3.7,3.1,6.1c3.9,9.4,5.1,19.2,4.5,29.3
	c-0.3,6,0.7,11.9,1.3,17.9c0.9,8.7,6.2,14,15.6,14.6c10.6,0.7,21.2,0.6,31.8,1.1c10.3,1.8,20.5,4.3,30,8.9
	c16.8,8.2,22.1,24.7,13.2,41c-1.3,0.9-2.7,1.2-4.3,1.1c-24.8-1.9-49.4-4.4-72.7-13.9c-3.7-1.5-7.3-3.3-10.8-5.2
	c-13.9-7.5-21.4-19.5-24.5-34.6c-2.1-10.1-2.6-20.4-3.4-30.7c-0.7-9-1.7-17.9-4.9-26.4c-3.2-8.4-8.5-15-16-19.8
	c-0.6-0.4-1.2-0.7-1.7-1.1c-1.2-0.8-3.2-1.4-2.9-3.1C50.6,61.7,52.9,63.2,54.1,62.3z M319.2,194.1c-6.3-16.5-1.3-29.5,14.5-37.7
	c2.6-1.4,5.2-2.9,8.2-3.3c3.1-1.1,6.4-1.4,9.6-2.4c13-3,26.1-4.4,39.4-4.9c18.6-0.8,27.2-9.2,27.8-27.9c0.1-4.5,0.1-9,0-13.5
	c-0.2-10.1,0-20.2,4.7-29.5c11.4-11.5,25.3-14.3,40.7-11.8c1.6,0.3,3.5,0.6,2.9,3c-1.8,1.5-3.8,2.7-5.9,3.6
	c-16.9,7.8-25.2,21.7-27.4,39.5c-1.4,10.9-1.8,21.9-2.1,32.8c-0.5,15-6.1,26.3-20.7,32.9c-13.3,6-27.2,10.1-41.3,13.3
	c-14.1,3.2-28.4,5.9-42.7,7.8C324.1,196.4,321.1,197.2,319.2,194.1z"/>
<path style="fill:#14C0FF;" d="M319.2,194.1c4.6,2.6,9.3,0.4,13.6-0.3c19.9-3.2,39.7-7,59.1-12.8c8.5-2.6,16.4-6.2,24.2-10.4
	c11.3-6.2,13.1-17.1,14-28.4c1.2-13.8,0.4-27.8,3.8-41.4c4.5-17.9,15.7-29.1,33-34.6c-0.3,1.6-1.5,2.6-2.6,3.5
	c-9.4,7.4-12.1,17.6-12,28.8c0.1,9.6,0.2,19.3,1.1,28.9c2.7,30.1-9.6,53.1-36.2,67.4c-14,7.5-29.5,9.9-44.7,13.4
	c-11.4,2.6-22.9,4.5-34.5,2C329,208.1,322.2,203.2,319.2,194.1z M54.1,62.3c-1,0.4-2.1,0.9-3.4,1.4c17.5,8.7,23.8,23.9,25.6,42.1
	c1.2,12.7,1.7,25.4,4,38c3.7,19.9,15.9,32.2,34.3,39.4c17.1,6.7,34.9,10.2,53.1,12c7.9,0.8,15.8,1.4,23.7,2.1
	c-5.1,10.7-14.7,13.3-25.2,13.8c-14.8,0.7-28.9-3.7-43.2-6.7c-14.9-3.2-28.7-8.4-40.6-18.1c-18.6-15.1-25.6-34.8-23.8-58.4
	c1.1-13.4,2.6-26.9,0.3-40.3C57.7,80.7,54,75.4,49,70.7c-1.7-1.6-4.9-3.1-3.6-5.9c1.1-2.4,4.3-2.2,6.7-2.5
	C52.7,62.1,53.4,62.2,54.1,62.3z"/>
<path style="fill:#FDFDFD;" d="M136.1,267.3c3.2,18.9,8.6,36.9,21.3,51.9c5,6,11.1,10.6,18.4,13.2c3,1,4.1,2.4,4.1,5.7
	c0.2,17,1.2,33.9,2.1,50.8c0.2,4.4,1.7,4.4,5.1,3.2c14.8-5.3,30.1-8.2,45.9-7.8c0.6,0.4,1.6,0.7,1,1.8
	c-21.5,3.4-41.5,10.4-59.3,23.1c-2.4,1.7-3.2,1.5-3.7-1.5c-1-6.2-2-12.5-1.9-18.8c0.2-14.2-1.5-28.2-3.2-42.3
	c-0.4-3.3-1.8-5.8-4.2-8.1c-16.6-15.9-27.5-35.2-33.7-57.3c-1.1-4-1-6.9,2.7-9.3C132.7,270.6,134.3,268.9,136.1,267.3z"/>
<path style="fill:#725C38;" d="M246.1,385c0.9-0.9,2.1-0.8,3.3-0.9c6-0.3,6.5-1.1,5.6-7.1c-0.8-5.9-1.6-11.8-1.8-17.7
	c-0.3-9.1-1.4-18.2-1.1-27.3c0.6-21.4,2-42.7,8.1-63.3c1.5-5.1,3.5-10.1,6-14.7c9.1-16.7,16-34.3,18.5-53.3
	c1.9-14.5,2.2-29.1,0.6-43.7c-1-8.9-1.5-17.8-2.3-26.7c12.2,2.5,23.3,7.7,34.2,13.5c3.7,2,4.1,3.7,0.6,6.2
	c-8.9,6.3-13.7,15.2-15,25.9c-2.4,18.8,6.6,39.9,26.1,46.5c5.2,1.8,8.6,4.4,11.4,9.2c9,15.1,20.3,28.4,33.2,40.3
	c3.1,2.8,4,5.4,2.8,9.5c-5.6,19.5-14.1,37.4-28.7,51.7c-7.3,7.1-9.5,15.2-10.6,24.9c-1.7,14.7-0.9,29.5-2.7,44.2
	c-0.3,2.5-0.2,4.4-3.7,2.3c-17.8-10.7-37.2-16.7-57.7-19.1C264,384.3,255,384.7,246.1,385z M433.1,275.2c-8.7,6.4-17.8,6-27.2,1.9
	c-13.7-6.1-24.3-16.1-34.1-27c-5.8-6.5-11.4-13.4-16-20.9c-0.8-1.3-3.5-3.6,0.8-4c16.2-1.6,31.8-6.1,47.5-9.9c0.6-0.2,1.3-0.1,2-0.2
	c1.3,0.2,2.1,1,2.8,1.9c11.4,14.4,20.6,29.8,23.9,48.2C433.4,268.5,433.6,271.8,433.1,275.2z M286,449c5.4-15.2,4.3-29.9-3.6-44
	c-0.7-1.3-1.6-2.5-2.3-3.8c14.4,1.7,27.6,6.8,40.3,13.7c0.4,0.2,0.8,0.6,1.2,0.9c9.1,5.5,9.1,5.9,2.7,14.7
	c-7.9,10.9-19.2,15.3-31.8,17.6C290.3,448.5,288.2,448.7,286,449z"/>
<path style="fill:#8A7A5C;" d="M246.1,385c-3,0.3-6,0.7-9,1c-0.3-0.8,0.4-1.1,0.9-1.4c-0.4,0.2-0.8,0.2-1.2,0.3
	c-1.4,0.4-2.9,0.2-4.4,0.3c-15.6,0.7-30.8,3.3-45.5,8.3c-4.3,1.5-5.8,0.2-6.1-4.4c-1-16.1-2.4-32.2-2-48.3c0.1-3.2-0.5-5.8-4-7.2
	c-14.1-5.5-22.6-16.6-29.1-29.6c-4.9-9.7-8-20.1-10.1-30.8c-0.4-2-0.9-3.9,0.5-5.8c9.3-10.6,18.8-21,26.3-33.1c1-1.5,2.1-3,2.9-4.6
	c1.5-3.2,3.7-4.4,7.3-4.7c19.5-1.7,34.3-17.3,36.7-36.7c1.5-12.7-1.2-23.6-9.3-33.4c-2.3-2.8-5.3-4.4-7.9-6.7
	c12.6-9.8,26.3-17,42.2-19.7c2.1-0.9,4.7-0.2,6.7-1.5c3.6-1.9,7.5-0.8,11.2-0.7c10.4,0.4,20.7,1,30.8,3.9c2.8,5.2,2.4,11,3,16.5
	c2.2,19.1,2.7,38.2-0.4,57.2c-2.3,14.2-6.3,28.1-13.3,40.7c-12,21.7-16.4,45-18,69.4c-1.4,21.4,0,42.5,1.9,63.7
	c0.4,4.7,0.9,7.5-6.3,6.9C248.7,384.5,247.3,384.3,246.1,385z M196.1,413c12.1-7,25.3-10.6,39-12.7c14-2.2,28.1-1.8,42.2-0.1
	c1,0.1,1.9,0.6,2.8,1c2.6,1.2,3.9,3.5,5.1,5.9c6.1,11.9,6.7,24.4,4.1,37.2c-0.4,2-1,3.9-3.1,4.8c-18.2,1.8-36.5,1.2-54.8,0.9
	c-10.5-0.2-21.1-1.1-31.2-4.7c-1.9-8.7-4.4-17.2-4.9-26.1C195,416.9,194.5,414.8,196.1,413z M99.9,213.3c12.9,3,25.8,6.1,38.6,9.1
	c3.1,0.7,6.2,1.4,9.3,1.7c2.9,0.2,3.7,1,2,3.5c-9.3,13.4-19.4,26.1-32,36.8c-7.4,6.3-15.2,11.9-24.7,14.6
	c-11.2,3.2-21.2-0.5-28.1-9.9c-1-1.3-1.8-2.8-2.7-4.1c7-19.9,19.6-36,34.9-50.1C98,214,98.9,213.6,99.9,213.3z M433.1,275.2
	c-2.3-2.7-0.9-6.1-1.4-9.1c-3.1-17.3-11.3-32-21.9-45.7c-1.3-1.7-2.5-3.5-3.7-5.2c2.3-0.9,4.5-1.9,6.8-2.8c1.7-0.6,3.2-0.4,4.6,0.9
	c8.8,8.3,17.6,16.7,23,27.9C447,254.5,444.7,265.4,433.1,275.2z"/>
<path style="fill:#FCFCFC;" d="M423.4,74.8c0.7,3.9-1.7,7.2-2.3,10.8c-1.5,8.4-0.8,16.9-0.9,25.4c-0.1,4.1-0.1,8.3-0.5,12.4
	c-1.7,16.3-11.8,22.7-27,23.6c-13.9,0.9-27.8,1.6-41.6,4c-0.2-0.2-0.3-0.4-0.2-0.6c0.1-0.2,0.2-0.3,0.3-0.3
	c12.3-3.5,25.1-4.6,37.6-7.1c2.4-0.5,4.8-1.2,7.2-1.9c6.9-1.9,10.4-6.5,11.2-13.6c1.2-11.6,2.5-23.1,6-34.3
	C415.3,86.5,418.4,80.2,423.4,74.8z"/>
<path style="fill:#FDFDFD;" d="M99.9,213.3c-8.4,8.5-16.8,17.1-23.5,27c-4.5,6.6-8.3,13.6-11.4,21c-0.5,1.3-0.1,3.6-2.6,3.6
	c-4.1-9.7-1.8-18.6,3.2-27.1c6.2-10.6,14.9-19.2,24.4-26.9C93.9,207.6,96.7,211.8,99.9,213.3z"/>
<path style="fill:#FCFBFA;" d="M148.2,147.4c-11.9,0.7-23.9,2.3-35.7-0.4c-9.3-2.1-12.5-7.4-13.5-16.8c-1.2-11.8,0-23.7-1.9-35.4
	c-0.5-3.4-1.3-6.8-2-10.2c6.1,10.7,7.6,22.6,8.9,34.4c2,18.9,4.2,21.6,22.6,24.9C133.8,145.1,141,146.2,148.2,147.4z"/>
<path style="fill:#FDFDFD;" d="M196.1,413c0.7,10.2,1.5,20.5,5.4,30.1c0.7,1.7,0,2-1.4,2.1c-8.8-3.3-16-8.5-21.2-16.5
	c-1.5-2.3-1.9-3.7,0.8-5.6C185,419.4,190.1,415.5,196.1,413z"/>
<path style="fill:#F6F6F5;" d="M235,129c-13.9,3.1-26.6,8.8-38.1,17.1c-1.4,1-2.6,2.6-4.8,2.1c-1.8-1.2-3.6-2.4-5.9-3.9
	c15.1-8.6,30.7-14.5,47.7-16.3C235,127.5,235.2,128,235,129z"/>
<path style="fill:#CEBEA2;" d="M351.1,150.2c0,0.3-0.1,0.6-0.1,0.9c-2.9,1.4-6,1.9-9.2,2C344.8,151.4,347.9,150.7,351.1,150.2z"/>
<path style="fill:#D1C8C3;" d="M235,129c-0.4-0.3-0.7-0.7-1.1-1c2.2-1.4,4.7-0.7,7.1-1C239.6,129.3,237,128.2,235,129z"/>
<path style="fill:#C6BDB7;" d="M234,386c-0.3-0.6-0.7-1.2-1-1.8c2,0,3.9,0,6,0c0.1,1.4-1.6,0.9-1.9,1.8C236,386,235,386,234,386z"/>
<path style="fill:#8E4C00;" d="M186.1,298.2c-10.3-0.5-19.5-3.2-24.2-13.4c-4.2-9-0.4-18.4,8.8-22.3c4.5-1.9,9.1-2.6,14.1-1.5
	c8,1.9,15.1,5.3,20.7,11.2c8.3,8.6,5.6,19.8-5.6,23.8C195.5,297.6,190.9,298.3,186.1,298.2z"/>
<path style="fill:#8E4C00;" d="M325.5,298.1c-4.9,0.2-9.6-0.7-14.1-2.4c-9.5-3.7-12.2-13-6.4-21.4c6.1-8.9,22.1-15.5,31.9-13.2
	c8.4,2,14.4,7.9,15.2,15.1c0.7,6.6-4.3,15.1-11.2,18.6C336.1,297.1,331,298.4,325.5,298.1z"/>
<path style="fill:#FDFDFD;" d="M186.1,291c-5.5,0-10.8-1.2-15-5.2c-2.9-2.8-4.4-6.3-3.5-10.4c1-4.2,4.3-6.2,8.1-7.2
	c8.1-2.3,22.3,4,26.4,11.5c1.9,3.6,0.8,7-3.3,9C194.9,290.6,190.6,290.8,186.1,291z"/>
<path style="fill:#FDFCFC;" d="M325,291c-3.8-0.2-8.1-0.5-12-2.6c-4.3-2.3-5.3-6.2-2.2-9.9c6.1-7.2,13.9-11.3,23.5-10.6
	c4.7,0.4,8.8,2.3,10.1,7.4c1.2,4.9-1,8.8-4.8,11.7C335.5,290.2,330.6,291,325,291z"/>
<path d="M185.9,288.8c-4.4,0-8.7-0.9-12.1-4.2c-2.3-2.3-3.6-5-2.8-8.3c0.8-3.4,3.5-5,6.5-5.8c6.5-1.8,18,3.2,21.2,9.2
	c1.6,2.9,0.6,5.6-2.7,7.2C193,288.4,189.5,288.6,185.9,288.8z M325.5,289c-3.1-0.2-6.7-0.4-9.9-2.1c-3.5-1.9-4.4-5.1-1.8-8.1
	c5-5.9,11.4-9.3,19.4-8.7c3.9,0.3,7.3,1.9,8.3,6.1c1,4.1-0.8,7.2-3.9,9.6C334.2,288.3,330.1,289,325.5,289z"/>
</svg>
