<?xml version="1.0" encoding="utf-8"?>
<!-- Generator: Adobe Illustrator 23.0.3, SVG Export Plug-In . SVG Version: 6.00 Build 0)  -->
<svg version="1.0" id="Layer_1" xmlns="http://www.w3.org/2000/svg" xmlns:xlink="http://www.w3.org/1999/xlink" x="0px" y="0px"
	 viewBox="0 0 512.2 512.2" style="enable-background:new 0 0 512.2 512.2;" xml:space="preserve">
<path style="fill:#5E2A15;" d="M88.5,218.3c-8.6-3.9-11.9-11.4-13.8-20.1c-8.5-37.9-4.6-73.9,17.9-106.5
	C112.2,63.3,139.9,46,173,37.2c65.2-17.4,130.4,8,167.5,64.6c5.2,7.9,12.3,14.4,17.2,22.6c23.8,40.1,22.9,80.6,1.2,121
	c-5,9.3-5.9,18.1-3.1,27.7c5.9,19.7,18.9,34.1,35.1,46c15.3,11.2,28.9,24,38.7,40.5c25.1,42.2,7.9,89.4-20.9,115
	c-1.7,1.5-3.8,2.8-5.8,3.8c-6.4,3.2-12.9,2.4-17.6-2.1c-4.4-4.1-5.7-10.7-3.3-17.1c0.3-0.9,0.7-1.9,1.2-2.8
	c5.6-11.9,3-22.4-5.7-31.6c-9.9-10.6-22.7-16.7-35.9-21.9c-14.5-5.7-29.6-9.9-43.8-16.5c-2.9-1.4-5.9-0.2-8.8,0.1
	c-19.4,1.8-38.2,0.1-56.1-8.3c-11.5-5.4-20.7-13.2-27.4-24c-1.2-2-2.6-3.9-4-5.7c-6.3-8.2-14.6-10.9-24.8-9.1
	c-10.5,1.9-20.5,5.8-31.1,7.2c-7.9,1-15.6,0.8-23-2.5c-13-5.6-19.6-18.7-16-32.3c1.7-6.5,1.5-12-3.5-17.4c-5-5.5-6.8-12.5-4.9-20
	c0.5-2,0.5-3.6-0.7-5.6c-3-4.6-3.4-9.7-1.3-14.8c1-2.3,0.3-3.2-1.5-4.3c-2.7-1.8-4.9-4-6.8-6.6C81.9,235.4,82.1,228.8,88.5,218.3z"
	/>
<path style="fill:#904F22;" d="M329.1,111c8.3,9.3,16.2,18.9,21.6,30.3c5.7,12,8.9,24.4,9.5,37.8c1.1,22.8-4.6,43.5-16.1,63
	c-7.4,12.6-5.7,25.9-1,38.9c7.6,21.1,21.9,36.9,39.8,49.9c13.3,9.6,25.1,20.7,33.7,34.9c12.7,21,13.8,42.8,4.9,65.4
	c-4.8,12.3-12.2,22.8-21.8,31.8c-1,1-2.1,2.7-3.7,1.6c-1.4-1,0-2.6,0.4-3.6c9.9-23.2-0.4-40.4-17-53.7c-14.2-11.3-31-17.7-48.1-23.5
	c-28.7-9.6-55.9-21.9-79.4-41.5c-27.9-23.3-44.3-52.8-49.7-88.7c-2.7-17.8-2.2-35.7-1.1-53.6c0.8-13.3,3.5-26.1,6.3-40.1
	c-11.2,10.8-24.6,10.9-37.8,11c-6.5,0.1-12.9,1.8-19.4,1c-0.1-3.1,2.6-4.1,4.4-5.5c17.5-13.9,37.5-22.6,59.4-26.8
	c16.3-3.1,33-4.2,49.3-7.3C286.2,128.1,309,123.8,329.1,111z"/>
<path style="fill:#B36228;" d="M329.1,111c-5.4,6.8-13.4,9.1-20.9,11.7c-19.5,6.9-39.9,10.5-60.4,13.4c-18.6,2.6-37.5,4.1-55.3,10.7
	c-15.7,5.8-30.1,13.8-42.4,25.2c-7.6,1.4-15.4,2.4-22.7,5.1c-11.3,4.3-19.6,12.1-26.3,21.9c-2,2.8-3.9,6.8-8.7,5.1
	c2-16.7,4-33.3,9.6-49.4c7.6-21.8,19.2-41.2,35.6-57.2c24.4-23.7,53.5-38.1,87.6-41.9c15.2-1.7,30.2-1.6,44.9,3.4
	C295.8,69.5,314.5,88,329.1,111z"/>
<path style="fill:#FAD74E;" d="M135.2,189.9c7.7-2.9,15.8-3.3,23.9-3.8c8-0.5,16-0.7,23.9-1.2c5.7-0.4,5.7-0.5,4.2,5.2
	c-6.9,14.2-9.6,29.6-11.7,45.1c-2.6,19.9-4.1,40-7.1,59.8c-2.2,13.9-7.4,26.5-18.3,36c-6.1,2.1-12.3,2.7-18.6,1.1
	c-9.3-2.3-13.2-8.6-10.8-17.9c1.4-5.3,1.7-10.5,0.5-15.8c-0.9-4.3-2.4-8.2-5.8-11.3c-3.5-3-4.6-7-2.9-11.3c1.8-4.7,1.1-8.9-1.9-12.7
	c-1.5-2-1.7-3.6-0.4-5.8c5.5-9.7,5.3-10.3-3.9-16.6c-1.1-0.7-2.1-1.6-3.1-2.4c0.2-4.3,2.9-7.2,5.6-10.2c6.6-7,14.1-13.1,19.7-21
	C132.1,202,135.2,196.6,135.2,189.9z M150.1,331.1c3.2-4.6,6.5-9.2,9.4-14c5.6-9.3,7.2-19.7,8.6-30.3c2.6-18.6,3.8-37.4,6.7-56
	c2-12.6,3.9-25.2,9.4-36.9c0.7-1.5,1.2-3.2,3-3.8c-1.1,15.6-2,31.2-1.2,46.9c2.9,54.5,26.9,97.2,72.1,128c3.7,2.5,7.4,4.9,12.3,8.1
	c-23.2-2.3-42.2-8.8-54.8-28.9c-11.1-17.7-25.5-22.5-46.1-17.7C163,328,156.8,330.5,150.1,331.1z"/>
<path style="fill:#FDFDFD;" d="M270,59c-9.9-1-19.6-3.1-29.7-3c-65.4,0.4-123.5,45.4-140.1,108.7c-3.1,11.8-4.9,23.7-5.9,35.9
	c-0.1,1.4,0.9,3.7-2,3.6c-4.7-6.5-5.1-14.3-6.1-21.8c-10.3-72,38.3-119.4,94.1-132.3c28.9-6.7,57.1-4.8,84.7,6.2
	C266.7,56.9,268.9,57.1,270,59z M135.2,189.9c2,0.4,1.4,1.6,1.1,3c-1.6,8.3-6.1,15-11.7,20.9c-4,4.2-8.1,8.3-12.3,12.3
	c-3.8,3.6-6.8,7.6-9.2,12.2c-6.9-5.4-7-7.5-0.7-13.7c4.9-4.7,9.9-9.3,14.6-14.2c3.5-3.6,6.6-7.6,8.2-12.3
	C126.9,193.1,130.4,190.8,135.2,189.9z"/>
</svg>
